/* XPM */
static char *noname[] = {
/* width height ncolors chars_per_pixel */
"48 48 8 1",
/* colors */
"` c #000000",
"a c #878787",
"b c #FF6F6C",
"c c None",
"d c #B72828",
"e c #5C5C5C",
"f c #D3D3D3",
"g c #C1C1C1",
/* pixels */
"cccccccccccccccccccccccccccccccccecccccccccccccc",
"cccccccccccccccccccccccccccccccceecccccccccccccc",
"ccccccccccccccccccccccccccccccca`acccccccccccccc",
"ccccccccccccccccccccccccccccccceeccccccccccccccc",
"ccccccccccccccccccccccccccacccc`accccccccccccccc",
"cccccccccccccccccccccccccaecccc`cccccccccccccccc",
"ccccccccccccccccccccccccceacccaecccccccccccccccc",
"ccccccccccccccccccccccccc`eccca`cccccccccccccccc",
"cccccccccccccccccccccccca`fccca`cccccccccccccccc",
"ccccccccccccccccccccccccaeccccaeaeeacccccccccccc",
"cccccccccccccccccccccccc`ecccce````eaccccccccccc",
"ccccccccccccccccccccccca`accce`ede`ecacccccccccc",
"ccccccccccccccccccccccee`cccc``d````e`accccccccc",
"cccccccccccccccccccae``accccee``d`d```acccccccaa",
"cccccccccccccccccca`eefccccce`d``ee```acccccce`g",
"cccccccccccccccccca``eagcccae`e`ed````cccaae`eac",
"ccccccccccccccca`acae```ace`````e``e``````e`gccc",
"cccccccccccccce`a`accca``e`eb````````acccccccccc",
"ccccccccccccce`ace`acccca`ed```````agccccccccccc",
"cccccccccccce`accg``accee`d```d`gacgcccccaee`acc",
"ccccccccccae`accccg`ec```e``````fccccae```eagccc",
"cccccaee````accccccg`e`dd````e`accccc``egccccccc",
"cccce`eeaaccccccaaaeee`e```e```eaccceecccccccccc",
"cccccccccccccee`````eee```d`eae``aaa`acccccccccc",
"ccccccccccce``eeee```````e``afce`ee``ccccccccccc",
"cccccccccca`gccae`ede```e``ecccce```gccccccccccc",
"ccccccccca`ecce`dde`````eeefccccce`ecccccccccccc",
"cccccccca`eccee`eed````e`e`eccccccaecccccccccccc",
"cccccccae`acc`dd``e``d```ae`eccccccccccccccccccc",
"ccccccce`acca`dee``de``e`cce`ecccccccccccccccccc",
"cccccae`ecccee`d```````e`cca``accccccccccccccccc",
"cccce`eacccc`d``e``ed`ee`ccca`eacccccccccccccccc",
"cae`eaccccca`e````d``ege`cccce`ccccccccccccccccc",
"``eacccccccc`d```e```ac`accce`gccccccccccccccccc",
"gccccccccccc```e``deacc`ccce`acccccccccccccccccc",
"ccccccccccccge``eaaccceecca`accccccccccccccccccc",
"cccccccccccccgcfgcccae`ecc`afccccccccccccccccccc",
"ccccccccccccccccccca``acca`ccccccccccccccccccccc",
"cccccccccccccccccae`eacccaeccccccccccccccccccccc",
"cccccccccccccccca``eccccceeccccccccccccccccccccc",
"cccccccccccccccceeacccccc`eccccccccccccccccccccc",
"cccccccccccccccc`accccccf`accccccccccccccccccccc",
"ccccccccccccccceecccccccc`cccccccccccccccccccccc",
"ccccccccccccccc`accccccccacccccccccccccccccccccc",
"cccccccccccccceecccccccccccccccccccccccccccccccc",
"cccccccccccccc`ecccccccccccccccccccccccccccccccc",
"ccccccccccccca`fcccccccccccccccccccccccccccccccc",
"cccccccccccccaeccccccccccccccccccccccccccccccccc"
};
