/* XPM */
static char *noname[] = {
/* width height ncolors chars_per_pixel */
"48 48 11 1",
/* colors */
"` c #000000",
"a c #878787",
"b c #FFAE00",
"c c #FF0000",
"d c #FF6F6C",
"e c None",
"f c #B72828",
"g c #5C5C5C",
"h c #FFFF00",
"i c #D3D3D3",
"j c #C1C1C1",
/* pixels */
"eeeeeeeeeeeeeeeeeeeeeeeeeeeeeeeeeeeeeeeeeeeeeeee",
"eeeeeeeeeeeeeeeeeeeeeeeeeegg`g``geeeeeeeeeeeeeee",
"eeeeeeeeeeeeeeeeeeeeeeeeeg````g```geeeeeeeeeeeee",
"eeeeeeeeeeeeeeeeeeeeeeeegg`gieeagg`gifeceeeeeeee",
"eeeeeeeeeeeeeeeeeeeeeeeg``geeeeeeg``gccfieeeeeee",
"eeeeeeeeeeeeeeeeeeeeeeeg``geeeeeeechfcdeeeeeeeee",
"eeeeeeeeeeeeeeeeeeeeee`g````eeeeccffhhccfeeeeeee",
"eeeeeeeeeeeeeeeeeeeee``g`````eeeecfhhbbfeeeeeeee",
"eeeeeeeeeeeeeeeeeeeeg`g``````ieececfhbfceeeeeeee",
"eeeeeeeeeeeeeeeeeeeg`gg`g`g``geeefecfdcfceeeeeee",
"eeeeeeeeeeeeeeeeeg````````````aeeeecdcceeeeeeeee",
"eeeeeeeeeeeeeeee````````````````geeceeceeeeeeeee",
"eeeeeeeeeeeeeeg``````````````````aeeeeeeeeeeeeee",
"eeeeeeeeeeeee``````````````````````eeeeeeeeeeeee",
"eeeeeeeeeeee```````````````````jgg``eeeeeeeeeeee",
"eeeeeeeeeee``````jjgg```````````cfg``eeeeeeeeeee",
"eeeeeeeeee`````jagg`````````````gjf```eeeeeeeeee",
"eeeeeeeee`````jgg`````````````g```g````eeeeeeeee",
"eeeeeeee`````jgg````````````````````````eeeeeeee",
"eeeeeeeg````jg``````````````````````````geeeeeee",
"eeeeeeg`````jg```````````````````````````eeeeeee",
"eeeeee`````jg`````````````````````````````eeeeee",
"eeeeeg`````jg`````````````````````````````eeeeee",
"eeeeeg````ggg`````````````````````````````geeeee",
"eeeee```g`g```````````````````````````````geeeee",
"eeeei`````gg``g````g```````````````````````eeeee",
"eeeee``````````````````````````````````````eeeee",
"eeeee```````````````````g``````````````````eeeee",
"eeeee``g```````````````````````````````````eeeee",
"eeeee```````g````````f`````````````````````eeeee",
"eeeee```g``````````````````````````````````eeeee",
"eeeeeg````g``g`````````````````````````````eeeee",
"eeeeea`````````````````````````````````g``geeeee",
"eeeeee````g````````````````````````g``````aeeeee",
"eeeeeeg``````g````````````````````````````eeeeee",
"eeeeeee`````g````````````````````````````geeeeee",
"eeeeeeea```g`````````````````````````````eeeeeee",
"eeeeeeee````g``f```````````````g``g`````aeeeeeee",
"eeeeeeeee`````g``````````````````````g`geeeeeeee",
"eeeeeeeeee`````g``````````````f````````gggeeeeee",
"eeeeeeeeeee``````g````````g``````g````g`gggeeeee",
"eeeeeeeeeeee``````g`g``f`````````````g```gggeeee",
"eeeeeeeeeeeee``````````````````````g``g`gggggjee",
"eeeeeeeeeeeeeag`````````````g````g``g`g``g`ggeee",
"eeeeeeeeeeeeeeeag````````g`````g``g```g`gfgggeee",
"eeeeeeeeeeeeeeeeega`g``````g`g`g`g`g`gggggageeee",
"eeeeeeeeeeeeeeeeeeeegaggggggggggggggagfgaaeeeeee",
"eeeeeeeeeeeeeeeeeeeeeeeeeeeeejejejejeeeeejeeeeee"
};
