/* XPM */
static char *noname[] = {
/* width height ncolors chars_per_pixel */
"48 48 15 1",
/* colors */
"` c #000000",
"a c #878787",
"b c #3012AA",
"c c #FF00FF",
"d c #FF0000",
"e c None",
"f c #4ABD40",
"g c #8597FF",
"h c #B72828",
"i c #5C5C5C",
"j c #5278BF",
"k c #FFFFFF",
"l c #D3D3D3",
"m c #C1C1C1",
"n c #0000FF",
/* pixels */
"eeeeeemaijjijjjibaamaeeeeeeeeeeeeeemiiiiiiiaeeee",
"eeeeaiibjbbbbjbjjgjjaameeeeeeeeeeaijakmkkliiieee",
"eemijbbjbijbjbgjjbgjgjjmeeeeeeeeaiamkklmaagaiiee",
"eaibibjbbjbjbabgbabgbgaaaeeeeeemiamkmaamamai``ee",
"mjbbjbibjbjbgjjjjjgagagajmeeeeeiakkmemaaei``ieee",
"abijbjbjjjbgbgbgjgbgagagaaeeeeaiakleamji``ieeeee",
"abibibjbnjjjjjjjgjgagagagaeeeeaikkkamai`ieeeeeee",
"bjbjbjbjijjgbjbgbgagagagajeeeeimkakmaa`ieeeeeeee",
"gbjbjbjbgbjjgagagagagaeaebeeeeimkmkmem`igeeeeeee",
"jbibjjbjjgjjjgbgagagaejejbeeeeilmaakjm``aeeeeeee",
"jjjbjbgjjbgbgjgjgagagagab`eeeeikai`klaj`aeeeeeee",
"jjjgbjbgbjbgjjjeagaeagjbibeeeaiki`iikaii`meeeeee",
"jjgagagjjagagagagagagbb`b`eeeiaki`kkkmai`aeeeea`",
"jgjgjejjjgbgagagajibb`ibbbeeeimlaikiikaj``eemai`",
"gigaejejgjgbnbbbb`b`bbb`b`eeiikmaj`kkkkmi`kamab`",
"bajejeagijijbjbj`bb`b`bbibeeimmmaaik`ikaii`aji`i",
"gjcaeegagagbgbibbibib`b`b`eaikaaemajemkmea`ii`ie",
"jgjgjeagjgbjjbibib`b`bibbbaikaamjaiiiib`i````iee",
"jjeaejeagjgbnjbbb`bbb`b`biikailmai````````iieeee",
"jjagagagjijjbibjiaifiaia`ikaiamai``i`ii`ii`eeeee",
"gigaeegagajbgbjbimlmkmlfakaigemi``aaiaaa```aeeee",
"bgagaeagjjjjjbibilmkakiikaiamm```maaimamjm`aeeee",
"gjgagagagjjbnjibimlmkiikaigemi``miamiaamem`aeeee",
"baagaeagjbjjjbbjikmliikaiamm```mimaaiamemm`aeeee",
"gjcaegeaeagbjbjbimlaikaieemi``h`dh`hhhh`hh`aeeee",
"agjgaeagbgbjjbibiliikaiame```aimaelljklkkk`aeeee",
"mjejejeagajbnjibiiikaigemi``mmjmmllkakkkkk`aeeee",
"eajgaejebjjjjbbj`ikaiamm```iii`iiiiiiiiiia`aeeee",
"eeamegeaejjbjjbiikaieemi``malmallkkkmkkkkk`aeeee",
"eemaagagbgjjbj`ikaiamm```mammealkkekakkkkk`aeeee",
"eeeeaagagajbjbikaigemi``hiiii`aiaiiaiiiiiiiameee",
"eeeeelamajjj`ikaiamm```m`aamllakekkkmkkkkk`aeeee",
"eeeeeeeeemeaikaigemi``mahmlllkmkkkkkakkkkk`aeeee",
"eeeeeeeeeeaikaiamm```ii`hiiiiiiiiiiiaiiiia`aeeee",
"eeeeeeeeeaikaigemi``miam`llkkkgkkkkkmkkkkk`aeeee",
"eeeeeeeeiikaiamm```aimaahlmkekmkkkkkakkkkk`aeeee",
"eeeeeeeaikaigemi``iiiiiihiaiiiiiiiiiaiiiiiiameee",
"eeeeeeaikaiamm```mimaamahkekkkmkkkkkmkkkkk`aeeee",
"eeeeeaikaigemi``iiaammlmhkkkkkmkkkkkakkkkk`aeeee",
"eeeeaikajimm```eiiihiiiihiiiiiiiiiiiaiiiia`aeeee",
"eeeaikaaeami``eeiaaakalmhkkkkkmkkkkkmkkkkk`aeeee",
"eeiiki`iam```eemiammmmmk`kkkkkakkkkkakkkkk`aeeee",
"eeaia```mi``eeeei`aiiiiihiiiiiaiiiiiaiiiiiiieeee",
"eea`ikkib``eeeemimmmmemlhkkkkkmkkkkkmkkkkk`aeeee",
"eea``iii``eeeeeeimmmkmkmhkkkkkakkkkkakkkkk`aeeee",
"eeei`````eeeeeeei``````````i``i``i``i`i``i`aeeee",
"eeeeiiiieeeeeeeeeaaaaaaaaaaaaaaaaaaaaaiaaaaaeeee",
"eeeeegeeeeeeeeeeeeleleleeeeeeeeeeeeeeeeeeemeeeee"
};
