/* XPM */
static char *noname[] = {
/* width height ncolors chars_per_pixel */
"48 48 14 1",
/* colors */
"` c #000000",
"a c #FFE779",
"b c #878787",
"c c #FFAE00",
"d c #3012AA",
"e c #FF6F6C",
"f c None",
"g c #4ABD40",
"h c #8597FF",
"i c #B72828",
"j c #5C5C5C",
"k c #FFFFFF",
"l c #D3D3D3",
"m c #C1C1C1",
/* pixels */
"ffffffffffffffffffffffffffffffffffffffffffffffff",
"ffffffffffffffffffffffffffffffffffffffffffffffff",
"ffffffffffffffffffffffffffffffffffffffffffffffff",
"ffffffffffffffffffffffffffffffffffffffffffffffff",
"ffffffffffffffffffffffffffffffffffffffffffffffff",
"ffffffffffffffffffffffffffffffffffffffffffffffff",
"ffffffffffffffffffffffffffffffffffffffffffffffff",
"ffffffffffffffffffffffffffffffffffffffffffffffff",
"ffffffffffffjjbbbbbfffffffffffffffffffffffffffff",
"ffffffffffmjjjammambbbbfffffffffffffffffffffffff",
"ffffffffff`bjbmkkkkkkljmffffffffffffffffffffffff",
"fffffffffmjbbbalkkkkak`ffffffffmmbbbbbffffffffff",
"fffffffff`bjbjmaklakkkkjmfffffffbmammmbbbbbfffff",
"fffffffmjbjbbgmmkkkkkak`fffffffmbklklkammaj`ffff",
"ffffffff`bbbjbamakllkkkk`ffffffbllkaklkalj``lfff",
"ffffffmjbbbjbbbmlkakkakakjffffbakklklklkb`i`ffff",
"fffffff`bjbcjbamakkkakkkkljjjblkllklkaka````lfff",
"fffffl`bbbjbbjmbmkakkkakkakklklklkaklkkji`i`ffff",
"fffffjjbjbgbjbammlkklkkkakklklkaklklaka````iffff",
"fffff`bbgibbbjmbmakakkakkklkaklklklkkkji`i``ffff",
"ffffjjbbbbbjbbamamkkkakkllklklklkakaka````j`ffff",
"ffl`jbbjbigbbjmbmbkakkklkaklkaklkkakljj`i`i`ffff",
"fffijbbbgbbjbgammalkkllklklklklkakkaki``````lfff",
"fff`jiijejbbbimbmbaklkaklklklkalkalkb```i`i`ffff",
"fffiji`ijiijjbamammlklklkaklkakkakkaj`i````iffff",
"fffj`jebejijiijibbmkaklklklkakkakkle```j`i``ffff",
"fff`iieabebi`jji`iijbmaklkakkakkakaj`i``i``jffff",
"ffl`jebcbcejijijjidi`ijibbmlakkaklb```i``j``ffff",
"fff`ibebebebi`jij`ijid`ijiijbbmllaj`i```i``iffff",
"fff`ibcacbcbijidijidi`idijjbibiibji```i``i``ffff",
"fff`ibebecbeji`i`ij`idijjijibijbij``i``````ihfff",
"ffl`jibcebcbididi`dijijjijedijbiji`i```i`i``ffff",
"fff`ijibcbec`ijidiijjjedejibidibid```i````i`ffff",
"ffl`di`ibcidijj`ijdibijijidbibijjii`j``i`j``ffff",
"fff`ijidi`ji`ijibibbidejbibidedibj``i`j``i``lfff",
"ffl`ijji`jididbidbjijbibidibijibi`i````i``i`ffff",
"fff`id`idijijibbiibibidibibibibdij``i```````lfff",
"fff`i`ijijibjedijedidbibibididiji`i``i`i`i`jffff",
"fff`didijjdibjibjibibidididiji`idj``j```j``ihfff",
"ffl`ibibibibjibidididijij`i`i`di`i`i``i``i``mfff",
"fff`jidjjidididijji`i`didi`jji`ij````i``i```lfff",
"fffff``i`dijidi`i`jjjji`i`ji`ji`ji`i``j```ifffff",
"fffffffff`````ididi`i`ji`ij`ij`ij`j``i``i`ffffff",
"fffffffffflllf`````ijji`jjji`idi`i`i``i``fffffff",
"ffffffffffffffflfl````ji`i`idi`id```````lfffffff",
"ffffffffffffffffffflfl``j```i`i`ii`i`ilfffffffff",
"fffffffffffffffffffffffffflj```j`d```fffffffffff",
"ffffffffffffffffffffffffffffffl`i``iffffffffffff"
};
