/* XPM */
static char *noname[] = {
/* width height ncolors chars_per_pixel */
"48 48 7 1",
/* colors */
"` c #000000",
"a c #878787",
"b c None",
"c c #5C5C5C",
"d c #FFFFFF",
"e c #D3D3D3",
"f c #C1C1C1",
/* pixels */
"bbbbbbbbbbbbbbbbbbbbb``c``cbbbbbbbbbbbbbbbbbbbbb",
"bbbbbbbbbbbbbbbbbbbbb`c``c`bbbbbbbbbbbbbbbbbbbbb",
"bbbbbbbbbbbbbbbbbbbb`c``c```bbbbbbbbbbbbbbbbbbbb",
"bbbbbbbbbbbbbbbbbbbb`c`c`cc`bbbbbbbbbbbbbbbbbbbb",
"bbbbbbbbbbbbbbbbbbb`c`c`c````ebbbbbbbbbbbbbbbbbb",
"bbbbbbbbbbbbbbbbbbbc`c`c`c`c`bbbbbbbbbbbbbbbbbbb",
"bbbbbbbbbbbbbbbbbb``c`c`c``c``bbbbbbbbbbbbbbbbbb",
"bbbbbbbbbbbbbbbbbbc`c`ccc`c``cbbbbbbbbbbbbbbbbbb",
"bbbbbbbbbbbbbbbbb`c`cc``c`c`c``bbbbbbbbbbbbbbbbb",
"bbbbbbbbbbbbbbbbe`cc`ccc`c`c`c`bbbbbbbbbbbbbbbbb",
"bbbbbbbbbbbbbbbbc`c`ccccc`c`c`c`bbbbbbbbbbbbbbbb",
"bbbbbbbbbbbbbbbb`ccccc`c`cc`c`c`bbbbbbbbbbbbbbbb",
"bbbbbbbbbbbbbbbcc`c`cccccc`c`c`c`bbbbbbbbbbbbbbb",
"bbbbbbbbbbbbbbbc`ccccccc`ceec`c`cbbbbbbbbbbbbbbb",
"bbbbbbbbbbbbbb`ccc`cccccccffcc`c``ebbbbbbbbbbbbb",
"bbbbbbbbbbbbbbcc`ccccccccffeacc`ccbbbbbbbbbbbbbb",
"bbbbbbbbbbbbbc`ccccaaccccffffc`cc`cbbbbbbbbbbbbb",
"bbbbbbbbbbbbbccccccacaacffffffcc`c`bbbbbbbbbbbbb",
"bbbbbbbbbbbbc`ccccaaacacbffffaccc`c`bbbbbbbbbbbb",
"bbbbbbbbbbbbccccccaaaaabbffafff`ccccbbbbbbbbbbbb",
"bbbbbbbbbbbccccccafaaaabbbfffafcc`c`cbbbbbbbbbbb",
"bbbbbbbbbbbccccccfaaaabbbbafaffacccccbbbbbbbbbbb",
"bbbbbbbbbbcccccafafafabbbbbafaafccc`c`bbbbbbbbbb",
"bbbbbbbbbbcccccaafafabbbbbbafafaacccccbbbbbbbbbb",
"bbbbbbbbbccccaaffafafbbbbbbbafaafcccc`cbbbbbbbbb",
"bbbbbbbbbccccacffbafbbbbbbbbaafaaacccccbbbbbbbbb",
"bbbbbbbbcccaaafffffabbbbbbbbbaaafaccccccfbbbbbbb",
"bbbbbbbbcacaaafffffbbbbbbbbbbfaaaaacccccbbbbbbbb",
"bbbbbbbccaaaaffffffbbbbbbbbbbbaaaaaacccccbbbbbbb",
"bbbbbbbacaaaaeefffbbbbbbbbbbbbaaaaaacccccbbbbbbb",
"bbbbbbccaaaaeeeeffbbbbbbbbbbbbbaaaaacaccccbbbbbb",
"bbbbbbaaaaaaeeeeebbbbbbbbbbbbbbcacacaaccccbbbbbb",
"bbbbbcaaaaadeeeeebbbbbbbbbbbbbbbcaccacaccccbbbbb",
"bbbbbaaaaafeedeebbbbbbbbbbbbbbbbcacaccaaaccbbbbb",
"bbbbaaaaafeeeeeebbbbbbbbbbbbbbbbbccccaacacacbbbb",
"bbbbaaaafadededbbbbbbbbbbbbbbbbbbccccccacaccbbbb",
"bbbaaafaadedeeebbbbbbbbbbbbbbbbbbbcccccaaaaacbbb",
"bbbafafafdededbbbbbbbbbbbbbbbbbbbbccccccaaacabbb",
"bbaaaafafaffffffffefeeeeeeeededededcccccaaaaacbb",
"bbafafafaffffffeeeeeeeeeedededededecc`cccaaaaabb",
"bafaffffffffffefeeeeededeedededededeccc`caaaaaab",
"bafafafafffffeeeeeedeeededededededdec`ccccafaaab",
"afaffffffffffeeeeeeededededededddededc`c`caaaaaa",
"cc`cc`c`c`cc`c`cc`cc`c`c`c`c`c`c`ccc`c`ccccfafaa",
"b`c`c`cc`c`cc`c`c`c`c`c`c`c`cc`c`c`cc`c`c`caafab",
"be`cc`c`c`c`c`c`c`c``c``c`c`c`c`c`c`c`cc`c`cfabb",
"bbbc`c`c`c`c`c`c`c`c``c`c`c`c`c`c`c`c`c`c`c`fbbb",
"bbbb`c`c`c`c`c`c``c``c`c``c``c`c`c``c`c`c`c`bbbb"
};
