/* XPM */
static char *noname[] = {
/* width height ncolors chars_per_pixel */
"48 46 10 1",
/* colors */
"` c #000000",
"a c #878787",
"b c #3012AA",
"c c None",
"d c #8597FF",
"e c #5C5C5C",
"f c #5278BF",
"g c #FFFFFF",
"h c #D3D3D3",
"i c #C1C1C1",
/* pixels */
"cccccccccccccccccaghghghgaccccaghghghgaicccccccc",
"cccccccccccccccccihhccicc`ccccagadacaa`ccccccccc",
"cccccccccccccccccaghchiic`cccciccaafaaeacccccccc",
"cccccccccccccccccihciiccc`ccccacaaaaaf`ecccccccc",
"cccccccccccccccccihhcccad`iaiaccafaafaeecccccccc",
"ccccccccccccccccchcicidcifacdideaafefeeecccccccc",
"cccccccccccccccccchccacaceacaacefaaafee`cccccccc",
"ccccccccccccccccchcdidcacfecaaaeafefeef`cccccccc",
"ccccccccccccccc``gciaccdaaaaafcfaefefae```cccccc",
"cccccccccccccc`hhhhchhihhccccccafcadaadcdaeccccc",
"cccccccaaaiaaaccfafafafafafababafebaebeeee``cccc",
"cccccaaccadacahfaaafafefefefefeeeaebeeeebe`ecccc",
"ccccacdeeeeebecafafafafababaeefbebeefbebeeb`cccc",
"cccacfeeeb`e`cafafababaefaababeaefebeeeeeee``ccc",
"ccacaefeeee`fcfaafaaafefebaefeebeeeeebeb`ee`eccc",
"ccafabebeb`eifaeaabafaafaafefafafffefeeefebe`ccc",
"cacafeeee`ebaafe`e`e``b`e`e`e`e`e`be`ebeebe```cc",
"caifaebeebeafaf``````````````````````````eebeecc",
"ccfabeee`eefafe``eeeeeeeeebeeebeee`eb`e``ee`e``c",
"acaafeeee`edafe`eefffabebeef`eebebf`eeee``fbe`ec",
"acfeebeb`ecafe``ffeebaeefeba`beeeeeeb`beb`fe`e`c",
"iaabeeeeefdefe`fafefafebeeefeeeb`ef`eee`e``f`e``",
"affefeb`eaafe`efbefefebefbef`eeeebee`bee`e`fe`be",
"aaabeeeb`aaba`baeabeabeeeeea`bebe`ef`e`eb`eeee``",
"abe`e``e`daf`afefeaedeebebef`ee`ebeebeb`e`b`f`e`",
"ae`e`e``eafaeeabababebeeeeebeeebeebe`e`e`eee`be`",
"ae```a```dafbabaeefeeebebeeeebe`e`e`e`ebe`b`e`e`",
"aa```c```eeeeeeeebeeebeeeb`b`e`eebebebe`ee`eebe`",
"ccccce`cc``b`e``e```e````e`e``b```````e```e`````",
"ccccc``cc`e`e``b`e`b`e`e`e```e`e`e`e`e``e``e`e``",
"ccccce`ce``e`b`e``e```e```e`e```e```e``e````````",
"ccccc`ec``b``````````````````````````````````e`e",
"cccc``ce`e``e```````````````````````````````e```",
"cccce`c``ce`````e`e`e`e`e`e`e`e`e`e`e`e`ee`````c",
"cccc``ce`cce``eee``````e``````e``e````fee```e`cc",
"ccc`e`c```cce`iaeaeaeaeaeaeaeaeaeaeaeaeaea`e`ccc",
"ccc``ecce``ccicaa````e`````a`````a`ea```aae`cccc",
"ccee`ccc``ecciiaaiaiiaicaiicaicaiiiiaiaiaieecccc",
"cc```ccc`e`ccciia```i```e``e````i```````iaiecccc",
"c`e`ccccc``ccciiiiiiiiiiiiiiiiiiiiiiiiiiiii`cccc",
"c``eccccce`cchii`ee``i``e````e``````````iiie`ccc",
"ce`cccccc``cihiciiiiiiiiiiiiiiiiiiiiiiiciicaeccc",
"c``ecccc`e`cihch``ec`e`c``````a```a`h````chieccc",
"cee``e``e``chghhhhhhhhhghghghghghghghghghhhg`ccc",
"cc````````ccghgghgghgghhghghghghghghghghgghheccc",
"ccccccccccccg````````````````````````````````ccc"
};
