/* XPM */
static char *noname[] = {
/* width height ncolors chars_per_pixel */
"48 48 12 1",
/* colors */
"` c #000000",
"a c #FFE779",
"b c #878787",
"c c #FFAE00",
"d c #FF6F6C",
"e c None",
"f c #4ABD40",
"g c #B72828",
"h c #5C5C5C",
"i c #FFFFFF",
"j c #D3D3D3",
"k c #C1C1C1",
/* pixels */
"eeeeeeeeeeeeeeeeeeeeeeeeeeeeeeeeeeeeeeeeeeeeeeee",
"eeeeeeeeeeeeeeeeeeeeeeeeeeeeeeeeeeeeeeeeeeeeeeee",
"eeehhhhhhhhhhhhhhhhhhhhhhhhhhhhhhhhhhhhhhhhhheee",
"eeehijijjijjijjijjijjijjijjijjijjijjijjijjij``ee",
"eeehj``h`iiij`h``h``iiii``hjiijiijiijiijiiji```e",
"eeehiih`iijiii`ii``ijijii`ijijiijiijiijiijii```e",
"eeehjj``ijijijhji`hiijiji`iiijijiijiijiijiij```e",
"eeehjih`iijiii`ijh`jijiijhjijiiiijiijiijiiji```e",
"eeehji`hjiijij`ii`hjiijii`ijijijiijiijiijiij```e",
"eeehijh`jijiijhji``ijiiji`jiiijijijijijijiji```e",
"eeehji`hjiijii`ii`hjijiii`iijiiijiiijiijiiij```e",
"eeehijh`jijiji`ijh`ijiiji`ijijijiijiijiijiji```e",
"eeehji`hjiijii`ij`hjijiijhjiijiijijijiijiiij```e",
"eeehji``kjiijk`ijh`kjiijk`ijiijijiijiijiijii```e",
"eeehjih`hbijk`hjih``kjib`hjijiiiijiijiijijij```e",
"eeehijif``bh``ijijfh`bhh`jijiijijiijiijijiii```e",
"eeehjiijhh`hhijijijh`h`hiijiijijijiijiiiijij```e",
"eeehiijiijijijiiiijiijijijijbahbgkjijijijiji```e",
"eeehjijijijijijijiijiijjabdhdhgchgbgijijiiij```e",
"eeehijiiijiiijiijijkabbhgbhchcbhbgfhhbiiijii```e",
"eeehjijijijijijikbdbbcbbbhchbghchggcgh`hjiji```e",
"eeehijiijiiijbbabdfdbbcbcbhhdfghgbf`hhghghii```e",
"eeehjiijijiji`hbdabbdbbdhbgfghgfg`ghgfghhhgh```e",
"eeehjijiiijii`ghbbbcbbcbhcbchhhghfgfhgfghhh`hh`e",
"eeehjiijijiijh`hghabdbbcbbghh`chhghggfghhghghgh`",
"eeehijijiijii`hh`ghbbcbhghhghdfghhgfhghghhhhh```",
"eeehjiiijiiji`ghhhhgbhghhchchhgfgfghgfghhghg````",
"eeehijijiijii`hh`hhhhgfhcbhbgfdhchghhgf`h```````",
"eeehjiijijiji`ghghgh`hgbbgchchghghchg``h````h```",
"eeehijiijiiijh`hh`hh`ghhcbbbhdfdfghh`h``h`h`````",
"eeehjijiijiji`hghhghhhhghgcgbggfg`h`h``h````h`h`",
"eeehjiijiijii`hhhhhh`hhgfhbfgfh`h`h`h```h`h`````",
"eeehjijijiiji`ghghghhghhgghch`g`hh`h``g``g``h```",
"eeehijiiiijii`hhhhhh`hhhgfhhg`hh`h`g`h`h``h```h`",
"eeehjiijjiiji`ghhghghghgfggbhhg`g`h`h`h`h``g`h``",
"eeehiijiiijiii`hhgfh`gfghgfb`h`hh`g`h```h`h```h`",
"eeehjijijijijii`hhghhhgfgfgghg`hh`hh``gh`g``h```",
"eeehijiijiijiiji`gfg`fghghchhhhh`gh`g`h`h``h``h`",
"eeehjijiijiijiiji`hghghchgbghhg`hh`h``h`g`h`g```",
"eeehijiijiijiijiii`h`ghhcbgfh`hhh`hgh`h`h`h```he",
"eeehjiijijiijijijii`hfghgfdhghg`gh`h``g`h``h```j",
"eeehijijiiijijiiijijhgfgbhchhhhhhhhhhh`h``hi```e",
"eeehjiiijijiiijijiiji`gfdghbgh`gh`g`g```hiij```e",
"eeeh````````````````````gbfghhhhhhhh```````````e",
"eeee`````````````````````chchhgh`g`````````````e",
"eeeee`````````````````````gb`hhh```````````````e",
"eeeeeeeeeeeeeeeeeeeeeeeee``bgh```jeejejeeeeeeeee",
"eeeeeeeeeeeeeeeeeeeeeeeeee`````eeeeeeeeeeeeeeeee"
};
