/* XPM */
static char *noname[] = {
/* width height ncolors chars_per_pixel */
"48 48 15 1",
/* colors */
"` c #000000",
"a c #FFE779",
"b c #878787",
"c c #FFAE00",
"d c #3012AA",
"e c #FF6F6C",
"f c None",
"g c #4ABD40",
"h c #B72828",
"i c #5C5C5C",
"j c #5278BF",
"k c #FFFFFF",
"l c #D3D3D3",
"m c #C1C1C1",
"n c #0000FF",
/* pixels */
"ffffffffffffffffffffffffffffffffffffffffffffffff",
"ffffffffffffffffffffffffffffffffffffffffffffffff",
"fffiiiiiiiiiiiiiiiiiiiiiiiiiiiiiiiiiiiiiiiiiifff",
"fffiklkllkllkllkllkllkllkllkllkllkllkllkllkl``ff",
"fffilklkklk`mkklkk``i``i``mlkklm``i`ml`kkklk```f",
"fffilkklkli``klkklki`kklii`klm``kklk``ilklkk```f",
"fffilklkkk`i`kklkkl``klkl`ilk`ikklkkki`kklkl```f",
"fffikkkklm`m`ilklkli`kkkli`lm`iklklklkiklkkk```f",
"fffillklk``k`ilkklk`ilklk`il`illkkklklklklkl```f",
"fffikklkm`mli`klkkli`lkliibli`kklklkkklkkklk```f",
"fffilkkl`ilk``iklkl`i`i``bkl`ilklkklklklklkk```f",
"fffiklkliblkbi`lkklg`lig`kkli`klkklkklkkkklk```f",
"fffilklm``i`i`gbklk`ilki`mlki`kklklklkklklkl```f",
"fffilkk`ilklk```kkli`lkli`mlli`klkklkklklkkk```f",
"fffilkb`mlkklf`ilkl`ilkkki`ml`ibklkkb`ikklkl```f",
"fffikbi`klklkk`i`kli`klklki`kk```klm`ikklklk```f",
"fffil``i`kklk`i``i``i`klklkkklkii``iilklkkkl```f",
"fffikkklklklkklkklkklkkklkklbabiimkllklkklkk```f",
"fffilklkkklklklklklklkllabeieihcihiikkklklkl```f",
"fffiklklklkkklkkklkmabbihbicicibhghghblklkkk```f",
"fffilkklkklklklkbabbebcbbihgbhicihbhgh`iklkl```f",
"fffiknlkklknkbbmbebcbbbbcbihbicihghiihiihikk```f",
"fffilnjnjnjnl`hbabebecbeibcbihiihi`highiiihi```f",
"fffikkjnlklkk`iibbbabbbbcbibc`iihghgihiihii`ii`f",
"fffillkkjnklk`h`hgebegeibcbhi`ciihihhghiiihih`i`",
"fffikklklkjnk`iiiiiegeich`ihgbhghighghiihiiigh``",
"fffilklkjnklk`h`h`iieiiiicbhbhbhghiihghiihih````",
"fffilkjnlklkk`iighiiiiicbbbhgeghghihiihii```````",
"fffilnjnjnjnk`ih`ihi`hibhcicihhbhghgh```````````",
"fffiknklkkknk`iii`gh`gihgbbbhbcicbhi`i`i`i`i`i``",
"fffilklklklkk`hihihi`hihichgeghii`i`i```````````",
"fffilkjnknjlk`i`iiii`ihghibcihi`i`i`i``hi`i`i`i`",
"fffiknknjnknk`hghihiiiiihihii`ih`h`i``i`````````",
"fffiknlkjlknk`ihiiii`hihghghiii`i`i`i``i`h`i`h``",
"fffilnkljklnk`iiihihiihghihgh`i`hi`h``h`i`i```i`",
"fffiknlkjlkdkk`iihgi`iihghib`hii`i`ii``i`i``i```",
"fffilnjnjnjnklk`hihiihihicici`iii`h`i`i`i`h``i`i",
"ffmiknkklkknlkkli`gh`giciihiii`h`ii`i`i`i``i`h``",
"fffilklkklkkklklk`hiihhihghbhihiii`h``h`h`i`````",
"fffiknklklknlkklkk`hiiicbhbhg`i`h`iii``i`i`i``if",
"fffilnjnjnjnklkklkk`ihghicibhiiiii`h``ii`i`i```l",
"ffmiknkklkknlkklkklk`ihbiiciii`h`iiii`h```il```f",
"fffilklkklkkklkklkklk`iciciihiiihi`h`i``ikkk```f",
"fffi````````````````````hibhiihi`iii```````````f",
"ffff`````````````````````cbghiiih`i````````````f",
"fffff`````````````````````hiihii```````````````f",
"fffffffffffffffffffffffff``ci````lffflffffffffff",
"ffffffffffffffffffffffffff`````fffffffffffffffff"
};
