/* XPM */
static char *noname[] = {
/* width height ncolors chars_per_pixel */
"48 48 12 1",
/* colors */
"` c #000000",
"a c #FFE779",
"b c #878787",
"c c #FFAE00",
"d c #FF6F6C",
"e c None",
"f c #4ABD40",
"g c #B72828",
"h c #5C5C5C",
"i c #FFFFFF",
"j c #D3D3D3",
"k c #C1C1C1",
/* pixels */
"eeeeeeeeeeeeeeeeeeeeeeeeeeeeeeeeeeeeeeeeeeeeeeee",
"eeeeeeeeeeeeeeeeeeeeeeeeeeeeeeeeeeeeeeeeeeeeeeee",
"eeehhhhhhhhhhhhhhhhhhhhhhhhhhhhhhhhhhhhhhhhhheee",
"eeehiiiiiiiiiiiiiiiiiiiiiiiiiiiiiiiiiiiiiiii``ee",
"eeehiii````````i````iiii``````iiiii```iiiiii```e",
"eeehijh`iiiiiihiif`h`iiiihiif`iiiiiihiiiiiii```e",
"eeehi``iiiiiiiiii`ii`h`ii`ii`hiiiiii`iiiiiii```e",
"eeehi`h`iii`h```i`iii`h`i`ii``iiiiii`iiiiiii```e",
"eeehii`h`iiiiih`i`iiiii`h`hi`h`iiiih`iiiiiii```e",
"eeehiii`h``h```i`h`iiiijf``ijh`h```h`iiiiiii```e",
"eeehiiiiiiiiiiiiiiiiiiiiiiiiiiiiiiiiiiiiiiii```e",
"eeehi```h```h``iiiih`hiiiii`h````h``iiiiiiii```e",
"eeehi`iii`fiiihiiii`h``iiiii`hiiii`hiiiiiiii```e",
"eeehiiiiih`iiijiiih`i`h`iiiih`iiiih`iiiiiiii```e",
"eeehiiiii``iiiiii``h`h`hiiii``h````iiiiiiiii```e",
"eeehiiiiih`iiiijh`iiijf``iiif`iiihh`iiiiiiii```e",
"eeehjiii``f`iii`hjiiiii`h````h`iiji`hhiiiiii```e",
"eeehiiiiiiiiiiiiiiiiiiiiiiiikagbhkiijiiiiiii```e",
"eeehiiiiiiiiiiiiiiiiiiijakgbchbcghghiiiiiiii```e",
"eeehiiiiiiiiiiiiiiikabdhhcbdhcbgfgfbgbiiiiii```e",
"eeehiiiiiiiiiiiikbdbdbcbbhgfdhgbchggfg`hiiii```e",
"eeehiiiiiiiiihbkdababdbbcbhghdfgbgfhhghhghii```e",
"eeehjiiiiiiii`gabdbcbabcbdfdfghc`hggfgfghhgh```e",
"eeehiiiiiiiii`h`ababdbdbcbdfgh`hbghfghgfghhhhh`e",
"eeehiiiiiiiii`hh`dbabcbbdbchhhchgfggfghghhghg`h`",
"eeehiiiiiiiiih`ghhgbdbbch`hhchgbhgfhhghhhhhhgh``",
"eeehiiiiiiiii`hhhhhhchghgcbgbgfgchggfgfghghh````",
"eeehiiiiiiiii`hg`hhhhhhcbbgbcbcbhgfghhghh```````",
"eeehjiiiiiiii`hhhghg`hcbbcbchgbgfgbgf``````h````",
"eeehiiiiiiiii`hghhhh`hhhgbbgbhcbgdfg`h`h`h```h``",
"eeehiiiiiiiii`hhhghh`ghgfdcbchdhh``h``h```h`````",
"eeehiiiiiiiii`hghhhg`fgfghgbgb`h`hh`h```g``h``h`",
"eeehiiiiiiiii`ghhhgf`ghgfgfbhhg`hh`g``gh``h``h``",
"eeehiiiiiiiiihhhghhghghhghghg`hh`g`h`h``h``h````",
"eeehjiiiiiiii`hhhhhh`fgfgfgbhh`hh`hh``h`h`h``g``",
"eeehiiiiiiiiii`hhghghghgbgfghhhg`hh`g``h`g`h``h`",
"eeehiiiiiiiiiii`hhgf`hchchgbh`g`hh`hh`h`h```h```",
"eeehiiiiiiiiiiii`gfghghghgfghhhhg`g`h``g`h`g``h`",
"eeehiiiiiiiiiiiii`hg`fgfcbgbhh`hhhhh``h`h`h`h```",
"eeehiiiiiiiiiiiiii`hhbgbgbhchhgh`h`hg`h`g`h```he",
"eeehjiiiiiiiiiiiiii`hgfgbchbg`hhghh`h`gh`h`h```j",
"eeehiiiiiiiiiiiiiiii`hdfghcghfg`hh`gh`h```hi```e",
"eeehiiiiiiiiiiiiiiiii`hgbchbhghhhhg`h```hiii```e",
"eeeh````````````````````gbbghhhhhhhh```````````e",
"eeee`````````````````````cbchhg`g`h````````````e",
"eeeee`````````````````````ghhhhh```````````````e",
"eeeeeeeeeeeeeeeeeeeeejeee``ch````jeejjjeeeeeeeee",
"eeeeeeeeeeeeeeeeeeeeeeeeee`````jeeeeeeeeeeeeeeee"
};
