/* XPM */
static char *noname[] = {
/* width height ncolors chars_per_pixel */
"48 48 12 1",
/* colors */
"` c #000000",
"a c #FFE779",
"b c #878787",
"c c #FFAE00",
"d c #FF6F6C",
"e c None",
"f c #4ABD40",
"g c #B72828",
"h c #5C5C5C",
"i c #FFFFFF",
"j c #D3D3D3",
"k c #C1C1C1",
/* pixels */
"eeeeeeeeeeeeeeeeeeeeeeeeeeeeeeeeeeeeeeeeeeeeeeee",
"eeeeeeeeeeeeeeeeeeeeeeeeeeeeeeeeeeeeeeeeeeeeeeee",
"eeehhhhhhhhhhhhhhhhhhhhhhhhhhhhhhhhhhhhhhhhhheee",
"eeehijijjijjijjijjijjijjijjijjijjijjijjijjij``ee",
"eeehji``h``h``hjiiji``h`iiijiijii``h`iijiiji```e",
"eeehijhhjiijh`hijih`kijk`hjiijih`kijk`hiijii```e",
"eeehji`iijib`hjiih`kjiijk`hijih`kjiijk`hjiij```e",
"eeehijiijibh`hijjh`jiijijh`jijh`jiijijh`iiji```e",
"eeehjijiij`hhjjih`kijiijib`bjh`kijiijib`hiji```e",
"eeehjiijibh`jiii``ijiijiijh`jh`jijijiijh`jii```e",
"eeehjijib`hhjiji`hjijijiji`hj`hjiijijii`hjij```e",
"eeehiiibh`hjijijh`jiijiiijh`jh`iijiijijh`jii```e",
"eeehjji``fijiijih`kijijijb`fih`kjijiijb`fiji```e",
"eeehiik`hjiijijijh`ijiijih`ijjh`ijiijih`ijii```e",
"eeehjb`hhjijii`ijh`kijiib`hiiih`kijiib`hiiji```e",
"eeehjh`hijiijhhjiih`bijk`hiijijh`bijk`hijiji```e",
"eeehj`h``h`````ijiii`h``iijijiiii`h``iijiiij```e",
"eeehiijiijiiiiiiijijijiiijijbahhhkjiijiijiji```e",
"eeehjijijijijijijijiijikabdhdhgchgbhjijiijii```e",
"eeehjijiijiijiijiijkabbhhdfgfdfbgfgfgbijiiji```e",
"eeehjiijiijiijiibabbdbcbhhgbchggfgbgfg`hijij```e",
"eeehiijiijijihbkbdbcbbbdbchhbhcbgfghhghhghii```e",
"eeehjijijiiij`gbabdbdfdfdhgchghghh`ghhgfghhg```e",
"eeehjiijiijii`hhhabbcbdbcbbbhh`gfgfgfghhhhh`hh`e",
"eeehjijiijiji`ghghbabbchbcbhghfghggfghghghghhgh`",
"eeehiiijijiijh`h`hgbbgbbh`gfghchhhhgfghhhhhhg```",
"eeehjjiiiijii`hhhhhgahhggbbgfghgchhhgfghghgh````",
"eeehiiijijiji`hg`gh`hhgbfbcbgbcbhgfghghhh```````",
"eeehjjijiiiijhhhhhhh`hcbchgbchghchgfg`````h``h``",
"eeehiijiijiji``ghhhg`ghhbdfghhchhghhh`h`h```````",
"eeehjiijijiii`hh`ghhhhhghgbcbgbghh`````h``h`h```",
"eeehjijijiiji`ghghfg`hhgfgbhcb`h`h`gh`h``h````h`",
"eeehjiiiijiijhhhhhgh`ghhgfgf`hg`h`h```h`g``h````",
"eeehiijijiiji`hhhghh`fgfghgbg`h`hh`gh``h`h```h``",
"eeehjjijijiij`ghhhghghghgfgfhhg`g`h`h`g```g`h``h",
"eeehiiiiiijiijh`hgfh`gfgfghd`h`hhh`h``h`hh```g``",
"eeehjjijijijiij`ghgh`fghgfgbghhh`hg`h``h``h`h```",
"eeehjiijiijiijii`hfhghgfghchh`g`hh`h`h`g`h`h``h`",
"eeehjijijiijiijii`gg`fggbghbghhh`gh`g`h`h`h`h```",
"eeehijiiiijiijijii`hhgfgfhchfg`hhh`hh`h`h`g```he",
"eeehjijijiijiijijii`hghcgbghg`hg`ghh``g`g``h```j",
"eeehiiijijijijiiiiji`fghbhchhhhhhh`gh``h``hi```e",
"eeehjjiiijiijijijiiji`hchgbhghhhh`hh`h``hiji```e",
"eeeh````````````````````cbhchh`ghhgh```````````e",
"eeee`````````````````````gbhghgh`h`````````````e",
"eeeee`````````````````````cfhhhh```````````````e",
"eeeeeeeeeeeeeeeeeeeeeeeee``gg````jejejeeeeeeeeee",
"eeeeeeeeeeeeeeeeeeeeeeeeee`````jeeeeeeeeeeeeeeee"
};
