/* XPM */
static char *noname[] = {
/* width height ncolors chars_per_pixel */
"48 48 13 1",
/* colors */
"` c #000000",
"a c #878787",
"b c #3012AA",
"c c #FF6F6C",
"d c None",
"e c #8597FF",
"f c #B72828",
"g c #5C5C5C",
"h c #5278BF",
"i c #FFFFFF",
"j c #D3D3D3",
"k c #C1C1C1",
"l c #0000FF",
/* pixels */
"dddddddddddddddddddddddddddddddddddddddddddddddd",
"dddddddddddddddddddddddddddddddddddddddddddddddd",
"dddggggggggggggggggggggggggggggggggggggggggggddd",
"dddgjjijjijjijjijjijjijjijjijjijjijjijjijjij``dd",
"dddgiijiijiijiijiijiijiijiijiijiijiijiijiiji```d",
"dddgijiaf`fafji`fjiijijf`fk`f`f`f`fjiijijiji```d",
"dddgjigfgij`fjik`fjijijifjjkf`iiaf`faijiijij```d",
"dddgijf`ijii`iji`f`jiiji`iji`fjijiaf`jiijiii```d",
"dddgji`fjijikjijf`fgijiifjijf`ijiij`fkjijiji```d",
"dddgji`f`aijijii`k`fgiji`jii`fjiijikf`ijiiji```d",
"dddgjij`f`faiijifjk``kjifjijf`ijijij`fjijiji```d",
"dddgjiii````gjij`ji`f`ij`iji``jiijii``ijiiji```d",
"dddgjijiiif`fgii`iji`fgi`iijf`ijiiji`fjijiij```d",
"dddgijijiji```ji`iijk``f`iji``iijijk``iijiji```d",
"dddgjikjijii``ij`ijijk```iij``ijiji`faijiiji```d",
"dddgij`ijiji``ii`jijijc``iji``jiijk``jiijiji```d",
"dddgji``iij``gia`kjiiji``iia``ijk```kijijiij```d",
"dddgji`i````aia```aijiji`ia````````jijijiiji```d",
"dddgjiijiiiiiijiiiijiiijijiiiiiiiiiijiijijii```d",
"dddgiijijijijjhjjijihjijiijijijjijjijijiijij```d",
"dddgjjiijijiidldijidbdijijijijiijiijijijiiji```d",
"dddgjiijiijijebdjijdlejiijiijiijijijiijijiji```d",
"dddgjijijiijihbhijihbhijibejijiijijijiijijij```d",
"dddgijiijijijhbbijihbaiidbhijibjijiijijiijii```d",
"dddgjijijbijibbbiijbbbijdbejiebejijiijijiiji```d",
"dddgjijidbdijbhbijibhbjihbbijhbhiijijijijiji```d",
"dddgjiijhbhiibhbdjjbhbijhbbijbbbjiijijijijij```d",
"dddgiijihbejdbdbdidbdbjibbbijbabjijbjijiijii```d",
"dddgjjijb`bikbjbaihbjbdjbhbjdbjbaiebkdjijiji```d",
"dddgijbjbhbiabibhihgjbkdbd`jhhjghjgbbbjjiiji```d",
"d``gdhbgbabjhgjabjbaibaabjbdbajhbib`b`hijiji```d",
"d`b`b`b`bd`ibhihgibhjghhgi`d`kikbababb`bb`bb`b`b",
"dddgjid`hjbaghjkbj`digbgbibgbjij`bgd`ddkadda````",
"dddgijdbai`e`kij`abjihb`kib`bijib`aihjijiiji```d",
"dddgjiiadjbabaiibg`ijk`bjjgbgiijhbjjiijijiij```d",
"dddgjijijiag`jijg`bijkb`iih`dijikajiijiijiji```d",
"dddgijijijh`bjijb`hjij`gjia`ijijiiijijijijii```d",
"dddgjijiiia`gjiih`aiji`hjikhijiijijiijiijiij```d",
"dddgjiijijd`gjijk`kjiigkijiijijiijijiijiijii```d",
"dddgiijijii`hiijk`kjijijijijijiijiijijijijij```d",
"dddgjjiijij`ajijiajijijijiijiijijijijijijiji```d",
"dddgiijijiiakjiijijiijijiijiijijijijiijiijii```d",
"dddgjjiijijiiijiijijiijijijijiijiijijiijijij```d",
"dddg```````````````````````````````````````````d",
"dddd```````````````````````````````````````````d",
"ddddd``````````````````````````````````````````d",
"dddddddddddddddddddddddddddddddddddddddddddddddd",
"dddddddddddddddddddddddddddddddddddddddddddddddd"
};
