/* XPM */
static char *noname[] = {
/* width height ncolors chars_per_pixel */
"48 48 12 1",
/* colors */
"` c #000000",
"a c #878787",
"b c #3012AA",
"c c #FF00FF",
"d c None",
"e c #8597FF",
"f c #5C5C5C",
"g c #5278BF",
"h c #FFFFFF",
"i c #D3D3D3",
"j c #C1C1C1",
"k c #0000FF",
/* pixels */
"dddddddddddddddddddddddddddddddddddddddddddddddd",
"dddddddddddddddddddddddddddddddddddddddddddddddd",
"ddddddddd```````````````````````````dddddddddddd",
"ddddddddd`hhihhihhihhihhihhihhihhih``ddddddddddd",
"ddddddddd`hihhihhihhihhihhihhihhihh`h`dddddddddd",
"ddddddddd`ihhihhihhihhihhihhihhihih`ih`ddddddddd",
"ddddddddd`hihhihhihhihhihhihhihhhih`hih`dddddddd",
"ddddddddd`hhihihihihihihihihihihihh`hhih`ddddddd",
"ddddddddd`hihhhihhhihhhihhhihhhihih`hihhi`dddddd",
"ddddddddd`ihihihhihhihihhihhihihihh````````ddddd",
"ddddddddd`hhhihihihihhihihihhihhhihijajaja`ddddd",
"ddddddddd`ihihhhihhhhihhhihhihhihihhihihih``dddd",
"ddddddddd`hihihihhiihhihihhihhihhhihhihhhi``dddd",
"ddddddddd`ihhhihhihhhihihhihhihihihihhihih```ddd",
"ddddddddd`hihihhihihihhhihhihhhihhhihihhhi```ddd",
"ddddddddd`ihhhihhihhhihihhihihihhihihhhihh```ddd",
"ddd``dddd`hihihihhihihhihihhihhihhihhihihi```ddd",
"ddd`````d`hhihhhihihhihhihhihhihhihhihihhh```ddd",
"ddddd`````jihhihhhhihhihhihhihhihihihhhihi```ddd",
"ddddd```bb``fjihihihhihhihhihhihihhhihihih```ddd",
"dddddd```bkkb``fjihihhihhihihihhhihihhhihh```ddd",
"ddddd``````bkkkb``ahihihihihhhihihihhihhih```ddd",
"dddddd````a`kkbkkfaiihihhhhihihhhhhihihihh```ddd",
"dddddd`````bkgkg`aajjiihiihihhihiihihhihhi```ddd",
"ddddddd```kkkkb`ffaaajii`hhhihhihhhihihhih```ddd",
"ddddddd``kkkgb`bffffaaj``ihihihhihihhhhihh```ddd",
"dddddd`bkgkgb`af``fffa`e`hihihihhihihihhih```ddd",
"dddd``kkkkgkg``f`fffa`ed`hiiiiihihhhihihih```ddd",
"dddd``gkegbegge`f`f``ddd`iijjiihhihihhhihh```ddd",
"dddddd``kgbgbege```eeded`jjaajiihihhihihih```ddd",
"dddddd```egeegeeeegdddid`aaaajiihhihhihhhi```ddd",
"dddddd````bggceedededddi`afffjihihhihhihih```ddd",
"dddddd``````eeeejeddiiih`ffffaiihihhihhihh```ddd",
"dddddd````aa`ejedddiiihi`f`fajiihhhihihhih```ddd",
"dddddd````j`gedeiciiihih``fffaihihihhhihhi```ddd",
"dddddddd```ededidiihihih`f`ffjihihhihihhih```ddd",
"ddddddd``ddeidddihiihhih``fffaiihihhihihhi```ddd",
"ddddd``eeeedddiiiihhhihh`f`fajiihhihihhhih```ddd",
"ddd````````````````````````ffaihihhhhihihh```ddd",
"dddddd````jjjaaff`f`f`f`f`fffjihhihihihhih```ddd",
"dddddd````jafff`ff`f`f`f`f`faaiihhihhihihi```ddd",
"ddddd`````aafffffff`ffffffffajiihihihhihhh```ddd",
"ddddd`````aaafafffaaffffffaaajihhihhihhihi```ddd",
"ddddd`````jjajajajajajajajajjihihhihhihihh```ddd",
"dddddd````ijiiiiiijiiiiiiiiiiiihihhihhhhih```ddd",
"ddddddd``````````````````````````````````````ddd",
"ddddddddddd``````````````````````````````````ddd",
"dddddddddddd`````````````````````````````````ddd"
};
