/* XPM */
static char *noname[] = {
/* width height ncolors chars_per_pixel */
"48 48 12 1",
/* colors */
"` c #000000",
"a c #878787",
"b c #FFAE00",
"c c #FF0000",
"d c #FF6F6C",
"e c None",
"f c #4ABD40",
"g c #B72828",
"h c #5C5C5C",
"i c #FFFFFF",
"j c #D3D3D3",
"k c #C1C1C1",
/* pixels */
"eeeeeeeeeeeeeeeeeeeeeeeeeeeeeeeeeeeeeeeeeeeeeeee",
"eeeeeeeeeeeeeeeeeeeeeeeeeeeeeeeeeeeeeeeeeeeeeeee",
"eeeeeeeeeeeeeeeeeeeeeeeeeeeeeeeeeeeeeeeeeeeeeeee",
"eeeiiiiiiiiiiiiiiiiiiiiiiiii`eeeeeeeeeeeeeeeeeee",
"eeeiiiiiiiiiiiiiiiiiiiiiiiii`eeeeeeeeeeeeeeeeeee",
"eeeiiiiiiiiiiiiiiiiiiiiiiiii`eeeeeeeeeeeeeeeeeee",
"eeeiii``hh``hahh``ak`hiiiiii`hiiiiiiiiiiiiii`eee",
"eeeiiiiiiiiiiiiiiiiiiiiiiiii``iiiiiiiiiiiiii`hee",
"eeeiii`a`h``h`hh``h```hhiiii`kieeeeeeeeeeeii`hee",
"eeeiiiiiiiiiiiiiiiiiiiiiiiii`hiiiiiiiiii`iii`hee",
"eeeiii`hh```h``h`a`hh``hiiii`hiiiiiiiiii`aii`hee",
"eeeiiiiiiiiiiiiiiiiiiiiiiiii`hiiiiiiiiii`hii`hee",
"eeeiii````a`hh``h`a`h`haiiii``ak`hiiiiii`aii`hee",
"eeeiiiiiiiiiiiiiiiiiiiiiiiii`hiiiiiiiiii`aii`hee",
"eeeiii``h````h```a``h`h`iiii``h```hhjiii`aii`hee",
"eeeiiiiiiiiiiiiiiiiiiiiiiiii`aiiiiiiiiii`aii`hee",
"eeeiii```hh`hhh`a````hhaiiii`h`hh``hiiii`aii`hee",
"eeeiiiiiiiiiiiihaiiiiiiiiiii`hiiiiiiiiii`aii`hee",
"eeeiii`a`h`hdgdd``a`h```iiii``a`h`haiiii`aii`hee",
"eeeiiiiiiiiibabfdhaiiiiiiiii`aiiiiiiiiii`aii`hee",
"eeeiii`h`hdaddadgg```h`aiiii`h``h`h`iiii`aii`hee",
"eeeiiiiiiagbabgbdbd``iiiiiii`aiiiiiiiiii`aii`hee",
"eeeiii`h`ahadadgagdg``aih`ii`````hhaiiii`aii`hee",
"eeeiiiiiiih`gbdbdbgbd``a``ii`aiiiiiiiiii`aii`hee",
"eeeiii```h``hgggdgdgbc``d`ii``a`h```iiii`aii`hee",
"eeeiiiiiiiia``dbgbcdcbgbc`ii`aiiiiiiiiii`aii`hee",
"eeeiii`h```h`h`dgbcbcggcb`ii``h``h`aiiii`aii`hee",
"eeeiiiiiiiiiih``dcbcgbcbg`ii`hiiiiiiiiii`aii`hee",
"eeeiii``hh`a`k```gcbgcbcd`ii`hh`a`hiiiii`aii`hee",
"eeeiiiiiiiiiiiiha`gbcdgbc`ii`hiiiiiiiiii`aii`hee",
"eeeiii````h`a`ha``bcdcbcg`ii`h`h``ahiiii`aii`hee",
"eeeiiiiiiiiiiiih`gcbcbgcb`ii`aiiiiiiiiii`aii`hee",
"eeeiiiiiiiiiiia```````````ii`h`a```iiiii`aii`hee",
"eeeiiiiiiiiiiiiihhhhhhhhhaii`hiiiiiiiiii`aii`hee",
"eeeiiiiiiiiiiiiaaaaaahaaaaii````h`hiiiii`aii`hee",
"eeh``````````````````````````aiiiiiiiiii`aii`hee",
"eee`h`h`h`h``khaah``````h``h``a`a``iiiii`aii`hee",
"eeehhhhh`hhhhiiiiiiiiiiiiiiiiiiiiiiiiiii`aii`hee",
"eeeeeeeeeeeeaiiiiiiiiiiiiiiiiiiiiiiiiiii`````hee",
"eeeeeeeeeeeeaiiiiiiiiiiiiiiiiiiiiiiiiiii`hhhhhee",
"eeeeeeeeeeeeeiiiiiiiiiiiiiiiiiiiiiiiiiii`heeeeee",
"eeeeeeeeeeeeeeh``````````````````````````heeeeee",
"eeeeeeeeeeeeeeeehhhhhhhhhhhhhhhhhhhhhhhhhheeeeee",
"eeeeeeeeeeeeeeeeeeeeeeeeeeeeeeeeeeeeeeeeeeeeeeee",
"eeeeeeeeeeeeeeeeeeeeeaeeeeeeeeeeeeeeeeeeeeeeeeee",
"eeeeeeeeeeeeeeeeeeeeeeeeeeeeeeeeeeeeeeeeeeeeeeee",
"eeeeeeeeeeeeeeeeeeeeeeeeeeeeeeeeeeeeeeeeeeeeeeee",
"eeeeeeeeeeeeeeeeeeeeeeeeeeeeeeeeeeeeeeeeeeeeeeee"
};
