/* XPM */
static char *noname[] = {
/* width height ncolors chars_per_pixel */
"48 48 14 1",
/* colors */
"` c #000000",
"a c #FFE779",
"b c #878787",
"c c #3012AA",
"d c #FF6F6C",
"e c None",
"f c #4ABD40",
"g c #8597FF",
"h c #B72828",
"i c #5C5C5C",
"j c #5278BF",
"k c #FFFFFF",
"l c #D3D3D3",
"m c #C1C1C1",
/* pixels */
"eeeeeeeeeeeeeeeeeeklleeeeeeeeeeeeeeeeeeeeeeeeeee",
"eeeeeeeeeeeeeeeekmebelleeeeeeeeeeeeeeeeeeeeeeeee",
"eeeeeeeeeeeeelllbjbbjbmlleeeeeeeeeeeeeeeeeeeeeee",
"eeeeeeeeeeeklmgmjbgbbjbbelleeeeeeeeeeeeeeeeeeeee",
"eeeeeeeeellbbbbjbbbbjbbjbbmlleeeeeeeeeeeeeeeeeee",
"eeeeeekleebejejbejbjbbjbjbjbelleeeeeeeeeeeeeeeee",
"eeeellmbbgbbbjbbjbbbjbbbbjbbjbmlleeeeeeeeeeeeeee",
"eeklmjbjebjbgbbjbbjbjbjbjibjbbjbi`eeeeeeeeeeeeee",
"eek`ibbbbbbbbjbbjbbjbbjbibjibii```eeeeeeeeeeeeee",
"eeki`iigbjgbgbbjbbjbbjbijbiji`````eeeeeeeeeeeeee",
"eek```i`imbbjbjbbjbbjibjiji````i`ieeeeeeeeeeeeee",
"eeki`i`i`iibbjbbjbijbijbi`````i`ibkeeeeeeeeeeeee",
"eek`i`i`i`iiibbjbbbijbi````i`i`dam`ilmmeeeeeeeee",
"eeki`i`i`i`i`iibjbjii````i``ibami`ialileell`eeee",
"eel`i`c`i`c`ii`iibi````i``idmai`ida```bklbi`eeee",
"eeki`i`i`iii`ic`i````i``ibmai`ibai`ibklbi`i`eeee",
"eeli`ii`ic`ii`iii```i`ibaa`iiaai``bklbi`ic``eeee",
"eek`i`ci`ii`ciici``i`bma`iidai``bklbii`i``i`eeee",
"eeki`ii`ii`ii`i`i``i`ih`iaai``bklbi````c`i``eeee",
"eek`ci`iiciiciiji``i`i`baii`bklbi```i`iiiic`eeee",
"eelii`ii`i`i`ii`i``i`b`b```klbi``i`c```ia```eeee",
"eek`iciiciiiiicij``i`i`b`b`lb```c`i``ibabii`eeee",
"eekii`i`iiiciiiii``ibi`i`b`li`i``bi`mlbi``i`eeee",
"eek`iiiici`iiiici```ibbi`b`lb``i`ibabi``ii``eeee",
"eelic`iiiiici`iii`````ib`i`li`i``i`i``ii`i`ieeee",
"eeliiiciiiiiijici``i````ibilj`i`c`i`ii`icic`eeee",
"eeki`ii`ciiciiiii``i`i````ili``i`i`i`ci`ii``eeee",
"eeeciijiiiiiiicij```iici```eb`c`i`ici`iicii`eeee",
"eeliiciiiciiiiiii`````i`ii`lii`i`i`i`iic`i``eeee",
"eeeiiiiicfcfcijij`i````i`i`lb`c`i`ciiciii`ieeeee",
"eeliiciiiiiiijiii`iii````cieii`ici`i`i```igeeeee",
"eeeiiiiiiicjiijij`ijji`````li`i`i`iii``ieeeeeeee",
"eeliciiciiiiijiij`eii`ii```kii`iic``i`eeeeeeeeee",
"eeeiiiiijijijiiji`gic`i`ci`eiic`i``ieeeeeeeeeeee",
"eekijijiiiijiijib`mi`i`i`iiei`i``i`eeeeeeeeeeeee",
"eeeiiiijijiijijij`jii`i`ci`bii`i``eeeeeeeeeeeeee",
"eeeijciiijijiibbi`ei`cii`ic````c`ieeeeeeeeeeeeee",
"eee`iijijiijijbjb`mj`i`ii`iiicii``eeeeeeeeeeeeee",
"eeee`iijijibijijb`eii`ic`ii`iiii`iibeeeeeeeeeeee",
"eeeegi`ijijbjbjbj`jici`iiciicic```iibeeeeeeeeeee",
"eeeeeei`iijibibjb`ei`ii`i`ii```i`iibbeeeeeeeeeee",
"eeeeeeeei`ibjjjbb`gii`iciici`i`iiiibeeeeeeeeeeee",
"eeeeeeeeei`iibbjb`mi`ii`i```i`iiibbeeeeeeeeeeeee",
"eeeeeeeeeee`iijbj`eic`j`i``iiibbbeeeeeeeeeeeeeee",
"eeeeeeeeeeeei`ijb`eiii```iiiibfeeeeeeeeeeeeeeeee",
"eeeeeeeeeeeeegi`b`gi```iiiiibeeeeeeeeeeeeeeeeeee",
"eeeeeeeeeeeeeeei``i``iiiibbbeeeeeeeeeeeeeeeeeeee",
"eeeeeeeeeeeeeeeeii``iibbbeeeeeeeeeeeeeeeeeeeeeee"
};
