/* XPM */
static char *noname[] = {
/* width height ncolors chars_per_pixel */
"48 48 16 1",
/* colors */
"` c #000000",
"a c #FFE779",
"b c #878787",
"c c #FFAE00",
"d c #3012AA",
"e c #FF0000",
"f c #FF6F6C",
"g c None",
"h c #4ABD40",
"i c #B72828",
"j c #5C5C5C",
"k c #5278BF",
"l c #FFFFFF",
"m c #FFFF00",
"n c #D3D3D3",
"o c #C1C1C1",
/* pixels */
"gggggggggggggggggggggggggggggggggggggggggggggggg",
"n``````````````````jjj``j````i````j`j``j`j``j``g",
"gjb`jojj`jbjj`bjb``jccj`bccj`ccc``ojo``ojo``ojog",
"gll`jjlo`jjlo`jjlj`jccc`ccm``cec``jjl``jjl``jjlg",
"gll`jjll`jjlb`jono`jobc`ccci`ccjj`oln``oln``bllo",
"oj````j````j````j````j`````````j````j````j````jg",
"g```````````````````````````````````````````j``g",
"gihijchdlllllllllllllllllllllllllll````okka``l`g",
"ghjhhhi`llolllbjalllllnllallllllnl``j``amcmi``og",
"g`b`c`h`llalnlabllnlnllnllllnlnlll``kkjaacaj```g",
"gaeba```lllllllonllllllll```lallal``nlgnnfai```g",
"geiief``llnllnlllllnllnl````lananl``llllllmj```g",
"geiiii``lllalllalnlllll`````lnonal`jlnlnlfaf```g",
"ge`e`e``lnllllnjnlmaol``````lllonnj`lllllaa```jg",
"g``i``a`lllnlll`````````````omlall``llnllnm`oo`g",
"g``i``h`llllnih`````b`````o```llnl``o`dafla``bjg",
"gm`hh`n`lli`b```````ii````l```jaol``j`dafcaojjdg",
"gn`icji`lnj`lll``````flollall`llnlj````acic```bg",
"gh`a``j`lalllal```````o`iblnl`llalb````fcic````g",
"oh`m``h`lalanll`oaanocbnbmcjlbnllnj````fcecl```g",
"gh`mjh``lfnalllj```````i``i`llllllj````ciic````g",
"o```bc``nannnalnllllllllc```bnlnlna````icic````g",
"g```h```lbofanallllnllnll``ljnfoobj````ciii````g",
"g```i``dlbblllollnllllllle`loaollna````iccci```g",
"g```````laalloallllnlnllnljloolnllj````jj``````g",
"g```````lllllflllnllllllnjlabnallla````````````g",
"g`````i`nlnlnalnlllnlnlno`nnlnllnlb````````````g",
"g``````````````````````````````````````````````g",
"gjj`jjhj`jjjj`jjjj`jjj``ccc``cjj``jjj``jjj``jjjg",
"njo`jjjj`jjjj`jjj``jjfc`mcm``cmjj`ojo``jjo``jjog",
"gll`jjll`jjlo`jjlo`jmmc`ccm``cccj`jol``jol``jllo",
"glo`jjno`jjlj`jolj`jofj`oacj`fmc``jbl``jnl``jnlg",
"g``````````````````````````````````````````````g",
"gjjjjjjjjjjjjjjjjjjjjjjhicic`j`i````jjjjjjjjjjjg",
"gjjjjjjjjjjjjjjjjjjjjjjamchcmcmmmmcccmfojojjjjjo",
"ggonooononononoonononogmajgocccccccchimcmbollllg",
"ggggggggggggggggggggggggjogacccccccccciiihijijig",
"ggggggggggggggggggggggggggbmmcjmcccccccmccichchg",
"ggggggggggggggggggggggggggamjjgaccccccccccccccco",
"ggggggggggggggggggggggggggoo`ggmmammcccchccccccg",
"ggggggggggggggggggggggggggggggacaboacmcmcccccccg",
"ggggggggggggggggggggggggggggggma`ggamajmcmmmmcmg",
"gggggggggggggggggggggggggggggggojggmmbgocajhamag",
"ggggggggggggggggggggggggggggggggggbaaogbcmooamjg",
"gggggggggggggggggggggggggggggggggggg`ggambggam`g",
"gggggggggggggggggggggggggggggggggggggggoh`ggma`g",
"gggggggggggggggggggggggggggggggggggggggggggggojn",
"gggggggggggggggggggggggggggggggggggggggggggggggg"
};
