/* XPM */
static char *noname[] = {
/* width height ncolors chars_per_pixel */
"40 47 13 1",
/* colors */
"` c #000000",
"a c #FFE779",
"b c #878787",
"c c #FFAE00",
"d c #FF0000",
"e c #FF6F6C",
"f c None",
"g c #4ABD40",
"h c #B72828",
"i c #5C5C5C",
"j c #FFFFFF",
"k c #D3D3D3",
"l c #C1C1C1",
/* pixels */
"ffffffffffffffffffffffffffffffflakebffff",
"ffffffffffffffffffffffffffffflkallbilfff",
"ffffffffffffffffffffffffffflakebbebbhfff",
"ffffffffffffffffffffffffflkababbeble`fff",
"ffffffffffffffffffffffflalelbbebcbba`kff",
"ffffffffffffffffffffflkallbeicbbbalbifff",
"ffffffffffffffffkkliihblhbhbbbebeble`fff",
"fffffffffffffflkbbaal`iebigebeblbabl`fff",
"ffffffffffffffflakefkbiihbebababebebilff",
"ffffffffffffflkallbeia`iiegebbbebbba`fff",
"ffffffffffflalebebhiil`ecbbegebcbebbiiff",
"ffffffffflallabbiibiea`bbbcbbcbbcbbciiff",
"ffffffflalelbbhbhihbblieieieibebbcbbhiff",
"fffffllallbbhihghghbha`ghghbicbcbbebl`bf",
"ffflallebeihiiihbbhbilihbeicbbbbcblbaiif",
"fllalbebiiiiiibihibhba`bhibhbcbebbelbeii",
"llkkebbhihihihihgecb``ihbcibeiegelbabbhi",
"kl``jhiigiiiiigieebcei`hbiegegebbablhiii",
"ki``ilihihiihicegecbhc`bhbcbebcbcbhi`bil",
"ai```aiii`iiiibecbheehe`bhibcbbbiii`illf",
"ki`iiki`hihi`h`ebcehcehc``bebbhh`ii`kfff",
"kh`i`aiiii`iiib`hebcehehe``b`h`iiih`ffff",
"ki`b`ki`hiihiih`ihchhcechc``c`iihia`kfff",
"ai`i`aiiii`iiiii``hcehhdcdded`ihgeiiffff",
"ki`e`ki`hiii`hiib``ehcdcdecdc`bebcb`kfff",
"ki`b`khi`i`iiihihb``dchdchdcd`ghbbe`ffff",
"ki`e`ki`hihii`ihiihi`dcdhdchd`ebcbbilfff",
"ai`b`lhii`i`iiiiii`ib`hhcdedc`ghbge`ffff",
"ki`l`lh`ii`hii`i``ii``cdcdcdh`ebebh`iiff",
"kh`l`cbi`ii`h`i`ih`i`hdedchdc`bhii``iiif",
"ki`a`beih`ii``i`iiih``````````bi```iiibb",
"ki`l`ibi`i```iiihihiba`bhiiiii```iiiiibf",
"khibh`hi`ihihihiihiihl`eieii```iiiiiibbf",
"ki`l`i``i`i`iiihighibbiib````iiiiiibbfff",
"ki`lh`ii`hihih`ihiicie`h```ii`iiibbfffff",
"kh`liih`iii`iiihiiiiib```iiiiiibbfffffff",
"ki`ki`iihiihihiihih`ih`iiiiiibbfffffffff",
"ki`aihi`i`ii`ihii```i``iiiibbfffffffffff",
"ki`ki`iihihihi````ii`iiiibbfffffffffffff",
"ai`k`hii`iii`i```i`iiiibbfffffffffffffff",
"ki`jiiihiii````iiiiiibbfffffffffffffffff",
"ki`a`ii`i````iiiiiibbfffffffffffffffffff",
"li`jih`h``iiiiiiibbkffffffffffffffffffff",
"h``bi````ii`iiibbfffffffffffffffffffffff",
"fii```iii`iiibblffffffffffffffffffffffff",
"fi`iii`iibibbfffffffffffffffffffffffffff",
"ffkiiibibbbkffffffffffffffffffffffffffff"
};
