/* XPM */
static char *noname[] = {
/* width height ncolors chars_per_pixel */
"47 47 12 1",
/* colors */
"` c #000000",
"a c #FFE779",
"b c #878787",
"c c #FFAE00",
"d c #FF6F6C",
"e c None",
"f c #4ABD40",
"g c #B72828",
"h c #5C5C5C",
"i c #FFFFFF",
"j c #D3D3D3",
"k c #C1C1C1",
/* pixels */
"eeeeeeeeeeeeeeeeeeeeeeeeeeeeeeehabbjeeeeeeeeeee",
"eeeeeeeeeeeeeeeeeeeeeeeeeeeeehajdbdhbeeeeeeeeee",
"eeeeeeeeeeeeeeeeeeeeeeeeeeehajbkbabahkeeeeeeeee",
"eeeeeeeeeeeeeeeeeeeeeeeeehkabkbdbbdbheeeeeeeeee",
"eeeeeeeeeeeeeeeeeeeeeeehakdkbgbbabba`eeeeeeeeee",
"eeeeeeeeeeeeeeeeeeeeehjabkbhdfdbbkdk`eeeeeeeeee",
"eeeeeeeeeeeeeeeejkbb`jdbdbgbbbbcbdba`jeeeeeeeee",
"eeeeeeeeeeeeeeeabhaja`bbhhhbbdbbbbbbheeeeeeeeee",
"eeeeeeeeeeeeeeehakdkkghgbgbcbbcbabcb`eeeeeeeeee",
"eeeeeeeeeeeeehkakbbbhk`hbbbjajijkabd`eeeeeeeeee",
"eeeeeeeeeeehakbdbdhgha`dfgbdhhdadhbbg`eeeeeeeee",
"eeeeeeeeehakkdbbhhhbgk`fdbbjkdabahdbb`eeeeeeeee",
"eeeeeeehakbdbbhghghgba`dhbcjakakdhhchhkeeeeeeee",
"eeeeehakkdbbhhghbhbbbbhhbghbg`hhdhbbdheeeeeeeee",
"eeehakbdbbhghgfghgfgha`gbbgiakdaahdbah`eeeeeeee",
"eekabbbbhghhhhghhbgbgjhhchbjadkdk`abbb`eeeeeeee",
"ehjjdbghhhghghhbghhhha`bgbgbhhabahbadbdhkeeeeee",
"jj`hkbhhghhhhfghhhgfgjhhbgbjdadadhdbbhheeeeeeee",
"hg``bchghhghghhgfghgba`gbbcjakbkahbh`kkeeeeeeee",
"jh``gkhhhhhhhhhhghbhhkhbbghbhhdadh``heeeeeeeeee",
"jh`hhkh`ghghhghghhghga`abbcjdakdkhg`jeeeeeeeeee",
"kh`ghkghhhh`ghhhhhhb``baghbjkdkadhb`eeeeeeeeeee",
"jg`h`ah`g`ghhhghghchhj`bbgbdhhdka`d`jeeeeeeeeee",
"kh`hhj`hhhhhhhgfhhhghahgbh`jabadahb`eeeeeeeeeee",
"jg`bgkgh`ghhhghghgfgbk`h`ghjadakdhcheeeeeeeeeee",
"kh`b`ah`hh`g`hhhhhghhdh`hfgbh`hhdhb`eeeeeeeeeee",
"jh`dhkh`g`hhhghghhhh`a`ghghaakdkahghkeeeeeeeeee",
"ah`hhbghhhg`hh`hhhg`hk`hghbjadkadhb`eeeeeeeeeee",
"jg`bgbhh`h`hg`hg``hhgk`bhgbdhhabah`g``eeeeeeeee",
"j`hbhbbghhg`hhh`hhghha`bgfgkabdadh`````eeeeeeee",
"jh`d`gb`h`hh``ghhhhghbhgbgbjakdkah``````eeeeeee",
"kghbhhdhhg``ghh`ghghha`hghbbghakdh`````eeeeeeee",
"jh`bg`fd``hhh`gfhgfghd`bbgbakdbadh`````eeeeeeee",
"j`hbhhg`hh`hghhghhghhbgfgh`jdkadkh```eeeeeeeeee",
"jg`a`h`hg`ghhghhghhhgb`h```bhhdka``eeeee``eeeee",
"ah`khgh`hhhhhhghhfghha`````jdaadaheeee````````e",
"jh`kgh`ghghghhhghghh`b`````iabkkdhke```````````",
"jg`k`hhhhhh`hghhh```g``````bhghhdh`````````````",
"jh`ahg`g`ghghhh````````````jabdakh```````````ee",
"ah`j`hhhhhhhh````````````ejjdakadh`````````eeee",
"jh`jgh`ghhg````````````eeeebhhdbah```````eeeeee",
"kh`khghhg````````````eeeeejjadkadh`````eeeeeeee",
"jg`jhhh````````````eeeeeeeejakdkah```eeeeeeeeee",
"j``kg````````````jeeeeeeeeea`hhg`h`eeeeeeeeeeee",
"`hh````````````jeeeeeeeeeeeeekkeekeeeeeeeeeeeee",
"e````````````jeeeeeeeeeeeeeeeeeeeeeeeeeeeeeeeee",
"eee````````eeeeeeeeeeeeeeeeeeeeeeeeeeeeeeeeeeee"
};
