/* XPM */
static char *noname[] = {
/* width height ncolors chars_per_pixel */
"48 48 14 1",
/* colors */
"` c #000000",
"a c #FFE779",
"b c #878787",
"c c #3012AA",
"d c #FF6F6C",
"e c None",
"f c #4ABD40",
"g c #8597FF",
"h c #B72828",
"i c #5C5C5C",
"j c #5278BF",
"k c #FFFFFF",
"l c #D3D3D3",
"m c #C1C1C1",
/* pixels */
"eeeeeeeeeeeeeeeeeeeeeeeeeeeeeeeeeeeeeeeeeeeeeeee",
"eeeeeeeeeeeeeeeeeeeeeeeeeeeeeeeeeeeeeeeeeeeeeeee",
"eeeeeeeeeeeeeeeeeeeeeeeeeeeeeeeeeeeeeeeeeeeeeeee",
"eeeeeeeeeeeeeeeeeeeeeeeeeeeeeeeeeeeeeeeeeeeeeeee",
"eeeeeeeeeeeeeeeeeeeeeeeeeeeeeeeeeeeeeeeeeeeeeeee",
"eeebieeeeeeeeeeeeeeeeeeeeeeeeeeeeeeeeeeeeeiieeee",
"eeeb`iieeeeeeeeeeeeeeeeeeeeeeeeeeeeeeeeiiiiieeee",
"eeebibbiibeeeeeeeeeeeeeeeeeeeeeeeeeibiibmlibeeee",
"eeebibbmbbbbbbbbbibibeeeeeeiibbbbbbbmmkklkbieeee",
"eemiibbalaklkkklkmmbbieeeibbmmlkkkkkkkkkklbibbee",
"eebiibbammlklklkklkmmbibiiblklklkkkkkkkkkkbiiiee",
"iibiibbballlklklkklmabb`iimklkkkkkkkkkkmbkbiiiii",
"jimiibbibbaklkkkklklmbbi`bblkklklkkkmbbblkbiii`i",
"c`liibmdmbbbbbibbmlmabii`bdkllmbbbbbmllkklbiii``",
"jiliibfbmllkklklbbbkbbbi`bkbbbbkkkkkkkkbbkbiii`c",
"ciliibbbibmllkkkkklkbbiiiikklkkkkklkmbbbkkbiii`i",
"icliibbambbbmbbmblhkmbb`iikillmlbmbbmlkllkbbii`c",
"ciliibbbbmllbhblmh`kbbbi`bliillmiblkkllbmlbiii``",
"iiliibaibbabh`bai`hkbbfiibkihimlhibkmbmmkkbiii`i",
"icliibbbalbh`hbh`h`kllabbmkmmbmkbbibmklmmlbiii`c",
"ciliibbbli`hibh`h`hiihiiiihiihiidbhibkbbllbbii`i",
"iiliibblh`hidih`h`h`h`h`h`h`h`h`bmiiiiklkkbiii``",
"cimiibaih`hm`h`h`h`h`h`h`h`h`h`hibhihiblblbbii`c",
"ciliibbkh`him`h`h`h`h`h`h`h`h`h`bmiiiikbkkbiii`i",
"icliibmmlh`hibh`h`hh`hihih`hihhhidihiklkllbbii`c",
"ciliibbimlh`hbbh`h`kklllmlklmleklbiilklbmkbiii``",
"iiliidbbbbli`hbbh`hkbbbi`bkiiiblihilmbbmllbiii`i",
"icliibbbammkh`bkbh`kbbiiibkihmllibllmkkmlkbiii`i",
"ciliimbbbbmlkidlkbhkbbbi`blimlllblkklmbbllbbii`c",
"iiliibabbbbbmblmmmmkbbb`ibkmklllmbbbmmmlkkbiii``",
"cieiibballllllklbbbkbaiiiikmbbmkklkklkkkllbbii`i",
"ciliibmmllklkkklklkbbbb`iibbkllklkkkkkkklkbiii`c",
"icliibamlllklklkklkmabbiiialklkkkkkkkkklklbiii``",
"cilbibmdllllklkklklmabb`iimklkklkkkkkklmbiibii`c",
"iimbmbbbbammmmmmmlllmbbiiimlklmlmmbmbbiiiibmii`i",
"cilbklmbbi`i````iiiibbfi`bbbbiii``i``ibbmamdii``",
"iclmkmmbbiii`i`i```i`iii`bii````i``iiiiibbbmii`i",
"ciliii`i```i``i``i``i`ii`i````i`i`i````i`iii`i`c",
"i`bi`i`i`i``i``i`i`i`i```i`ii``i``i`i`i`i```i``i",
"jc```i`````i``i```i```i`i`i``i``i``i``i```i``i``",
"i`i`c``ic`i`c``i```i`i``i``i``i``c``c``i`i``i`ci",
"c`c```c`i`ciieeeeeecici`c`ceeegeeiciiic`c`i`c``c",
"eeeeeeeeeeeeeeeeeeeeeeeeeemeeeeeeeeegeeeeeeeeeee",
"eeeeeeeeeeeeeeeeeeeeeeeeeeeeeeeeeeeeeeeeeeeeeeee",
"eeeeeeeeeeeeeeeeeeeeeeeeeeeeeeeeeeeeeeeeeeeeeeee",
"eeeeeeeeeeeeeeeeeeeeeeeeeeeeeeeeeeeeeeeeeeeeeeee",
"eeeeeeeeeeeeeeeeeeeeeeeeeeeeeeeeeeeeeeeeeeeeeeee",
"eeeeeeeeeeeeeeeeeeeeeeeeeeeeeeeeeeeeeeeeeeeeeeee"
};
