/* XPM */
static char *noname[] = {
/* width height ncolors chars_per_pixel */
"48 48 14 1",
/* colors */
"` c #000000",
"a c #FFE779",
"b c #878787",
"c c #00FF00",
"d c #FFAE00",
"e c #FF6F6C",
"f c None",
"g c #4ABD40",
"h c #B72828",
"i c #5C5C5C",
"j c #FFFFFF",
"k c #FFFF00",
"l c #D3D3D3",
"m c #C1C1C1",
/* pixels */
"ffffffffffffffffffffffffffffiii`ifffffffffffffff",
"fffffffffffffffffffffffliifffmffifiiifffffffffff",
"ffffffffffffffffffffffji`i`lfffffmf`ffffffffffff",
"fffffffffffffffffffffli`i`iiffffljbljfifffffffff",
"ffffffffffffffffffffji`i`i`ihfffjhhibh`fffffffff",
"fffffffffffffffffffli``ibii``iffmbhbhb`fffffffff",
"ffffffffffffffffffji`iibbbhi`i`lmhibih`fffffffff",
"ffffffffffffffffflih`ibbbbbb`hiiihghbi`fffffffff",
"ffffffffffffffffjii`ibbbjbbbbii`iibiih`fffffffff",
"ffffffffffffffflidiibbbjljbbbhikh`hhbh`fffffffff",
"fffffffffffffflii`````hihii````iiiihih`fffffffff",
"ffffffffffffflihii`kk`kkidkhkk`b`hi`hi`fffffffff",
"ffffffffffffji``ii`kd`kkhkk`kk`bbi`ii``fffffffff",
"fffffff`fffli`iibb`kkikkikdikdibbii`ih`fffffffff",
"fffffff`ffji``ibbb``h`h`b`i`h`ibbib``i`fffffffff",
"ffffffm`fli`ii`bbjikkikkikkhkkilba`bi`iiffffffff",
"ffffff`l`i`i`b`bjlhkd`kkhkd`kdiljiihb``ihfffffff",
"fffffbc`i``ibbbilj`kkidkikkikkijlibbbbi``iffffff",
"ffff`gl```ibbblibjhbhihbhbhihihlmilbbbhi`i`lffff",
"fffffj`g`b`b`jjgijiljjjljjljjjilibljbbbii`iiffff",
"ffff`i`g``mbjljjibiljljjljljljibiljjlbbbhi`ihfff",
"fffji`g`g`c`ljjlbiijljljljjljliibjjljjbbb`i``iff",
"ffli`bb````g`jljj`iljjljjljjljh`jljljljbb`bi`i`l",
"ffii`g``g`g`ibmbabiembmbmbmbmbibbmemmbmmmhi`ihif",
"ff``m````````i````````hhihh``i`i```````````````f",
"ff`g`g```i``ihihhi`kkikkkkk`kk`hiiihihihi`lfffff",
"fmg`f``ibg````giiiikk```````kkii`iig`iiii`ffffff",
"ff``fg`g`i`gmbbbbbidk`kkk```kdibbbhimbgiiiffffff",
"m`lc``f``j```mljijikd`kdk```dkiabajllijieiffffff",
"`l```g`g````j`ilam`kk`kkk```kdimlbjibmlibiffffff",
"ff`g`````g```ljbmbikk`dkd```kkimimlimbijjiffffff",
"gl``fm`ic````mjiblidk`kkk```kdialiijlbbib`ffffff",
"bg`lf`g``````m`jjbikd`kdk```dkilmbmilbabj`ffffff",
"fgg`g`````gg``mmblikk`kkk```kk`jbjllmibjmiffffff",
"ff``m`lggi``````lmhkd`dkk```kkibmbejbmbmmiffffff",
"`g``g`g````m`gl`bj`kk`kdk```dkhbbmmjiajmi`ffffff",
"f``cf``````````mglikd`kkd```kkiijbjblbbmeiffffff",
"`g````g`b`c``j`mlm`kk`kkk```dki`bmljiim`fiifffff",
"m````g```b````g`mbiih`dkkk``iii``le`g`jg`i``ffff",
"l`fg``i`````g`i`iihiiiii`hiiihhg``i```i``i`g`fff",
"f`g`````g``````gii`ghikbibblii````g`````````ifff",
"ff`igig``igggigiiigig`ikikgigigigigigigigigig`ff",
"ffiiii`i`ii`i`i``g``igbiiibibbiii`iiiiiiiiiiiiff",
"f`ig`g`i`````g`g`i`iibigibkibm`gigig``g`gig`gi`f",
"fii`g`i`g`g`g`i``g`g`ii`gibigig`i`i`ggii`i`gi`gf",
"i`giiig`g`g`i`g`gigibbflbiimmmbbgigii`i`gig`ii`i",
"`g``i``ii`i`g``i```iibffb`ibbbi`````i`i`i``i`g`i",
"i``i``g``````i``g`i``i``g`i``i`g`i`i`i```i``i```"
};
