/* XPM */
static char *noname[] = {
/* width height ncolors chars_per_pixel */
"48 48 15 1",
/* colors */
"` c #000000",
"a c #878787",
"b c #00FFFF",
"c c #3012AA",
"d c #FF00FF",
"e c #FF6F6C",
"f c None",
"g c #8597FF",
"h c #B72828",
"i c #5C5C5C",
"j c #5278BF",
"k c #FFFFFF",
"l c #D3D3D3",
"m c #C1C1C1",
"n c #0000FF",
/* pixels */
"ffffffffffffffffffffffffffffffffffffffffffffffff",
"ffffffffffffffffffffffffffffffffffffffffffffffff",
"ffiiiiiiiiiiiiiiiiiiiiii````````````````````ffff",
"ffikkkkkkkkkkkkkkkkkkkkkkkkkkkkkkkkkkkkkkkkiffff",
"ffikkkkkckkkckckckckckckkkkkkkkkkkkkkkkkkkk``fff",
"ffikkkkkkkkckkkckckccccccckccckkkkkkkkkkkkk`iiff",
"ffikkkckckckckccclccclckkkkkckckckkkkkkkkkk``aff",
"ffikkkkckklccccccccckckkkkkkckkkkkckkkkkkkk`iiff",
"ffikckckckcfccjljljlckckccckckkkkkkkckkkkkk``iff",
"ffikkkkccccjcjccccccjccccccccccckkkkkkkkkkk`iiff",
"ffikckcfjfcfcfcjcjcjccjcjcjcjcccckckkkckkkk``iff",
"ffickcfcccjcjcjccjccjcjcjfcjccjjcjcckkkckkk`iiff",
"ffikckcfjgcfcjckcjcfcjcfcfkljcckcjckckkkckk``aff",
"ffijkjgjcjcjjckjcjcjcjcjgkkkkkkkklkjckkkkkk`iiff",
"ffikckjgjgjcjljfjcjjcjjcjkkkkkckkkkkjljlkkk``iff",
"ffikkcjcjjcjkkljjjjnjcjcjgkkkcjkkkklkknjckk`iiff",
"ffikckjgjcjlkkkkcjcfjjjgjcjgjjjfkkkkkkkkjkk``aff",
"ffikkkljjjkkkkkkjjgjjjnjjjjjjckkkkkkkkkklkk`iiff",
"ffikkkjjnkjlkkkkjgjgjgjfjgjgjlkkkkkkkkkkkkk``iff",
"ffikkkfjjjjkkkkkljjjgjjjnjjjjjkkkkkkkkkkkkk`iiff",
"ffikkkkkjfjlkkkkkkjgjfjgjfjgjfkklkklklkklkk``iff",
"ffikkkkkjjkjkkkkkkljbjjjbjjjkkkkklkkkkkkkkk`iiff",
"ffikkkkjfkjfjkjlkklkcljfjfkfkllklklklkllklk``aff",
"ffikkkkkkkkkkkkkkklklkfkfklklklklklklklklkl`iiff",
"ffikkkkkjkkjklkkkkllllklllkfllklllklllklllk``iff",
"ffikkkkkljkkkkkkkkflklflklflkllllllllllllll`iiff",
"ffikkkkkkkjljkkkjkjffllflfllfllflllflllflll``aff",
"ffikkkkkkkkkkkjkljfjfjlflllflflllflflflflfl`iiff",
"ffikkkkkkkkkkkkkkkfffffldlfldlfdlfdlfdlldlf``iff",
"ffikkkkkkkkkkkkkkkfffdfmfldfmfmfmmfmmmmfmfm`iiff",
"ffikkkkklkkkkkkkkkmmdmmdmmmmdmdmdmdmdmdmdmm`iiff",
"ffikkkkkkkkkklkkkkafammamdammammmammmmmamgm``iff",
"ffikkkkkkkkkkkkkkkdagegmafadafdagmdagadmaed`iiff",
"ffikkkkkkkkkkkkkklmdagadadgmgagamaadmagegjf``iff",
"ffikkkkkkkkkkkkkkkaagegagaaedadadagaadajdaa`iiff",
"ffikkkkkkkkkkkkkkkagcjajdjjjjjajjjajjjajajg``iff",
"ffikkkkkklkkkkkkkkcejdacaadidajadadadadjdid`iiff",
"ffikkkkkkkkkkkkkkkcacacaacicacaciciciciicai``iff",
"ffikkkkkkkkkkkkkkkichchchcaichchjhcacaciaci`iiff",
"ffikkkkkkkkkkkkkkkhciicichichciicichiihchci`iiff",
"ffikkkkkkkkklkkkkkcihciicichciichiiciciichi``iff",
"ffikkkklkkkkkkkkkk`c`ii`hi`i`ii`ic`i`i`i`c``iiff",
"ffikkkkkkkkkkkkkkki`i`i`c`i`c`i`i`i`ch`i`ii``aff",
"ffi`````````````````````````````````````````iiff",
"fffli`i`i`i`i`i`i`ii`ii`ii`ii`ii`ii`i`ii`i`i`iff",
"fffffiiiiiiiiiiiiiiiiiiiiiiiiiiiiiiiiiiiiiiiiiff",
"ffffffffffffffffffffffffffffffffffffffffffffffff",
"ffffffffffffffffffffffffffffffffffffffffffffffff"
};
