/* XPM */
static char *noname[] = {
/* width height ncolors chars_per_pixel */
"48 48 11 1",
/* colors */
"` c #000000",
"a c #878787",
"b c #3012AA",
"c c None",
"d c #4ABD40",
"e c #8597FF",
"f c #5C5C5C",
"g c #5278BF",
"h c #FFFFFF",
"i c #D3D3D3",
"j c #C1C1C1",
/* pixels */
"cccccccccccccccccccccccccccccccccccccccccccccccc",
"cccccccccccccccccccccccccccccccccccccccccccccccc",
"cccccccccccccccccccccccccccccccccccccccccccccccc",
"cccccccccccccccccccccccccccccccccccccccccccccccc",
"cccccccccccccccccccccccccccccccccccccccccccccccc",
"cccccccccccccccccccffffffffgaccccccccccccccccccc",
"ccccccccccccccccc`f`b``b`b`f`bffcccccccccccccccc",
"ccccccccccccccc``b`bfbgbgbgbfbfbffcccccccccccccc",
"cccccccccccccf`b`fbfbfbffbfbgfbf`ffccccccccccccc",
"ccccccccccc`f`bffbfbfgiicigbfbfgbgbfcccccccccccc",
"cccccccccc`b`fbfbgbfcciiijafbfbfbfbgffcccccccccc",
"ccccccccccf``bfbfbfgiihcjigffgbgfgfbffcccccccccc",
"cccccccc`f`bfbfbgfbbihjjjji`fbfbfbgfbggccccccccc",
"cccccccfb`fgbfgbfbfgicjjijc``bfgbfbgfbfccccccccc",
"cccccccf``bfbfbfbfbfciijcja`ffgbfgfbfgbccccccccc",
"ccccccc``fbfbfbgbfgbggaiaa`f`bfgfbfgbffgfccccccc",
"ccccccfbfbfbgbffbgfbfbf`f`bfbgbfbgfbdbgfgccccccc",
"ccccccf`bfbfbfbgbfbfgbfb```bfffbfgfbgfbgbccccccc",
"cccccf`fbfbgfbffgiiiiihihhhgbgbdbfgfbgfbfgcccccc",
"ccccc``bfgbfbfgbgbg`icciiii``fgbfgbfgbfggfcccccc",
"ccccc`bfbfbfgbffgfb`iiiiiii`fbfgbfgbfgbfbgcccccc",
"ccccc``fbfbfbfgbfbfghhiiiih``bfgfbfgbfgfgfcccccc",
"cccccf`gbfgbfbfbgfbfihiiiiif`gfbgfgbfgbgbfcccccc",
"cccccb`bgfbfgfgfbfgbhhiihih``bgfgbfgbfgfbgcccccc",
"ccccc`fbfbgfbbfbfgbfhiiiiii`ffbgfgbfgbfgfbcccccc",
"cccccf`fbffbgfbgfbfbhhihihif`bgfbgfbgfgbfgcccccc",
"ccccc`bfgbgfbfgfbgfgihiiihi``gfbgfbgfbgfgbcccccc",
"ccccc``fbfbfgbfbfbfbhhihihcf`gfgbfgfbgfbgfcccccc",
"cccccfbfgfbfbfgfgfbfhiiihih``gbfgbgfgfbgfgcccccc",
"cccceffbfbgfgbfbbfgbhhhihiib`fgbfgfbgbgfgccccccc",
"cccccfffbfbfbfgfgbfgihihihi``gbgfbgffgfbgccccccc",
"ccccccefbgfgfgbfbfbfhhihiihf`fgfbgfbgbfgfccccccc",
"cccccccffbfbbfgbdbgfchihihi`bgbgfgbdgfggcccccccc",
"cccccjefgfbgfbfbgfbghhhihhh``fgfbfgbgbgccccccccc",
"cccccccc`bfgfbfgfbffihihihi`fbfbgfgffgfccccccccc",
"ccccccccaggfbgfbgihihhhihhhhhigfggfbggcccccccccc",
"cccccccccafbfgfgfihhhihhhihhihgbfbgfgfeccccccccc",
"ccccccccccgfgfbfgbg`````````f```ggfgcccccccccccc",
"ccccccccccccegfbfgbggggggggbgggfgfgccccccccccccc",
"ccccccccccccjefgbfgfbgbfbbfgffbgfgfccccccccccccc",
"ccccccccccccccccgfbgffgbgfgbgbgfeccccccccccccccc",
"ccccccccccccccccccccgggfagajcjcccccccccccccccccc",
"ccccccccccccccccccccjccccccccccccccccccccccccccc",
"cccccccccccccccccccccccccccccccccccccccccccccccc",
"cccccccccccccccccccccccccccccccccccccccccccccccc",
"cccccccccccccccccccccccccccccccccccccccccccccccc",
"cccccccccccccccccccccccccccccccccccccccccccccccc",
"cccccccccccccccccccccccccccccccccccccccccccccccc"
};
