/* XPM */
static char *noname[] = {
/* width height ncolors chars_per_pixel */
"48 48 14 1",
/* colors */
"` c #000000",
"a c #878787",
"b c #00FF00",
"c c #3012AA",
"d c #FF6F6C",
"e c None",
"f c #4ABD40",
"g c #8597FF",
"h c #5C5C5C",
"i c #5278BF",
"j c #FFFFFF",
"k c #D3D3D3",
"l c #C1C1C1",
"m c #0000FF",
/* pixels */
"elallallallallallallallallallallallallallallalee",
"ljjjjjjjjjjjjjjjjjjjjjjjjjjjjjjjjjjjjjjjjjjjjlle",
"ajkjkjkjkjkjkjkjkjkjkjkjkjkjkkkkkkkkkkkeklklelae",
"ljjkjkjkjkjkjkjjkjjkjkjjkjjigggggjkjkekkkkeklihe",
"ljkjkjjkjjkjjkjkjkjkjegcmmmmmmmmmmmekkkeklklla`e",
"ajjkjjkjkjkjkjkjkjkgmmmmmmmmmmmmmmmkkekklkllli`e",
"ljkjkj```````````cmmmmmcch`h`h`hccc``````lella`k",
"ajjjkj`hhhhhhhicmmmmcchhhcihhcchhhihhhhhhjllehhe",
"ljkkjk`hchhchccmmmchihiihmhcicmmcchihihchjlllh`e",
"ljkjjj`hhhhacmmmchhihihhcmcahcmcmmccchhhhjllli`e",
"ljjkjk`ihchcmmchiaimchihimcihichcmmmchchcjllaa`e",
"ajkjkj`hhhhmmcacachmmmccamchihihihcmmchhhjllli`e",
"ljjkjk`hchmmcaihimmmcimmcmihihihihiccmchcjlalh`e",
"ljkjkj`hacmcihhihihmccmcimhcaaachihihmmhhjlglhhe",
"ljkjjk`icmcacccmcmamimmiamiiacaiacahicmchjalah`e",
"ajjjkj`hcmhicammmmamimcccmicaacmcaacahmchjlili`e",
"ljkkjk`hmcihmccmimcmcimmiciaiacmacmcihmchjllah`e",
"ljkjjj`hmhaicmmcamimiiaaaiamciimamcmhiccijaila`e",
"ljjkjk`cmaihmimcimiciigagcaidcmmcmcciamchjllah`e",
"ajkjkj`icchicmicaicgagagcmimamcmimcichmchjlalh`e",
"ljjkjk`hmaaicmaaaciciigcmicmimamcmcmihmihjalac`e",
"ajjkjj`cmacaciaiiiicmmcimaimmmimiichacmihjalaa`e",
"ljkjkj`hmcaiaiaaamcmmcmacmamimmcciihimchhjlalh`e",
"ajjjkj`amcchacacammcmimiamcmchcicahicchihjaaah`e",
"ljkkjk`icmhicaaiamimcamcmmiaiaiihichmhihhjaeah`e",
"ljkjjj`hhcmhaacaicmimicmciacaihacahmcchhhjaaai`e",
"ljjkkk`ihcmmhiacacmahiiciiaiacaihmmhahihhjaalh`e",
"ajkjjj`hhhhmmchacacacaaihacacaccmmhchhhchjaaah`e",
"ljjkkk`ihchicmmccaihihcaicaccmmmcahhihhhhjaaah`e",
"ljkkjk`hhhhhhccmmmcmcmcmccmmmcchhihhhhchhjefai`e",
"ljkjej`hcahcaihccmmmmmmmmmccciahachihchhcjaiah`e",
"ajjkkk`hhchhhhhhihihchchchiihhachhhhhhhhhjaaac`e",
"ljkkjkljjjjjjjjjjjjjjjjjjjjjjjjjjjjjjjjjjjaiah`e",
"ljejekkekklklllllllllllilgagalalaaaaaahchaiaac`e",
"ajkejekkkekellelllalalallallaalalalaaacbblahah`e",
"ljkkekkekklklllllllllgllalalalaeaaaaaaalllaihc`e",
"ljliaaihaihhihhhhhhhhhhhhhhhhhchchihhhhhchchhh`e",
"aa`````````````````````````````````````````````e",
"eeeeeeeeeeljhhhhhcllaaahhhc`h``h`h`h`eeeeeeeeeee",
"eeeeeeeeeajlhhhhhhhhiaihhh`h``h`hhhhi`eeeeeeeeee",
"eeeeeeeeljkhiaihiahhhhh`c`c`hhhiaiaaaa`eeeeeeeee",
"eeeeeeeljjlalalalalaeaelalleaeagallglaa`eeeeeeee",
"eeeeeeajjjjjjjjjjjjjjjjjjjjjjjjjjjjjjjjhheeeeeee",
"eeeeeeljlalalalalalalalalalalalalalallal`eeeeeee",
"eeeeeeajllalllalllalllalllllllalllalalla`eeeeeee",
"eeeeeeeh````````````````````````````````eeeeeeee",
"eeeeeeeeeeeeeeeeeeeeeeeeeeeeeeeeeeeeeeeeeeeeeeee",
"eeeeeeeeeeeeeeeeeeeeeeeeeeeeeeeeeeeeeeeeeeeeeeee"
};
