/* XPM */
static char *noname[] = {
/* width height ncolors chars_per_pixel */
"43 48 13 1",
/* colors */
"` c #000000",
"a c #FFE779",
"b c #878787",
"c c #FFAE00",
"d c #FF0000",
"e c #FF6F6C",
"f c #4ABD40",
"g c #B72828",
"h c #5C5C5C",
"i c #FFFFFF",
"j c #FFFF00",
"k c #D3D3D3",
"l c #C1C1C1",
/* pixels */
"gdgdgdgdgdgdgdgdgdggdgdgdgdgdgdgdgdgdgdgdgd",
"dgg`h```h```h```h``h``h``h``h``h``h```h``h`",
"gd````````hhhblaccccececececceecdgdhdhdggg`",
"gd````h``hhhgcgcgegcecdegedggcgcegeggggggg`",
"dgh`````hchgcecececeghcgcgggegeegcdeg``ggg`",
"gd``````g`cggcggd`gg`g`ggggggdgdggecgggggg`",
"dg``g```c`ggdggg`gg`g`ghgggggegcgggeeghgggg",
"gd`````hhaggcggghgghggg`ggg`ggegedgcgc`ggd`",
"dg````ghfdgeg`g`ggdggh`g``bb`gggdegggeggggh",
"dgg``hc`hdgggggh``g`gg`aaiaab``gggdgggehgg`",
"gd``hc``ggg`hgg``h``ghbkaaklgghggggdgggggg`",
"gd``hhh`ggggggg`g``g`aakakabhhg`g`ggdggghg`",
"dg``hhf`dg`gggg`halebgalaaahg`ge``ghggdgg`g",
"gdh`g`c`ggggggg`heaaa`aaalahhg`ebbg`gggggg`",
"dg`hhfd`ggg`ggg`ebakebbaeeahl`ghhhghhg`ggg`",
"gd``hgg`ghg`ggg`haaabe`eaaaleag`gghg``gggg`",
"dgh`hgg`ggg`ggg`eaeaab``alcaeehh```hg`hggg`",
"dgg`hgg`g`g`ggg`eleaeah`eaalhf`ghcgg`gg`hg`",
"gd``cgg`ggg`ggg``ajaebbgbaebh`eh```hhh``gg`",
"dgg`hdggeg`g`gg`g``habgghah`g``h`h`gcggg`g`",
"gg``gggggg`gg`g`ghg``gbgh`eg`l``h`gheeh``g`",
"gdg``dgggg`gg`g```h``h`gechggh`hbgbecgghg``",
"dg``ghgdg`gdg`h`hh`hh`hgelacbaacaeceeeggh``",
"dgg`cg`gghgggg`ehhhghg``eaakaclaeeaecgg``g`",
"gd`ggh``g`dggg`gaaeabbe`aaaaaaeaacegggeh```",
"dggfg`ghggdgg`gaaaaacbhgaaakeaaeebeahcgggh`",
"gd`cg`g`gggdg``laaabeh`aleaaaleaecegggggg``",
"dgggh`g`gdgggh`gkeabb`ehehaeaaaecbecggg`hg`",
"gd`cgg``ggdh````albe`gahcegeaeaeaeegegegg``",
"dgggg`g`edg`gh``ebebgga`e``heaaeegecggc`g``",
"gd`ggh`gdg`g```h`gbbeaah`gehaeacecggeghgg``",
"dgggh`gggg``g``g`beaaaaabagfaeceegecgg`gg``",
"gd``gggdg``g``h``eaeaeabghh``hcbcegggh`gg``",
"dggc`dggg`h`h``h``celah```gggg`eegcghg`ggg`",
"gd`eggg````g``g``h`kaae`ggggh`ggcgghgggggg`",
"gdgggggdg`h`````g`g`bclhh`h``eeegeggh`dg`g`",
"dgg`gd`gh``g``h```h`gaeaehhgeecggg`hgggggg`",
"dggggggg`g``h````g``h`hbbeeeagegghgg`gd``g`",
"gd`gdghg`g````g`h``g``g`gaeageghggh``gg``g`",
"gdggg`gd`g`gg`h```h`g``h`hahg```h```hdg`hg`",
"dgggdggg`g`h````g```h``h``````h`````gg``gg`",
"dggggg`ggh``g`h``g`h````g`g``````g``gd``hg`",
"gdg`gd`gg``h`g``h``g`g`g```h````````d```gg`",
"dgggggdh`g`g`ggg`````````h`````h````gh``g``",
"gd`ghdgggg`g`gh`h`g`h````g``h````h``g```b``",
"gdg`ggggg`g`h``ggg`````h```````h````d```g``",
"dgggg`cegg`ggg``ghgghg`````h``````h`g``````",
"dgg`h``g``h```h``````````h`````h``````h``g`"
};
