/* XPM */
static char *noname[] = {
/* width height ncolors chars_per_pixel */
"48 48 11 1",
/* colors */
"` c #000000",
"a c #878787",
"b c #3012AA",
"c c None",
"d c #4ABD40",
"e c #8597FF",
"f c #5C5C5C",
"g c #5278BF",
"h c #FFFFFF",
"i c #D3D3D3",
"j c #C1C1C1",
/* pixels */
"cccccccccccccccccccccccccccccccccccccccccccccccc",
"cccccccccccccccccccccjcchhgfaccccccccccccccccccc",
"ccccccccccccccccccccchiccaab`fcccccccccccccccccc",
"cccccccccccccccccccchhag```a`bfccccccccccccccccc",
"cccccccccccccccccccjcfccgcbf`afejccccccccccccccc",
"cccc```````````````fhhfa```fb``````````````hcccc",
"cccc`fffffffffffffbhfgccgcg``g`fgffffffffffhcccc",
"cccc`gfgffgfgfgfgffghhfa```g```ffffgfgfgfgfhcccc",
"cccc`fffffffffffffgiffccgca`bg`gffgffffffffhcccc",
"cccc`fgfgfgfgfgfgffahhfg```g```fgfffgffgfgfhcccc",
"cccc`fffffffffffffgigfcjgcg``g`gffffffgfffficccc",
"cccc`fgffgfgffgfgfffhhfa```g`b`ffgfgffffffghcccc",
"cccc`fffffffffffffghffccgca``f`gfffffgffgfficccc",
"cccc`gfgfgfgfgfgfgffhhfa`b`g`b`fgffgffgffgfhcccc",
"cccc`ffffffffffc`ffigfccfjf`bf`fg`bdffffffficccc",
"cccc`fgffgfgffgh`gfghhfg`b`g```gf`fffgfgffghcccc",
"cccc`ffffffffffh```hffcjfcf`b`b```gfbdfffffhcccc",
"cccc`gfgfgfgfgfhbfghhhffb``b```fg`fgfffgfgfhcccc",
"cccc`ffffffffffi`fbihicgffb``b`gf`gfffbdbdbicccc",
"cccc`ffgfffgffgh`ffhhicagf`b```fg`fffgfffffhcccc",
"cccc`fbdbdbdbffh`gfhhhcafff`b`bff`gffffgffgicccc",
"cccc`bdbdbfffffh`ffhhicagbfb```bg`ffgfffgffhcccc",
"cccc`dbfffffgffh`gbihhcjff```b`fg`bfffbfffbhcccc",
"cccc`ffffgfbdbfh`ffhhicagffb```fg`fgfbdffffhcccc",
"cccc`fbffffffffh`gfihhcgffb``b`fg`gfffbfgfficccc",
"cccc`ffffbfgfbfh`bfhiicagff`b``ga`ffgffffbfhcccc",
"cccc`fgffffffffh`ffgcicaffb```bfg`bfffffffficccc",
"cccc`ffbffbffbfh`bfggcgab``b`fbfc`fffbfbfgfhcccc",
"cccc`fbdbfffbdbcf`gfffff`b```bffe`gfbdffbffhcccc",
"cccc`ffffgfffffgg`ffbg`b``fbbffgfbffffbffffhcccc",
"cccc`fbfffbfbffgi`bfffbfbfbdffbc`fbfbfffbfbicccc",
"cccc`bffbfffdbffcg`bffffffffbfcg`bffdbfffffhcccc",
"cccc`fffffbfbfffgjf`bfbffbffgcf`fffbffb````hcccc",
"cccc`ffbfbfffffbfgcffbdbffgcef`bfbff`b`fgbfhcccc",
"cccc`fbffffbffbfffgbffgacgaf``bfffbfbdbfbdbhcccc",
"cccc`ffffbfffbfffbffbf`b````fbfbffff`bfffbfhcccc",
"cccc`bfbfffbfffbf`ffffbjcbfbfffffbfb`ffbffficccc",
"cccc`ffffbfffbffffbfbffca`bffbfbfbfff`ffffbhcccc",
"cccc`fbfbf`bffbfbffffbfccfffbfffffbfbb`bff`hcccc",
"cccc`b`ffbffbf`ffbfbfghhab`bff`bffb``ffffbfhcccc",
"cccc`ffbfffffbfbff`gchiea`````b```bfbfbfbfficccc",
"cccc`bfffbfbfffffbchhicagf`b`bfbfbfffbffffbhcccc",
"cccchhhihihihchihcihcccaff`````hhhihihihchihcccc",
"ccccccccccccccccgchiccgabfbfb`b`cccccccccccccccc",
"ccccccccccccccccccahccafff`f``gacccccccccccccccc",
"cccccccccccccccccccgaagf`b`bgajccccccccccccccccc",
"ccccccccccccccccccccccccccccjccccccccccccccccccc",
"cccccccccccccccccccccccccccccccccccccccccccccccc"
};
