/* XPM */
static char *noname[] = {
/* width height ncolors chars_per_pixel */
"47 46 13 1",
/* colors */
"` c #000000",
"a c #FFE779",
"b c #878787",
"c c #00FFFF",
"d c #3012AA",
"e c None",
"f c #4ABD40",
"g c #8597FF",
"h c #5C5C5C",
"i c #5278BF",
"j c #FFFFFF",
"k c #D3D3D3",
"l c #C1C1C1",
/* pixels */
"hhhhhhhhhhhhhhhhhhhhhhhhhhhhhhhhhhhhhhhhhhhhhhj",
"h`````````````````````````````````````````````k",
"h``h`dh`hhh``hhh``hh``hh`hhhhhhh`h`hh`h`hh```hj",
"h`hdhh`i`h`ihi`hhhh`hhdhh`hhhh`hhdhhhhhhhhhhhhj",
"h``hh`hhhhhhh`i`hh`i`h`hhi`hhhhhhhh`hhhd`hhh`he",
"h``hhdhh`h`hhhhhhhhhhhhhhhhhhhdhhhhhi`hhhhhhdhj",
"h`i`hhhhdhhhh`ihhhhhhhhhhhhhhhh`hhh`hhhhhhhhh`j",
"h``h`hh`hh`hhhh`hi`hhhhhhhhhhhhihhhhihhhh`h`hhj",
"h`hhhhhhihhhhhhhhhhhdhhhdhhhhhhhhhhhhhihhhhhhhj",
"h`hhhihhhhhhhhihhhhhfhihhhhhhihhhhhhihhhhhihihj",
"h`ihhhhhhihhihhhhhhhdfhhifihihhihihhhhihihhhhhj",
"h`hhhihihhifhhhihihhhiifiihihhhhhhhhhhhhhfihihj",
"h`hhfhhhfhhdfihhhhhifiikckbifhihhihifihhihhhfhj",
"h`ihhihihihhhhhfihhhileciceihhhihfhhhhhhhfdfdhj",
"h`hhihhhhhfiihihhfihieefifel``fhihifihifihihhik",
"h`hhhhfifiifififiififekihhich``hifihifihifififj",
"h`ifiihihihhihihihihhkkifhib``dhfdfihihihihhihj",
"h`hhififhifififhfihfikcihhebh``dfihihfifififihj",
"h`ifihiifhihihiihhiiiekificb``hfihfifdfihihifik",
"h`fihifhiihifififififekihilbh``dfiihiihihifihij",
"h`ihifiififihihiifihiikbhikh`hhhifififififihifj",
"h`ifihihifihififhiififkchle```hfihihihihidfihij",
"h`iififihihifihiifhiiikehbeh``ihifififififiifik",
"h`fihihififihiifhififbkeheeh``hihihiihiihifihij",
"h`ihifiiihififiiifiiiekchcbi`ihfififififiiififj",
"h`ihhifififiiififiifceji`iebhhiiiifiiifiifihiij",
"h`jbhhihiiifhiiiiieekjkcbbkjelbfiiififihififiij",
"h`je``hififiiflekjkifihhhfibfiekegfiiiifihiiclj",
"h`kkb`hiifigeeeefihhh`h`dhhhhhiifeeefhiiififejj",
"h`hkkihhhiekkeihhhhhhhhhh`hhhhhfifieegfifiiekej",
"h`hhkklihbkeifh`h`h`h`hh`hhhiihhhdfiikeiifejehk",
"h`ihbcelkeef`d`hhhhh`i`hhhhhifihihhifillleechhj",
"h`kihilkebhhhh`h`d`hhhhhihihhhhifiifihifeechhij",
"h`lefifeih`h`hhhhhhhhhhhihhhihhihihihifiiihhiek",
"h`heeiifh`hhh`h`hhhhhiiifiifihififihhihififiefj",
"h``ijefd`hh`hdhhhhihiibfiieeiifiiifiifihifiiebj",
"h`hbkbh`hh`hh`hhiifiblkeicllfiibifiifiifihhfgbj",
"h`lebihh`hhhdfiibbh`hlkifelih`hbbgfiihihihiiblj",
"h`kli`hhhh`hhielf```hikcicllh``hileififihifhiej",
"h`kfhhh`hhiifejkih``hlebifeeh``hbkkeihifihhifij",
"h`ed`hhhihihicekeh`hhecificl`hhbeeeefiiiifihifj",
"h`hhh`hhhifeeficeeihhbciiiebhhikeeciicifhihihij",
"h`hhhhhhifgekihfciehhbkifclbhikjcifickliififihj",
"h`hh`hhihblblchihceehbaciieihljlificllbficiiiij",
"h``hhhhhiihhhlbhifeebikifekhbkkifiilbhbeifchfik",
"jjjkjejkjjjjjjjjjjjjjjjjjjjjjjjjjkjjjjjjjjjkjjj"
};
