/* XPM */
static char *noname[] = {
/* width height ncolors chars_per_pixel */
"48 48 11 1",
/* colors */
"` c #000000",
"a c #878787",
"b c #FF00FF",
"c c #FF6F6C",
"d c None",
"e c #8597FF",
"f c #5C5C5C",
"g c #5278BF",
"h c #FFFFFF",
"i c #D3D3D3",
"j c #C1C1C1",
/* pixels */
"dddddddddddddddddddddddddddddddddddddddddddddddd",
"df``````````````f```f```f`````````````````````dd",
"```f``f``f`f`f````f```f```f`f`f`f`f``f```f`````d",
"f```f```f`f```f`f``f`f``f`f```f````f```f```````d",
"``ffffffff`fff`f`ff`f`ff`f`fff`fffffffffffff```d",
"f```````````````````````````````````````f```f``d",
"``f`aaaa`iiiiiiiiidididdddddddddddddddddde`f```d",
"``f`afaa`ii`fdi`````dd````````dddjejeddedd`f```d",
"`f``aafa`iiiiiiidididdiddididdjdddjdjejade```f`d",
"f`f`aaaa`di`fdd`````df`i````d```ejejeajedj`f```d",
"``f`hhhh`iiidhdididdddddddddddjdjecejejeje`f```d",
"f`f`hjaj`di``j`ddddidi``j`dddjedd`d``jdjej``f``d",
"`f``hajj`iiididididdddddddjdddjdjejddeaeja`f```d",
"f`f`hjaj`dd```j``ddddd``j``j`jbed``d`jejed``f``d",
"`f``h`jj`idididddiddddddjddddejjjejejejadj`f```d",
"f`f`hahj`di`d```dddddd```j`jejjed```d``ded``f``d",
"`ff`hjaj`ididddidddbidddjdddjejadejdejdaej`f```i",
"f`f`hajj`dd`fdd````d``djejejeadedjedaejeje`f`f`d",
"`f``hjaj`idddddddddddddejdjejejejaejeceaea`f```d",
"f`f`hajj`dd```dd```d```j``d``j``e```e`jejd``f``d",
"`f```````ddiddddddddjdjdddjjdejjjjdjdeaeje`f```d",
"f`f`hhhh`dd`d``d`````d``d``````eejeeaejeaj`f`f`d",
"`ff`hffj`dddddidddjddddddejejjdjaecejaecea`f```d",
"f`f`h``f`id`fdd```dd````d`djeaejejeaejeede``f``d",
"`f``hjaj`dddddddjdddjddjdejejdjaejejeajaec`f```d",
"f`f``````ddddd````d```e``````e```eaeceeaee``f``d",
"`ff`hhhh`dddjdjddddddjjejddjdjejdadeececea`f```d",
"f`f`h``f`dd``d``d`d`````e``e```aedeajgeead``f``d",
"`f``hffj`djddddddddejddjdadjejejeceaeceaea`f```d",
"f`f`hjaj`dd```d```dad``e```d````aeejeecead``f``d",
"``f``````ddddddddjedejdaddeadejejaecgaeabj`f```d",
"f`f`````````````````````````````````f``````f```d",
"``fffffffff`ff`f`f`f`f`f`f`ff`ff`fff`ffaaff``f`d",
"f```f`f`f``f`f`ff`f`ff`ff`f``f`f`f``f`f````f```d",
"``f````f`f`f`f`f`f`f``f`f`ff`f``f``f```````````d",
"````f`f`f`f`f`f`f`f`f`f`f`f``f`f``f`f`f`f`f````d",
"``````````````````````````````````````````````dd",
"dddaaaaaa```````````````````````````ffgfafgfaddd",
"dddddddddaf`````````````````````````afdddddddddd",
"dddddddddda```````````````````````fafddddddddddd",
"dddddddddddf```````````````````````fdddddddddddd",
"dddddddddda```f`f``f``f`f`f`f`f`f``adddddddddddd",
"dddddddddaf`f`f``f`f`f`f``f``f`f`f`f`ddddddddddd",
"ddddddddg`f`ff`ff`f`f`f`f`f`f`f`f`f`f`dddddddddd",
"`fffff`f`f`f``f``f`f`f`f`f`f`f`f`f`f`f``ffffffdd",
"```````````````f``````````````````````f``````fdd",
"`fffff`f````````````````````````````````ffffffdd",
"`````````f`f`f``f`f`f`f`f`f`f`f`f`f`f`f``````fdd"
};
