/* XPM */
static char *noname[] = {
/* width height ncolors chars_per_pixel */
"32 32 13 1",
/* colors */
"` c #000000",
"a c #FFE779",
"b c #878787",
"c c #FFAE00",
"d c #FF6F6C",
"e c None",
"f c #4ABD40",
"g c #8597FF",
"h c #B72828",
"i c #5C5C5C",
"j c #FFFFFF",
"k c #D3D3D3",
"l c #C1C1C1",
/* pixels */
"eeeeeeeeeeeeeeeeeeeeeebllblleeee",
"eeeeeeeeeeeeeeeeeeeeblldllklleee",
"eeeeeeeeeeeeeeeeeeelbblllakkklee",
"eeeeeeeeeeeeeeeeellbbdbllkjkjkbe",
"eeeeeeeeeeeeeeeeeblbiblkkkkjkjke",
"eeeeeeeeeeeeeeeelkbbbbllljkjkjkl",
"eeeeeeeeebbbb`iebkalllbbbblkjjjl",
"eeeeeeblbllllbi`bjkjklieeebekjkl",
"eeeei`blllblllbiajjjjbealegejjjk",
"eeli`hibbllllllblkjkjllljegbjjkj",
"eei`i`ihbblllblldjjjjlljkeeejjjk",
"li`h`h``hlkkkjjjljjjkleejeeejkjk",
"e`ii`iihbkjjjkjklkjkkkkeeeejjjjk",
"k`h`i`hiikjkjjjjbjkkkkllbbkkjjkb",
"ih`i`ici`kjjjkjjikkkllllblbllkkk",
"`ih`i`b`ikjkkjkkidklallbiibbbble",
"i`i``hbh`jji`ibai`albblliiiiblle",
"ihi`i`ci`jkiihilhiillbbbliibblee",
"l``i`iih`jjiab`li`ibdklalblbkeee",
"k`i``ihiikkiiiilh`ih`illllleeeee",
"ei`i`ihi`jja`ilji`hfi`llleeeeeee",
"l`i`h`fhijkjllkj`iih`ieeeeeeeeee",
"eh`i`ihi`jjliidji`ihi`leeeeeeeee",
"e``h`ihihjjihiilh`ci`ieeeeeeeeee",
"eii`ihfh`jliakbli`bh`ileeeeeeeee",
"k``h`hihijabbablhibhiheeeeeeeeee",
"eihiihihakjlbbkji`hfh`eeeeeeeeee",
"l`i`ihfhbjjjjjjkhiihikeeeeeeeeee",
"eehihihifkjkjabhi`leeeeeeeeeeeee",
"eel`hfhihabbhihiikeeeeeeeeeeeeee",
"eeeeihfhihihiilllleeeeeeeeeeeeee",
"eeellihihiiellleeeeeeeeeeeeeeeee"
};
