/* XPM */
static char *noname[] = {
/* width height ncolors chars_per_pixel */
"48 48 14 1",
/* colors */
"` c #000000",
"a c #FFE779",
"b c #878787",
"c c #FFAE00",
"d c #3012AA",
"e c #FF6F6C",
"f c None",
"g c #4ABD40",
"h c #8597FF",
"i c #B72828",
"j c #5C5C5C",
"k c #FFFFFF",
"l c #D3D3D3",
"m c #C1C1C1",
/* pixels */
"ffffffffffffffffffffffffffffffffffffffffffffffff",
"ffffffffffffffffffffffffffffffffffffffffffffffff",
"ffffffffffffffffffffffffffffffffffffffffffffffff",
"ffffffffffffffffffffffffffffffffffffffffffffffff",
"ffffffffffffffffffffffffffffffffffffffffffffffff",
"ffffffffffffffffffffffffffffffffffffffffffffffff",
"ffffffffffffffffffffffffffffffffffffffffffffffff",
"ffffffffffffffffffffffffffffffffffffffffffffffff",
"ffffffffffffffffffffff`bbjffffffffffffffffffffff",
"ffffffffffffffffffffmjijibbj`ff``jbj`fffffffffff",
"ffffffffffffffffffff`jbbjijjbbjjbbmblfffffffffff",
"ffffffffffffffffff`jjbmabjjjjjjbbbjjlfffffffffff",
"fffffffffffffffff`jibmmmbj`jjjjjbjmmmfffffffffff",
"ffffffffffffffff`ijmmlbbmbjjjjjjjbjbmj`fffffffff",
"fffffffffffffff`jjbmmmmmbbmbj`jjjjjjbbmbjfffffff",
"ffffffffffffff`ijmmmbmmmmmlllfbjjdjjjbjibbj`ffff",
"fffffffffffff`jjambmbjbmblmmlllmbjjjjmigibebb`ff",
"fffffffffff``ibmmbbjj`j`jblllllfllbbbllmgijjm`ff",
"ffffffffff`jjbmbbj`j`jjjj`jjmmllmbmllkllejcbjmff",
"fffffffff``ibbmbjjjbmmlmmmjjbbmlmbbbllkbjbb`mfff",
"ffffffff`ijbmmmb`jblklmmmblbjbbbllfmllbjibjmffff",
"fffffff`jjmmbbbb`blklmj`jbbmjjbfbblllbjebjmfffff",
"ffffff`ibbmbmbb`jmlmj`j`j`j`j`bbblklbjigjmffffff",
"fffff`jjbabmbmbjjbmbbj`j`j`j`jjbfllbjibjffffffff",
"ffff`jjjmjbbbjbjjjbbmblmmmbj``jmllbjibjmffffffff",
"fff`ijjmbbjgbjb`j`blkmmbmbmmj``mlbjigblfffffffff",
"ffff`j`bmbbjjjj`j`bklmmmmmmbb`jbbjigbmffffffffff",
"ffffl`i`jbbbjjjj`jmmklmbmbml`j`jjijbmfffffffffff",
"ffffff`ji`mbbjjj`bbmmbmmmmbj`b`jige`ffffffffffff",
"ffffffl``j`bbmbjj`bmmmmmbmj`jb`jjb`fffffffffffff",
"ffffffff``i`jbmbbj`jbmbmbj`jjj`ib`ffffffffffffff",
"ffffffffl``j`jjmmbj````j``j`jjjb`lffffffffffffff",
"fffffffffll`ij`jbmb`jjbjjmbj`iijmfffffffffffffff",
"ffffffffffff``ij`jmb`jjbbj````i`jfffffffffffffff",
"fffffffffffff``ji`jbmj`````jjmjii`lfffffffffffff",
"fffffffffffffll``j`jjmmbjjijjf``i`ifffffffffffff",
"fffffffffffffffl`jij`jbjjjjjmmfljiihmfffffffffff",
"ffffffffffffffffl``jij`jjijmfffff``fffffffffffff",
"ffffffffffffffffff``jjijigmfffffffffffffffffffff",
"ffffffffffffffffffll``jjjfffffffffffffffffffffff",
"ffffffffffffffffffffl`ijmfffffffffffffffffffffff",
"fffffffffffffffffffffffmmfffffffffffffffffffffff",
"ffffffffffffffffffffffffffffffffffffffffffffffff",
"ffffffffffffffffffffffffffffffffffffffffffffffff",
"ffffffffffffffffffffffffffffffffffffffffffffffff",
"ffffffffffffffffffffffffffffffffffffffffffffffff",
"ffffffffffffffffffffffffffffffffffffffffffffffff",
"ffffffffffffffffffffffffffffffffffffffffffffffff"
};
