/* XPM */
static char *noname[] = {
/* width height ncolors chars_per_pixel */
"48 48 15 1",
/* colors */
"` c #000000",
"a c #FFE779",
"b c #878787",
"c c #FFAE00",
"d c #3012AA",
"e c #FF6F6C",
"f c None",
"g c #4ABD40",
"h c #8597FF",
"i c #B72828",
"j c #5C5C5C",
"k c #5278BF",
"l c #FFFFFF",
"m c #D3D3D3",
"n c #C1C1C1",
/* pixels */
"ffffffffffffffffffffieecjijiji`j`mffffffffffffff",
"fffffffffffffffffffjcecjiijiij`i`fffffffffffffff",
"ffffffffffffffffffieecjijigi``j`jnfffffffjifffff",
"ffffffffffffffffnjcecjiigiij`i```ffffffnjibiffff",
"ffffffffffffffffieecjijiig``j`j`iffffffjieij`mff",
"fffffffffffffffjcecjiigiji`j`i`ifffffb`iebii`iff",
"ffffffffffffffieecjijiij``i`j`jmffffjjlbii`i`fff",
"ffffffffffffnjcecjijigi`j`j``inffffjj`bfb`i`ffff",
"ffffffffffffieecjiigii`j`i``ifffffjjfkbkbj`mffff",
"fffffffffffjcecijijiij`i`j`jfffffb`jbnjjjjjfffff",
"ffffffffffieecjijigi``j`j`imfffff`lbjbbj`jffffff",
"fffffffffjabcijigii`j`j``iffffffijbnkjj`jhnjee`f",
"ffffffffenemijijij`j`i``iffffffjeejbb`djnff`ei`m",
"ffffffffbenaebeiji`i`j`jffffffiecji`jj`fff`jb`if",
"fffffffjemaenebjj`j`j`immffffjcejijj`jnfff`fbj`f",
"fffffffeaneneiji`j```ifffffnjcejiji`ifffffjb`j`f",
"ffffffjneeebbj`j`i`jiffffffjeeiig``ifffff`lbj`ff",
"ffffffeeneniij`i`j`jffffffiecigi`ibffffff`djj`ff",
"fffffjnaebej``j`jibnnffffjcejii`jinnffff`iei``ff",
"fffffeebee`j`jjijenfffffieejij`jjffffffnjecjjfff",
"ffffbebbjj`jijibfffffffjcejiij`innffffffieji`fff",
"fffbibeji`ijjeffffffffiecjijj`iffffffff`jcij`fff",
"ffffbji`j`jefffffffffjcejijj`imffffffffjeej`mfff",
"ffjfnj`jjeffffffffffieeiji`ijfffffffffficii`ffff",
"ffff`fjifffffffffffjcejig`jinfffffffff`jejj`mfff",
"fjfffjbfffffffffffieeigi`ijffffffffffnjeci`fffff",
"fffjfffffffffffffjcejii`jinnfffffffffficji`mffff",
"jfjfffffffffffffiecjij`jjffffffffffff`jeij`fffff",
"fffffffffffffffjcejijj`innfffffffffffjcej`mfffff",
"ffffffffffffffieejiji`iffffffffffffffieii`ffffff",
"fffffffffffffjcejij`jjmfffffffffffff`jcjj`mfffff",
"ffffffffffffiecjiji`innffffffffffffnjcei`fffffff",
"fffffffffffjecjij`jinfffffffffffffffieji`mffffff",
"fffffffffficeiji`ijffffffffffffffff`jcij`fffffff",
"fffffffffjeejijj`jnnfffffffffffffffjeej`mfffffff",
"ffffffffiecijij`imnfffffffffffffffficii`ffffffff",
"fffffffjecjji``imffffffffffffffffffjnbj`mfffffff",
"fffffficejii`igffffffffffffffffffffae`jfffffffff",
"fffffjneiji`jjnffffffffffffffffffffnijnfffffffff",
"fffffeaebi`jinffffffffffffffffffffff`fffffffffff",
"ffffbneb`j`iffffffffffffffffffffffffffffffffffff",
"fffnneij`igfffffffffffffffffffffffffffffffffffff",
"fffbejjjiffnffffffffffffffffffffffffffffffffffff",
"ffnbi`jfffffffffffffffffffffffffffffffffffffffff",
"fff`jfffff`jjbanebaabaabaababaanaeanaekbkjbeiejf",
"ffffffffb`j```i`jiijijijijijijijijijijjbjjb`i`if",
"ffffffffff`jij`i```````````````````````j`f`````f",
"fffffffffffnffmfmmmfmfffffmmmmfffffffffffffmfmmf"
};
