/* XPM */
static char *noname[] = {
/* width height ncolors chars_per_pixel */
"48 48 7 1",
/* colors */
"` c #000000",
"a c #878787",
"b c None",
"c c #5C5C5C",
"d c #FFFFFF",
"e c #D3D3D3",
"f c #C1C1C1",
/* pixels */
"bbbbbbbbbbbbbbbbbbbbbbbbbbbbbbbbbbbbbbbbbbbbbbbb",
"bbbbbbbbbbbbbbbbbbac`abaccc`ccabbbbbbbbbbbbbbbbb",
"bbbbbbbbbbbbbbbbcc``cccc````````cabbbbbbbbbbbbbb",
"bbbbbbbbbbbbbbcc``c`````````c``c`cbbbbbbbbbbbbbb",
"bbbbbbbbbbbfa``````cc``c`c````c``cbbbbbbbbbbbbbb",
"bbbbbbbbbfdda`c``cadfa`````c`c```abbbbbbbbbbbbbb",
"bbbbbbbfeddeec````ddeddfc``````c`abbbbbbbbbbbbbb",
"bbbbbbedddedec`c`cdeeeeeda`c`c````abbbbbbbbbbbbb",
"bbbbbbefedeeda```adeefefec`````c```abcc`abbbbbbb",
"bbbbbbfceedeeeaaafeefffffc`c`c````c`c```cabbbbbb",
"bbbbbbccaeeeeeeeeeefffffa``````c```c``c``abbbbbb",
"bbbbac``adeeeeeeeffffffff`c``c```c``````c`abbbbb",
"bbffa``adeeeeeeffefffffffa``c`ac``c`c`````cbbbbb",
"bbeddeadeeeeefefffffffffafac`fdac`````c`c``cbbbb",
"bbdeeddeeeefefffffffafafffaffdfac``c``````ccbbbb",
"bfdeeeeeeeefffffffffffffaafafaaaac```c``c`cbbbbb",
"bedeeeeefffffffffafafafaffaaafafaa`````c`abbbbbb",
"beeeeeefeffffffaffffafafaafafaaaaac`c`c``abbbbbb",
"bfffeffffffffffffafafafaafaaaaaaaaac`````cbbbbbb",
"ba`cfeffffffffafacccafaafaaafaaaaaacc`c`c`abbbbb",
"bba``ffffffafafacc``ccafaaaaaaaaaa````````abbbbb",
"bbbbcffffaffffacc````ccaaaaaaaaaa`c``c``c````abb",
"bbbbcfffffafafac``c```aaafaaaaaaac`````c``c``cbb",
"bbbbaffafaffafcc``````cfaaaaaaaacc```c```````cbb",
"bbfedfffafafafcc`cff```ffaaaacacac`c```c`c`c`abb",
"bfddfafafafafacc`ca`c``ceaacaacaca```c`````cccbb",
"bfefffaffafaafac``fc````daaacacacccc```c`cc`ccbb",
"bfdffafafaafaaaca`cac`c`ffcacaccacccccc`c`ccccbb",
"bbdfafaaafaaaaaacc`c````afcaccaccccccc`ccccc`abb",
"bbeefafafaaafaaaaa``````eaacacccccccccc`ccc`abbb",
"bbfdaaafaaaaaaaaaec``c`cdacccccccccccc`cc``abbbb",
"bbbdafaaaafaaaaaaaea``cdecacaccccccccc`cccabbbbb",
"bbbfc```caaaaaaaaafddddfcccccccccccccc`c`cbbbbbb",
"bbbaaaaa`aaaaaacacacaaacacccccccccc`c`c```cbbbbb",
"bbbbbbbbacaaacaacacaccccccccccccc`cc`c`````bbbbb",
"bbbbbbbbbccacacacacccaccccccccccccc`````c`abbbbb",
"bbbbbbbbfecaacacccaccccccccccc`c`c```c```abbbbbb",
"bbbbbbbbefaacaccaccccccccccc`cccc``c````cbbbbbbb",
"bbbbbbbbdcccacaccccccccccccccc`c`c```c`abbbbbbbb",
"bbbbbbbbfccacccccccccccccc`c`cc`cccc``abbbbbbbbb",
"bbbbbbbbba`cccccccccccc`ccccc`cc``c``fbbbbbbbbbb",
"bbbbbbbbbbac`cc`c`ccccccc`c``cc`cc`cabbbbbbbbbbb",
"bbbbbbbbbbbfa``abac`c`cc`c`c``c`c``abbbbbbbbbbbb",
"bbbbbbbbbbbbbbbbbbcccc`ccc`````c`cfbbbbbbbbbbbbb",
"bbbbbbbbbbbbbbbbbbc`ccc`c`c``c``abbbbbbbbbbbbbbb",
"bbbbbbbbbbbbbbbbbba`c`c`cc`c`cabbbbbbbbbbbbbbbbb",
"bbbbbbbbbbbbbbbbbbbc`cc```abbbbbbbbbbbbbbbbbbbbb",
"bbbbbbbbbbbbbbbbbbbbbbbbebbbbbbbbbbbbbbbbbbbbbbb"
};
