/* XPM */
static char *noname[] = {
/* width height ncolors chars_per_pixel */
"48 48 18 1",
/* colors */
"` c #000000",
"a c #FFE779",
"b c #878787",
"c c #00FFFF",
"d c #FFAE00",
"e c #3012AA",
"f c #FF00FF",
"g c #FF6F6C",
"h c None",
"i c #4ABD40",
"j c #8597FF",
"k c #B72828",
"l c #5C5C5C",
"m c #5278BF",
"n c #FFFFFF",
"o c #FFFF00",
"p c #D3D3D3",
"q c #C1C1C1",
/* pixels */
"llllllllllllllllllllllllllllllllllllllllllllllll",
"l``````````````````````````````````````````````n",
"l```l``l`l`l`l`l`l`l`e`l`e`lle`l`nnnnnnnnnnnnnnn",
"l`l`l`e`l`e`l`e`le`ek`llllkel`ke`nnnnnnnnnnnnnnn",
"l``e`k`l`l`ke`ke`ke`ell`e`e`kee``nnnpqqqqqnnnnnn",
"l`k`eppppppqpppppqppqqpppppppqpp`nnnbl```l`lbnnn",
"l``l`pnnnnnnnnnbnnnnnnnnnbnnnnnn`nnnnq`bnnn``pnn",
"l`e`lpnnnnnnnnnbnnnnnnnnnbnnnnnn`nnnnq`bnnnb`qnn",
"l``keqbblbbbbblbbbblbbblbbbbbbbb`nnnnq`bnnnb`qnn",
"l`le`pnnnnnnnnnbnnnnnnnnnlnnnnnn`nnnnq`bnnp`lnnn",
"l``keqnnnnnnnnnbnnnnnnnnnbnnnnnn`nnnnq`blllbnnnn",
"l`le`pnnn`````lll`i`lnnnnbnnnnnn`nnnnq`bnpnnnnnn",
"l``kepbbb`````aiaiaqilbblbblbblb`nnnnq`bnnnnnnnn",
"l`le`pnnn`````iaiqai`nnnnbnnnnnn`nnnnq`bnnnnnnnn",
"l`llkhnnn`````qqiaiainnnnbnnnnnn`nnnnq`lnnnnnnnn",
"l`e`epnnn`````aiaiqillbbnbnnnnnn`nnnbl``lpnnnnnn",
"l`lkeqbbb`````iqiaiai`l`bblbbbbb`nnnpqqqqnnnnnnn",
"l`lelpnnn`````aiaiqilbbbnbnnnnnn`nnnnnnnnnnnnnnn",
"l`ek`pnnn```i`iqiqia`bbbnbnnnnnn`nnnnnnnnnnnnnnn",
"l`keepnnn`````iaiaiiibbbnbnnnnnn```````````````n",
"l`ekepbbb`````aiiqia`l`llbblbbbbbll`l`l````````n",
"l`lekpnnn`````iiaiiiibbbnbnnnnnnnqbllllllbbbblbn",
"l`ekeqnnn``i``qiiqibilbbnbnnnnnnnpqlbbqblbbbblbn",
"l`ekepnnn`````iaiik````llklklknnnnqlqqbqlqqqqlqn",
"l`eekpbbb`````iibi````kooaoodllbbbblllblllllllln",
"l`ekepnnn``i``aiia`l```aaobaolnnnnnbnnnnbnnnnbnn",
"l`kefqnnn`````iibi```l`dadada`nnnnnbnnnnbnnnnbnn",
"l`fkepnnn`````ibii`k```adadaokbblnnbnnnnbnnnnbnn",
"l`eefqbbb``i``iibi``l`ldaiadbll`lblbbblbblbbblbn",
"l`felpnnn`````idib`l```addadokbbbnnbnnnnbnnnnbnn",
"l`lfkhnnn`````ilii`k`l`dabdbdllbbnnbnnnnbnnnnbnn",
"l`efepnnn``i``ilil``l``addaddlblbnnlnnnnbnnnnbnn",
"l`flf`````````iilik``k`didbdik`````````````````n",
"l`fekelel``i``lili``l``adadddll`lelekelekelekeln",
"l`effefke`````ililll`l`dbdigdl`ekfffefffmfffmffn",
"l`gefbfef`i```illi`k`l`ddbddikekefjfffjfffjffjfn",
"l`fefeffb```i`li`i``k`ldidd`````llllmiejfhfhffhn",
"l`fbfbfmf`````lli`kl`l`dgdb`````hhhchjlfhffffhfn",
"l`feffeff``i``i`il`ll``didk```l`hhhhhhiffjhfhfhn",
"l`mffbffj`````li`i`l`k`dkid`l```hhchhmmfhffhfhfn",
"l`feffeff`i```i`i`l`kl`dbdk`l`l`hhhmcqllebfhfhfn",
"l`fffmffj``i``i`ll`lll`dkdil`l``cmhmbmmeklhfhfhn",
"l`fmfffbf`````l`i`l`k``dikd``e`lmbcbmimleefpfpfn",
"l`mfffjff```i``i`l`lll`dkdl`l`l`mmbmmmlekbpfpfhn",
"l`ffmfffj`i```i`i`lkll`dlkd`l`l`mimmimmlekfpfpfn",
"l`jfffjff`````i``i``lk`ldki`ell`mmmimmlebepfpfpn",
"l`ffjffjf`i`i```i``kll`dlkd`l`l`mimmllmlkepfppfn",
"nnnnnnnnnnpnnnnnnnnnpnnnnpnnnnnnnnpnpnpnnnnnnnnn"
};
