/* XPM */
static char * andrew-shape_xpm[] = {
/* width height ncolors chars_per_pixel */
"64 64 4 1",
/* colors */
" 	s None	c None",
".	c blue",
"X	c black",
"o	c white",
/* pixels */
"                                                                ",
"                 ..                                             ",
"                 ...                                            ",
"                 ...                                            ",
"                 ....                                           ",
"                 ....                                           ",
"                 .....                                          ",
"                  ....                                          ",
"                  .....                                         ",
"                  .....                                         ",
"                   .....                                        ",
"                   ......                                       ",
"                    ......                                      ",
"                      ......                                    ",
"                       .......                                  ",
"                         .......                                ",
"                            ......                              ",
"                               .......       ...                ",
"                                  ...........                   ",
"                             ..............                     ",
"                        ................                        ",
"                    ...............                             ",
"              ................                                  ",
"         ................                                       ",
"   .................                                            ",
" ..............                                                 ",
"    .........                                                   ",
"         .......                                                ",
"              ....                                              ",
"                 ....                                           ",
"                   ....                                         ",
"                     ....                                       ",
"                      ....                                      ",
"                       ....                                     ",
"                        .....                                   ",
"                         .....                                  ",
"                          ....                                  ",
"                     XX    ....        XX                       ",
"                    XXX    .....        X                       ",
"                    XXXX    . .         X                       ",
"                    XoXX       XX    XXXX     X   XX  XX XXXX XX",
"                   XooXX     XX XX  XoooX   XX XXXooX  X  XX   X",
"                   XoooXX    X   X XXoooX   X   XXXXXX XX  X  X ",
"                   XXXXXX    X   X XXoooX   X   X      XX XXXX  ",
"                  X     XX   X   X XXoooX   X   X       XX XXX  ",
"                  X     XX   X   X  XooXX   X   X   XX  XX  XX  ",
"                 XX    XXXX XXX XXX  XXXX  XXX   XXX     X  X   ",
"                                                                ",
"                              .....                             ",
"                              .....                             ",
"                               ....                             ",
"                               .....                            ",
"                               .....                            ",
"                                ....                            ",
"                                .....                           ",
"                                .....                           ",
"                                 ....                           ",
"                                 ....                           ",
"                                 .....     .                    ",
"                                 .....    .                     ",
"                                  ....   ..                     ",
"                                  ..... ..                      ",
"                                   ......                       ",
"                                    ....                        "};
