/* XPM */
static char * Ant_xpm[] = {
"48 48 60 1",
" 	c None",
".	c #492449244924",
"X	c #618561856185",
"o	c #9E799E799E79",
"O	c #208120812081",
"+	c #514455555144",
"@	c #410341034103",
"#	c #965896589658",
"$	c #082008200820",
"%	c #8E388A288E38",
"&	c #69A669A669A6",
"*	c #71C675D671C6",
"=	c #861782078617",
"-	c #28A228A228A2",
";	c #104014511040",
":	c #10400C300000",
">	c #410324921040",
",	c #082004100000",
"<	c #000000000000",
"1	c #71C63CF32081",
"2	c #8E38492428A2",
"3	c #208114511040",
"4	c #30C234D330C2",
"5	c #208110400820",
"6	c #492424921040",
"7	c #51442CB21861",
"8	c #38E320811040",
"9	c #104008200000",
"0	c #208114510820",
"q	c #28A214510820",
"w	c #79E741032081",
"e	c #596530C21861",
"r	c #10400C300820",
"t	c #618534D32081",
"y	c #30C218611040",
"u	c #28A218610820",
"i	c #79E7451428A2",
"p	c #9658514430C2",
"a	c #18610C300820",
"s	c #186110400820",
"d	c #30C21C711040",
"f	c #49242CB21861",
"g	c #104010400820",
"h	c #59652CB21861",
"j	c #492428A21861",
"k	c #618538E32081",
"l	c #30C21C710820",
"z	c #69A634D32081",
"x	c #20811C711861",
"c	c #30C224921861",
"v	c #30C22CB228A2",
"b	c #186110401040",
"n	c #410328A21861",
"m	c #8617451428A2",
"M	c #38E31C711040",
"N	c #61855D755965",
"B	c #69A638E32081",
"V	c #410320811040",
"C	c #51443CF330C2",
"Z	c #514430C22081",
"                                 .              ",
"                                X.              ",
"                               oOo              ",
"                               +@               ",
"                          #    $%               ",
"                         %+    O                ",
"                         &*   =O                ",
"                         O*   =-                ",
"                        o;    =O                ",
"                        &@    =-=X+=            ",
"                        O.    X:>,--#           ",
"                       #<#   *<12>3* =          ",
"                      &4-    ;56789<&$#         ",
"                   o+$-=    *0q<6,w,$;=       o#",
"                  %;4*      +8wq,ee<<<%      *;%",
"                  %<O.#o   #Xr8>tw<<<;   o#.;+# ",
"               %4% #+;<O% .9y<<u>,08<<<<<$-4#   ",
"              X;*$%   &O<@5ipa<<<sd:O%          ",
"             +$% +$*    *;fp8<,$$<<Xo           ",
"            @$%  o$;o  X4gh5<<7$#*       %++-#  ",
"          #.$%    oO. ;5jk9<<ld$     #X-;;.##   ",
"     #*.-<;;%      o;.<2zu<<5y<*     ;;+#       ",
"    .O.X=#      =%=&X+6ia<,j4$;4#   +-          ",
"             *@;<<$O+*x0<97yX=4<$#o=<=          ",
"           +;O4+&+O9<<<<ae0<=  @<-.$O           ",
"          *$o  %c8etd<<<vb<+    &<<$o           ",
"         %$*  &nt2pe<<<$X@&      &;+            ",
"        o$-  =07t2e<<5aOOX<@      %+            ",
"       oO$o  xt2qae,,79O<#X<+                   ",
"       @<=  &>mtd<Mtjq<@<  4<*                  ",
"     o&<+   NB7B<<<se<$+<  o$;%                 ",
"    +;4=    :waa1,9jV5+X$   =<Oo                ",
" #@$.#     o9e9<d5j5,C --    @4                 ",
"-<+#        <7<,ue5<$% <&   &$o                 ",
"o           -5<8q:Z+o  $   &;#                  ",
"            o4$--&o   +@  &$%                   ",
"                    o4$*  <#                    ",
"                   =;O%  %<                     ",
"                 o.<4o   =4                     ",
"                o$<&     ++                     ",
"                XO%      -X                     ",
"                ;o       O#                     ",
"               X@        $                      ",
"               ;=        &                      ",
"              &-                                ",
"              -=                                ",
"             %;                                 ",
"             %+                                 "};
