/* XPM */
static char * athena-menu_xpm[] = {
"25 135 4 1",
" 	c None s None",
"o	c #FFFFFFFFFFFF",
".	c #000000000000",
"X	c #99999D9DAFAF",
"                         ",
"                         ",
"                         ",
"                         ",
"                         ",
"                         ",
"                         ",
"                         ",
"                         ",
"                         ",
"                         ",
"                         ",
"                         ",
"                         ",
"                         ",
"                         ",
"                         ",
"                         ",
"                         ",
"                         ",
"                         ",
"                         ",
"                         ",
"                         ",
"                         ",
"                         ",
"                         ",
"      X     XX           ",
"     ..XX   ..XX         ",
"     ...X ......X        ",
"     ...X .......XX      ",
"     ...X...   ...X      ",
"     ...X...    ..X      ",
"      .....X     .X      ",
"         ..    ...       ",
"               ..        ",
"       XXXX              ",
"      ......X            ",
"      ........X          ",
"     ..   .....X         ",
"     .X     ....X        ",
"     ..XXXXX. ...        ",
"     ........  ..X       ",
"      ......    ..X      ",
"       ....      .X      ",
"     ...         .       ",
"     ....X               ",
"     ..  .X              ",
"                         ",
"                         ",
"                         ",
"                         ",
"                         ",
"                         ",
"                .XX      ",
"          ...XXX .X      ",
"           ....X..X      ",
"          ........       ",
"          .   .. X       ",
"          ..X   .X       ",
"          ...XXX.X       ",
"           ......X       ",
"           .....         ",
"             ...         ",
"          XXX  .XX       ",
"          ...X  .X       ",
"         ........X       ",
"         ........        ",
"         .    ..         ",
"          .XX            ",
"         ....XXXXX       ",
"         ........X       ",
"         ........X       ",
"         .    ...        ",
"                         ",
"          ..X .X         ",
"         .... ..XX       ",
"         ....X ..X       ",
"         .X ..  .X       ",
"         ..XX.X..X       ",
"          .......X       ",
"          .......        ",
"            ....         ",
"          XXX  .XX       ",
"          ...XXX.X       ",
"         ........X       ",
"         ........X       ",
"     XX  ..   ..         ",
"    ...XXX.              ",
"    ........XXXXXX       ",
"    .............X       ",
"    .   .........X       ",
"             ....        ",
"         XX              ",
"         .X    XX        ",
"       XX.XX   .X        ",
"       .....XX  .X       ",
"       ..........X       ",
"        .........        ",
"         .   ... X       ",
"                .X       ",
"              ...X       ",
"          .......X       ",
"       ..........X       ",
"    ..........  .        ",
"    .....   .X           ",
"     ...XX  .X           ",
"       ...XX.X           ",
"         ....X  XX       ",
"          ....XX.X       ",
"            .....X       ",
"              ...X       ",
"               ..X       ",
"                .        ",
"                         ",
"                         ",
"                         ",
"                         ",
"                         ",
"                         ",
"                         ",
"                         ",
"                         ",
"                         ",
"                         ",
"                         ",
"                         ",
"                         ",
"                         ",
"                         ",
"                         ",
"                         ",
"                         ",
"                         ",
"                         "};
