/* XPM */
static char * DBKit_xpm[] = {
"48 48 5 1",
" 	c #FFFFFFFFFFFF",
".	c #000000000000",
"X	c #514455555144",
"o	c #AEBAAAAAAEBA",
"n      c None",
"                                                ",
" .............................................. ",
" .  X......................................  X. ",
" . o....................................... o.. ",
" .X........................................X...X",
" ..............................................X",
" .oooooooooooooooooooooooooooooooooooooooooooo.X",
" .oooooooooooooooooooooooooooooooooooooooooooo.X",
" .oo.......................................Xoo.X",
" .oo.Xo.ooooo         o           o       o oo.X",
" .oo.oXXoXXXX XXXXXXXX. XXXXXXXXXX. XXXXXX. oo.X",
" .oo.Xo.oXXXX XXXXXXXX. XXXXXXXXXX. XXXXXX. oo.X",
" .oo.oXXoXXXXo.........o...........o....... oo.X",
" .oo.Xo.ooooooooooooooooooooooooooooooooooo oo.X",
" .oo.oXXoXXXXoooooooooooooooooooooooooooooo oo.X",
" .oo.Xo.oXXXXooXoXoXoooooXoXoXoXoooooXoXooo oo.X",
" .oo.oXXoXXXXooXoXoXoooooXoXoXoXoooooXoXooo oo.X",
" .oo.Xo.ooooooooooooooooooooooooooooooooooo oo.X",
" .oo.oXXoXXXXoooooooooooooooooooooooooooooo oo.X",
" .oo.XX.oXXXXooXoXoXoXoooXoXoXoooooooXoXooo oo.X",
" .oo.  XoXXXXooXoXoXoXoooXoXoXoooooooXoXooo oo.X",
" .oo. o.ooooooooooooooooooooooooooooooooooo oo.X",
" .oo.X..oXXXXoooooooooooooooooooooooooooooo oo.X",
" .oo.  XoXXXXooXoXoXoooooXoXoXoXoooooXoXooo oo.X",
" .oo. o.oXXXXooXoXoXoooooXoXoXoXoooooXoXooo oo.X",
" .oo.X..ooooooooooooooooooooooooooooooooooo oo.X",
" .ooX                                       oo.X",
" .oooooooooooooooooooooooooooooooooooooooooooo.X",
" .oooooooooooooooooooooooooooooooooooooooooooo.X",
" .oooooooooooooooooooooooooooooooooooooooooooo.X",
" .ooooooooooooooooooooooooooooXXXXXXXXXXXXXooo.X",
" .oo  XoXoXoXoXooooooXoXoXoXooX            ooo.X",
" .oo o.oXoXoXoXooooooXoXoXoXooX            ooo.X",
" .ooX..ooooooooooooooooooooooooooooooooooooooo.X",
" .ooooooooooooooooooooooooooooXXXXXXXXXXXXXooo.X",
" .oo  XoXoXoXooooooooooXoXoXooX            ooo.X",
" .oo o.oXoXoXooooooooooXoXoXooX            ooo.X",
" .ooX..ooooooooooooooooooooooooooooooooooooooo.X",
" .oooooooooooooooooooooooooooooooooooooooooooo.X",
" .oooooooooooooooooooooooooooooooooooooooooooo.X",
" .ooooooooooooo        Xo        Xo        Xoo.X",
" .ooooooooooooo ooooooo.o ooooooo.o ooooooo.oo.X",
" .ooooooooooooo ooooooo.o ooooooo.o ooooooo.oo.X",
" .oooooooooooooX........oX........oX........oo.X",
" .oooooooooooooooooooooooooooooooooooooooooooo.X",
" .oooooooooooooooooooooooooooooooooooooooooooo.X",
" ..............................................X",
"     XXXXXXXXXXXXXXXXXXXXXXXXXXXXXXXXXXXXXXXXXXX"};
