/* XPM */
static char * Cola_xpm[] = {
"48 48 108 2",
"  	c None",
". 	c #BEFBAEBABEFB",
"X 	c #514451445144",
"o 	c #410330C24103",
"O 	c #30C230C230C2",
"+ 	c #2081208130C2",
"@ 	c #208130C230C2",
"# 	c #208130C22081",
"$ 	c #104010401040",
"% 	c #000000001040",
"& 	c #71C6820771C6",
"* 	c #AEBAA289AEBA",
"= 	c #861782078617",
"- 	c #514461855144",
"; 	c #410341034103",
": 	c #30C2208130C2",
"> 	c #410351444103",
", 	c #104000000000",
"< 	c #000000000000",
"1 	c #30C230C22081",
"2 	c #208120812081",
"3 	c #104020811040",
"4 	c #104000001040",
"5 	c #861782079658",
"6 	c #965892489658",
"7 	c #9E79A2899E79",
"8 	c #AEBAAEBABEFB",
"9 	c #410341035144",
"0 	c #9658A2899658",
"q 	c #CF3CCF3CCF3C",
"w 	c #CF3CDF7DDF7D",
"e 	c #BEFBBEFBBEFB",
"r 	c #BEFBCF3CCF3C",
"t 	c #AEBABEFBAEBA",
"y 	c #9E7992489E79",
"u 	c #DF7DDF7DCF3C",
"i 	c #DF7DCF3CDF7D",
"p 	c #CF3CCF3CBEFB",
"a 	c #BEFBBEFBAEBA",
"s 	c #71C671C671C6",
"d 	c #DF7DCF3CCF3C",
"f 	c #BEFBCF3CBEFB",
"g 	c #8617820771C6",
"h 	c #9E79A289AEBA",
"j 	c #CF3CBEFBCF3C",
"k 	c #CF3CCF3CDF7D",
"l 	c #6185618571C6",
"z 	c #DF7DEFBEEFBE",
"x 	c #CF3CDF7DCF3C",
"c 	c #DF7DDF7DDF7D",
"v 	c #618561856185",
"b 	c #410300000000",
"n 	c #514400000000",
"m 	c #965892488617",
"M 	c #EFBEEFBEEFBE",
"N 	c #618571C66185",
"B 	c #618500000000",
"V 	c #9E79AEBA9E79",
"C 	c #965892489E79",
"Z 	c #861792488617",
"A 	c #861700000000",
"S 	c #AEBA10400000",
"D 	c #AEBA30C20000",
"F 	c #BEFB30C20000",
"G 	c #71C600000000",
"H 	c #AEBA20810000",
"J 	c #BEFB10400000",
"K 	c #9E7900000000",
"L 	c #CF3C51440000",
"P 	c #BEFB20810000",
"I 	c #9E7910400000",
"U 	c #861771C68617",
"Y 	c #AEBA00000000",
"T 	c #965800000000",
"R 	c #CF3C41030000",
"E 	c #AEBAAEBAAEBA",
"W 	c #DF7DEFBEDF7D",
"Q 	c #CF3C30C20000",
"! 	c #71C6618571C6",
"~ 	c #DF7D41030000",
"^ 	c #71C671C68617",
"/ 	c #EFBE820730C2",
"( 	c #9E79AEBAAEBA",
") 	c #618571C671C6",
"_ 	c #861792489658",
"` 	c #965882079658",
"' 	c #9E79A2899658",
"] 	c #EFBE61852081",
"[ 	c #BEFB41030000",
"{ 	c #9658A2899E79",
"} 	c #EFBE71C64103",
"| 	c #EFBE82074103",
" .	c #DF7D30C20000",
"..	c #DF7D61851040",
"X.	c #AEBAAEBA9E79",
"o.	c #DF7D51440000",
"O.	c #9E7920810000",
"+.	c #AEBAA2899E79",
"@.	c #CF3C20810000",
"#.	c #DF7D51441040",
"$.	c #EFBE71C62081",
"%.	c #BEFBAEBAAEBA",
"&.	c #9E7992489658",
"*.	c #EFBE51442081",
"=.	c #71C682078617",
"-.	c #861771C671C6",
";.	c #000010400000",
":.	c #000010401040",
"                                                                                                ",
"                              . X o O + @ + # $ # % &                                           ",
"                        * = = - ; O : > , < , 1 o 2 $ 3 4 $                                     ",
"                      5 6 7 - 8 6 9 0 q w e r 7 0 6 0 ; @ 2 3                                   ",
"                      t . t y u i p . a * 7 . s d f * p y g $                                   ",
"                      2 O h f j q q e k > l r e z i q . x c v                                   ",
"                      b n m e O M M j p q q e p d c * N o b B                                   ",
"                    b n b n b B B n # = V C Z 9 b n b n A S D F                                 ",
"                    n n n b n B G b n n n b n n G b B n A H J m                                 ",
"                    b n B n K n b n b B L A A P b n b S B K I F                                 ",
"                    U V Y b n B * K K F P H P K S b B A T S K H                                 ",
"                    b n b R G E b n b n Z n b B b n B n A K I H W                               ",
"                    Q S n B n V n Z A R ! 0 6 K ~ B B A A H n Q                                 ",
"                    A ^ b S I Y / 6 ( S ) Q R y _ K A K B n e *                                 ",
"                    y K K b S S ` 7 J 7 P ' ] R U K K I Y b E [                                 ",
"                    [ P H H I S Z s Z R t F 0 7 { K T S I A b e                                 ",
"                    n V S I J E E I * ' S I Q ' } K Y I K I j m                                 ",
"                    I A H H D y I K H H V E c K 0 A K S K S | S                                 ",
"                    K H J H B 7 J S P F  ...6 X.y I S E Y S P o.                                ",
"                    I R I Q H E V K H F V Q ( H O.K I S O.s H P                                 ",
"                    G K Y S S 7 K I P H y 7 ~ H e I Y X.+.H J H                                 ",
"                    B K K H H h I Y H P [ 8 Z h 0 B H h 0 B H R                                 ",
"                    n I A S P H y S S D * 7 Q 0 @.S Y b } K S S                                 ",
"                    I A I H H H ( 7 H P 7 #.R . D K H K L = O.H                                 ",
"                    Y K S I J S J 0 y F P 7 Y H 7 & Q A G b S P                                 ",
"                    K B I S H S H P 0 C f ~ D P V S I S 6 K I F                                 ",
"                    G S J H S F J R K t ` = 6 0 ` S K 0 Y 7 P R                                 ",
"                    B I H F D P I P Z P [ * _ C H K I K ( S H P                                 ",
"                    Y I S H Q S P F * H ] H P S J K Y A n b J F                                 ",
"                    b K I S F S H n $.6 B C H H { S I K T S H F                                 ",
"                    S K K S S I Y S y S ` 6 * B P I Y A 6 K J H                                 ",
"                    A B H A O.S I K ) 6 H E H * 0 S I K I C D I                                 ",
"                    Y K S K S S S b y K ` Z %.= 6 A &.I Y H K P                                 ",
"                    K K K K H S I K A K A ] S ` A K I S K ` H P                                 ",
"                    T A T S Y I A K ` b Y I S 6 Y A * = &.I Y H                                 ",
"                    T B I K I K K B T 5 _ ` 0 n B B T K K H O.P                                 ",
"                    Y B Y A Y m ` b y n n Z Y A n A T K K A S R                                 ",
"                    B n B A K 7 A B I C B K K A Z K A K H H H P                                 ",
"                    B A A K A A ` A *.Z K b K A T A A A K S J F                                 ",
"                    I A A A K A _ 6 G n =.s Z B B K G B A I O.P                                 ",
"                    B n A A T A n & -.K K S Y K ] A A K A K J o.                                ",
"                    K B B K K B b A _ = | K I n & A A K T S D #.                                ",
"                    A B A K Y A T A K 6 U s s s Y A K K Y S P R                                 ",
"                      A K K G K K A G K I n b K K K B K I K H c                                 ",
"                      c G B G A A K Y K Y I Y A T B K A Y I                                     ",
"                          + B G B A A A A A I B T A K K >                                       ",
"                                n B A A G B A B T b 6 <                                         ",
"                                  < ;.% :.4 ;.% ;.                                              "};
