/* XPM */
static char * ColorPalette_xpm[] = {
"48 48 64 1",
" 	c None",
".	c #71C6F3CE8E38",
"X	c #8E38F3CE9658",
"o	c #A699F3CE9658",
"O	c #CF3CF3CE9E79",
"+	c #EFBEF3CE8E38",
"@	c #F7DEDB6C8E38",
"#	c #F7DED34C71C6",
"$	c #AEBAF3CEA699",
"%	c #DF7DF3CEA699",
"&	c #F7DEDB6C9E79",
"*	c #CF3CF3CEBEFB",
"=	c #F7DEDB6CAEBA",
"-	c #8E38F3CEB6DA",
";	c #B6DAF3CEBEFB",
":	c #EFBEF3CEB6DA",
">	c #9658F3CEBEFB",
",	c #F7DEBAEA9658",
"<	c #F7DED34CBEFB",
"1	c #CF3CF3CECF3C",
"2	c #9658F3CECF3C",
"3	c #EFBEF3CEC71B",
"4	c #F7DEBAEAAEBA",
"5	c #F7DEE38DCF3C",
"6	c #AEBAF3CED75C",
"7	c #DF7DF3CED75C",
"8	c #F7DEF3CEDF7D",
"9	c #F7DEBAEABEFB",
"0	c #8E38EBADEFBE",
"q	c #A699F3CEEFBE",
"w	c #BEFBF3CEE79D",
"e	c #DF7DF3CEE79D",
"r	c #F7DECB2BD75C",
"t	c #F7DEDB6CE79D",
"y	c #F7DE9A69A699",
"u	c #BEFBEBADF7DE",
"i	c #CF3CF3CEF7DE",
"p	c #EFBEEBADF7DE",
"a	c #000000000000",
"s	c #AEBADB6CF7DE",
"d	c #BEFBD34CF7DE",
"f	c #D75CDB6CF7DE",
"g	c #F7DEBAEAE79D",
"h	c #F7DEAAAAD75C",
"j	c #F7DE9A69CF3C",
"k	c #EFBED34CF7DE",
"l	c #9658D34CF7DE",
"z	c #F7DEBAEAF7DE",
"x	c #F7DE8207CF3C",
"c	c #DF7DC30BF7DE",
"v	c #8E38BAEAF7DE",
"b	c #A699B2CAF7DE",
"n	c #BEFBBAEAF7DE",
"m	c #F7DEA289E79D",
"M	c #DF7DB2CAF7DE",
"N	c #8617AAAAF7DE",
"B	c #EFBEA289F7DE",
"V	c #EFBE9248EFBE",
"C	c #B6DA9A69F7DE",
"Z	c #79E7A289F7DE",
"A	c #96588A28F7DE",
"S	c #E79D9A69F7DE",
"D	c #EFBE8207EFBE",
"F	c #71C68A28F7DE",
"                                                ",
"..........X.XXoXooooooOOOOOOOO+O++++++++@+@@@###",
"...X.X.....X.XXoX$o$o$oOOOOOOOO%O%+++++++&+@@###",
"X.X.X.o.XXXXXXoooo$oOoOOOOOO%O%+%+%+++++&@&@####",
".X.XXXXoXoXoX$X$$$$$$O$%O*O*O%O%%%%%+%+=+&@&@@##",
"X.XXX.o.oXoX$X$o$o$$O$OOOOOOOO%%%+%+%+&&&@@@@###",
".-X-X-Xoooo$o$$$$$$;$%O%O*O*O:%%%%%%+%+=&&&&@@##",
"-X-X-o-o$o>o$$$$$$%$%O%O*O*O:%:%%%%%=%=&&&@&@#,#",
"--------->->>>$>$;;%%%%******:::::%:%<%==&&&@@#,",
"------>->>>>;>;>;$%%%%**1*:*:::::%<%<%==&&@@@@,,",
"->->->-2-2>2>;>;;;;*%*%1*113*3:3:3:<%<%<=&&&@4@,",
">->->-2->>2>;;;;;;%%*%1*3*3:3:::::<%<=<=&@&@,@,,",
">>>>>2>222222;;;;*;**1*1131333:3:3:5<<===&&&@4,,",
">>>>>>2222;;;;*;*;**1*113133333:3:5<<<=&=&4&4,,,",
">2>2>6>62626;6;1;1***717173738333535<5<=&=&4&4,,",
"2>6>62626;6;1;1;1*7*717173738383535<=<===&4&4,,,",
"222226666666616111*11717777778353555<5<===&9&4,,",
"226266666666161111777177778783535555<<==9&444,,,",
"202q2q6w6w6w6w1w1w177e7e7e78788535555<<<=9494,4,",
"02q6q6w6w6w6w1e1e7e7e7e78788885555r5<<<=9494,,,,",
"000q0qqwwwwwwwwwweeeeeeee8e88t8t555r<<<<=9444,,y",
"00qqqqwwwwwwwweweeeeeeee8888t8t555r<<<<9994,4,yy",
"000q0qquwuwiwiwiwieeepeeepe88t855r5r<r<<9494,4,y",
"00qqqquwuwiwiwiwiepepeaaaaa8ttt5r5r<<<<9444,y,yy",
"0q0qqqquuiuiiiiiiiipppappaap8t5t5rrr<r<<9444,yyy",
"00sqsqduduuiuififippppappaa8pttrtrr<r<9994y4yyyy",
"000s0sqduduuuuififipipaaaaaptptt5trr<r<<99444yyy",
"00sqsqduduuuuififipippaaaaa8pttrtrr<r<<<94y4yyyy",
"000sqsqduduuiuiuiffpipppppppppttttrgrr<h<94j4yyy",
"00ssssdddduduufuffffpfkpppkpkttttrgrrrh994j4jyyy",
"000s0ssdsdddduuuuffffffppkpppktttgtgrgrh9h9j4jyy",
"lll0llsssssddddufdffkfkkkkkkkkktgtgrhrh9h9j9jyyy",
"0lll0lllsslssdsddddffffkkkkkkkkztzggrgrhhh9hjjyx",
"llllllllssssdsddddcfcfcfkkkkkkzgzggggrhhh9jjjyyy",
"lllllllllslssssdsddcdcfkfkkkkzkztzggrgrhhh9hjjyx",
"vlvlblblnsnsdndsddddcccfckckzzzgzgggghghhjhjxjxy",
"lvvvlbvblnbnnnnnndnddcdcfccckzczzzgzgggmhhhhjjxx",
"vvvvvvbbbbbbbnbnnnndMdMcccMcMczzzgzgmgmhmhjhjxxx",
"vvvvvvvbbbbnbnnnnbnddddcccccccczczzzgggmhmhhjjxx",
"vvvvvvbvbbbbbbbbbbndMdMcMcMcMczzzzzgmgmhmhjhjxxx",
"vNvvvvvvvbvbbbbbbbbndndMcMcMcMMzMzzBgBgmmVhVhjxx",
"NNNNvvNvCvCbCbCCCbCnnnMnMMMMMMBMBMBBBmmmVhjjjxxx",
"NZNvNNNNvNvCvCbCbCbCbCnMnMMMMBMBMBMBmBmmmVjVjxjx",
"ZZZZNZNNNNCNACCCCCCbCCCnSMSMBBBBBBBBSmSmVVDjxxxx",
"NZNZNNZNNNNNNCCCCCCCbCnCnSnSMBMBMBBBBBmSmVjVjxxx",
"ZZFZZZAZANANANACACCCCCCCSCSSSSBBBBSBSBSVVVDjDxxx",
"ZFZZZFZAZAZAAANACACCCCCCCSCSSSSBSVBSBSSSVDVDjDxx",
"FFFFFFFFAFAFAAAAAACCCCCCDCDSDSVBVVVVSSDVDDDDDxxx"};
