/* XPM */
static char * ColorGNU_xpm[] = {
"48 48 25 1",
" 	c None",
".	c #965871C65144",
"X	c #DF7DAEBA8617",
"o	c #965861855144",
"O	c #5144410330C2",
"+	c #000000000000",
"@	c #861771C65144",
"#	c #EFBEEFBEEFBE",
"$	c #9E79A2899E79",
"%	c #618561854103",
"&	c #9E79A2898617",
"*	c #AEBAA2898617",
"=	c #9E79A28971C6",
"-	c #861771C64103",
";	c #9E79AEBA8617",
":	c #9E79AEBA71C6",
">	c #DF7DBEFB71C6",
",	c #71C661855144",
"<	c #DF7DBEFB8617",
"1	c #DF7DAEBA71C6",
"2	c #4103410330C2",
"3	c #618571C64103",
"4	c #514441032081",
"5	c #514430C230C2",
"6	c #410341032081",
"                                      .Xo..OO+OO",
"    O                           O   . ..@O.O+OO.",
"   +#             ++#####$##O%   O ....@oOO+OOoO",
"   O#            O###OO$#+###++O$$O+++@OO&OOOOO.",
"  +#O         O+$###*O+OOO####*#++OOOO++*=+OOOo-",
"  %#O         ###+##;*+.@#O#O####$O+OO+&;*+OO.O.",
"  O#$        +####*=*OO@o@#O$##=*+OOOO+=*=++OOo@",
"  ;O#O       ##O#&;#+.@X@.OO%O##:#+OOO#&:&+OO.@.",
"  *O#+      +$###=*:O.o>X.oO,###*O+++O#:*O+OOOo-",
"  :&#+     +#####O:##.<X<X@.OO##;#++O#:&;+XOOOO.",
"  *##$    +#####*=*+o@X1X@oOO$###O+O$#*=*+XOOOoO",
"  ;&##    ###$#&:&++@X<X<X@.O+###&#+%#;O:+OOOOO.",
"  *:##$  +####*:*++Oo1X>X.o+++*:##*%,=*:*++OO.O-",
"  %&###$+###;*:&;O+.@X<X<OO++++&;##O;*%&O.O+O+O.",
"   =*######=*=*%O%+@o1X1oX++++++*=*=*=*%+@O+++O@",
"   &:#####;&:&+++++X<X<.@+++2+O++&;&:O3O%++X+OO.",
"   :*=*#*=*:,+.++4+4X1X>5++45+O-o+#%,%+++OO+O++-",
"   &#*:&;*:&O +.+O2O2.@O2+2O+O+O@+$O+++++++.+++.",
"    O=O=O=OO  $+.65456545654+++++@+%+O+OOXo@+OO@",
"     O3O%O     +.O+++O2O+++O+#O++.OXO.OX@+++++O.",
"               4++5454++O+O-o#oO++++++++++++++o-",
"               O+.@.+++++O+O+.+++++++++++++++OO.",
"               4++o@+++456o+oOo++6++++++++++oOO@",
"              ++O.<.O++O@.@.@.+O+O+++O+O+O2O2.@.",
"               4o.X>o+5-o1X>o.O+54++++O+5454oOo-",
"               O@.<X@O2.<X<.@.O++++++O+O2O2.O.@.",
"               45@X1o6o@X1X@O+++O+++O+5456oOo@o@",
"               O2.<X@+@X<X@O+++O+++O+O2O2O2.@.@X",
"               .5.X>XOo>X1o-+O.+++++O+5454o-o.X-",
"              ..2.@X<O@X<X@O++.O+++O+O2.2.O.@X@X",
"              ..56o1XOo1X@O+++  O+O+565456o@X@X1",
"               .2O@X<.@X<.O+++   ++O+O2.2.@.@X<X",
"              .-54o-o+o-oO+++O   +++5454oOo-X.X>",
"              <O2O2.@+2.@O+++    $+++O2.O.@.@X<X",
"              +45@o456545++++     ++5654oOo@X@X1",
"              <+++2O+O2O+.@O+     +O+O2O2.@X@X<X",
"              <++X54+454X+o+5     $+++54oOo-X.X>",
"              @.+O2O2O2OX+@++      $+O+O@.@.@X<X",
"              +OX6o@o@5XX+oO+       O+5456o@X@X1",
"              O++O@.OO+O+O2++        ++O2.@.@X@X",
"                O++++++$+4++         +++54o-o.X>",
"                  O$XXXXXX+           ++2.O.@.@X",
"                  $O+$+@oO+           ++56oOo@X@",
"                   O++OO++            ++2O2.@.@X",
"                    o.+OO$            O+545-o.o-",
"                       +               ++O2O2.@.",
"                       $               ++654oOo@",
"                                       +++2O2.@X"};
