/* XPM */
static char * FilecabinetFolder_xpm[] = {
"48 48 64 1",
" 	c None",
".	c #104010401040",
"X	c #208118611040",
"o	c #208110402081",
"O	c #208120812081",
"+	c #30C210402081",
"@	c #30C224922081",
"#	c #30C228A228A2",
"$	c #30C234D330C2",
"%	c #514451445144",
"&	c #208100001040",
"*	c #410351445144",
"=	c #71C686178617",
"-	c #9E79A289B6DA",
";	c #AEBAB6DAB6DA",
":	c #9E79AAAABEFB",
">	c #8E38AAAAAEBA",
",	c #410345144924",
"<	c #9E799A69AEBA",
"1	c #596571C671C6",
"2	c #8E389A69AEBA",
"3	c #104008200000",
"4	c #96588E388617",
"5	c #6185618571C6",
"6	c #514469A66185",
"7	c #618559656185",
"8	c #514461856185",
"9	c #410351446185",
"0	c #514451446185",
"q	c #208110400000",
"w	c #D75CBEFBAEBA",
"e	c #EFBEEBADCF3C",
"r	c #8E3861855144",
"t	c #69A649244103",
"y	c #000000000000",
"u	c #BEFBA6999E79",
"i	c #9E7961855144",
"p	c #8E3861856185",
"a	c #9E7961856185",
"s	c #410361855144",
"d	c #8E3871C65144",
"f	c #FFFFFBEEDF7D",
"g	c #9E7971C65144",
"h	c #FFFFFBEEEFBE",
"j	c #9E797DF76185",
"k	c #AEBA61856185",
"l	c #514461855144",
"z	c #AEBA71C66185",
"x	c #410361856185",
"c	c #AEBA8A2871C6",
"v	c #B6DA8A288617",
"b	c #AEBA79E769A6",
"n	c #B6DA9A698617",
"m	c #71C651444103",
"M	c #79E749244924",
"N	c #8E3851445144",
"B	c #71C661854924",
"V	c #965859654924",
"C	c #618541034103",
"Z	c #30C220811040",
"A	c #EFBEDB6CCF3C",
"S	c #AEBA71C65144",
"D	c #082000001040",
"F	c #F7DEEBADEFBE",
"                                                ",
".X.oXo.XoXoO+O@O#@@$#@%                         ",
"&*=-;-;:-:;:-:-:>:>-==OO%                       ",
".,$%=:;-;-:-<---<-<-<-=1oO%                     ",
"&,,,#*;:-:-:-:>:>->-><><==.O%                   ",
".**,*%$=:-<---<-<-<-<><2<==1&X%                 ",
"&,,*,*,&.X.X.oXoXoOOOOO@@#@$$$3                 ",
".******X<><><><><><><><><><><>&                 ",
"X*%*,*%X45151515651565656575853                 ",
"X%*9*0*q21111weeeeeert56565656y                 ",
"X*,*%*%&<1515eurirpra@85758575y                 ",
".9*0*0sX41111eririiaiy56565656y                 ",
"o*%*%%0X2weeewrdaradaty@eeeeeeeeeeeeeeeeeee     ",
"X0*0s0sX=fudaraaiaiagagagagagagagagagagagagy    ",
"o*%%0*0o<huaiaidajajajajajajajajajajajajajay    ",
"X0s0s0sX4hudajaagagkjkjkjkjkjkjkjkjkjkjkjkjy    ",
"o%0l0%0o2huagagjjjjjzjjjzjzjjjzjzjzjzjzjzjjy    ",
"O0s0x0sX=fujjjjkjkjzjzjzghcvcvcvcvcvcvcvcvcvcvca",
"o*0%0l0o<hukjkjj4jbjbjbjhnvtmtMmMmMmNmNBNBNrNBNr",
"O0x0s08X4huj4jbzwwhhfhhhncmtmMmNmNmNmNMNVNVNVVrC",
"+l0l0l0o2hnzjzjjhutmtmtmMmMmMmNmNBNBNrNrNrirariZ",
"O080888X=fnjbjbwhcmMmMmMmNmNMNmNMNVNrNrVrVrViiiy",
"@l080l7o<hnbbbzwhmMmNmNmNmNBNBNrNrNrirariradaday",
"O088888XXhvjbcbhwNmNmNBNBNrNrNrrrrrirararagagagy",
"@80l787X%hcbbbuhvMNMNMNVVrVVVrVrViiiiiagkikgkgky",
"@888888XyfccccAhBNrNrNrNrirararaiagagagajkjkjzjy",
"#878087o%hbbbbfwNVVrVrVrVrViaiiiagkikgkgkgkzzzty",
"@888868Xyhbcv;hnrrrirararagagagagajzjzjzjzzzzz#$",
"@878787o%hjvcAfVrirViaiaiagkgkgkgkSkzzzzzzzzzzy ",
"#586858Xyf4nnf;zzzagazzzagazzzzjzjzzzzzzzzzzzty ",
"#878587o%hjnuhnzikzkgzgkzkSzSzzzzzzzzzzzzzzzz@$ ",
"$685856XyhanAhczajzgkzzjzzzzzzzzzzzzzzzzzzzzzy  ",
"#858775o%hrnfugzgkzkzzzzzzzzzzzzzzzzzzzzzzzzty  ",
"$%85656Xyfpwhnkzzjzzzzzzzzzzzzzzzzzzzzzzzzzz@$  ",
" y,7585o%hrAfkzzzzzzzzzzzzzzzzzzzzzzzzzzzzzzy   ",
"  y*651Oyhnf;zzzzzzzzzzzzzzzzzzzzzzzzzzzzzzty   ",
"   y,75O%huhnzzzzzzzzzzzzzzzzzzzzzzzzzzzzzz@$   ",
"    y%1XyuhtC$@X.yyyyyyyyyyyyyyyyyyyyyyyyyy#=   ",
"     y,o%5856X4787878%4<=<4<=<l0l0l03           ",
"      yO48775o288888888888088s080s0x&           ",
"       yD5656X=78787l780l0l0l0%0l0%03           ",
"        y7585o<8888808880808080s0x0s&           ",
"         y651O47808080F,l0l0u#*0%0*03           ",
"          y75O28880888uhFFFhFFDs0s0s&           ",
"           y1X=0l7l0l0l0y3y3y3X0%%%03           ",
"            yo<80888080s080s0s0*0s0*&           ",
"             y4080l0l0l0%0l0%0*0%0*%3           ",
"             XD3&3D3&3D3&3D3&3D3&3D3&           "};
