/* XPM */
static char * FilecabinetOpen_xpm[] = {
"48 48 65 1",
" 	c None",
".	c #186108200820",
"X	c #186108201040",
"o	c #186110401040",
"O	c #208110401861",
"+	c #208118611861",
"@	c #208118612081",
"#	c #208120812081",
"$	c #28A220812081",
"%	c #30C220812081",
"&	c #28A230C230C2",
"*	c #492451445144",
"=	c #71C679E78617",
"-	c #9E79AAAAB6DA",
";	c #9E79A289AEBA",
":	c #9658A289AEBA",
">	c #69A679E779E7",
",	c #410349245144",
"<	c #861792489E79",
"1	c #79E782078E38",
"2	c #9E79AAAAAEBA",
"3	c #9658A289A699",
"4	c #71C682078E38",
"5	c #69A671C679E7",
"6	c #208110401040",
"7	c #96589A69A699",
"8	c #28A2208128A2",
"9	c #28A228A228A2",
"0	c #186100000820",
"q	c #618571C679E7",
"w	c #618571C671C6",
"e	c #618569A671C6",
"r	c #618569A669A6",
"t	c #492451445965",
"y	c #69A671C671C6",
"u	c #596569A669A6",
"i	c #30C228A228A2",
"p	c #104008200820",
"a	c #FFFFF3CEF7DE",
"s	c #492459655965",
"d	c #5965618569A6",
"f	c #514459655965",
"g	c #514459656185",
"h	c #410349244924",
"j	c #AEBAA289A699",
"k	c #596561856185",
"l	c #514461856185",
"z	c #08200C301861",
"x	c #30C228A22081",
"c	c #000008201861",
"v	c #000000000000",
"b	c #082008200820",
"n	c #965879E769A6",
"m	c #F7DECB2BB6DA",
"M	c #F7DEC30BAEBA",
"N	c #AEBA9A699E79",
"B	c #492438E330C2",
"V	c #8E3871C669A6",
"C	c #79E765955144",
"Z	c #69A659654924",
"A	c #596549244103",
"S	c #5144410338E3",
"D	c #38E330C228A2",
"F	c #71C682078617",
"G	c #28A228A230C2",
"                                                ",
"                                                ",
"                                                ",
"        ..XXooOOO+++@#$$$$%&&&                  ",
"        .*=-----------;:::::=>##                ",
"        .,&*<--------;::::::::1>+#              ",
"        .,,,&*-------2:::::::::3456#            ",
"        .,****&=----;::::::::::37<45XX          ",
"        X******..XXoo6OOO+++@#$$$8$9&&0         ",
"        X******.77777777777777777777770         ",
"        X******.7qqwwwwweeeeeeeeeeeerr0         ",
"        o****tt.7ywwwwweweeeeeeeeeeruu0         ",
"        o***ttt.7wwwweeiiiiipii*erruuu0         ",
"        6*tttttX7wwweweiaaaaaaa7ruuuuu0         ",
"        OttttttX7weeeeeiaaaaaaa7uuuuuu0         ",
"        OtttttsX7eweeeeiaaaaaaa7uuudud0         ",
"        Otttssfo7eeeeee*77777777uuuudd0         ",
"        Otssfffo7eeeeeeeeeruuuuududddd0         ",
"        +sfffffo7eeeeeeerruuuuududdddd0         ",
"        +ffffff67eeeeeeruuuuududddddud0         ",
"        +fffffgO7eeeerruahduduj&*ddddd0         ",
"        +fffgggO7eeeruuujaaaaaaa0ddddd0         ",
"        @fgggggO7eeruuuuud000000+ddddk0         ",
"        @gggglgO7ruuuuuduudddddddddkkk0         ",
"        #gglgllO7uuuuududdddddddddkkkk0         ",
"        #lglllk+00000000000000000000000         ",
"        $lllkkk+00zz#xxxxcccccccccccccc         ",
"        $lkkkkk+0vbnmmmmmxxxxxMMMMMNccc         ",
"        $kkkkdd+0&mmmnxxxBmmmmxMMxxxxxc         ",
"        8kkdddd+0&xmxxVVCCZASBDxxmmmmmmc        ",
"        $dddddd@0FF&..XXoo6OOO+++@#$$$8$9&&0    ",
"        idddddd@00FF.77777777777777777777770    ",
"        idddddu#0w0F.7duuddddddddddkkkkllll0    ",
"        Gddduuu#0&w0.7uddddddddddkkkklllllg0    ",
"        &duuuuu$0&&w.7ddddddiiiiiiii*lllggg0    ",
"        &*uuuuu$0&&&X7ddddddiaaaaaaa7llgggg0    ",
"         0*uure$0&&&X7ddddddiaaaaaaa7gggggg0    ",
"          0*eee$00&&X7dddddkiaaaaaaa7gggggg0    ",
"           0*ee80-0&o7ddddkk*77777777gggggf0    ",
"            0*e$00-0o7ddkkkklllllgggggggfff0    ",
"             0*%0w0wo7dkkkkllllggggggggffff0    ",
"              0%0&w067kkklllllggggggggfffff0    ",
"               000&&O7kkllllgahggggj&*ffffs0    ",
"                  0&O7lllllggjaaaaaaavfffss0    ",
"                   0O7lllggggggvvvvvv+fssst0    ",
"                    O7llggggggggffffffssttt0    ",
"                    O7ggggggggffffffssstttt0    ",
"                    +00000000000000000000000    "};
