/* XPM */
static char * FilmNegative_xpm[] = {
"48 48 65 1",
" 	c None",
".	c #208120810000",
"X	c #000000000000",
"o	c #492449245144",
"O	c #208100000000",
"+	c #69A649240000",
"@	c #69A669A65144",
"#	c #B6DAB2CAAEBA",
"$	c #DF7D92480000",
"%	c #FFFFB2CA0000",
"&	c #B6DA92485144",
"*	c #FFFF69A60000",
"=	c #FFFF92480000",
"-	c #F7DEF3CEF7DE",
";	c #FFFFDB6C0000",
":	c #B6DA92480000",
">	c #A699A699A699",
",	c #A69959650000",
"<	c #492400000000",
"1	c #69A669A60000",
"2	c #965892480000",
"3	c #596592480000",
"4	c #208130C2AEBA",
"5	c #DF7DC71BFFFF",
"6	c #51448A28BEFB",
"7	c #9658B2CA5144",
"8	c #28A282070000",
"9	c #000020810000",
"0	c #DF7DDB6CAEBA",
"q	c #965892485144",
"w	c #FFFFDB6CAEBA",
"e	c #DF7DFBEEAEBA",
"r	c #492420810000",
"t	c #08202CB25144",
"y	c #FFFFFBEE5144",
"u	c #FFFFFBEE0000",
"i	c #DF7D69A60000",
"p	c #96589248AEBA",
"a	c #FFFFFBEEAEBA",
"s	c #DF7DFBEEFFFF",
"d	c #FFFFB2CA5144",
"f	c #EFBEA2895144",
"g	c #FFFFDB6C5144",
"h	c #596545145144",
"j	c #EFBE08200000",
"k	c #9E79DB6C69A6",
"l	c #DF7DA289D75C",
"z	c #FFFFB2CAAEBA",
"x	c #8E3810400000",
"c	c #EFBE49240000",
"v	c #965849240000",
"b	c #E79D75D65144",
"n	c #FFFFDB6CFFFF",
"m	c #492449240000",
"M	c #DF7DFBEE0000",
"N	c #9658B2CA0000",
"B	c #A69969A679E7",
"V	c #30C234D35144",
"C	c #C71BDB6C0000",
"Z	c #DF7DDB6C5144",
"A	c #965849245144",
"S	c #965869A65144",
"D	c #208149240000",
"F	c #DF7DB2CA0000",
"G	c #B6DA69A60000",
"                                                ",
" ..XX..XXX..XX...XXoooXXoO.XX+XOXXoXoXXoXoXXoX. ",
" @@X@#@@X@@@oX@@@.X@$%oX&%%+X%*=OX#@#XX#@#X.#@# ",
" --Xoo-#X@o-#X@o-@X@;%:X%*;OX$*%.X@@-XX@@-XX@@- ",
" --X@@--X@@-#X@#-#X@#>$X%;;,X$%@oX#--XX#--X.@-- ",
" @.X.X@XX.X@XX.X@XX..@XXXX<XXO.oXX..@XX..@XX..@ ",
" XXXXXXXXXXXXXXXXXXXXXXXXXXXXXXXXXXXXXXXXXXXoXX ",
" 11,1234--------------------------5XXXX#467XX5. ",
" 8132319--0---q@w--------e--------rXt9Xyu;;iXXp ",
" 9>X7.8X--a---0>--------------s---.X66tadfghXXX ",
" djkgtX9-------l0--------XXX-a--w-.X5-l-zdgxXXX ",
" cjvjbX.----------------XXXX-aaw0-.O-----nyhXXX ",
" jxjxjX9---a---a-------XXXXX-a#0w-.o-----zybXXX ",
" j<c<j9O-------msnMwe-XXXXXX---#0-.t-----wyrXrh ",
" XOxXO&9-------XXXXXXXXXXXXX0y-0--.X-----w;Op#X ",
" XX+XXk.-----mNXXXXXq..XXX#.XX--e-.X>ttadnaO.BV ",
" CX3q.>9--+X&OXXXXXOrxXXXXnXXXhal-.XtX4ab$g#th4 ",
" 0m+q+mO--1r---XXXXXXb-l--y--X--0-@XXXXg*i*XXXp ",
" 7XZX.mX-a---0-XXXX<OO>OAB---X--w-qXXXXd*i=tXXX ",
" 3XuX.8O-a-w---r>wZl>&ql7;Cm-p----mXXXXdic=-XXX ",
" 8XCVN.X-fww---mr.....OrXOxX------qXXXX$c,*XXXX ",
" OXX>N.Xw0wlaw----------%XXX75----kXXXXii,*XXXX ",
" X.X2XXX-Slfwaw----------OX-Sl&#lq@XXXXic,cXXXX ",
" XXXmXX4->7---0----------cX-#00---kXXXX,*=%+XXX ",
" XXXOXXX-a0--0w-----------h-00n---SXXXXhoXXXXXX ",
" XXXXODX-----f----------0@-0>la---0XXXXXXXXXXXX ",
" XX.XX+X0----0--------n5l.l0n0---->XXXXXXXXXXXX ",
" XXXXXXXXXXXXXXXXXXXXXXXXXXXXXXXXXXXXXXXXXXXXXX ",
" @@Xo@@@X@@@oX@@@oX@@@.X%%%XX:S@XX@@@XX@@@XX@@@ ",
" @#Xoo@@X@o@oX@o@.X@@f:X;%u.XF;@oX#o#XX@o#XX@o# ",
" --Xoo--X@o-#X@o-#X@g;$X;%;OXF=;oX@#-XX@#-XX@-- ",
" -#Xo@-#X@@-@X@#-@X@#foX>ggmXd;%XX@#-XX@--XX@-- ",
" XXXXXXXXXXXXXXXXXXXXXXXXXXXXXXXXXXXXXXXXXXXXXX ",
" @@@oo@@@oo@@@oo@@@oo@@@:GGGrrr+.XXro@@oo@@ooo@ ",
" @@@@@@@@@@@@@@@@@@@@@@g;;&;;;;;;;=%%;&#@#@@@@@ ",
"                       yg@ #$$F=F%%$2G;;gp#---- ",
"                        o  Z=%%%=%%%%$G,v1v1v+v ",
"                          #uu;@uF%F%F%%%F$::2:2 ",
"                          yuq@ y=F=F%F%F%%%%%;% ",
"                           >.  uuyuuF%F%F%F%F%F ",
"                              g;g##y=;%u%F%F%F% ",
"                              yy.  yug@uFuuu;%u ",
"                               #o  uu# #=y@qyug ",
"                                  >yg# #;g# yu@ ",
"                                    .  yu>  yu. ",
"                                        3.  Zg. ",
"                                             #@ ",
"                                                "};
