/* XPM */
static char * Image_xpm[] = {
"48 48 64 1",
" 	c None",
".	c #618561856185",
"X	c #000000000000",
"o	c #FFFFFBEEFFFF",
"O	c #30C230C230C2",
"+	c #000010409E79",
"@	c #000020819E79",
"#	c #00002081AEBA",
"$	c #00001040AEBA",
"%	c #000030C29E79",
"&	c #AEBAB2CADF7D",
"*	c #000030C2AEBA",
"=	c #AEBABAEAEFBE",
"-	c #000038E3B6DA",
";	c #00004103BEFB",
":	c #AEBACB2BE79D",
">	c #00005144BEFB",
",	c #00005144AEBA",
"<	c #00005144CF3C",
"1	c #00006185BEFB",
"2	c #00006185CF3C",
"3	c #000071C6CF3C",
"4	c #F7DEFBEEEFBE",
"5	c #F7DEEBADFFFF",
"6	c #00008617D75C",
"7	c #EFBEEBADEFBE",
"8	c #DF7DEBADEFBE",
"9	c #EFBEDB6CEFBE",
"0	c #DF7DDB6CDF7D",
"q	c #E79DCB2BEFBE",
"w	c #CF3CCB2BDF7D",
"e	c #CF3CBAEADF7D",
"r	c #DF7DBAEADF7D",
"t	c #49247DF7D75C",
"y	c #CF3CBAEACF3C",
"u	c #CF3CAAAAD75C",
"i	c #BEFBAAAACF3C",
"p	c #CF3C9A69D75C",
"a	c #CF3C8A28CF3C",
"s	c #BEFB9A69C71B",
"d	c #AEBA9A69BEFB",
"f	c #B6DA8A28C71B",
"g	c #BEFB71C6BEFB",
"h	c #9E798A28BEFB",
"j	c #AEBA71C6BEFB",
"k	c #AEBA6185BEFB",
"l	c #9E7971C6AEBA",
"z	c #9E796185AEBA",
"x	c #96585144AEBA",
"c	c #8E3851449E79",
"v	c #71C649249658",
"b	c #8E3841039E79",
"n	c #71C630C28E38",
"m	c #6185410371C6",
"M	c #5144410371C6",
"N	c #618530C271C6",
"B	c #514438E36185",
"V	c #492430C25144",
"C	c #410320815144",
"Z	c #38E320814103",
"A	c #30C2208130C2",
"S	c #30C210404103",
"D	c #000010400000",
"F	c #000000001040",
"                                                ",
"                                                ",
"  ......................XXXXXXXXXXXXXXXXXXXX    ",
"  .ooooooooooooooooooooooooooooooooooooooooO    ",
"  .ooooo+ooo+o@o+o@o+o@ooooooooooooooooooooXO   ",
"  .oooooooo@ooo@o@o@#@$@#@o@#@oooooooooooooXO.  ",
"  .ooo@o@o@o@o@#@o@#@o@ooooo@o@o@ooooooooooXO.  ",
"  .oooo%ooo%#%#%#%#%o%oooooo#ooooo#ooooooooXO.  ",
"  .o%o%o%o%&%#%o%o%o%o%o%#%o%ooooooo%ooooooXO.  ",
"  .oooo*************************oooooooooooXO.  ",
"  .o*o*=*&*=*&*******************o*ooo*ooooXO.  ",
"  .-o-=---;---;---;---;--:;---;---;-ooo-oooXO.  ",
"  .o-o-&-=-&-;-o-;-&-;-&-=oo-;-o-;-o-ooo-ooXO.  ",
"  .>o>=>;>;>;>o>;>;>;>;>=oooooooooo>;ooooooXO.  ",
"  .o,o>=,=>;,o>o,;>;,;>;,ooooo>ooooo,o>ooooXO.  ",
"  .oo>>><>>>ooo><>>><>>><:ooo>>ooooooo>><ooXO.  ",
"  .o>o1=>>1ooooo>>1=>>1=>>1=>>1ooooooooo>ooXO.  ",
"  .oooo121oooooo21:121<121<121oooooooooooooXO.  ",
"  .ooo121o1ooooo1=1:1=1:1=1:1ooooooooooooooXO.  ",
"  .oooo3232oooooo323:323232323oooooooooooooXO.  ",
"  .ooooo3o3ooooooo3:3:3:3:3:345454545454545XO.  ",
"  .ooooo63o3oooooo4363636363454545454545454XO.  ",
"  .oooo6oo3o3o3ooo7737373777777777777777777XO.  ",
"  .ooooooooooooooo8789878987898789878987898XO.  ",
"  .ooooo6oo6oooooo90q090q090q090q090q090q09XO.  ",
"  .oooooo6oooooooowq0qwq0qwq0qwq0qwq0qwq0qwXO.  ",
"  .ooooooo6o6ooo6o6erwrerwrerwrerwrerwrerwrXO.  ",
"  .oooooooooootoo6w6y6weyeweyeweyeweyeweyewXO.  ",
"  .ooooooooooooooouyuuuyuuuyuuuyuuuyuuuyuuuXO.  ",
"  .oooooooooooooooipipipipipipipipipipipipiXO.  ",
"  .oooooooooooooooasasasasasasasasasasasasaXO.  ",
"  .ooooooooooooooodfdfdfdfdfdfdfdfdfdfdfdfdXO.  ",
"  .ooooooooooooooogfgfgfgfgfgfgfgfgfgfgfgfgXO.  ",
"  .ooooooooooooooohjhjhjhjhjhjhjhjhjhjhjhjhXO.  ",
"  .oooooooooooooooklklklklklklklklklklklklkXO.  ",
"  .oooooooooooooooztxtztxtztxtztxtztxtztxtzXO.  ",
"  .oooooooooooooooxcxcxcxcxcxcxcxcxcxcxcxcxXO.  ",
"  .ooooooooooooooovvvbvvvbvvvbvvvbvvvbvvvbvXO.  ",
"  .ooooooooooooooonmnmnmnmnmnmnmnmnmnmnmnmnXO.  ",
"  .oooooooooooooooMNBNMNBNMNBNMNBNMNBNMNBNMXO.  ",
"  .oooooooooooooooBVCVBVCVBVCVBVCVBVCVBVCVBXO.  ",
"  .oooooooooooooooZCVCZCVCZCVCZCVCZCVCZCVCZXO.  ",
"  .oooooooooooooooZASAZASAZASAZASAZASAZASAZXO.  ",
"  .OXXXXXXXXXXXXXXDFDFDFDFDFDFDFDFDFDFDFDFDXO.  ",
"    OOOOOOOOOOOOOOOOOOOOOOOOOOOOOOOOOOOOOOOOO.  ",
"     .........................................  ",
"                                                ",
"                                                "};
