/* XPM */
static char * InterSteler_gimp_xpm[] = {
"60 60 47 1",
" 	c None",
".	c #DF7DDB6CDF7D",
"X	c #FFFFFBEEFFFF",
"o	c #AEBAAAAAAEBA",
"O	c #EFBEEFBEEFBE",
"+	c #9E799E799E79",
"@	c #BEFBBEFBBEFB",
"#	c #E79DE38DE79D",
"$	c #CF3CCF3CCF3C",
"%	c #965892489658",
"&	c #D75CD75CD75C",
"*	c #D75CD34CD75C",
"=	c #C71BC30BC71B",
"-	c #CF3CCB2BCF3C",
";	c #BEFBBAEABEFB",
":	c #B6DAB2CAB6DA",
">	c #861786178617",
",	c #C71BC71BC71B",
"<	c #8E388E388E38",
"1	c #AEBAAEBAAEBA",
"2	c #79E77DF779E7",
"3	c #A699A699A699",
"4	c #9E799A699E79",
"5	c #8E388A288E38",
"6	c #A699A289A699",
"7	c #618565956185",
"8	c #965896589658",
"9	c #79E779E779E7",
"0	c #861782078617",
"q	c #59655D755965",
"w	c #596559655965",
"e	c #71C671C671C6",
"r	c #71C675D671C6",
"t	c #69A66DB669A6",
"y	c #514455555144",
"u	c #618561856185",
"i	c #410345144103",
"p	c #492449244924",
"a	c #410341034103",
"s	c #514451445144",
"d	c #49244D344924",
"f	c #38E338E338E3",
"g	c #30C230C230C2",
"h	c #38E33CF338E3",
"j	c #28A228A228A2",
"k	c #30C234D330C2",
"l	c #208124922081",
"                                                            ",
"                                                            ",
"                                                            ",
"                                                            ",
"                                                            ",
"                                                            ",
"                                                            ",
"                                                            ",
"                                                            ",
"                                                            ",
"                                                            ",
"                                                            ",
"                                                            ",
"                                                            ",
"                                                            ",
"                                                            ",
"                                                            ",
"                                                            ",
"     .XXXXXXXXXX    XXXo     XXXO    +XXXO     XXXXXXXXXX@  ",
"     OOOOOOOOOO.   oOOO     oOOOO    #OOOO     OOOOOOOOOOO  ",
"    $###%          &###     #####    #####     ###    ####  ",
"    ***=           ***-     *****   ;*****    :***    ;***  ",
"   >,,,            ,,,<    1,,,,,   ,,,,,,    ,,,,    ,,,,  ",
"   o;;;           2;;;     ;;;3;;  <;;;;;;    ;;;<    ;;;;  ",
"   1114  111111   +111     112511  116%111    111     1112  ",
"   6667  666666   6666    866 966 766 0666   9666    6666   ",
"  q888    w7888   888e    888 w887888 r888   88888888888r   ",
"  t>>>      >>0  y>>>    q>>u  >>>>>q t>>>   >>>>>>>>>>e    ",
"  9999     i99w  t999    999   99999  q999   999qppppp      ",
"  tttt     qtt   tttt    ttt   ttttq  attt  sttt            ",
"  uuuw     uuu   uuus   duui   uuuu   fuuu  uuuu            ",
"  yyyydaaasyyy  gyyy    yyy    yyyd   gyyy  yyya            ",
"  pppppppppppf  hppp    ppp    ppp    jppp  ppp             ",
"  fhhhhhhhhhh   hhhh   khhg    hhh    lhhh jhhh             ",
"                                                            ",
"                                                            ",
"                                                            ",
"                                                            ",
"                                                            ",
"                                                            ",
"                                                            ",
"                                                            ",
"                                                            ",
"                                                            ",
"                                                            ",
"                                                            ",
"                                                            ",
"                                                            ",
"                                                            ",
"                                                            ",
"                                                            ",
"                                                            ",
"                                                            ",
"                                                            ",
"                                                            ",
"                                                            ",
"                                                            ",
"                                                            ",
"                                                            ",
"                                                            "};
