/* XPM */
static char * Shell4_xpm[] = {
"45 37 28 1",
" 	c #000000000000",
".	c #FFFFFFFFFFFF",
"X	c None",
"o	c #61858207B6DA",
"O	c #965892489658",
"+	c #69A671C68E38",
"@	c #082004100820",
"#	c #000000001040",
"$	c #B6DAB2CAB6DA",
"%	c #F7DEF3CEF7DE",
"&	c #AEBAAAAA8E38",
"*	c #A6999A699658",
"=	c #F7DEF7DEF7DE",
"-	c #69A68E38AEBA",
";	c #51445144FFFF",
":	c #FFFFFBEEFFFF",
">	c #D75CB6DA8E38",
",	c #B6DAAEBAB6DA",
"<	c #9E799A699E79",
"1	c #B6DAB6DAB6DA",
"2	c #9E7996589E79",
"3	c #AEBAAAAAAEBA",
"4	c #B6DABAEAC71B",
"5	c #A6999E79A699",
"6	c #AEBAA699AEBA",
"7	c #8E388E389658",
"8	c #96589A69AEBA",
"9	c #71C6AEBACF3C",
"XXXoOooXOoOoOoOoOoOoOoOoOoooooooooooXoooXooo ",
"XXXOoOoXOOoOoOoOoOoOoOoOoOoOoOoOooooXoooXooo ",
"XXXoOooXOoOoOoOoOoOoOoOoOoOoOo+oooo XoooXooo ",
"XXX                          @#@             ",
"XXX $$$$$$$$$$$$$$$$$$$$$$$$$$$$$$$$$$$$%OOO ",
"XXX $$$$$$$$$$$$$$$$$$$$$$$$$$$$$$$$$$$$%OoO ",
"XXX $$$$$$$$$          O o$$$$$$$$$$$$$$%oOo ",
"XXX $$$$$$ % O $O O%%%%%%o  oo$$$$$$$$$$%OoO@",
"XXX $$$$  %%$ o  O&&&*= o $$ o o$$$$$$$$%oO+#",
"XXX $$  $  $$%$%O -;+&&% o o$   oo$$$$$$%Ooo ",
"XXX $ &&@+oo%%%% oo-o:*>* o%%%%  o$$$$$$%oOo@",
"XXX @&*@O#oo%%%&O oo,=&* O$$$%$%  o$$$$$%<o+@",
"XXX@&*:%%ooo%%&*@O $%&*@+#1$%%%$$ o O$$$%+oo#",
"XX O2&*%%%@o*&3o+ %,=&@o#o$$%%o O$ O o$$=ooo@",
"X* OO*>%%@ &&*>+o#O%%*@+#ooo%%o %%%  oo$%ooo@",
"@ =@2&*%4o++>*%##O@o*>o#O@o+&% O&%O$  oo=oo+@",
"=%%O*&*%%#oo%%%+o@+oo5@O ooo6&O &*@%$  o%ooo#",
"o+%@&,+*6o+3*&6##O#3*&O o@3+&*@7>*O%%&  %ooo@",
"o3:+++o,&3#2O=%OO oo>*@ o+333@2 *>7=%&@+%ooo@",
"+%8##9+&%%O&O%= @oo+*& ooo%%&O >*7OO%*@#%oo+@",
"o=%+o;oo=% OO&*+oo=3*>@+3o&*&@+6&@@O&&@o%ooo#",
"o%%=@@o1,O 2*=:o#,2*>*#o&*=%2#o++@&&**@o%ooo@",
"ooo%@  o+4  +:%@ O%&5*@@*>%+#ooo#82**@@ =ooo@",
"@oooo O#o1 #oo+& %==*>oo=;+oooo#3&*2@  O%oo+@",
"O oo$O O O&@ooo3 %%&**+#=-o4@+=% %2@O O =ooo#",
" O o%   O@*O@o5& @%*>#o==oo+@#==,% O O O%ooo@",
"X@O %%   O&*@+o*o &*&@1%oo=##%%%$%O O O$%ooo@",
"XX OOO=  @*>##oo+@%*O@%%o& @=OO%$  o O$$%oo+@",
"XXX O O%% @7O2@#o=:@@,+o6O O&&&@O  o$$$$%ooo#",
"XXX  O O%$O O O@oo+ @oo&O  =*O@O oo$$$$$%ooo@",
"XXX $   O%   $ @1##@%@6O   O2   o $$$$$$%ooo@",
"XXX $$$  oo   $  O O%+&   OO   oo$$$$$$$%oo+@",
"XXX $$$$   o   oo   O=#  O O  oo$$$$$$$$%ooo#",
"XXX %%%%%%O o    O O@%O O O  O%%%%%%%%%%%ooo@",
"XXX         %  O  o %  O   oo           @@@  ",
"XXXXXXXXXX O o  O o o    OO ooXXXXXXXXXXXXXXX",
"XXXXXXXXXXX                 oXXXXXXXXXXXXXXXX",
