/* XPM */
static char * NeXTterm_xpm[] = {
"47 48 61 1",
" 	c None",
".	c #B6DAB2CAC71B",
"X	c #A699A289AEBA",
"o	c #492451444924",
"O	c #186120811040",
"+	c #082010401040",
"@	c #000004100820",
"#	c #28A22CB21861",
"$	c #186118612081",
"%	c #186120811861",
"&	c #28A22CB228A2",
"*	c #208128A230C2",
"=	c #28A230C230C2",
"-	c #08200C302081",
";	c #69A671C671C6",
":	c #965892489E79",
">	c #514451444924",
",	c #28A22CB230C2",
"<	c #08200C301040",
"1	c #30C238E34103",
"2	c #9E799658A699",
"3	c #30C238E330C2",
"4	c #000000000000",
"5	c #D75CD34CDF7D",
"6	c #5965618569A6",
"7	c #71C679E78617",
"8	c #69A671C68617",
"9	c #6185618569A6",
"0	c #514455555965",
"q	c #38E341035144",
"w	c #4103410338E3",
"e	c #492445144924",
"r	c #69A669A671C6",
"t	c #000000001040",
"y	c #492449246185",
"u	c #5965596569A6",
"i	c #5144514471C6",
"p	c #5144596571C6",
"a	c #5965514471C6",
"s	c #4924492469A6",
"d	c #59654D3479E7",
"f	c #5965596579E7",
"g	c #618555558617",
"h	c #49244D3479E7",
"j	c #492449245144",
"k	c #5965659569A6",
"l	c #596551448617",
"z	c #61855D758617",
"x	c #69A65D759658",
"c	c #618559658E38",
"v	c #71C671C69E79",
"b	c #79E779E78E38",
"n	c #6185659569A6",
"m	c #6185659571C6",
"M	c #5965596571C6",
"N	c #A699A289BEFB",
"B	c #A6999E79CF3C",
"V	c #9E799248B6DA",
"C	c #69A669A679E7",
"Z	c #79E782078E38",
"A	c #8E3886179658",
"                                               ",
"                                               ",
"  .XoO+@#O$O%$%$%%O&*&=&**#*#%#%$-OO++@+@@@;   ",
"  :>O$#+%%%*&=&&#,=######O#$OO$O$O$$*<OOO@+1   ",
"  2O+@O#*-=,*,%,*33&&#&&#######O$OO+OO-O+4@@   ",
"  5$$%;6:7;890q1,1,1331w311,3ee>9;7X2Xr7%O@4   ",
"  5-#+OO$t$-@<t-t<t444444444@@@@@<<-t-%%<++4   ",
"  .*%,%yquqiiipapsydddfgihgdgddsdsaspqy+*OO4   ",
"  5<,,%qjiyipsfsfakgggfglgfdighasahqipy<O%O4   ",
"  5&=q-hhhhgsgpzixhlczghzhaxlcdhzhlhssy-O$O4   ",
"  5,,q-shhldfaugfzfxfglvfxfzbdcghhhlhpsO%%$4   ",
"  .3&w<spak4t44<tt4444444444444nmM8fhfy+*#$4   ",
"  533e+aMMz42t4444-X:XX244444X4r9j0hlfs+*#%4   ",
"  .33e@MMMftt4444t4tt4ttttttt--hdbdflfs@*=$4   ",
"  5ww>+uazM42.XNX.NNBNBNXVNBBVtzcbhhzpi@*#%4   ",
"  .wqytzhxz-.BVVBVBVN5VV.NBNVB-vzdbzlap4=*#4   ",
"  5yeatzicx-VVsByBs.VsByBqVByNtzgbgzzyft**=4   ",
"  5o>itgxxx-VBNVBV.NBNBVN.BNBNtvbdggzMpt1#*4   ",
"  5>>athxzc-B5yBhByBhqByBVsy.B-zgbczxsa4=,=4   ",
"  5oo04ffggtXX2.2.V.V.B.VBB.VVtxzgzzzai@13=4   ",
"  5>o9@gkgz4N.6yj.yV.sVyNfVNs.-gvfciliM<,=#4   ",
"  5o>9@MMMztXV2.2VBNVN.XX2XXXX4;yMklhgi<=,*4   ",
"  .oo6@pgMg4t<44ttt4t4444444444C9nmzlis+,=#4   ",
"  5wo6-hlhgxcsfxcxcvlvxvlvgvlvzhxchghay<*,*4   ",
"  .wqMtlhlldxfgcczcxxxlxxlxxlbczzhxhspd-&=#4   ",
"  5w>y<suhdfhdipzzclgxczczfgzgpdfMhpsky-%,<4   ",
"  5w10<0jasflizgzMsgfgfggzgsgzaidpayp1k@,O*4   ",
"  531j$jyy0sjiiknkgkMuMMMunMMMMpayiypyy*=%<4   ",
"  5333%$%-t$-<tttt44t4t4t4tt<t<t<<--,-O4%$$4   ",
"  5%3w96bZA69ye131131131311=11>0m;7VZV;A%$@4   ",
"  5%O33w3w10y>y0009>0>M>y0>>jeqw311,,%*$+@+4   ",
"  5OO**11wqeq>>o>o>>>oo>oeqwww333#&%*%$OO$@4   ",
"  .+*O=,3,eweo>oo>>ooooeooo3e31,1=&%*%%+$+@4   ",
"  54444444444444444444444444444444444444444@   ",
"             2444444444444444444               ",
"              :4444444444444444                ",
"               :44444444444@447                ",
"               :--OOOOOOOOOOOO:                ",
"               A=%,,,,,,#,#3$,X                ",
"               *&1#=&=&####O33=                ",
"              %w%#,,,,#,#&,#,*,=               ",
"     10qqw4owowowoe>qwee>eqeoo30jee4qoq>16     ",
"     444444>O%-O-$-O--O-O-<O$<%-<-o44444@n     ",
"     q01>>4q4444444444444444444444w4owq6qj     ",
"     <4<4440#%===&*=&=&===&=&,=,&3>4444440     ",
"                                               ",
"                                               ",
"                                               "};
