/* XPM */
static char * nomail [] = {
/* width height ncolors chars_per_pixel */
"64 64 5 1",
/* colors */
" 	c lightslategrey",
".	c black",
"X	c cornflowerblue",
"o	c white",
"O	c mediumseagreen",
/* pixels */
"                                                                ",
"                                                                ",
"                                                                ",
"                                                                ",
"                                                                ",
"                                                                ",
"                                                                ",
"                   ...........................                  ",
"                  .XXX..XXXXXXXXXXXXXXXXXXXXXX..                ",
"                  .XXXX..XXXXXXXXXXXXXXXXXXXXXXX.               ",
"                 .XXXXXX..X...................XX.               ",
"                 .XXXXXXX.XX...................XX.              ",
"                .XXXXXXXXX.X....................XX.             ",
"                .XXXXXXXXX.XX...................XX.             ",
"                .XXXXXXXXX.XX....................X.             ",
"                .XXXXXXXXXX.X....................XX.            ",
"                .XXXXXXXXXX.X....................XX.            ",
"                .XXXXXXXXXX.X....................XX.            ",
"                .XXXXXXXXXX.XX..................XXX.            ",
"                .XXXXXXXXXX.XXXXXXXXXXXXXXXXXXXXXXX.            ",
"                .XXXXXXXXXX.XXXXXXXXXXXXXXXXXXXXXXX.            ",
"oooooooooooooooo.XXXXXXXXXX.XXXXoXXXXoXXXXoooXXXXXX.oooooooooooo",
"oooooooooooooooo.XXXXXXXXXX.XXXXooXXXoXXXoXXXoXXXXX.oooooooooooo",
"oooooooooooooooo.XXXXXXXXXX.XXXXoXoXXoXXXoXXXoXXXXX.oooooooooooo",
"oooooooooooooooo.XXXXXXXXXX.XXXXoXoXXoXXXoXXXoXXXXX.oooooooooooo",
"OOOOOOOOOOOOOOOO.XXXXXXXXXX.XXXXoXXoXoXXXoXXXoXXXXX.OOOOOOOOOOOO",
"OOOOOOOOOOOOOOOO.XXXXXXXXXX.XXXXoXXoXoXXXoXXXoXXXXX.OOOOOOOOOOOO",
"OOOOOOOOOOOOOOOO.XXXXXXXXXX.XXXXoXXXooXXXoXXXoXXXXX.OOOOOOOOOOOO",
"OOOOOOOOOOOOOOOO.XXXXXXXXXX.XXXXoXXXXoXXXXoooXXXXXX.OOOOOOOOOOOO",
"OOOOOOOOOOOOOOOO.XXXXXXXXXX.XXXXXXXXXXXXXXXXXXXXXXX.OOOOOOOOOOOO",
"OOOOOOOOOOOOOOOO.XXXXXXXXXX.XXXXXXXXXXXXXXXXXXXXXXX.OOOOOOOOOOOO",
"OOOOOOOO.........XXXXXXXXXX.XXXXXXXXXXXXXXXXXXXXXXX.OOOOOOOOOOOO",
"OOOOOO...........XXXXXXXXXX.XXoXXXoXXXoXXXXoXXoXXXX.OOOOOOOOOOOO",
"OOOOO............XXXXXXXXXX.XXooXooXXoXoXXXoXXoXXXX.OOOOOOOOOOOO",
"OOOO.............XXXXXXXXXX.XXoXoXoXoXXXoXXoXXoXXXX.OOOOOOOOOOOO",
"OOOO.............XXXXXXXXXX.XXoXoXoXoXXXoXXoXXoXXXX.OOOOOOOOOOOO",
"OOOO.............XXXXXXXXXX.XXoXXXoXoooooXXoXXoXXXX.OOOOOOOOOOOO",
"OOOO.............XXXXXXXXXX.XXoXXXoXoXXXoXXoXXoXXXX.OOOOOOOOOOOO",
"OOOO.............XXXXXXXXXX.XXoXXXoXoXXXoXXoXXooooX.OOOOOOOOOOOO",
"OOOO.............XXX..XXXXX.XXXXXXXXXXXXXXXXXXXXXXX.OOOOOOOOOOOO",
"OOOO.............XX...XXXXX.XXXXXXXXXXXXXXXXXXXXXXX.OOOOOOOOOOOO",
"OOOOOO...........XX.....XXX.XXXXXXXXXXXXXXXXXXXXXXX.OOOOOOOOOOOO",
"OOOOOO...........XX......XX.XXXXXXXXXXXXXXXXXXXXXXX.OOOOOOOOOOOO",
"OOOOOOOO.........XX......XX.XXXX...............XXXX.OOOOOOOOOOOO",
"OOOOOOOO.........XX.......X.XXX...............O.XXX.OOOOOOOOOOOO",
"OOOOOOOOOO.......XX.......X.XX..........OO....OO.XX.OOOOOOOOOOOO",
"OOOOOOOOOOOO..............X.X............OOO..OOO.X.OOOOOOOOOOOO",
"OOOOOOOOOOOOOO............X.X.............OO..OOO.X.OOOOOOOOOOOO",
"OOOOOOOOOOOOOOO...........X.X..............OOOOOO.X.OOOOOOOOOOOO",
"OOOOOOOOOOOOOOOOO.......OOX.X.OOOOOOOO.......OOOO.X.OOOOOOOOOOOO",
"OOOOOOOOOOOOOOOOOO......OOX.X.OOOOOOOOOO......OOO.X.OOOOOOOOOOOO",
"OOOOOOOOOOOOOOOOOOOO......X.X.OOOOOOOOOOOOO.....O.X.OOOOOOOOOOOO",
"OOOOOOOOOOOOOOOOOOOOOOO...X.X.OOOOOOOOOOOOOO......X.OOOOOOOOOOOO",
"OOOOOOOOOOOOOOOOOOOOOOOOO...X.OOOOOOOOOOOOOOOO....X.OOOOOOOOOOOO",
"OOOOOOOOOOOOOOOOOOOOOOOOOO....OOOOOOOOOOOOOOOOOO....OOOOOOOOOOOO",
"OOOOOOOOOOOOOOOOOOOOOOOOOOOOOOOOOOOOOOOOOOOOOOOOOOOOOOOOOOOOOOOO",
"OOOOOOOOOOOOOOOOOOOOOOOOOOOOOOOOOOOOOOOOOOOOOOOOOOOOOOOOOOOOOOOO",
"OOOOOOOOOOOOOOOOOOOOOOOOOOOOOOOOOOOOOOOOOOOOOOOOOOOOOOOOOOOOOOOO",
"OOOOOOOOOOOOOOOOOOOOOOOOOOOOOOOOOOOOOOOOOOOOOOOOOOOOOOOOOOOOOOOO",
"OOOOOOOOOOOOOOOOOOOOOOOOOOOOOOOOOOOOOOOOOOOOOOOOOOOOOOOOOOOOOOOO",
"OOOOOOOOOOOOOOOOOOOOOOOOOOOOOOOOOOOOOOOOOOOOOOOOOOOOOOOOOOOOOOOO",
"OOOOOOOOOOOOOOOOOOOOOOOOOOOOOOOOOOOOOOOOOOOOOOOOOOOOOOOOOOOOOOOO",
"OOOOOOOOOOOOOOOOOOOOOOOOOOOOOOOOOOOOOOOOOOOOOOOOOOOOOOOOOOOOOOOO",
"OOOOOOOOOOOOOOOOOOOOOOOOOOOOOOOOOOOOOOOOOOOOOOOOOOOOOOOOOOOOOOOO"};
