/* XPM */
static char *paint1[] = {
/* width height num_colors chars_per_pixel */
"    48    48      254            2",
/* colors */
".. c #070504",
".# c #898557",
".a c #ccc248",
".b c #a40214",
".c c #c88c50",
".d c #cac3a4",
".e c #344430",
".f c #8a846f",
".g c #a0a47f",
".h c #e4e7a7",
".i c #904624",
".j c #470708",
".k c #ca9676",
".l c #a8846e",
".m c #c94611",
".n c #e6c9a8",
".o c #696534",
".p c #e6e4db",
".q c #e8e440",
".r c #a3a397",
".s c #462c1c",
".t c #946a04",
".u c #d9d3aa",
".v c #89654c",
".w c #292307",
".x c #8b9378",
".y c #c7b076",
".z c #a46e48",
".A c #e4c460",
".B c #be3814",
".C c #290807",
".D c #54728c",
".E c #d0a810",
".F c #e8ba64",
".G c #a8956d",
".H c #f6f4d8",
".I c #877a59",
".J c #b5b49e",
".K c #d6c59d",
".L c #bc9a04",
".M c #b6b483",
".N c #6c0d09",
".O c #68260e",
".P c #c4b49b",
".Q c #872810",
".R c #604c14",
".S c #e0fa9c",
".T c #e4da58",
".U c #96846f",
".V c #a62910",
".W c #b89b6d",
".X c #797357",
".Y c #e8e464",
".Z c #baa670",
".0 c #b08228",
".1 c #85766a",
".2 c #605044",
".3 c #cc6e04",
".4 c #e4b234",
".5 c #48150b",
".6 c #d8d5c5",
".7 c #fcfdf9",
".8 c #e7d9a7",
".9 c #28120c",
"#. c #9b9574",
"## c #7a3410",
"#a c #765a47",
"#b c #c7c4bc",
"#c c #796a31",
"#d c #c8ba83",
"#e c #fae4a1",
"#f c #e2c47f",
"#g c #b6b4ac",
"#h c #191607",
"#i c #978c6f",
"#j c #a79a86",
"#k c #843617",
"#l c #615a4f",
"#m c #999788",
"#n c #78280f",
"#o c #b7a583",
"#p c #b5ab9e",
"#q c #fcfd69",
"#r c #58190d",
"#s c #e6dcba",
"#t c #e88c44",
"#u c #f7ebcf",
"#v c #d5cdb8",
"#w c #f46434",
"#x c #8b897f",
"#y c #fa9478",
"#z c #fcfdda",
"#A c #c6bca2",
"#B c #f9f397",
"#C c #dfd97c",
"#D c #977c69",
"#E c #e4bd4f",
"#F c #d8bb7a",
"#G c #98915c",
"#H c #4c3424",
"#I c #3c3b22",
"#J c #180807",
"#K c #bcbb9d",
"#L c #a99056",
"#M c #38160c",
"#N c #fcfe1c",
"#O c #6f6964",
"#P c #967a55",
"#Q c #dadcc5",
"#R c #caccbb",
"#S c #ebecdc",
"#T c #dadbaf",
"#U c #886870",
"#V c #362710",
"#W c #d7cca4",
"#X c #6a1b0b",
"#Y c #ab3515",
"#Z c #877c6d",
"#0 c #f9eabd",
"#1 c #988d7d",
"#2 c #b7ab87",
"#3 c #7b7969",
"#4 c #978237",
"#5 c #acab87",
"#6 c #6b6656",
"#7 c #a99c75",
"#8 c #b69a82",
"#9 c #6c5d50",
"a. c #faf4c1",
"a# c #bc4218",
"aa c #e44a2c",
"ab c #b1c377",
"ac c #d09c18",
"ad c #a29b56",
"ae c #494214",
"af c #ccd288",
"ag c #d0aa54",
"ah c #915607",
"ai c #e77749",
"aj c #d07c3c",
"ak c #861706",
"al c #e23c14",
"am c #e95a34",
"an c #a47604",
"ao c #b45e4c",
"ap c #ec965c",
"aq c #c49a50",
"ar c #494644",
"as c #887430",
"at c #c6cc7a",
"au c #b99d51",
"av c #c5a071",
"aw c #aa784c",
"ax c #efa37f",
"ay c #c66d3f",
"az c #fbc846",
"aA c #6c5e1c",
"aB c #e4b294",
"aC c #a8683c",
"aD c #c4ba44",
"aE c #f8ca74",
"aF c #f7db87",
"aG c #845b3c",
"aH c #a7864f",
"aI c #d84a14",
"aJ c #f9eb6c",
"aK c #973814",
"aL c #fbac3f",
"aM c #583420",
"aN c #acae5c",
"aO c #987204",
"aP c #ba8b78",
"aQ c #5a240f",
"aR c #fad94e",
"aS c #f4f484",
"aT c #fc7b3e",
"aU c #f85228",
"aV c #fcfb43",
"aW c #535045",
"aX c #fcceac",
"aY c #fbe94a",
"aZ c #ce3910",
"a0 c #fc8d3f",
"a1 c #926638",
"a2 c #e8e4bb",
"a3 c #773b2c",
"a4 c #d6af78",
"a5 c #b76d4f",
"a6 c #d8b610",
"a7 c #6f4f11",
"a8 c #dcf6c4",
"a9 c #d8a074",
"b. c #d89170",
"b# c #cc4e34",
"ba c #766a58",
"bb c #daa24e",
"bc c #97392c",
"bd c #a47e3c",
"be c #5a0404",
"bf c #380704",
"bg c #972b11",
"bh c #9c1608",
"bi c #dc6e3c",
"bj c #bc723c",
"bk c #fcbc74",
"bl c #dcae94",
"bm c #f5db99",
"bn c #fcdebc",
"bo c #faba46",
"bp c #fc461c",
"bq c #d9b755",
"br c #bc8a5c",
"bs c #dcce44",
"bt c #b4bc74",
"bu c #e1cb7f",
"bv c #ad3c1a",
"bw c #fca03e",
"bx c #e5ae53",
"by c #fac85b",
"bz c #f8e884",
"bA c #791e0b",
"bB c #96865b",
"bC c #acab9c",
"bD c #886d55",
"bE c #fbfe9d",
"bF c #ecd28c",
"bG c #d4ca6c",
"bH c #a58e72",
"bI c #2a2c0f",
"bJ c #7c7d59",
"bK c #bbbcb2",
"bL c #f46e3c",
"bM c #473b1f",
"bN c #bca54f",
"bO c #583e2c",
"bP c #fcfd85",
"bQ c #ececc0",
"bR c #f8b498",
"bS c #ecea84",
"bT c #392d27",
"bU c #787166",
"bV c #ccde84",
"bW c #bcaa0c",
"bX c #aca484",
"bY c #d4be9c",
"bZ c #fc9a41",
"b0 c #eccd86",
"b1 c #b49353",
"b2 c #dca644",
"b3 c #b47a50",
"b4 c #cbcba3",
"b5 c #e4d1a4",
"b6 c #471c0e",
"b7 c #271c0f",
/* pixels */
".7#S.p.p.p#S#S.p.6#b#b#bbKbKbK#g#j#x#Z#x#Z#Z#i#.#..g#2#d#W.u#T.u.u.h#0a.a.bQa2#sa2#s.u#K.r#.aPao",
"bK#p.r#p#g#AbK.P#p.r.r#p#p#p#p#j#x#Z#ZbU#ObUbUbU.XbUbJ#i#.#7#5bX#5.M#W#W.u.u.u#W.u.u#W.d#paPa3#r",
"#m#x.f#.#j#o#2#2#p.r.rbC#p#A#gbH#ibHbH#P.I.Iba#6#9#6bababa.X#Z.I#Z#i#.bX#7bX#o#2#2#K#K.PaP#M.Nax",
"#1#.#jbX.M.M#A#W.u.dbK#g.d#v.d#2.G.Z.y.y.Z.W.W.G#L.G.G#i.U.1#Z.Iba#O.I#Z#Z.U#1#1#.#j.kaC.Cbf#y#w",
"#j#m.rbC.J#p.Jb4.6#b.J.r#p#dbY.y.Z.y#F#f#f#f#fbuaFbzaFbu.y.Z#o.Z.GbB#Z.1#Z.U#1#mbH.la3bAbf#yb#.B",
".f#i#7#2#K#K.JbK.JbC#m#1.W.y#F.ya4.y#F#fbubFaEbz#B#B#B#ebFbu#fb0#f.y.W.U.1#3.U#1.laQak#Y#y.5#Ybv",
"#D#D#i#7.M#d.J.r#1#x#3.Uau#F.F#F#F.y#d#fb5bFbFbFaFbmaFbmbFbmbmbm#ebzbu#d#7.f.1#U#kbebLa5albfaUaK",
"bD#P.U#Gb1bX.ZbX#iba#6.I.Wa4bY.K#A.P#A#fb5bu.n#W.n.K.K#Wb5.8.8bm#e#e#ebmb5#o.2beaKbLaiakaZ#rbvbc",
".U.U#ZbB.IbBad#7.GbH#Z.1#ZbH#p.P#K#A.d#Wb5b5.u#W#W.K.d.K#R#v#v.u#s.8#sa2.8aw#X.Nbca0akaZbvb6#n#k",
"#m#1bB.#.I.#bBbX.y#2.W#j#Z#Z#x.r#g.d.K#W.8b5.8.8.ub4.d.K.d#W#R#v.6#Qa2.u#Hbf.Vama3aZ#Y.O.Q.OaQ#k",
"#m#1#Z.##G#G#Gad.Z.y#F#2#j#ZbU#D#m#p#K.d.K.d.d.dbY.P.M.P#A.d#A.db4.u.KbUbfbhbLbcakaU.O#JbA#MaQ.O",
"#xbJ.I.#ad#G#G#G#..W#o.Z#7#Z#O#Oba#Z#i#jbXbX#obX#jbH#i#1#j#o#j#jbX#8bTbe.Nam#wbgbfa#aI#kaQ#r#M#k",
"bU#6#6.XbBbBbB#i.#bB#D#Z.IbU#6.2aW#l#O#3#Z#1.rbX#j#1#Z.1.1.1.1bU#Ub7beal.Q#nakb##X#X.5#n.O.O.O.O",
"#6#l.2#l#9#9.X.Xbabababa#6#9#9#l#l#l#l#6#O#3#mbCbX#j.f.1#ObUbU#9b7#Xalaabg.5bfa#bvaK.O.5.5.O.Cb6",
"bU#6#l.2#l.2#l#9#6bababUbUbUbU.1bU#UbUbUbU#Z.f#x#1#1#x#ZbU#Z.1bT#rbpbpbv#Y.Q.5bf.C.C.Cb6#r.5.Ob6",
"#3.X.X.I.Iba.2#6babB#ibH#ibH#1#m#1#1#D#Z#Z#x#Z#Z#Z#1#1.fbUba#H.jalaabgbg#Ybv#n#r#M.5##b6bf.O#M#k",
"#6ba#..g#7.Iba.2.I#L.kaqav.W#o#o#7#..U.U.lbHbH#1#1bH#1bU.2#J.5.Vbp.B#YbA.V#n#n#r.O#n#J#r.O#M.OaQ",
".2#6.f#..G.I#laW#Zaqa4a9av.k#8#jbHbH#D#D.UaP#8#8bH.U#Z.v..bf.QaZaI.B.Qa#bA.O#X.O#r..#X.Q.9aM#rbO",
"#O#6#6.X#6#9.2#l#x#oav#8.W.W.Z.y#2.Z#8.GbH.U.U.1#UbDa1bc#M#rbg.B.Bbv.B#X###naQ.9#J#X.Q.C#n.C.s.U",
".f.X#6aWaWaWaW#O#x#j#8#obqbG.YaJaSaSbSaf.M#.#Zba.vbjaja7#J.Nakbca#.Q.Qbc#X#M#J#JbA.Q#Mb6b6b7#UbH",
"#i.X#laWaW.2.2#6.1bH.y.T#q#q#qbPbPbPbEbPaSatadbDawbba7#J.NbA#rbgbA#Y#k#M#J#JbfbAbAaQ#J.5#Hawawbr",
"#x.X#6.2aW#l.2#9#Ub1.T#qaV#qaV#qbPbPbPbE#q#CaNb1.yad#Ibf#nbf#X#n#Y.O#J#J.Cb6bA#X.O#M.9aMbNbxbxbx",
".fba#l.2#lba#Z#Z#i#FaS#q#q#q#qbPbPbEbE#B#Cbtbtat.haW.Cbh.5#r.Obg#M#J.C#J.5bA#r.Ob6.9bMb1.A.A.F.F",
".g.x.X#l#6#1#gb4#W#e#BbPbP#Bbz#Cb5.u#W.d.MabbV.SbE#I.j.Q.5#r.5bf.C.C#J.5#naQ###r#h.R#4auav.Z.W.W",
"atbt.x.XbJ#m.d.6#T.ubG#A#d.M#2bCbCbC#g.Jb4.SbPbEadah.b#r#rbf#r.9#M.5.5.O.O.O.5.w#4.Taz#EagauaHaH",
"atbt.g.#bJ#3#Z#1#.#.#i.f.f.f#1bCbK#b#bbV.SbEbEbPbM.mbe###M.Obfb6aQ#r.O.O#raQ#I.aaVaVaVaVaRbyagbH",
"#..x.#bJ.X#laWaW#l#O#3#x#m.rbK.6#S.7.7a8.SbPbE#4.t.Lah.N.5.O#r.5#r.O#Xb6#VaA.q#NaVaVaVaVaVaRbq#L",
".g.#.X.o#6#6#l#l#3.xbC#R.p#S.7.7.7.7.7.7a8.Sab.RaObW.t.Cbfbe#k#n#nbAb6.s#4.qaVaVaVaV#NaVaYaRagbB",
"ab.gbJbJbJ.#.xbC#R.p#S.7.7.7.7.7.7.7.7.7#S.DbIan.E.4.S.Na1##be.j#M#V#VbdauaDbsaYaVaVaVaYaR.4aHbD",
"atbN#G#G.xbC.6.7.7.7.7.7.p.p.7.7.7.7.7.7#v#UbWa6#Eatahac#qbM.waM.iayayaw.zbd#4#Lauag#E#Ebq.W#Pba",
"bobxb2#L#G#K.7.7.7#S.6#b#b#Q.7.7.7.7.7.7bOaOa6bqau.0.3aA#VaGayaTaTaTaTaTbiaya1a1a1.v#P#PbH#7.U#O",
"bobob2b1.#.J.7.7.7.p#b#b.p.7.7.7.7.7bKb7acaVbG.0bq###Va1apa0a0aTaTaTaTaTaTaTbiaCaG#a#9#a#Z#1.f#6",
"bybx.cbd.X.g#Q#z#za2.p.H.7.7.7.7.6#l..bI#Nbdb1#EbM.RbbaLbwa0a0a0aTaTaTaTaTaTaTayaG.2#aaG.XbU#O#l",
"bk.F#o#j#m.J.p#z#z#z.7.7.7.7.7#b#J....aeaRasbq.oasazazbobwbwbwbwbZa0a0a0aTaTaia5#abO#a#a#a#6bU#Z",
"#WbY.P#g#g.6#z.7.7.7.7.7.7.raW....b7#h....bN#cas.TaYaRazaLbwbwboboaLbwa0#tajbjaG#a.2aG#aba#x#g#R",
"#b#b#v.6#Q#u#z.7.7.7.7.rar....#h#h#h#h#h...w.o.YaVaVaYazboboaLaLazazbobw#tajawa1#a#a.I#ibC#R.7.7",
".6.6.6#R#R.u#Q#R.J#xbI#J.....w#h#h#h..#h#h#h.a#q#q#q#qaYaYazazazboboboaLbbaqb3bBbH#o#A.6.H.7.7.7",
".H.p.6bC.o#I#I...........w#h#h......#h#h..bDbzbP#qbP#qbP#q#qaJbGbG#F#F.y#F.P.PbY#s.H.7.7.7.7.7.7",
".p.d.gar......#h.w.w.wb7#h#h..#h#h..#h..bTblbnbEbEbEbEbEbEbEbE#B.h#T.u#Q#S.H.7.7.7.7.7.7.7.7.7.7",
"#K.JadaWbO#h..........................#haPbRaXbn.H#z#z#z#z#z#z#z#z#z.7.7.7.7.7.7.7.7.7.7.7.7.7.7",
"#bb4b4#5#6.e#J........#h#h........#h#O.lb.#yaxbRaX#0#z#z#z#z#z.7#z.7.7.7.7.7.7.7.7.7.7.7.7.7.7.7",
"#S.H#T#5.x#3.f.r#bbK#p#5.Z.g#m#G#m.g.r#o.kb.b.b.a9blbY#W.8#sa2#0a.a.#z#z.7.7.7.7.7#z.7.7.7.7.7.7",
"#z.H#K.f.f.g#R.7.7.7.7.7#za..h#s#Q#Q.6#R#v.n.naB.k.l#D.f#x#m.J#Wa2#0a.a.#z.7.7.7.H#0#z#z#z.7#z#S",
"#z#Q#m#O#x#b.7.7.7.7.7.7.7a.#s.u#QbQ#z.7.7.7.7bnaxb3bDbabU#Z.x.J#s#0a.#z#z.7.7bQ#R.8a..7.7#z#QbK",
".7#T#mbU.x#Q.7.7.7.7.7.7#u#A.M.d#s#z.7.7.7.7.7#0bkap.k#8#j#1#x.r.d#e#z#z#z#S#R#KbC#R#z.7#z#Q.J.r",
".7#SbK#x#m#b.7.7.7.7.7.p.P.g.M#s#z.7.7.7.7.7#zaFbkbkaXbn#u#RbC#2.dbm#0#S#R.J.g#m.J.6#u.H#Q.J#m.x",
".7.7#S#RbK#ba2#z#z#z#z.8bK#v#S.7.7.7.7.7.7#z#eaRby#e#z.7.7.7#0.h#e#0#Q.dbC#m.x.r#K.6.6#b.r.x.x#x",
".7.7.7.7#S#s#s#0a.#0#u.H.H.7.7.7.7.7.7.7.7#eaEbyaF#z.7.7.7.7#z#z#zbQ#R.J#5bC.M.d#v.ubK.x#x.x#xbU"
};
