/* XPM */
static char * Penguin_xpm[] = {
"48 48 64 1",
" 	c None",
".	c #9E799A699E79",
"X	c #861782078617",
"o	c #71C671C671C6",
"O	c #30C230C230C2",
"+	c #082008200820",
"@	c #000000000000",
"#	c #38E338E338E3",
"$	c #A699A289AEBA",
"%	c #69A669A669A6",
"&	c #AEBAAAAAAEBA",
"*	c #514451445144",
"=	c #410341034103",
"-	c #186118611861",
";	c #410334D328A2",
":	c #208120812081",
">	c #492449244924",
",	c #8E388A288E38",
"<	c #BEFBBAEABEFB",
"1	c #28A21C711040",
"2	c #965892489658",
"3	c #618561856185",
"4	c #69A63CF30000",
"5	c #8E3851440000",
"6	c #D75C79E70000",
"7	c #28A228A228A2",
"8	c #596541031861",
"9	c #F7DE8E380820",
"0	c #104010401040",
"q	c #082004100000",
"w	c #C71BC30BC71B",
"e	c #596559655965",
"r	c #A699A289A699",
"t	c #DF7DD34CDF7D",
"y	c #D75CD34CD75C",
"u	c #104018611040",
"i	c #B6DAB2CAB6DA",
"p	c #C71BC71BC71B",
"a	c #186110401861",
"s	c #E79DE79DE79D",
"d	c #FFFFFBEEFFFF",
"f	c #F7DEF3CEF7DE",
"g	c #EFBEEBADEFBE",
"h	c #D75CDB6CD75C",
"j	c #F7DEF7DEF7DE",
"k	c #28A2208128A2",
"l	c #CF3CCB2BCF3C",
"z	c #71C679E771C6",
"x	c #208128A22081",
"c	c #DF7DDB6CDF7D",
"v	c #79E779E779E7",
"b	c #410345144103",
"n	c #861786178617",
"m	c #EFBEE38DEFBE",
"M	c #59655D755965",
"N	c #71C66DB669A6",
"B	c #965896589E79",
"V	c #30C238E330C2",
"C	c #9E799E799E79",
"Z	c #96588A289658",
"A	c #618565956185",
"S	c #514455555144",
"D	c #514449245144",
"F	c #79E771C679E7",
"                                                ",
"                    .XXX.                       ",
"                  oO+@@@+#.                     ",
"                $%@@X&*@==-.                    ",
"              X*;+:>,,<@1=O>                    ",
"          23;45657OO.&X@@:#-.                   ",
"         o869996@0-::0@@@@7+o                   ",
"         89654q@@@@@q@@@@@0+O                   ",
"         2*=145@@@@@@@@@@@@@7                   ",
"              %@@@@@@@@@@@@@:                   ",
"               :@@@@@Xwe@@@@@o                  ",
"              2+-@@@rty2@@@0#u.                 ",
"              7%yiXpyyy<@@@-*a*                 ",
"             3-psddfgsgy,@+O*#u.                ",
"             >%sdddddddh<@#*>=a>                ",
"           .O+.jdddddddd.+>77>=@X               ",
"           =k#$gdddddddl00#q:#*a:               ",
"          e:z=rsddddddX0+7:@@7*=@,              ",
"         >xz*=rcddddd&@0=:@@@-=>@O              ",
"        *v<X:*2tjdddd:0>:@@@@@O*O+.             ",
"       ,OyXX:zXrcddd&@#-@@@@@@0b>@3             ",
"       7prXX:*Xnlddd*0O@@@@@@@@7*+0             ",
"      oXwXXX:=i<&mdc@-0@@@@@M#@@*-@X            ",
"      *gXXnX:%lcchg<@@@@@@@@N3@@##@O            ",
"     X3wXXX,0%hsccg,@@@@@@@@N,@@+>@@2           ",
"     >.wtt2.@vsdjjfX@@@@@@0k3B+@@-:@o           ",
"     7lgddlXV.sddddX@@@@@@:2.2:@@@=@=           ",
"     @ddddcC#icddddX@@@@@0o..CO@@@O+@           ",
"    ,Odddds<#rcddddX@@@@@O22ii*@@@+@@,          ",
"    X=dddch&7vcdddd<@@@@@e2.ylz@@@@@@*          ",
"    o3ddcyZX7Nyfddd<@@@@0o.wyy.u@@@@@=          ",
"    *=gclo, O>wsdddg0@@@0X2yyy<*@@@@@:          ",
"    o*sto.  *=iydddd=@@@7X&yyyyo@@@@@@.         ",
"    .0giX   ,-Cygdddo@@@7Xiyyyyo@@@@@@X         ",
"     +l2     03lhffdy@@@#2&yyyynO@@@@@*         ",
"     O.2     %:iyytgye@@7,.yyyyrb@@@@@7         ",
"     ,*<      :vyyhyy<k@7.Byyyy&A0@@@@:         ",
"      <       o+2ycyyy<kN&<yyyylo:@@@@@         ",
"               O;2yyytyyyyyyyyyyoO@@@@@.        ",
"               2++,lcyyyyyyyyyyyo>@@@@@X        ",
"                X++N>pyye&yyyyy<,e0@@-O%        ",
"                 *@=NoB2=-2wyyywX%=@@:*-2       ",
"             ,***OX=-SXD:@az2il<Xv*O@@#>Oo      ",
"             -AS3<w2,Ou*e@@@u=S*=7-@@@@@-@:,    ",
"             %7S0Xvo2$=3Xr%F%*b33V2*:@@@@@@@X   ",
"              2*7::>kbMccl<<<<&.Xoo  .X%****.   ",
"                 ..  2*>>>>>>>::07o             ",
"                                                "};
