/* XPM */
static char * PhoneTTOffhook_xpm[] = {
"47 40 65 1",
" 	c None",
".	c #C71BC71BC71B",
"X	c #9E799E79A699",
"o	c #CF3CDF7DDF7D",
"O	c #30C249244924",
"+	c #618569A669A6",
"@	c #59657DF78617",
"#	c #96589A699E79",
"$	c #86179A699E79",
"%	c #51445D756185",
"&	c #28A23CF34103",
"*	c #186128A228A2",
"=	c #18611C712081",
"-	c #186114511040",
";	c #082004100820",
":	c #28A238E34924",
">	c #30C249244103",
",	c #410359655144",
"<	c #596579E779E7",
"1	c #000000000000",
"2	c #30C23CF338E3",
"3	c #514451445144",
"4	c #71C679E779E7",
"5	c #618571C679E7",
"6	c #186118611861",
"7	c #000008200820",
"8	c #208120812081",
"9	c #28A228A228A2",
"0	c #38E341034924",
"q	c #69A68A289658",
"w	c #8E388E388E38",
"e	c #8617861779E7",
"r	c #38E34D345144",
"t	c #5144659569A6",
"y	c #28A234D338E3",
"u	c #E79DE38DE79D",
"i	c #CF3CCF3CCF3C",
"p	c #51446DB671C6",
"a	c #8E38AEBAB6DA",
"s	c #492459655965",
"d	c #410349245144",
"f	c #082010401040",
"g	c #082010400820",
"h	c #28A224922081",
"j	c #30C234D338E3",
"k	c #28A234D34103",
"l	c #A699B2CAB6DA",
"z	c #79E77DF779E7",
"x	c #28A234D328A2",
"c	c #410341034103",
"v	c #30C230C230C2",
"b	c #082000000820",
"n	c #000004100000",
"m	c #79E78E388E38",
"M	c #861782078617",
"N	c #8E38A289AEBA",
"B	c #618571C669A6",
"V	c #38E33CF34103",
"C	c #AEBAAAAAAEBA",
"Z	c #AEBAB6DAB6DA",
"A	c #596571C679E7",
"S	c #B6DAC30BC71B",
"D	c #A699AEBAAEBA",
"F	c #FFFFFBEEFFFF",
"G	c #EFBEEFBEF7DE",
"                                               ",
"                                               ",
"                .XoO+@#$@%&*==-;-**:>,<*1&21   ",
"              3#X44<5O*6-71111111890,q:116,7+  ",
"            Xweq5%O*8;11111699:rO,ttq@1111yr;  ",
"         uipaqsd09=fg-hjk&*ff11111kql>1111-Oy1 ",
"         3z<s%,>*f*ykx7111c222cc2c;1;v111b6ksf ",
"        t+bng8s0g69n113            6Ok9j9kk&>07",
"        l*1111-:*x11                *7f;f7;77;;",
"       +m,n1111*&11                 91111111111",
"      Mb.,;11117:1                  31111111111",
"    1119i,=11111h&  l                11111111-3",
"    67  lt9f11n*y5  111         111     MMMM5  ",
"   9 3  Nprd:k*=f1  111dccccccc3111            ",
"  &16 + aap,k;1111v 111111111111111            ",
"   l1-M  +61111111h1111111111111111            ",
" +n %   2111111147.11111111111111111           ",
" b11 M  b11111M  -1111111111111111111+         ",
" 3 81    112    hbh----;;77bbb11nb11111        ",
" 1d 1          >.aaa$$#aNw$w4Bmm3d0>Vkn1       ",
"+ h11          wC@@p5tl#awlNq$ZN3>rrc091       ",
" 3 51         Zom@<A<%ls4B$m,t$m>rO0V>21       ",
"=8b 1         8o@q<AAtl55sm4d+z4O0r0V&21j      ",
"   -1         +o5<<AA@l4qs$@s@Btk0r0Vj2g1      ",
" 1            mlp@<Ap@%0>>p3>,%%0O0:02&=1      ",
" 1111         oXApAppea@,B$@tpas>0&V2x:81      ",
"    x        Vi$<A<5%q4pjtr92,+&0>>22yk91w     ",
" 1899        Moq@5AAtm##,mNmtsNm52>&2y:v11     ",
" 13 +         o<@AAAp<BB&BtOds<ds0Vvkyv271     ",
" 6 j115     3lSp<AAAps>&yO*8y29*yV2&yyjvf1     ",
"  M1  j-1b2M;iS%pA5ptt,XDX#X##ldxV>v2999b1     ",
"     7 Dg d1DFG#55%%%s,ouuuuuuFB*9xh*=83s1     ",
"   +13  1M+1XGulww$aaa$ZlDDDDXD#zmMe4+ewa>1    ",
"     8j31331SGo<xhxyyyv9998h888xvvv29v%tap1    ",
"       d 111ZGSs;111111111111111111111*,$q6    ",
"           lXFa&7111111111111111111111*dN776   ",
"           ClGq21111111111111111111111*>qSd5   ",
"           4eoq91111111111111111111111x&tqj    ",
"           o2O>*11111111111111111111118v>91    ",
"            o.6n11111111111111111111117bn7.    "};
