/* XPM */
static char * PhoneOld_xpm[] = {
"48 48 64 1",
" 	c None",
".	c #9E7992488E38",
"X	c #79E765955144",
"o	c #79E759654103",
"O	c #69A651444103",
"+	c #51444D344103",
"@	c #A6999E799E79",
"#	c #9E7971C65144",
"$	c #96588A288617",
"%	c #BEFB86174924",
"&	c #861779E779E7",
"*	c #8E3871C66185",
"=	c #9E79820771C6",
"-	c #71C64D3428A2",
";	c #BEFB924830C2",
":	c #EFBEB2CA4103",
">	c #B6DA7DF728A2",
",	c #965865952081",
"<	c #A69979E730C2",
"1	c #28A21C711040",
"2	c #51443CF31861",
"3	c #861755552081",
"4	c #E79DBAEA8617",
"5	c #D75C9E7938E3",
"6	c #9658618530C2",
"7	c #28A224921861",
"8	c #41032CB21861",
"9	c #186110400820",
"0	c #51443CF328A2",
"q	c #410338E338E3",
"w	c #30C21C711040",
"e	c #30C230C228A2",
"r	c #71C66DB669A6",
"t	c #8E3886178617",
"y	c #A699AAAAA699",
"u	c #B6DAA2899658",
"i	c #861771C66185",
"p	c #9E799A699E79",
"a	c #BEFB924869A6",
"s	c #71C671C671C6",
"d	c #000004100000",
"f	c #DF7D92485965",
"g	c #59655D755965",
"h	c #DF7DA69971C6",
"j	c #C71BA6998E38",
"k	c #9E7969A64103",
"l	c #DF7D9A696185",
"z	c #E79DBAEA9E79",
"x	c #C71BBAEAB6DA",
"c	c #DF7DBAEA9E79",
"v	c #FFFFE38DD75C",
"b	c #E79DC30BA699",
"n	c #CF3C9E7971C6",
"m	c #EFBECB2BAEBA",
"M	c #F7DED34CB6DA",
"N	c #FFFFEBADDF7D",
"B	c #F7DEEFBEE79D",
"V	c #FFFFE38DC71B",
"C	c #F7DEF7DEF7DE",
"Z	c #DF7DBAEA9658",
"A	c #E79DD34CCF3C",
"S	c #FFFFDB6CC71B",
"D	c #F7DECB2BAEBA",
"F	c #DF7DB2CA8E38",
"                                                ",
"                                                ",
"                                                ",
"                                                ",
"             .XoOoOOO+OOOOOOOOOOOO.      @##$   ",
"   .#%$$$$$$$&*#####************#*======$-;:>=  ",
"   X::,;;;;;;<XXXooooXXXXXXXXXXXXX12;;;;;3:456  ",
"   65:32222222777878887822888877889977777-5:>o  ",
"   $330qweqqqewwwwwwwwwwwwwwwwwwwwrttt&tt-03-=  ",
"  yu#w%56.   @*06X##**#*iXXXXXX8-op p2e8-8ww2.uy",
"pr072<%2-a     q<#             q>$  s81d98-<>5%#",
"&20#a9ed910u   q<#    @*#=     0<$uuf%#6-3<;:5<-",
" y&g6X0wddO4hj@6;k$$$$-;:>o$$$*;5a ul4z44h44zl%#",
" xpgu%,288cvbO#5:>>>>>3:4:3>>>3::,  nmMMMzMNBV4f",
"p7+.x55<-aCNXp$,>-qqqq19,53qqq0,>6  *0X*uZMANS4n",
"pptp%5:55zVur  $*@   u19,53    =#@  yu=*O080o*%u",
"&7q@=<;5hMb+         u19,53                 @&. ",
" y&p =3%DMXp         u19,53                     ",
"tgpp  %4Mar          u19,53                     ",
"@yt&t nlz+           u19,53                     ",
" g9d.  j=.           u19,53                     ",
" @rt@                u19,53                     ",
"  ge+p              .#19,53*@                   ",
"  pgsy             u#3323<>-a                   ",
"   gqgy          unh%33,,336lnu                 ",
"   t+sx         jhzcZFak6#FZcFhj                ",
"   +7+        yahzcj0ddsp7d1*cS4ny              ",
"  pq9+       un4zj07Btsxp& Bg9=A4lu             ",
"  pt&p      jlzcc1e+Ax+g&9xAtq9=Azln            ",
" p@7+      uhbbMOgxxq1o%f<27 xAdbvbhnu          ",
" @p.&    yn4bDMD9eptqffffffosxtd=Mvbhlj         ",
"@&d7.  xunzbDMDj9Axe<f%fffff9p sODMVx4lj        ",
" x@&   @nzmMMMzaexAg%f<kk<ff8AppOzMMVD4fu       ",
" g7tp ulbDMvDbccdeps2ffffff#+&&d*cbDNvDjlu      ",
"  .7&@ljMVBMmccc0s&Cq0%fffodxCudjccmMBvMjly     ",
"  gp&=lxSBSDccccj9+&  e7Odtp&sw0acccmSBvmlu     ",
"  @tqhhMNvMzccccca9eCAtB sB&&d+uaccczMvNMhn     ",
"   @yfFDvBSDxzccccc*qedtt+7q0jcccczxDSNvDFf     ",
"     fjbMvBNSMDmbcccc=*OOO=jcccbmDMSNBvMbjf     ",
"     %acDMVNBBNvAMDmmxbbbbxmmDMAvNBBNAMDca%     ",
"     %6ncbmMMMSNBBBBBNNNNNNBBBBBNSMMMmbcn66     ",
"     nk6%FccbDMMMMSSSVVvvVVASSMMMMDbccj%6kX     ",
"     u%%6k%njFcbbbbbbmmmmmmxbbbbbcFjn%k6o0.     ",
"      .+0-kkk<%ahhhhjFFFFFFjhhhha%<kk<-w+p      ",
"        yt+2-##k6oookkkkkkkkooo6kkk-2des        ",
"            t+q280--kkkkkk----28997+s           ",
"                p&++++eeeee++++&&.              ",
"                                                "};
