/* XPM */
static char * PrinterHP_xpm[] = {
"48 48 58 1",
" 	c None",
".	c #BEFBBEFBC71B",
"X	c #DF7DDB6CE79D",
"o	c #E79DE79DEFBE",
"O	c #AEBAA699B6DA",
"+	c #EFBEEFBEF7DE",
"@	c #F7DEFBEEF7DE",
"#	c #D75CD75CD75C",
"$	c #69A669A671C6",
"%	c #79E782078617",
"&	c #E79DE38DE79D",
"*	c #F7DEF3CEF7DE",
"=	c #CF3CCF3CD75C",
"-	c #C71BCB2BCF3C",
";	c #B6DAB2CAB6DA",
":	c #6185618571C6",
">	c #000004100820",
",	c #28A228A230C2",
"<	c #492445145144",
"1	c #71C679E779E7",
"2	c #186118612081",
"3	c #30C230C230C2",
"4	c #B6DAB6DABEFB",
"5	c #6185618569A6",
"6	c #2081249228A2",
"7	c #79E771C679E7",
"8	c #10400C301861",
"9	c #30C230C238E3",
"0	c #A699A289AEBA",
"q	c #492449245144",
"w	c #8E388E389658",
"e	c #861786178E38",
"r	c #596561855965",
"t	c #6185659569A6",
"y	c #38E338E34103",
"u	c #71C671C679E7",
"i	c #86177DF78E38",
"p	c #410341034924",
"a	c #30C238E338E3",
"s	c #69A66DB671C6",
"d	c #514455555965",
"f	c #8E388A289E79",
"g	c #9E799A69A699",
"h	c #6185659571C6",
"j	c #9E799A69AEBA",
"k	c #514451446185",
"l	c #5965596569A6",
"z	c #965896589E79",
"x	c #59655D7569A6",
"c	c #38E338E34924",
"v	c #9E7992489E79",
"b	c #8E3886179658",
"n	c #8E3892489E79",
"m	c #A6999E79A699",
"M	c #9E799658A699",
"N	c #EFBEEBADFFFF",
"B	c #69A669A679E7",
"V	c #71C671C68617",
"                                                ",
"                                                ",
"                  .XoX.O                        ",
"                 .+@@@@@o.O                     ",
"                .+#$%&*@@*@o=-                  ",
"               ;*&:>>,<%-=*@@@+X-               ",
"              .X#12>2>>>>3:;.&@@@@o-4           ",
"             =*@5>62782<>>>8950-o+@*@&=4        ",
"            o@4q2238wert3>y9>>>8,$4@*@*@++4O    ",
"           *Oq82,,6>qtu0w$0i88p>>2ao;s;*@*+*#0d2",
"         o.d68psief1taaqd$g0h5j%86;O>>86r;*@-k68",
"      @owrd7g#@@+o@@X;0es<arl%4ed0=>>>>%w86#d,,8",
"   *@-tdi=+*@@+++o*oo&o-.O1<hp6p;ozw66>>>8@p9298",
" o*.gwsr<w=o*@@@@+X+o*&X&o==4xcz**@**OO6c*162q6>",
" +@*@*.g1rqde4o+***Xo+o4vt<681&+@@@@@@**+%239368",
" o*oo+@*=;vwtckw-o+@X;wk326s;+X&oX+o****%8a3,68>",
" *XX#Xo+@o*;0bidcqi1y8626r4oo==-4.==#o-h6,c66yc>",
" *-##+&&o&+@+&==;b56226u.oX.=--4;44X.nqay98yac<>",
" +=;;-=#oo+-+@@*@+#%s5v-+#44;4444-.0x,966,6qpqp>",
" *X4.;O4==&Xo#-=**@*.0.-0n;40O;.;0ea,922,qp<y<a>",
" *o4oo#.;mO=###==--@@+*&#..OvO4m1d,,,,,,ckpy9ca>",
" @X0&@++#;;OO4=X==-.#*+@@+.=4;1pa92a8,pqcccyacc>",
" @X;X#=&&+@&.jMO.-#-.;=&**@*Osc82392aqqcpq,ca<y>",
" *o0++&X=#Xo++=;gmO.4.44;O0od26,322dccpcccpyaqp8",
" *X0*X###&#X=-@*o=wn;0.4;O.;aa6883pqpa9cyc9ypa9>",
" *NfX-+o===&#==.-+*+=%n0;Oj;2883<dqya99yyy99p<c8",
" @&tb7O&X#==--====.4#4#OnzO0226cpc6a999cac9<pcc2",
" ++B.gw1w;&X#--.;;O;4wX+o4zg3y<cc99acaca9ackq,68",
" oou**.web$04#=.;4.;4z#4.-#okqayaa,yyyyyyypp6882",
" =oxoooo@.u11gO;=.444s.O4;4;9,3,ycp9a9yyppp28869",
" p<s&#X=&o*#z%sVO;;O;%#;Ovzf2ca3,39a9aypy9628,pq",
"   8514&--=+X+4rr1g;4%#0gj0O9a<cppcayappa2>29q: ",
"     69tm-..4-#+ogrss%X4OzOfaya9,yycy<y2>8,cp   ",
"        atw-..44XX@zbt=0OzOncacaaayqa22823q     ",
"          8yt;-4;04+#B=wzb0nyyyaccpc2886yd      ",
"            29rw;O4;Od#00wnzy99accc228,p        ",
"              82<s0w0<#zjvwzacac63282y          ",
"        @++***-ed,9sns=zgwbbccpa2282y           ",
"       @@+o+&&oo=id>a<zeznifac3686,             ",
"      @*oo@ooo&Xo-.kdcc,d1nba6282               ",
"     @++oo&+=&X#X-md;4%p6922888,                ",
"    *@*o+&o&##--=0u1=    92622                  ",
"   o@@&oooo###.#-%rgX                           ",
"  Xo*+*oo##=X=--Ot5.#                           ",
"  X+oo&X=XX#==-.g14#-                           ",
" kly<<k<p<q<pcqrqd4X.                           ",
"    e4Xo++#+#X-=;;o4g                           ",
"    s5dyqdq<<<dkkyddl                           "};
