/* XPM */
static char *noname[] = {
/* width height ncolors chars_per_pixel */
"48 48 10 1",
/* colors */
"` c None",
"a c #FFF",
"b c #DDD",
"c c #BBB",
"d c #999",
"e c #777",
"f c #212",
"g c #888",
"h c #666",
"i c #444",
/* pixels */
"````````````````````````````````````````````````",
"````````````````````````````````````````````````",
"````````````````````````````````````````````````",
"````````````````````````````````````````````````",
"```````````````````cee````cedb``````````````````",
"`````````````````chiecdb`cfffidb````````````````",
"```````````````ciiebbchb`gfffffidb``````````````",
"`````````````diiebbdeiib`diifffffidb````````````",
"```````````diigbbdeeehhb`dhehifffffidb``````````",
"`````````difgbbdehgeheeb`dhhhehifffffig`````````",
"````````effigdhihgdeeehb`geeegghiiffffhd````````",
"````````iffffiiec``geehb`gheec`cgiffhcbgd```````",
"````````difffffic``geeib`gheec``gficbcgec```````",
"`````````ghifffifhdgeiib`gihgcdiidbbdeed````````",
"``````````giiiffffiihiib`gfhiiigbbdeeedb````````",
"`````begb``chiifffffiiib`gffiebbceeggc```c``````",
"`````fffic```chiifffffidciiecbcgeegc```ciigc````",
"`````fffffhb``bgihifffffihcacggeecb``beieccg````",
"`````hiffffig```chihifffhbbggghgb``bgihcbcgg````",
"`````gghfffffic```dihiffigggeec```dihdbcgegc````",
"`````eggeifffffeb`cifheheeghic``chigbbdegdgc````",
"`````ggeeghiffffieifieieehiiihggiecbcggdgggc````",
"`````gggigdeiffffffihiecbeiffiihcbcgegdhhggc````",
"`````ggehc`cgeifffiiiib```eiihcbbggdcbcihggc````",
"`````gggec`dieghffffieb``biigbbdegdec`biegg`````",
"`````gggegiigdegeiffigghehffgcggcgifiddiegg`````",
"`````ggegiecceiieehiiehiiiiiiggghiffifiiegd`````",
"`````dggegcghhhd`cgggggdiiggggcbgiiifffiggd`````",
"`````degehhhhd```cegdghifiggggc``bhiiifiegd`````",
"`````dgghhegb``ciiggggihhigggdheb``chiiiggd`````",
"`````chhigc``beifiegggh``hgggdhfid``bgifegc`````",
"``````cgc```dihgeiegggh``eegdgifffhc``begdb`````",
"``````````chhgdeiheggee``eggggifffffeb``````````",
"`````````eiigghigdeggeg``eeggdgifffffic`````````",
"````````cffifihc`beggge``egggdbcgiffiggb````````",
"````````cifffffd`beggeg``egggd``ciiebcgc````````",
"`````````giiffffgceedeg``eeggcbgiicbdeg`````````",
"``````````geifffiihggeg``eggggiiebbegd``````````",
"```````````ceifffiigggg``eggdgecbgedc```````````",
"````````````bghiffhggeg``hgggdbcegc`````````````",
"``````````````ceifigdeg``hgggdgggc``````````````",
"```````````````bgiigggd``hggdggd````````````````",
"`````````````````diegec``eeggdc`````````````````",
"``````````````````cggd```cggdb``````````````````",
"````````````````````````````````````````````````",
"````````````````````````````````````````````````",
"````````````````````````````````````````````````",
"````````````````````````````````````````````````"
};
