/* XPM */
static char * StormWatch_kirc_xpm[] = {
"60 60 178 2",
"  	c None",
". 	c #492469A64924",
"X 	c #51447DF75144",
"o 	c #59658A286185",
"O 	c #492465954924",
"+ 	c #596579E76185",
"@ 	c #596575D66185",
"# 	c #514475D66185",
"$ 	c #514471C66185",
"% 	c #38E34D344103",
"& 	c #596569A671C6",
"* 	c #59656DB671C6",
"= 	c #618571C671C6",
"- 	c #5144659569A6",
"; 	c #49245D755965",
": 	c #492465955144",
"> 	c #596582076185",
", 	c #71C69E7979E7",
"< 	c #71C6A28979E7",
"1 	c #71C6A69979E7",
"2 	c #71C6AAAA79E7",
"3 	c #71C6AEBA79E7",
"4 	c #79E7AEBA79E7",
"5 	c #965882076185",
"6 	c #69A6965869A6",
"7 	c #71C69A6979E7",
"8 	c #69A69A6979E7",
"9 	c #69A6965879E7",
"0 	c #69A6924879E7",
"q 	c #69A68E3871C6",
"w 	c #69A68A2871C6",
"e 	c #5144618569A6",
"r 	c #49244D345144",
"t 	c #618575D671C6",
"y 	c #9E796DB65144",
"u 	c #492461855965",
"i 	c #514469A65965",
"p 	c #51446DB65965",
"a 	c #BEFB9E7971C6",
"s 	c #71C6A28971C6",
"d 	c #79E7820769A6",
"f 	c #492459655965",
"g 	c #596571C671C6",
"h 	c #61856DB671C6",
"j 	c #C71B8E3871C6",
"k 	c #79E77DF779E7",
"l 	c #C71B861769A6",
"z 	c #6185820771C6",
"x 	c #69A6861771C6",
"c 	c #9E798E3871C6",
"v 	c #79E79E7971C6",
"b 	c #96589A6979E7",
"n 	c #C71B9E7979E7",
"m 	c #AEBA9A6979E7",
"M 	c #79E78A2871C6",
"N 	c #410355555144",
"B 	c #A699861779E7",
"V 	c #CF3C8A2869A6",
"C 	c #9E798A2879E7",
"Z 	c #9E7969A65144",
"A 	c #41034D344924",
"S 	c #61857DF771C6",
"D 	c #A699965879E7",
"F 	c #DF7D965879E7",
"G 	c #79E7861769A6",
"H 	c #A6999E7979E7",
"J 	c #96589E7979E7",
"K 	c #C71BA69979E7",
"L 	c #CF3CA28979E7",
"P 	c #D75C9A6971C6",
"I 	c #79E7965869A6",
"U 	c #BEFBA28979E7",
"Y 	c #E79D9A6979E7",
"T 	c #A69971C65965",
"R 	c #8E388E3879E7",
"E 	c #618579E771C6",
"W 	c #D75C9A6979E7",
"Q 	c #D75C965879E7",
"! 	c #96587DF771C6",
"~ 	c #BEFB924879E7",
"^ 	c #86176DB66185",
"/ 	c #A699924879E7",
"( 	c #DF7D9A6979E7",
") 	c #861779E76185",
"_ 	c #8617AAAA79E7",
"` 	c #D75C8E3871C6",
"' 	c #618586176185",
"] 	c #9E799A6979E7",
"[ 	c #41035D754924",
"{ 	c #B6DA9A6979E7",
"} 	c #965861854924",
"| 	c #596571C669A6",
" .	c #DF7D9E7979E7",
"..	c #AEBA75D65965",
"X.	c #9E79924879E7",
"o.	c #E79D9E7979E7",
"O.	c #9658AAAA79E7",
"+.	c #B6DA79E76185",
"@.	c #410361854924",
"#.	c #71C69A6971C6",
"$.	c #71C65D754924",
"%.	c #596575D65965",
"&.	c #8617924879E7",
"*.	c #8617820779E7",
"=.	c #CF3C8E3871C6",
"-.	c #71C679E779E7",
";.	c #96588E3879E7",
":.	c #9E79A69979E7",
">.	c #965865955144",
",.	c #410361854103",
"<.	c #C71B9A6979E7",
"1.	c #9658861779E7",
"2.	c #71C6820779E7",
"3.	c #A699A69979E7",
"4.	c #8E385D754924",
"5.	c #51445D754924",
"6.	c #79E77DF769A6",
"7.	c #AEBAA69979E7",
"8.	c #79E7965879E7",
"9.	c #59656DB66185",
"0.	c #69A661855965",
"q.	c #5965659571C6",
"w.	c #618559655965",
"e.	c #596569A65965",
"r.	c #BEFB9E7979E7",
"t.	c #71C6924871C6",
"y.	c #9E79861779E7",
"u.	c #596571C66185",
"i.	c #71C6A69971C6",
"p.	c #D75C924871C6",
"a.	c #514459655144",
"s.	c #79E769A66185",
"d.	c #69A675D671C6",
"f.	c #71C671C669A6",
"g.	c #618579E769A6",
"h.	c #79E79E7979E7",
"j.	c #71C675D669A6",
"k.	c #69A66DB671C6",
"l.	c #8E38820779E7",
"z.	c #B6DA7DF76185",
"x.	c #618571C669A6",
"c.	c #61857DF769A6",
"v.	c #8E38AAAA79E7",
"b.	c #AEBA71C65965",
"n.	c #410355554924",
"m.	c #71C68A2879E7",
"M.	c #CF3C9A6979E7",
"N.	c #DF7D965871C6",
"B.	c #861765955965",
"V.	c #B6DA8E3879E7",
"C.	c #71C68A2871C6",
"Z.	c #8E38924879E7",
"A.	c #8E387DF76185",
"S.	c #61857DF76185",
"D.	c #8E3861854924",
"F.	c #AEBA861769A6",
"G.	c #9658924879E7",
"H.	c #BEFB82076185",
"J.	c #8E3879E771C6",
"K.	c #8E38861771C6",
"L.	c #AEBA924879E7",
"P.	c #CF3C924871C6",
"I.	c #AEBAA28979E7",
"U.	c #9658AEBA79E7",
"Y.	c #AEBAAAAA79E7",
"T.	c #61858E3869A6",
"R.	c #C71BA28979E7",
"E.	c #CF3C8E3869A6",
"W.	c #492459654924",
"Q.	c #B6DA965879E7",
"!.	c #965865954924",
"~.	c #8E387DF771C6",
"^.	c #71C671C679E7",
"/.	c #965869A65965",
"(.	c #C71B820769A6",
").	c #AEBA79E75965",
"_.	c #A6996DB65144",
"`.	c #C71B8A2869A6",
"                                                                                                                        ",
"                                                                                                                        ",
"                                                                                                                        ",
"                                                                                                                        ",
"                                                                                                                        ",
"                                                                                                                        ",
"                                                                                                                        ",
"                                                                                                                        ",
"                                                                                                                        ",
"                                                                                                                        ",
"                                                                                                                        ",
"                                                                                                                        ",
"                                                                                                                        ",
"                                                                                                                        ",
"                                                                                                                        ",
"                                                                                                                        ",
"                                                                                                                        ",
"                                                                                                                        ",
"                                                                                                                        ",
"                                                                                                                        ",
"                                                                                                                        ",
"                                                                                                                        ",
"                                                        . X o         O + + @ # $ %                                     ",
"  & * * = - ;                       : + > , < < 1 1 2 3 4 3 2 5 6 < , , 7 8 9 0 0 q w                   e * * & & r     ",
"  & * * = t t y     u i i p p       9 8 7 , < < 1 1 2 3 4 3 2 a s < , , 7 8 9 0 0 q w d             f t g * * & h j     ",
"  & * * = t k l   u z z x w c y     9 8 7 , < < 1 1 2 3 4 3 2 a v < , , 7 b n m 0 q w M           N t t g * * & B V     ",
"  & * * = t C Z A S z z x D F       G H J , < < 1 1 2 K K K L P I < , , U Y T   0 q w R T         E t t k W Q ! Y       ",
"  & * * = t ~ ^ S S z z / (           T ) , < < 1 1 _ `         ' < < , ]     [ 0 q w { }       | E t t  ...            ",
"  & * * = t ~ E E S z X.o.                , < < 1 1 O.+.        @.< < , #.$.%.0 0 q &.Y         E E t *.=.              ",
"  & * * = t -.E E S ;.o.                  , < < 1 1 :.>.        ,.< < , 7 8 9 0 0 q <.Z         S E t 1.Z               ",
"  & * * = t t E E 2.o.                    , , < 1 1 3.4.          < < , 7 8 9 0 0 q w 5.        S E t k                 ",
"  & * * g t t E E S 6.                    , , < 1 1 7.            < < , 7 8 8.0 0 q w w 9.      S E t t 0.      q.w.    ",
"  & * * g t t E E S z e.                  , , < 1 1 3.            < < , 7 r.o.t.0 q w w x S     S E t t = * * & & h     ",
"  & * * g y.t E E S z z u.        p 9 8 7 , , < 1 1 2 3 4 i.      < < , J p.  5.0 q w w x z z a.E E t t = * * & & & s.  ",
"  & * * d.( f.E E S z z x g.      + 9 8 7 , , < 1 1 2 3 4 _ T     < < , h.>.    w q w w x z / =.j.E t t = * * & & & k.  ",
"  & * * l.z.  x.E S z z x w c.    0 9 8 7 , , < 1 1 2 3 4 v.b.    s < , 7 T     n.q w w m.M.N.    t t t = * * & & & & B.",
"  & * * V.      E S z z x C.Z.A.  S.8.7 7 , , < 1 1 2 3 4 O.D.    s < , 7 F.      w w G.o.H.        t t = * * & & h V.` ",
"    J.= Q         K.L.<.( ( V ..    +.=.P.<.n U I.3.:.O.U.Y.D.    T.< J R.E.      W.Q.Y !.            ~.d.* * ^.B  .V   ",
"      /.(.          Z                             4.>.).+.+.        P.p._.          >.                  _.`.N.p.H.      ",
"                                                                                                                        ",
"                                                                                                                        ",
"                                                                                                                        ",
"                                                                                                                        ",
"                                                                                                                        ",
"                                                                                                                        ",
"                                                                                                                        ",
"                                                                                                                        ",
"                                                                                                                        ",
"                                                                                                                        ",
"                                                                                                                        ",
"                                                                                                                        ",
"                                                                                                                        ",
"                                                                                                                        ",
"                                                                                                                        ",
"                                                                                                                        ",
"                                                                                                                        ",
"                                                                                                                        ",
"                                                                                                                        ",
"                                                                                                                        ",
"                                                                                                                        "};
