/* XPM */
static char * StormWatch_gimp_xpm[] = {
"60 60 195 2",
"  	c None",
". 	c #38E345144103",
"X 	c #492461855965",
"o 	c #49245D755965",
"O 	c #41034D345144",
"+ 	c #492465955965",
"@ 	c #6185861771C6",
"# 	c #71C69E7971C6",
"$ 	c #514469A66185",
"% 	c #61857DF771C6",
"& 	c #618579E771C6",
"* 	c #618575D671C6",
"= 	c #618571C671C6",
"- 	c #59656DB671C6",
"; 	c #492459656185",
": 	c #69A68A2871C6",
"> 	c #861775D66185",
", 	c #61858A2869A6",
"< 	c #79E78E3869A6",
"1 	c #69A69A6969A6",
"2 	c #71C6AEBA71C6",
"3 	c #596582075965",
"4 	c #6185820771C6",
"5 	c #596569A671C6",
"6 	c #8E388E3871C6",
"7 	c #69A69A6971C6",
"8 	c #86175D754924",
"9 	c #71C6AAAA71C6",
"0 	c #71C6A28971C6",
"q 	c #96587DF779E7",
"w 	c #BEFB82076185",
"e 	c #596575D671C6",
"r 	c #71C68E3871C6",
"t 	c #9E797DF76185",
"y 	c #8E38AAAA79E7",
"u 	c #C71BA69979E7",
"i 	c #CF3CA28979E7",
"p 	c #BEFBA28979E7",
"a 	c #9658AAAA79E7",
"s 	c #71C6A69971C6",
"d 	c #8E387DF779E7",
"f 	c #E79D9A6979E7",
"g 	c #9658861771C6",
"h 	c #69A68E3871C6",
"j 	c #9E7971C65965",
"k 	c #9E79924871C6",
"l 	c #B6DA79E76185",
"z 	c #96588A286185",
"x 	c #79E7924869A6",
"c 	c #492461855144",
"v 	c #69A6861771C6",
"b 	c #A6998E3879E7",
"n 	c #DF7D9A6979E7",
"m 	c #D75C924871C6",
"M 	c #9E79820771C6",
"N 	c #861779E779E7",
"B 	c #861759654924",
"V 	c #96588A2879E7",
"C 	c #A699820769A6",
"Z 	c #8E389E7971C6",
"A 	c #BEFB9E7971C6",
"S 	c #69A67DF75965",
"D 	c #79E7AEBA71C6",
"F 	c #DF7D965871C6",
"G 	c #861761855144",
"H 	c #9E7969A65144",
"J 	c #596571C669A6",
"K 	c #8E38861779E7",
"L 	c #38E351444103",
"P 	c #9E798E3871C6",
"I 	c #49246DB65144",
"U 	c #79E7A28971C6",
"Y 	c #8E385D754924",
"T 	c #B6DA9E7971C6",
"R 	c #AEBA82076185",
"E 	c #D75C9A6979E7",
"W 	c #38E349244924",
"Q 	c #514461855965",
"! 	c #8E38924871C6",
"~ 	c #61858E3869A6",
"^ 	c #AEBA9E7979E7",
"/ 	c #9E7979E75965",
"( 	c #C71B8E3869A6",
") 	c #69A6820771C6",
"_ 	c #D75C8E3871C6",
"` 	c #410351445144",
"' 	c #492455555965",
"] 	c #410359655144",
"[ 	c #86178E3879E7",
"{ 	c #71C69A6971C6",
"} 	c #DF7D965879E7",
"| 	c #9E79924869A6",
" .	c #618592486185",
"..	c #C71B861769A6",
"X.	c #71C6820779E7",
"o.	c #B6DA7DF76185",
"O.	c #514469A65965",
"+.	c #B6DA965879E7",
"@.	c #9E7975D65965",
"#.	c #96589E7979E7",
"$.	c #BEFB7DF76185",
"%.	c #596575D65965",
"&.	c #96589E7971C6",
"*.	c #59658A285965",
"=.	c #CF3CA69979E7",
"-.	c #69A67DF771C6",
";.	c #AEBA79E75965",
":.	c #79E779E779E7",
">.	c #9658861779E7",
",.	c #C71B8A2869A6",
"<.	c #596575D669A6",
"1.	c #C71B924879E7",
"2.	c #71C6820769A6",
"3.	c #9E79861769A6",
"4.	c #8E3861854924",
"5.	c #8617AAAA71C6",
"6.	c #61857DF75965",
"7.	c #51447DF75144",
"8.	c #BEFBA69979E7",
"9.	c #9E7975D66185",
"0.	c #596565956185",
"q.	c #9658820779E7",
"w.	c #86177DF779E7",
"e.	c #38E349244103",
"r.	c #C71B924871C6",
"t.	c #618561855144",
"y.	c #596579E75965",
"u.	c #C71B9A6979E7",
"i.	c #8E3882076185",
"p.	c #D75CA28979E7",
"a.	c #8E3879E769A6",
"s.	c #9E796DB65144",
"d.	c #71C675D671C6",
"f.	c #9E79861779E7",
"g.	c #965865955144",
"h.	c #CF3C8A2869A6",
"j.	c #71C6924871C6",
"k.	c #69A6965871C6",
"l.	c #514479E75965",
"z.	c #8E389A6971C6",
"x.	c #9E79AAAA79E7",
"c.	c #A699A69979E7",
"v.	c #AEBAA69979E7",
"b.	c #D75C9E7979E7",
"n.	c #A6996DB65144",
"m.	c #618579E769A6",
"M.	c #71C68A2879E7",
"N.	c #6185820769A6",
"B.	c #69A6924871C6",
"V.	c #8E3879E76185",
"C.	c #8E389A6979E7",
"Z.	c #79E761854924",
"A.	c #A69971C65965",
"S.	c #514461856185",
"D.	c #59656DB669A6",
"F.	c #71C675D679E7",
"G.	c #8E388E3879E7",
"H.	c #AEBA75D65965",
"J.	c #410355554103",
"K.	c #79E78E3871C6",
"L.	c #8E388E3869A6",
"P.	c #596571C66185",
"I.	c #8617861779E7",
"U.	c #9E79924879E7",
"Y.	c #8617A28971C6",
"T.	c #79E775D65965",
"R.	c #AEBA9E7971C6",
"E.	c #69A67DF769A6",
"W.	c #A699861779E7",
"Q.	c #AEBA965879E7",
"!.	c #86179A6979E7",
"~.	c #9E798A2869A6",
"^.	c #69A679E769A6",
"/.	c #61856DB671C6",
"(.	c #AEBA8A2879E7",
").	c #C71B965879E7",
"_.	c #BEFB9E7979E7",
"`.	c #59656DB64924",
"'.	c #79E7A69971C6",
"].	c #BEFB965871C6",
"[.	c #71C6820771C6",
"{.	c #D75C965879E7",
"}.	c #CF3C8E3871C6",
"|.	c #79E78A2879E7",
" X	c #61856DB65965",
".X	c #A6999A6979E7",
"XX	c #C71B9A6971C6",
"oX	c #AEBA861769A6",
"OX	c #A6998A2879E7",
"+X	c #BEFB924879E7",
"@X	c #B6DA924879E7",
"#X	c #BEFB8E3871C6",
"$X	c #514471C65144",
"%X	c #8617AAAA79E7",
"&X	c #79E771C66185",
"                                                                                                                        ",
"                                                                                                                        ",
"                                                                                                                        ",
"                                                                                                                        ",
"                                                                                                                        ",
"                                                                                                                        ",
"                                                                                                                        ",
"                                                                                                                        ",
"                                                                                                                        ",
"                                                                                                                        ",
"                                                                                                                        ",
"                                                                                                                        ",
"                                                                                                                        ",
"                                                                                                                        ",
"                                                                                                                        ",
"                                                                                                                        ",
"                                                                                                                        ",
"                                                                                                                        ",
"                                                                                                                        ",
"                                                                                                                        ",
"                                                                                                                        ",
"                . X o o o O                                   + @                 #                                     ",
"            $ % & & * * = = - ;                               : : >             , # <             1 2 2 2 2 3           ",
"          4 % % & & * * = = - - 5                 %           : : 6             7 # # 8         9 2 2 2 2 2 2 2 0       ",
"        4 4 % % & & * * = = - - q w             e % >         : : r             7 # # t         9 2 y u i p a 2 2 s     ",
"      4 4 4 % % & & * * = = - d f               & % g         : : h j           7 # # k         9 2 u l       z 2 2 x   ",
"    c v 4 4 % % & b n m M = N f B               & % V         : : h C           7 # # Z         9 2 A           S 2 D   ",
"    v v 4 4 % % V F       G m H                 J % K       L : : h P         I 7 # # U Y       9 2 T             2 2 R ",
"    v v 4 4 % % E                         W     Q % V       L : : h !         ~ 7 ^ # 0 /       9 2 T             2 2 ( ",
"    v v 4 4 % ) _           ` ' 5 5 - - = =     X % V       ] : [ h r         7 { } { 0 |       9 2 T            .2 y ..",
"  L v v 4 4 % X.l     * = = - - 5 5 - - = = o.  X % V       O.: +.h h @.      7 #.$.%.0 &.      9 2 T         *.2 2 =.H ",
"  L v v 4 4 % -.;.    * = = - - 5 5 - = :.>.,.  ` % V       <.: 1.2.h 3.      7 ^ 4.  0 0       9 2 5.6.7.1 2 2 D 8._   ",
"    v v 4 4 % % 9.    0.q.w.- - 5 5 - d } o.    e.% V       v : r.t.h 6     y.7 u.    # 0 i.    9 2 2 2 2 2 2 a p._     ",
"    v v 4 4 % % a.      s.d.- - 5 5 - f.g.      e.% K       v : h.  h j.    k.{ m     l.0 z.    9 2 x.c.v.8.b.m n.      ",
"    m.v 4 4 % % &         = - - 5 5 - 1.        e.% K       v M.w   N.B.V.  k.C.$.      0 s Z.  9 2 p A.Y 8             ",
"      v 4 4 % % & & S.D.= = - - 5 5 F.m         e.% K Y     v G.H.  J.B.K.2.k.^ 4.      0 s L.  9 2 T                   ",
"      P.4 4 % % & & * * = = - - 5 - 1.n.        e.% I.Y   ] v U.4.    B.B.k.k.E         y.s Y.T.9 2 R.                  ",
"        E.4 % % & & * * = = - - 5 W.m           e.% I.Y   O.v Q.      N.B.k.!._           s s ~.9 2 T                   ",
"          ^.% % & & * * = = - /.(.F             e.% K Y   <.v ).        B.k._.H           `.'.].9 2 T                   ",
"            a.[.& & * * = = d {.}.              e.% V Y   <.|.m          X.XF               H H.9 2 XX                  ",
"              4.oX(.OXOX+Xn m H                   % @X      #Xn.          g.                    $X%Xm                   ",
"                      Y                           &X}                                             H.H                   ",
"                                                                                                                        ",
"                                                                                                                        ",
"                                                                                                                        ",
"                                                                                                                        ",
"                                                                                                                        ",
"                                                                                                                        ",
"                                                                                                                        ",
"                                                                                                                        ",
"                                                                                                                        ",
"                                                                                                                        ",
"                                                                                                                        ",
"                                                                                                                        ",
"                                                                                                                        ",
"                                                                                                                        ",
"                                                                                                                        ",
"                                                                                                                        ",
"                                                                                                                        ",
"                                                                                                                        "};
