/* XPM */
static char * StormWatch_bx_xpm[] = {
"60 60 167 2",
"  	c None",
". 	c #38E349245144",
"X 	c #5144618569A6",
"o 	c #596569A671C6",
"O 	c #59656DB671C6",
"+ 	c #618575D671C6",
"@ 	c #618579E771C6",
"# 	c #61857DF771C6",
"$ 	c #6185820771C6",
"% 	c #514471C66185",
"& 	c #492461855144",
"* 	c #596575D669A6",
"= 	c #51445D7569A6",
"- 	c #492455555965",
"; 	c #410351445965",
": 	c #596571C671C6",
"> 	c #69A6861771C6",
", 	c #69A68A2871C6",
"< 	c #514471C65965",
"1 	c #410359654103",
"2 	c #6185820769A6",
"3 	c #69A665955965",
"4 	c #69A68E3871C6",
"5 	c #618575D65965",
"6 	c #596582076185",
"7 	c #69A69A6971C6",
"8 	c #69A6924871C6",
"9 	c #514459656185",
"0 	c #38E341034924",
"q 	c #514479E75144",
"w 	c #71C6A69971C6",
"e 	c #71C6A28971C6",
"r 	c #71C69E7971C6",
"t 	c #69A671C669A6",
"y 	c #861775D679E7",
"u 	c #9E79820779E7",
"i 	c #9658820779E7",
"p 	c #69A679E771C6",
"a 	c #69A6965871C6",
"s 	c #9E79861769A6",
"d 	c #69A69E7969A6",
"f 	c #71C6AEBA71C6",
"g 	c #71C6AAAA71C6",
"h 	c #69A659655144",
"j 	c #5965659571C6",
"k 	c #9E797DF771C6",
"l 	c #DF7D965879E7",
"z 	c #AEBA75D65965",
"x 	c #8E3861854924",
"c 	c #9E796DB65965",
"v 	c #79E779E771C6",
"b 	c #AEBA924871C6",
"n 	c #69A68E386185",
"m 	c #618571C671C6",
"M 	c #A699861779E7",
"N 	c #DF7D965871C6",
"B 	c #C71B965871C6",
"V 	c #71C692486185",
"C 	c #69A669A66185",
"Z 	c #861779E771C6",
"A 	c #8617965879E7",
"S 	c #D75C924871C6",
"D 	c #618561856185",
"F 	c #8E387DF779E7",
"G 	c #E79D9A6979E7",
"H 	c #79E775D679E7",
"J 	c #410355555144",
"K 	c #CF3C9E7979E7",
"L 	c #9E796DB65144",
"P 	c #71C68E386185",
"I 	c #6185861771C6",
"U 	c #861779E779E7",
"Y 	c #DF7D9A6979E7",
"T 	c #69A66DB671C6",
"R 	c #9E7969A65144",
"E 	c #41034D345144",
"W 	c #BEFB9A6979E7",
"Q 	c #CF3C8A2869A6",
"! 	c #71C68A286185",
"~ 	c #9E7965955144",
"^ 	c #8E3871C66185",
"/ 	c #410349244924",
"( 	c #79E7924871C6",
") 	c #69A671C65965",
"_ 	c #71C686176185",
"` 	c #71C671C679E7",
"' 	c #A6996DB65144",
"] 	c #71C682076185",
"[ 	c #61856DB671C6",
"{ 	c #D75C9A6979E7",
"} 	c #69A682076185",
"| 	c #965879E771C6",
" .	c #410349245144",
"..	c #79E779E779E7",
"X.	c #8E38820779E7",
"o.	c #8617820779E7",
"O.	c #79E7965869A6",
"+.	c #69A67DF76185",
"@.	c #492449244924",
"#.	c #38E341034103",
"$.	c #D75C8E3871C6",
"%.	c #B6DA7DF76185",
"&.	c #9E797DF769A6",
"*.	c #8E3865955144",
"=.	c #96587DF779E7",
"-.	c #B6DA861769A6",
";.	c #79E775D671C6",
":.	c #C71B8A2869A6",
">.	c #59657DF76185",
",.	c #965861854924",
"<.	c #38E34D344924",
"1.	c #8E38A28979E7",
"2.	c #BEFB82076185",
"3.	c #492465954924",
"4.	c #71C69A6971C6",
"5.	c #861771C669A6",
"6.	c #492455555144",
"7.	c #BEFBA28979E7",
"8.	c #965865954924",
"9.	c #69A69E7971C6",
"0.	c #96589E7979E7",
"q.	c #618592486185",
"w.	c #69A6820771C6",
"e.	c #BEFB924879E7",
"r.	c #86177DF771C6",
"t.	c #8E389A6979E7",
"y.	c #DF7D9E7979E7",
"u.	c #71C6861771C6",
"i.	c #CF3C9A6979E7",
"p.	c #61856DB669A6",
"a.	c #A699820779E7",
"s.	c #9E799A6979E7",
"d.	c #E79D9E7979E7",
"f.	c #61857DF75965",
"g.	c #86178E3879E7",
"h.	c #BEFB7DF76185",
"j.	c #618569A671C6",
"k.	c #C71B861769A6",
"l.	c #8617924879E7",
"z.	c #C71B9A6979E7",
"x.	c #71C6965869A6",
"c.	c #9658924879E7",
"v.	c #A6996DB65965",
"b.	c #D75C965879E7",
"n.	c #96588E3879E7",
"m.	c #B6DA79E75965",
"M.	c #A6999A6979E7",
"N.	c #8E385D754924",
"B.	c #514449244924",
"V.	c #CF3C924879E7",
"C.	c #DF7D924871C6",
"Z.	c #965865955144",
"A.	c #B6DA820769A6",
"S.	c #A699861771C6",
"D.	c #9E79861779E7",
"F.	c #B6DA8E3879E7",
"G.	c #CF3C965879E7",
"H.	c #BEFB9E7979E7",
"J.	c #596555555144",
"K.	c #BEFB8E3879E7",
"L.	c #A69971C65965",
"P.	c #69A675D65965",
"I.	c #C71B9E7979E7",
"U.	c #CF3C8E3869A6",
"Y.	c #59655D756185",
"T.	c #AEBA8A2879E7",
"R.	c #AEBA79E76185",
"                                                                                                                        ",
"                                                                                                                        ",
"                                                                                                                        ",
"                                                                                                                        ",
"                                                                                                                        ",
"                                                                                                                        ",
"                                                                                                                        ",
"                                                                                                                        ",
"                                                                                                                        ",
"                                                                                                                        ",
"                                                                                                                        ",
"                                                                                                                        ",
"                                                                                                                        ",
"                                                                                                                        ",
"                                                                                                                        ",
"                                                                                                                        ",
"                                                                                                                        ",
"                                                                                                                        ",
"                . X o o o o o O + @ # $ %                                   & *                     = -                 ",
"          ; o o o o o o o o o : + @ # $ > , <                         1 2 , > $ 3                 ; o o o               ",
"        X o o o o o o o o o o : + @ # $ > , 4 5                   6 7 8 4 , > $ #                 o o o o o 9           ",
"        0 o o o o o o o o o o : + @ # $ > , 4 8             q w e r 7 8 4 , > $ # t             o o o o o o o o         ",
"          o o o o o o o o y u i p @ # $ > , 4 a s       d f g w e r 7 8 4 , > $ # @ h         j o o o o o o o o k       ",
"          o o o o o o o u l z x c v # $ > , 4 a b       n f g w e r 7 8 4 , > $ # @ m       = o o o o o o o o M N       ",
"          o o o o o o o u           # $ > , 4 a B         V g w e r a 8 4 , > $ # @ + C   ; o o o o o o o o i N         ",
"          o o o o o o o Z           # $ > , 8 A S           V w e r a 8 4 , > $ # @ + O D o o o o o o o o F G           ",
"          - o o o o o o H         J # $ > , 8 K L             P e r a 8 4 , I $ # @ m O o o o o o o o o U Y             ",
"          - o o o o o o T R     E @ # $ > , W Q                 ! r a 8 4 , I $ # @ m O o o o o o o o H Y ~             ",
"          - o o o o o o o ^ / O + @ # $ > , ( )                   _ a 8 4 , I $ # @ m O o o o o o o ` Y '               ",
"          - o o o o o o o o O m + @ # $ > 4 8 a a                   ] 8 4 , I $ # @ m O o o o o o [ { z                 ",
"          - o o o o o o o o O m + @ # $ > 4 8 a 7 r                   } 4 , I $ # + m O o o o o o o |                   ",
"           .o o o o o o o o [ ..X.o.# $ > 4 8 a 7 r O.                  +., I $ # + m O o o o o o o o @.                ",
"          #.o o o o o o o U Y $.%.z &.$ > 4 8 a 7 r e *.                  > I $ # + m O o o o o o o o o @.              ",
"          #.o o o o o o o =.R         $ , 4 8 a 7 r e -.                2 , I $ # + m O o o o o o o o o o @.            ",
"          #.o o o o o o o ;.          $ , 4 8 a 7 r e :.            >.8 4 , I $ @ + m O o o o o o o o o o o @.          ",
"            o o o o o o o [ ,.    <.# $ , 4 8 a 7 r 1.2.        3.4.a 8 4 , I $ @ + m O o o o o o o o o o o o @.        ",
"            o o o o o o o o 5.6.+ @ # $ , 4 8 a 7 r 7.8.      9.r 4.a 8 4 , I $ @ + m O o o o o o o o o o o o o @.      ",
"            o o o o o o o o O m + @ # I , 4 8 a 7 0.N     q.g e r 4.a 8 4 , I w.e.r.m O o o o o o o o o o o o o o @.    ",
"            o o o o o o o o O m + @ # I , 4 8 a t.y.,.    f g e r 4.a 8 4 , u.i.Q   p.O o o o o o o o o o o o o [ a.    ",
"            o o o o o o o o O m + @ # I , 4 8 s.d.L       f.g e r 7 a 8 4 g.y.h.      [ o o o o o o o o o o j.u Y k.    ",
"            j o o o o o o o O m + @ # I , l.z.N             x.e r 7 a 8 c.d.v.          o o o o o o o o o F b.$.        ",
"              | T o o o o o O m + @ w.n.z.Y m.                r r 7 a M.G N.            B.o o o o o o H V.C.,.          ",
"                Z.A.S.u =.F F D.F.G.Y :.Z.                      r 4.H.N                   J.o o o ` K.Y v.              ",
"                        N.L.z L N.                              P.I.U.                      Y.T T.G m.                  ",
"                                                                  ,.                          R.2.                      ",
"                                                                                                                        ",
"                                                                                                                        ",
"                                                                                                                        ",
"                                                                                                                        ",
"                                                                                                                        ",
"                                                                                                                        ",
"                                                                                                                        ",
"                                                                                                                        ",
"                                                                                                                        ",
"                                                                                                                        ",
"                                                                                                                        ",
"                                                                                                                        ",
"                                                                                                                        ",
"                                                                                                                        ",
"                                                                                                                        "};
