/* XPM */
static char * Tablet[] = {
"48 48 60 1",
" 	c None",
".	c #9E79A2899E79",
"X	c #000000000000",
"o	c #514451445144",
"O	c #EFBEEFBEEFBE",
"+	c #410351445144",
"@	c #514451446185",
"#	c #514461856185",
"$	c #5144514471C6",
"%	c #6185618571C6",
"&	c #208130C230C2",
"*	c #618551446185",
"=	c #6185514471C6",
"-	c #618561856185",
";	c #30C230C230C2",
":	c #30C230C24103",
">	c #5144618571C6",
",	c #30C2208130C2",
"<	c #618561858617",
"1	c #514471C671C6",
"2	c #618571C671C6",
"3	c #EFBEDF7DEFBE",
"4	c #DF7DEFBEDF7D",
"5	c #DF7DDF7DDF7D",
"6	c #EFBEDF7DDF7D",
"7	c #DF7DCF3CDF7D",
"8	c #CF3CCF3CCF3C",
"9	c #CF3CCF3CDF7D",
"0	c #CF3CBEFBCF3C",
"q	c #BEFBCF3CCF3C",
"w	c #DF7DEFBEEFBE",
"e	c #DF7DDF7DEFBE",
"r	c #CF3CDF7DDF7D",
"t	c #CF3CDF7DCF3C",
"y	c #EFBEEFBEDF7D",
"u	c #BEFBBEFBCF3C",
"i	c #BEFBBEFBBEFB",
"p	c #BEFBCF3CBEFB",
"a	c #618571C68617",
"s	c #71C661858617",
"d	c #618520812081",
"f	c #AEBAAEBABEFB",
"g	c #6185208130C2",
"h	c #AEBABEFBBEFB",
"j	c #71C671C69658",
"k	c #AEBAAEBAAEBA",
"l	c #BEFBAEBABEFB",
"z	c #71C661859658",
"x	c #618571C69658",
"c	c #618582079658",
"v	c #CF3CBEFBDF7D",
"b	c #BEFBAEBACF3C",
"n	c #AEBAA289BEFB",
"m	c #9E79AEBAAEBA",
"M	c #AEBAA289AEBA",
"N	c #618561859658",
"B	c #71C671C69E79",
"V	c #71C682079E79",
"C	c #71C68207AEBA",
"Z	c #86178207AEBA",
"                                         .XXX   ",
"                                        .XoooX  ",
"                                       .Xo   Xo ",
"          ........       .......      .Xo    .X ",
"         .oooooooooo......oooooo..  ooXo     .X ",
"       .oo.      ...oooooo..    oo..ooX     .Xo ",
"      .oo XXXXX                  .O.oXo.. ..oX  ",
"      .o X     XX               .O.oXo ooooXo   ",
"      .X X        X X X  X     .O.oXo           ",
"      .X X                    .O.oXo            ",
" OOOOOOOOOOOOOOOOOOOOOOOOOOOO.O.oXoOOX          ",
" O+@+@#@#$#$#$#%#$#%#$#$#$#@#O.oXo+o&X          ",
" Ooo@o@#*#=#=#=#=-=#=#=#*#*#O.oXoo@o;XX         ",
" O+o;:&o;o&:;%>%>%>%>%>=>%#O.oXo#@+@;XXX        ",
" O@@@#=#=#=%%>%%%>%%%;,;=#O.oXo;:;@o:XXX        ",
" O#@#$>%>%><><1<1<1<>:&:>O.oXo#:&:#@&XXX        ",
" O*#=-%>%%<%<%<2<%<%<%<%O.oXo#=#*#@o;XXX        ",
" O#:;:&:;:&:;:&:;:&:;:2O.oX:;:&:;:&@;XXX        ",
" O=;OO3O3434356555757.O.oXo898080q3@:XXX        ",
" O>:OOwOw3434e4555r5.O.oXot989q8q0O@&XXX        ",
" O%;OO3y34346555757.O.oXo898080q0qO#;XXX        ",
" O>:OOw3w34e4e5e55.O.oXot98988q0q0O$;XXX        ",
" O%;3435356555757.O.oXo898080q0u0i3#:XXX        ",
" O2:43434e45r5r5.O.oXot9q9q8q0q0puO%&XXX        ",
" O<;34356555757.O.oXo888080q0q0i0iO#;XXX        ",
" Oa:434e555e55.O.oXot989q8q0q0u.quO=;XXX        ",
" Os;356555757.d.oXo888080q0uf..iui3#:XXX        ",
" Oa:4e45r5r5.g.oXot9q9q8quh..fpuhuO%&XXX        ",
" Oj;6555757.d.oXo888080k...i0iuiliO#;XXX        ",
" Oa:55r5r5.O.oXo89q9qf...uiuiuhuhuO%;XXX        ",
" Oz;55757.O.oXo8880....k0i0iuililh3%:XXX        ",
" Ox:r5r5.O.oXot9p....uqupupuhuhihfO%&XXX        ",
" Oj;757.O.oXo80....i0i0i0iuililhlfO#;XXX        ",
" Ox:r7r7.oXo8....uququiuiuhuhlhfhfO%;XXX        ",
" Oj;7t78oXo....i0p0iui0iuililhlflk3#:XXX        ",
" Oc:r9toXo...9q0ququpuiuhuhlhfhfhfO%&XXX        ",
" Oj;78Xo...8080p0i0i0iuililhlflklkO#;XXX        ",
" Oa:ro...8qvq0ququiuiuhbhlhfhfffffO=;XXX        ",
" Oz;9888080q0p0iuiuibilhlhlffkfknk3#:XXX        ",
" Oa:8988q8q0ququiuiuhuhlhfhfkfkfmnO>&XXX        ",
" O<;8888080p0i0iiiiililhlklkfkfkMkO#;XXX        ",
" O>:88q0q0ququiuiuhbhlhfhfffkfmnmnO@;XXX        ",
" O=;OO3OOO3OOO3OOO3OOO3OOO3OOO3OOO3o:XXX        ",
" O#%1NxjcBVCVZVVVBVBcBcjaNa<1<>%#$#@&XXX        ",
" O:;;;:;;;:;;;:;;;:;;;:;;;:;;;:;;;:;;XXX        ",
" XXXXXXXXXXXXXXXXXXXXXXXXXXXXXXXXXXXXXXX        ",
"  XXXXXXXXXXXXXXXXXXXXXXXXXXXXXXXXXXXXXX        ",
"   XXXXXXXXXXXXXXXXXXXXXXXXXXXXXXXXXXXXX        "};
