/* XPM */
static char * cindi [] = {
/* width height ncolors chars_per_pixel */
"64 64 12 1",
/* colors */
" 	c lightblue",
".	c black",
"X	c #FFF",
"o	c green",
"O	c red",
"+	c #B7B75B5B3535",
"@	c #9D9D00006262",
"#	c #898900007676",
"$	c darkgreen",
"%	c peachpuff",
"&	c white",
"*	c antiquewhite3",
/* pixels */
"                 ....      .     .....     ..                   ",
" XXoooOoXX X     .+.  ..  .. .....+++..    .+..      X X        ",
" XooOooooooX X ...+. .........++.+++++...  .++.  X X X   XX  XX ",
" OooooOooOX    .++.+..++.++.++++++++++.....++..   X XXX   X X   ",
" oooooOooooo   .+++.++++.++++++++.+++++.++.++.    XX X XX  XX   ",
"oooOooOoooOoX X...+++++++++.++++++.+++++.+.+.      X X XX   XX  ",
"ooOoooooOooooo   .++++.+++++...++.+.+++..+++..     XXXX XXXX    ",
"oOoooOo@ooOooo   ++++++..++++++.+.++...++++..      X         X  ",
"ooo@ooOo@ooooo   ++++++++.++++++..++++++++....   X XXXXXX XXXX  ",
"oO@o#@o@o@ooOoo..+++++++++++++++++++++.....++.      XXXX  X  X  ",
"ooo@ooooOoooooo ..+.++++++++++++++++++...++++.                  ",
"oOo#o#@@$$..ooO ...........+.++++++++++++++.....                ",
"oOo#o#@o+.++.. ..............+++++++.....++.....                ",
"   ###@ .++++.. ...............++............    ....           ",
"   ####  .+%%++.+++..&&&&&......+.........++.  ..+++.           ",
"   #### .+%%%++.+++..&&&&&&&&...+...X&&&&..++. .+%%+.           ",
"   #### ..+%%++.+++..&&&....&&....&&....&..++..++%%%+.          ",
"  #.......+++++++++..&&&&...&&....&&...&&..++.++%%%%+.  ..+..   ",
"  ..+.++.+.+++..+++...&&&&&&&......&&&&&..++++.+++++. ..+++++.  ",
"  ..++++++.........++....................++++++.+++++...+.+++++ ",
"  ++.++.++.%%%%......%%%%%..%%%%%%%%..+++...........+++++.++.+. ",
" ......+..%%%%%%%%..%%%%%%%%%......%%%+........%%%%....+++.+.+++",
"++..++++..%%%%%%%%%%%%%%%%%%.........%..%%%%%%%%%%%%%%%..++++++.",
"...+++++++%%%%%%%%%...%%%%%......X....%%%%%%%%%%%%%%%%.%..+.+.++",
"..++++++..%%%%%%%...%%%%%%%%......X..%%%%%%%%%%%%%%%%%%..++.+++.",
"++++.+...%%%%%%%%%..%%%%%%%%%.......%%%%%%%......%%%%%%%.+..++++",
"++...++..%%%%%%%%%.....%%%%%%%.....%%%%%%%%..%....%%%%%..++++.++",
"++++++++...%%%%%%%.%.%%%%%%%%%%%%%%%%%%%%%%%%%..%.%%%%.%...++++X",
"++..+.++%%%%%%%.....%%%%%%%%%%%%%%%%%%%%%%%%.%..%%%%%%.%.+.+.+++",
".+.+.++.+.%%%%..%%%......%%%%%%%%%%%%%%%%%%%.....%%%%%%%.+.+++++",
"++.++++.+.%%%%.%%%%%......%%%%%%..%%%%%%%%%%%%..%...%%%%...+++++",
"+..+.+++..%%%%%%%%%%......%%%%%.......%%%%%.....%%%.%%%%%%.++++.",
"+++.+++...%%%%%%%%%..%%%..%%%%%.................%%%%%%%%++.++++.",
"...++++.%..%%%%%%%%.%%%%.........%%%.........%.%.%%%%%%.++.+..+.",
"...+.++.++..%%%%%%%.%%%%.......%%%%%%%%%%%%%%.%%.%%%%%%++..++.+.",
".+.+....+++...%%%%%.%%%%%%%%%%%%%%%%%%%%%%%%%..%%%%%%%%.+.*.+.+.",
"++++.***.++++.%%%%%%.%%%%%%%%%%%%%%%%%%%%%%%%%.%%%%%%%%.+.*.+.+.",
"++...**+++.++.%%%%%%%%.%%%%%%%%%%%%%%%%%%%%%%%.%%%%%%%.++.*.+++.",
".+..***..+.++.%%%%%%%%%%%%%%%%%%%%%%%%%%%%%%.%.%%%%%%%.+.**.+++.",
".++.****++++++%%%%%%%%%%%%%%%%%%%%%%%%%%%%%%.%%%%%%%%.++.**.+++.",
"+.+*****..++++%%%%%%%%%%%%%%%%%%%%%%%%%%%%%.%%%%%%%%%.++.**.+++.",
"+++*****+.++++.%%%%%%%%%%%%%%%%%%%%%%%%.%..%%%%%%%%%%+++.***++..",
"++..****.+++++..%%%%%%%%%%%%%%%%%%%%%%%%%%%%%%%%%%%%.+++.***.+.+",
"+..******.+++++.%%%%%%%%%%%%%%%%%%%%%%%%%%%%%%%%%%%%.++..***.+.+",
"...******.+.+++.%%%%%%%%%%%%%%%%%%%%%%%%%%%%%%%%%%%..++..***.+++",
"..*******.+.+++.%%%%%%%%%%%%%%%%%%%%%%%%%%%%%%%%%%%++++..***.+++",
".*********+..++.%%%%%%%%%%%%%%%%%%%%%%%%%%%%%%%%%%%.+++.*****.++",
"**********+++++..%%%%%%%%%%%%%%%%%%%%%%%%%%%%%%%%%.+++...****.++",
"**********.++++..%%%%%%%%%%%%%%%%%%%%%%%%%%%%%%%%%.+++..*****.++",
"***********.+++.%.%%%%%%%%%%%%%%%%%%%%%%%%%%%%%%%%.+++..******..",
"***********..+++++.%%%%%%%%%%%%%%%%%%%%%%%%%%%%%%.+++.**********",
"***********++++.++.%%%%%%%%%%%%%%%%%%%%%%%%%%%%%%.+++.**********",
"***********+++++++.%%%%%%%%%%%%%%%%%%%%%%%%%%%%%%++++.**********",
"***********..++++..%%%%%%%%%%%%%%%%%%%%%%%%%%%%%%.+++.**********",
"************.+++++.%%%%%%%%%%%%%%%%%%%%%%%%%%%%%%.++..**********",
"************.+++++.%%%%%%%%%%%%%%%%%%%%%%%%%%%%%.+++.*******o**o",
"************.+++++.%%%%%%%%%%%%%%%%%%%%%%%%%%%%%.+++.******ooooo",
"*************.++++.%%%%%%%%%%%%%%%%%%%%%%%%%%%%%.+++.*****oOOoOo",
"*************..+++.%%%%%%%%%%%%%%%%%%%%%%%%%%%%.++++.****ooooooo",
"**************.+++..%%%%%%%%%%%%%%%%%%%%%%%%%%%.++++.****ooOoOoo",
"*************...+++..%%%%%%%%%%%%%%%%%%%%%%%%%..+++.****oOooooOo",
"***************.+++.%%%%%%%%%%%%%%%%%%%%%%%%%%.++++.****oooOoooo",
"**************......%%%%%%%%%%%%%%%%%%%%%%%%%%..++..****oOoOOoOo",
"**************......%%%%%%%%%%%%%%%%%%%%%%%%%%.....******ooOoooo"};
