/* XPM */
static char * Tile_StormWatch_xpm[] = {
"64 64 264 2",
"  	c #000000000000",
". 	c #000004100000",
"X 	c #082008200000",
"o 	c #08200C300000",
"O 	c #10400C300000",
"+ 	c #104010400000",
"@ 	c #186114510000",
"# 	c #186118610000",
"$ 	c #208118610000",
"% 	c #20811C710000",
"& 	c #20811C710820",
"* 	c #28A220810820",
"= 	c #28A224920820",
"- 	c #30C224920820",
"; 	c #30C228A21040",
": 	c #38E328A21040",
"> 	c #38E32CB21040",
", 	c #38E330C21040",
"< 	c #410330C21040",
"1 	c #410330C21861",
"2 	c #410334D31861",
"3 	c #492434D31861",
"4 	c #492438E31861",
"5 	c #49243CF31861",
"6 	c #51443CF32081",
"7 	c #514441032081",
"8 	c #596541032081",
"9 	c #082004100000",
"0 	c #186110400000",
"q 	c #28A21C710000",
"w 	c #28A21C710820",
"e 	c #30C220810820",
"r 	c #30C228A20820",
"t 	c #38E328A20820",
"y 	c #41032CB21040",
"u 	c #410334D31040",
"i 	c #514438E31861",
"p 	c #104008200000",
"a 	c #208114510000",
"s 	c #28A220810000",
"d 	c #492430C21040",
"f 	c #492434D31040",
"g 	c #082000000000",
"h 	c #18610C300000",
"j 	c #208110400000",
"k 	c #28A218610000",
"l 	c #30C21C710000",
"z 	c #30C220810000",
"x 	c #30C224920000",
"c 	c #38E324920820",
"v 	c #410328A20820",
"b 	c #41032CB20820",
"n 	c #28A224920000",
"m 	c #38E330C20820",
"M 	c #30C22CB20820",
"N 	c #104004100000",
"B 	c #38E324920000",
"V 	c #59654D341861",
"C 	c #618555551861",
"Z 	c #618551441861",
"A 	c #59654D341040",
"S 	c #596549241040",
"D 	c #492441030820",
"F 	c #514441030820",
"G 	c #69A659651861",
"H 	c #86176DB62081",
"J 	c #79E765952081",
"K 	c #30C228A20000",
"L 	c #71C661851861",
"P 	c #71C65D751861",
"I 	c #69A655551861",
"U 	c #410330C20820",
"Y 	c #492438E30820",
"T 	c #38E328A20000",
"R 	c #596545141040",
"E 	c #41032CB20000",
"W 	c #618551441040",
"Q 	c #69A651441861",
"! 	c #51443CF30820",
"~ 	c #410328A20000",
"^ 	c #51443CF31861",
"/ 	c #596545142081",
"( 	c #28A228A20820",
") 	c #861771C630C2",
"_ 	c #8E3875D630C2",
"` 	c #861771C628A2",
"' 	c #79E769A62081",
"] 	c #79E765951861",
"[ 	c #49243CF30820",
"{ 	c #596545140820",
"} 	c #618555551040",
"| 	c #69A659651040",
" .	c #861769A62081",
"..	c #71C659651861",
"X.	c #69A655551040",
"o.	c #514445140820",
"O.	c #410330C20000",
"+.	c #61854D341040",
"@.	c #514438E30820",
"#.	c #618549241040",
"$.	c #79E761851861",
"%.	c #71C659652081",
"&.	c #596549241861",
"*.	c #596549240820",
"=.	c #38E32CB20000",
"-.	c #61854D340820",
";.	c #492434D30000",
":.	c #71C65D751040",
">.	c #8E3879E728A2",
",.	c #8E3879E730C2",
"<.	c #69A655552081",
"1.	c #514441031861",
"2.	c #492438E30000",
"3.	c #186108200000",
"4.	c #104000000000",
"5.	c #51443CF30000",
"6.	c #71C65D752081",
"7.	c #71C65D7528A2",
"8.	c #596541031861",
"9.	c #186104100000",
"0.	c #20810C300000",
"q.	c #28A214510000",
"w.	c #596541031040",
"e.	c #618549242081",
"r.	c #28A210400000",
"t.	c #6185492428A2",
"y.	c #596545140000",
"u.	c #596541030820",
"i.	c #492430C20820",
"p.	c #596545141861",
"a.	c #69A65D752081",
"s.	c #71C6659528A2",
"d.	c #71C661852081",
"f.	c #514438E30000",
"g.	c #596541030000",
"h.	c #514441030000",
"j.	c #61854D340000",
"k.	c #69A651440820",
"l.	c #71C659651040",
"z.	c #8E3875D628A2",
"x.	c #8E3871C628A2",
"c.	c #618545141861",
"v.	c #59654D342081",
"b.	c #9658820738E3",
"n.	c #96587DF738E3",
"m.	c #69A655550820",
"M.	c #492430C20000",
"N.	c #618549240820",
"B.	c #86176DB628A2",
"V.	c #38E32CB20820",
"C.	c #186100000000",
"Z.	c #208108200000",
"A.	c #30C218610000",
"S.	c #492434D30820",
"D.	c #514438E31040",
"F.	c #61854D3428A2",
"G.	c #514434D31040",
"H.	c #618545142081",
"J.	c #69A64D3428A2",
"K.	c #618549241861",
"L.	c #410338E31040",
"P.	c #71C6618528A2",
"I.	c #79E769A628A2",
"U.	c #38E320810000",
"Y.	c #596549240000",
"T.	c #965879E728A2",
"R.	c #79E7659528A2",
"E.	c #69A6514428A2",
"W.	c #69A651442081",
"Q.	c #208120810820",
"!.	c #38E334D31040",
"~.	c #28A20C300000",
"^.	c #30C214510000",
"/.	c #38E31C710000",
"(.	c #71C6514430C2",
").	c #618549240000",
"_.	c #49242CB20820",
"`.	c #79E75D7528A2",
"'.	c #71C6596528A2",
"].	c #71C6555530C2",
"[.	c #49243CF31040",
"{.	c #410334D30820",
"}.	c #79E75D752081",
"|.	c #9E79861738E3",
" X	c #8E3871C638E3",
".X	c #71C6596530C2",
"XX	c #965882074103",
"oX	c #9E79820738E3",
"OX	c #965879E730C2",
"+X	c #208104100000",
"@X	c #8E3871C62081",
"#X	c #96587DF730C2",
"$X	c #79E7659530C2",
"%X	c #410334D30000",
"&X	c #69A64D341861",
"*X	c #71C655552081",
"=X	c #71C6555528A2",
"-X	c #410324920000",
";X	c #59653CF31861",
":X	c #79E7596530C2",
">X	c #69A649242081",
",X	c #71C6514428A2",
"<X	c #514430C20820",
"1X	c #59653CF31040",
"2X	c #69A64D342081",
"3X	c #49242CB20000",
"4X	c #8617659528A2",
"5X	c #8617659530C2",
"6X	c #79E75D7530C2",
"7X	c #69A6596528A2",
"8X	c #514434D30000",
"9X	c #9658820730C2",
"0X	c #965879E738E3",
"qX	c #A69992484103",
"wX	c #79E75D751861",
"eX	c #79E761852081",
"rX	c #79E7618528A2",
"tX	c #79E7596528A2",
"yX	c #410338E31861",
"uX	c #69A659652081",
"iX	c #596538E31040",
"pX	c #410338E30820",
"aX	c #410320810000",
"sX	c #618541031861",
"dX	c #59653CF30000",
"fX	c #69A651441040",
"gX	c #618545141040",
"hX	c #69A649241861",
"jX	c #86176DB630C2",
"kX	c #28A208200000",
"lX	c #30C210400000",
"zX	c #38E318610000",
"xX	c #492428A20000",
"cX	c #596538E30820",
"vX	c #71C651442081",
"bX	c #208100000000",
"nX	c #59653CF30820",
"mX	c #618541031040",
"MX	c #514445141861",
"NX	c #71C655551861",
"BX	c #514445142081",
"VX	c #618551442081",
"CX	c #618555552081",
"ZX	c #A6998A284103",
"AX	c #514430C20000",
"SX	c #861769A628A2",
"DX	c #8E3871C630C2",
"FX	c #8617618528A2",
"GX	c #79E769A630C2",
"HX	c #861769A630C2",
"JX	c #514441031040",
"KX	c #514434D30820",
"LX	c #6185514428A2",
"PX	c #8E386DB628A2",
"IX	c #8E3875D638E3",
"UX	c #A6998E384103",
"YX	c #69A64D341040",
"TX	c #861771C62081",
"RX	c #9E79820730C2",
"EX	c #492438E31040",
"WX	c #61854D341861",
"QX	c #71C651441861",
"!X	c #861765952081",
"~X	c #618541032081",
"          . . . . X X X o o O O + + + + @ @ @ @ # $ $ % & & & * * * * = - - ; ; ; : > > > > , < 1 2 2 2 3 4 4 4 4 5 6 6 6 7 7 8 ",
"                      . . 9 9 X X X O O O O + + 0 0 @ @ @ $ $ $ $ % % q w * * * e - - - r t : : > > > y < < < u 3 3 3 4 4 4 i 7 ",
"                                  9 9 9 9 X p p O O O O 0 0 0 0 @ a a $ $ $ $ q q q q s e e - - - - t t t t > y y y < < d f 4 8 ",
"                                          g g 9 9 9 9 p p p O O h h 0 0 0 j a a a $ $ k k q q q l z z z x - c c t t t v b < i 8 ",
"    . . . .       O n m m M $ 9         9 0 a a a 0 9 g g 9 N p h h p p h h 0 a k q q k a a a k z x B x z l l z z z B B v d i 8 ",
"  # V C Z A S D F G H H H H J F 0 p 0 K S G L P P I U a 0 0 q U F Y z h p h T S I I I R E q q Y W G G Q ! z k l z T ~ T b d ^ / ",
". ( ) _ ` ' ] ' ' ] W [ Y { L ' G } | ]  .] P P L  .' ..X.X.P '  . .P o.O.[ P  .' '  .H ] W W J  .' ' H ] +.Y @.#...$.%.&.i ^ / ",
". X % n % $ $ s s @ 9       $ F X.X.X.*.O.$ O O 0 =.-.X.| | X.{ ;.{ :.] L $.P F T x O.{ :.$.] P F E E ! :.] $.$.] ] H >.,.<.1./ ",
".                               X p p 9             9 O h h O 9   9 k ;.! 2.z p g g g p k E O.z 3.4.4.3.B 5.{ { ! ;.! 6._ 7.8./ ",
".                                                                                         g g g g g g 4.4.9.3.0.j q.l b w.1.8.e.",
".                                                         g g                                 g g 4.4.g g 4.3.0.r.q.l t d i 8.t.",
"X o O O O X X .         9 O p         h x ;.;.;.T a 0 k T ;.;.x N     g h k l l z z z z k 3.3.l E O.~ q.q.E 5.y.u.;.i.R p.^ 8 t.",
", a.s.J d.G | -.;.=.x T 2.5.5.E q l E 5.5.;.O.2.5.5.5.5.5.2.f.g.;.B z O.5.h.5.5.5.5.5.5.g.2.;.h.h.5.g.5.g.j.k.l.$.] J z.x.c.8 t.",
"v.b.n.` ' J  .] m.j.y.h.M.q B M.M.M.E q O     g p 0 a a O 9 p z M.;.;.;.T k 0 h h h h a B O.E l j h l E M.O.B E N.L ' B.6.8.8 t.",
"% , V.% @ @ s x @ O p X         g g                             g 9 9 9                   g           g 4.4.C.Z.A.~ S.D.D.^ / F.",
"X 9                                                                                                       4.C.Z.r.A.B b f ^ / F.",
"X .                                                                                                 g g g 4.9.q.B S.! D.G.^ H.J.",
"+ + @ % % $ 0 9 9   9 9 p 9 9                               N 3.3.N       g 3.j j h g     g h q.l B E E l q.B { l.] H ' K.8.H.J.",
"L.P.I.` B.J P -.{ h.5.5.f.M.E B q.h 3.h 0.0.0.N       g 3.j q.j r.q.r.0.0.r.q.0.0.q.q.0.3.r.A.A.l U.E 5.y.Y.k.l.:.P  .T.R.p.H.E.",
"v.b.n.` P } } W -.y.2.T k 0 h h j 0.3.N 9 N 3.0.Z.Z.Z.0.3.N g     g g N N g         N 3.3.3.N       N l M.f.h.f.E E w.%.W.8.e.E.",
"Q.!.m % O 9 X X 9 9                                                                                   g 4.Z.~.r.^./.~ S.D.8.e.E.",
"+ X 9                                                                                                   g C.Z.~.A.U.~ i.D.8.e.E.",
"+ X 9                                                                                                 9.r.l U.U.l U.~ i.D./ e.(.",
"+ O X             9 p 9 9 g                                                                         j M.g.).k.k.{ M._.G.K.`.'.].",
", L.[.{.m T x x 2.y.y.5.;.E B q.h p 3.Z.C.4.g                                       g g         N k M.f.;.f.y.l.$.P ..}._ |. X.X",
"XX|.oXOXz.H ] :.| y.O.T z l z U.A.q.3.g                                             g 9.Z.3.0.q.B E ~ q.+XZ.A.;.X.] @X>.#Xn.$X.X",
") ) d.C A R F %Xs p                                                                     N Z.r.q.q.j N g 4.C.Z.^.~ u.&X*X%.=XE.].",
"= s @ O 9 9                                                                                           g 4.9.0.^./.-Xi.D.8.H.J..X",
"@ + p g                                                                                               g 4.9.~.^./.-X_.G.;Xe.E..X",
"@ + p 9                                                                                               g C.+X~.^./.-Xi.D.8.e.E.:X",
"# 0 O 9                                                                                             g 4.C.+X~.^.U.~ i.D.8.>X,X:X",
"# 0 O 9 g                                                                               g N 3.N     g 4.C.+Xr.A.U.~ <X1Xc.2X,X:X",
"* M V.m V.z 0 g   9 0 l q a N                                                         4.Z.0.k l A.3.4.4.C.Z.r./.3Xu.&X%.4X5X.X6X",
"7Xb.n.,.x. .G F ;.5.Y.y.f.;.E l 3.9 N 9.9.4.                                      g 4.4.g   g r.B ~ A.Z.Z.r./.8XX.] @XT.9X0X6X6X",
") qX|.I.G G P :.| -.2.k h h q.l l k j 9.                                                        0.~ ;.M.;.f.y.l.$.wXeXeX4XrXtX6X",
"yXuX&.s 0 h a q q 0 g           g                                                                 3.B f.g.).k.k.u.@.iX8.e.J.=X6X",
"& % @ p 9 g                                                                                       g C.r.l B ~ ~ ~ _.G.;XH.2X=X6X",
"& $ 0 O N g                                                                                         4.C.+X~.^./.-X_.G.;XH.2X=X6X",
"r , L.pXU T x q k q q a h g                                                                     g g 4.C.Z.^.aX3XM.<XiXsXH.2X=X6X",
"7Xn.b.OXx.H ] :.m.k.).y.5.E B l k q.0.9.                                              g 9.0.r.q.A.q.^./.3XdXj.m.l.fXgXhX*X'.=X6X",
"$Xb.) d.G W S o.5.E z l B B z k r.3.N 9.9.4.g                                     g 4.C.9.Z.j A.B O.;.5.y.).-.m.$. . .x.OX_ 6X6X",
", L.r k a h p 9 g                                                                             g 3.q./.-X~ ~ ~ 3Xu.P H z.OXjX:X6X",
"* % a 0 p 4.g                                                                                     4.C.+XkXlXzXaXxXcXK.vXvX,X=X6X",
"* q a 0 p N g                                                                                     g 4.bXkXlXzXaXxX<XiXsXH.2X=X6X",
"= q $ $ k a h p N g                                                                             g 4.C.bXkX^.aX3X@.nXmXsXH.2X=X6X",
"; < MXuXd...X.-.{ 5.E B z z l q.0.N       g N N N N g g g g g N N 9.N g                   g g 4.9.Z.Z.~./.8X).m.:.] J }.*X'.'.6X",
"5 ) oX#Xx.' $.l.k.j.).g.5.M.T U.l A.q.r.q.q.q.r.r.r.q.q.q.q.q.q.r.r.q.q.0.3.N 3.0.r.q.q.q.q.q.l B E M.M.dXj.k.m.l.$.@XT.OX0X5X6X",
"5 jX) I {.T z k a j a j h 9 g   g N 3.3.3.N         4.N N N N 4.g   4.0.A.l l l l q.r.~.~.r.r.r.A.B M.5.g.5.8XM.8Xw.NXB.OX0X5X6X",
": , V.q 0 p 4.g                                                         4.9.9.9.4.g g g g g g g 4.C.~.A./.zX/.aXxX<XiXc.vX=X'.6X",
"; - s k j 3.N g g                                                               g g g g g g 4.4.4.4.C.+X~.^.zXaXxX<XiXsXH.2X=X6X",
"BXVXCXZ Y q a k l B B k p                             g 4.N N g       g g g 4.4.4.4.4.4.4.4.C.C.C.bX+X~.^.zX/.aXxX<XiXc.2X,X=X6X",
"n.ZX|.#Xz.J P l.| k.j.y.f.E ~ ~ ~ ~ ~ E E E ~ q.3.j l ~ M.;.;.~ q.Z.Z.Z.r.l B -X~ ~ -XA.Z.Z.kXr.zX~ M.;.5.g.f.AXcX#...SXDXFX=X6X",
"7.GXP.6.` z.H :.u.E z B M.f.f.f.f.f.f.5.f.5.h.g.5.h.g.5.f.;.f.g.g.5.5.5.g.g.g.g.g.g.y.g.f.8Xf.5.g.y.g.g.g.j.m.X.:. .@XT.#XHX'.6X",
"< > - x U JXF z 3.g     N 3.3.3.h 0.0.0.0.j z 2.5.f.~ A.r.0.^.E f.5.g.g.f.M.~ -X-X~ 8Xy.).).).y.dX;.-XaX-Xf.).m.l.....%.%.=X=X6X",
"> - z k a j 3.4.g       g g g g g 4.4.4.4.4.9.0.r.0.Z.9.+XZ.Z.~.r.A.A.A.^.^.lX^.^.^./.-XxX3X3X~ aX/.zXzXzX/.-X3XAXKXiXsXH.2X=X6X",
"> r e k a h 3.4.g g g 4.4.4.4.4.4.C.9.9.9.9.Z.Z.Z.0.0.0.~.r.r.r.r.^.^.^.A.A.A.zX/./././.aXaXaXaXaXaXaXaXaXaXaXaXxX<XiXsXH.2X=X6X",
"< < < V.T z k a j k B ~ U.j 3.3.3.Z.0.q.A.l l q.r.q.q.^.A.A.l /././././.U.aX~ 3X3XM.M.3XxXxXxXxX3XM.AXAXAX3XxXxX3XcXmXK.>XJ.=X6X",
"LXjXDXB.' L ..X.| P $.] $.+.;.T T E ! +.X.l.l.#.~ /.U.E @.u.#.#.{ @.M.M.KXgXX.P P P wXP fXgXu.gXX.P wXwXwX..gX#.NX$. .PXSXtX=X6X",
"IXUXoX_ B.' J J J $...I $.H  .J J ' H H H  .H H P YXI J  .H H H H  .J eXJ H H H  . . .H TXH H H TXH  . .H @XH H @XH H z.RXDX:X6X",
"VX7X&.EXU U U U U b T B S.Z eX'  .' eXWXR w.Q B.z.z.z.x. .eX%.%.J x.x.x.x.SX%.Q &X&X&X*XeXSXB.SX}.QX&X&X*X!XB.B.J *X&X%.PXHX:X6X",
"2 y c z l l z z z z B c c b f EXD.D.f i.i.d f p.%.eX6.&Xp.;X;X;Xc.2XW.W.W.2Xc.c.c.c.c.c.>X2X2X2XhXc.c.c.c.>X2X2X>Xc.c.c.2X,X=X6X",
"2 > c - c c t t t b b y y < < d d f f f G.i i i ;X8.8.8.8.8.8.~XH.H.H.e.>X>X>X2X2X2X2X2X2X2X2X2X2X2X2X2X2X2X2X2X2X2X2X2X2XJ.=X6X",
"2 > > > y y < < < f f f 3 4 4 i i ^ ^ ^ 8.8.8 8 / H.H.H.e.e.e.>XJ.J.J.E.,X,X,X=X=X=X=X=X=X=X=X=X=X=X=X=X=X=X=X=X=X=X=X=X=X=X=X6X",
"2 1 2 3 3 4 4 4 4 ^ ^ ^ 6 7 8 8 8 / / / e.e.t.t.F.J.J.J.E.E.,X=X].].]..X:X:X:X:X:X:X:X:X:X:X:X:X:X:X:X:X:X:X:X:X:X:X:X:X:X:X:X6X"};
