/* XPM */
static char * unido-shape_xpm[] = {
/* width height ncolors chars_per_pixel */
"61 43 5 1",
/* colors */
" 	s None	c None",
".	c #0000BFBFFFFF",
"X	c #FFF",
"o	c #000",
"O	c #EEEE2C2C2C2C",
/* pixels */
"                                                             ",
"                                    ........................ ",
"                                   .XX.X.XX.X.XX.XX.X.XX...  ",
"                                   .XX.X.XX.X.XX.XX.X.X...   ",
"                                  ........................   ",
"                                  .X.XX.XX.X.XX.XX.X.X...    ",
"                                 .......................     ",
"                                .XX.X.XX.X.XX.XX.X.XX...     ",
" oo    oo oo    oo oo    ooooo  ....oooo...............      ",
" oo    oo oooo  oo oo    oooooooXX.oooooo.XX.XX.X.XX...      ",
" oo    oo oooo  oo oo    oo  oooo.ooo  ooo............       ",
" oo    oo ooooo oo oo    oo   oooooo    ooo.XX.X.X...        ",
" oo    oo ooooo oo oo    oo    oooo      oo.X.X.XX...        ",
" oo    oo oo ooooo oo    oo    oooo      ooX........         ",
" oo    oo oo  oooo oo    oo   oooooo    ooo..X.XX...         ",
" ooo  ooo oo  oooo oo    oo   ooo.ooo  ooo.........          ",
"  oooooo  oo   ooo oo    ooooooo.X.ooooooo.XX.X...           ",
"   oooo   oo    oo oo    oooooo......ooo..........           ",
"                         .XX.XX.XX.X.X.XXX.X.X...            ",
"                         .......................             ",
"                        .XX.X.XX.XX.X.XX.XX.X...             ",
"                        .X.XX.XX.X.XX.XX.X.X...              ",
"  .............................................              ",
" .........................X.XXX.X.X.XX.XX.X...               ",
"   .XXXOOOOOOOXXXX.XXX.......................                ",
"   .XXXOOOOOOOOXXX.XXXX....XX.XX.X.XX.XX.X...                ",
"    .XXXOOOOOOOXXXX.XXX.....................                 ",
"    .XXXOOOOOOOOXXX.XXXX...X.X.XX.XX.XX.X...                 ",
"    .....OOOOOOO...........................                  ",
"     .XXXX.XXXXX.XXXX.XXX.....XX.XX.X.X...                   ",
"      .XXXX.XXXX.XXXX.XXXX....X.XX.XX.X...                   ",
"      .XXXX.XXXXX.XXXX.XXX...............                    ",
"       ........................XX.XX.X..                     ",
"        .XXXX.XXXX.XXXX.XXXX............                     ",
"        .XXXX.XXXXX.XXXX.XXX...X.X.X...                      ",
"         .XXXX.XXXX.XXXX.XXXX..........                      ",
"         .XXXX.XXXXX.XXXX.XXX.....X...                       ",
"         ............................                        ",
"          .XXXX.XXXXX.XXXX.XXXX......                        ",
"           .XXXX.XXXXX.XXXX.XXX.....                         ",
"           .XXXX.XXXXX.XXXX.XXXX....                         ",
"            ........................                         ",
"                                                             "};
