/* XPM */
static char * WMStone_rxvt_xpm[] = {
"60 60 173 2",
"  	c None",
". 	c #28A220815144",
"X 	c #30C2249269A6",
"o 	c #28A220816185",
"O 	c #208118614924",
"+ 	c #28A2208171C6",
"@ 	c #30C224928617",
"# 	c #28A21C7171C6",
"$ 	c #30C220818617",
"% 	c #38E320818E38",
"& 	c #38E320819658",
"* 	c #30C220818E38",
"= 	c #38E320819E79",
"- 	c #28A2145169A6",
"; 	c #38E32081AEBA",
": 	c #41032081B6DA",
"> 	c #41032081BEFB",
", 	c #38E31C71AEBA",
"< 	c #30C218619E79",
"1 	c #41031C71C71B",
"2 	c #41031C71BEFB",
"3 	c #38E32CB269A6",
"4 	c #30C2249271C6",
"5 	c #30C2249279E7",
"6 	c #410330C28617",
"7 	c #38E328A28617",
"8 	c #514438E3A699",
"9 	c #96588A28B6DA",
"0 	c #38E324929E79",
"q 	c #38E32081A699",
"w 	c #410328A2A699",
"e 	c #61855144B6DA",
"r 	c #38E32081B6DA",
"t 	c #69A65144C71B",
"y 	c #41032081C71B",
"u 	c #69A65144CF3C",
"i 	c #96588617CF3C",
"p 	c #41031C71CF3C",
"a 	c #41031C71D75C",
"s 	c #41031C71DF7D",
"d 	c #59654103BEFB",
"f 	c #38E324928617",
"g 	c #30C224928E38",
"h 	c #38E324928E38",
"j 	c #C71BBEFBD75C",
"k 	c #A6999E79B6DA",
"l 	c #618559658617",
"z 	c #61855144AEBA",
"x 	c #71C65D75C71B",
"c 	c #96589248AEBA",
"v 	c #41032492AEBA",
"b 	c #86176DB6CF3C",
"n 	c #E79DDF7DE79D",
"m 	c #BEFBBEFBBEFB",
"M 	c #59654514BEFB",
"N 	c #BEFBB2CAE79D",
"B 	c #41032081CF3C",
"V 	c #8E3871C6E79D",
"C 	c #D75CD34CD75C",
"Z 	c #71C66185BEFB",
"A 	c #61854514E79D",
"S 	c #61854103E79D",
"D 	c #41031C71E79D",
"F 	c #49242492E79D",
"G 	c #8E3871C6EFBE",
"H 	c #A699A289B6DA",
"J 	c #8E388207C71B",
"K 	c #492430C2AEBA",
"L 	c #71C65D75D75C",
"P 	c #DF7DDB6CDF7D",
"I 	c #49242081E79D",
"U 	c #D75CCF3CEFBE",
"Y 	c #28A214518E38",
"T 	c #596530C2E79D",
"R 	c #DF7DD75CEFBE",
"E 	c #71C65D75CF3C",
"W 	c #71C65555E79D",
"Q 	c #514438E3BEFB",
"! 	c #49242492D75C",
"~ 	c #965896589E79",
"^ 	c #C71BBEFBDF7D",
"/ 	c #41032492C71B",
"( 	c #596538E3D75C",
") 	c #DF7DDB6CE79D",
"_ 	c #AEBAAEBAAEBA",
"` 	c #30C21C718617",
"' 	c #71C65555D75C",
"] 	c #79E76DB6BEFB",
"[ 	c #C71BBAEAE79D",
"{ 	c #38E32081BEFB",
"} 	c #514438E3C71B",
"| 	c #49242CB2CF3C",
" .	c #A699A289A699",
"..	c #51442CB2E79D",
"X.	c #8E3882079E79",
"o.	c #61854924BEFB",
"O.	c #D75CCF3CE79D",
"+.	c #28A2145171C6",
"@.	c #69A65555C71B",
"#.	c #514428A2DF7D",
"$.	c #861771C6D75C",
"%.	c #49242CB2BEFB",
"&.	c #49242CB2C71B",
"*.	c #86176DB6D75C",
"=.	c #208114516185",
"-.	c #69A65965BEFB",
";.	c #B6DAAAAAEFBE",
":.	c #8E3875D6DF7D",
">.	c #41032CB29E79",
",.	c #492434D3A699",
"<.	c #CF3CCB2BDF7D",
"1.	c #208114515965",
"2.	c #69A65965AEBA",
"3.	c #AEBAA289C71B",
"4.	c #41032081D75C",
"5.	c #49242492CF3C",
"6.	c #38E31C71BEFB",
"7.	c #59653CF3C71B",
"8.	c #410338E379E7",
"9.	c #208118615965",
"0.	c #618559659E79",
"q.	c #38E31C719658",
"w.	c #861782079E79",
"e.	c #30C21C719E79",
"r.	c #514434D3B6DA",
"t.	c #DF7DD75CE79D",
"y.	c #71C66DB69658",
"u.	c #30C224926185",
"i.	c #28A21C716185",
"p.	c #492441038617",
"a.	c #30C218619658",
"s.	c #59654514B6DA",
"d.	c #59654924A699",
"f.	c #30C21C719658",
"g.	c #59654924AEBA",
"h.	c #8E388A289658",
"j.	c #38E324929658",
"k.	c #79E76DB6A699",
"l.	c #28A21C715144",
"z.	c #38E330C26185",
"x.	c #79E771C69658",
"c.	c #410328A29658",
"v.	c #30C224925965",
"b.	c #69A65D759E79",
"n.	c #30C228A25144",
"m.	c #CF3CCB2BD75C",
"M.	c #30C228A26185",
"N.	c #A6999A69BEFB",
"B.	c #A6999A69CF3C",
"V.	c #A6999658CF3C",
"C.	c #AEBAA699CF3C",
"Z.	c #B6DAB2CAB6DA",
"A.	c #86177DF7AEBA",
"S.	c #8E388207BEFB",
"D.	c #96588A28BEFB",
"F.	c #C71BBAEAD75C",
"G.	c #C71BC71BC71B",
"H.	c #96589248A699",
"J.	c #A6999E79BEFB",
"K.	c #9E799A69BEFB",
"L.	c #AEBAAAAAC71B",
"P.	c #AEBAAAAAAEBA",
"I.	c #8E3886179E79",
"U.	c #A699A289BEFB",
"Y.	c #C71BC30BD75C",
"T.	c #CF3CCF3CCF3C",
"R.	c #79E775D68E38",
"E.	c #BEFBBEFBCF3C",
"W.	c #AEBAA699BEFB",
"Q.	c #9E799A69B6DA",
"!.	c #B6DAB2CAC71B",
"~.	c #D75CD34CDF7D",
"^.	c #9E799A699E79",
"                                                                                                                        ",
"                                                                                                                        ",
"                                                                                                                        ",
"                                                                                                                        ",
"                                                                                                                        ",
"                                                                                                                        ",
"                                                                                                                        ",
"                                                                                                                        ",
"                                                                                                                        ",
"                                                                                                                        ",
"                                                                                                                        ",
"                                                                                                                        ",
"                                                                                                                        ",
"                                                                                                                        ",
"                                                                                                                        ",
"                                                                                                                        ",
"                                                                                                                        ",
"                                                                                                                        ",
"                                                                                                                        ",
"                                                                                                                        ",
"                                                                                                                        ",
"                                                                                                                        ",
"                                                                                                                        ",
"      . X X o o X X X X O           + @ @ @ @ #   $ % % & #     * = = = = -       ; ; ; ;     : > , < < < < , 1 2       ",
"      3 4 4 5 5 6 7 @ @ @ 5       % % & & & & 8 9 0 = q w e   ; ; ; ; r r t     5 > > y u i y p p p p a a a a s s d     ",
"        f g h h j k & & & & l       z q q q ; x c v r b n m     M > y y y N       B a V C Z s s A S s D D F G D D F     ",
"        & = = = H   q q q ; J         K : > > > > y L P           a a a a u       s I U   Y D T R E s s s W m Q a ! ~   ",
"        q ; ; ; k   r : > > ^           / p p p a ( )             > D D D I     s s G _     b U   ` p p p '     ] [     ",
"        { > > y } > 1 p | N  .            s s s D ..X.              s s a a o.& p B O.            +.> > > @.            ",
"        p p a a a a s s #.$.              %.D s s s &.              > p 1 y y y > *._             =.; ; q -.            ",
"        s s D D ;.:.D D D D >.            a p p p p p ,.              r r r r ; ; <.              1.= & & 2.            ",
"        s s s s 3.  4.a a p 5.          6.y L 7.> > r r 8.            0 q q = = ] _               9.@ @ @ 0.            ",
"        p p p p 9   q.y y > > w.      e.r r.t.y.; q q q q             u.& % % h <.                i.4 4 4 p.            ",
"      a.> > > > s.    r ; ; ; d.  =.f.q = g.h.  j.& & & % h o           5 5 5 k._               l.X X X X X z.          ",
"      ; ; ; ; q q x.  c.= = = & 2.& & % % h w.v.@ @ @ 5 5 5 b.          n.X 3 m.                M.X X X X X 3 h.        ",
"        N.B.V.C.<.Z.    A.S.D.F.G.H.J.K.L.m.P.  I.U.K.J.L.Y.T.            R.E. .                  H W.Q.k !.~.^.        ",
"                                                                                                                        ",
"                                                                                                                        ",
"                                                                                                                        ",
"                                                                                                                        ",
"                                                                                                                        ",
"                                                                                                                        ",
"                                                                                                                        ",
"                                                                                                                        ",
"                                                                                                                        ",
"                                                                                                                        ",
"                                                                                                                        ",
"                                                                                                                        ",
"                                                                                                                        ",
"                                                                                                                        ",
"                                                                                                                        ",
"                                                                                                                        ",
"                                                                                                                        ",
"                                                                                                                        ",
"                                                                                                                        ",
"                                                                                                                        ",
"                                                                                                                        ",
"                                                                                                                        ",
"                                                                                                                        ",
"                                                                                                                        "};
