/* XPM */
static char *xv[] = {
/* width height num_colors chars_per_pixel */
"    46    33       3            1",
/* colors */
". c black",
"a c grey75",
"# c None",
/* pixels */
"##############################################",
"##############################################",
"##############################################",
"##############################################",
"############################aaaaa###aaaaa#####",
"###########aaaaa#####aaaaa#aa...a##aa...a#####",
"##########aa...a####aa...aaa....a#aa....a#####",
"##########a....a##aaa...aaa.....a#a.....a#####",
"##########a....a#aa....aaa......aaa.....a#####",
"##########a....aaa....aa#aa....aaa.....aa#####",
"##########a....aa....aa##a.....aaa.....a######",
"##########a....a....aa##aa....aaa.....aaaaa###",
"##########a........aa###a.....a#a.....aaa.a###",
"##########a.......aa###aa....aa#a....aaa..a###",
"##########a......aa###aa.....a##aa........a###",
"##########a.....aa###aa.....aa##a........aa###",
"##########a....aa###aa......a##aa...a...aa####",
"#########aa....a###aa......aa#aa...aaaaaa#####",
"########aa.....a##aa.......a##a....a##########",
"#######aa......a#aa.......aa#aa...aa##########",
"######aa.......aaa........a#aa...aa###########",
"#####aa........aa....a....aaa....aa###########",
"####aa....a.........aa....aa....aa############",
"###aa....aa........aaa.........aa#############",
"###a....aaaa......aa#a........aa##############",
"###a...aa##a.....aa##aa......aa###############",
"###a...a###aa...aa####a.....aa################",
"###aaa.a###aaaaa######aa..aaa#################",
"#######################aaaa###################",
"##############################################",
"##############################################",
"##############################################",
"##############################################"
};
SIMPLE  =                    T                                                  
BITPIX  =                    8                                                  
NAXIS   =                    2                                                  
NAXIS1  =                   46                                                  
NAXIS2  =                   33                                                  
HISTORY Written #y XV 3.10a                                                     
END                                                                             
                                                                                
                                                                                
                                                                                
                                                                                
                                                                                
                                                                                
                                                                                
                                                                                                                                                                                                                                                                                                                                                                                                                                                                                                                                                                                                                                                                                                                                                                                                                                                                                                                                                                                                                                                                                                                                                                                                                                                                                                                                                                                                                                                                                                                                                                                                                                                                                                                                                                                                                                äÅäÅÅÅÅÅÅÅÅÅwÅyÅyÅyyyyykykywnwywnwnwkwkwkwggggÖÅÖÅÅÅÅÅÅ|y|Å|yyy|yywyyywnwnwnwnwnwnwwgwgwggggäÅäàäÅÅÅÅÅÅÅÅÅwÅyywÅyyyyykyyywnwnwnwnwkwnwkwggÖäÖÅÖÅÅ|ÅÅÅ|Å|Å|y|y|yywywywnwnwnwnwnwnwwgwgwgwäääÅäøøøÅÅÅÅÅÅÅÅwÅyÅyÅyøøøøkykywywywnwnwkwkwkwÖÅÖøøø
