/* XPM */
static char *noname[] = {
/* width height ncolors chars_per_pixel */
"48 48 19 1",
/* colors */
"` c #000000",
"a c #FFE779",
"b c #878787",
"c c #00FFFF",
"d c #FFAE00",
"e c #3012AA",
"f c #FF0000",
"g c #FF6F6C",
"h c None",
"i c #4ABD40",
"j c #8597FF",
"k c #B72828",
"l c #5C5C5C",
"m c #5278BF",
"n c #FFFFFF",
"o c #FFFF00",
"p c #D3D3D3",
"q c #C1C1C1",
"r c #0000FF",
/* pixels */
"blllllllllllllllllllllllllllllllllllllllllllllll",
"l``````````````````````````````````````````````p",
"l`aqgk`remrererermrermrrmrrmrereremrermrrmrrmren",
"l`gpgg`mreemrmememrmrmrmrrmrrmemmrermmrrmrmrrmrn",
"l`fqpgk`eeeeeemrermermrmrmrmrmerememremermrmrmrn",
"l`ggpgg`eememeeemeeemeermemrmeeeeeeeeeemermemren",
"l`fkdpgh`eeeeemeeemeermerermeememeememeremrememn",
"l`fggpgkleleeeeeeeeeeeeeeemeeeeeeeeeeeemeeeeeern",
"l`kfggngk`eeleeeleemelemeeeemeeeemeeeeeeemeemeen",
"l`kkkgqakl`lee`leeleeeeeeleeeeleleeemeemeeeeeeen",
"l`kkffgpgk`e`eee`ee`eleleeeleeeee`eleeleeememeen",
"l`k`fgggpkl`e`l`elee`ee`eelee`eleeeeeeeeeeeeeeen",
"l``kkkggpgk``e`e`e`lee`el`eeleeeeemeeemememeemrn",
"l```kfgkaqg`e`l`e`le`e`elee`eee`lelemeeeeeeeeeen",
"l```kkkkgqf```e`le```ll``e`eleeeeeeeleeemeleelen",
"l`k```hfgaal`l`````le```e`l`e`elee`eeeleeeeleeen",
"l```k`kkkglll``e``e`e`lddk``lee`eeee`ee`ele`e`ep",
"l``````kkkqnp```l```e`kppdk`e``e`el`e`elee`eeeen",
"l````k`lmhhle`````e```anpdk``le`l`e`eele`e`````p",
"l``````bmllqnn````````dqpddl```l````````e``````n",
"l````l`l`bjppnl`````l`kdpfk``e````l```````l`le`n",
"l```````lchqnnh```l````dnd`k```````l``lkl``e```n",
"l`````l`llbmnpnl```````knkk````e`e```lpnk````e`n",
"l``l```l`lbhhnph````e```ak```````````knnd``e```n",
"l```````l`lmhhnpl`````l`dd```````````kadk````e`n",
"l````````llbchnnh`k`kk`kpgk`lk`k`l`l`kakk``````n",
"l`lkkkkkk``lqinpnlkkfkkkgdkkkkkfkfkkfpgkkkkkk`kn",
"l`kkfkkkkl`llhmnpbkddpdqagdkkkkddkdkdgdkkkkkkkkn",
"l`dfddfddkl``qmhnp`fkdfaddgdgaaappdgpgkkddfddfdn",
"l`dfdkdffd`lllhhnnbkkfdgdggdgaddnnanadpkfkdfddfn",
"l`kdkdkkogk``lmqhnh`dkdfddgddgdqgdgaaaapakfdkdfn",
"l`dkagkdnkkk`l`qcql``ldkggdbdogadagapdapndhkgkkn",
"l`fdgaqnkkq`k`lll``ll`ldkdkgdgagagaagaanppqanakn",
"l`dkkappfk`kl````k`l`l`kdgadobnpaaaaaappnanagkkn",
"l`kdgdndk`fkk`k`l`l`k`l`ddggdppk`agaqagangkkkkdn",
"l`dfdapk``k`k`g`l``l`lklkkgadnak`gaaapnapkkkkkdn",
"l`kdgdpkkkkkk``k`l`k`kkl`dgdgkhlkaaagpppakkkkdfn",
"l`dkdgdadf`kk``l`ll```d`lkgdad`laaaappadkkfkkkkp",
"l`gdfkgapaak`kkkdd``k``kk`dgadagaggaapdkkkkkdfdn",
"l`dkgdgdaga`kkdgnnkk`l``lllognkkapnpdfkfkkffdkdn",
"l`gfdkdkfdgapaagakdl``l`bk`gndfhkkkkkkkkkkdkdfdn",
"l`kddkdkdkdddapddfdgnangapndkkkkkkkkkfkkkdfdfddn",
"l`fdfdfddkdkfkggkdkgdqgdfkkdfkk`fkkkfdkddfdddkdn",
"l`kfdfdgffdfdkdkdfdfkffkkkfkhkkfdfddkdfdfdgkgddn",
"l`dkkdfkddkdkdfkdkdfkkdkkkkkkdkdkdfkddfdkdddddkn",
"l`fkffdkfdfdfdfdfdfddkfdfddfdfdfdfddkgggdgdgdgan",
"l`dkdkfdkfdkdfdkdfdfdfdkdfdkdkddkdkggdgdddgdgadp",
"pnnnnnnnnnnnnnnnnnnnnnnnnnnnnnnnnnnnnpnnnnnnnpnn"
};
