/* XPM */
static char *noname[] = {
/* width height ncolors chars_per_pixel */
"48 48 7 1",
/* colors */
"` c #000000",
"a c #878787",
"b c None",
"c c #5C5C5C",
"d c #FFFFFF",
"e c #D3D3D3",
"f c #C1C1C1",
/* pixels */
"bbbbbbbbbbbbbbbbbbbbbbbbbbbbbbbbbbbbbbbbbbbbbbbb",
"bbbbbbbbbbbbbbbbbbbbbbbbbbbbbbbbbbbbbbbbbbbbbbbb",
"bbbbbbbbbbbbbbbbbbbbbbbbbbbbbbbbbbbbbbbbbbbbbbbb",
"bbbbbbbbbbbbbbbbbbbbbbbbbbbbbbbbbbbbbbbbbbbbbbbb",
"bbbbbbbbbbbbbbbbbbbbbbbbbbebbbbbbbbbbbbbbbbbbbbb",
"bbbbbbbbbbbbbbbbbbbbbbbbbe``abbbbbbbbbbbbbbbbbbb",
"bbbbbbbbbbbbbbbbbbbf``cbe```cbbbbbbbbbbbbbbbbbbb",
"bbbbbbbbbbbbbbbbbbe``cdfc``cbbbbbbbbbbbbbbbbbbbb",
"bbbbbbbbbbbbbbbbbf```dd```cddbbbbbbbbbbbbbbbbbbb",
"bbbbbbbbbbbbbbbbfc`cedc```fdddbbbbbbbbbbbbbbbbbb",
"bbbbbbbbbbbbbbbf```ddc```edddddbbbbbbbbbbbbbbbbb",
"bbbbbb````cccc`c``edc```edddddddc`ccc````bbbbbbb",
"bbbbb````````````eda```eddddddde````````c`bbbbbb",
"bbbb````````````ada```adddddddec```````````bbbbb",
"bbbbc``````````fde```cdddddddde````````````bbbbb",
"bbbbc`````````cde```cdddddddddc```````````cbbbbb",
"bbbb`````````cde```cdddddddddf````````````cbbbbb",
"bbbb````````cdfc```ddddddddddc`````````````bbbbb",
"bbbb````````ed````edddddddddf`````````````cbbbbb",
"bbbb```````edc```eddddddddddc``````````````bbbbb",
"bbbb``````edc```addddddddddd```````````````bbbbb",
"bbbb`````ade`````edddddddddc```````````````bbbbb",
"bbbb````adddda```cfdddddddd````````````````bbbbb",
"bbbb```cdddddddc```dddddddc````````````````bbbbb",
"bbbb```caceedddde``cdddddd`````````````````bbbbb",
"bbbb`````````cadde``adddda`````````````````bbbbb",
"bbbb```````````cade`ceddd``````````````````bbbbb",
"bbbb`````````````cdc`fddf``````````````````bbbbb",
"bbbb``````````````cd`add```````````````````bbbbb",
"bbbb```````````````eccdf```````````````````bbbbb",
"bbbb```````````````caad````````````````````bbbbb",
"bbbb````````````````fce````````````````````bbbbb",
"bbbb````````````````efc````````````````````bbbbb",
"bbbb````````````````df`````````````````````bbbbb",
"bbbb```````````````cd`````````````````````cbbbbb",
"bbbbc``````````````aa``````````````````````bbbbb",
"bbbb``````````````ce```````````````````````bbbbb",
"bbbbbc```````````af```````````````````````bbbbbb",
"bbbbbb``cc`c`cceac`````````````````````c`bbbbbbb",
"bbbbbbbbbbbbbbbbbbbbbbbbbbbbbbbbbbbbbbbbbbbbbbbb",
"bbbbbbbbbbbbbbbbbbbbbbbbbbbbbbbbbbbbbbbbbbbbbbbb",
"bbbbbbbbbbbbbbbbbbbbbbbbbbbbbbbbbbbbbbbbbbbbbbbb",
"bbbbbbbbbbbbbbbbbbbbbbbbbbbbbbbbbbbbbbbbbbbbbbbb",
"bbbbbbbbbbbbbbbbbbbbbbbbbbbbbbbbbbbbbbbbbbbbbbbb",
"bbbbbbbbbbbbbbbbbbbbbbbbbbbbbbbbbbbbbbbbbbbbbbbb",
"bbbbbbbbbbbbbbbbbbbbbbbbbbbbbbbbbbbbbbbbbbbbbbbb",
"bbbbbbbbbbbbbbbbbbbbbbbbbbbbbbbbbbbbbbbbbbbbbbbb",
"bbbbbbbbbbbbbbbbbbbbbbbbbbbbbbbbbbbbbbbbbbbbbbbb"
};
