/* XPM */
static char *noname[] = {
/* width height ncolors chars_per_pixel */
"48 48 10 1",
/* colors */
"` c #000000",
"a c #878787",
"b c #3012AA",
"c c None",
"d c #8597FF",
"e c #5C5C5C",
"f c #5278BF",
"g c #FFFFFF",
"h c #D3D3D3",
"i c #C1C1C1",
/* pixels */
"cccccccccccccccccccccccccccccccccccccccccccccccc",
"ccccccccccccccccccccaiaccccccccccccccccccccccccc",
"ccccccccccccccccccaighgacccccccccccccccccccccccc",
"cccccccccccccccciagghgggaccccccccccccccccccccccc",
"ccccccccccccccaaghghghghgacccccccccccccccccccccc",
"cccccccccccciagghgg```ggggaccccccccccccccccccccc",
"ccccccccccaagghgg``aia`hgggacccccccccccccccccccc",
"ccccccccaaggghg``iaiaia`ghggaccccccccccccccccccc",
"ccccccaigghgh``aiaaiaaia`ghggacccccccccccccccccc",
"cccciaghghg``iaiaiaiaiaia`ghggaccccccccccccccccc",
"ccaagghgg``aiaaiacacabaiae`ghggacccccccccccccccc",
"iaggghg``iaiaaiacccccccceee`ghggaccccccccccccccc",
"agghgg`aiaaiaiabccbaicaiacee`ghggacccccccccccccc",
"ihghghg`aiaiaiaccabbbbiaaccab`ghggaccccccccccccc",
"eehgghgg`aiaaiaccbb`bbbbcbaibb`ghggacccccccccccc",
"eeeghgghg`aaiaicababb`bbbbbbabb`ghggaccccccccccc",
"eeeehghggg`iaacccbb`ebbeaabbabbb`ghggacccccccccc",
"eeeeegghghg`aicccb`bbb`bbbbebbebb`ghggaccccccccc",
"e`eeeehgghgg`acdccccc`gbbebbbbbbbb`ghggacccccccc",
"eee`eeeghgghg`ccfdcabg`bebbbbebbebb`ghggaccccccc",
"eeeeeeeehghggg`cbcccbbbab`bbbbb`b`bb`ghggacccccc",
"`eeee`eeegghghg`bcbefe`efdffb`bbbff``gghggaccccc",
"e`eeeeeeeehgghgg``adbebedfdfdffbb```ghgghggacccc",
"ee`eeeee`eeghgghg``aeb`bfdbdfbb```gghgghghggaccc",
"cee`e`eeeeeehghggg``ebebfddbf```gghgghgghgghgacc",
"ccee`eeeeeeeegghghg`ee`ffd````gghghghgghgghgggac",
"cccee`ee`eeeeehgghgh`efdd```gghgg``ghghgghghghga",
"ccccee`eeee`eeehgghgg`d```ghghg``gghg``ghghggggg",
"cccccee`eeeeeeeehgghgh``gghgg``ghgh``ghgggghghee",
"ccccccee`eeee`eeehgghgghghg``gghg``ghgghghgheeee",
"cccccccee`eeeeeeeehgghgggg`ghgh``gghgghghgeeeeee",
"ccccccccee``eeeeeeeghgghghghg``gghgghghgeeeeeeaa",
"cccccccccee`ee`eeeeehghghggg`ghghghgggeeee`eaaee",
"ccccccccccee`eeee`eeegghgghghgghgggheeeeeeiaeeia",
"cccccccccccee`eeeeeeeehghghgghgghgeee`eeaaeeaaee",
"ccccccccccccee``eeee`eegghgghggheeeeeeaaeeaaee``",
"cccccccccccccee`ee`eeeeehgghgheeee`eaieeaaee``ee",
"ccccccccacccccee`eeeeeeeehgheeeeeeiaeeaaee``eeec",
"cccccccccccccccee`eee`eeeeeeeee`aaeeaaee``eeeccc",
"ccccccccccccccccee`eeeeeeeeeeeaieeaaee``eeeccccc",
"cccccccccccccccccee`eee`ee`eaaeeaiee``eeeccccccc",
"ccccccccccccccccccee`eeeeeeaeeaaee``eeeccccccccc",
"cccccccccccccccccccee`eeeeeeaiee``eeeccccccccccc",
"ccccccccccccccccccccee`e`eeaee``eeeccccccccccccc",
"cccccccccccccccacccccee`eeee``eeeccccccccccccccc",
"ccccccccccccccccccccccee````eeeccccccccccccccccc",
"ccccccccccccccccccccccceeeeeeccccccccccccccccccc",
"cccccccccccccccccccccccaeeeccccccccccccccccccccc"
};
