/* XPM */
static char *noname[] = {
/* width height ncolors chars_per_pixel */
"48 48 13 1",
/* colors */
"` c #000000",
"a c #FFE779",
"b c #878787",
"c c #FFAE00",
"d c #FF6F6C",
"e c None",
"f c #4ABD40",
"g c #B72828",
"h c #5C5C5C",
"i c #FFFFFF",
"j c #FFFF00",
"k c #D3D3D3",
"l c #C1C1C1",
/* pixels */
"eeeeeeeeeeeeeeeeeeeeeeeeeeeeeeeeeeeeeeeeeeeeeeee",
"eeeeeeeeeeeeeeeeeeeeeeeeeeeeeeeeeeeeeeeeeeeeeeee",
"eeeeeeeeeeeeeeeeeeeeeeeeeeeeeeeeeeeeeeeeeeeeeeee",
"eeeeeeeeeeeeeeeekiiiiiiiiiiiiiileeeeeeeeeeeeeeee",
"eeeeeeeeeeeeeeekihh`hh`hh`hh`hh`leeeeeeeeeeeeeee",
"eeeeeeeeeeeeeeei`h`````````````h`eeeeeeeeeeeeeee",
"eeeeeibhh`hhh`hih`hhhhhhhhhhhhbh`hh`hhh`hhh`hhhl",
"eeelibhhhbhhhbhih`hghhghhghghhgh`hhbhhhbhhhbh``e",
"eeeihbghhhghhbdkh`bhhhhhhhhhhhhh`bdhbhghhhgb`h`e",
"eeigbbhbghhbgbhbhbbghbhghbhghhbghbhbgbhhgbb`h``e",
"eiiiiiiiiiiiiiiiiiiiiiiiiiiiiiiiiiiiiiiiii``h``k",
"eihhhhghhhhhhghhhghhhghhhghhhhhhhghhhghhhh`h`h`e",
"eihbghbhbgbhbhbgbhbhbhbhbhbgbgbhbhbhbhbghh`h`h`e",
"eighhbhiiiiiiiiiiiiiiiiibghhhbhhgbhgfghhhgh`h``e",
"eibhbgfiiiiiiiiiiiiiiiii`fbgfgbhfgbhbhbhb``h`h`e",
"eifghhgiiiiiiiiiiiiiiiii`ghhbhbgbhhbghgfgh`g`h`e",
"eihbhhbii`````hii``i`iii`bbgbhhbhgbhbhbhbh`h`h`e",
"eighbghiiiiiiiiiiiiiiiii`bhhbgbghbhbgfghghh`h``e",
"eibhhfbii```hiih```iiiii`hbhhbhbhgbhbhbhhh`h`h`k",
"eihbghgiiiiiiiiiiiiiiiii`bhgfgfghfhbghgfgh`g`h`e",
"eihhbhbii``hhii```i```ii`acaacajacc`bhbhhh`h`h`e",
"libgfghiiiiiiiiiiiiiiiii`cbchchghgh`fghbgh`h`h`e",
"eihhbhhii`hh``i````iiiii`cgcbg`hchg`hhbhhh`h`h`e",
"eigbhghiiiiiiiiiiiiiiiii`bcfgcc`fgh`bhgfgh`g`h`e",
"eihhbhbii```hih`````hiii`cchckhkgfg`hhbhbh`h`h`e",
"eibgfghiiiiiiiiiiiiiiiii`bc`ggig`gh`gbghgh`h`h`e",
"eihhbhbii```hiih```iiiii`cdhhahg`c``bhbhhh`hg``e",
"lihbghgiiiiiiiiiiiiiiiii`bccb`h`ghg`hhgfgh`h`h`e",
"eihhbhhii``hhii```i``iii`ccbcgcfcfg`bhbhbh`hh``k",
"eigfgbhiiiiiiiiiiiiiiiii`cbccfcgfgh`fghhgh`g`h`e",
"eibhhhgiiiiiiiiiiiiiiiii`dcbdgbcggh`bhbhhh`hhh`e",
"eihbgbhiiiiiiiiiiiiiiiii`cbcbcbgfgh`ghgfgh`h`h`e",
"eihhbhhb`````````````````adchg`gchg`bhbhbh`hh``k",
"libgfgbghbhhhhabcbgcghbacdfcggchfgh`hbghgh`g`h`e",
"eihhbhhfbhbhhbacdhckhahcbcdhgigk`c`hhhfhbh`hhh`e",
"eihhgbghghgfghabchggig`bcbc`chkgghg`gbghgh`h`g`e",
"eihbhhbhbhhhhhacbg`agh`cagdh`agh`g``bhbhfh`hh``k",
"eigbgfgbhgfghhafcha`h`gbcbcga`h`fgh`fgfghgh`hh`e",
"eihhbhhhbhbhfgachcdccccccbgfggcgghh`bhbhhh`hg``k",
"eigfghgbghghhhagfgfhhhhhhghghhh`hg``ghgbg`h`hh`e",
"eibhbhbfhbhbhbhghg`g`h``````````````bhbhbh`hh``k",
"eihbghhgbghgfghhhhhfbgbgbbbbgbhbhbhbghhhghh`h`ke",
"eihhbfgfhhbhhhhgfgbghfhbhghhbhghbgbhbhbhhh`h`kee",
"eigh`ghhhghhhghhhh`hhhg`hhgh`hhhh`hh`hhgh`h`eeee",
"ee`````````````````````````````````````````keeee",
"eeekeeeeeeeeeeeeeekeeeeekeeekekeekkkkekeekeeeeee",
"eeeeeeeeeeeeeeeeeeeeeeeeeeeeeeeeeeeeeeeeeeeeeeee",
"eeeeeeeeeeeeeeeeeeeeeeeeeeeeeeeeeeeeeeeeeeeeeeee"
};
