/* XPM */
static char *noname[] = {
/* width height ncolors chars_per_pixel */
"48 48 7 1",
/* colors */
"` c #000000",
"a c #878787",
"b c None",
"c c #5C5C5C",
"d c #FFFFFF",
"e c #D3D3D3",
"f c #C1C1C1",
/* pixels */
"bbbbbbbbbbbbbbbbbbbbbbbbbbbbbbbbbbbbbbbbbbbbbbbb",
"bbbbbbbbbbbbbbbbfdbbbbbbbbbbbbbbbbbbbbbbbbbbbbbb",
"bbbbbbbbbbbbbbbbdfcabbbbbbbbbbbbbbbbbbbbbbbbbbbb",
"bbbbbbbbbbbbbbbbdec`abbbbbbbbbbbbbbadbabbbbbbbbb",
"bbbbbbbbbbbbbbbfdeac`abbbbbbbbbbbbede`abbbbbbbbb",
"bbbbbbbbbbbbbbbededa``cbbbbbbbbbbddef`bbbbbbbbbb",
"bbbbbbbbbbbbbbbdeebfac``ccababbaedddacbbbbbbbbbb",
"bbbbbbbbbbbbbbbddaaacaccc``c`bdddefeacbbbbbbbbbb",
"bbbbbbbbbbbbbbbdfccc``c`````ccafbafec`bbbbbbbbbb",
"bbbbbbbbbbbbbbadc```c``````````caaabccbbbbbbbbbb",
"bbbbbbbbbbbbbbefc```````````````ccca`cbbbbbbbbbb",
"bbbbbbbbaabbbef```````````````````ca`cbbbbbbbbbb",
"bbbbbbbbdaccaf``````````````````````c`abbbbbfeab",
"bbbbbbbedeaac```````````````````````cfeddedddeab",
"bbedeeedfbac````````````````````````caeddddefcbb",
"bbedddddffa``````````````````````````afdeeed`cbb",
"bbedfeefaa```````````````````````````cfdeeea`abb",
"bbbdeeffac```````````````````````````cfddefccbbb",
"bbbedfacc`````````````````````````````fdefa`cbbb",
"bbbedaacc`````````````````````````````cddfa`bbbb",
"bbbbefaa``````````````````````````````ceeeccbbbb",
"bbbbfdaac``````````````````````````````eda`bbbbb",
"bbbbbdfa```````````````````````````````ee`cbbbbb",
"bbbbbfdac``````````````````````````````ea`abbbbb",
"bbbbbfdfc``````````````````````````````a`abbbbbb",
"bbbbbdefc``````````````````````````````ccbbbbbbb",
"bbbbedfac``````````````````````````````ccbbbbbbb",
"bbbfdefa`c````````````````````````````c``bbbbbbb",
"bbbedeacc`````````````````````````````cc`cbbbbbb",
"bbbedfaac`````````````````````````````bd`cbbbbbb",
"bbbddfac`c```````````````````````````ceea`bbbbbb",
"bbfdac````c`````````````````````````cadfc`bbbbbb",
"bbee``caebaa````````````````````````cddac`bbbbbb",
"bbdccafbbbadf``````````````````````cedef`cbbbbbb",
"bbf`abbbbbbfdcc```````````````````cfddefc`bbbbbb",
"bbaabbbbbbbedacc````````````````caeddefea`abbbbb",
"bbbbbbbbbbbfdeac``````````````afdeddeeeef`cbbbbb",
"bbbbbbbbbbbfddfaccc````````cafdddedeeeeeec`abbbb",
"bbbbbbbbbbbbedfacccccaccaaabaeddeddddeeefa`cbbbb",
"bbbbbbbbbbbfedfaaaaaaaaafcc`cfedbaafdeebac`cbbbb",
"bbbbbbbbbbbaedefaaaac`````c``aef```bbbbafc``bbbb",
"bbbbbbbbbbbbfdefbafc`ccabbbbcce``abbbbbbbbbbbbbb",
"bbbbbbbbbbbbbedeffaccbbbbbbbbaa`cbbbbbbbbbbbbbbb",
"bbbbbbbbbbbbbaddefc`abbbbbbbbbbabbbbbbbbbbbbbbbb",
"bbbbbbbbbbbbbbfedec`bbbbbbbbbbbbbbbbbbbbbbbbbbbb",
"bbbbbbbbbbbbbbbffdf`bbbbbbbbbbbbbbbbbbbbbbbbbbbb",
"bbbbbbbbbbbbbbbbacc`abbbbbbbbbbbbbbbbbbbbbbbbbbb",
"bbbbbbbbbbbbbbbbbbaaabbbbbbbbbbbbbbbbbbbbbbbbbbb"
};
