/* XPM */
static char *noname[] = {
/* width height ncolors chars_per_pixel */
"48 48 12 1",
/* colors */
"` c #000000",
"a c #FFE779",
"b c #00FFFF",
"c c #FF00FF",
"d c #FF6F6C",
"e c None",
"f c #4ABD40",
"g c #8597FF",
"h c #5278BF",
"i c #FFFFFF",
"j c #D3D3D3",
"k c #C1C1C1",
/* pixels */
"eeeeeeeeeeeeeeeeeeeeeeeeeeeeeeeeeeeeeeeeeeeeeeee",
"fefkfkfkfkfkfkjfkkkkkkakakakajajaaaaaaaaaaaaaaaa",
"kfefefefbkfefkfjfkfkfkkkakkakakakjajajajajajaaaa",
"efefefkkfkfkefkkkkkajfakkakakkakaajaaaaajaaaaada",
"fefefefkkkfkfjkfkfkkkakkakkkakkakjajajajaajakaaa",
"kefkefjfkfkkjfkkkkjfkkkajfkakkakaakajaaajaaaaaaa",
"fefefeekfjkfkkkfkakkkakakjakkakkajakajajajajadaa",
"efeeekfkjfkkkkkkjfkkakakkakkajajakkajajajaajaada",
"eeefebkkkeefefkkkkkakkkkkkkkkjajjajjajajajaaakak",
"fkbefkefefeeeejfkkkkakakjjajajjajajajajajaajaada",
"ekkkeefeeeebkkeekkkkakkjkjjjjjaijjajjjajjajaajak",
"efefkbeekbkkkkkkkkkakkjajjjaiajajaiajajjaakakaka",
"eeeeekkbkkkfekkkkkkkjjkjjjjjjiaiaijiajjajajaakdk",
"efkbefkkkeeeekkkkkkkjkjjjjaiajjjiajajjjajakajdka",
"eeekkeeebkeekekkkkkkkjjjjjjjiiaiaijijjajajakkjad",
"eeekkbekkkekkkkkkjjajjjjjjiaiaijijjjajajjakajdka",
"ebkbkkkeeekeekekjjjjjjjjjjjjjijajaijjjjajjajajdj",
"kkkkkeeeeeeekekjjjjjjjjjijijiajijijjajajkajdjdaa",
"ebkeeeeeeeeeeejejejjjijjjijijiiaiaijjjjjajdjjkjd",
"eeeeeeeeeeeeejjjjjijjjijijaijijjjjjjjjajkkjjadka",
"ebeebeeeeeeeeeeejjjijijjijijijijjjjjajjjakdjkadj",
"eeeeeeeeeeeeeeiejijjijjijijijjiaijjjjjjkkjjdjdjd",
"ebeeeeeeeejjeiejejijjijjijijijijjjjjajjkkdjjajdj",
"eeeeeeeejejejejejjijii`````ijjjjjjjjjjakkjjdkdjd",
"eebeeeeeeiejjjjjjjeiji`ii``iijijjjjjjjjjdjajdjdj",
"bejeeeeeeeejeeieieiiii`ji``jijjjjjjjjkkkjjdkjdjd",
"eebibjeeejeejejjeieiei`````ijiijjijjajjkkkkkdjdj",
"eejejeeejeejeeieieieii`````iijjjjjjjjjjjdjdkjdjd",
"ebeeeeeeejeeieeejieieijiiijijijijjjjjjkjjjkkkdjd",
"eeeeeeejeejeeeiejjjjieijijijijijjjjjjjkkjdjdkjdk",
"ebeeeeeeeeejeeeeeieieieiijiijjjijjjjjjjkkjjcjkdj",
"eeeebeeeeeeejejeieieieijjjjjjjjjjjjjcjkjckkjjdjd",
"eebeeebeeeeeeeeeeeejjjjjjjjjjjjjjjcijjjjjjkkcjdj",
"beeeeeeeeeeeeeejejeijjjjjjjjjjicjjjjjjjckjcjjdjd",
"eeebeeeebieeeeeeeejjejijjjjjjjjjijjjjjjjjkjkcjkc",
"geeeebeeeeeeeeeejejejjjjjjjjjjjjjjcjjcjkjckkjjdk",
"egegeeegeeeeeeeeejejejjjjjjjjcjjejjjjjjcjjjcjcjk",
"gebegegeeegeeeeeeeejeicjjicjjjjicjjicjjjjkkjkkkc",
"egeegegegeeeeeeeeeeejejjjjjjjjjjjjjjjjjcjcjkcjdj",
"egegebeeegegegeeeeeejeeicjjjeicejicjjcjjjjdjkjck",
"ggbegeggeegeeegegeeejejeiejciejjcijjjjjcjejcjdjc",
"egegegegegegegeegegeeejeejjjjjcjjjjcjcjicjcjjjck",
"gggegbggegeegeegeeegegjcjjcjjjjjjcijjjjjjjjcjcjk",
"ggggggeggggggeceeceecegicjjjjcjcejjjcjcjcjcjjdjd",
"ggbgegggegeggegegegeeeegjjecjjjjjcjjjjjjjcjjcjcj",
"gggggggggggggggegecegegejceicjjcjjjcjcjcjickjjck",
"ggggbgggggggggggcgeeceecejgjjjciecjjjjjjcjjcjcjd",
"ghghgghggggggeggeggeeegeeecjcejjcjjcjcjcjcjckjcj"
};
