/* XPM */
static char *noname[] = {
/* width height ncolors chars_per_pixel */
"45 45 10 1",
/* colors */
"` c #000000",
"a c #878787",
"b c #3012AA",
"c c None",
"d c #8597FF",
"e c #B72828",
"f c #5C5C5C",
"g c #FFFFFF",
"h c #D3D3D3",
"i c #C1C1C1",
/* pixels */
"ccccccccccccccccccccccccccccccccccccccccccccc",
"ccccccccccccccccccccccccccccccccccccccccccccc",
"cccccccccccccccccccfecccccccccccccccccccccccc",
"ccccccccccccccccce`iccccccccccceccccccccccccc",
"cccccccccccccccce`fccccccccccccfecccccccccccc",
"cccccccccccccccef`ecee`eccccccci`eccccccccccc",
"ccccccccccccccee`fe`eef`f`ecccccee`cccccccccc",
"cccccccccccccc`ee`eee`e`f`f`ccce`efcccccccccc",
"cccccccccccccceeehheeeefee`e`efee`f`ccccccccc",
"cccccccccccccceeeheehh`ee`effeeee`ecccccccccc",
"cccccccccccccc`hhgfhhgge`ee`e`e``fccccccccccc",
"cccccccccccccifgceehghceeefe`e`fe`ccccccccccc",
"ccccccccccccc`e`f`eehghe`e`fe`f`fcccccccccccc",
"cccccccccccccefe`fe`ghheeee`f`efccccccccccccc",
"cccccccccccce`e`ef`fhgee`e`fef`cccccccccccccc",
"ccccccceeccceeeeee`fgceeefe`f`fcccccccccccccc",
"cccccccc`ecce`ee`efee`efe`e`ef`cccccccccccccc",
"ccccccecce`cee`e`e`eeeeeee`ef`ccccccccccccccc",
"cccccce`ccfc`eeeeeeeee`e`ff`efccccccccccccccc",
"ccc`ecch`f`ccccf`e`e``e`e`fe`cccccccccccccccc",
"ccch`ecccf`hee`ie`efefef`e`eccccccccccccccccc",
"cccch`f`f`f`eeecce`ee```ebecccccccccccccccccc",
"ccccccccccce`e`cceee`eeef`fcccccccccccccccccc",
"cccccccccccfeeff`f`eeeeeef`cccccccccccccccccc",
"ccccccccccc`e``efeee`e`e``ecccccccccccccccccc",
"ccccccccccccefe``eeeeef`eefcccccccccccccccccc",
"cccccccccccce`f`feeee`e`f``eccccccccccccccccc",
"ccccccccccccccife`e`e`ef`feeccccccccccccccccc",
"ccccccccccccccce`e`ef`f`ef`cccccccccccccccccc",
"cccccccccccccccee`fe`fe`f`ecccccccccccccccccc",
"ccccccccccccccceee`fe`f`e`fdccccccccccccccccc",
"ccccccccccccccce`eeefe`ebf`eccccccccccccccccc",
"ccccccccccccccccee`e`ef`e`fediccccccccccccccc",
"ccccccccccccccccc`fe`e`f`e`f`cccccccccccccccc",
"cccccccccccccccccee`efe`f`f`efccccccccccccccc",
"ccccccccccccccc`efiha``ef`f`e``cccccccccccccc",
"cccfihhhhhifff`f``ie``fefa`ccfe`e`feccccccccc",
"ccchahghgii`ghg`e`i````f``fccccc`f`f``ecccccc",
"cccffghgi`ghghgiiffefee`ff`fcccccccccee`e`ccc",
"cccccf``f`hfffifa`f`f`f`ffafcccccccccccceefcc",
"ccccccccccihiiifaffffafafff`ccccccccccccce`fi",
"cccccccccccccccc`````ccccccccccccccceeccccce`",
"ccccccccccccccccchchccccccccccccceee`ee``f```",
"cccccccccccccccccccccccccccccccccccce``f````c",
"ccccccccccccccccccccccccccccccccccccecccchchc"
};
