/* XPM */
static char *noname[] = {
/* width height ncolors chars_per_pixel */
"48 48 14 1",
/* colors */
"` c #000000",
"a c #FFE779",
"b c #878787",
"c c #3012AA",
"d c #FF6F6C",
"e c None",
"f c #4ABD40",
"g c #8597FF",
"h c #B72828",
"i c #5C5C5C",
"j c #5278BF",
"k c #FFFFFF",
"l c #D3D3D3",
"m c #C1C1C1",
/* pixels */
"eeeeeeeeeeeeeeeeeeeeeeeeeeeeeeeeeeeeeeeeeeeeeeee",
"eeeeeeeeeeeeeeeeeeeeeeeeeeeeeeeeeeeeeeeeeeeeeeee",
"jjjjjjjjjjkkkklkkkklkkkkklkkklklkllllllmmmammbie",
"jcjjjcgcjjklkakkakaklkakaklkaklkaklllllammmbmace",
"jjjcjjjcjklkakklkkkkakkkkkakkkakllalalllmammmm`e",
"jcjjjjcjjkakkkaklkakkklkakklklk`ilkklllallmameie",
"jcjjcjjjblkklkkkakkkakkakkaklki```kallllllmmamce",
"jjjjjjccmkkakkakkkakkakkkkkli`````klkallalammbie",
"jcjccjjjbklkkakklkkkkkkaka```````illalkmllmammie",
"cjcjjjcjlkkakkkaklkakakklii``````ilkklllalmmmmce",
"cbicijicklkkkakkkakkkkkaklk``````lkalllllammmaie",
"jcjcjcjiklkakkkakkklkalkkk```````kllklallllmmbie",
"ijbcijickakkkakkkakklkkaka`````illalalklalmammig",
"jcjiccjikkkakkkakkklkakkk``````klkkkklllllmlmmie",
"icicbjicklkkkakkkaklkkka````````kallallllallmmig",
"cijiciciakkakkkakkkkaki``````````kklllllllammbie",
"iiiiiiiikklkkakkkaklk````````````llaklalllmlamig",
"icciccjclkkakkkakklk`````````````lkllllllamlmmie",
"icijiiiiklkkkakkkak``````````````lllaklallmammig",
"iciicicimlkakkklkk```````````````iklllllalmmmbie",
"iicciiciblklkakkak````````````````alllllllmammig",
"iiciiicihkllkkakk``````````````m``llkallalmmmmie",
"iciiciicilklklklk```````````m``b``llallaemammmig",
"iiiciciciklakakli```````````m``m``lll````mmmlbie",
"cii`iciiiilklkla````````````m``d``````````lammig",
"iiciciiicilllllk```````````mmi````````````mmlbie",
"i`iii`ci`iilmakl``````````````````````````mmmmig",
"icicicihciiil``m``````````````````````````ammbie",
"ihiiiiiciichil````````````````````````````mmamig",
"cic`chii`hciill```````````````````````````mmmbie",
"ihiii`iicii`iilll`````````````````````````mmabce",
"i`c`hciii`hci`````````````````````````````mbmmie",
"iihc`h`ihc````````````````````````````````ambmie",
"ii`iici```````````````````````````````````mmlfce",
"ii`h``````````````````````````````````````mbaiie",
"i`````````````````````````````````````````mbicie",
"``````````````````````````````````````````ii`h`e",
"```````````````````````````````````````````ii`ce",
"``````````````````````````````````````````hc`hie",
"````````````````````````````````````````i`i`i`ce",
"`````````````````````````````````````````h`h`icm",
"````````````````````````````````````````i`i`i`ie",
"`````````````````````````````````````````i`i``ce",
"````````````````````````````````````````i`h`i`ie",
"```````````````````````````````````````h``i``icm",
"`````````````````````````````````````````i``i``e",
"``````````````````````````````````````````````le",
"eeeeeeeeeeeeeeeeeeeeeeeeeeeeeeeeeeeeeeeeeleleeee"
};
