/* XPM */
static char *noname[] = {
/* width height ncolors chars_per_pixel */
"48 48 15 1",
/* colors */
"` c #000000",
"a c #878787",
"b c #00FFFF",
"c c #FFAE00",
"d c #3012AA",
"e c #FF6F6C",
"f c None",
"g c #4ABD40",
"h c #8597FF",
"i c #B72828",
"j c #5C5C5C",
"k c #5278BF",
"l c #FFFFFF",
"m c #D3D3D3",
"n c #C1C1C1",
/* pixels */
"fffffffffffffffffffffffj`mffffffffffffffffffffff",
"ffffffffffffffffffffffnijfffffffffffffffffffffff",
"ffffffffffffffffffffffjij`mfffffffffffffffffffff",
"ffffffffffffffffffffajjj`jjaffffffffffffffffffff",
"fffffffffffffffffffnnnfflfnjaaffffffffffffffffff",
"fffffffffffffffffnlllfffanfffnaaffffffffffffffff",
"fffffffffffffffnllmmfbfhfmfafakaafffffffffffffff",
"ffffffffffffffnllmlfhfhffffffanaajffffffffffffff",
"fffffffffffffnllnffbfbfffnafaknaaajfffffffffffff",
"ffffffffffffnllflffhfhfkffaaafaaajjjffffffffffff",
"fffffffffffalllllfbfhfbfaggaaaaaajjgjnffffffffff",
"fffffffffffnlllllffhffmaaajjgjgjjjjjjjffffffffff",
"ffffffffffalllaalffbmfnagagjjjjjg`gjjjnfffffffff",
"fffffffffkffmllflffmffgjgajgjjgj`jjjjj`fffffffff",
"fffffffffkffffhfmffffajaaajjjjjjg`g`gjjnffffffff",
"ffffffffkbfffflmffmmagjgaagjg`g`jjjjjjjjffffffff",
"ffffffffkfffbmfffafmnaajaaijjjjjgjjjjg`jnfffffff",
"fffffffjffbfffbfagamnaagajgjg`jg`jjjjjgj`fffffff",
"fffffijjhfffbhffnagaajjigjjj`gjjjgjjjjjjjj`fffff",
"fffijcijbhbfhhkfnaagigjgjjjgjjjjjjjjjgig`ijijfff",
"ff`icijjhhfhbkbkkgjjgjijjjjjjjjjjjjgjjjj`jj`i`mf",
"fnjcijijabhkkhkaaagjjjgjjjjjjjjjjjjijjjjjjijijff",
"ffijicjjaahkbkkgjjajajjjjjjjjjjjjjjg`jjjijijjjnf",
"fnjiijiiijkaakkjajjgjjjjjjj`g`jjjjjjjj`ijjiji`ff",
"ffnjgicjciigegjjjjjjjjjjjjjgjjjjj`iigiijijjj`jnf",
"ffnnijjiijciijcigiaigigigijiiiciigigiijjji`j`nff",
"fffffajjjijigiijiciiiiiijigigijjiijijjiji`j`mfff",
"fffffnnnjjijijijijjjjjjjjjijijjijjijjijj`jnmffff",
"fffffffnnjjjjijjjijijijiji`jji`jjjjj`j`jnnffffff",
"fffffffffnjjjjjjj`j`j`j`j`j`j`jjj`jjjjfnffffffff",
"fffffffffffjjjj`gjjgjgjgjgjgigjjjjjjjhffffffffff",
"fffffffffffhjjjjjjjjjjjjjijjj`jjjjjjffffffffffff",
"fffffffffffffjjjjjjjjjjjgjjjjjjjjjjhffffffffffff",
"fffffffffffffhjkjjjjjjjjjjjjjjjjjjffffffffffffff",
"fffffffffffffffjjjkjjjjjjjjjj`gdjhffffffffffffff",
"ffffffffffffffffhjjjjjjjjjg`jjj`ffffffffffffffff",
"ffffffffffffffffff`jjigiji`j```fffffffffffffffff",
"ffffffffffffffffigiigiii`jjijjj`jfffffffffffffff",
"fffffffffffffffjiciiicjjjijj``j``jnfffffffffffff",
"ffffffffffffffiicicjjjiji`ji`j`j`j`fffffffffffff",
"fffffffffffffjgcijiii`jijji`j`j`j`jjnfffffffffff",
"fffffffffffffiiigicigij`j`j`j`j`i`j`ffffffffffff",
"fffffffffffffjiciigiijij`iji`j`j`ji`mfffffffffff",
"ffffffffffffn`jigicicijjij`j`i`i`j`jffffffffffff",
"ffffffffffffffjiiigiigiijji`jjj`jijnnfffffffffff",
"fffffffffffffnn`giigiciiijji`i`ji`nfffffffffffff",
"ffffffffffffffffn`jijjjjjijjjjijnnffffffffffffff",
"fffffffffffffffffmm`i`iji`j`i`nnffffffffffffffff"
};
