/* XPM */
static char *noname[] = {
/* width height ncolors chars_per_pixel */
"48 48 20 1",
/* colors */
"` c #000000",
"a c #FFE779",
"b c #878787",
"c c #00FFFF",
"d c #00FF00",
"e c #FFAE00",
"f c #3012AA",
"g c #FF00FF",
"h c #FF0000",
"i c #FF6F6C",
"j c None",
"k c #4ABD40",
"l c #8597FF",
"m c #B72828",
"n c #5C5C5C",
"o c #5278BF",
"p c #FFFFFF",
"q c #FFFF00",
"r c #D3D3D3",
"s c #C1C1C1",
/* pixels */
"jjjjjjjjjjjjjjjjjjjjjjjjjjjjjjjjjjjjjjjjjjjjjjjj",
"jjjjjjjjjjjjjjjjjsrrjabbsbbssjbbsbjjjjjjjjjjjjjj",
"jjjjjjjjjjjjjjsrpbenmnnmkmkmknejbsbjjjjjjjjjjjjj",
"jjjjjjjjjjjjsprbennemknkmknnknknksbjbjjjjjjjjjjj",
"jjjjjjjjjjjrrnembmknnmnmkmkmnenenekbbbjjjjjjjjjj",
"jjjjjjjjbrrsmebmkemkmknnnkmnknkkkkekkbbbjjjjjjjj",
"jjjjjjjjrrebbemebmenenmkmnkmkenekbkbakbbbjjjjjjj",
"jjjjjjbprbeimbbmkmknnnnnnkmkkmkkkekkkbbbbbjjjjjj",
"jjjjjjrsesieiebememmenmkmnnnnkmkekbqbqskkbbjjjjj",
"jjjjjsrsiibbebemkbeknnkmkmknekekbkkkjkkasnbbjjjj",
"jjjjjriisebibimambmkhkmnnnmkknkkekbqoaoksknbsjjj",
"jjjjraribiiibesnebemkmnkmknkmkekkakbkkasksbnbjjj",
"jjjsrisesiabibmimembennmkmnnekknkbqjkskasksknjjj",
"jjjrsisisiseisesebkmnennnnknkekkakjkaskskssknbjj",
"jjsribsisisisebibiebebbebebebkebkskksksskskjknjj",
"jjrsriirisiisiisebibbbjjjjjjsbkakkasaskjksjkbnbj",
"jjrigsisgesiisimsbissjjjjjjjjjbskrkskjskjkssknbj",
"jsjibisibibisiriesjjjjnnnnnbjjjjsksjksksjkjksknj",
"brbibigbilisibsisijjb```nn`nnsjjjskskjkjkjkjkk`j",
"jrgbgbiibiigsisisljb`nsjjjjjonjjjrksjkrkckjkcj`j",
"brbiibbgsbbibigssjb``jjjjjjjjbbbjjskckjkskkkbknj",
"ssbinginiiibgibbjjn`bjjjjjjjjjbbjjjkskjkkcjkjknj",
"sibgbmbgbgbibmisjj`njjjjjjjjjbjjjjjkjdbcbkkckkfj",
"ssgmibibmingbibjjj`njjjjjjjjjjjsjjsckkokkkobkokj",
"sbbngngbifinmgbjjj`njjjjjjjjjjssjjskockkockkcknj",
"jiibni`ifififbbjjj`njjjjjjjjjjsrjjjokookokkokonj",
"jlngmfin```nmn```jn```j`jj`j```nj``ko```c```odnl",
"bsnbbnn`ppp`fn`ljj`nb`j````j`sp`j``ok`cnko`oko`j",
"jjifmgf`ppp`mn`bsj`bn`j`n``j```nj```f`nkno`odo`j",
"slmfnnm`ppp`ff```jn``nb`jj`r`rjj`ok`n```ok`non`j",
"jbbmgfn`ppp`mfmfbjjjjbsjsrrrsjjjjnfknnonnkonc`nj",
"jbbfnmf`ppp`fnnfmojjjjjjjjjjjjjjoonnnndokfknk`nj",
"nb``````ppp`n`````bj```````````bo`````````nnn`sj",
"b`ppppppppp`f`ppp`fnnppppppppp`o`npppppppp```njj",
"`pppppppppp`b`ppp`o`pppppppppp`o`pppppppppp``bjj",
"`pppn```ppp`f`ppp`o`pppn``````no`ppp```nppp`njjj",
"`ppp`nf`ppp`b`ppp`b`ppp`lllooooo`ppp`on`ppp`bjjj",
"`ppp`nm`ppp`n`ppp`o`ppp`slololoo`ppp`no`ppp`jjjj",
"`ppp`bo`ppp`o`ppp`o`pppf`````nfo`ppp`oo````njjjj",
"`ppp`bb`ppp`o`ppp`b`pppppppppnno`ppp`onon`bjjjjj",
"`ppp`jb`ppp`b`ppp`lfnppppppppp`o`ppp`oo``sjjjjjj",
"`ppp`jj`ppp`o`ppp`bo``````orpp`o`ppp`o``````jjjj",
"`ppp`jj`ppp`o`ppp`ogolllll`ppp`o`ppp``n`ppp`jjjj",
"`ppp`jj`ppp`m`ppp`olbllbll`ppp`l`ppp`bb`ppp`jjjj",
"`ppp```nppp`b`ppp`ln``````nppp`o`pppb``nppp`jjjj",
"`pppppppppp`j`ppp`b`pppppppppp```pppppppppp`jjjj",
"`bppppppppp`j`ppp```ppppppppp``bn`ppppppppnnjjjj",
"r``````````njn```ns```````````bjnb`````````jjjjj"
};
