/* XPM */
static char *noname[] = {
/* width height ncolors chars_per_pixel */
"48 48 12 1",
/* colors */
"` c #000000",
"a c #FFE779",
"b c #878787",
"c c #FFAE00",
"d c #FF6F6C",
"e c None",
"f c #4ABD40",
"g c #B72828",
"h c #5C5C5C",
"i c #FFFFFF",
"j c #D3D3D3",
"k c #C1C1C1",
/* pixels */
"eeeeeeeeeeeeeeeeeeeeebdkjaeeeeeeeeeeeeeeeeeeeeee",
"eeeeeeeeeeeeeeeeeeekbjadajkeeeeeeeeeeeeeeeeeeeee",
"eeeeeeeeeeeeeeeeeeehkjkkkjjaeeeeeeeeeeeeeeeeeeee",
"eeeeeeeeeeeeeeeeeehjjjjjjjjjkeeeeeeeeeeeeeeeeeee",
"eeeeeeeeeeeeeeeeehkkkjkjjjjjjaeeeeeeeeeeeeeeeeee",
"eeeeeeeeeeeeeeeegkkkkddkdkaijjkeeeeeeeeeeeeeeeee",
"eeeeeeeeeeeeeeehjjbgh`hggaddkakjeeeeeeeeeeeeeeee",
"eeeeeeeeeeeeeehbd`h`hgghcdaadgbgkeeeeeeeeeeeeeee",
"eeeeeeeeeeeeehdh`hggggfcbchgchgghdbkeeeeeeeeeeee",
"eeeeeeeeeeeegb`h`ghggfggdgcghggghhgbeeeeeeeeeeee",
"eeeeeeeeeeehhh`ghghhggcbchchchhggghbdeeeeeeeeeee",
"eeeeeeeeekhh``hg`hhgfghgchghggghgfghgbeeeeeeeeee",
"eeeeeeeeehhg`g`hgg`ghggfgggghgfgghgghbgeeeeeeeee",
"eeeeeeekhhh`hhg`h`ghgfgggfgfghgghgfghgbbeeeeeeee",
"eeeeeeehh``h``hhghh`ghgfgggggfghghghghghbkeeeeee",
"eeeeeegh`h`h`g`g``hghhggggfghghghghghgh`gbeeeeee",
"eeeee`hhh```h`h`hg`ghghfgfgghghhghghghgh`hdeeeee",
"eeeehgbh`h`h`h`h`gh`hhggggghghghgfghgfggh`hbeeee",
"eee`hbh```h``hg`g`hgghhcbchghghghghghghgh``gbkee",
"ekhgbgh``h``h``h`hg`hhchdbdfgfghhghhghghg`h`hbee",
"e`hhbbh`h``h``h`g`hggbdgchcdghghghghhghghh```gbk",
"`hdbbhh``h``h`g`h`h`cbcbbdbhchghghhghghhg`h`h`hd",
"gadhbg``h``h``h`g`ghbdbaabgchhhghhg`ghghgh``h``h",
"ajbdbhh``h``h``h`hhgdfdbdbdhgghhghgfghhghg`h``h`",
"gcbbhh`h``h``h`h`g`cbdbcbkbchhghhg`ghghgf`h`ghg`",
"`hbgbhh`h```h```h`hhbakdbcbagfg`ghhghhghgg``hadh",
"ehhbbb```h`h``h`g`ggbcbdbdbgghghghghhghhgh`hggfd",
"ekbgbghh`h`````h`h`hgbdbacbdfghghhh`ghghg`h`hcgb",
"eekhbbh```h`h`h`h`ghgabajkacghghhghghhhgh`hggcbc",
"eeejhbhh``h``h```h`hhgajijgghghhg`ghghghgh`hcbgd",
"eeeeebb`h``h```h`g`g`gcdachghhhghhhghhgh``gbdcbc",
"eeeekkbb``h``h`h``h`hhhghgghghg`hghhghghghhhcbcg",
"eeeeeekbh``h````h`h`g`ghgfghghhghghghghghhggchcb",
"eeeeeeekhh``h`h`h``h`hgfghgghhghghcgfgcgchcbbgcg",
"eeeeeeeeehh``h```h`g`ghghgfhghhghggcgcbchdbdgbdf",
"eeeeeeeeekhh```h```h`h``h`ghhghhgfgbcbghgbgbdfgd",
"eeeeeeeeeeehh`h`h`h``hg`h`h`h`hg`ghhgcbghhgfhghg",
"eeeeeeeeeeekhh``````h``hg`ghg`g`h`g`h`ghg`hgh`hb",
"eeeeeeeeeeeeehh`h`h``h`g`h`g`hhg`h```h``hg```hgg",
"eeeeeeeeeeeeekhh```h`g`h`gh`h`gh`h`h``h``hhg`hgh",
"eeeeeeeeeeeeeekhh````h`h`h`g`gh```h`h``hh```hgbg",
"eeeeeeeeeeeeeeebhh`h``h``h``h``h`h````h```h`hhgb",
"eeeeeeeeeeeeeeeeehh``h``h``h``h```h`h``h`h```ghc",
"eeeeeeeeeeeeeeeeebhh``h``h``h```h`h``h``g`h`h``h",
"eeeeeeeeeeeeeeeeeeehh``h``h``h`h`h``h`hh`gg`h`hg",
"eeeeeeeeeeeeeeeeeeebhb``h``h`h``h`h`hg`gg`h`h```",
"eeeeeeeeeeeeeeeeeeeekhh``h`````h`h`gcgh`h`gg`gh`",
"eeeeeeeeeeeeeeeeeeeeekhb``h`h`h`h`ghg`ghgh`h`h`h"
};
