/* XPM */
static char *noname[] = {
/* width height ncolors chars_per_pixel */
"48 48 13 1",
/* colors */
"` c #000000",
"a c #FFE779",
"b c #878787",
"c c #FFAE00",
"d c #FF6F6C",
"e c None",
"f c #4ABD40",
"g c #B72828",
"h c #5C5C5C",
"i c #FFFFFF",
"j c #FFFF00",
"k c #D3D3D3",
"l c #C1C1C1",
/* pixels */
"bbbhbbbhbbbhbbbhbbbhbbbhbbbhbb`iiiiiiiiiiiiiiiii",
"bkiikikiikiikikiikiikikiikiiki`iiiiiiiiiiiiiiiii",
"bkikiikikikiikikikikiikikikiik`hhhhhhhhhhhhhhiii",
"bikiikikiikikiikiikiikikiikiki`ikikkikkkikkkikii",
"bkihhbbihbhlhbhlhbbbbbiikiikik`ikikikiiikiiihkii",
"hikiikiiikikiiikikiikiikikikii`kikiiikikikikhiii",
"biihhklhbbbbhkbbblbhbbblblliki`````kiikiikikhkii",
"bkikiikiikiiiiiiikiiiiiikikiki`````ikikikiikhiii",
"bkiikbhbbllbhbbbbkbhilkiikiiki`````ikiikikiihkii",
"hiikiiiiiikiiiikikiiikikikikik`````kiikikikkhiii",
"bkibbblbhbhhbbbbbikikiikiikiki`````ikikiikiihkii",
"bikikikikikikiikiiikikikikikii`````iikikikikhkii",
"bkihlhbkhkbkkhhbbhlhkbkkhikiki`````kiikikikihiii",
"hikikiikiiiikiiiiiiiiiikikiiki`````kikiikiikhkii",
"bikbhbhbbhbhhblbhhbhbhhhbikiik`````iikikikikhiii",
"bkiikkiikikikikikikikikikikiki`````ikikikikihkii",
"bikiihhlhbhbbllhbklhbiikikikii`````ikiikikikhiii",
"bkikikikiiiikikiikiikikikikiik`hdhaaaadaadaadac`",
"bkikihhbkbbhlbhbbibllkikiikiki``ghcggchcgfgggfg`",
"hikikiiiiiiikiiiiikikikiikiiki`ghgbcfgcfcgccfgh`",
"biikkhhblbhhlblbbbikiikikikiik``ghccbcbgg`ghgcg`",
"hikiiikikikikikiiikikikikikiki`gfgcbcgcgcc`gfgh`",
"bkibhbkhhbkbhhkblbbklbikikikik`gghccbgcfc`aghgg`",
"hiikikikikikiikikiikikikiikiii``hhcbcfgc`ach`gh`",
"bkihhklhlblbhbhbbbhkbhhkbkikik`gghccbgghcghg`cg`",
"bkikikiikikiiiiiikiikikikikiki`gfgbbcg`jgfgh`gh`",
"bikhlhlblbbbhbbhbkbhhkbkikiiki``ggcccfghg```cfg`",
"bkiiiikikikikiiikikikikikiikii`ghcfdfdcf`ghhcgg`",
"bikkikikikikikikikikikikikikik`hghccdcbccfgchc``",
"bkiikikikikikikikikikikiikikii``chcbcbcdhccgcfg`",
"b``````````````````````````````ggfccbcbcgchchgg`",
"iihiii```````````h`g`g`ghhhghhhhfgbcbccbcfcgcgf`",
"iihkki```````````dgfggfgghgfgggfggccbcbcgchcfgg`",
"iihiii```````````fhggfghcgfghcfgcfbcbccdfgcfgch`",
"iihkki```````````accccccbjccacdcbccdcfdfccggchg`",
"iihikikiiikiiiiiiafdfdfdjdbacbcaccbcbdccgfcgfgh`",
"iihkiikikiikkikkidcccbghghccbcacbcaccfghghgfgc``",
"iihkikiikikiiikiiabbcgcgc``djbcbcahcbcgcgc`ghcg`",
"iihkikikikikikikiacchcbc`cghcacdcbccbgcfc`aghgh`",
"iihkiikiikiikikikabchgc`afg`cbjbcbcbchcc`ach`gh`",
"iihikikikikiikikidcbgghccgg`acdcacbcc`ghcghg`fg`",
"iihkikikikikikiikafch`jghhhhcbcbchcbcg`agfgh`gh`",
"iihkiikiikikiikiiadcgghh`g`gccbcccbcbchgh```cgh`",
"iihkikikikiikikikahcfch`hgfcbbcbcbchcgch`ghghgh`",
"iih`hhhhhhhhhhhhhldcgcccccdccccfccbchchcgfgggfg`",
"iieeeeeeeeeeeeeeeahcfdbbcbfcbdfdcbgccgchcgfgfgh`",
"eeeeeeeeeeeeeekiilgcgggggfgggfggghgh`hghg`ggg`g`",
"iiiieeeeeeeeeeeeigghhgfh`ghh`g``````````````````"
};
