/* XPM */
static char *noname[] = {
/* width height ncolors chars_per_pixel */
"48 48 12 1",
/* colors */
"` c #000000",
"a c #878787",
"b c #3012AA",
"c c #FF00FF",
"d c #FF6F6C",
"e c None",
"f c #8597FF",
"g c #B72828",
"h c #5C5C5C",
"i c #FFFFFF",
"j c #D3D3D3",
"k c #C1C1C1",
/* pixels */
"eeeeeeeeeeeeeeeeeeeeeeeeeeeeeeeeeeeeeeeeeeeeeeee",
"eeeeeeeeeeeeeeeeeeeeeeeeeeeeeeeeeeeeeeeeeeeeeeee",
"eeehhhhhhhhhhhhhhhhhhhhhhhhhhhhhhhhhhhhhhhhhheee",
"eeehijijjijjijjijjijjijjijjijjijjijjijjijjij``ee",
"eeehjijiijiijiijiijiijiijiijiijiijiijiijiiji```e",
"eeehijiijiijiijiijiijiijiijiijiijiijiijiijii```e",
"eeehjiijiijiijiijiijiijiijiijiijiijiijiijiij```e",
"eeehjijiijiijiijiijiijiijiijiijiijiijiijiiji```e",
"eeehijibhjbhbhjibhbhbjhbhbhjbhbhbjhbhbjijiij```e",
"eeehjiijjijjjijijjjjijijjjijijjjjiijjjijiiji```e",
"eeehjijbhbgbbgjbhibgbhbgbhbgjiiiijiiiiiijiij```e",
"eeehjiijijijijiijijijjijijijijijijijijijijii```e",
"eeehijibgbbgjbbhbgbbgbbhjbhbbhbhbhbgbhbhbhji```e",
"eeehjijijjijiijjjijijijjijjijjjjjjijijjjjiji```e",
"eeehijiiiibhbhbgbbhbjbgbbgbhbgibgbbjibiiijij```e",
"eeehjiijjijjjjijijjjijijijijjijijijiijjijiii```e",
"eeehjijbhbgbhbgbhbgbhbhjbhbhbbhbhbgjbhbgjiji```e",
"eeehiiijijijijijjijijjijijjijjjjjijijjijiiji```e",
"eeehjjibgjbjijiiijijiijijiijiiiiijiiiijijiij```e",
"eeehiijijiiijkbgbgaijijkbgbgihjijiagbghaiiji```e",
"eeehjijbhbjiagkjikbiijigkiijbgijiaaaiibgbiij```e",
"eeehijiijjijdbjiijagjiibjijiibiiigbijijhhiji```e",
"eeehjijbhijijcjijigbiijghijijajiaajiijihjjii```e",
"eeehijiijjiijijifgbgijihbgbjiijigbiijijjiiji```e",
"eeehjijbgbbjiiahgjhbiijigbghbjijhgjiijiijiij```e",
"eeehjiijijiiagaajibgijijijgbghijgbiijiijiiji```e",
"eeehjijiijijhbiiijhhjiibijijabgjbg`iijijhjii```e",
"eeehiiia`kjibgijijg`ijihgijii`hjk`hhjiiahiij```e",
"eeehjji```ijgbjiab`bjijbgjijahjijk`b`h`bajii```e",
"eeehiiia`kjii`g`hag`h`i`ib`hhajijik`hhaijiij```e",
"eeehjjiiijijiiiijijiiiiijiijjiiiijiijjijijii```e",
"eeehiiijijiijijijiiijjijiijiijijijijiijiiiji```e",
"eeehjji`b`hjb`h`b``iiibhbjijiijiijiijiijijij```e",
"eeehjiiijijijijijiiijijjjijiijiijijijijijiii```e",
"eeehjijbhbjbgbbhjbhbhbgi``ijijijiiijiiijijij```e",
"eeehiijijjijijjijijjjijiiiiijiiijijijijiijii```e",
"eeehjiijiiijibgbbjbgbbhbjbhbhbhjbbhbhb`ijiij```e",
"eeehjijijijijijijiijijjijijjjjijijjjjjiiiiji```e",
"eeehjii`ibhbhbhbgbhbhbgbhbj``i```ibgbhbhbjii```e",
"eeehijijijjjjjjjijjjjijijjiiiiiiiijijijjjiji```e",
"eeehjiiijiiiiiiijiiiijijiijijijijiijijiiijij```e",
"eeehijijijijijijijijijiijiijiijijijiiijijiii```e",
"eeehjiiiiijiijiiijiijiijijiijiiijiijijiijiji```e",
"eeeh```````````````````````````````````````````e",
"eeee```````````````````````````````````````````e",
"eeeee``````````````````````````````````````````e",
"eeeeeeeeeeeeeeeeeeeeeeeeeeeeeeeeeeeeeeeeeeeeeeee",
"eeeeeeeeeeeeeeeeeeeeeeeeeeeeeeeeeeeeeeeeeeeeeeee"
};
