/* XPM */
static char *noname[] = {
/* width height ncolors chars_per_pixel */
"48 48 17 1",
/* colors */
"` c #000000",
"a c #FFE779",
"b c #878787",
"c c #FFAE00",
"d c #3012AA",
"e c #FF0000",
"f c #FF6F6C",
"g c None",
"h c #4ABD40",
"i c #8597FF",
"j c #B72828",
"k c #5C5C5C",
"l c #5278BF",
"m c #FFFFFF",
"n c #D3D3D3",
"o c #C1C1C1",
"p c #0000FF",
/* pixels */
"gggggggggggggggggggggggggggggggggggggggggggggggg",
"gggggggggggggggggggggggggggggggggggggggggggggggg",
"gggkkkkkkkkkkkkkkkkkkkkkkkkkkkkkkkkkkkkkkkkkkggg",
"gggkmnmnnmnnmnnmnnmnnmnnmnnmnnmnnmnnmnnmnnmn``gg",
"gggknmnmmnmmnmmnmmnmmnmmnmmnmmnmmnmmnmmnmmnm```g",
"gggknmmnmbjjjjbmjnmmbjjjbjmnjjjonmmnmmbjjjmm```g",
"gggknmnmjjbnnbejemnkebmbejnmnjjjnmnmmnjjjonm```g",
"gggkmmnjjnmmmmnjjmnjjmnmnjmmm`j`mnmmnm`j`mmm```g",
"gggknmbjjnmnmmmnjnmjjnmmmnnmnjj`jnmnmjj`jnmn```g",
"gggknm`jnmnmnmnmnmnj`jnmnmmmnjb`jmnmm`o`jmnm```g",
"gggkmnj`mnmmnmmnmmnbj`j`mnmnm`mj`mmnj`mj`mmn```g",
"gggknm`jmmmnmnj`j`mmnj`j`mnmm`n`j`nm``m``mnm```g",
"gggkmn``mnmmnmn``mnmnmn``jnmn`mm``mm`mm`jnmm```g",
"gggkmnj`mnmnmmnj`nmmmnmo``kmm`nm``m``nm``mnm```g",
"gggknmb``mmnmnm``mnmnmmnm``mn`mmm``jmmn``mmn```g",
"gggknmm``mnmmno``mm`mmnmm``nm`mnm```mnm``mnm```g",
"gggknmnm```mn```onm``bmn``omm`mmno`onmm``mmn```g",
"gggkmmmnmo````bmmnm`b```onmn```mnm`mnm````nm```g",
"gggknnmmnmnmmmmnmmnmmmmnmmnmmmnmmnmnmmmmmmmm```g",
"gggkmmnmnmmnmnlnmnmmlmnmmnmnmnmmnmmmnmnnmnmn```g",
"gggknmmnmmnmngpgmnmgpomnmmmmnmnmmnmnmmmmnmmm```g",
"gggkmnmmnmnmmidimmnidimnmnmnmmmmnmnmmnmnmnmn```g",
"gggknmnmmnmmnldlnmmldlmmndimnmnafaanmnmmnmmm```g",
"gggkmnmmnmmnmlddmmnldinmndlnmaacbcafmmnmmnmn```g",
"gggknmnmndmmndddmnmdddmmgdlajcbcbcaacanmnmmm```g",
"gggkmnmmgdgnmdldmmndldmnancbackcbcjhfafamnmn```g",
"gggknmnmldlmmdldgmndlaaabcbcjhjjhcbcajhcfanm```g",
"gggknmmnldlmgdgdgngdfabacfchjjhjjhjcbcchafam```g",
"gggknmnmddkngdndbmlaacafahcfhjjhjjchjcbcfacaf``g",
"gggkmndm`ddmbdnllmlafabacjchcjkcjkcbchcjabafaa`g",
"g``koldkdbdnblnbdmdcoacakcbcjhckkchcjfhcacabca`g",
"g`d`d`dddg`mdlmlkndj`acbcbcjhjjkcjjfhcajabcaaa`d",
"gggknmb`lndokbnodn`jk`aacakcjchjhchcjcbacaafa```",
"gggkmmndbndbdgmn`g`kjjkjbcahabccjjckaaaaafak`j`g",
"gggknmnbgmkl`onmdkdnncjkaaafcahaahcckcfaaa`jjh`g",
"gggknmmmmnkd`nmnk`kmngjjkjaafafcfcbfaaa`k`jhj``g",
"gggkmnmnmmb``mnmd`knmn`jkjc`aaaaabca`j`c`cka```g",
"gggknmmnmng`dmmmb`lmmm`kjhjjk`afaajhjjhjjmnm```g",
"gggknmnmmno`knnmb`gnmnkgnjjhjcjaakjkkkjnnmmn```g",
"gggkmnmmnmm`kmmmg`omnmmmmnnjkjc`kkjkjnnmmmnm```g",
"gggknmmnmnm`bmnmnbmnmnmnmnmnnkjkj`cnnmmnmnmm```g",
"gggkmmnmnmmbgmnmmnmnmmmnmmnmmnnj`mmnmnmnmmnm```g",
"gggknmmmmnmmmnmmnmmmnmnmnmmnmmnmmnmmnmmmnmmn```g",
"gggk```````````````````````````````````````````g",
"gggg```````````````````````````````````````````g",
"ggggg``````````````````````````````````````````g",
"gggggggggggggggggggggggggggggggggggggggggggggggg",
"gggggggggggggggggggggggggggggggggggggggggggggggg"
};
