/* XPM */
static char *noname[] = {
/* width height ncolors chars_per_pixel */
"48 48 12 1",
/* colors */
"` c #000000",
"a c #FFE779",
"b c #878787",
"c c #FFAE00",
"d c #FF6F6C",
"e c None",
"f c #4ABD40",
"g c #B72828",
"h c #5C5C5C",
"i c #FFFFFF",
"j c #D3D3D3",
"k c #C1C1C1",
/* pixels */
"eeeeeeeeeeeeeeeeeeeeeeeeeeeeeeeeeeeeeeeeeeeeeeee",
"eeeeeeeeeeeeeeeeeeeeeeeeeeeeeeeeeeeeeeeeeeeeeeee",
"eeehhhhhhhhhhhhhhhhhhhhhhhhhhhhhhhhhhhhhhhhhheee",
"eeehijijjijjijjijjijjijjijjijjijjijjijjijjij``ee",
"eeehj``h`iiijiiji``h``h``hj`h``iij`h``iiiiji```e",
"eeehiih`iijiijiijhhjiijh`hii``ijiii``iijijii```e",
"eeehjj``ijijiijii`iijib`hjijh`iijii`hjiijiji```e",
"eeehjih`iijiijiijiijibh`hjijh`ijiijh`iijijii```e",
"eeehji`hjiijiijijijii``fiiji`hjijij`hjiiiiji```e",
"eeehijh`jijiijijiiijk`hjijii``ijiijh`jijjiji```e",
"eeehji`hjiijiiijijib`hhjiiji`h`h``h`hjiiijii```e",
"eeehii``ijijijiijibh`hijijijh`ijiji``ijijiij```e",
"eeehji`hjiiijijiij``fjijiiji`hjiiijh`iijiiji```e",
"eeehijh`jijijiijibh`iijiijii``ijiji``ijiijii```e",
"eeehji`hjiijii`ibh`hijiji`ijh`iijii`fjijiiji```e",
"eeehijh`jijiih`i``hijiiih`ijh`ijiijh`jiijiji```e",
"eeehj``f``h```hjh`h``h``h`ijjiijij``h`ijiiij```e",
"eeehiiijiijiiijijijiijiijiijkahbhkiijiiijiji```e",
"eeehjjiijiijijijijijijikabbgbggfgghhijijiiji```e",
"eeehiiijiijijiiijiikabbhhbchcbfgdfgfgbjiijii```e",
"eeehjjiijiijijijkbdbdbcbghhbghchhgbgfghhjiji```e",
"eeehiijijijiihkbabbcbbbbbchhcbgbgfgh`ghhghii```e",
"eeehjijiijiij`gbdbabdcbcbhgbhhgfghhgfhghhhg````e",
"eeehijiijiiji`hhfdbbbbbbcbbcgh`gfgfghgfghhhhhh`e",
"eeehjijiijiii`ghghacbdbgbdfhhhch`ghgfghhhghhg`h`",
"eeehijiijijijh`h`hhbbcbchhghchhgbhfghghhghhhhg``",
"eeehjijiiijii`ghhhghdh`hgfghgfgbgchhgfghhghg````",
"eeehjiijijiijh`hg`hh`hcbgbbchdfgfhhghhgh````````",
"eeehjijiijiji`hhhhgh`hhbcbgbgfgchggfg``h`h``````",
"eeehjiiijiiijh`ghhhhhgfgbbchcbghhchhh`h````h`h``",
"eeehijijijiji`hh`ghh`hghhgbhgbchg``````h`h``````",
"eeehjijiiijii`hghhhg`hhgfhcbch`h`hh`hh`h```h``h`",
"eeehijijijiijhghhghhhghhgghhh`g`h`g`h``g`h``````",
"eeehjiiijiiji`hhhhhg`hfghhfghhhh`h`h``h```h`h`h`",
"eeehjijiijiij`ghhghh`ggfgggfg`h`gh`hg``h`h```g``",
"eeehijiijiijijh`hhfghhfghhfgh`hhh`h`h``g`h`g````",
"eeehjiijijiiiji`ghgh`ggfgchbgh`g`hg`h`h`h``h`h`h",
"eeehiijijiijijii`gfghhfghhgb`ghhh`h`h``h`h`h````",
"eeehjiiiijijiijii`hh`cghchchhh`g`hg`h`g`g`h`h`h`",
"eeehjijijijiijiiji`ghhfghbghhghhhh`hh`h`h`h```he",
"eeehjijiiiijiijiiji`hggbgfdfg`hhg`hg``h`h``h```e",
"eeehijiijijijijijiii`hfgfghghhhh`hhhh``g``hi```e",
"eeehjiijijiiijiijijii`gbdfdfghhghh`g`h``hiji```e",
"eeeh````````````````````hgfgh`hh`ghh```````````e",
"eeee`````````````````````cbbghghh``````````````e",
"eeeee`````````````````````hghhhh```````````````e",
"eeeeeeeeeeeeeeeeeeeeejeee``ch````jjjjejeeeeeeeee",
"eeeeeeeeeeeeeeeeeeeeeeeeee`````ejeeeeeeeeeeeeeee"
};
