/* XPM */
static char *noname[] = {
/* width height ncolors chars_per_pixel */
"48 48 15 1",
/* colors */
"` c #000000",
"a c #FFE779",
"b c #878787",
"c c #FFAE00",
"d c #3012AA",
"e c #FF6F6C",
"f c None",
"g c #4ABD40",
"h c #8597FF",
"i c #B72828",
"j c #5C5C5C",
"k c #5278BF",
"l c #FFFFFF",
"m c #D3D3D3",
"n c #C1C1C1",
/* pixels */
"ffffffffffffffffffffffffffffffffffffffffffffffff",
"ffffffffffffffffffffffffffffffffjnebffffffffffff",
"ffffffffffffffffffffffffffffffjmababjeffffffffff",
"ffffffffffffffffffffffffffffjnabebbebjffffffffff",
"ffffffffffffffffffffffffffjmanbnbababjnfffffffff",
"ffffffffffffffffffffffffjanenibebbeba`ffffffffff",
"ffffffffffffffffffffffjmanbbbjbbbebnbjnfffffffff",
"ffffffffffffffffnmnbb`abebbijcbbcbabe`ffffffffff",
"ffffffffffffffffmbjamn`bbjibbbbebbbba`ffffffffff",
"fffffffffffffffnjanenajijibgebcbbebcbjffffffffff",
"ffffffffffffffjmanbbbjbjjbibbbbbabbbb`nfffffffff",
"ffffffffffffjambejejibe`jcbbbcbejjcbej`fffffffff",
"ffffffffffjnabnbbjjjibbjbbbibbjbcbbbij`mffffffff",
"fffffffnjnanbebijijibba`ijcbibibbibcbejfffffffff",
"ffffffjmabebbjjjbjbbjibjbbjbcbbibbbbba`fffffffff",
"ffffjambebbjijijiijajllm`bijbibbcbcbebb`ffffffff",
"fffnabbbbijjjjjigbljblm``ibbigbibbbabaj`mn`lf`ff",
"fnjmmbibigijijijb`jbml```bjcbemalml`abebimn`lb`f",
"fmm`imbjjjjjjjjjillllf```bibjba`llm`bejjfmn`ll`f",
"njj``jcjijijijijjgjghhj``ibibmejlmn`j`fnflmnlmjf",
"fmi``jmjjjjjjjjjijj`ji````nmnmmmma```jnffmlj```f",
"nnj`jim`j`i`ijijjbffkhj```lmjmabcbi``fffflmj`j`f",
"fmj`jjajijjjjajmli`i`i````lb`legegj``mfffmlj```f",
"faj`ijnj`jjm`jml`jjjj`j`jjbbjmagea``j`mlnnmii`if",
"fmj`j`miji`mmmmbgnbfff```jjj`meeba``j`lmfjlnjjjf",
"fni`ijaj`jjmbggj`ji``jj``jbb`a`jji``j`mll`lbijjf",
"fmj`bjnj`ijaj````gjfhbj`jjkbjmbcbe``j`j`j`lnjjjn",
"nnj`jim`ij`mgjjj`bhfhh````jj`maebaj``jj`j`mebijf",
"fmj`bjbij`jaj````gjhhbj`jjkgjmgbae``jjbbj`lnjjjn",
"nmi`e`ab`jjnj````jdfhkj``jif`lcgebj`jbebb`lejjjf",
"fmj`bjibji`mgjjj`gfhhbd`j`jbjmbeabi``b`jb`mni`if",
"nnijbjjbj`jaj````gdfhbj``jjb`meabe``jbbbb`lejjjf",
"fmj`bi`ajj`mggjj`bjhhbd`j`jnjmnbabj`j`bb``ln`jjn",
"nni`n`ije`jmbjjj`g`fhf``jjbb`mebcbi``j`ij`lejijf",
"fmj`ajjj`j`mbggj`ghfhkj`j`fbgmnege``jjj`j`lnnjjn",
"faj`bj`i`jilgjjj`jjhhbj`jjjb`lbabaj``j`j``mejjjf",
"fmj`ajj`jijngjg``bhfhbd`j`injmebcbi`j`j`j`lnijif",
"fmi`bijij`jaj````jnhhkj``gkb`meabn```i`jj`lbjjjf",
"fmj`mj`jjjjnj````ghfhbj`jjjbjmbgcej`jbbjj`lnjjjn",
"nmi`m`ij`ijag`j```ii`i``j`jn`lceba``j`j`j`mi`i`f",
"fmj`ajjjij`nj````mhhhfj``jjbjmbjjej`jjbej`lejjjn",
"faj`m`i`jjjaj`j``jjij`j``jbb`ma`jn``jibjb`lj```f",
"fmj`mjjjij`mgjjj`j`j`j````jj`lbj`a``j`jj``lj```f",
"nnj`ajij```mbjgj`jhfhhj`jjkgjma`jcj`jbjjb`lejjjf",
"fm``mj```````````gbhhf`j`````ebcbb``j`jj``j````f",
"f`jj````````````fghfhhjffffffj`````j`````jffffff",
"ff````````````fff``````ffffffffffmffffffffffffff",
"ffff````````ffffffffffffffffffffffffffffffffffff"
};
