/* XPM */
static char *noname[] = {
/* width height ncolors chars_per_pixel */
"48 48 12 1",
/* colors */
"` c #000000",
"a c #FFE779",
"b c #878787",
"c c #FFAE00",
"d c #FF6F6C",
"e c None",
"f c #4ABD40",
"g c #B72828",
"h c #5C5C5C",
"i c #FFFFFF",
"j c #D3D3D3",
"k c #C1C1C1",
/* pixels */
"eeeeeeeeeeeeeeeeeeeeeeeeeeeeeeeeeeeeeeeeeeeeeeee",
"eeeeeeeeeeeeeeeeeeeeeeeeeeeeeeeeeeeeeeeeeeeeeeee",
"eeeeeeeeeeeeeeeeeeeeeeeeeeeeeeeeeeeeeeeeeeeeeeee",
"eeeeeeeeeeeeeeeeeeeeeeeeeeeeeeeeeeeeeeeeeeeeeeee",
"eeeeeeeeeeeeeeeeeeeeeeeeeeeeeeeeeeeeeeeeeeeeeeee",
"eeeeeeeeeeeeeeeeeeeeeeeeeeeeeeeeeeeeeeeeeeeeeeee",
"eeeeeeeeeeeeeeeeeeeeeeeeeeeeeeeeeeeeeeeeeeeeeeee",
"eeeeeeeeeeeeeeeeeeeeeeeeeeeeeeeeeeeeeeeeeeeeeeee",
"bdkdbbdbdbbbbdbbbhhhhhhhbbkeeeeeeeeeeeeeeeeeeeee",
"bbcadaaaadadabcdadaddbcbgbbbeeeeeeeeeeeeeeeeeeee",
"bghhcbgbdfdgcdadadbchghghcdabbeeeeeeeeeeeeeeeeee",
"kkhhghghghghbgbbhh`hghghgdbaadbbeeeeeeeeeeeeeeee",
"ekkeekkbbabbhhg``ghhghhhgfgdaadbbkeeeeeeeeeeeeee",
"eeeeeeekkekkkb``hghcghhghggadadadbbeeeeeeeeeeeee",
"eeeeeeeeeeeekhhghhchh`ghhgfdaaadadabbeeeeeeeeeee",
"eeeeeeeeeeeekh`gfgh``ghhgfgbadadaadadkeeeeeeeeee",
"eeeeeeeeeeeeehghg``ghhgfghggadaadaadadabeeeeeeee",
"eeeeeeeeeeeekh`h`ghhgag`h`gfdakaakbaaaaakbeeeeee",
"eeeeeeeeeeeeek``hhggf``ghghgcbaaaaaajakaakbeeeee",
"eeeeeeeeeeeeeedhg`fgh`ghhghcbddajajjajaaaaakeeee",
"eeeeeeeeeeeeeabbhg```hghgfgbhghaaaajaiajajakbkee",
"eeeeeeeeeeeeebbg`h``ghhghchg`hgbddaaaiajaaaadeee",
"eeeeeeeeeeeebbgh``hhh`hgbd`hh`hghbdaaaajajaajbee",
"eeeeeeeeeekkhg`hh``g`ghbcb````h`hgbdkadaaaaaakee",
"eeeeeeeeeeehghh``g`hh`gak``g`g``g`hcdakdadakakbk",
"eeeeeeeeeekhh``hghbbchhdah`h`h`h`h`hgadagbdaaabe",
"eeeeeeeeeeeh`hgbbkjkkag`hh``g`h`hg`hgbabghdadide",
"eeeeeeeeeekbhhkejeeeeebh`g``h`````h`ghdh`gdaaabb",
"eeeeeeeeeeekkkeeeeeeeekkhh`hhhgbhh`h```hgfgaajab",
"eeeeeeeeeeeeeeeeeeeeeeekkdhhkjekjjb`h`hh`gbdaaah",
"eeeeeeeeeeeeeeeeeeeeeeeeeeejeeeeekkh`g`ghhgadjab",
"eeeeeeeeeeeeeeeeeeeeeeeeeeeeeeeeeeedh`hh`hgaajab",
"eeeeeeeeeeeeeeeeeeeeeeeeeeeeeeeeeeebhg`ghgcbaajb",
"eeeeeeeeeeeeeeeeeeeeeeeeeeeeeeeeeeej`hh`hgbaaiab",
"eeeeeeeeeeeeeeeeeeeeeeeeeeeeeeeeeeebhghg`hcdaajd",
"eeeeeeeeeeeeeeeeeeeeeeeeeeeeeeeeeekb`h`hghgaajab",
"eeeeeeeeeeeeeeeeeeeeeeeeeeeeeeeeeeehghghhgbaaajb",
"eeeeeeeeeeeeeeeeeeeeeeeeeeeeeeeeeekh`hh`ghcdajab",
"eeeeeeeeeeeeeeeeeeeeeeeeeeeeeeeeeeehhghhhgbajakb",
"eeeeeeeeeeeeeeeeeeeeeeeeeeeeeeeeeekhhhghghgaajab",
"eeeeeeeeeeeeeeeeeeeeeeeeeeeeeeeeeeehgh`hhgckaiab",
"eeeeeeeeeeeeeeeeeeeeeeeeeeeeeeeeeej`hhghghdaiaab",
"eeeeeeeeeeeeeeeeeeeeeeeeeeeeeeeeeeehg`hhhgcajaab",
"eeeeeeeeeeeeeeeeeeeeeeeeeeeeeeeeeej`hhghghajajab",
"eeeeeeeeeeeeeeeeeeeeeeeeeeeeeeeeeeehghhhggaaiaab",
"eeeeeeeeeeeeeeeeeeeeeeeeeeeeeeeeeek`h`ghgbaaaiag",
"eeeeeeeeeeeeeeeeeeeeeeeeeeeeeeeeeebhghhhgcajajab",
"eeeeeeeeeeeeeeeeeeeeeeeeeeeeeeeeekk`hhghgbaaiaab"
};
