/* XPM */
static char *noname[] = {
/* width height ncolors chars_per_pixel */
"48 48 12 1",
/* colors */
"` c #000000",
"a c #FFE779",
"b c #878787",
"c c #FFAE00",
"d c #FF6F6C",
"e c None",
"f c #4ABD40",
"g c #B72828",
"h c #5C5C5C",
"i c #FFFFFF",
"j c #D3D3D3",
"k c #C1C1C1",
/* pixels */
"eeeeeeeeeeeeeebbkdbjeeebakdeeeeeeeeeeeeeeeeeeeee",
"eeeeeeeeeeeeehadaaabeegadaajeeeeeeeeeeeeeeeeeeee",
"eeeeeeeeeeeebddaajdabehdaajaaeeeeeeeeeeeeeeeeeee",
"eeeeeeeeeeekgbdaajakg`hddaajkeeeeeeeeeeeeeeeeeee",
"eeeeeeeeeeeehgadkaadh`gbaajaaeeeeeeeeeeeeeeeeeee",
"eeeeeeeeeeekhhdkaakgh`hdajajaeeeeeeeeeeeeeeeeeee",
"eeeeeeeeeeee`gakajdh``hgaajadeeeeeeeeeeeeeeeeeee",
"eeeeeeeeeeekhbdaajchg`hbddajaeeeeeeejbeeeeeeeeee",
"eeeeeeeeeeeekgbddad```ghcbadakeeebebddaaeeeeeeee",
"eeekbbheeeeeeghcbdhh`h``hggbdabeeeaghbdajaeeeeee",
"eebbdadh`hkee`h`ghg``gh`h`hdajkkekghgckajaeeeeee",
"ebbcdadhghheeeg`h```hgagchgbdaabkbghgbkaiakeeeee",
"ebdbdaag`g`hbjee``hghajakadaaajdghh`hcdaiakkeeee",
"edhcbdba`hdabeeeg``hgaajaaadajadfg```bdajabeeeee",
"eehddaakhgbad`h`h`hgadajajaadabg`h`g`gbdadbkeeee",
"ekhcbadaghckchhhghgdbdadaaddaghhg````hhgbdeeeeee",
"eebhddabgbdbhg`ghgcbcdbadkadbgh``h`gadabjeeeeeee",
"eejbhhghhhcgh`h`hbbdbbdddddfgh`gh`hbdakaeeeeeeee",
"eeekjbh``ghh`ghgfcadfchbcbbgh`hh`gcdakabkeeeeeee",
"eeeekkkhh`h`h``hddbddbghghg`hg`ghgbbadaabeeeeeee",
"eeeeeekk`g``g`gcbaadbchghhhh`h`hhgfddadkdeeeeeee",
"eeeeeeeekhh``gbbaddadbchhg``gh`g`hghgbdaaeeeeeee",
"eeeeeeeeekk`hhgcbdbcbdbhg`hg``gh`ghgcakakeeeeeee",
"eeeeeeeeeeeg`gbgbcbdbcg`h`h`hh`h`hgbbddadheeeeee",
"eeeeeeeeeeeehhghcbdbdbhg`g`gh`g`hh`gfdakag`eeeee",
"eeeeeeeeeeejbgfgbdadach`h`hhghhg`ghhgdbdab`eeeee",
"eeeeeeeeeeeekbchdckabh`g`ghchghhgh`gfgadak``eeee",
"eeeeeeeeeeeekbgbdabadhghhbcdbcfghhhhghgkda````he",
"eeeeeeeeeeeeegbcdaddhh`gckaaakdhghghgfdckd```jee",
"eeeeeeeeeeekbfdbdaabg`gbkaijakabcghghghbdkd``hee",
"eeeeeeeeeeeegddckakahghcjjaiajaabahgfchcbcb````h",
"eekbeeeeeekbbabdadabcbdajaiajjaaddbcbgbghdbg```e",
"ehdadabkbkgdaaadakakdaajaiaiajajadabdbghgfdhh``j",
"gbddaadadaaaajakadkaajaiaiajajaaabdbchdfgbdcg``e",
"bgbadkdaddkajaakakakajajaajaajadjadcbdfghcdbh`hk",
"bhgdadabdakaajajakadakaajjadkadkaadbghgghdbag``e",
"khh`hdbcddakajajadjaddddaddkddaddbbghhhhcbch`hge",
"kkhg`hgbbdadadadjadkdabdbabddbbgfghh``hhgbghg``e",
"eeke`h`gbcbdaddaddbdbbcbdbcbchghg`h``gghhghh`hje",
"eeeekg`hghhhghhhhhgfgghghghh`h``````hh`hhhg``hee",
"eeeeeeehhh`g`h`g``h``h````````g`h`g`g`hg```hgkee",
"eeeeeekkkkeeekeejjkeabbhh``````g`h```h``h`g``eee",
"eeeeeeeeeeeeeeeeeeeeeejk`g````````````g``hkejeee",
"eeeeeeeeeeeeeeeeeeeeeeejeej``h`````h```h`keeeeee",
"eeeeeeeeeeeeeeeeeeeeeeeeeeejjkjjjjh``jjkhkeeeeee",
"eeeeeeeeeeeeeeeeeeeeeeeeeeeeeeeeeejejeeeeeeeeeee",
"eeeeeeeeeeeeeeeeeeeeeeeeeeeeeeeeeeeeeeeeeeeeeeee",
"eeeeeeeeeeeeeeeeeeeeeeeeeeeeeeeeeeeeeeeeeeeeeeee"
};
