/* XPM */
static char *noname[] = {
/* width height ncolors chars_per_pixel */
"48 48 13 1",
/* colors */
"` c #000000",
"a c #FFE779",
"b c #878787",
"c c #3012AA",
"d c #FF6F6C",
"e c None",
"f c #4ABD40",
"g c #B72828",
"h c #5C5C5C",
"i c #5278BF",
"j c #FFFFFF",
"k c #D3D3D3",
"l c #C1C1C1",
/* pixels */
"eeeeeeeeeeeeeehh``````hheeeeeeeeeeeeeeeeeeeeeeee",
"eeeeeeeeeeeeh````hhhhh````eeeeeeeeeeeeeeeeeeeeee",
"eeeeeeeeeeh``hhhhhhhhhhhhh``eeeeeeeeeeeeeeeeeeee",
"eehhhhhhhh``hhhhhhhhfhhhfhh``hhhhhhhhhhhhhhheeee",
"eehkjkjkb``hhblkjjjjjjjjkkjh``kjkjkjkjkjkjk``eee",
"eehkjjkl`hhhkjjjkjkjkjkjjjkjj``jjjjkjjjkjjj``hee",
"eehjkjj``hhkjjkjjjjkjjjkjjjkjj`hkjkjjkjjkjj``hee",
"eehkjjb`hhjjkjjkjkjjkjkjjkjjkjj`hkjjkjkjjkj``hee",
"eehjkj`hhhkjjkjjkklbhhhhhalkjkjh`jjkjjjkjjj`hhle",
"eehjjb``hhbhjjkl````h`````h`hhbh``chcjkjjkj``hee",
"eehkjh`hhkjjklblhhhhhhhhhhhhhhbk``jkjkjjkjj``hee",
"eehkj``hhbhllblbh``````````hhhhhh`hjjjkjjkj``hee",
"eehkj`hhfjjblblfhhhhhhhhhhhh`hhhh`hlkjjkjjj``hee",
"eehjj`hhhb`lblbl`hhhhbhjhhh```````h`hchchkj``hee",
"eehkj`hhkhhblfllljkjjjjjjjkjkbhhh``bjkkjkjj`hhle",
"eehjj`hhh``lblhkhjjkhckjkjjjkjb````hhjjjjjj``hee",
"eehkj``hhhhbllichjkjchkjjkjkjjkhh``hlkjkjkj``hee",
"eehkj`hh```blhcghcjkgcjjkjjjkjjhh`h``chjkjj``hee",
"eehjkh`hhhhlkjkcjkjjchbchlkjjjjb```hbjkjjjk`hhle",
"eehkjl``h``ljjjkjjjkhcbkhcjkjkjh`hhhbjjjkjj``hee",
"eehkjk`hhhjkjkjjjkjjhhkjchkjjkb```hhhkjkjjk``hee",
"eehjjj``h`kjjjkjkjjkhcjkgcjkjjh``h```chjkjj``hee",
"eehkjjjh`ljkjkjjjhhkcgkjchkjjb``hhkhhjkjjkj``hee",
"eehjkjc```jkjjjkjhcjhcjkhcjjb``h`hb`hjjkjjj``hee",
"eehkjjjjh`hbjkjjjjjkjjjjkkjb```hhkhhbjkjjkj``hee",
"elhjjkchc```hjjkjkjjkjkjjbh``bh`hb`h`chchjj``hee",
"eehkjkjkjbh``hbjjkjjjjjblh```hlh`jhhkjkjkjk``hee",
"eehkjj`h`h`h```hhblbbhh````h``hbh`hhkjjkjjj``hee",
"eehkjkjjkjbh`h```````````hhhh``hbh`bjjkjjkj``hee",
"eehjjjkjjjjh``hhhh`hh`hhhh``````hjbgjkjjkjj``hee",
"eehkjkjjkjkjhhhbbhhhhhhbejjjjlh`hakd`jjkjjk``hee",
"elhjjkhchchch```hchc`chchch``````hljd`jjkjj``hee",
"eehkjjkjkkjkjjhhhhhljjkjkbhhhhhhh`hajdhkjjk``hee",
"eehkjj````j```````hhh```hhhhhhhhhh`hakbgkjj``hee",
"eehjkjjjjjjjjjjjjbhhhhhhhhh`blkhhhh`hajd`jj``hee",
"eehjjkchckhhchckhch```h``hljjkjkh`hh`hajd`j``hee",
"eehkjjkjkjkkjkjjkjkjjjjkjjjjjjjjjhhhh`hljdh``hee",
"eehkjkjjjjjjcgchjchchchjchc`chkchc`````hakdh`hee",
"eehjkjjkjkjkjkjkjkjkjkjkjkjjjkjkjkjhhhh`hlkd`hee",
"eehkjj`khchhchchchhcgchchj``j```khhc`````haaj`ee",
"eehjkjjjkjkkjkkkjkkjkjkkjkjjjjjjjkjkjhhhh`hjh`ee",
"elhkjjkjjjjjjjjjjjjjjjjjjjjkjkjkjjjjjkhhhh````ee",
"eehjkjjkjkjkjkjkjkjkjkjkjkjjkjjjkjkjkjkhhhh`hhee",
"eehjjkjkjjkjjjkjjjkjjjkjjjkjjkjkjjjkjjjj`hh```ee",
"eeh```````````````````````````````````````````ke",
"eeb```h``h``h``h``h````h````h```h````h````````ee",
"eehbhhhhhhhhhhhhhhhhhhhhhhhhhhhhhhhhh`hhhhh```ke",
"eeeeeeeleleleleleeeeeeeeeeeebeeeeeeeeeeeeeeekeee"
};
