/* XPM */
static char *noname[] = {
/* width height ncolors chars_per_pixel */
"48 48 14 1",
/* colors */
"` c #000000",
"a c #FFE779",
"b c #878787",
"c c #FFAE00",
"d c #FF6F6C",
"e c None",
"f c #4ABD40",
"g c #8597FF",
"h c #B72828",
"i c #5C5C5C",
"j c #FFFFFF",
"k c #FFFF00",
"l c #D3D3D3",
"m c #C1C1C1",
/* pixels */
"jjljljaalaaaaaacakacakacacakacacacackaccacckcac`",
"jajjajajalaaaaaaaaaaaaaakaacaacakacacacakcacac``",
"jjhhchcchccchccchccchccchcchcchchchchchhhfhhhi``",
"alhcfhciccbhkhcbccbcccbccbccbcfccfcchiihihchfh``",
"jjchchcchcccccccchccbccchccchcchchcibddhi`hch```",
"jafhccich`i``ihbccbcccbcccbcchccbccbdlahhhihfhi`",
"lachchhihhhhhi`ccccchcccbcccbcchchbdad`hd`h`hi``",
"jjhcfcihichch`hbicbccbcdccchccbccbdldihdh`i`fh``",
"lachchihcachiicihccccccchcbcccchbdld`hdi`hh`hi``",
"alchc`hcajcicaii`hccbcbcbcccchcbdldihdh`hi``hh``",
"llcchihhcahhjhh`iccbccccccbcbcbdld`hdi`ih``cf`i`",
"alcicihhc`clchii`cccccccbccccbdldihdh``h``ch`i``",
"lacchiihihjchi`i`cdcbcdcccdcidld`hdi`hh``ciih```",
"alchchi`hahihih`icfcccccbccbdldihdh`hi``cih``ii`",
"ladcfc`icih`i``icccdcbccccbdld`hdi`ih``ch`i`h```",
"alchccha`i`h`i`cdcaccccbcbdldihdh`ih``hc`hi`ii``",
"aaccbcchhi``hiccccbccbckbdld`hdi`hh``cc`i`ii`h``",
"jabcccfcccccccccbcccaccbdldihdh`hi``cc`iih`h`i``",
"aachchcccbcaccbcccbccciihhhhdi`ih``cd`h`i`i`i`i`",
"lacbcccbcccccaccaccaciihi`ihih`h``cci`ii`hi`ii``",
"aacccbcccbcbcccaccaccijdhi``h`h``chi`hi`h`ii`h``",
"aacbcccdcaccckbckbccaidldhh`ih``cc`hii`iii`h`i``",
"aadccbccccbkdcacaccacc`ihi`h```cdii`i`hi`i`i`i`h",
"aacdccccbcccaccaccaca```h`hi``ccii`hihi`h`h`ih``",
"aacfcbcccacccfccaccfim```h```cci`hii`i`hi`iihi`i",
"aacccccbcccaacacfcaili``k```cdc`ih`i`hi`ii`hc`i`",
"aacbccccacbcccacaceme``kdccacccih`ihi`ih`ichfh``",
"aaccbcacfccacacaceli``accacccbcciii`iii`ihich`h`",
"aaccccdcccacccccgjge`ccacccbccc`h`hih`hichhfhi`i",
"aacdcbccaccacfaejgiicacbccbccci`iii`i`ihhichfh``",
"akbccccbccbccabjge`caccccdccd`hih`ciiihcchhch`i`",
"aaccbcccbccacejgi`accacdfccciiii`chh`i`hfhfhfh``",
"akdcccbcckccgjge`kcbcccccahi`h`hc`hihhii`chhhi`i",
"aaccbccccacgjgi`acackbcacciihiicihchchh`hfhcfh``",
"aaccccbcccgjge`accccdkccbih`h`chihcacchicihihi``",
"akbcbcccaejgiikckbcaccbch`iiiccihhajchilh``hc`i`",
"aaccccbcmige`cbcacccbcciihihcchihccbhclcii`ch``i",
"aaccbccljei`caccccbcccih`h`cicc`ihchclch`i`hfh``",
"aacbccjjgi`acccdcaccci`ihfccchcihh`cechih`hfh`i`",
"aacccljgi`iccbccfcac`ihiihcbccfhi`haihh`i`hhfh``",
"aacbljgi``cccccacccihi`hcccchcch`fdihiih``chhi``",
"aacijgi`iccbcbcdcc`i`hiccbchcchchc`i`h```chfhi``",
"aaccie`ccacccccfcihihicchccbchccbch`i`ihcihhh`i`",
"aacbc`cbccbccbcch`i`hfccbcchccfhchfchchhfhhfhi``",
"aaccccacccccdcci`hih`cchccbcchchchchfhfchhfhh```",
"aahihihihiihihi`hiiihihii`hi`hiii`i`h`h`i`h`iii`",
"ai`h`h`h`h`i```i````i``i`h``h````h```i``````````",
"`hihiih`ih`hih``i`ih`h`h`i`i`i`h``i`i```i`i`i```"
};
