/* XPM */
static char *noname[] = {
/* width height ncolors chars_per_pixel */
"48 48 16 1",
/* colors */
"` c #000000",
"a c #FFE779",
"b c #878787",
"c c #FFAE00",
"d c #3012AA",
"e c #FF6F6C",
"f c None",
"g c #4ABD40",
"h c #8597FF",
"i c #B72828",
"j c #5C5C5C",
"k c #5278BF",
"l c #FFFFFF",
"m c #D3D3D3",
"n c #C1C1C1",
"o c #0000FF",
/* pixels */
"ffffffffffffffffffffffffffffffffffffffffffffffff",
"ffffffffffffffffffffffffffffffffffffffffffffffie",
"ffffffffffbkkkfffffffffffffffffffffffffffffffjce",
"ffjjjjjjjjokhddjjjjjjjjjjjjjjjjjjjjjjjjjjjjjiece",
"ffjmfhfmfkfffhkkmfhllllmllllmllllmllllmlllljcecj",
"ffjfhkkkkffhokkkokkkllllllllllllllllllllllicecji",
"ffjhkhfhhhkkkokkffhdklllllllllllllllllllljceeiij",
"ffjkhfokdjd```dokok`kmlllllllllllllllllliceegiji",
"ffjkfhkd```dkdjjdkoj`bllllllllllllllllljceciijig",
"ffdkfkd``kffffhkdkkddjjjjjlj`jjjljjjjliceeijigii",
"fkkhhk`dhlfkjkkfkkokjknmllllllllllllljeecjijiij`",
"kkfhk``klfj`d`kh`kkkokdj`jjlllllllllieccjiigiji`",
"khfko`khmh`dkkoj`ohkkokkmlllllllllljceciigiij``j",
"dhkkk`ommk`kokokokkhkk``jjj`jjjjblieceijiigi`jj`",
"fokod`klhn`kokkokokhod`jbllllmllljcecjijiji`j``i",
"fkkkk`ofhfdokkokokkfk``bjjjj`lblicecjijigij`i`j`",
"fkkhk`khfhjkokkmkohhk`jbmmllllljceeiijiii``j`j`m",
"fkhhkdokhfkkokmh`kfhd`jjjjjjblieecigigijj`j`i`ff",
"fdfhkkjokjkffmhb`hfkk`knllllljcecjiiiig`j`i``jmf",
"fkhkokdjokdj```jkfkko`jbmjbliceciijigi`i`j``jjff",
"ffk`ddkkkkokokkhhhkd``jbllljceejigiji`j``i``jjff",
"ffjkjdkkokfhfhfhk````jjbblieecjijiiij`i`j`i``jff",
"ffjmfjkkkokkhkkok`jjjbbmljceciigigi``j`j`il`jjff",
"ffjllmohokd``kok``jjbbblbencjijiii`j`i``jll``jff",
"ffjlllfkj```kdj``dgfllmbaaniigigi`j`j``illl`jjff",
"ffjllljgd`jbjjk`jjbj`jlbemeaeeiij`j`i`ibjll`jjff",
"ffjmlllmmfbbmmfbbbmlllbemaenebj``i`j`jlllll``jff",
"ffjllljjj`jjjjjjlmjjllbaneneijijj```illllll`jjff",
"ffjllllllllllllllllllimeeenej```j`jilllllll``bff",
"ffjllllllllljjljj`jblbaeneij`j`ji`illllllll`jjff",
"ffjmllllllllllllllllbemeebj`j`ijjjlllllllll``jff",
"ffjllljj`jjjj`jjljblbaeebji`jijjelljjjlllll`jjff",
"ffjlllllllmllllmlllbeebjj``jijemllllmllllll``bff",
"ffjlll``jjljjjjjjlbbebji`jijellllllllllllll`jjff",
"ffjmllllllllmlllll`eji`jjibllllllllllllllll``jff",
"ffjllljjjlj`jjjblj````ijellllllllllllllllll`jjff",
"ffjllllllllllllll````jjllllllllllllllllllll``bff",
"ffjllllllllljjjlj```jnblj`jjjjlj`jjjjjlllll`jjff",
"ffjmllllllllmlll``jlllllllllmllllllllllllll``jff",
"ffjlll`ljj`jjjlj`jjj`jjjjljjljjjljjj`jjjlll`jjff",
"ffjlllllllllllllbbbnbllmllllllmllmlllllllll``bff",
"ffjllllllllllllllnnbbbnblllllllllllllllllll`jjff",
"ffjmllllllllllllllbnnbnbnbbllllllllllllllll``jff",
"ffjllllllllllllllllbbnbbnbnbnblllllllllllll`jjff",
"ffj``````````````````````````````````````````bff",
"fff`j`j`j`j`j`j`j`j`j`j`j`j`j`j`j`j`j`j`j`j`jjff",
"ffffjjjjjjjjjjjjjjjjjbjjjjjjjjjjjjjjjjjjjjjjjjff",
"ffffffffffffffffffffffffmfffffffffffffffffffffff"
};
