/* XPM */
static char *noname[] = {
/* width height ncolors chars_per_pixel */
"48 48 16 1",
/* colors */
"` c #000000",
"a c #FFE779",
"b c #878787",
"c c #FFAE00",
"d c #3012AA",
"e c #FF6F6C",
"f c None",
"g c #4ABD40",
"h c #8597FF",
"i c #B72828",
"j c #5C5C5C",
"k c #5278BF",
"l c #FFFFFF",
"m c #D3D3D3",
"n c #C1C1C1",
"o c #0000FF",
/* pixels */
"ffffffffffffffffffffffffffffffffffffffffffffffff",
"fffffffffffffffffffffffffffffffffffffffffffffffl",
"ffllllllllllllllllllllllllllllllllllllllllllllll",
"ffllllllllllllllllllllllllllllllllllllllllllllll",
"ffllllllllllllllllllllllllllllllllllllllllllllll",
"ffllllllllllllllllllllllllllllllllllllllllllllll",
"ffllllllllllllllllllll```lllllllllll`lllllllllll",
"ffllbnbnbnbnbnbnblllll`llll```l``ll`llllllllllll",
"ffllb```j`j`j`````llll`lllll`ll`llllllllllllllll",
"fflllj``jlllllln``llll`lllll```lllllllllllllllll",
"ffllll```blllllln`llll`llll`ll`lllllllllllllllll",
"ffhkhhh```khkhhhh`ohhh`hhhh`hh`hhhhhhhkhhkhhkhhl",
"ffllllll```lllllllllll`lll``l```lm`lmlllmlllllll",
"ffllllllb```llllllllll`lllllllllll````llllllllll",
"fflllllllj``jlllllllll`llllllllll```l`llllllllll",
"ffllllllllj``bllllllll`llllllllll``l`llllll```jl",
"fflllllllll``jllllllll`ll``````````````lb`llllll",
"fflllllllll`jlllllllll`llllllllllllllllji`llllll",
"ffllllllll`jmlllllllll`lllll`````llmab`cc`llllll",
"fflllllll``lllllllllll`llllll`llllajjbc`j`lbllll",
"ffllllll``llllllll`lll`llllll``lb`jfaai`c`bballl",
"fflllll``llllllllj`lll`lllll`l`bjcnanc`bc`gbbbll",
"ffllll``bnbnbnbij`jlll`lllll`ll`iaama`jcj`ijcnll",
"fflll`````````````blll`llll`````caaab`cgi`jjbbll",
"ffll``````````````llll`lllllllbjcmma`bcij`jjcbll",
"ffhhhhhhhhhhhhhhhhhhhh```hhhhkjiaaai`cijj`j`dokl",
"fflllllllllllllllllmllllllllll`cmmj`big`j``gball",
"ffllll`lllll`lllllllllllllllla`aaaijigi```ijjbll",
"fflllllllll`lllllllllllllllllbcnaccgij```jjjgell",
"fflll``l`````````llllllllllll`aanccijjj``jjjbbll",
"ffllll`lll`ll`ll`lllllllllllm`amccjg````gjjjcnll",
"fflll``l``````l`llllllllllllajaacgi`j``jjjigblll",
"fflll`ll``lll`l``llllllllllljbaccj`j``gjjjgbllll",
"ffllllllllllllllllllllllllb``bacji```jigijballll",
"fflllllllllllllllllllllllj`iajjij``jjj`jgeamllll",
"ffllllllllllllllllllllll`digjjc````jjjgbbbllllll",
"ffllllllllllllllllllllljdodjji`j``jjjjiballlllll",
"fflllllllllllllllllllll`oohkk`g````jjjgallllllll",
"ffllllllllllllllllllllddokfood````jjgiamllllllll",
"ffkhhhkhhhkhhhkhhkhkhddoohkko``j``j`ddkkhkhhkhhl",
"ffllmlllmlllmlllmllll`ooffood``dd`jjgbllllllllll",
"ffllllllllllllllllllbdodfhodd```d`jjcbllllllllll",
"ffllllllllllllllllll`oofhodd``dd``jjjallllllllll",
"ffllllllllllllllllljoohhkod```d`jjjgblllllllllll",
"fflllllllllllllllll`oofkood``dd`jjjiblllllllllll",
"ffllllllllllllllll`oohhkod```d``jjjgalllllllllll",
"fflllllllllllllllbdodfkoo``jdd`gjjjclmllllllllll",
"lllllllllllmllllllllllllllllmlllmlllllllllllllll"
};
