/* XPM */
static char *noname[] = {
/* width height ncolors chars_per_pixel */
"48 48 11 1",
/* colors */
"` c #000000",
"a c #FFE779",
"b c #878787",
"c c #FFAE00",
"d c #FF6F6C",
"e c #4ABD40",
"f c #B72828",
"g c #5C5C5C",
"h c #FFFFFF",
"i c #D3D3D3",
"j c #C1C1C1",
/* pixels */
"gggggggggggggggggggggggggggggggggggggggggggggggg",
"g``````````````````````````````````````````````h",
"g`bdbdbdbdbdbdbdbdbdbdbdbdbdbdbdbdbabdbdbdbdbdbh",
"g`bcbcbcbcbcbcbcbcbcbcgcgcgcbcbcbcdbcbcgcbcbcedh",
"g`fbdbcbdgcbfbcbdbcgfg`g``g`fgfbabbcbdbdbcbdbdah",
"g`cbcbdbcbdbabdbcbfg`gf`f`fgg`gfgcdbdbcbcbdbcdbh",
"g`bdbabcbabcbcbdbgg`fg`gg`g``fg`gfbadabdbdedjbah",
"g`jcbadbdbdbdabaf`fgggf`g`f`gg`ggggcbbcbcbdbcadh",
"g`dbdbcjcbcbdbaf`ggfefefgg`g`f`f`f`bcdbabcbcbbdh",
"g`cbcabdbdabaafefbcbaddceff`f`gg`ggfbabddbabdabh",
"g`jdbdbcjcbdabfgcbaiajabdbefg`g`fg`gfbaabdadbcbh",
"g`cbababdbdaba`gdjajaijadaffg`f`g`fg`cdbabdbajdh",
"g`bdcbadabajaf`cjajjjajiabcggf`g`g`g`gadbcabdbah",
"g`dabadbadjafggbdijaiaidabfefgggg`f`f`bcbdbcbadh",
"g`jdbdbabdabfgfcjajjdiajdabcgfg`f`g`ggfgcbfbcbdh",
"g`cbaadababa`ggbajaiaijajdabcfgfg`g`f`efgfedbcbh",
"g`jajbabadafgfgcjdiajadjdbabbggg`f`g``fgcgfcgbdh",
"g`fgdadababfg`fbdbddjdbfbcgfcfgfggg`fgggfefbgcgh",
"g`bcgbabidbgggggfefabcgfefgg`gf`g`f`g`f`fgfeffbh",
"g`fgfdjdabcgf`f`c`gfagfed`f`cfe`fgg`f`gggggffefh",
"g`gcgcbfbcb`g`cbdbcbafgcjcgabdgf`g`g`g`fgfggfggh",
"g`ggggfefgfgf`gaabdjdbcjdjdabcgggfgf`fgg`fefggfh",
"g`f`f`gfgggf`gfbaaababfiajabdgf`g`ggg`gfggfggfgi",
"g``gggggf`g`gggadjdajcbajdabcfgggf`ggf`gcfefcefh",
"g`g`fg``g`fg``fbabajdbdababdgggf`gfg`gf`ggfggfeh",
"g`gf`fgf`g`gfg`fbafadefjdabcefg`ggggf`ggf`ggfgfh",
"g`fggg`gg`f`gg`cbdjgf`fabdbffggf`f`ggg`f`gf`gg`h",
"g``g`gf`fgg`f`ggfedagcbgcbcfef`ggggf`fggggggfgfh",
"g`gfgg`g`g`ggg`fbcgdgfgfbdbgfggf`f`gg`f`fggg`ggh",
"g`f`g`f`fgf`f`ggfbabcgcbcbcfef`g`ef`fgggg`fgfgfh",
"g`ggfg`gg`g`gf``gfadgcgfbbfgf`gfg`fgg`f`fggggggi",
"g``f`ggfgfgf`gggf`gajjcbcfggggg`fgg`fg`gggf`fgfh",
"g`gggf`gggg`gf`g`g`ddbbfggg`f`f`g`fg`gf`gfggfggh",
"g``f`gfgcff`gg`gf`g`ggfgg`gf`ggggg`gfg`gg`gg`fgh",
"g`gfefggfefgf`f``g`f`gg`fgg`gf`f`fg`g`f`fgf`ef`h",
"g`fefefcefe`g`ggfg`g`gfg`f`fggg`gg`f`gg`g`ggfgfh",
"g`gcfbcgfffgfg`g``f`gfefggggfgfgg`f`gg`f`fgggggh",
"g`fbfgfgfegg`f`f`g`g`gfefgfgfefgf`gg`f`gg`fgfgfh",
"g`ggcggfeffgggg`g`g`fgcfefefefefef`f`gg`gg`g`g`h",
"g`f``fg`fg`g```g`f`ggfgdbcgcfbcff`gggf`fg`f`gfgh",
"g`ggg`gg``f`fgf`g`fgcbcbcbdbdbdecgg`f`gg`f`gg`fi",
"g`f`g```fg`gg`gggfgcbabababdabadgfgfegf`gg`f`fgh",
"g`g`f`ggg`fg`f`fgcbadjadadajadbcggfgfg`gf`gggggh",
"g`fg`gf`fg`f`gg`cbdjjdaibjababadefggggf`g`f``f`h",
"g``gf`g`ggg`gfgfbaajaidiaadidabdbfgfg`ggfggg`gfh",
"g`fg`ggf`g`fg`fgadjajajadijajabafgggf`fg`gg`fg`h",
"g`ggfg`gf`g`gfecjiajiadjjajdajdbc`cggg`gfgfg`ggh",
"ghihihhhhhhhhhhhhhhhhhhhhhhhhhhhhhihahhhhhihhihh"
};
