/* XPM */
static char *noname[] = {
/* width height ncolors chars_per_pixel */
"48 48 10 1",
/* colors */
"` c #000000",
"a c #FFE779",
"b c #878787",
"c c #FF6F6C",
"d c #4ABD40",
"e c #B72828",
"f c #5C5C5C",
"g c #FFFFFF",
"h c #D3D3D3",
"i c #C1C1C1",
/* pixels */
"bfbbfbbfbbfbbfbbfbbfbbfbbfbbfbbfbbfbbfbbfbbfbbfb",
"b``````````````````````````````````````````````g",
"b`gggggggggggggggggggghggggggggggggggggggggggggg",
"f`gggggggggggggggggghhhhggghgggggggggggggggggggg",
"b`ghghghghghghghghghhhhhghggghghghghghghghghgghg",
"b`ggggggggggggggghhhhhhaghiigggggggggggggggggggg",
"b`gggggggggggghhhhhahhhhhcfcihgggggggggggggghggg",
"f`ghgghgghgghghhhhhghahhhafbahhhghgghgghgghggggg",
"b`ggggggggghhhhhhhhhhhhahhhhhhgggggggggggggggghg",
"b`ggggghghhhhhhgaghhhhhhhhhhhhhhhgghgghgghgghggg",
"b`ghgghhhhhhhhhhhiihhhhhhahhahhhhggggggggggggggg",
"f`ggggiciahhhhahhhhhhhhahhhhhhhhhgggggghggghgggg",
"b`ggggibbhhiihhhhhhhghhhhhahhahhhghghgggggggghgg",
"b`gghghbbihhhahiahhhahbahhhhhhhhahgggggggghggggg",
"b`gggggbbchhhghhbaihhieeiaiiahhhhhggghgghggggggg",
"f`ghgggafbhahicicbihhb`fcbiiihahhhhgggggggggghgg",
"b`ggggghbfcibibibichhbe`hiaihhhhhhgghgghgghggggg",
"b`ggghggbfbibcbiahhhafiibhchihahhahggggggggggggg",
"b`ggggggiffabhahiiiiicgafcibhihhhhhgghggghgghggg",
"f`ghgghghfcihhiiiiabefeff`iciahhahhhgggggggggggg",
"b`gggggghbbbihhhhhhhcdcibffbiihhhhhhgghgghgghggg",
"b`gghgggghbciahiaihahiibabefeichhhahgggggggggggg",
"b`gggghgggfbiichhichicbaibbfebiaihhhhgghggghgghg",
"f`ggggggggbfcbibaihhiiibbcbffeicihahigggghgggggg",
"b`ghggghggbfbicihhciabaiaiafcffichhhahgggggggggg",
"b`ggghgggghebbhicbiiihiiiiifbbfiiahhihghggggghgg",
"b`gggggghggbfbabiiaiiichiacbabefabhhhiggghgggggg",
"f`gghggggggiefbiaiiiiahiiiibhabffhchahhggggghggg",
"b`gggghgghghfbciiciciichchiacici`fbhhhgghggggggg",
"b`ggggggggggbfbbiiiiiihihhhbifiibefghhhggghgghgg",
"b`ghggghggggiffcbiciaiahhaiciebaf`fhhhhggggggggg",
"f`ggggggghghhbfbiiiiiihhciihbefcffehhhhghggghggg",
"b`gghggghghghbebbciahichhhaiifbbbeihgagggggggggg",
"b`ggggghghhhhifbbbiihhiiaiiiaiahahhhhhhhgghgghgg",
"b`gghggghhhihhfbcbaiiaiiihhhhihhhhahhhhhgggggggg",
"f`gggghgghhhhabfbbbiciichchahiahaiiahhhhgggghggg",
"b`gggggghgihihifebciiiihhhhihhihiihihhhhghgggggg",
"b`hgghgggghhhiiffbbbcihchiahhhihiiiihahhggggghgg",
"b`gggggghgghhhhaffbbiiaiiiiihahchahcibhggghggggg",
"f`ggghgggghgghihffcbbbiiaihihhhhiiibihgghggggggg",
"b`gggggggggghghhiffbcbcihiiiaihhcbiihhhgggghgghg",
"b`gghgghghgggghhiefbbbihciiiicbbihiihhhggggggggg",
"b`ggggggggghgghghiffcbbiiicbfbihihhhhhhghggghggg",
"b`hggghgggggggghhaffbbbcbfbihhhhhhhhhhgggghggggg",
"b`gggggghggghgggghfffffbhhhhhghghggggggggggggghg",
"f`ggghgggghgggghgggggaggggggggggggggghgghgghgggg",
"b`gggggggggggggggghgggghgghgghggghgggggggggggggg",
"fggggggggggggggggggggggggggggggggggggggggggggggg"
};
