/* XPM */
static char *noname[] = {
/* width height ncolors chars_per_pixel */
"48 48 13 1",
/* colors */
"` c #000000",
"a c #FFE779",
"b c #878787",
"c c #FFAE00",
"d c #FF6F6C",
"e c None",
"f c #4ABD40",
"g c #B72828",
"h c #5C5C5C",
"i c #FFFFFF",
"j c #FFFF00",
"k c #D3D3D3",
"l c #C1C1C1",
/* pixels */
"eeeeeeeeeeeeeeeeeeeeeeeeeeeeeeeeeeeeeeeeeeeeeeee",
"eeeeeeeeeeeeeeeeeeeeeeeeeeeeeeeeeeeeeeeeeeeeeeee",
"eeeeeeeeeeeeeeeeeeeeeeeeeeeeeeeeeeeeeeeeeeeeeeee",
"eeeeeeeeeeeeeeeeeeeeeeeeeeeeeeeeeeeeeeeeeeeeeeee",
"eeeeeeeeeeeeebhhhhhhhhhhhhhhhhhhhhbeeeeeebbgbeee",
"eeebhdbbbbbbbbbgbggbghgbghgbghgbghdbbbbbbhcacbee",
"eeehcagcbccbcghfgfhgfhhhbhhhbhhhhb`hcgccghcbchle",
"eekhcch`h`h`hh`h`g`h`gh`hhhg`hh`gh````h``hcaghee",
"eeebghhh`h`hh`h```h````g````h``h``bbbbbbbghghble",
"eelbb`ccgbkllbghcbhdbbchbbhbhgb`ghbkbhh`hh``hbbl",
"bhh`gfd`hdleeeehghllleeelllllklhcbkeb````hgfccdh",
"bghbd`h```hleee`cbleeebbgbleeelhhblbdcbchghcdcgh",
"ebhhgfh```hadlbbchbbbbhcaghbbbhccblldaldadababcb",
"ekbhbcggh`akahbcbcgcgcgcljgchcgacgeldlkallaiiald",
"b`hbkcbfgdikhbbgchh`hh``gchh`h`hchlehhhbbakkkkab",
"llbbcbccclalhklbhbeeel``hchleekbbbeebabghg`hgbgl",
"b`hbbgcbalkhleeeeeeeebh`gchleeelleeeeeleeeellbbk",
"kbblkbhdakgbeeeeeeeell``fcgeeeeeeeeeeeeeeeeeelee",
"bhbbeecbkdheeeeeeeeeeb`hgcheeeeeeeeeeeeeeeeeeeee",
"blbbbebdaheeeeeeeeeeea``hcheeeeeeeeeeeeeeeeeeeee",
"eh``bkelbbeeeeeeeeeeebh`gchleeeeeeeeeeeeeeeeeeee",
"kbbbleellleeeeeeeeeell``hcgleeeeeeeeeeeeeeeeeeee",
"eeh`hbeeeeeeeeeeeeeebgh`cbhhbeeeeeeeeeeeeeeeeeee",
"eelhhleeeeeeeeeeeekbbhghhgchdeeeeeeeeeeeeeeeeeee",
"eelhhhbeeeeeeeeeebdacghgfghgabbkeeeeeeeeeeeeeeee",
"eeebhhleeeeeeeelldalblcfghaabaabeeeeeeeeeeeeeeee",
"eeeh`hleeeeeeebballdh``hl```bdkadbeeeeeeeeeeeeee",
"eebh`heeeeeeebadadh`kbblbbeih`bkadleeeeeeeeeeeee",
"eebbbbeeeeeeldlll`hhklhhb`lkbh`bklcbeeeeeeeeeeee",
"ebl`heeeeekbdlaahhbah`hgdcg`llk`akladbeeeeeeeeee",
"elbbbleeebaalakk`hbbhdcabdbhblb`bkkadabeeeeeeeee",
"bb``beelldllakad`kk`hcbddcdc`blbhakkladbeeeeeeee",
"ellbkeebdlakkkdl`kkhcdhchfddhkbbglakkaadlleeeeee",
"lh`bblldlakklala`hbhhdcbddchhbb`blakkiabdbeeeeee",
"eebhbbdalkkakdllghbi`hbcdah`lkl`dldkaikkadbeeeee",
"ekhbbbdlaikklalal`hbllh`h`bbbb`hbalakkikldleeeee",
"eebbhdalikadldldld``ikbkkhibb`hdbaldlakiaableeee",
"eellbclakikkllalalab`h`bbh``hdlaldalkkikladeeeee",
"eeeeedbakkikkakaldlalbghhgbalalalkkkkkkaldbleeee",
"eeeelbdlakakiikkkkakalkaallalakkkkikikkkabceeeee",
"eeeeechdlakkakkikiikikkikikikikikkakakadlgheeeee",
"eeeeebghddkdlakakakkkkkkkkkkkkkkakkaldlchgheeeee",
"eeeeelcbgfdabdklallaakakakaladalladldbghhhbleeee",
"eeeeelbhhghghcbdddddldldadldldaddbgbgfg`hbleeeee",
"eeeeeeelbbhhghgfgfhhgbgbhgbghhhgfgchh`hblkeeeeee",
"eeeeeeeeelllbhhh`ghghchcgfghhghh```hhelleeeeeeee",
"eeeeeeeeeeeellllbbhhhh`h`h`hhh`bbbklleeeeeeeeeee",
"eeeeeeeeeeeeeeeeeelllleeeellllklleeeeeeeeeeeeeee"
};
