/* XPM */
static char *noname[] = {
/* width height ncolors chars_per_pixel */
"48 48 10 1",
/* colors */
"` c #000000",
"a c #878787",
"b c None",
"c c #4ABD40",
"d c #8597FF",
"e c #5C5C5C",
"f c #5278BF",
"g c #FFFFFF",
"h c #D3D3D3",
"i c #C1C1C1",
/* pixels */
"bbbbbbbbbbbbbbbbbbbbbbbbbbbbbbbbbbbbbbbbbbbbbbia",
"bbbbbbbbbbbbbbbbbbbbbbbbbbbbbbbbbbbbbbbbbbbbbbee",
"bbbbbbbbbbbbbbbbbbbbbbbbbbbbbbbbbbbbbbbbbbbbbe`a",
"bbbbbbbbbbbbbbbbbbbbbbbbbbbbbbbbbbbbbbbbbbbba`ab",
"bbbbbbbbbbbbbbbbbbbbbbbbbbbbbbbbbbbbbbbbbbba`abb",
"bbbbbbbbbbbbbbbbbbbbbbbbbbbbbbbbbbbbbbbbbbb`ebbb",
"bbbbbbbbbbbbbbbbbbbbbbbbbbbbbbbbbbbbbbbbib`ebbbb",
"bbbbbbbbbbbbbbbbbbbbbbbbbbbbbbabbbbbbbbbbe`abbbb",
"bbbbbbbbbbbbbbbbbbbbbbbbbbbbaeeeabbbbaeee`ibbbbb",
"bbbbbbbbbbbbbbbbbbbbbbbbbbaeefaaeeeaa`eafeabbbbb",
"bbbbbbbbbbbbbbbbbbbbbbbbbaefabbbbafeeefbe`eibbbb",
"bbbbbbbbbbbbbbbbbbbbbbbbaeaabhbbbbbafaeee`ebbbbb",
"bbbbbbbbbbbbbbbbbbbbbbbbefabbbaefiaeaadafa`abbbb",
"bbbbbbbbbbbbbbbbbbbbbbbeebabbafaefefebaaibeabbbb",
"bbbbbbbbbbbbbbbbbbbbbbaefabagfaafeaaefabdbfebbbb",
"bbbbbbbbbbbbbbbbbbbbbbeaiafbbbaeeabeeaabbaaebbbb",
"bbbbbbbbbbbbbbbbbbbbbefafbiabaeeefeeefbbbafebbbb",
"bbbbbbbbbbbbbbbbbbbbaeaee`efbafeeeefbabbaae`bbbb",
"bbbbbbbbbbbbbbbbbbbaefa`eaee`ebfafaaabbabefebbbb",
"bbbbbbbbbbbbbbbbbbbaebbfee`ea``eaabfbbbafee`bbbb",
"bbbbbbbbbbbbbbbbbbba`abbbbfee`afee`ibfafee`abbbb",
"bbbbbbbbbbbbbbbbbbbeeeeeabhbbfe`e`fbbaiea`ebbbbb",
"bbbbbbbbbbbbbbbbbbaefaeeeeefibhbaabbabeee`bbbbbb",
"bbbbbbbbbbbbbbbbbaefabfaffe`eefbbbbaafee`ibbbbbb",
"bbbbbbbbbbbbbbbbbeaabeeaaabaae`eefbbaee`abbbbbbb",
"bbbbbbbbbbbbbbbbeebafaadeebafbafeiafef`abbbbbbbb",
"bbbbbbbbbbbbbbbaefabeefaafaeeabaabbee`ebbbbbbbbb",
"bbbbbbbbbbbbbbaeabaafaaeaifafbafbbeeeeabbbbbbbbb",
"bbbbbbbbbbbbbbefafaeabfafaeababbbfee`abbbbbbbbbb",
"bbbbbbbbbbbbbaeaaifafeebaafbafabaea`ebbbbbbbbbbb",
"bbbbbbbbbbbbaefab`ebaaabeeaababbcf`ebbbbbbbbbbbb",
"bbbbbbbbbbbbeaababaaeafafabfbbbeee`bbbbbbbbbbbbb",
"bbbbbbbbbbbeefeafifafiaefababbfee`ibbbbbbbbbbbbb",
"bbbbbbbbbbae`efbaababafabaabbaef`ebbbbbbbbbbbbbb",
"bbbbbbbaeeeeeabeefabafiafifbbee`ebbbbbbbbbbbbbbb",
"bbbbbaeefefbfbeeeeeefaaababaee`ebbbbbbbbbbbbbbbb",
"bbbaeeeaabaaaafeeeebaefiefbe`eabbbbbbbbbbbbbbbbb",
"baeeafifbaabfbabafbbfe`e`e`eabbbbbbbbbbbbbbbbbbb",
"eeafaaabadabaabfaabace`e`cbbbbbbbbbbbbbbbbbbbbbb",
"ebbbbbifaaaaifabababda`abbbbbbbbbbbbbbbbbbbbbbbb",
"e`eabbbbafafeaafibbae`ebbbbbbbbbbbbbbbbbbbbbbbbb",
"ae``eebbbbbaaafibfe`eabbbbbbbbbbbbbbbbbbbbbbbbbb",
"bbia``eeeabbbbbie``abbbbbbbbbbbbbbbbbbbbbbbbbbbb",
"bbbbbie```efafa``abbbbbbbbbbbbbbbbbbbbbbbbbbbbbb",
"bbbbbbbbbe``e``eabbbbbbbbbbbbbbbbbbbbbbbbbbbbbbb",
"bbbbbbbbbbbaeabbbbbbbbbbbbbbbbbbbbbbbbbbbbbbbbbb",
"bbbbbbbbbbbbbbbbbbbbbbbbbbbbbbbbbbbbbbbbbbbbbbbb",
"bbbbbbbbbbbbbbbbbbbbbbbbbbbbbbbbbbbbbbbbbbbbbbbb"
};
