/* XPM */
static char *noname[] = {
/* width height ncolors chars_per_pixel */
"42 48 13 1",
/* colors */
"` c #000000",
"a c #FFE779",
"b c #878787",
"c c #FFAE00",
"d c #3012AA",
"e c #FF0000",
"f c #FF6F6C",
"g c #4ABD40",
"h c #B72828",
"i c #5C5C5C",
"j c #FFFFFF",
"k c #D3D3D3",
"l c #C1C1C1",
/* pixels */
"hhhhhhhhhhehhhhhhhhhhhhhhhhhhhhhhhhhhhhhhh",
"hh``````````ihihhhbhhhbhbhififhhhihbbflbbh",
"h```````````hhafaafalaaakakafaakafikjjjkjh",
"hh``````````bfffafffafkfakafalaafliajjjjkh",
"h```d```d``hfhafaaafafakfakafkffailbjjkjkh",
"hh````````ihhcfffaffakfalafafaaaafafkjjjkh",
"h`d````````hhhfabffafafaafalfaffaabbjjajkh",
"ei`d``d``ihhiic`fcihafaflfaffafakfiaijjjah",
"h```id```h`hhhifihaiffaffaffafafaklkajkjjh",
"ei`````````hihhicfihfbhaffafaflaakkajkkalh",
"h````````ihihhih`ibf`fbhfaffaakfkaaaiaakjh",
"ei````````````iiichichihhbifjakakbl`ifkklh",
"h`i``d```i`hihihhihhih`hihbaafkaii`ifakaah",
"e``i`````````````hhhhihiihakfaflii`hlafalh",
"h```dd`i```ih`hhih`h`h`h`iafafai``hafakkkh",
"e`i```i``````h`````i`i`i`ffafaf`ifflafakah",
"h`iggi``````h``ih``````hhahfbhi`ffffalakkh",
"ei``g`g`d``i`h``````````hfafaf`hfhcfakakkh",
"h`gi`g```````i````````ihacffbh`ihfafaakjah",
"e`g`g`i`````hihhi````h`ihffc```hcbfalkkjkh",
"h`ig`g`g````hhahi``````hbcbh`i`ihhi`iakkkh",
"e`g`g`gi````ibfbf```i```fhf````hhhbibljalh",
"h`i`g`g`i````hhci```````hi``i``i`iihkfbkbh",
"e``gg`gg`i````````````i``````ibibhaa``bbah",
"hig``g`g`g`````````d````````````hffilkkafh",
"e``gg`g`g`i`d``````````i``i`````hhhajjkfbh",
"h`g`g`g`gg`````d````````hhh````iihafaffhih",
"e`g`g`g`g`gi```````d``hbffhfffh``ibfbfb``h",
"h````id``g`````````````haffacbh`ffbcfbh``h",
"eii`````g`ig`d```d````ihlafbfffihafihh```h",
"h``````d`g`g```````````iakaafaifafaabh`i`h",
"hh`i`````g`g```````d```hakalaacbfakfbh``hh",
"h`````d`g`g`i```d``````iffafaflhaffffi`hhh",
"e````i`i`g`gi```````````fifhibfafaalch`h`h",
"h``id`g``g`g`g``````d``hb`hi``aflafabh`hih",
"ei`d``g``g`g``gd```````iicihbafaffaafc`h`h",
"h``````ig`g```g```d`````h``hafafaaffbi``hh",
"e`i``````g`i```i``````````ihafabbflafhhi`h",
"h`````igg```igg``````d````iffafiiaffb``hhh",
"hh```````i`````i``````````iciii```iich`h`h",
"h```ii``i`````g```d```i`i`````ii````i`h`hh",
"ei````i`````i``````````````ihifbh````i`h`h",
"h``i`g````````````````````````````````hifh",
"ei``````i``````````d``d```````i````````h`h",
"h````````````````````````d```hcb``d```i``h",
"hh```i`i`````d```d``````````iiffa````````h",
"h```i`````d``````````d```````hhbfi``i````h",
"hh`````````````````````````````h`````````h"
};
