/* XPM */
static char *noname[] = {
/* width height ncolors chars_per_pixel */
"48 48 7 1",
/* colors */
"` c #000000",
"a c #878787",
"b c None",
"c c #5C5C5C",
"d c #FFFFFF",
"e c #D3D3D3",
"f c #C1C1C1",
/* pixels */
"bbbbbbbbbbbbbbbbbbbbbbbbbbbbbbbbbbbbbbbbbbbbbbbb",
"bbbbbbbbbbbbbbbbbbbbbbbbbbbbbbbbbbbbbbbbbbbbbbbb",
"bbbbbbbbbbbbbbbbbbbbbbbbbbbbbbbbbbbbbbbbbbbbbbbb",
"bbbbbbbbbbbbbbbbbbbbbbbbbbbbbbbbbbbbbbbbbbbbbbbb",
"bbbbbbbbbbbbbbbbbbbfccbbbbfcaebbbbbbbbbbbbbbbbbb",
"bbbbbbbbbbbbbbbbbfccafaebf```caebbbbbbbbbbbbbbbb",
"bbbbbbbbbbbbbbbf`ccfffceba`c```caebbbbbbbbbbbbbb",
"bbbbbbbbbbbbba`caeeaa`cebac`c`c``cafbbbbbbbbbbbb",
"bbbbbbbbbbbaccaffacacccebacacc``c``caebbbbbbbbbb",
"bbbbbbbbbac`afeaacaaccaebacccccc``c``cabbbbbbbbb",
"bbbbbbbbc``caacccaacaacfbaacaaaccc``c`cabbbbbbbb",
"bbbbbbbbcc```cccfbbacccebacacfbfa`c`cfeaabbbbbbb",
"bbbbbbbba`c````cabbaaccfbacccfbba`cfffcafbbbbbbb",
"bbbbbbbbbacc`c`c`caacccebcccafa`caffaacabbbbbbbb",
"bbbbbbbbbbaccc``c`ccc`cfba`ccccaeeaaccaebbbbbbbb",
"bbbbbecafbbaccc`````ccceba``ccfffacaafbbbabbbbbb",
"bbbbb```cfbbbaccc`c```cafcccfffaccafbbbfccaabbbb",
"bbbbbc`c``cebbfaccc`c````cfdaaaccffbbecccafabbbb",
"bbbbbcc``c`cabbbacccc`c`aefaaacaebbeaccaefaabbbb",
"bbbbbcacc````cfbbbaccc``caaaccfbbbaccaffaacfbbbb",
"bbbbbcaacc`c```aebac`cacccaccfbbfcccfeacaaafbbbb",
"bbbbbaaacacc`c``ccc`ccccacc`ccacccaefaaaaaaabbbb",
"bbbbbacacaacc`c````ccccffac``cccfffacaaccaafbbbb",
"bbbbbaaccfbfacc`c`cc`cfbbbccccaffaaafffccaaabbbb",
"bbbbbaaacfbaccac`c``ccebbfc`aeeaaaacfbfccaabbbbb",
"bbbbbcaaca`caacaa`c`caacac``afaaaac`caaccaabbbbb",
"bbbbbaacaccfaacccacccccc`cccccaacc``c`c`aaabbbbb",
"bbbbbaaacafacccabfcacaaaccaacafecccc```caaabbbbb",
"bbbbbacacccccabbbfcaaacc`ccaaaabbfcccc`ccaabbbbb",
"bbbbbaaacccaebbf`caaacccc`aaaacaebbac`ccaaabbbbb",
"bbbbbfcccafbbecc`ccaaacbbcaaaac`cabbeac`cafbbbbb",
"bbbbbbfafbbbaccacccaaacbbacaaac```cfbbecaafbbbbb",
"bbbbbbbbbbaccaaccccaccabbcaaaac`c```aebbbbbbbbbb",
"bbbbbbbbbcccaaccaacaacabbacaaaac`c`c`cfbbbbbbbbb",
"bbbbbbbba``c`ccabeaaaacbbcaacaefac``ccafbbbbbbbb",
"bbbbbbbbfcc````abecaacabbcaaaabbf`caffafbbbbbbbb",
"bbbbbbbbbccc`c`cafcaaaabbacaaffaccaeacabbbbbbbbb",
"bbbbbbbbbbcccc```ccaacabbcaaaa`ccfeaaabbbbbbbbbb",
"bbbbbbbbbbbfc`c`c`ccaaabbcaaaaaffacafbbbbbbbbbbb",
"bbbbbbbbbbbbeacc``caacabbcaaaaffcafbbbbbbbbbbbbb",
"bbbbbbbbbbbbbbfcc`caacabbcaaaaaaafbbbbbbbbbbbbbb",
"bbbbbbbbbbbbbbbeaccaaaabbccaaaaabbbbbbbbbbbbbbbb",
"bbbbbbbbbbbbbbbbba`aacfbbacaaafbbbbbbbbbbbbbbbbb",
"bbbbbbbbbbbbbbbbbbfaaabbbfaaafbbbbbbbbbbbbbbbbbb",
"bbbbbbbbbbbbbbbbbbbbbbbbbbbbbbbbbbbbbbbbbbbbbbbb",
"bbbbbbbbbbbbbbbbbbbbbbbbbbbbbbbbbbbbbbbbbbbbbbbb",
"bbbbbbbbbbbbbbbbbbbbbbbbbbbbbbbbbbbbbbbbbbbbbbbb",
"bbbbbbbbbbbbbbbbbbbbbbbbbbbbbbbbbbbbbbbbbbbbbbbb"
};
