/* XPM */
static char *noname[] = {
/* width height ncolors chars_per_pixel */
"48 48 15 1",
/* colors */
"` c #000000",
"a c #FFE779",
"b c #878787",
"c c #3012AA",
"d c #FF00FF",
"e c #FF0000",
"f c #FF6F6C",
"g c None",
"h c #8597FF",
"i c #B72828",
"j c #5C5C5C",
"k c #5278BF",
"l c #FFFFFF",
"m c #D3D3D3",
"n c #C1C1C1",
/* pixels */
"jjjjjjjjjjjjjjjjjjjjjjjjjjjjjjjjjjjjjjjjjjjjjjjj",
"j``````````````````````````````````````````````l",
"j``jjgggmggmgmgmgggggghhhhhkh`llllllllllllllllll",
"j`jc`cjhglmlmlglgmgghhhhhkhhk`llllllllllllllllll",
"j``j`j`jjjgmlmmgbgghghhhhhdkh`llllllllmbnlllllll",
"j``c`cjc`jcgmmmhjggghghhhhkhk`llllllm`jbb`blllll",
"j`j`j`c`jc`gmmmmcnghghdghhhhc`llllln`imllb`mllll",
"j``c`cjj`cjgmmmm`ggghghhgcj`b`llllmi`nlllm`bllll",
"j`j`j`c`jj`hmmmmjmhgdgkj`bnng`lllln`jllllbijllll",
"j`jjj`j`cjcgmmgm`ggkjjbgnhhkh`llllb`jllllb`jllll",
"j`c`cjj`j`jhmmggcbjbnbhhhhhdk`lllli`nllll``mllll",
"j``j`jjb`c`gmcjjjmgghhhhhhkhh`llllb`nlllb`jlllll",
"j`j`cjcjjjj`bnmmbnhghghhdhhkk`lllll`illn`imlllll",
"j``c`jj`jcjgmmgg`mhghhhhhhkdh`lllllljjj`blllllll",
"j`j`jc`cj`cnggggcnhdghhhbhhj``lllllln`fllllmllll",
"j``c`jcj`cjhggghjgghhhhhcjcbg`llllmj`jjbbb`nllll",
"j`j``j`jcj`hggghihhghhicjnbgh`llllnjmj```inlllll",
"j``jcjc`j`jhgghg`ggcjcbnghhkk`lllllllllmmlllllll",
"j`c``jj`cjcbgdghjjcbnnhhkhdkh`llllllllllllllllll",
"j``j`cjc`j`hgghh`nnghhkdhkkkk`llllllllllllllllll",
"j`c`jj`jcjcbhhghjhhhhhhkkdkhc``````````````````l",
"j``c`j`c`j`hghhh`nhdkhkhhkc`jnbjcj`c```````````l",
"j`j`jcj`j`ckhhhh`gkhhkdkc`bghckcj`c`j```j``````l",
"j``c`j`c`cjkgdhh`hhkhk`jbnhkkdkjccj``jj````````l",
"j`j``jc`jj`hhhhhihhcicnhbkdjckckc``jj````c````jl",
"j`c`cj`jc`ckhhhh`b`jgnkkdkkchcbc`bbjc`c`````j``l",
"j``j`j`c`jjchhkh`bggkkdkkcbdcjjjnccjc`j`j`j````l",
"j``c`j`j`c`hkdhh`hnfffbfbfbjjjbcjcjc`c```j``j``l",
"j`j``jc`jj`khkbh`nfffffffffefefeiiiic`j`j``````l",
"j```cj`jc`ckkdhkck``jjififefefefeeeeeij`c```j`jl",
"j`c``jc`j`jchkkd`bkcj``````i`iiieeeei`c```c``j`l",
"j``c`j`j`cjcbhkk`hbc`jhncjc`j````````j``j```j``l",
"j``j`j`cjfffffffbfjjnhcbccbccc`jjjc`j````jj````l",
"j`c```ciafmfnfffffffiffificij`bbc`j``c``jj``j``l",
"j``j`j`bffffffffffiffefefieieiiiii`i``j`j``````l",
"j```c`j`jffffffffffiifefiefiieeeeeeeeei````````l",
"j````j``````i`iiiiefefeeieeeeeeeeeeeeeeij``````l",
"j``c`j`c`j`j`c``````i`iiieieeeeeeeeeeee````````l",
"j`````c`j`cckcbc`jc`````````j`iiiieeei`````````l",
"j`jj`j```j`jcbck`b`jbkjcjcj````````````````````l",
"j`fffffjijjcjccj`bkbcjc```j``jj````````````````l",
"j`ffffffffffffffibijcj`cjc`cbj`j`c`````````````l",
"j`ffffffffffeffiffifeiiei`fj```````````````````l",
"j`ffffffffiffiffefefififefefefiii`i````````````l",
"j`ffffffiffeffefifefefeeieeeeeeeeeeeeeeii``````l",
"j`ffffifffeffefefefefefefefefeieieeeeeeeeeee```l",
"j`iffefieffefefefeefeeeeeeeeeeeeeeeeeeeeeeeee``l",
"llllllllllllllllllllllllllllllllllllllllllllllll"
};
