/* XPM */
static char *noname[] = {
/* width height ncolors chars_per_pixel */
"42 48 17 1",
/* colors */
"` c #000000",
"a c #FFE779",
"b c #878787",
"c c #FFAE00",
"d c #3012AA",
"e c #FF0000",
"f c #FF6F6C",
"g c None",
"h c #4ABD40",
"i c #8597FF",
"j c #B72828",
"k c #5C5C5C",
"l c #5278BF",
"m c #FFFFFF",
"n c #FFFF00",
"o c #D3D3D3",
"p c #C1C1C1",
/* pixels */
"jejjjjjjjjjjjjjjjjjjjjjjjjjjjjjjjjjjjjjjjj",
"jjbkk`kbb``kkd``blkkkj`jjjjjj`jj``kd`klkb`",
"ejkblbpblblblbgdkblkk`jjj`j`jjjj`jpkbglld`",
"jjbbbggdlpbigbpk`bkkjcjjjjjjjjjjjjdblkkkb`",
"jjkbpbblbbbbkblkdbkjjjjjk`jj`jjjjjbbkk`dk`",
"jjaiblk`omogk`kkk`cjcjjj`j`jjj`jkkkdklbbb`",
"jjkgkkpmoob``dkdjjbcjk`jjjjjjjjjkkkkklblk`",
"jjbkkomombkkk`kkjccjj`jj``jjkjjjk`klk`lbl`",
"ejkkpoamokkldkcjcfjj`jj`j`jjjjjj`kkklkkkk`",
"jj`oamomo`lbbckcjc`jj`jk`jjkjjjkjklk`d`k``",
"jj`mmomoob`pbjcfjk`kj`j`jjjjj`jjj`jdkbgbl`",
"ejcmamamobkkkcfc``j`jj`j``jjjjjjjjj`kkj`j`",
"jjjoomoaoop`cjjk`k`jjj``jjjjjjjjjjjj``jj``",
"jj`omaomk`kkfcb`j`jjj`j`jjjjjjjjkjjj```jj`",
"je`mammomoo`fj``jjj`jj`jjkjjjjkjjjjjk`kjj`",
"ejbbpoomambjckjj`jjjj`j`jjjjkjjjjjjjjjj`j`",
"jjaaooamomkjjjj`k`````jjjjjjjjjjjkjjjj````",
"jjaommmmaobkjjjjbbpb`jkj`jjjjjjkjjjjjjj```",
"ejaooamommb`jjjjbbb`jj`kjjjkjjjjjjj`jj``j`",
"jjpamomaomokjjjj`kj`j`jjjjjjjjjjj`jjjjk`k`",
"jjamomomamamjkjjjjj`jjjjjjkjjjjjjjjjk`jjj`",
"ejamomammombjjjjjj`jjjjjjcjjjjkjjjkj`c````",
"jjbamamamomkjjjjjjjjjjjjjjjjjjjjjjjkkccak`",
"ej`kmmomambjjjjjjjjjjjjcjkjjjjkjkjj`ccnj``",
"jjaokkkamokcjjjjckjjcjjjjjjjkjjjjjjjcaj`j`",
"ejamaoomokjcjjjjjjjjjjjjjjjjjjjjjjj``cn`j`",
"jjaommamojkjjjjjjjjjjjjjjhjjjjjj`jjjkcck``",
"jjaaoamobj`kkjjjjjjjjjkjjjjjjjjjjjjkcck`j`",
"jjaommamjjjjjjjkjjhjjjjjjjjjjkjjkjjkccjjj`",
"jjaomamak`k``jjjjjjjjcjjjjjjjjjjjjjbcck`j`",
"jjaoamomop`jjjjjjjjjjjjjjjjjjkjj`jjkjh`jj`",
"ejamommambjjjjkjjjjjjjjjhjjkjjjjjjj`c`kjj`",
"jjbaamammkkjjjjjjjjjjjjjjjjjjjjjjjj`k`jjj`",
"ejammamomkj`kjjjjjcjjjjjjjjjjj`jkjj``jjjj`",
"jjaamomamoo```jjjjkjjjhjjjkjjjjjjj`kjjjjk`",
"ejaoomammabjj`jjkjjjjjjjjjjjjjjjj```jjjjj`",
"jjaoaomoamkjjkjjjjjjjjjjjjjkjjkj`k`jjj````",
"jjamamaomop`jjjjjjjcjjjjjjjjjj`j`jjjk`k`k`",
"ejaomomamomo`cjjjckjhjjjkjjk``jjj```kkd```",
"jjpamamomaoajjhjjjjjjjjjjk``jjjk```k`k`d``",
"jjaoomamammjjjjjjjjjjcjk``jjkk````kdkd````",
"jeamamommmo`jcjckcjck````kj`k`k`k`k`d`````",
"jjaomamaoampkjjjjjbk`bmok``kdkk``kd``k````",
"jjamammammmakjcjbk`jomoob`kkk`d``d`k```k``",
"jeaomammaoomok``bommoammmk`k`dk`k`d`k```k`",
"jjamomammmmaooomamoamomoog`kd````kd```d```",
"jjbabapbabapababpabpbbabbb`k`k`d````````k`",
"jjjjjjjjjjjjjjjjjjjjjjjjjjjjjjjjjjjjjjjjjj"
};
