/* XPM */
static char *noname[] = {
/* width height ncolors chars_per_pixel */
"48 48 11 1",
/* colors */
"` c #000000",
"a c #878787",
"b c #3012AA",
"c c None",
"d c #8597FF",
"e c #B72828",
"f c #5C5C5C",
"g c #5278BF",
"h c #FFFFFF",
"i c #D3D3D3",
"j c #C1C1C1",
/* pixels */
"ccccccccccccccccccccccccccccccccccccccccca```ccc",
"ccccccccccccccccccccccccccccccccccccccccj`fff`cc",
"ccccccccccccccccccccccccccccccccccccccca`fccc`fc",
"ccccccccccjaajaajacccccccaajaajacccccca`fcccca`c",
"cccccccccaffffffffffaajajaffffffajccff`fcccccj`c",
"cccccccaffaccccccaaaffffffjaccccffaaff`ccccca`fc",
"ccccccaffc`````ccccccccccccccccccahaf`faacajf`cc",
"ccccccafc`ccccc``cccccccccccccccahaf`fcffff`fccc",
"ccccccj`c`cccccccc`c`c`cc`cccccahaf`fccccccccccc",
"cccccca`c`ccccccccccccccccccccjijf`fcccccccccccc",
"chihhhhhihhihhihhihhihihihihiahaf`fih`cccccccccc",
"cifffffffffffffffffffffffffffhaf`fff``cccccccccc",
"chffffffffffffffffffffffffffhaf`fffff``ccccccccc",
"ciff```f`fb`ffgfgfgfgfgfgffhaf`fffff````cccccccc",
"chfffgfffffffffffffff`f`ffhaf`f`f`fff```cccccccc",
"ciffffffgffgfgfgfgfgff`ffhaf`fff`fff````cccccccc",
"chffbffgffgfffgfffgffgffiaf`fffffffff```cccccccc",
"ciff`f`f`f`f`f`ff`f`f`gijf`f`f`f`b`f````cccccccc",
"chf`hhihihihiihciiihijijf`fciccicihff```cccccccc",
"ciffhihhihihihiiihiiahaf`fiiiiiiciif````cccccccc",
"chf`hhiihihiiihiiiijhaf`fjiicijcijhff```cccccccc",
"ciffhihhihihihihihahaf`fiiiiiijijchf````cccccccc",
"chf`hihchiiiiiiiiahaf`fjiicijcijjjiff```cccccccc",
"cigfihihihihihiijhaf`fiicijiijcijjhg````cccccccc",
"chf`hiiiiiiiiiijiaf`fjiijiicjijjjjhff```cccccccc",
"cigfihhihihihijijf`fiiiicicjiciajchf````cccccccc",
"chf`hiihiiiiiafaf`fjiijiijijjajjcjiff```cccccccc",
"cigfihiiihihaeaf`fiicicicjcaajjcjjha````cccccccc",
"cha`hiihiiiafaf`fjiijijjajaiijjjjjiff```cccccccc",
"chffiiiichahaf`fiicicjajajjjjcjcjchf````cccccccc",
"cig`hihiijijf`fjiijajajaijjjcjjjajiaf```cccccccc",
"chafiichahaf`fiijjajacjijcjcjjjjjchf````cccccccc",
"cig`hiiahaf`fjjaaajjjjijjjjjjjacjahff```cccccccc",
"chgfiiihaf`fjjajjcjjcjjcjjjcjjjjjchf````cccccccc",
"cia`iiiif`faaajjjjijjjjjjjjjacjajahff```cccccccc",
"chgfhiif`fjajijjcjjcjjjcjcjjcacjcjig````cccccccc",
"cia`ii`faaaiiijjijjjjjcjjjacjjjajjiff```cccccccc",
"chffcfjajiiicicjcjjcjjjjjjjjcajcjjhf````cccccccc",
"chg`iijijijcijjjjjcjjjjacjjacjjadahff```cccccccc",
"chffiiiicicijjicjjjjcjcjcacjjajjajhf````cccccccc",
"cig`iiiijijjijjjjjjjjjjjjjjacjajjahff```cccccccc",
"chffiicjijicjcjcjjjcjjacacajjajcachf````cccccccc",
"cif`hhihhihihhihihiiihihhihihhiihiiff```cccccccc",
"chfaffgagagagaagagagagagfgfgffgfffff````cccccccc",
"ch`f`f`f`f`f`f`f`f`f`f`f`f`f`f`f`fb`f```cccccccc",
"c```````````````````````````````````````cccccccc",
"cc``````````````````````````````````````cccccccc",
"ccc`````````````````````````````````````cccccccc"
};
