/* XPM */
static char *noname[] = {
/* width height ncolors chars_per_pixel */
"48 48 11 1",
/* colors */
"` c #000000",
"a c #FFE779",
"b c #878787",
"c c #FFAE00",
"d c #FF6F6C",
"e c None",
"f c #4ABD40",
"g c #B72828",
"h c #5C5C5C",
"i c #D3D3D3",
"j c #C1C1C1",
/* pixels */
"eeeeeeeeeeeeeeeeeeeehhghbhjeeeeeeeeeeeeeeeeeeeee",
"eeeeeeeeeeeeeeeeejhghgfgfgheeeeeeeeeeeeeeeeeeeee",
"eeeeeeeeeeeeeeeeehhfgfgfghhjeehhgeeeeeeeeeeeeeee",
"eeeeeeeeeeeeeeejhgfghgfghh`jhgfgfhheeeeeeeeeeeee",
"eeeeeeeeeeeeeeehhhgfhhh`h`ghhfdbchhjeeeeeeeeeeee",
"eeeeeeeeeeeeeejhghhhhg`ghhhhcjafhghjeeeeeeeeeeee",
"eeeeeeeeeeeeeehhhh`gh`f`hhhcjbghhhfjeeeeeeeeeeee",
"eeeeeeeeeeeeejfgh`hh`hg`hgbbfgfhg`ghjeeeeeeeeeee",
"eeeeeeeeeeeeeegh`h`hh``hgfhchhgfhhh`bjjeeeeeeeee",
"eeeeeeeeeeeeebhfg`h`h`hhhchhgfhgh`hhhhjiieeeeeee",
"eeeeeeeeeeejjbhg`fg`h`hhhhhfhg```h``hbiijieeeeee",
"eeeeeeeeeijjb```hh`hh`hcfghgh`hh`h`hjjjjjjeeeeee",
"eeeeeeeeijbbbbhhhhh`hhhgfgf`hhh``hbijjjjbbeeeeee",
"eeeeeeejjjbjbbbbhhhbbh`hha`hhh``hjijjbbbbbeeeeee",
"eeeeeejjjbbbbbhhhhjb```hhhhh``hbijjjbbbhbbeeeeee",
"eeeeeijjjbbbbhhhhhhhhh```````hjijjbbbbbbbbeeeeee",
"eeeeejiijjjbbbjbhh`h`hh`h`hhbijjbbbbfbbbbbeeeeee",
"eeeeiiiiiiijjjbhhhhhh``h`hbjijjbbbbbhbbbhbeeeeee",
"eeeeiiiijiiiijbbbfhhhhhbbijijbbbbbbhbbbbbbeeeeee",
"eeeeiiiiiiiijiijjjbhbbjiiijjbbbbbhbbbbbbhbeeeeee",
"eeeeiiiiiiiiiiiiijjjjiiiijjbbbbfbbbbbbbbhbeeeeee",
"eeeeiiiiiiijiiiiiijjiijjjjbbbbhbbbbbbbbhbbeeeeee",
"eeeeiiiiiiijiijijiijjjjbbbbfhbbbbbbjbbbhhbeeeeee",
"eeeeiiiiiiijiiiiiibjbjbjbbbbbbbbbbbbbbhbhbeeeeee",
"eeeeijiiiiijiijiiijbjbbfhbbbbjbbjbbbbbbhhbeeeeee",
"eeeeiiiiibjbiiiiiibfbhbbbbbbbbbbbbbbbhbhbhbeeeee",
"eeeeiiifbhhhbijjjjbhhbbbbbjbjbbjbbbbbfhhhhheeeee",
"eeeeiijhh```hbjjjbhbbbbbbbbbbbbbbbbbbbbhh``eeeee",
"eeeejjjh``hh`jjjbjbbbbjbjbbjbjbbbbbbbhhhhheeeeee",
"eeeeijb``h``fjjbjjbbbbbbbjbbbbbbbbbbhhhhheeeeeee",
"eeeejh``h`h`bjbjjbjbbbbbbbbjfjbbjfbhhhhh`eeeeeee",
"eeeejbh````hbjjbjjbbbjbbjbbbbbbbbbbhhhh`eeeeeeee",
"eeeejjjbh`hbjjjjjbjbbbbbbbjbbbbbbhhhhh`ieeeeeeee",
"eeeejbjjjbbjjjjbjjjbbjbbjbbbjbbbbbhhhheeeeeeeeee",
"eeeejjbjbbjbjbjjbjbbbbbjfbbbbbbbhhhh`eeeeeeeeeee",
"eeeejhh`bbjbjjbjjjbjbjbbbbbbbbbhhhhheeeeeeeeeeee",
"eeeeh``hhhbbjjjbjjbbbbbbbbbbhhhhhh`eeeeeeeeeeeee",
"eeeeh`h`bbbbjbjjbjjfjbbbbbhbhbhhh`eeeeeeeeeeeeee",
"eeeeh``h`fbbjbjjjbjbbbbbfbhbhhhh`ieeeeeeeeeeeeee",
"eeeeh`h``hhhhfjbbjjbbbbbhhhhhh`heeeeeeeeeeeeeeee",
"eeeeh``h`hhhbbhbbbbbbbhhhhhh`hhjeeeeeeeeeeeeeeee",
"eeee``bbh`h``hhbbbbbfbhhhh`hheeeeeeeeeeeeeeeeeee",
"eeeeih`bbh``h``hhhbhhhhhhhhjeeeeeeeeeeeeeeeeeeee",
"eeeeee`hhbbh``````bhhhh`hbeeeeeeeeeeeeeeeeeeeeee",
"eeeeeee`hhhbbh`h`hhhhh`ieeeeeeeeeeeeeeeeeeeeeeee",
"eeeeeeeee```hbb```hh`eeeeeeeeeeeeeeeeeeeeeeeeeee",
"eeeeeeeeeeih`hh``h`ieeeeeeeeeeeeeeeeeeeeeeeeeeee",
"eeeeeeeeeeeeeee`ieeeeeeeeeeeeeeeeeeeeeeeeeeeeeee"
};
