/* XPM */
static char *noname[] = {
/* width height ncolors chars_per_pixel */
"48 48 7 1",
/* colors */
"` c #000000",
"a c #878787",
"b c None",
"c c #5C5C5C",
"d c #FFFFFF",
"e c #D3D3D3",
"f c #C1C1C1",
/* pixels */
"cacacacacacacacacacacacacacacacacacacacacacacacd",
"a``````````````````````````````````````````````d",
"c`bbbbbbbbbbbbbfafffffffffffefeeeeeeefeeeeededdd",
"a`bbfdfbbbbbbbbbcccacaafaffbbbbaffffffffeeeeeeed",
"c`dddeddfbbbbbbacccaaafafacbbbbbbbbbbaffffeeeeed",
"a`deeeedefbbbbbccaaaaaffaacabbbbbbbbbbaffffffffd",
"c`eeeeeeedbbbbcccaaaafaffaacbbbbbbbbbbbbafaffafd",
"a`eefffeeefbbbacccaaaafaafacabbbbbbbbbbbbbbbbbbd",
"c`fffaffffebbbccaacaaafafaacaabbbbbbbbbbbbbbbbbd",
"a`afaffaffebbbcc``````cfafaacabbbbbbbbbbbbbbbbbd",
"c`fafaafaffbbbc``c`c````aaaaacbbbbbbbbbbbbbbbbbd",
"a`afafafaffddd````c`c`c``aaacabbbbbbbbbbbbbbbbbd",
"c`fafafafafede`c`c`c``c```facabbbbbbbbbbbbbbbbbd",
"a`afaaafafadedcc`ccccc``ccaaacbbbbbbbbbbbbbbbbbd",
"c`faafaafafeede`acaca`ccaaaaacbbbbbbbbbbbbbbbbbd",
"a`afaaaaaafeeeeccaaaaaaaaaaaaccbbbbbbbbbbbbbbbbd",
"c`aaaafafaffeefccacaaafaaaaa``abbbbbbbbbbbbbbbbd",
"a`faaaaaaaaffeacacaaaaaaaaaac`cbbbbbbbbbbbbbbbbd",
"c`aaaaaafaffffacacacaaaaaaaa``cbbbbbbbbbbbeddedd",
"a`aaaaaaaafafacccacaaaaaaaaaa`cbbbbbbbbbbddedeed",
"c`aaaaaaaafafaccccaaaaaaacacaccbbbbbbbbbeeeeeeed",
"a`aaaaaaaaafaccccaccaaacaaaac`cbbbbbbbbbddeefffd",
"c`aaaaaaaaaaf`````caaaaacacacccdeebbbbedeefffafd",
"a`aaacaaaaaafac`c```acacacaca`cededbddedeffafafd",
"c`acacaaaaaaaaac````aacacacacaeeeeedeeeefafaffad",
"a`aacacacaaaafaa`c`aacacacacccfffeeeeeefffafaafd",
"c`cacacacacaaaaac`acaccaccccacfffffeefffafafafad",
"a`acaccacaaaaaaa`````cacacacccfafafffafafafafafd",
"c`acbcacacaccaaacccac`accccccccaffaffaffafaafaad",
"a`acbbcccacacaca`c`c`ccccacccccaaaffafaafafaafad",
"c`cbbbbbacccaccac`c`acccccccccaafafafafafaafaaad",
"a`bbbbbbbbbbbacaa`cccccccccc`afffaaafafaafaaafad",
"c`bbbbbbbbbbbbccac`accccccc`cfaafafaaafaaaafaaad",
"a`bbbbbbbbbbbbbbbccccccccc`caaffafffafaaafaaaaad",
"c`bbbbbbbbbbbbbbb`cccccc```aaaafafafafafaaaaaaad",
"a`bbbbbbbbbbbbbbbccccc````caaafaaafaff`aaaaaaaad",
"c`bbbbbbbbbbbbbbbcc``````ccaafaafaafa``aaaaaaaad",
"a`bbbbbbbbbbbbbbbbbbbc```caaaaafaafacc`aaaaaaaad",
"c`dfbbbbbbbbbbbbbbbbb``c`aaaaaaaaaaa```aaaaaaacd",
"a`edfbbbbbbbbbbbbbbb````caaaaaaaaaac```aaaaaaaad",
"c`eddfbbbbbbbbbbbb`````cccaaaaaaaac````aaacacacd",
"a`eeedbbbfdeddfbb```c``ccaacaaaaaa```c`acaaaacad",
"c`feedfbeeededdf``````cccccacacacc`````aaccacacd",
"a`feeeeeeeeeeeddb`````ccacacacccc````acacacaaccd",
"c`fffefffeeeddeddda``ccccccccccc``ccbbbccacccabd",
"a`faffffffeeeedeedda`ccccccccc``cbbbbbbbbbbbbbbd",
"c`fafaffffffeeeededd`ccccccc``cbbbbbbbbbbbbbbbbd",
"addddddddddddddddddddddddddddddddddddddddddddddd"
};
