/* XPM */
static char *noname[] = {
/* width height ncolors chars_per_pixel */
"48 48 18 1",
/* colors */
"` c #000000",
"a c #FFE779",
"b c #878787",
"c c #00FFFF",
"d c #00FF00",
"e c #FFAE00",
"f c #FF0000",
"g c #FF6F6C",
"h c None",
"i c #4ABD40",
"j c #8597FF",
"k c #B72828",
"l c #5C5C5C",
"m c #5278BF",
"n c #FFFFFF",
"o c #FFFF00",
"p c #D3D3D3",
"q c #C1C1C1",
/* pixels */
"hhhhhhhhhnppnppppppppppppppppqqqqqqqqqqbbhhhhhhh",
"hhhhhhhhhnpnpppnpnppppppqqqqqqqqqqqqbqqllbbhhhhh",
"hhhhhhhhhpnppnpppppppppqqqqqqqqqbqbqqbbllllbbhhh",
"hhhhhhhhhnppbbbbbqbbbbbbbbbbbbbbbbbbqqbbllllllhh",
"hhhhhhhhhnppkggggkggkbkll`l`lliibibibqqlllllllhh",
"hhhhhhhhhnppkegegegegekkl``l`liqiqibbqbllbllllhh",
"hhhhhhhhhppqlgkeggegegk``l``iiiiaiqiqqblllllllhh",
"hhhhhhhhhpnqkgeggekggekll`l`lbiqiqiiqbqlilblllhh",
"hhhhhhhhhppqkeggeggegkk``l``libiqiaiqqblllllllhh",
"hhhhhhhhhnppkkegfgeggel`l`l`liaiqiibbbqlblllllhh",
"hhhhhhhhhpppkbgeggkgkkkl`l`liiiqiqiiqqblllblllhh",
"hhhhhhhhhnpqlkk`l`k`ll`l``l`liqiiiqbbqqlllllllhh",
"hhhhhhhhhppq```l`l`l``l`l``liiiqaiiiqqblllllllhh",
"hhhhhhhhhnpql`l```l``l`l``l```liiiqbbbqlilblllhh",
"hhhhhhhhhppq`l`l`l`l`l``l``l`l``lliiqqblllllllhh",
"hhhhhhhhhnpql`lllllll`l`l`l`l``l````bbqllbllllhh",
"hhhhhhhhhppqlmmmmjmmll``l`l``l``l`llbqbllllllhhh",
"hhhhhhhhhnpqmmmbmmmmll`l``kielll`l``bqbbllbllhhh",
"hhhhhhhhhppqmimmbmim``l`llieeoeel`l`qbblllllhhhh",
"hhhhhhhhhppqmmhmhmmll`l```klebeeeellqbqllillhhhh",
"hhhhhhhhhppqmmjmcjmll``l`illkllkikeibbblbllhhhhh",
"hhhhhhhhhpqhihmhmhmm`l`l`lkeeeeieeeebqbllllhhhhh",
"hhhhhhhhhnqqmmmmmmll``l`lleeieaeeaebbqbllblhhhhh",
"hhhhhhhhhpqqqqqqbqbl`l`l`leaeeeeieleqbbblllhhhhh",
"hhhhhhhhhppqqqqqqqqhqqqqqqqbhhhqqbbbbqblllhhhhhh",
"hhhhhhhhhppqqqqqqqqqqqqqqbqqqqbqbddbqbblilhhhhhh",
"hhhhhhhhhqqqbqqbqqbqqbqbqqbqbqqqbqbqbqblllhhhhhh",
"hhhhhhhhhhhhhhhhpnpqqqqbbbbbbbbbbbbqbqblbhhhhhhh",
"hhhhhhhhhhhhhppnpqbbbilllilblllllllllllllllblbll",
"hhhhhhhhhhppnnpqbbbblblbllllllllbllllllllllblbll",
"hhhhhhhhpnppppqbqblblblbbblllblllllllllbbblbllll",
"hhhhhhhhpqqqqqqqqpqqqqbbbbbbbllllllllbbllbllllll",
"hhhhhhhhnqbqbqqqqbqqqqqqqqqqqqqqqqbbbbbbllllllll",
"hhhhhhhhpqhiiibqbqqbqbqqbqqbqbqqqqqppqplllllllll",
"hhhhhhhhnqqiiibqqqbqqqbqqbqqqqbqqqqbqqqlllllllll",
"hhhhhhhhpqqbqbqbqbqqbqqbqqqbbbbblbbqqbqlllllllll",
"hhhhhhhhnqbqqqqqqqbqqbqqbqbbbbllllbbbbqlllblllll",
"hhhhhhhhqqqbqqbqbqqbqqqbqqqqqqqqqqpbbbqlllllllll",
"hhhhhhbbqqbbqbqqbqqqbqbqqbqbqbqqqqqqqbqllllllbll",
"hhhhbbpppbbpbbpbbqpbqpbqqqbqqqbqbqbqbqqlllllllhh",
"hhbqppnqbbpbqqbbqqbbpbbpbbbqqbpqbqqqqbqlllllhhhh",
"bbpqpqqbbpbbqbbpqbqqbqqbbqpqbbqbbqbbqbllllhhhhhh",
"bbqbpqpnppppbbpqbbqbbqiqqpqbqqbbpbbqqll`hhhhhhhh",
"hbblbqbbqppppnnpppppqqbqpqbbqiqqbbqqlllphhhhhhhh",
"hhhhhhbblblbbqbqppppnnnnppqqqbqbbpqll`hhhhhhhhhh",
"hhhhhhhhhhhhhbllblbqbbbqqpqnpnpppqlllhhhhhhhhhhh",
"hhhhhhhhhhhhhhhhhhhhlbbblbbqbpppqbl`hhhhhhhhhhhh",
"hhhhhhhhhhhhhhhhhhhhhhhhhhhblblblllhhhhhhhhhhhhh"
};
