/* XPM */
static char *noname[] = {
/* width height ncolors chars_per_pixel */
"48 48 17 1",
/* colors */
"` c #000000",
"a c #878787",
"b c #00FF00",
"c c #FFAE00",
"d c #3012AA",
"e c #FF0000",
"f c #FF6F6C",
"g c None",
"h c #4ABD40",
"i c #8597FF",
"j c #B72828",
"k c #5C5C5C",
"l c #5278BF",
"m c #FFFF00",
"n c #D3D3D3",
"o c #C1C1C1",
"p c #0000FF",
/* pixels */
"aaaaaaaaaaaaaaaaaaaaaaaaaaaaaaaaaaaaaaaaaaaaaaaa",
"kkkkkkkkkkkakakaaaaaaaaaaaaaaoaoaoaoaoaoaoaoaaaa",
"kkkkkkkkkakkakakkakaaaaaafaaoaafaafaoafaafaaaafa",
"kkkkkkjkkkajkkajaaaajaaaaaaaaaoaaoaoaaaoaoafaaaa",
"kkjkkkkkjkkkkkkkkkjkakjkakfkajaaaaaafaaaaaaaafaa",
"k`kk`ooooooooooooogooooooooooooooooooooooookaaaa",
"kkkkkooooooooooooooooooooooooooooooooooooookaaaa",
"kk`k`ooooooooooooooooooooooaaakaakakoaoooookjaaa",
"kkkkjgooooooooooooooooooaa```````````kkkoookaaja",
"kk`kkooaaoaoooooooooaoakkk``````````````koojaaaa",
"kkkkkaokoakoaaaoaaaa`ok`k```jjj`````````kookkkka",
"k`k`kooooakak`oa`ka``ok`ajeeeej```h`b```kookakaa",
"kkjkkoojooooaaok`aakaoakkjeeeee``b`h`h``kookjkaa",
"k`k`kooaaaeaojaooaofjak`kjeeeej``h``h```kookakka",
"kkkkkoooooaofeoaejaeeok`aeeeeee```h`h```koojkkaa",
"kk`kkoojoafoaaofjoafaoakkjeeeej```h`b```kookkkka",
"k`kkjooaaaeaajooaaojeok`kjeeeej``b``h```kookkjka",
"kkk`kooaoooofeojejaeeakkajj`````````````kookkaka",
"k`kkkoo`ookoaookfoajook`k````d```hk`````kookkkja",
"kkk`kooooa`oa`oaakok`ok`kdppppp`jmmmmm``kookkkka",
"k`kjkooaoaookkok`ka``okkadppppp`hmmmmm``koojkkka",
"a`k`koodooloaoaaaoaaaaa`klppppd`kmmmmm``koakkkka",
"kk`kkooooadolpoaldodpok`kpppppp`jmmmmm``kookjkka",
"kk`jkooagaooldolplaplakkadppppd`hmmmmm``kookkkka",
"k`k`koodgodoooaaoooalok`kdppppd`jmmmmm``kookkjkk",
"kk`kkooooldodpgapdappak`kpdd```````khc``kook`kka",
"k`kkjgoaoooollaldgaplokkak``````````````kookkkka",
"a`k`kon`oakooaoogaookak`k```kkkkkkkk````koakkjka",
"kk`kkooooa`ok`oa`ka``ok`kaooooooooooooa`kookkkkk",
"kk`kkoooooookkok`aa`kaaaooooooooooooooooaogjkkka",
"k`k`kooooooooooaooaooooooooooooooooooooooookkkka",
"kk`jkooooooooooooooooooooooooooooooooooooookkjka",
"k`kkkakkkkakkkakaakaaaaakaakkkkkkkakaaaaaaakkaaa",
"kk`k`kkkkkkkkkkkkkkkkkkkkkkkkkakakkakakaaakaakaa",
"k`kk``k`jk`k`k`k`jk`jkkkjkkkkkkkkkajaajakfkajaaa",
"a`k`kkkkkk`k`jkkkkkkkkkkkkjkajkajakaakaaaaaaaaaa",
"k``k``````k`k```j``k`k`kkkkkkkkkkkkkkjkkkkkajaaa",
"aaakk`k`k`k``k`d`k`k`k`k``k`k`kkkkkkkakkajkaioao",
"gggk```k```k``k`k`k`k`k`kk`kkkj`kkjkkkkakkkaoggg",
"gggk``k``k`k`k`k`k`k`kkk`kkkk`kkkkkkkkkjkakagggg",
"gggkk``k``k`k`k`k`k`k`k`j`k`jkkkjkkkjkaaakaagggg",
"gggakakkakkk`k`k`k`kjk`kkkkkkkkkkkkkkkkkadjagggg",
"gggggggggggok````k``d`j`k`k`k`jkkkkagggggogggggg",
"ggggggggggaakk`k```kkkkkkkkkkkkdkkkkaggggggggggg",
"ggggggggggk``````k``````k`jkkkk``````ogggggggggg",
"gggggggggo```k`k```k``k`kkkaaakk`k`k`kgggggggggg",
"gggggggggk`k`````````k`kjkaooaj`d````koggggggggg",
"ggggggggok`k`kk`kdkkk`kkkdkjkdkkkkkkkdaggggggggg"
};
