/* XPM */
static char *noname[] = {
/* width height ncolors chars_per_pixel */
"48 48 14 1",
/* colors */
"` c #000000",
"a c #FFE779",
"b c #878787",
"c c #FFAE00",
"d c #3012AA",
"e c #FF6F6C",
"f c None",
"g c #4ABD40",
"h c #B72828",
"i c #5C5C5C",
"j c #FFFFFF",
"k c #FFFF00",
"l c #D3D3D3",
"m c #C1C1C1",
/* pixels */
"ffffffffffffffffffffffmmbffffffffffffbbfffffffff",
"ffffffffffffffffffffmlbh`ifffffffffffhh`bfffffff",
"ffffffffffmlbbffffflmih`h`bffffffffffhi`lfffffff",
"fffffffffllmlibffmmi`h`igh`bffffffffiiiiffffffff",
"ffffffffflbimbiiii`h`ihllbi`bfffffffii`bffffffff",
"fffffffffmbiiiiiiii`i`llllihibfffffbii`fffffffff",
"fffffffffflbiiii`i``i`illlli`ibffffmaiifffffffff",
"fffffffffmmbiii`i``i`illmlllh`iffffac`bfffffffff",
"fffffffmlbbi`i`i`i`iflmbmlllmi`imffaiiffffffffff",
"fffffmmbhbi`i`d``ifljbmllllmmmh`imba`iffffffffff",
"fffmmihihi`i`i``mlllljlllllllmbi`bah`mmfffffffff",
"fmlihhihib`i``bjjljljlljllllllfih`kiifffffffffff",
"lahihiihmm``bjjljljlllfmljllllmmbia`bmffffffffff",
"llihiialjjiljjljljljlmmmbllllfmmmae`bfffffffffff",
"mjaihbjjjjjjlfjjjljfbmmmfllflmmmmki`ibffffffffff",
"mmlgh`mjjljmlbmljllmlfmllbmlmlmmmci``iffffffffff",
"ffllhihmjjbbbmjjlbfmbllmmmbflmlmab`mh`imffffffff",
"fffjahiijjjbjjlbllbmlllmbbmblmmfkhibb``iffffffff",
"fffmlbhiiljjmblflmmmfbbbmmmbmmfab`mmmb``ifffffff",
"fffflagh`mjjlbmlmblmblfmmbbmbffki`mmbmb``iffffff",
"fffffllhi`ljjlfbmlmbblmbibbfmmmahimbmbmh``bfffff",
"fffffmjcihiljjbmllbmmbmmbfmlbbaa`bmmmbmbih`bffff",
"ffffffmjih`bjljbblblmbbbmlmblmaiimmmbmmbb``ibmff",
"ffffffflaih`bjjlbblmbbbllbmibmk`imbmmmbmmbh``fff",
"fffffffbja`hilljmfmbmllfmbbfbab`mmmmmbmbbbb`i`bf",
"ffffffffmlah`ijljbblflmbbmmbmahimmmmmmbmbmbh``if",
"fffffffffllih`bjljmjlmmmmbbllk`bmmmbmbmbmb```ibm",
"fffffffffflaih`mjjlbmbimbbmlab`lmmmmmbmbb`i``bff",
"ffffffffffmlc`h`ljlmbblbfblmaiimmmmbmmbbi```blff",
"fffffffffffmjhiiiljlimfbmllmc`mmmmfmbmb````blfff",
"fffffffffffflmi`hbljmbbllllaiimfmmmmmi````mmffff",
"ffffffffffffmlchi`flllljllfa`bfmmmbb`````bffffff",
"fffffffffffffmli`h`ljllllllbilmbii``````mmffffff",
"fffffffffffffflahiiilljlllmiii``iii``i`bmfffffff",
"ffffffffffffffflm`h`bjfllbb`ibblmi````blffffffff",
"fffffffffffffffmjhii`mljlllllmfbi``h`bffffffffff",
"ffffffffffffffffmlh`h`llllllmmm`````blffffffffff",
"ffffffffffffffffflaii`bllllllbi``h`bffffffffffff",
"fffffffffffffffffmle`h`mlllfm```h`bfffffffffffff",
"ffffffffffffffffffmlc`i`mllb``h``bffffffffffffff",
"fffffffffffffffffffllih`ilb``h``bfffffffffffffff",
"fffffffffffffffffffmla`h````i``bffffffffffffffff",
"ffffffffffffffffffffmlb`h`ih``bfffffffffffffffff",
"ffffffffffffffffffffflai`h```bffffffffffffffffff",
"fffffffffffffffffffffflai`h`bfmfffffffffffffffff",
"ffffffffffffffffffffffmle``iffffffffffffffffffff",
"fffffffffffffffffffffffmliifffffffffffffffffffff",
"fffffffffffffffffffffffflbffffffffffffffffffffff"
};
