/* XPM */
static char *noname[] = {
/* width height ncolors chars_per_pixel */
"39 48 15 1",
/* colors */
"` c #000000",
"a c #FFE779",
"b c #878787",
"c c #FFAE00",
"d c #3012AA",
"e c #FF0000",
"f c #FF6F6C",
"g c None",
"h c #4ABD40",
"i c #B72828",
"j c #5C5C5C",
"k c #5278BF",
"l c #FFFFFF",
"m c #D3D3D3",
"n c #C1C1C1",
/* pixels */
"iieiieiieiieiieieiieiieiieiieiieiieiiei",
"eiiiiiiiiiiiiiiiiiiiiiiiiiiiiiiiii`iiii",
"i```j``j`j`j`j```````````````j``j`jj```",
"i`h`hjh`jh`hjjh``j`````````j`hjhjh`hjh`",
"i`jh`hjh`hjj``````jjjj``j``j`j`h`hjj`h`",
"i`j`hj`jjj`h``j`j`ji````````hj`jh`jjhj`",
"i`hjjjhj`h`j`````jb```````j``````hjjjh`",
"i`h`jh`hjj`````````````j```````jjj`hjj`",
"i`jhjjjh```````j`````j```j````````hjjh`",
"i``h`hjjj```j`````j`````````j`````jh`j`",
"i`jhjjh`h`````j``j`j`i`nj```````d`jjhj`",
"i`jjhjhjj`````````j``j`jfbfbj`````hjjh`",
"i`h`jjjj`````j`njfj`j`manfnfa````jjjhj`",
"i`jjhhjhhj```jnffbj``jbfafafnfd```jjjhj",
"i`hjhdhjjd``jfbj`jbijjinfjbifb```hjhjj`",
"e`jkjhjjhj```fifaaijbifijfamcbj``jjjhjj",
"i`hjhjhjjj``jfaafajbjcbiaafabfi`hjhhjj`",
"i`jhdhjkhjj`ij`jjfjaiijbbjj``jj`jjjjjhj",
"e`hjhkhjkj``j```i`j``````i`jf`jj`hhkhj`",
"i`khdhkhjhf`j`j````jj`j`j`i``j```kjhjhj",
"i`hbhjhkk```j```j`j``````j```````hjkhk`",
"e`hkhkkbhh``j````````b``````j``jjhkhkhj",
"i`khkbhkkj`j`j`i`i``af`ij`ii`j`i`kjhbkj",
"i`bbkbhkhj`i``j``j`nafjbi````j`j`bhkhhj",
"i`bhhghbbhj`jfbibjfanajifnnffj``jbkhbbj",
"e`bkbghkgb`j`jbfamanff`faaafb`jjhnhbbbj",
"i`nbbnhghnb`j`jafafbfi`bfnfa`fj`bhghbgj",
"i`hghknhnbb`j``faaa`jfjjiaaa`iij`jnnbhj",
"e`mhnnbghj`jiijbafnafh`jaanfjfj``jhbgnj",
"i`nnghm`j````iibfaafaifnffabbij```j`nbj",
"i`nnnnhj``j`jijcabijibbcbjjfii`j`j``hnh",
"e`ghmbj`j`j``iibfabfjcibfnncjjj`j``j`bj",
"i`nmn````j``jjibaffib`jbafnfij`j``j``jj",
"i`nm`j`jj`jj`jiinafanfbfaffbi``j``i`j`j",
"e`nbj`j``j`ji`jbfafffnfabfhij``j`j`j``j",
"i`mhj```j```jj`ifaiffanncffi```i`j`j`j`",
"i`ah`jji``jbj`i`jiaibcibibi``j`nj`ij```",
"e`mji``j`i`nb`jj`jifcibiijj````bij```j`",
"i`mb`j```j`lb`ijj`jjj``j````j``nb`jj```",
"e`bj```jj`jmbijiji`j`ij`j``j`ijbn````j`",
"i```j`````ianbiijj`iji`j`````jjbm``ji``",
"e``j`jj`jj`nl`jbicj``ijij``j`j`bmjjj```",
"i`i````j`jjmmj`cbbi`j`i```j````nljjj`j`",
"e`````j`i``mlabbiaf``j`i`fbi`jjnmbi`j``",
"i`jj`i``j`jmml`afbif``jj`jiij`jjbb```j`",
"e```j``j`jbbjjbbafafijiijiaij`jj`j`j`j`",
"i`i``j`j``bjjib`fbcbiihbjcbbijjjb``j`i`",
"iiiiiiiiiiiiiiii`iiiiiiiiiiiiiiiiiiiiii"
};
