/* XPM */
static char *noname[] = {
/* width height ncolors chars_per_pixel */
"48 48 15 1",
/* colors */
"` c #000000",
"a c #878787",
"b c #00FFFF",
"c c #3012AA",
"d c #FF00FF",
"e c #FF6F6C",
"f c None",
"g c #4ABD40",
"h c #8597FF",
"i c #B72828",
"j c #5C5C5C",
"k c #5278BF",
"l c #FFFFFF",
"m c #D3D3D3",
"n c #C1C1C1",
/* pixels */
"fflanananaajlmllmllmllmllmllmlanananananana`ffff",
"ffmjjjcjjjjclmlmllmlmlmlmmnnnl`j`j`j`j`j`j`j`fff",
"fflcj`jc`cj`nmllmlmllmlmmnnnal`jc`cj`c`c`j`c``ff",
"ffmjjjcjjjjcjnaanmllmlmmnmafal`j`j`j`j`jc`j```ff",
"flmcj`j`c`j`j`jcjjmlmlnnnfnaal``cj`cj`j``j`j``ff",
"fmjjcjcjjcjcjcjanlmlmmnnnnaakl`j`j`j`c`jcj`c``ff",
"flc`jjcj`jj`janmnclmmnmnaaaaal``j`c`j`j```j`j``f",
"fmjjcj`cjjcjmmnkkklmnmannfkajl`icj`j`j`c`j`c```f",
"flj`jjj`j`jlmhkcaclnnfnaaaaajl`cjj``j`c`j`j````f",
"fmcjc`jcjalmackkkkmnnnankakjjl`icicj``j`j`c`j``f",
"flj`jcj`jlnkhkackklnanaaaajjcl`jjcikcj`j``j````f",
"fmjc`jcalmkkhahkfcmnfakaajjjjl`icicaij`j`c``j``f",
"fljjj`jmmkfkfkfkkfmnaaaajjcjam`caeaihej``j`j```f",
"fmc`cjnmhkkkfhahfklaaaakjjjjal`ciciaecaj`j`j```f",
"fljjjjmnkahahahakhmaaajjcjaakm`iheadjeae```c```f",
"fmj`camkgkkkkfkfhalaakjjjjjaal`aicaaajdajj`j```f",
"flcj`lfakkfknahanhmajjcjaakaal`aeaedaeaae```j``f",
"fl`jalkkakgkkfkfhalajjjjaakaal`aadjaaeaeaa`j```f",
"fmjcnmagkbakfknannmjcjajaaanfm`aaaeeadanea`````f",
"fmj`mfkkkakkkkkhahmjjjaakaafal`eaafannaehe`jj``f",
"fljcmkgbaghgaknafaljjakaanannm`henaneaenea`````f",
"fl`jlgkakkkkbkkknkljkaaaanannl`ahenaheheaeaj```f",
"fm`jmkkgkgkgfgkafnmaaaahehnfnm`aeaneaneaeci````f",
"flcjmkbgkbkakhgkaflaaaaanannnl`aaeaaaeaeaej`j``f",
"fmj`lkgkkgkgkgkkfalaaannnfnnml`aikaeaaaaiaj````f",
"fmcjmgkkgkgkkakgafmananafnnlml`aaeaaaaeaaij````f",
"fl`jmkgkkgkgbgkkkglaafnfnnmmlm`aejaiaiaaiji````f",
"fl`cjjjjjjjjjjjjjjjjjjjjjjjjjjjjjjjjjjjjjj`````f",
"flj`mmmfmmmmmlmmlmmlmmmmmlmmmlmmmlmlmlmmlmkj```f",
"fl`jallllllllmllmllmlmllllmllmlllmlmlmlllmjj```f",
"fmjcjmmlmlmlmlmllmlmlmlmmlmlmlmlmllmllmmlm`````f",
"fl`j`flmlmlmlmllmlmlmlmllmllmllmlmlmlmllla`````f",
"fl`j`amllmllmlmllmllmlmlmlmlmlmllmllmlmml``````f",
"fl`jc`llmllmlllmlmlmlmlmlmlmllmlmllmlmlla``j```f",
"flc`j`jmlmlmlmlmllmlmlmlmlmlmllmlmlmlmlm`j`````f",
"fl`j`cjallmlmlmllmllmllmlmllmlmlmlmlmll````````f",
"fmj`j``jjllmllmlmlmlmlmlmlmlmlmllmlmlm``j``j```f",
"fl`c`j`c`nmllmlmlmlmlmlmlmlmlmllmlmllj`j```````f",
"flj`j`c`j`kmllmllmllmllmllmlmlmlmlml```````````f",
"fl`c`j`j`j`amlmlmlmlmlmlmlmllmlmlmlj`j```j`````f",
"fmj`j``c``j``almlmlmlmlmlmlmmllmlj`````````````f",
"fl`j`c`j`c`j`j`jlmllmllmllmlllma```j```j```````f",
"fj``c`j``j`c``j```amlmllmlmlmj``j`````````c````f",
"ff`j`j`j``j``j``j`j```````````j``j```j`````````f",
"fla``j``j``j``j```````j```````````````````````ff",
"fl`jc`j`c`j``c``j`j`j````j`j`j`````j```j```````f",
"fj`````````````````````````````````````````````f",
"ffjj```````````````````````````````````````````f"
};
