/* XPM */
static char *noname[] = {
/* width height ncolors chars_per_pixel */
"48 48 12 1",
/* colors */
"` c #000000",
"a c #878787",
"b c #3012AA",
"c c #FF00FF",
"d c #FF6F6C",
"e c None",
"f c #8597FF",
"g c #5C5C5C",
"h c #5278BF",
"i c #FFFFFF",
"j c #D3D3D3",
"k c #C1C1C1",
/* pixels */
"eeeeeeeeeeeeeeeeeeeeeeeeeeeeeeeeeeeeeeeeeeeeeeee",
"eeejjjjaeeeeeeeeeeeeeeeeeeeeeeeeegkjjjjjkgeeeeee",
"eejgbgg`ggbgejekekaafaeaekaekaeka`kg`gg`b``eeeee",
"eeeggbg`bgggejkeeafaaeafke````gee`f`g`b`g`g`eeee",
"eejgbg``ggbgeekkafaeafkkkk`gggekk`kg`b`g`g````ee",
"eeeggbg`ggggeeafaafakeakke`gggeej`ab`g`g`b`b```e",
"eejg`gb`gbggekfaaeafkaeeek`gggekegag`g`b`g`g```e",
"eeegbgg`gggbeaafafakkekjej`gggeje`e`b`g`g`g````e",
"eejgb`g`ggbgkfaakkkfdeejej`gg`eej`e`g`b`g`b````e",
"eei`gbg`bgggeaafkfaeeejjej`gggeeegab`g`b`g`g```e",
"eejbg`g`ggbgeaeakdeejjcjje`gggeje`k`g`g``g`````e",
"eeeggbg`ggggkfkfkfejejjjej`gggejj`ag`b`g`b`g```e",
"eejg`gb`gbggeakakkjjejejejgeeeeeega`g``g``g````e",
"eeegb`g`gggbefkeejejejejejekekeje`f`g`b`g`b````e",
"eejggbg`ggbga`g`g`g`b`g`g```b``g`gab`g``b``g```e",
"eejb`g`g`aakakakakakakaafaekakeaae``g``g``g````e",
"eejgbgb`bgg`bg`b`b`g`bg`g`g`g`b`g`g``b`g`g`````e",
"eeeg`g`gg`bgg`gg`ggb`g`g`b`b`g`g`b`g`g``b``g```e",
"eejbgbgb`g`g`bg`b`g`g`b`g`g`g``g``g`b`g``g`````e",
"eejg`g`g`bgb`g`bgg`b`g`g`b`g`b`b`g``g```g``b```e",
"eejgb`gbg`````````````````````````````b```g````e",
"eeeg`bg``ggggbgggggggbgggggggggggggbggag`b`````e",
"eejgb`g`ggbggggbggbggggbggbgbgbgbggggggh``g````e",
"eeeg`gg`gbgeijijijijijijijijijijijifgbgkg``````e",
"eej`b`b`ggejijiijiijiijiijiijiiijiijeggh``g````e",
"eeeggg``ggjijijijijiijiijiijijijijijibgk`b`````e",
"eejg`gb`gbijiijiijijijijijiijijiijiijgga```g```e",
"eejb`g``ggjiijijijiijijiijijijiijiijibge`g`````e",
"eejg`bg`ggijijiijijiijijiijiiijijijijggh```````e",
"eej`gg``gbijijijiijijiijijijijijijijibgk``g````e",
"eejb`g``ggjiijijijijijijijijijiijiijiggh`g`````e",
"eekgb`g`bgijijiijijijijiijiijiijiijijbgk```````e",
"eejg`g``ggjijijiijiijiijijijijijijiijggh``g````e",
"eej`b`g`gbijiijijijijijijijijijiijijiggag``````e",
"eejg`g``ggjijiijijijijijiijiijijiijijgba```````e",
"eei`b`g`bgiijijijijijijijijijiijijijigge``g````e",
"eejg`g``ggjijijiijiijiijijijijijijiijgba```````e",
"eee`g`b`gbijijiijijijijiijiijijijijijgge```````e",
"eejg`b``ggjiijijijijijijijijiijiijijigba``g````e",
"eej`g`g`ggiijijijiijiijijiijijiijijijgge```````e",
"eejb``g`gbjijiijijiijijiijijijijijiijgba```````e",
"eeeg`g``ggjijijijijijijijijijijijiijigge```````e",
"eej`g`b`ggijijijijijijijijijijijijijigba```````e",
"eejb`g``gbjijiijiijiijiijijiijiijijijgge```````e",
"eea``````gaaaaaaaaaaaaaaaaaaaaaaaaaaabgg```````e",
"eeee```````````````````````````````````````````e",
"eeeee``````````````````````````````````````````e",
"eeeeeeeeeeeeeeeeeeeeeeeeeeeeeeeeeeeeeeeeeeeeeeee"
};
