/* XPM */
static char *noname[] = {
/* width height ncolors chars_per_pixel */
"48 48 8 1",
/* colors */
"` c #000000",
"a c #878787",
"b c None",
"c c #8597FF",
"d c #5C5C5C",
"e c #FFFFFF",
"f c #D3D3D3",
"g c #C1C1C1",
/* pixels */
"bbbbbbbbbbbbbbbbb`d`ddddddadaaaagagggggfffffefef",
"bbbbbbbbbbbbbbbbd`dd`ddddddaaaagagagggbffefeffea",
"bbbbbbbbbbbbbbb``d`ddddddaaaagaaggggggffffffefaa",
"bbbbbbbbbbbbbb`d`dffgggfffffffeffffffffffffefaga",
"bbbbbbbbbbbbb`d`ddfffffffffffffffffffffffeffaaaa",
"bbbbbbbbbbbb`d``aagfgffgffffffffffffffffffeaagaa",
"bbbbbbbbbbb```daaaaaabbbbbbbbbbbbbbbbbffffaaaaag",
"bbbbbbbbbb``d`daabaagbbbbbbbbbbbbbbbbffffaaafaaa",
"bbbbbbbbb``d`aaaggaaabbbbbbbbbbbbbbbgfffaaaggaga",
"bbbbbbbb`d``dadgggagabbbbbbbbbbbbbbffffaaagggaaa",
"bbbbbbb````adabagaaagbbbbbbbbbbbbbggffadabgagaag",
"bbbbbb````dadbbgggaaabbbbbbbbbbbbggfgadabbggagaa",
"bbbbb```ddddbbbaagaagbbbbbbbbbbbgggfddabbbagaaag",
"bbbb````dddbbbbagaaaabbbbbbbbbbggfgadabbbbagagaa",
"bbb```ddddbbbbbaagaagbbbbbbbbbggggdddbbbbbaaaaga",
"bb```````d``d`dgaaaaaddaaaaagagggddabbbbbbgagaaa",
"b`````````d`d`daaagagaaaaagaggggdddbbbbbbbaaaaga",
"````d``d`d``d`daaaaaadaagagagagdddbbbbbbbbaaagaa",
"fffffffffffffffadaagafffffffffdddbbbbbbbbbadaaag",
"fffffffffffffffadaaagffffffffbdddbbbbbbbbbddaaga",
"fffgfffffffffffdddaaaffffgfgffdddbbbbbbbbbdadaag",
"gff`ddbbbbbbbbbdddgagbbbbbbgggdddbbbbbbbbbdddaga",
"gggd`dbbbbbbbbbdddaaabbbbbbgggd`dbbbbbbbbbdddgaa",
"ggf`d`bbbbbbbbbdddgagbbbbbbgggdddbbbbbbbbbdddaag",
"gggd`dbbbbbbbbbdddaaabbbbbbggadddgbbbbbbbbdddaga",
"gag`ddbbbbbbbbbd`daagbbbbbbgagd`dbbbbbbbbbd`daag",
"gagd`dgbbbbbbbbdd`aaabbbbbbgggdddbbbbbbbbb`ddaga",
"gag`d`bbbbbbbgcd`dgadddddddaag`ddagaggggffd`daaa",
"agadddbbbbbbbbg`d`ad`d`dddaagadddagggggfffd`daga",
"gaa`d`bbbbbbbbb`d`d`ddddddaaaadddgagggbfff`d`aaa",
"aagdddbbbbbbbbb`d``d```d```gaaddd`d```d`dfffegag",
"aaa`d`bbbbbbbb`d`dd`d`d``d`aaaddd``d`d``fffeaaab",
"aaadddbbbbbbb`d`ad`````d``daaaddd`````dffefaagbb",
"aadd`dbbbbbbd``ddabbfbbbbbbadadddbfbfbgfffaaabbb",
"ddadd`bbbbb```aadbbbbbbbbbbdaddddbbbbffffaaabbbb",
"dad`ddbbbb```aaabbbbbbbbbbbadddddbbbffffaaabbbbb",
"ddddddbbb``daaabbbbbbbbbbbbddddddbbgfffaaabbbbbb",
"dddd`db````aaabbbbbbbbbbbbbddddddbgbffdaabbbbbbb",
"dddddd```daaabbbbbbbbbbbbbbddddddggffdaabbbbbbbb",
"`ddd`d```aaabbbbbbbbbbbbbbbddddddbgfdadbbbbbbbbb",
"dd`ddd``gagbbbbbbbbbbbbbbbb`d`dddgfdadbbbbbbbbbb",
"`dd`dd`agabbbbbbbbbbbbbbbbbddddddfdadbbbbbbbbbbb",
"d`ddd`````d``d`dddddddaaaaa`d`ddddddbbbbbbbbbbbb",
"`d`d```d`d``d`dd`ddddadaaaad`dddadabbbbbbbbbbbbb",
"d`````````d`dd`ddddddaaaaag`d`ddddbbbbbbbbbbbbbb",
"`d`d`d`d`d`d```````d```d`d`d`ddddbbbbbbbbbbbbbbb",
"`d`d`d``d```d`d`d```d`d`````d`ddbbbbbbbbbbbbbbbb",
"d`````d``d`d```````d```d`d`d``dbbbbbbbbbbbbbbbbb"
};
