/* XPM */
static char *noname[] = {
/* width height ncolors chars_per_pixel */
"48 48 12 1",
/* colors */
"` c #000000",
"a c #FFE779",
"b c #878787",
"c c #FFAE00",
"d c #FF6F6C",
"e c None",
"f c #4ABD40",
"g c #B72828",
"h c #5C5C5C",
"i c #FFFFFF",
"j c #D3D3D3",
"k c #C1C1C1",
/* pixels */
"eeeeeeeeeeeeeeeeeeeeeeeeeeeeeeeeeeeeeeeeeeeeeeee",
"eeeeeeeeeeeeeeeeeeeeeeeeeeeeeeeeeeeeeeeeeeeeeeee",
"eeeeeeeeeeeeeeeeeeeeee``eeeeeeeeeeeeeeeeeeeeeeee",
"eeeeeeeeeeeeeeeeee````h`eeeeeeeeeeeeeeeeeeeeeeee",
"eeeeeeeeeeeee`````hghgh`jeeeee```eeeeeeeeeeeeeee",
"eeeeeeeee`````hbgbgfgfghheeee`bah``eeeeeeeeeeeee",
"eeeee````hhgbchgfghgbiijjiji`hadkbh``eeeeeeeeeee",
"e```hhhgbggfghghghgfjijiijiiidkkdadbh``eeeeeeeee",
"ee`ghgfghfghgfgfgfgijk````hjikababbabdh``eeeeeee",
"ej`gfggfghgfghghghiib`hjih`hijdabdabdfdhh``eeeee",
"eehhgfhghgfghgfhhgji`hiiji``ijkbabdbabbdbgh``eee",
"eee`ghghgfghgfgghhji```iji``jidadbabdbcbbcbhh``e",
"eee`fhhhfghhhhhhhgji```iij``iibkbabdfdbabbbchgh`",
"eej`hghghghhghghhhiib`bjib`kjibadbcbabcbhcbbgbh`",
"eeee`hhhhhhghhhhghhjiiiii``ijibcbbbdbbbdbbgbcb``",
"``he`hghghhh`hh``````ijib`jijhhdfdabbcbhchcbhh`e",
"````h`hhh`g`h``h`h`h`iij``iijh`hcbbcbbcbbbhgf`ke",
"``h```hh`h`h`gh`g`h``ijk`ijhghgh`bcbbgbhcgfd`eee",
"e``dh```h`h`h```h``h`ii`ijhh`hhhgh`dfdfdhbg`hkee",
"ej``hchg`hg`h`hh``g``ij`ijghhghhhhghhbbgbgh`eeee",
"eej``bbgh`h`g`h`h`h`hjiijihhhhhghhhhhghchh`jeeee",
"eeej``dfcg`h`g`h`g``jib`kjjg`ghhhhghghh`b`heeeee",
"eeeee``bbbc`h`hh`h`hii```iihhhhghhgfgfgh`h`eeeee",
"eeeeej``gbgb`gh`g`h`jib`kjjhhghhhgfg``hgbc``eeee",
"eeeeee`h`cbbch`h`h`g`iiijihhgfhgh``hcbcbhdbh`eee",
"eeeeej`gh`hchgh`g`h`h`jijg``hgh`gbcbgbhchcbg``ee",
"eeeeee`hhg`hhcbh`hh``hhghhh``hhcbbcbdbchbgfdbh`e",
"eeeeee`h`hhg``gbc``ghgh`h`ghcbcbcgbdfghcbghchg``",
"eeeeee`hghhhhgf`hhhh`h`hgbcbbdfdhbchdbbgfdfgbch`",
"eeeeej`hh`ghghghgh`h`gbcdfdbcgdbcgbchchcbgbgh``e",
"eeeeee`hhhhhfgfgfghghcbbcbcbbbcbbbchbgbgfdh`hkee",
"eeeeee`g`hghghhghghchhcbdbgbcfdhcbhchdfgh``keeee",
"eeeeee`hhhhhhghfgfgbb`bcbcbdbgbchgbbghh```eeeeee",
"eeeeeeh`g`ghghhggbghch`gbbcbcbchdbch``````eeeeee",
"eeeeeeeh`hhhhgfgfgfdb``hcbgbgbbgfg```h``h`eeeeee",
"eeeeeeeeh``hgfghhcgha`h`hdbcbcgh```h``h```eeeeee",
"eeeeeeeeeh`hhghgfhbcb`g``hchh```h`h``h``h`eeeeee",
"eeeeeeeeekh`hgfghcghdh`hh``h``h``g``g`h``heeeeee",
"eeeeeeeeeeeh`hhgfghbc`h`g`h`hg`h`h`h```hkeeeeeee",
"eeeeeeeeeeeeh`hgbgfgk`gh`h`g``h`h`h``hekeeeeeeee",
"eeeeeeeeeeeeeh`hfgbcbh`hhhh`hh`g```hkeeeeeeeeeee",
"eeeeeeeeeeeeekh`hchgbhhg`h`g`hh``hekeeeeeeeeeeee",
"eeeeeeeeeeeeeeeh`hgbch`hhg`hh``hkeeeeeeeeeeeeeee",
"eeeeeeeeeeeeeeeeh`hcb`gh`hg``hekeeeeeeeeeeeeeeee",
"eeeeeeeeeeeeeeeeeh`hbhhhh``hkeeeeeeeeeeeeeeeeeee",
"eeeeeeeeeeeeeeeeeeh`chg``heeeeeeeeeeeeeeeeeeeeee",
"eeeeeeeeeeeeeeeeeeeh```hkeeeeeeeeeeeeeeeeeeeeeee",
"eeeeeeeeeeeeeeeeeeeeejeeeeeeeeeeeeeeeeeeeeeeeeee"
};
