/* XPM */
static char *noname[] = {
/* width height ncolors chars_per_pixel */
"48 48 13 1",
/* colors */
"` c #000000",
"a c #878787",
"b c #3012AA",
"c c #FF00FF",
"d c None",
"e c #4ABD40",
"f c #8597FF",
"g c #5C5C5C",
"h c #5278BF",
"i c #FFFFFF",
"j c #D3D3D3",
"k c #C1C1C1",
"l c #0000FF",
/* pixels */
"dddddddddddddddddddddddddddddddddddddddddddddddd",
"dddddddddddddddddddddddddddddddddddddddddddddddd",
"ddddddddd```````````````````````````dddddddddddd",
"ddddddddd`iijiijiijiijiijiijiijiiji``ddddddddddd",
"ddddddddd`ijiijiijiijiijiijiijiijii`i`dddddddddd",
"ddddddddd`jiijiijibbhbhbhbhbbhbgbji`ji`ddddddddd",
"ddddddddd`ijiijijihgbjghgbjhgh`bgji`iji`dddddddd",
"ddddddddd`jiijijijhjijidjijjjjidgji`iiji`ddddddd",
"ddddddddd`ijiiiijibhjibihjiibgjgbji`ijiij`dddddd",
"ddddddddd`jiijijijhgbhh`gb`b`gb`gji````````ddddd",
"ddddddddd`ijijiijijjjjjijjiiijjijijiakakak`ddddd",
"ddddddddd`iijiijijiiiiijiijijiiiijiiijijij``dddd",
"ddddddddd`ijiijiiijijijijiijijijiijijiiiji``dddd",
"ddddddddd`jiiji``ga`````i````a```a```jijii```ddd",
"ddddddddd`ijiijiiijiiiijiijiijiijijiiijiij```ddd",
"ddddddddd`jiijijijiijijiijiijiijiiijijiiji```ddd",
"ddd``dddd`ijiiijiijijiijggbgggbggbggbggbij```ddd",
"ddd`````d`iijijijiijiijijijidijjijjijijiji```ddd",
"ddddd`````kjiiiijijiijiiijiijiiijiijijijii```ddd",
"ddddd```bb``gkjijiiijijijiijijijiijiiijiij```ddd",
"dddddd```bllb``akjijiiijijiijiijijijijiiji```ddd",
"ddddd``````blllb``a````i``````i````ai`ijii```ddd",
"dddddd````a`lblll`kjjjijiiijiijiiijijijiji```ddd",
"dddddd`````blhlbg``k``j``j```i``j````jiiii```ddd",
"ddddddd```llllb`ggaaakjj`iiijijiiiijiijiji```ddd",
"ddddddd``llhlh``g```g`g``jg`ga``jggiijiiji```ddd",
"dddddd`bllhlb`ag`gggga`d`ijjijiiijijiijiij```ddd",
"dddd``lllhlhh`````````fd`e`g`jjijiijijiiji```ddd",
"dddd``bhhlflfhf``````dfd`````j`g`g``g`ijii```ddd",
"dddddd``hbfbfhff```dfddd`kkakkjiijiijijiij```ddd",
"dddddd```hbfhfbfffhddddj`aaaakjjiijiiijiji```ddd",
"dddddd````fbffffdfdfdddj`````kjjijiijiijii```ddd",
"dddddd``````ffcdfdddjjji`````k``g`gg``iiji```ddd",
"dddddd````aa`fdfddddjjji`gggakjjiijijijiji```ddd",
"dddddd````k`hdfdddjjjiij``g`aajijiijiijiij```ddd",
"dddddddd```fdfdjdjjijiji`g`ggkjjiijijiijii```ddd",
"ddddddd``fddddddjjjjiiji``gggkkjijiiijiiji```ddd",
"ddddd``fdfdfddjjjjiiijii`g`ggkjjiijijijiji```ddd",
"ddd````````````````````````````g```ai`iiij```ddd",
"dddddd````kkkaagg`g`g`g`g`gggkjiiijijijiji```ddd",
"dddddd````aaggg``````````g``a`jgg````ijiij```ddd",
"ddddd`````aaggggggggggggggggakjjijiijiijii```ddd",
"ddddd`````aaagg`g``a````````ag`g`ggjiijiji```ddd",
"ddddd`````kkakkkaakakakkkkakkjjiijiijiijii```ddd",
"dddddd````jkjjkjjjjjjjjkjkjjjjijiijiijiiji```ddd",
"ddddddd``````````````````````````````````````ddd",
"ddddddddddd``````````````````````````````````ddd",
"dddddddddddd`````````````````````````````````ddd"
};
