/* XPM */
static char *noname[] = {
/* width height ncolors chars_per_pixel */
"48 48 12 1",
/* colors */
"` c #000000",
"a c #878787",
"b c #3012AA",
"c c None",
"d c #8597FF",
"e c #B72828",
"f c #5C5C5C",
"g c #5278BF",
"h c #FFFFFF",
"i c #D3D3D3",
"j c #C1C1C1",
"k c #0000FF",
/* pixels */
"cccccccccccccccccccccccccccccccccccccccccccccccc",
"cccccccccccccccccccccccccccccccccccccccccccccccc",
"cccffffffffffffffffffffffffffffffffffffffffffccc",
"cccfhihiihiihiihiihiihiihiihiihiihiihiihiihi``cc",
"cccfihihhihhihhihhihhihhihhihhihhihhihhihhih```c",
"cccfhihhihhf`jihhh`e`eihhie`eihhihhihhihhihh```c",
"cccfihhihhiee`hihihe`hhihhieihihhihhihhihhih```c",
"cccfihihhih``ehhihh`ehihhih`hihhihihhihhihih```c",
"cccfhihihhfef`ahhih`eihihhh`hhihhhihihihhhhi```c",
"cccfihhhih``ie`hihie`hihihieihhihihihhhhihih```c",
"cccfihihhfeah`eahhi`eihhihi`hihhihhhihihihhi```c",
"cccfihhih``ihf``ihie`ihihhh`hhihhihihhihhihh```c",
"cccfhihhieahhie`hhi``hhhihi`hihihhihihhihhih```c",
"cccfihhif```````aihe`ihihhieihhhhihhhhihihih```c",
"cccfihih`ehhhhfe`hh``fhhiha`hihihihihihhhihh```c",
"cccfhhhf`aiihih``hij``fhij``hhihihhhihihihih```c",
"cccfiih``hhhihh```hh```fa``hhihhhihihhhihhhi```c",
"cccfhh````hihh`````hie````hhihihihihhihhihih```c",
"cccfihhhhhihihhhhhhihihhhhihhhhihhhihihihhhi```c",
"cccfihihihhihhbiihihghhihihhiihhihihihhhihih```c",
"cccfihihihihhckchihckjihhihihhihhihhhihihhhi```c",
"cccfhihhhihhidbdhhickchhihihhihhihhihihhihih```c",
"cccfihhihhihidbgihhgbgihhbdhihihhihhihhihhhi```c",
"cccfhihihihhigbbhhigbghhibgihigiihhihhihhihh```c",
"cccfihhhibhihbbbhihbbbhicbghhdbdhihhihhihihi```c",
"cccfhihicbchhbgbhhibgbhhgbbhigbgihhihhihihhh```c",
"cccfihhhgbghibgbcihbgbihgbbhhbbbhihihihhhihi```c",
"cccfihiigbghcbcbcicbcbhibbbiibabihigihihihih```c",
"cccfhihhbbfijbibahgbibjibgbicbibjicbjchihhhi```c",
"cccfihbi`bbhabigghgfibcc`jbiggibghbbbbchhihh```c",
"c``fcgbfbc`hgfhgbhbahbagbh`cbahabi`bb`gihihi```c",
"c`b`b`bbbabhbghafifdifgagibc`chc`cba`b`b`b`b`b`b",
"cccfiha`gh`cfgicbibahgfbaibfbiihbbfcbccccccc````",
"cccfhhibgibabjhi`d`ihab`jhb`bhhib`ciaihihiih```c",
"cccfihiaihfg`jihbfbihab`ihfbaihha`ihhihhihhi```c",
"cccfhihhhifb`ihif`fihc`bhhg`jhihjdhhihhihihh```c",
"cccfihhihha`bihif`bhhi`fiha`hihihihihihhhihi```c",
"cccfhihihic`fihhg`ahih`ahiighhihhhihhhihihhh```c",
"cccfihhhihj`fihij`cihhfcihhhihhihihihihhihih```c",
"cccfhihihhi`ahihc`jhhihihhihhihhihhhihhihhih```c",
"cccfihihihh`aihhiaihihhihihihhihhihihhihihhi```c",
"cccfhihhhihaihhihhhihhihhhihhihhihihhihhhihh```c",
"cccfihhihhihhihihihhihihihhihihihhhihhihihih```c",
"cccf```````````````````````````````````````````c",
"cccc```````````````````````````````````````````c",
"ccccc``````````````````````````````````````````c",
"cccccccccccccccccccccccccccccccccccccccccccccccc",
"cccccccccccccccccccccccccccccccccccccccccccccccc"
};
