/* XPM */
static char *noname[] = {
/* width height ncolors chars_per_pixel */
"48 48 14 1",
/* colors */
"` c #000000",
"a c #FFE779",
"b c #878787",
"c c #3012AA",
"d c #FF6F6C",
"e c None",
"f c #4ABD40",
"g c #8597FF",
"h c #B72828",
"i c #5C5C5C",
"j c #5278BF",
"k c #FFFFFF",
"l c #D3D3D3",
"m c #C1C1C1",
/* pixels */
"eeeeeeeeeeeeeeeeeelkmeeeeeeeeeeeeeeeeeeeeeeeeeee",
"eeeeeeeeeeeeeeeellgbmlleeeeeeeeeeeeeeeeeeeeeeeee",
"eeeeeeeeeeeeelkmmbbbjbmlleeeeeeeeeeeeeeeeeeeeeee",
"eeeeeeeeeeeklmbgbbgbbbjbmlleeeeeeeeeeeeeeeeeeeee",
"eeeeeeeeellebjbbbgbbjbbbjbemleeeeeeeeeeeeeeeeeee",
"eeeeeeklmebjbebebjbbgbjjbjbbmlleeeeeeeeeeeeeeeee",
"eeeellmbgbbebjbjbbjbbjbbbbjbjbmmleeeeeeeeeeeeeee",
"eeklbbgbbbgbbbgbjbjbjbjbjibjbbjbi`eeeeeeeeeeeeee",
"eek`ibbbgbbbgbbbbjbjbbjbijijiji```eeeeeeeeeeeeee",
"eeli`iibbbgjbbjbjbbbcbbcbjbii`````eeeeeeeeeeeeee",
"eek````iibbbjbbjbjbjbbibiji`````i`eeeeeeeeeeeeee",
"eek`i`i``iigdjjbbjbijijji`````i`ibkeeeeeeeeeeeee",
"eek``i`i`c`iibbjbcbbbci`````i``mam`ilmeeeeeeeeee",
"eek`i`i`ii`i`chjbbbci`````i`ibmdi`ialimeell`eeee",
"eek`i`i``i`ii`iiiji`````i``bamh`iam```bklbi`eeee",
"eeki`i`ci`ic`ic`i````i`i`bldi`ima``ibklbii``eeee",
"eel`i`i`ii`ii`ii```````baa`iiam```bllbi``c``eeee",
"eek`ci`icii`iiiii``i`mla`iiami``bklbi`i`i`i`eeee",
"eeli`ii`i`iii`cii``i`i`iiam```bkkbi``i``i```eeee",
"eelii`ciiii`ciici``i`b`hmi`ibklbi```i``biii`eeee",
"eeki`ii`iiiii`iii````b`b```klbi```i``i`ibi``eeee",
"eeeiiiiii`c`iicii``i`i`b`b`li```i```i`bmii``eeee",
"eek`i`iciiiiiiiic``ibi`i`b`li`i``biibmbi``i`eeee",
"eelicii`ciiicicii```ibbi`b`li````ibmbi``ii``eeee",
"eeki`iiiiiiciiiii`````ib`i`li`i`i``i``ii`i``eeee",
"eeeiiicii`iiiiici``i````ib`lb`i`i`i`ii`iici`eeee",
"eeliciiiiciiiciii``i`c````bli``i`c`i`ci`ii``eeee",
"eeeiiiiicfciiiiij```ii`i```li`i`i`ii`iiicii`eeee",
"eelii`ciiiiiciici`````i`i``lii`c`i`ci`ii`i``eeee",
"eeliciiiiiciiijii`i````i`iili`i`i`iiiicii`ieeeee",
"eeliiiciciiiijiij`i`i````i`lii`i`ci`ii````eeeeee",
"eeliiiiiiijijiiji`ijji`````li``cii`ii``ieeeeeeee",
"eekiciijiiiiiciij`ebi`ic```liii`i`i``ieeeeeeeeee",
"eeeiifcijiijijiji`mc`i``ii`li`ci`i`iegeeeeeeeeee",
"eekiciijicijiijij`mi`c`i`cieii````igeeeeeeeeeeee",
"eeliijiciijijijib`ji`ii`ii`bii`i``eeeeeeeeeeeeee",
"eemijiiijiijijiji`mii`ci`ii````c``eeeeeeeeeeeeee",
"eee`iijijijijijbb`gi`i`ic`ici`iii`eeeeeeeeeeeeee",
"eeee`iijijijibiji`mici`iiii`icii``bbeeeeeeeeeeee",
"eeeeec`iibibjijbj`jii`cii`ciiii```ibbeeeeeeeeeee",
"eeeeeei`ijijibjbb`ei`ii`iiii```i`iiibeeeeeeeeeee",
"eeeeeeegi`jijbjbj`biciiiiii`i`i`iibbeeeeeeeeeeee",
"eeeeeeeee`iiijbjb`ei`i`i`c```iiiibbeeeeeeeeeeeee",
"eeeeeeeeeee`iijbj`giiici```iiibbbeeeeeeeeeeeeeee",
"eeeeeeeeeeee`cibb`mi`````iiiiibeeeeeeeeeeeeeeeee",
"eeeeeeeeeeeeee``j`ji`i`iiiibbeeeeeeeeeeeeeeeeeee",
"eeeeeeeeeeeeeeei``i``iiiiibbeeeeeeeeeeeeeeeeeeee",
"eeeeeeeeeeeeeeeeii``iiibjeeeeeeeeeeeeeeeeeeeeeee"
};
