/* XPM */
static char *noname[] = {
/* width height ncolors chars_per_pixel */
"41 41 7 1",
/* colors */
"` c #000000",
"a c #878787",
"b c None",
"c c #5C5C5C",
"d c #FFFFFF",
"e c #D3D3D3",
"f c #C1C1C1",
/* pixels */
"cccccccccccccccccccccccccccccccccccccccbb",
"cddddddddddddddddddddddddddddddddddddd`cb",
"cddafdafaddafafadafafdafafadafafdddddd`ca",
"cddddddddddddddddddddddddddddddddddddd`cf",
"cddccc`ccdccdcc`ccccccdddddddddddddddd`ca",
"cddddddddddddddddddedddddddddddddddddd`cf",
"cddccccdcccccc`ccccfcc`cccccc`cccccedd`ca",
"cdeddededdededddedddedddddeddddddedddd`cf",
"cdddddc`cc`ccccdcccddddddddccddcdddddd`ca",
"cddddddddddddddddddd``````ddddeddddddd`cf",
"cddc`ccccc`ccccceda`cdfc````ddcccddddd`ca",
"cdddddddedddddeddf`cddddc````ddddddddd`cf",
"cddccdccdcccccddf``fdccdd````ddddddddd`ca",
"cddddeddddddeddd```ddeddd````cdddddddd`cf",
"cdd`cccccecdddd```cdcc`cdd```feccedddd`ca",
"cddafdafafdaddf```ddafafadffadfddddddd`cf",
"cddddddddddddd````dddddddddddddddddddd`ca",
"cddcccccccccdd````dddcc`ccdcc`eccccddd`cf",
"cdddeddddddddd````ddddddddddddddeddddd`ca",
"cddccc`cccccdd````dddddddddddddddddddd`cf",
"cdddddddededdd````cddddddddddddddddddd`ca",
"ceddddddccdcdd`````ddcc`cddddddddddddd`cf",
"cdddddddddddddc````fedddddddd`dddddddd`ca",
"cddcc`cdddddddf````fdcc`ccdd`cddaddddd`cf",
"cddddddda```fed`````ddddded``fdddddddd`ca",
"cdd``cad`````ddd`````adddd``addddddddd`cf",
"cddddddd`````dddd``````````fdddddddddd`ca",
"cddcccdd`````ddddd````````cddddddddddd`cf",
"cddddddddcfcdddddddfcfcfadfafafadddddd`ca",
"cddddddddddddddddddddddddddddddddddddd`cf",
"ced`dccccc`ccccc`ccceccdcccdccc`cceddd`ca",
"cddddeddeddddedddddddddddddddedddddddd`cf",
"cddfaffaffafaffafafafafafafaffafafafdd`ca",
"cddddddddddddddddddddddddddddddddddddd`cf",
"cddc`ddddddddddddddddddddddddddddddddd`ca",
"cddddddddddddddddddddddddddddddddddddd`cf",
"cddddddddddddddddddddddddddddddddddddd`ca",
"cddddddddddddddddddddddddddddddddddddd`cf",
"c``````````````````````````````````````ca",
"bcccccccccccccccccccccccccccccccccccccccf",
"bbafafafafafafafafafafafafafafafafafafafa"
};
