/* XPM */
static char *noname[] = {
/* width height ncolors chars_per_pixel */
"48 48 12 1",
/* colors */
"` c #000000",
"a c #FFE779",
"b c #878787",
"c c #FFAE00",
"d c #FF0000",
"e c #FF6F6C",
"f c None",
"g c #B72828",
"h c #5C5C5C",
"i c #FFFFFF",
"j c #D3D3D3",
"k c #C1C1C1",
/* pixels */
"ffffffffffffffffffffffffffffffffffffffffffffffff",
"ffffffffffffffffffffffffffffffffffffffffffffffff",
"fffhhhhhhhhhhhhhhhhhhhhhhhhhhhhhhhhhhhhhhhhhhfff",
"fffhjekkakjijjijjijjijjijjijjijjijjijjiekkak``ff",
"fffhkajej`ijiijiijiijiijiijiijiijiijii`ajejk```f",
"fffhekajka`iijiijiijiijiijiijiijiijii`ejajka```f",
"fffhjjejeea`iij`iijiijiijiijiiji`iij`eaejakk```f",
"fffhkajakaee`i``ijiijiijiijiijii``i`ceajekak```f",
"fffhj`eaeeccc`c`ijijijiijiijiiji`c`ceeceae`i```f",
"ffkhii`eaceegcg`iijiiiijiijijiji`gcgcbeae`ii```f",
"fffhjij`eecgcdc`ijijijijijiiijii`cdcdcce`iji```f",
"fffhijii`cgcgcg`jiiiijiijiijiiji`dcgcge`iiji```f",
"fffhjiiji`cdcdc`ijijiijiijijijii`cgcgc`jijii```f",
"fffhiiji`gcgcgc`jiijijijiijiiiji`dcdcgc`jiij```f",
"fffhjij`````````ijiijiiijiijijij`````````iji```f",
"fffhijiiiiiiiiijiiijiijijijiijiiiiijiijiijii```f",
"fffhjijijjijjihh`g`h`ghjih`hh`h`hgjiijiijiij```f",
"fffhjiijiijiigg`iie`gbjijhgjijeg`aiijiijiiji```f",
"fffhjijiijiijh`eijiih`iji`ijieh`bijijijijiij```f",
"fffhiiijiijii`hijiji`giijiiijh`hiijiijiiiiji```f",
"fffhjjiijiijihg`ejbg`ejiijijehgejiijiijijiij```f",
"fffhiiijiijijih`hh`hhijijijeh`hjiijiijiijiji```f",
"fffhjjiijiiijichgiijijiiijih`hjijijijijiijii```f",
"fffhiijijijijhh`iijijijijihghgijiiijiiijiiji```f",
"fffhjiijiijiig`g`gh`iiijii`h`iiij`iijijijiij```f",
"fffhjijiijiije`hh`gh`g`ijh`gijijghjiijiiiiji```f",
"fffhjiijiijijie`iijeh`hgbgh`h`h`h`ijiijijiij```f",
"fffhijiijijii`hiijijje`hjjjijiiiiiiiijiijiji```f",
"fffhjijiijiijh`gjijiihgbaiiijijijijjiijiijii```f",
"fffhijiijiijijeh`hh`hgjiijijijijijiiijijiiji```f",
"fffhjijiijiiiijiijjiijijiijiiijiijijiijijiij```f",
"fffhjii`````````jiijiijiijiijiji`````````iji```f",
"fffhijij`cgcdcg`iijijiijiijiijii`cdcgcd`ijii```f",
"fffhjijii`cgcdc`jijiijiijijijiij`cgcdc`iiiji```f",
"fffhiiij`cgcdcg`iiijiijiijiijiji`dcgcgc`jiij```f",
"fffhjji`eecgcgc`jijijijijiijiiii`gcdcece`iji```f",
"fffhii`eacecgcd`iiijiiijiijijiji`cgcgceae`ii```f",
"fffhj`kaeecec`c`ijiijijiijijiiji`c`eceeeaa`j```f",
"fffhkakeabec`i``ijijiijijiiijiij``i`eackekkj```f",
"fffhakjakaa`iji`iijiijiiijijiiji`iji`ekakaka```f",
"fffhkejake`ijiijijiijijijiijijiijiiji`akakkk```f",
"ffkhkjjej`ijiijijiijijiiijiijiijijiiji`ekjek```f",
"fffhejajkijiijiiijiiiijijiijiijiiijiijijkajk```f",
"fffh```````````````````````````````````````````f",
"ffff```````````````````````````````````````````f",
"fffff``````````````````````````````````````````f",
"fffffffffffffffffffffffffffffffffffffffffjffffff",
"ffffffffffffffffffffffffffffffffffffffffffffffff"
};
