/* XPM */
static char *noname[] = {
/* width height ncolors chars_per_pixel */
"48 48 16 1",
/* colors */
"` c #000000",
"a c #FFE779",
"b c #878787",
"c c #00FFFF",
"d c #3012AA",
"e c #FF00FF",
"f c #FF6F6C",
"g c None",
"h c #4ABD40",
"i c #8597FF",
"j c #B72828",
"k c #5C5C5C",
"l c #5278BF",
"m c #FFFFFF",
"n c #D3D3D3",
"o c #0000FF",
/* pixels */
"gggggggggggggggggggggggggggggggggggggggggggggggg",
"gggggggggggggggggggggggggggggggggggggggggggggggg",
"gggkkkkkkkkkkkkkkkkkkkkkkkkkkkkkkkkkkkkkkkkkkggg",
"gggkmnmnnmnnmnnmnnmnnmnnmnnmnnmnnmnnmnnmnnmn``gg",
"gggknmnmmnmmnmmnmmnmmnmmnmmnmmnmmnmmnmmnmmnm```g",
"gggknm`d`dmnmm`d`m`d`nd`d`mmnm`d`m`d`d`d`nmm```g",
"gggkmnmd`dnmnmd`mmndnmnd`dnmmmd`mmmdnmnddnmn```g",
"gggknmm`d`mnmm`dmnm`mmnd`dmnmn`dmnndnmnm`nmm```g",
"gggknmndnddnmdndnmmdnmmdnddnmdndnmndnmdnmmnm```g",
"gggkmnmdnddmndndmnndnmndnddmndndnmnddddmmnmm```g",
"gggknmmdnddndnmdnmmdnmndnkdndmndmnmdnndnmmnm```g",
"gggkmmndmndldmnlnmnlnmmdmndldnmlnmndmnlndmnm```g",
"gggknmmlnmdldnmdmmnlnmnlnmdldmndmmmlnmnmdmmn```g",
"gggkmnmdmmglnmmlnmmonmmomnmomnmlmnmdmnmolmnm```g",
"gggknmdlommlnmolomlllmdllmnlmnlolmdlolllommn```g",
"gggkmnmmmnmnmnmmmmnmnmmnmnmmnmmmmnmmmmmnmmnm```g",
"gggknmmnmmnmmmnmnmnmnmnmmnmnmnmnmmnmnmnmnmmn```g",
"gggkmnmnmnbdddneddmddmmddedddeddddmddddmmnmm```g",
"gggknmmmnmmnmmmnmmmmnmnmmnmmmnmmmmmmmmmnmmnm```g",
"gggkmnmnmmddjddmddjddmjdmdjdkdjddnjddjdmnmnm```g",
"gggknmnmnmmmmnmnmmmmnmnmnmmmnmmmnmmmmnmmmnmm```g",
"gggkmnmmmndddjddjddnjddjddmdjdddmdddmddmnmmn```g",
"gggknmnmnmmnmmmnmmnmmmmmmnmmmmnmnmnmnmnmnmnm```g",
"gggknmmnmmnmnmnmmnmnmnmnmnmnmnmnmnmnmnmnmmmm```g",
"gggknmndddclddddndddcdldmdddcddmnmmmnmmmnmnm```g",
"gggkmmmmnmnnmnmnmmnmnnmnmnmnnnmnmnmnmmnmnmnm```g",
"gggknnmnmnmmnmnmnmmnmmnmnmnmmmnmmmnmnmmnmmmn```g",
"gggkmmnmnmdbdddkdkd`dkd`dmmnmnmmnmnmmmnmnmnm```g",
"gggknmmmmndlkldkdkdldkddknmmnmnmmnmmnmmmmnmm```g",
"gggknmnmnmlllkllllllklkklnmnmmmnmmnmnmnmnmnm```g",
"gggknmnmmnillkdllllklldldnmmnmnmnmmnmmnmmmnm```g",
"gggkmmmnmnlklkhlklkllhlhlmmnmmnmmmnmmnmnmnmm```g",
"gggknnmmnmblbllblblhklklknmnmnmmnmmnmmmnmmnm```g",
"gggkmmmnmmbbbbbbbbblkblhbnmmnmmnmnmnmnmmnmnm```g",
"gggknnmmnmkbbkbkbbkbbbbbbmmnmmnmmnmmnmnmmnmm```g",
"gggknmmnmmkkkkjbjbafffbfbmnmmnmmnmmnmmmnmmnm```g",
"gggknmnmnmmmmmmmmnnnnmmmmnmnmmnmmnmmnmnmnmmn```g",
"gggkmmmnmmnmnmnmnmmmmnnmnmmmnmnmnmmnmmnmmmnm```g",
"gggknnmmnm`````m`````````````m``````m``mnmmn```g",
"gggkmmnmmnmmmmmnmmmmmmmmmmmmmmmmmmmmnmmnmmnm```g",
"gggknmnmnmnmnmnmmnmnmnmnmnmnmnmnmnmnmmnmmnmm```g",
"gggknmmnmmmmmnmmnmnmmnmmnmmnmnmnmmnmmnmmnmnm```g",
"gggknmnmmnnmnmmnmmnmnmmnmmnmmmnmmnmmnmmnmmnm```g",
"gggk```````````````````````````````````````````g",
"gggg```````````````````````````````````````````g",
"ggggg``````````````````````````````````````````g",
"gggggggggggggggggggggggggggggggggggggggggggggggg",
"gggggggggggggggggggggggggggggggggggggggggggggggg"
};
