/* XPM */
static char *noname[] = {
/* width height ncolors chars_per_pixel */
"48 48 18 1",
/* colors */
"` c #000000",
"a c #FFE779",
"b c #878787",
"c c #00FF00",
"d c #FFAE00",
"e c #FF00FF",
"f c #FF0000",
"g c #FF6F6C",
"h c None",
"i c #4ABD40",
"j c #B72828",
"k c #5C5C5C",
"l c #5278BF",
"m c #FFFFFF",
"n c #FFFF00",
"o c #D3D3D3",
"p c #C1C1C1",
"q c #0000FF",
/* pixels */
"hhhhhhhhhhhhhhhhhhhhhhhhhhhhhhhhhhhhhhhhhhhhhhhh",
"hhhhhhhhhhhhhhhhhhhhhhhhhhhhhhhhhhhhhhhhhhhhhhhh",
"hhhkkkkkkkkkkkkkkkkkkkkkkkkkkkkkkkkkkkkkkkkkkhhh",
"hhhkmmmmmmmmmmmmmmmmmmmmmmmmmmmmmmmmmmmmmmmm``hh",
"hhhkm````mmm````mmmm`````mmk```mmmmm``kmmmmm```h",
"hhhkmm`kmmmmm`kmmm``mmmmk``mk`k`mmmm`kmmmmmm```h",
"hhhkmm`kommmm`kom`kmmmmmm`kmmk`kmmm`kmmmmmmm```h",
"hhhkmmk`mmmmmk`mm`kmmmmmmi``mmi``m`kmmmmmmmm```h",
"hhhkom``mmmmm``m`kmmmmmmmk`kmmm`k`kmmmmmmmmm```h",
"hhhkmm`kmmmmmi`mk`mmmmmmmok`mmm`k`mmmmmmmmmm```h",
"hhhkmm```k````ko`kommmmmmm`kommm`i`mmmmmmmmm```h",
"hhhkmm`kmmmmmk`mk`mmmmmmmok`mmm`k``mmmmmmmmm```h",
"hhhkmm`kommmm`ko`kmmmk``mm`kmm`kmk`kmmmmmmmm```h",
"hhhkmmk`mmmmok`mm`kmmmkk`k`mmm`mmmk``mmmmmmm```h",
"hhhkom`kommmm`kmm``mmmmk``imm`kmmmk`i`mmmmmm```h",
"hhhkmm``mmmmm``mmmk`mmmoi`mm`kmmmmm``k`mmmmm```h",
"hhhkm`k`kmmm`k`kommm``k``k``kmmmmmmk`k`mmmmm```h",
"hhhkmmmmommmmmmmmmmmmmmmmmmmpakbjpmmmmmmmmmm```h",
"hhhkmmmmmmmmmmmmmmmmmmmoapjbdkgjijkkmmmmmmmm```h",
"hhhkmmmmmmmmmmmmmmmapgbkjbdbjbjijkdkjbmmmmmm```h",
"hhhkommmmmmmmmmmpbgbbdbgikjbdbdbjbjijk`kmmmm```h",
"hhhkmmmmmmmmmkpbgabgabbdbgkkjbjijijkjijkjkmm```h",
"hhhkmmmmmmmmm`kabababgbbdbdbkkjbjkkkjkjikjkk```h",
"hhhkmmmmmmmmmk`kgbgbgbdgbdbbdkkkjkjijikjkkkjkk`h",
"hhhkmmmmmmmmm`jk`babdbbbbbdk`kd`ijijkjkkjkkkkj``",
"hhhkmmmmmmmmmk`kjkkgbdbdkjkkdjkbdkjjijkjijkkj`k`",
"hhhkommmmmmmm`kkkkkkakk`gijbjbdkkjikjijkkkkj````",
"hhhkmmmmmmmmm`kkk`jk`jbgbdbgijbjkdkjkkjkk```````",
"hhhkmmmmmmmmm`jkkjkk`kdbjbjdbdkdkkjijk`````k````",
"hhhkmmmmmmmmm`k`kkkjkkkkbdbkbjbkdbjk```k`k```k``",
"hhhkmmmmmmmmmkjkjkkk`jkjijbdbjbjk`k`k`k```k`````",
"hhhkmmmmmmmmm`kkkkjk`kijkjbgkdkk`kk`k``k`k```k``",
"hhhkommmiommm`kjkkkkkjkjijijk``kk`j`k`k`j``k```k",
"hhhkmmcccccmmkkkkkkj`kjijkjikjk`j`k`j``k``j``k``",
"hhhkmnnnnnddo`jkjkji`jijkdkjk`kk`kk`k`k`k``k````",
"hhhkmdgdgdmmmm``ijijkjkjkkdkkkkkk`j`k``j`k``j`k`",
"hhhkofffffmmmmmkjkkk`ijijbjbkj`k`kk`j`k`k`k````k",
"hhhkmpegpejkmmmm`kkjkjbjijijk`kkkj`kk``k`k`k`k``",
"hhhkmmlqlllmmmmmm`ji`jijgkdbkjk`j`kk``k`j`k`j```",
"hhhkmmmmmmmmmmmmmm`kjijkdbkjkkkkkk`kk`j`k`k```ko",
"hhhkmmmmmmmmmmmmmmm`kjbjijdbkk`jkkj`k`kk`k`k```h",
"hhhkmmmmmmmmmmmmmmmm`kdbjbkkkjkk`k`kj`k```km```h",
"hhhkommmmmmmmmmmmmmmm`kjidgijkkkjkkk````kmmm```h",
"hhhk````````````````````bjbjkkkkkkkkk``````````h",
"hhhh`````````````````````dbbjkj`j``````````````h",
"hhhhh`````````````````````djkkkk```````````````h",
"hhhhhhhhhhhhhhhhhhhhhhhhh``bk````ooohohohhhhhhhh",
"hhhhhhhhhhhhhhhhhhhhhhhhhh`````ohhhhhhhhhhhhhhhh"
};
