/* XPM */
static char *noname[] = {
/* width height ncolors chars_per_pixel */
"48 48 16 1",
/* colors */
"` c #000000",
"a c #FFE779",
"b c #878787",
"c c #FFAE00",
"d c #FF0000",
"e c #FF6F6C",
"f c None",
"g c #4ABD40",
"h c #8597FF",
"i c #B72828",
"j c #5C5C5C",
"k c #5278BF",
"l c #FFFFFF",
"m c #D3D3D3",
"n c #C1C1C1",
"o c #0000FF",
/* pixels */
"ffffffffffffffffffffffffffffffffffffffffffffffff",
"ffffffffffffffffffffffffffffffffffffffffffffffff",
"fffjjjjjjjjjjjjjjjjjjjjjjjjjjjjjjjjjjjjjjjjjjfff",
"fffjllllllllllllllllllllllllllllllllllllllll``ff",
"fffjl``````````llllj````jl`lll`````````lllll```f",
"fffjmjjll`jlljjlll``jllj`j`llljjllllg`jlllll```f",
"fffjl`lll`jmll`ll`jjlllll`jlll`lllll`jmlllll```f",
"fffjlllllj`llllljj`lllllll`llllllllj``llllll```f",
"fffjlllll`jlllll``llllllllllllllll``glllllll```f",
"fffjlllll``lllllj`llllllllllllllljj`jlllllll```f",
"fffjlllll`glllll`jllllll``j`lllll``jmlllllll```f",
"fffjlllllj`lllll``lllllllj`lllll`j`lllllllll```f",
"fffjmllll``lllll`glllllll`jllll`j`llllllllll```f",
"fffjlllllj`lllllj``llllll``llljj`jllllllllll```f",
"fffjlllll`jllllll`jjlllll`glll``glllll`lllll```f",
"fffjlllll``lllllll```jl`j`jll`j`mllllj`lllll```f",
"fffjllll`j`jmlllllllj``jjllll`j`j``j`j`lllll```f",
"fffjllllllllllllmmmmllllmlllllllllllllllammm```f",
"fffjmlllllllllllamaaelllllllllllllllllleamam```f",
"fffjlllllllllllllmmeaelcllllllllllllclcaeaml```f",
"fffjlllllllllllllleaeccdlllllllllllliceecell```f",
"fffjlolllllollllllleccdcllllmajnllllcdccelll```f",
"fffjlokokokollllllllcdcdnbibejibijlldcdcllll```f",
"fffjllkolllllllllllcdciceajjcbcgijjlcicdclll```f",
"fffjmlllkollllllllll`eabbebcjjij`ijijjllllll```f",
"fffjllllllkollllllll`jbebcbij`jjigjjjijlllll```f",
"fffjlllloollllllllll`jibabjjicbijiigi`j`llll```f",
"fffjllkollllllllllll`jjjjjicbjigijb`````llll```f",
"fffjlokokokollllllll`ijj`cbbicjigi`j````llll```f",
"fffjlolllllollllllll`jji`jibcbjj`j```j``llll```f",
"fffjllllllllllllllll`jjj`jjcbij`j``j```jllll```f",
"fffjllkolokllllllllljjijigijb`i`jj`i`j``llll```f",
"fffjmolokolollllllll`igi`jigejj`i```j``jllll```f",
"fffjlollkllolllllllll`jjjigib`jj`j`j`j``llll```f",
"fffjlollkllollllllllllij`cjcjij`jj``j`i`llll```f",
"fffjlollollollllllllllmijjbijjjjji``j``lllll```f",
"fffjlokohokolllllllcdcci`cjcbi`i`j``cdccdlll```f",
"fffjlolllllollllllllccdcljibjjjjjj`jdccdllll```f",
"fffjlllllllllllllllecdcdll`cbij`j`llcdceclll```f",
"fffjlolllllollllllaececclll`ijj`lllldccecell```f",
"fffjlokokokollllleaeecldllll``llllllclecaaml```f",
"fffjlolllllollllmmmaalllllllllllllllllleamam```f",
"fffjllllllllllllmammllllllllllllllllllllemmm```f",
"fffj```````````````````````````````````````````f",
"ffff```````````````````````````````````````````f",
"fffff``````````````````````````````````````````f",
"ffffffffffffffffffffffffffffffffffffffffffffffff",
"ffffffffffffffffffffffffffffffffffffffffffffffff"
};
