/* XPM */
static char *noname[] = {
/* width height ncolors chars_per_pixel */
"48 48 7 1",
/* colors */
"` c #000000",
"a c #878787",
"b c None",
"c c #5C5C5C",
"d c #FFFFFF",
"e c #D3D3D3",
"f c #C1C1C1",
/* pixels */
"bbbbbbbbbbbbbbbbbbbbbbbbbbbbbbbbbbbbbbbbbbbbbbbb",
"bbbbbbbbbbbbbbbbbbbbbbbbbbbbbbbbbbbbbbbbbbbbbbbb",
"bbbccccccccccccccccccccccccccccccccccccccccccbbb",
"bbbcdedeedeedeedeedeedeedeedeedeedeedeedeede``bb",
"bbbcededdeddeddeddeddeddeddeddeddeddeddedded```b",
"bbbcdeddeddeddeddeddeddeddeddeddeddeddeddedd```b",
"bbbceddeddeddeddeddeddeddeddeddeddeddeddedde```b",
"bbbcededdeddeddeddeddeddeddeddeddeddeddedded```b",
"bbbcdedc`d`cccedcedea`````cededcceccccededde```b",
"bbbceddedededededef``cfac```adededdedededded```b",
"bbbcedecccc`ccddef`cdededa```feddededdddedde```b",
"bbbcdeddededededec`dededddc```ddededdedededd```b",
"bbbceddccccceccdd``cddcceda```cedcc`cccccced```b",
"bbbcddedeededdede```edededd````ddededeededed```b",
"bbbceededdcc`cced```deccced````deccdecdeddde```b",
"bbbcddddededededdc`ceddeded````eddeddeddeded```b",
"bbbceedc`cc`ccc`ededdecdcde```cdecceccccedde```b",
"bbbcddedededededdeddeddedef```deddeddedededd```b",
"bbbceddccecccecccccc`cccedc``ceddeddedddeded```b",
"bbbcedeeddededdededededede```eddeddedededddd```b",
"bbbcedd`ccccccecdedcceddda``fdeccceccccceded```b",
"bbbcdedededededdedededded``cdededededededded```b",
"bbbcedd`ceccc`ce`ccccceda``edcccccccceddedde```b",
"bbbcdededdedededdedededd``addededededdededed```b",
"bbbceddccc`ccccccccccede``ddc`ccecc`dcc`ccde```b",
"bbbcedeededededeedededef`adedededdededededed```b",
"bbbcdedccc`ccccccedccdd``ddeddeddeddeddeddde```b",
"bbbceddedededededdedeed`adeddeddeddededdeded```b",
"bbbcededdeddeccecc`ccde`ddecc`cededddededdde```b",
"bbbcddddeddeddeddedededdeddededdeddededddedd```b",
"bbbceedcc`cccc`cceccdededdecc`ccccedcccedede```b",
"bbbcddedededeededdededdddeddedededededededdd```b",
"bbbcede``ccecccccc`dda```adeddeddeddedddeded```b",
"bbbcdeddededddedeeded`````ddeddeddeddededded```b",
"bbbceddcccdc`cccdcced`````dededdeddeddeddedd```b",
"bbbcededededededededd`````dedddeddeddeddeded```b",
"bbbcededededdcc`cecdea```addcccec`ccccceddde```b",
"bbbcdddeddddeededddedddddddedeeddedeedededed```b",
"bbbceed`dcc`ccc`ccccedededeccdccceccc`cccedd```b",
"bbbcddedeededededeededdededdedededdedededded```b",
"bbbcedddddeddeddeddeddeddededededdedddededde```b",
"bbbcedeededdeddeddeddeddedddeddddedededddded```b",
"bbbcedddededdeddeddeddeddededededddeddededde```b",
"bbbc```````````````````````````````````````````b",
"bbbb```````````````````````````````````````````b",
"bbbbb``````````````````````````````````````````b",
"bbbbbbbbbbbbbbbbbbbbbbbbbbbbbbbbbbbbbbbbbbbbbbbb",
"bbbbbbbbbbbbbbbbbbbbbbbbbbbbbbbbbbbbbbbbbbbbbbbb"
};
