/* XPM */
static char *noname[] = {
/* width height ncolors chars_per_pixel */
"48 48 15 1",
/* colors */
"` c #000000",
"a c #FFE779",
"b c #878787",
"c c #00FF00",
"d c #FFAE00",
"e c #FF6F6C",
"f c None",
"g c #4ABD40",
"h c #8597FF",
"i c #B72828",
"j c #5C5C5C",
"k c #5278BF",
"l c #FFFFFF",
"m c #D3D3D3",
"n c #C1C1C1",
/* pixels */
"ffffffffffffffffffffffffffffffffffffffffffffffff",
"ffffffffffffffffffffffffffffffffjnebffffffffffff",
"ffffffffffffffffffffffffffffffjmababjeffffffffff",
"ffffffffffffffffffffffffffffjnabebbebjffffffffff",
"ffffffffffffffffffffffffffjmanbnbababjnfffffffff",
"ffffffffffffffffffffffffjanenibebbeba`ffffffffff",
"ffffffffffffffffffffffjmanbbbjbbbebnbjnfffffffff",
"ffffffffffffffffnmnbb`abebbijdbbdbabe`ffffffffff",
"ffffffffffffffffmbjamn`bbjibbbbebbbba`ffffffffff",
"fffffffffffffffnjanenajijibgebdbbebdbjffffffffff",
"ffffffffffffffjmanbbbjbjjbibbbbbabbbb`nfffffffff",
"ffffffffffffjambejejibe`jdbbbdbejjdbej`fffffffff",
"ffffffffffjnabnbbjjjibbjbbbibbjbdbbbij`mffffffff",
"fffffffnjnanbebijibibba`bibdbmijbibdbejfffffffff",
"ffffffjmabebbjjjjbjbjibjibjbm`j`jbbblmnlffffffff",
"ffffjnabebbjijijiijibba`jbimijjj`jdblijbifffffff",
"fffnabbbbjijjjjjgbjigimjiglj`jjb`ijbabninfffffff",
"ffimnbebijjjijijijigiba`jl`jjbbbjj`jjiibifffffff",
"fmm`jajjjijjjjjjjigijjmjmijjjblbbb`jijjjifffffff",
"fjj``jejigijijijijjjibamj`jbblmlebb`jjebjfffffff",
"fmj``jmjj`jjjjjjjjijjjl`jj````b````b``i`ifffffff",
"nni`ija`ijijijigijjibmj`jb``j`i`j``eb`jijfffffff",
"fmj`jjnjjj`jjjjij`gjlj`jbb````b````bbb`j`mffffff",
"nnj`ijni`jjijjijj`il`jjbbl``j`b`j``lbbjj`jffffff",
"fmj`jjajji`jjjjjjj`jjjiblm````i````llbbij`ifffff",
"nni`i`m`j`jij`ija`j`jbb`ll``j`b`j``lmjbbb`jjffff",
"fmj`bjaj`ij`jjjjm``jb`lnjmllmllmlmlmjnmbbb``jnff",
"fajjijm`ij`jji`g`gg`bllmjnmlmlmlmllbjmllbebj`jff",
"fm``bjejj`ji`jlj```g`lmlbjmllmlllmljblmllbb``jif",
"fmijb`ajjij`jjj`g`k``jnabnenbanbenninbanbabbi`jf",
"fmj`bijbj`ji`j`n````g`````j````j````j`````j````f",
"fni`bjje`ij`jj``g``j`jjijj``j```j``jjijjijj`ffff",
"fmj`a`jbjj`j`jgj`g`jjbbbjn``j`j`j``bjjjbjjjjffff",
"nnijbjije``jn```g``l``bljl``i`i`j``abmmljjbjffff",
"fmj`bi`j`jji`g`g`````l`lmb``j`j`i``mmnjbnjbjnfff",
"faj`n`jjji`g`jgjgjgg``njbl``ijjjj``mljlljjb`ffff",
"fmj`aji`jjjing`j``````nllb``jd`j```lbbjmnbl`ffff",
"fni`n`jij`ijjgj`j``j```bbl```j`ij``lbllbjlnjffff",
"fmj`mij`jjj``g`c```gb`g`nm``ji`jj``bnbljamj`ffff",
"faj`a`jjijijj``j```````bjm``jj``j``jlbbmnbbjffff",
"fmj`mji`jjjigg``g`g```lnlb``j`j`i```nbljj`ljhnff",
"fni`aj`jijjj````````g```jjjjijijjjjg```````jj`ff",
"fmj`mjij`j````g```g```gjj`jj`bgbnj```g``g````jff",
"nnj`nijjj`````jjg``jjgj`gjgjgnjnjjgjgjjgjjjgjg`f",
"fm``mj```````jjg``````j`g``jjjjbjbbjj`g`jjgjjjjf",
"f`jj`````````g`jjg`g`g`g`jjg`jjgjjg`gjjjg`j`g`jf",
"ff```````````jjj`jj`g`j`jg`bnnbjbffn`j`g`jg`jgj`",
"ffff````````j```j````j`````j````j``j`j`````j````"
};
