/* XPM */
static char *noname[] = {
/* width height ncolors chars_per_pixel */
"48 48 14 1",
/* colors */
"` c #000000",
"a c #FFE779",
"b c #878787",
"c c #FFAE00",
"d c #3012AA",
"e c #FF6F6C",
"f c None",
"g c #4ABD40",
"h c #B72828",
"i c #5C5C5C",
"j c #5278BF",
"k c #FFFFFF",
"l c #D3D3D3",
"m c #C1C1C1",
/* pixels */
"fffffffffffffffffffffffffffmillbmblfffffffffffff",
"fffffffffffffffffffffffmmmmlmbabebbfffffffffffff",
"ffffffffffffffffffffmmmmabebebbiiihbffffffffffff",
"fffffffffflklklklklkllkllkklklklllmlmiffffffffff",
"fffffffffffklklklklklkllklllllllallami``ffffffff",
"ffffffffffflkklklkllllllllllammmmmbfbh`````bffff",
"ffffffffmmbbklllllllllalmmmmmbmbbbbbi```iie`lfff",
"ffffmmmbbmbemllllmlmammmmmbmbbbbiiii```bebbiffff",
"ffflbbabebbbhmamammmmmmbbmbbbbiii`i`ibbegbe`ffff",
"fllmambbbbciilmmmmmbmbbmbbbiiii`i``bbhbbebb`ffff",
"lbhimmmbhiii`mbmbbmbbbbbiiii``i``bebhbbcbbciffff",
"b```hli`ii`h`ibmbmbbbjiiii``i``bebibbbbbibb`ffff",
"b````li``````ibbbbbiiii``i``ibeibhbciciebhb`lfff",
"b``i`li``i````bbiiii`i`ii`ibbhghibibhbbicbbiffff",
"bh``iai```h`iiiidi`i`i```bbhibhbhghbbhbhbic`ffff",
"miihil``i`ii``ii`i`i```bbhiihibiieibhbgbcbb`ffff",
"li`i`l`ih````i``i````ebhiihbihiciihghbhbibhiffff",
"mhihbli````ii``i``ibbiiiibighbiibhbbcbbhbeb`ffff",
"biimbah``ih``````beihiihihihbihbhghibhbcbib`lfff",
"fmlfmiii``````ibeiiiihiiiiiihghibhbbhbbibbhiffff",
"ffffli`hb`i``bbh`ih`iihihghghibhibhgeiciege`mfff",
"fffmmhi`e`i`bh`iiiiiiiiiiihibhiicbibhbibbhb`ffff",
"ffffli``bih`bihi`hihihihihiihghbihbhbihbhge`lfff",
"ffffmhi`b`i`bi`hiii`iiiiighbiighbighgbhgebiiffff",
"ffffmih`b`h`bh`i`hihiihihiihihbhihbbhbhbhgh`ffff",
"ffffa`i`bii`b`iiiii`iiiiihiiiiibibihbhgbbhbiffff",
"fffflbh`bh`ieih`hihihihiiihghihhghbhgehbhbb`lfff",
"ffffaii`iii`b`ii`ii`iiiiihiiihgibhgbhibicbe`ffff",
"fffflbh`bih`mihiihiihihihghihghihbhbcicibhb``fff",
"fffflbi`hii`a`i`ii`iiiiiiiiiihbibhghbibhbbbi``ff",
"fffffmh`ii`ibihihihi`hiihihiiihhghbhbhbbcih````f",
"ffffmmi`iii`e`i`i`ihiiiiiighghibhbibibcii``````f",
"fffffli`hbh`mihiihi`ih`hihihiiciihbchbi````````f",
"fffffaiiiiiibi`iiiiiiiiiiiiihiihbhiii``````````f",
"ffffflb`ibh`a`hi`h`hiihihihibhbicii```````````ff",
"ffffflbhibi`bi`iiiiiihiiihgihghii```````````ffff",
"fffffmm``bh`mhih`hiiiiihiihihii```````````ffffff",
"ffffffaiibi`ai`iiiihihiiihiii```````````ffffffff",
"ffffffmi`mh`mihihi`iiiihii````````````ffffffffff",
"ffffffmh`bi`mii`iiihiiii````````````ffffffffffff",
"ffffffli`ai`mhiihiiihi````````````ffffffffffffff",
"ffffffai`mi`mih`ih`i````````````ffffffffffffffff",
"ffffffmi`lh`liiiii````````````ffffffffffffffffff",
"ffffffmh`mi`a`ih````````````ffffffffffffffffffff",
"ffffffl``l``li````````````lfffffffffffffffffffff",
"fffffffff`ii````````````lfffffffffffffffffffffff",
"ffffffffff````````````lfffffffffffffffffffffffff",
"ffffffffffff````````lfffffffffffffffffffffffffff"
};
