/* XPM */
static char *noname[] = {
/* width height ncolors chars_per_pixel */
"48 48 18 1",
/* colors */
"` c #000000",
"a c #FFE779",
"b c #878787",
"c c #00FFFF",
"d c #FFAE00",
"e c #3012AA",
"f c #FF0000",
"g c #FF6F6C",
"h c None",
"i c #8597FF",
"j c #B72828",
"k c #5C5C5C",
"l c #5278BF",
"m c #FFFFFF",
"n c #FFFF00",
"o c #D3D3D3",
"p c #C1C1C1",
"q c #0000FF",
/* pixels */
"hhhhhhhhhhhhhhhhhhhbkbbkbkkbkhhhhhhhhhhhhhhhhhhh",
"hhhhhhhhhhhhhhhkbkbkmmmmmmmobkbhhhhhhhhhhhhhhhhh",
"hhhhhhhhhhhhhbkbbmmmmkbbbbommmpkbkhhhhhhhhhhhhhh",
"hhhhhhhhhhhkbkpmbkk`````k```kkboobbkhhhhhhhhhhhh",
"hhhhhhhhhhbbomb`````j`````j``````pob`bhhhhhhhhhh",
"hhhhhhhhbkpob````j```ellle`````k``kpkkkhhhhhhhhh",
"hhhhhhhkbpo```j`````elhhhlle`j````k`bmb`hhhhhhhh",
"hhhhhhkpob``````j`j`eliiilee```ej````kbb`hhhhhhh",
"hhhhhbkpk`j``kee``````ke`e``j`eecej``k`kb`hhhhhh",
"hhhhhkok````e`lee`j``j```j`j``lqii`j````o`hhhhhh",
"hhhhbobk```eeicqk`j`jebpbk``j``lihi````kkbkhhhhh",
"hhhkbb`````eciel`j```eiilej`j`k`liel``j`kkk`hhhh",
"hhbko``j`j`eeee`ke`j`eeeee``eekj``ee`````kkkhhhh",
"hhkpp````````k`kpl`jj`ek``j`elib`j`k``j``kkk`hhh",
"hbkpk``j``j`j`klile`jjkbgjj`kllice`j````j`kbb`hh",
"hbkkk`j``j```j`eeek`j`llej`jj`kee`j`j`j````kbkhh",
"hkbk```````j``j`jeekjjk`j`jjelj``j`j`````j`kbkhh",
"kkkkj```j`j`jj`j`llj`jjjjjj`ilejjj``j`j`j``kkk`h",
"bbkk``j``j``j`jjjjj`fjjjjjjjke`j`jjj`j`j````kb`h",
"kbb```j```j`j`j`j`jjjjjjjjjjjjjj`j`j``j``j``kkkh",
"bbk``j`j`j`j`jjjjjjjjjjjjjjjj`jjj`j`j``j``j`kkk`",
"bbj```j``j`j`j`j`jjjjjfjjfjjjjf`jjjj`j`j`````kb`",
"bbk`j```j``j`jjjjjjjjjddddfjjjjj`j`j`j``j`j`kkb`",
"bkk``j``j`j`jj`j`jjjjddaaddfjjjjjjjjj`j``j```kb`",
"bkk````j`j`j`jjjjjjjjddomadjjjjj`j`j`j`j``j`jkk`",
"kkk``j``j``jj`j`jjjjjdaamndfjjjjjjj`j`j`j````kb`",
"bkk````j`j`j`jjjjjjjjfddaadjjjj`j`jj``j``j```bb`",
"kkk``j``j``j`j`j`jjjjjdddfjjjjjjjjj`jj``j```kkb`",
"bkj```j``j`jj`jjjjjjjjjjjjjjjjj`j`j`j`j`j`j`kkkh",
"kkb`````j`j``jj`j`jjjjjjjjjjj`jjjj`j``j`````kb`h",
"kkb`j````j`j`j`jjjj`jjjjjjjjjjj`j`j`j`j`j``gbk`h",
"hkkj``j``j``j`j`j`jjjjjjjjjjj`jjjj`j`j`````bbk`h",
"hkkb`j`j``j`j`jj`jj`jj`jj`jjjj`j``j`j`j``j`bkkhh",
"hhkbk```j```j`j`j`jj`jjjjjjj`jj`jj`j`j``j`kbk`hh",
"hhkkb`````j`j`j`jj`jj`j`j`j`j`jj``j``j```jkkkhhh",
"hhhkkj`j`j`j```j`j`j`jjj`j`jj`j``j`j```j``kk`hhh",
"hhhkkb``````j`j``j`j`j`jj`j`j`j`j`j`j````gb`hhhh",
"hhhhkkkj````j``j`j`j`j`j`j`j`j`j`j```j``gok`hhhh",
"hhhhk`b`j`j```j`j``j``j`j`j`j``j``j````jkk`hhhhh",
"hhhhhkkkj````j```j`j`j`j``j``j``j```j``bkkhhhhhh",
"hhhhhhbkmj``j``j``j`j``j`j`j``j``j`j``bpkihhhhhh",
"hhhhhhhkkkb``j```j````j``j``j``j````bbb`hphhhhhh",
"hhhhhhhhhkkg```j````j```j``j``j````pbkkhhhhhhhhh",
"hhhhhhhhhh`bbb````j`j``j`````````jp```hhhhhhhhhh",
"hhhhhhhhhhhb`bbbk`````j``j``j`gpob``hhhhhhhhhhhh",
"hhhhhhhhhhhhh``bbgkj```j````joo```khhhhhhhhhhhhh",
"hhhhhhhhhhhhhhk``kbpbpbkbgbop```hhhhhhhhhhhhhhhh",
"hhhhhhhhhhhhhhhhhh```````````hhhhhhhhhhhhhhhhhhh"
};
