/* XPM */
static char *noname[] = {
/* width height ncolors chars_per_pixel */
"48 48 12 1",
/* colors */
"` c #000000",
"a c #FFE779",
"b c #878787",
"c c #FFAE00",
"d c #FF6F6C",
"e c None",
"f c #4ABD40",
"g c #B72828",
"h c #5C5C5C",
"i c #FFFFFF",
"j c #D3D3D3",
"k c #C1C1C1",
/* pixels */
"eeeeeeeeeeeeeeeeeeeeeeeeeeeeeeeeeeeeeeeeeeeeeeee",
"eeeeeeeeeeeeeeeeeeeeeeeeeeeeeeeeeeeeeeeeeeeeeeee",
"eeeeeeeeeeeeeeeeeeeeeeeeeeeeeeeeeeeeeeeeeeeeeeee",
"eeeeeeeeeeeeeeeeeeeeeeeeeeeeeeeeeeeeeeeeeeeeeeee",
"eeeeeeeeeeeeeeeeeeeeeeeeeeeeeeeeeeeeeeeeeeeeeeee",
"eeeeeeeeeeeeeeeeeeeeeeeeeeeeeeeeeeeeeeeeeeeeeeee",
"eeeeeeeeeeeeeeeeeeeeeeeeeeeeeeeeeeeeeeeeeeeeeeee",
"eeeeeeeeeeeeeeeeeeeeeeeeeeeeeeeeeeeeeeeeeeeeeeee",
"bbkdbdbdbbbbdbbbgbhhhhhhbbeeeeeeeeeeeeeeeeeeeeee",
"bgadaaaaaaadabdcadabgcbdgbbbeeeeeeeeeeeeeeeeeeee",
"khghgbgdbggbcdbadagdbhghgcdabkeeeeeeeeeeeeeeeeee",
"kbfhhghhghchghcdhh`hhgfghcbdadbbeeeeeeeeeeeeeeee",
"ejkkkkkbbbbbhhh```ghghghhgbcadbdbeeeeeeeeeeeeeee",
"eeeeeeekjkkkkb``hhchch`hgfddkacadbbeeeeeeeeeeeee",
"eeeeeeeeeeeeehghggbgh`ghghgcaakdadabbeeeeeeeeeee",
"eeeeeeeeeeeekh`hgfh``gfgfgbbdadacadadkeeeeeeeeee",
"eeeeeeeeeeeeehgghg`hgfgh`ghcbaadadaadakbkeeeeeee",
"eeeeeeeeeeeekh`h``hghdh`ghhgdaaaaakaadaaabeeeeee",
"eeeeeeeeeeeeekh`hghgfg`hhhgfddakaaaajaajadkeeeee",
"eeeeeeeeeeeeekhghgfgh`ghghghcbdajjajjajaaabkeeee",
"eeeeeeeeeeeeekbb`g```hhhghcbghgaaajaiaiajaaabeee",
"eeeeeeeeeeeekkbg`h`hg`ghhchg`hhdbdaaaiajaajakeee",
"eeeeeeeeeeeebghh`h`hhh`gcb`h`g`ghddaaaaajaaakdee",
"eeeeeeeeeeebhhghg``g`ghbdb````h`ghhadadaaaajabee",
"eeeeeeeeeeebg`h```hhh`gabh`h`h``h`gbdakdadaaajbe",
"eeeeeeeeeeeghh`hhgbbchhbah`g`h`g`h`ghadadbdaaabe",
"eeeeeeeeeeeh``gbbkkekdhgh```h`h`hgh`gadbghdaajde",
"eeeeeeeeeekbhbekjeeekkbh`g``g````h`ghhch`cbdaakb",
"eeeeeeeeeeekkkeeeeeeekkbgh`hhhhhhh`````hghgaajab",
"eeeeeeeeeeeeeeeeeeeeeeeekbhbkkkjkjb`h`gh`gbdaaah",
"eeeeeeeeeeeeeeeeeeeeeeeeekkeeeeeekjh`h`ghhgaajab",
"eeeeeeeeeeeeeeeeeeeeeeeeeeeeeeeeeekb`ghh`gbdaaah",
"eeeeeeeeeeeeeeeeeeeeeeeeeeeeeeeeeeebh`g`ghcbajab",
"eeeeeeeeeeeeeeeeeeeeeeeeeeeeeeeeeeej`ghhhhgaajah",
"eeeeeeeeeeeeeeeeeeeeeeeeeeeeeeeeeeeeh`hg`gadajdb",
"eeeeeeeeeeeeeeeeeeeeeeeeeeeeeeeeeeekhh`hhghaaabe",
"eeeeeeeeeeeeeeeeeeeeeeeeeeeeeeeeeeeebg`ghgcdkbbj",
"eeeeeeeeeeeeeeeeeeeeeeeeeeeeeeeeeeeekkhh`hhgbbee",
"eeeeeeeeeeeeeeeeeeeeeeeeeeeeeeeeeeeeeekkbbkkejee",
"eeeeeeeeeeeeeeeeeeeeeeeeeeeeeeeeeeeeeeeeekkeeeee",
"eeeeeeeeeeeeeeeeeeeeeeeeeeeeeeeeeeeeeeeeeeeeeeee",
"eeeeeeeeeeeeeeeeeeeeeeeeeeeeeeeeeeeeeeeeeeeeeeee",
"eeeeeeeeeeeeeeeeeeeeeeeeeeeeeeeeeeeeeeeeeeeeeeee",
"eeeeeeeeeeeeeeeeeeeeeeeeeeeeeeeeeeeeeeeeeeeeeeee",
"eeeeeeeeeeeeeeeeeeeeeeeeeeeeeeeeeeeeeeeeeeeeeeee",
"eeeeeeeeeeeeeeeeeeeeeeeeeeeeeeeeeeeeeeeeeeeeeeee",
"eeeeeeeeeeeeeeeeeeeeeeeeeeeeeeeeeeeeeeeeeeeeeeee",
"eeeeeeeeeeeeeeeeeeeeeeeeeeeeeeeeeeeeeeeeeeeeeeee"
};
