/* XPM */
static char *noname[] = {
/* width height ncolors chars_per_pixel */
"48 48 15 1",
/* colors */
"` c #000000",
"a c #FFE779",
"b c #878787",
"c c #00FFFF",
"d c #00FF00",
"e c #3012AA",
"f c None",
"g c #4ABD40",
"h c #8597FF",
"i c #B72828",
"j c #5C5C5C",
"k c #5278BF",
"l c #FFFFFF",
"m c #D3D3D3",
"n c #C1C1C1",
/* pixels */
"fffffffffffffffffnmmjjbfffffffffffffffffffffffff",
"fffffffffffffffnlmbj`j`jbfffffffffffffffffffffff",
"fffffffffffffnmmbj`jj`j``jbfffffffffffffffffffff",
"fffffffffffnmmb`j`jjbjj`ij`jbfffffffffffffffffff",
"fffffffffnmmjj`jjbbbbbbj``j``jjfffffffffffffffff",
"fffffffnmmb`j`bmlllllllhbjj`j`j`bfffffffffffffff",
"fffffnmmjj`jblllllllllllllbjj`j`j`bfffffffffffff",
"fffnlnb`j`blbfbfnhbnhbfbfbfbbj`j`j`jffffffffffff",
"ffffj`j`jlllllllllllllllllllbljjj`bbffffffffffff",
"ffffmbbljlllllmnnnmnmnmnmjlllljlljfnffffffffffff",
"fffffflljffbfhnjjbjjjbjjmjhnhnjll`mffffffffgbfff",
"fffffflljlllllmjjkckckckmjlllljlljfffffbbbffffff",
"fffffflljlllllnjcknnnnmjfjlllljlliff`f`gbbfghfgf",
"fffffflljnhfbfmjnfjjjjejmjffbfjlmj`f``jjgf`fnbbb",
"fffffflljlllllnbkfj`ej`jfjlllljllj`g`g``gggffjbb",
"fffffflljlllllfjjjej`jjjmjlllljllj````g`g``g`ggg",
"fffffflljfbfhnnfnnnmmffnfjfhbfjlljn`g`df``gggbff",
"fffffflljllllljbjjbjjbjjbjlllljll`g````jg`j`nhgf",
"fffffflljllllllllllllllllllllljllj``g`g`gggjgfff",
"ffffnmfjjjjjjjjjjjjjjjjjjjjjjjjjjj```d````gbb`ff",
"ffnlmbjjejjejjejjejejejjejjejjejjjjj``j`g`gjfmff",
"mlnjjkjjjjjjjjjjjjj`jjjjjjjjjjjjjkjjjjj`bl`ggbff",
"lllllllllllllllllllllllmlllllllllmllmlllgm`gjggb",
"`jj`ij`ij`j`j`j`jj`jj`jj`jj`j`jj`ij`jj`j`gg`jg`b",
"mnnf`````````````````````j`j````j````j```g```dbb",
"fffljl`j`j`j`j`jj`j`j`j`j`l`j`j`jj``lj`g``gggbbf",
"ffljjljjbjjjjj`jjbjbjbjbjlji`b`jj```jj``g``jgbff",
"ffflimejk`j`jb`jjejjejjejjmjjb`eb```aj````ggjjgb",
"fffl`ljjl`ejejjjjjjjjjjjjbljjjbjj```lj``g````ggj",
"fffljlllljlllmelllllllljjlmjjjlejj``lj```gggggbf",
"fffljmbjjjlkjljjjjjjjjkjjlljjbljj```lj```d`jb`ff",
"fffmilllljmcjmjlllllllljelmjjjmjjjl`mj`g``ggffff",
"fffljmlllej`jljmllllllljjlljjkljj`l`lj```g`fffff",
"fffmjljjjjllllejbjjjbjjjjlmjjjlejj`llj``g`gggfff",
"fffljmllj`jej`jlllllllljellijjljj`lllj``j`gb`fff",
"fffmilllllllllllllllllljjlj`kjljk`lmjj``jfffmfff",
"fffljmjjjjjjjjjjjjjjjjbjjjljjjljjjllli``jnffffff",
"fflj`bllllllllllllllllljjl`jbjlejjll`j```fffffff",
"ffnljljjjjejjjjjjjjejjej`jljjjljjemllj``jnffffff",
"fffllllmlmlmlmlmmlmlmlmlllli``````jjlj`jjfffffff",
"fffllmmmmmnnbbbbbk```g`jjjl`bbbbjblmli`i``ffffff",
"ffflllbbgmlmgllb`jjgg`jjjjlj````j`ijmj`g`fffffff",
"ffflmj``j`bj`bgbb``jbj`j`jmjbbbjlllllj``jngbbfff",
"ffflmn`n`g`d`gbjjbgb`n`g`jli```ij`jjmj``j`jjjfff",
"ffflmbn```gjg`gjkg``g`d``jljjblllllmlj`jj``gf`ff",
"fffllb``gbgb`bbjj``g`g`gjjmj````j`ijli``j`ffffff",
"fff``j`g``j``j`j`j````````ljjllllllmlj``m``mffff",
"fffffff`llll`llllllljllnlljjllllbblljjmmfmffffff"
};
