/* XPM */
static char *noname[] = {
/* width height ncolors chars_per_pixel */
"42 48 14 1",
/* colors */
"` c #000000",
"a c #FFE779",
"b c #878787",
"c c #FFAE00",
"d c #3012AA",
"e c #FF00FF",
"f c #FF0000",
"g c #FF6F6C",
"h c #4ABD40",
"i c #B72828",
"j c #5C5C5C",
"k c #5278BF",
"l c #FFFF00",
"m c #C1C1C1",
/* pixels */
"fiififififififififififififififififififiifi",
"iii`ii`i`i`i`i`i`i`i`i`i`i`i`i`i`i`i`i`i`i",
"fij`d`jd`kjdkjdk```jjdjjjjjjjjdjdjdjjkjdj`",
"fi`dj`d`jdjkjjj```jdj`d`jdjdkdjj```jdj````",
"if`d`dj`dj``````j```````j`j``j`j``````````",
"fi`d`jdj```j```````jd`````````````````````",
"if`jd`jdj````````dj`jd```d````d```djdj````",
"ii`d`djk`k````d``````````j`d```````````d``",
"fij`jd`jk``d```jdjdd```j``j``j`d```jdj````",
"fi`d`jj`d````dj`d``j`j````j`k`````d```````",
"ifd`dj```kkj`jd`j``````d```d``j``d`j``````",
"fi`j``dk```d``j``````dj````jj````j````````",
"ii``dj```````jd````j```d```gjj`d`````d````",
"fid`d`k````````````````j`gabgj`j``j``j````",
"fi````dj``j`````j`d`j`jjgaggjgj`````dj````",
"iidjdj`d`````d`j``bb``ijcbccgbij``d```````",
"fi``d`k`````j`jj`jghgcacgagmgbj````````d``",
"fid``jj`j`d``ccg`aciacgacgcgj`j`jj`j``````",
"if`jdjj`j```cbjcbcjbcbcbgbl`jbj`d```````g`",
"iid``d`djj``jcjhgb`jibjbhjdjd`jdj```d``bj`",
"fi``jj`j`j`j``j`kjjjkjjjjjijjjj```````````",
"fi`d`d``jj`jjjj``j`jjijiiiiji`idd``````jj`",
"if`j`jjdhd`jcjcbcijiigibibgiijj`j``````ij`",
"fi``jd`jdjjjigcjgagigiiigididiid`j`d``j```",
"ifd`d``kjjj`gccilbciigigieigidij``````j`g`",
"fi`d`j`dhdhjicbcjgcgiigiibiiiji`d````i````",
"ii`jdj`jjjdhjiciclgcjijgigiejidj``jjijj```",
"fid``jd`djjdiicbcbchiai`iiigiiiibgiibji`i`",
"fi`dj`dj`hdh`igccbciciba`bj`jjbiijjiiji```",
"fij``djjk`djj````ijjbcibgcggggicbijjijj```",
"ii`dj`djdjjjj`jhchccijjijbgacgbgbiiji`````",
"if`d`dj`dhjj``jjccicj`ij``cggagjijji```ij`",
"fi``jd`jjj```j`hcbcccij`ibgcaggjiiib`d`ij`",
"fijd```jd```j```ccbchijjijjjjjjibji`j`ihc`",
"if``jdj``jjj``j``hcii```````cbciib`iijilc`",
"ii`d````d`k``j``i`cca``b``ibcggbk``i`hccj`",
"fid`j```jj``j```jj`ciccjgbcagbgj``bicchci`",
"fi`d``jd``d````j`ijjchigcacgcaijjijihgcic`",
"if```d```d```j`cijij`iccicgagj`j`ilhccjhi`",
"fijd`j``j`j````hihijj``hcblijj`jclccijicc`",
"if`d````d`````j`iihijj`jih```ijihcbihcchc`",
"fid````d`````iiijjiiji`ji`j`hijcchcicjcii`",
"if```d```j``jjhihihi`jijijiic`cchiihcihj``",
"fi```j````````ihiiihijih`i`jjblichicjcjij`",
"if``d``d````ji`i`hiijihii``icclhiihiiji`h`",
"fi`d````````hihihijhijijj`jjl`iijcihijjci`",
"ifd``d``````ijichiijjij``i`c`hihiihijjclc`",
"fi`j`````d``i``iihijihi``jhihijiihi`ihhch`"
};
