/* XPM */
static char *noname[] = {
/* width height ncolors chars_per_pixel */
"48 48 12 1",
/* colors */
"` c #000000",
"a c #FFE779",
"b c #878787",
"c c #FFAE00",
"d c #FF6F6C",
"e c None",
"f c #4ABD40",
"g c #B72828",
"h c #5C5C5C",
"i c #FFFF00",
"j c #D3D3D3",
"k c #C1C1C1",
/* pixels */
"eeeeeeeeeeeeeeeeeeeeeeeeeeeeeeeeeeeeeeeeeeeeeeee",
"eeeeeeeeeeeeeeeeeeeeeeeeeeeeeeeeeeeeeeeeeeeeeeee",
"eeeeeeeeeeeeeeeeeeeeeeeeeeeeeeeeeeeeeeeeeeeeeeee",
"eeeeeeeeeeeeeeeeeeeeeeeeeeeeeeeeeeeeeeeeeeeeeeee",
"eeeeeeeeeeeeeeeeeeeeeeeeeeeeeeeeeeeeeeeeeeeeeeee",
"eeeeeeeeeeeeeeeeeeeeeeeeeeeeeeeeeeeeeeeeeeeeeeee",
"eeeeeeeeeeeeeeeeeeeeeeeeeeeeeeeeeeeeeeeeeeeeeeee",
"eeeeeeeeeeeeeeeeeeeeeeeeeeeeeeeeeeeeeeeeeeeeeeee",
"eeeeeeeeeeeeeeeeeeeeehghghkeeeeeeeeeeeeeeeeeeeee",
"eeeeeeeeeeeeeeeeeeeeghgbgbdheeeeeeeeeeeeeeeeeeee",
"eeeeeeeeeeeeeeeeeee`hghchghddeeeeeeeeeeeeeeeeeee",
"eeeeeeeeeeeeeeeeekhghgeeekghbeeeeeeeeeeeeeeeeeee",
"eeeeeeeeeeeeeeeeee`ghkeeeehggkeehghgbgabdeeeeeee",
"eeeeeeeeeeeeeeeeekhhgeeeekhcbhhgghgbihajkeeeeeee",
"eeeeeeeeeeeeeeeeeeghgfgbgbghdghghcbdajdageeeeeee",
"eeeeeeeeeeej`hghghghdhchcfcgabghghgbdhghgbeeeeee",
"eeeeeeeeebghg`hghdhghdjcacahbgfghghcbghghghkeeee",
"eeeeghghgadbg`hgfghgfgkahdhgbdchgbghdbgfgbgbeeee",
"eeeehgaahchghhghdghcdhghghg`bghghghgabghgchdbkee",
"eed`hgbghghg`h`hchghhg`hhghhh`ghhh`hbabdbbakaeee",
"eebgh`ghghhh`hg`hghhghh````g`hh`ghgggbdbakjdaeee",
"ekghghh`h``h``h`gbg```hghhhhghghgfghbgadkakdkeee",
"eehghg`hh`h`h``h`hchhhh`gghghhghggagahgbadbddeee",
"ejghghgh`gh`hhhh`hghg`ghghhghghgfdbbghcbdbcbbeee",
"eehghh`hhhhghg`ghhghg`hg`ghghgbckabdbghgbgbgbkee",
"ekhg`hg`ghghghghg`hchhgfghghgfdbdbcbg`hagbgbgeee",
"eeghhghh`ghghgfghgghghgbcbcbgchgbgbdhhgbdhchdeee",
"ekhghh`hh`hcbcghghhghcbdkghghhgbgbghg`hgfgbgheee",
"eeg`hghg`hghghhgh`ghghgbghghgghghgfghgghcghcbkee",
"ekhhg`h`h`hghghgh`gfghghghghghghghgg`hcbgbghgeee",
"eeg`hhghh`hhghghh`hghghhhhghhghghghhghhghghghkee",
"ekhhg`h`h`h`hhghgh`hghhg`ghhghghhghghggfghghgeee",
"ee`ghhgh`hg`ghh`h`h`h`g`hh`ghghghghhghggfghghjee",
"ekhhg`h`gh`hhg`hghghghhhghgh`ghhhghghgbbggfgheee",
"eeg`hghh`hh`h`hg`hgh`hg`h`hghh`g`hhg`chghgghgjee",
"ekhhh`g`gh`ghhghhhghg`hhhgh`g`ghhg`hhghaghhgheee",
"ee``ghhh`hgh`h`g`ghghg`g`h`hhhh`ghhg`hghghhghkee",
"ekh`h`h`h`h`ghhhghgfghh`hhhhg`hgh`g`hgfgh`kkkeee",
"eekh`h`h`hgh`h`h`hgh`ghh`g`h`hh`hhh`h`gbkjeeeeee",
"eekkh`gh`ghgh`ghhgbghh`gh`hgh`gh`g`hkekkekeeeeee",
"eeeekh`h`hghhg`h`hch``h`hh``h`jkeejkeeeeeeeeeeee",
"eeeeej``hghg`hhgh`hghh`h`kjekeeeeeeeeeeeeeeeeeee",
"eeeeeejh`ghghh`h`hghkkkekeeeeeeeeeeeeeeeeeeeeeee",
"eeeeeeee`hgh`ghkkekkkeeeeeeeeeeeeeeeeeeeeeeeeeee",
"eeeeeeeeehhhkkkeeeeeeeeeeeeeeeeeeeeeeeeeeeeeeeee",
"eeeeeeeekkkkeeeeeeeeeeeeeeeeeeeeeeeeeeeeeeeeeeee",
"eeeeeeeeeeeeeeeeeeeeeeeeeeeeeeeeeeeeeeeeeeeeeeee",
"eeeeeeeeeeeeeeeeeeeeeeeeeeeeeeeeeeeeeeeeeeeeeeee"
};
