/* XPM */
static char *noname[] = {
/* width height ncolors chars_per_pixel */
"48 48 13 1",
/* colors */
"` c #000000",
"a c #FFE779",
"b c #878787",
"c c #3012AA",
"d c #FF6F6C",
"e c None",
"f c #4ABD40",
"g c #B72828",
"h c #5C5C5C",
"i c #5278BF",
"j c #FFFFFF",
"k c #D3D3D3",
"l c #C1C1C1",
/* pixels */
"eeeeeeeeeeeeeeh````````heeeeeeeeeeeeeeeeeeeeeeee",
"eeeeeeeeeeeeh``h`hhhhhh```eeeeeeeeeeeeeeeeeeeeee",
"eeeeeeeeeeh``hhhhh`hh`hhhh``eeeeeeeeeeeeeeeeeeee",
"eehhhhhhh```hh`hhhibfbbhfhh``hhhhhhhhhhhhhhheeee",
"eehkjkjkl`hhhbkjkjjjjjkjkjkh``kjkjkjkjkjkjk``eee",
"eehjjjjl`h`hkjjjjjjjkjjjjjjjj``jjjjjjjjjjjj``hee",
"eehkjjk``hhjjjjkjjkjjjjjjkjjjj`hkjjjkjjjjjj``hee",
"elhjjjb`hhkjjkjjjjjjjjjkjjjjjjj`hjkjjjjjkjj``hee",
"eehkjj`hhhkjjjjjkllbhhhhhalkjjjh`jjjjkjjjjj``hee",
"eehjjb``hhbhjjj`````h`````h`hhbh``chcjjjkjj``hee",
"eehkjh`hhjjjj```hhhhhhhhhhhhhhbe``jkjjkjjjj`hhle",
"eehjj``hhbhe````h```````````h`hhh`hjjjjjjjj``hee",
"eehkj`hhfkj`````hhhhhhhhhhhhhhhhh`hlkjjkjjj``hee",
"eehjj``hhb``````jkjkjkjkjkj`````````hchchjj``hee",
"eehkj`hhjhh````jjjjjjjjjjjjjkbhhh`hbjkjkjkj``hee",
"eehjj`hhh````jjjjjjjkjjjjjkjjjb````hcjjjjjj``hee",
"eehkj``hhhh`jjjkjjkjjjkjjjjjkjjhh``hljjjjjj``hle",
"eehjj`hh````jjjjjjj```jjj```jjjhh`h``chjkjj``hee",
"eehkjh`hhhhjjkjjkj`````j`````jjb```hbjkjjjj`hhee",
"eehjjb``h`jkjjjjj``jjj`j`jjj`jjh``hhbjjjjjj``hee",
"eehkjj`hhhkjjjkjj``jjjjj`jjjjjb``hhhhkjjkjj``hle",
"eehjjj``h`jjjj`jjj`jjj`j`jjj`jh``````chjjjj``hee",
"eehkjjjh`bjjj```jj`````j`````b``hhjhhkjkjjj``hee",
"elhjjjc```jjjj`jjjj```jjj```b``h`hb`hjjjjjj``hee",
"eehkjjjjh`hbjjjjjjjjjjjjjjjb```hhkhhbjjjkjj``hee",
"eehjjkchc```hkjjkjkjjjjjjbh``lh`hb`h`chchjj``hee",
"eehkjjjkjbh``hbjjjjjkjkblh```hbh`jhhkjkjkjj``hee",
"eehjjj`h`h`h```hhlblbhh````h``hbh``hjjjjjjj``hee",
"eehkjjjjjjbh`h```````````hhhh``hbh`lkjjjjjj``hee",
"ebhjjjjkjjjh``hh`h`hh`hhhh``````hjd`jjjjkjj``hee",
"eehkjjjjjjjjhhhblhhhhhhbljjjjlh`hljdhkjjjjj``hee",
"eehjjj`chc`ch```hhc`c`chcch``````hakd`jjkjj``hee",
"eehkjjjjkjjjkjhhh`bkjjjkjbhhhhhhh`hljdhkjjj``hee",
"eehjjj````j```````hhh```hhhhhhh`hh`hakd`jjj``hee",
"eehkjjjjjjjjjjjjjbhhhhhhh`h`blkhhhh`hajdhkj``hee",
"eehjjjchcjchchcjchc```h``bljjjjjh`hh`hajghj``hee",
"eehkjjkjkjkjkjkjjkjjjjjjjjjjjkjjjhh`h`hljd```hee",
"elhjjjjjjjjjchchkhchchckhchchcj`ch`````hajdh`hee",
"eehkjkjjjjkjkjkjjjkjkjkjjkkjkjjjjkjhhhh`hdjd`hle",
"eehjjj`kchhchhchchchchchcj``j```jchc`````hlaj`ee",
"eehkjjjjjkjkjkjkkjkkjkjkjjjjjjjjjjkjjhhhh`hkh`ee",
"ebhjjjjjjjjjjjjjjjjjjjjjjjjjjjjjjjjjkjh`hh````ee",
"eehkjkjjkjjjjjjjjjjjjjjkjjkjjkjjkjjjjjjhhhh`hhee",
"eehjjjjjjjjjkjjkjjkjjkjjjjjjjjjjjjjkjjjkh`h```ee",
"eeh```````````````````````````````````````````ke",
"eeb``h```h```h``h`````````````````````````````ee",
"eebbhhhhhhhhhhhhhhhhhhhhhhhhhhhhhhhhhhhhhhh```ke",
"eeeeeeleleleleleleeeeeeeeeeeeeeeeeeeeeeeeeeekeee"
};
