/* XPM */
static char *noname[] = {
/* width height ncolors chars_per_pixel */
"48 48 11 1",
/* colors */
"` c #000000",
"a c #00FF00",
"b c #FFAE00",
"c c #3012AA",
"d c #FF00FF",
"e c #FF0000",
"f c None",
"g c #4ABD40",
"h c #B72828",
"i c #5C5C5C",
"j c #FFFF00",
/* pixels */
"fffffffffffffffffffffffffffff```ffffffffffffffff",
"fffffffffffffffffffffffffff`````ffffffffffffffff",
"fffffffffffffffffffffffff````````fffffffffffffff",
"fffffffffffffffffffffff``````````fffffffffffffff",
"fffffffffffffffffffff```ibbjbg````ffffffffffffff",
"fffffffffffffffffff````gbggigbjh``ffffffffffffff",
"fffffffffffffffff`````ibi`````bji``fffffffffffff",
"ffffffffffffffff``````jb`````gjbg``fffffffffffff",
"ffffffffffffff````h```j````bjbi`````ffffffffffff",
"ffffffffffff`````he``hji`gjbg```bi``ffffffffffff",
"ffffffffff````````hh`gbgbjb````ij````fffffffffff",
"ffffffff``````````ihh`jbg```````ji```fffffffffff",
"fffffff````````````he`bj```````jb`````ffffffffff",
"fffffff``hhh````````hh`bjh````jb```i``ffffffffff",
"fffffff```heheh`h```he`ijjjbbjbi`iddh``fffffffff",
"ffffff````hhhhbhehhhhhh``ghggi`chdd`````ffffffff",
"ffffff`````eh```hhhhheh``````hcdd```````ffffffff",
"ffffff`````heh``````iheh````hddhd````````fffffff",
"ffffff``````hh````````````dddi`cd````````fffffff",
"ffffff``````heh`````````g``h````hd````````ffffff",
"ffffff```````hh````````ga```````cd````````ffffff",
"fffff````````heh```````ga````````dd````````fffff",
"fffff`````````hh```````ag````````hdi```````fffff",
"fffff``````````````````a``````````hd```````fffff",
"fffff``````````gag````ga``````````cdh``````fffff",
"fffff```````````gaaga`ag```````````dh``````fffff",
"fffff``````````````gagagg``````````````````fffff",
"fffff````````````````gagaaaag`````````````ffffff",
"ffffff````````````````a``iggaa````````````ffffff",
"ffffff```````````````ag``````i````````````ffffff",
"fffffff``````````````a```````````````````fffffff",
"fffffff`````````````gg```````````````````fffffff",
"ffffffff````````````aa```````````````````fffffff",
"ffffffff````````````gg``````````````````ffffffff",
"fffffffff```````````````````````````````ffffffff",
"fffffffff``````````````````````````````fffffffff",
"ffffffffff`````````````````````````````fffffffff",
"ffffffffff```````````````````````````fffffffffff",
"fffffffffff````````````````````````fffffffffffff",
"fffffffffff```````````````````````ffffffffffffff",
"ffffffffffff````````````````````ffffffffffffffff",
"ffffffffffff``````````````````ffffffffffffffffff",
"fffffffffffff```````````````ffffffffffffffffffff",
"fffffffffffff`````````````ffffffffffffffffffffff",
"ffffffffffffff``````````ffffffffffffffffffffffff",
"fffffffffffffff```````ffffffffffffffffffffffffff",
"fffffffffffffff`````ffffffffffffffffffffffffffff",
"ffffffffffffffff``ffffffffffffffffffffffffffffff"
};
