/* XPM */
static char *noname[] = {
/* width height ncolors chars_per_pixel */
"45 45 14 1",
/* colors */
"` c #000000",
"a c #878787",
"b c #00FF00",
"c c #FFAE00",
"d c #3012AA",
"e c #FF00FF",
"f c #FF0000",
"g c #4ABD40",
"h c #B72828",
"i c #5C5C5C",
"j c #FFFFFF",
"k c #FFFF00",
"l c #D3D3D3",
"m c #C1C1C1",
/* pixels */
"mmammammammammammammammammammammammammammamma",
"a````````````````````````````````````````````",
"m`mamamamamamamamamamamamaamamaamaamaamaamajj",
"m`ajjjjjjjjjjjjjjjjjjjjjjjjjjljjljjljjljjljlj",
"m`mjjjjjjjjjjjljjjljljjljljljjljjljjljlljlljj",
"m`ajjjjjjjjjljjjljjjjljljjljjljljljljljljljlj",
"m`mjjjjljjljjjjjjjljjjjjjllalljljjljljljljljj",
"a`ajjjjjjjjjjjjljjjljljjli``amljjljljljljljlj",
"m`mjjjjjjjljjljjljjjjjla````iamlljljljljljljj",
"m`ajljjjljjjjjjjjjjlja`ckkkh`amlljljljljlljlj",
"m`mjjjjjjjljjljjljja``cg``ikg`amljljljlljljlj",
"a`ajjjjljjjjjjljjm```ik```ckc`aamlljljljljljj",
"m`mjjljjjljjljjm``hh`hc`kkg`i``amlljlljljlljj",
"m`ajjjjjjjjjjmi````fhgkkgh``kh`aamlljljljljlj",
"m`mjljjljjlli``````hhikh````k```ammljljlljljj",
"a`ajjjjjjjja`hh`````fhgkh`ikc`iiiamlljljlljlj",
"m`mjljjljjjaihffchh`hf`ikkkhiee``ammljlljljlj",
"m`ajjjjjjljii`hh`hfcfhh````eed```iamlljljlljj",
"m`mljjljjjjiiihf````ihh``eede`````aallljljllj",
"a`ajjjjjjjl`ii`fh``````ihd``he````iamlljllljj",
"m`mjljjljlmiiii`f`````gb````de`````aamlljljlj",
"m`ajjjjjjja``ia`hh````gg`````ee````iamllllljj",
"m`mjljljjjiii`ai`g````b```````e`````aamljljlj",
"a`ajjjjjlj`i``ii`bbbggb```````de``iiaamlllljj",
"m`mljjljjji`i`iii``ibbgbg```````ii`iiaalljljj",
"m`ajjjjljlm`````i````bgggbb```iiii`aaamllljlj",
"m`mjljjjjjli`i`iii```b````g`iii```iiaaallljlj",
"a`aljjljljla`````i``ib`````iii`i``aiaamljlljj",
"m`mjljjjljjli``i`ii`bg``iii``````iiaaalllljlj",
"m`ajjljljjjlm`````i`g`i`ii`i`i```iiaamlljlljj",
"m`mljjjjljljli`````i`iii`i```````aiaamlllljlj",
"a`ajjljljjljja``i``iii`i`i`i`i`iaiaammlljlljj",
"m`ajjjljjljjlji`````iii`i`````iaiaaamlllljljj",
"m`mjjljjljjljlm````iii`i````aaaaaaamllljlljlj",
"m`ajljjljljjljla```i`i```iiaaaammmlllllllljlj",
"a`mljjljjjljljlm```ii`i`iaaaammmmllllljljljlj",
"m`ajjljljljljljla`i```iaammmllllllljljllllljj",
"m`ajljljjljjljjlm``iiaaammmllllmaaamamlmaljlj",
"m`mljjjljjljljljlaiaammllllljljljajjaalaajljj",
"a`ajjljjlljljljljllmllllljljlllllajlajilajjlj",
"m`ajljljjjljjljljljlljjljlllljlllajlajajajljj",
"m`ajjljjljljlljljljljlljljljjlljlljlljljljjlj",
"m`jlljlljljljljljlljljljljljljljljljljljlljlj",
"a`jljljljlljljlljljljljljljlljljljljljljljljj",
"m`jjjjjjjjjjjjjjjjjjjjjjjjjjjjjjjjjjjjjjjjjjj"
};
