/* XPM */
static char *noname[] = {
/* width height ncolors chars_per_pixel */
"47 40 10 1",
/* colors */
"` c #000000",
"a c #878787",
"b c #3012AA",
"c c None",
"d c #4ABD40",
"e c #5C5C5C",
"f c #5278BF",
"g c #FFFFFF",
"h c #D3D3D3",
"i c #C1C1C1",
/* pixels */
"ccccccccccccccccccccccccccccccccccccccccccccccc",
"ccccccccccccccccccccccccccccccccccccccccccccccc",
"cccccccccccccccciaheeaaafee```````e`eee``e``ccc",
"cccccccccccccceiaaaef`e``````````e`eefe```e`ecc",
"ccccccccccccaaaaeee`e```````eeeeeeeefd````ee`cc",
"ccccccccchheifeeee`````ee`e````````fae``````e`c",
"ccccccccceaeeee```e`ee````e`eee`ee```e`````ee`c",
"ccccccccee````ee``````ecccccccccccc`ee`e`ee`ee`",
"cccccccci``````e`e``cccccccccccccccc```````````",
"ccccccceae``````e``ccccccccccccccccce``````````",
"cccccca`ce``````e`cccccccccccccccccce``````````",
"cccc````he```````eccicccccccccccccccc`````````e",
"cccc``cccee````e`fcc```ccccccccc```cccccaaaaacc",
"ccc`cechfeeeeee```cc```eee`ee`ee```cccccccccccc",
"cce``ceccaee``````ec```````````````cccccccccccc",
"cccc``accf`````````````````````````cccccccccccc",
"ce`ceccce```````a`h`````````````````ccccccccccc",
"c```cacc``````acc````````````````````eccccccccc",
"cec``cccc``ecccc``e````````````````````cccccccc",
"c`ec`ccccccccccehcacaiaicaaaaeaaeeee`e``ccccccc",
"ec```ccccccccccaiefeeecaaacifacae`eeee``ccccccc",
"ceca`cccccccccicafedfeceaaaaeeafeee`e`e`ccccccc",
"```c`ccccccccc`hadfeeeceeefdeeaee`eee`e`ecccccc",
"hch``cccccccccahefeefecdfeaeefeeeee`e`e``cccccc",
"c`ccccccccccccacefdfefee`efeeeeee`ebee```cccccc",
"c````ccccccccccaeeeeedafedfeedfeeee`e`ee`cccccc",
"cccceccccccccecafdfeefae`ee`eee`e`ee`e```accccc",
"c`e``ccccccccahdfaefeaaceaafeefafe`ee`ee``ccccc",
"c`ecaccccccccchfeefdefdeeedeeedeeee`ee`e``ccccc",
"c`ce``eccccceicedfeeeeee`e```e``e`e`e`e```ccccc",
"cca`cce```ee`iceeefeeeeficficace`ee`e`e```ccccc",
"ccccc`ci`ce`iggafeeeeeehhhghhhgee``e`e`ee`ccccc",
"ccce`ecc`ae`aghiaaacffaciiaiiacaafaaaeaace`cccc",
"ccccc``e`ee`cgca`e`e`ee``e``e``e`e`e`eeefe`cccc",
"cccccchec```ihce```````````````````````eaf`cccc",
"ccccccccccciagae```````````````````````ei```ccc",
"ccccccccccciigfe``````````````````````eefieaccc",
"ccccccccccceaca`````````````````````````da`cccc",
"cccccccccccheee```````````````````````eee``cccc",
"ccccccccccccci````````````````````````````hcccc"
};
