/* XPM */
static char *noname[] = {
/* width height ncolors chars_per_pixel */
"48 48 13 1",
/* colors */
"` c #000000",
"a c #878787",
"b c #00FFFF",
"c c #3012AA",
"d c #FF6F6C",
"e c None",
"f c #4ABD40",
"g c #8597FF",
"h c #B72828",
"i c #5C5C5C",
"j c #5278BF",
"k c #D3D3D3",
"l c #C1C1C1",
/* pixels */
"eeeeeeeeeeeeeeeeeeeeeeeeeeeeeeeeeeeeeeeeeeeeeeee",
"e``i``i``i`i``iee``i``i``i`i``iee``i``i``i`i``ie",
"e``````````````eei`````````````eei`````````````e",
"ei`iaiaaaiaii`iee``iaiaaaiaii`iee``iaiaaaiaiii`e",
"ei`ajiijijiii``eei`ijiijijiii``eei`ijiijijiii``k",
"ei`iiicacicaj`ieei`iciccicicj`ieei`iiacaicijj`ie",
"ei`acjaiaiaai`iei`jjjjjicjcic``aei`ajcaiaiaai``e",
"ei`iaiacaciji``cjgjjjjjjjjjjijci`i`iiacacciij`ie",
"ei`acacaijihj`jjgjjgjjjjjjijicici``aciaiagiai`ie",
"ei`iiiicdcjicjjejbjjjjjjjjjcjjiiic`caiaciicici`e",
"e``i````````gajgjejgjjjjjjjjcicci`i```````h````k",
"eii`ii`ii`igjjejgjgjejbjjjijfciicic``i`ii`i`ii`e",
"eeeee`````jjgbgbejgjjgjjjjjjcjcii``i```````eeeee",
"eeeeeii``jjgagajjebgjjjjjjjcjijicic`````i`ieeeee",
"eeeee`i`ijgjjjgggegaebajjjjjicici`i````i`iieeeee",
"ee``````cjjjebgabgeejgjjjjijjciii`c`c`````````ee",
"eeeekeeijejgjagegeeegjjjjjjicfcic`i`````aeeeeeee",
"ei``i`i`jjjjgbjgeeegbgjjijjcicic`i`````i``i`i`ie",
"e``````ijjgjajgggbegjjjjjciijic`i`c````````````e",
"ei`iaijjjjjjgjbjejgbjjjjjjjiici`ci`i````iaiaii`e",
"e``ajiicjbjjjgjjgjjjjjjiicciciii````````ciici``k",
"ei`iijcjjjjjjjjjjjjjjjjcjjfci`c`ci`````i`iiai`ie",
"ei`aciijjjjjjjjjjjjjjjcfciciic`i`````i``cijai`ie",
"ei`ijiicjjjjjjjjjjjjjijciciic`i```i``````icaj``e",
"ei`aiacjjjjjjjjjjijcicjicii`i`i```````i`ijiiii`e",
"ei`iiciicjjcjjjjcjjijiiiic`c`c``i```c``c`acac`ie",
"e`i`````jijfcjijijcicicic`i`c`````````i````i```e",
"ei`i`ii`icjcfcjcijiciiic`iii``i````i`i`c`i`i`i`e",
"eeeee```cijccfcjiciicic`i```i````````c`i```eeeee",
"eeeeeii``iijicicicicii`i`ic``````i`ci`i`i`ieeeee",
"eeeee`i`i`c`jicii`c`i`c`c``````````i`c`i`iieeeee",
"ee````````iicii`ciic`i`i```````i`icjjc````````ee",
"eeeekeeeea```i`c``i```````i``i``c`jji`leeeeekeee",
"e``i`i`i`i`ic`i`ic``i`i````````i`jjci`i```i`i`ie",
"ei``````````````````````````i`c`cjji````i``````e",
"e``iaiaijiaii``i``i```````i``i``ij`iiiaiiiaiii`e",
"ei`ajijijiiji`````````c`````c`ici``jjijijicai``k",
"ei`iicaiacjij`ii`````i```c`i``c`ii`iaciaijiij`ie",
"ei`aiciciaiji`igei``i``i`i`ic``kei`aiijcaicai`ie",
"ei`caiaiacaij``eei`icii`iciii`ieei`ijiiacaiia``e",
"ei`aicaciacdii`kei`giijijjici`ieei`acaicijaca`ie",
"ei`caiiiaijic`ieei`iaciiiijaii`eei`iiacdiacaci`e",
"e``i```````i```eei``````````i``ee`i```````````il",
"ei`i`ii`iii`ii`eei`iii`ii`i`i``ee`i`ii`i`iiii``e",
"eekee``````eeeeeeeeee``````eeeeeeeeee``````eeeee",
"eeeeei`i``ieeeeeeeeeea``i`ieeeeeeeeeea``i`ieeeee",
"eeeeei`i`iieeeeeeeeee`i`ii`keeeeeeeee`ii`i`eeeee",
"ee````````````eeee`````````i``eeee`i```````i``ee"
};
