/* XPM */
static char *noname[] = {
/* width height ncolors chars_per_pixel */
"48 48 8 1",
/* colors */
"` c #000000",
"a c #878787",
"b c #FF6F6C",
"c c None",
"d c #B72828",
"e c #5C5C5C",
"f c #D3D3D3",
"g c #C1C1C1",
/* pixels */
"cccccccccccccccccccccccccccccccccccccccccccccccc",
"cccccccccccccccccccccccccccccccccccccccccccccccc",
"cccccccccccccccccccccccccccccccccccccccccccccccc",
"cccccccccccccccccccccccccccccccccccccccccccccccc",
"cccccccccccccccccccccccccccccccccccccccccccccccc",
"cccccccccccccccccccccccccccccccccccccccccccccccc",
"cccccccccccccccccccccccccccccccccccccccccccccccc",
"cccccccccccccccccccccccccccccccccccccccccccccccc",
"ccccccccccccccccccccccc``eeaa`cccccccccccccccccc",
"ccccccccccccccccccccc``daaaagacccccccccccccccccc",
"cccccccccccccccccc`eeadddggffgcccccccccccccccccc",
"cccccccccccccccc`eaaaadddagga`cccccccccc```e`ccc",
"ccccccccccccccc`aeaaggfdddeaaaecc```e`eaagage`cc",
"cccccccccccccceeaaggggaaddddaaae`eeaaagaagaaga`c",
"cccccccccccccceagaggeeagaa`dd``e`dagagaagaagafec",
"cccccccccccccc``e````aaaaaee`eedddbagaagaggff`cc",
"ccccccccccccccccccf`eaaaee`e`aa`dddgfggafffgegcc",
"ccccccccccccccccce``aae`e`e`egffaddbfgffffg`cccc",
"cccccccccccccccccc`ee`eaae`e`ffffddagfgffg`ccccc",
"ccccccccccccccccc```eaaae``eefffffbdggfgg`cccccc",
"cccccccccccccccc`e`eegeaeeaeaffffffggfga`ccccccc",
"cccccccccccccccce`eegeeeaaaeafffffddgaaecccccccc",
"cccccccccccccc``eeaaeeeeaagggffffcdadaagcccccccc",
"cccccccccccccce`eaaeeeeeggggffffggdddaaaeccccccc",
"cccccccccccc``eeaeeeeeeagfgggfgaaaed`baaec```ccc",
"cccccccccccce`eaaeeeeeaeggfgggaaaaedddaaa`eeaa`c",
"ccccccccccc`eeaeeeeeeaaaggaaaaagagadedee`eaaaaac",
"cccccccccc``eaeeeeeaaaaaaaagaaaaaaaed`d`aaaaaage",
"ccccccccc`eaaeeeeaaeaaaecf`eeaagaaae``dddaaaggga",
"cccccccc`eaeeeeeaeaaaecccc```c``ee`eaedddeggggg`",
"ccccccc`eeeeeeeaaaaeccccc``fcc`e`eaaaaedddafg`cc",
"cccccc`eeeeeeaaaa`cgcccccccccc``aaaaaaaddddecccc",
"ccccc`eeeeeeaae`fcccccccccccc`eaaaaagggcddcccccc",
"cccc`eeeeeaae`fccccccccccccc`eaeaaagggga`ccccccc",
"cccceeeeeae`fcccccccccccccc`eaeaeaggga`ccccccccc",
"cccc`eeae`cccccccccccccccccceaaagggaecfccccccccc",
"ccccce`fcccccccccccccccccccc`eeee``fcccccccccccc",
"cccccccccccccccccccccccccccccccccfcccccccccccccc",
"cccccccccccccccccccccccccccccccccccccccccccccccc",
"cccccccccccccccccccccccccccccccccccccccccccccccc",
"cccccccccccccccccccccccccccccccccccccccccccccccc",
"cccccccccccccccccccccccccccccccccccccccccccccccc",
"cccccccccccccccccccccccccccccccccccccccccccccccc",
"cccccccccccccccccccccccccccccccccccccccccccccccc",
"cccccccccccccccccccccccccccccccccccccccccccccccc",
"cccccccccccccccccccccccccccccccccccccccccccccccc",
"cccccccccccccccccccccccccccccccccccccccccccccccc",
"cccccccccccccccccccccccccccccccccccccccccccccccc"
};
