/* XPM */
static char *noname[] = {
/* width height ncolors chars_per_pixel */
"48 48 13 1",
/* colors */
"` c #000000",
"a c #FFE779",
"b c #878787",
"c c #FFAE00",
"d c #FF0000",
"e c #FF6F6C",
"f c None",
"g c #4ABD40",
"h c #B72828",
"i c #5C5C5C",
"j c #FFFFFF",
"k c #D3D3D3",
"l c #C1C1C1",
/* pixels */
"ffffffffffffffffffffffffffffffffffffffffffffffff",
"ffffffffffffffffffffffffffffffffffffffffffffffff",
"ffffffffffffff```````````````````fffffffffffffff",
"ffffffffffffffhheheehhehhhehehhhhfffffffffffffff",
"ffffffffffffff`hbbbhhh`h`hhhhehb`lffffffffffffff",
"ffffffffffffffhelehh`hhhh```ebehhfffffffffffffff",
"ffff``````````hbhi`hhhhh`h```ehhh`h`h``h```fffff",
"ffff``ih`hh`hh`ehhhhhdhdhh`h``ehhh`h`hh`ih`fffff",
"fffff`iii`hi`h`ei`hddhhhh`h```hh`hhh`h`ih`kfffff",
"fffffk``bih`hhhe`hhdhhhhhh`h``hh`h`hhhhh`kffffff",
"fffffffihiihih`eh`hhhdhhh`h```hhh`hhihihffffffff",
"fffffffl`ihbhhhe`h`hh`hh`h````hhhhhehe`fffffffff",
"fffffffff`hbbe`bh`hh`hh`hh````hhh`hhehlfffffffff",
"ffffffffff`hbhhehh```h`h```h``he`hee`fffffffffff",
"fffffffffffhhi`ehe``h``h`````bhe`hhhlfffffffffff",
"fffffffffffl``hbeee```````h`heee`h`fffffffffffff",
"ffffffffffffkh`eeeheh`````hheheeh`kfffffffffffff",
"fffffffffffff`hebeeeheeheheheeee`hffffffffffffff",
"fffffffffffff``elebehhhhhhhehebeh`lfffffffffffff",
"fffffffffffffh`llehhhhhhhhh`beee`hffffffffffffff",
"ffff``````````hbelhhbcehhhihhhbhh``````````fffff",
"ffff`i`i`h`i`h`lh`icechachhh`hie``h`hhih`i`fffff",
"fffff`iiiiih`h`e`hcecaecihhhh`he``h`h`i`ii`kffff",
"ffffff``iiiiii`lh`hahcgechh``h`a``hiihib``ffffff",
"fffffff`iiiiih`a`hchcbchc`eh``he``bbhbih`kffffff",
"ffffffff`ibble`li`cghchc`ch`h``bh`ebbbi`ffffffff",
"fffffffff`ibel`l``hhcihic`h```he``elbi`fffffffff",
"ffffffffff`ibb`kbe``hghg`h`h`hbl``bbi`ffffffffff",
"fffffffffff``b`kel`ih`h`h````bbl``bi`kffffffffff",
"ffffffffffff```kkki``i`i````ikkl````ffffffffffff",
"fffffffffffff``kjkkkb`````bajkjk```fffffffffffff",
"ffffffffffffff`jkjkjbiiiiiljkjjk``ffffffffffffff",
"ffffffffffffff`kjklkb```g`bllkkk``ffffffffffffff",
"ffffffffffffff`klk`i`gbgg````llk``ffffffffffffff",
"ffffffffffffff`kkk`gajkgigii`all``ffffffffffffff",
"ffff```````````j``gkjkgkgig````l```````````fffff",
"ffff``i`i``i```l`gialajbg`gii``k````i`i`i``fffff",
"ffffk`iiii`i`i`k`ibkilgabgi````l``ii`iiii`ffffff",
"ffffff``biiiii`l`gickgkbgig`i``k``iiiiii`kffffff",
"fffffffliiibib`k`ibgbgeg`hg````k``biigiikfffffff",
"fffffffflibbbb`k``gibigigi`````k``bbbbilffffffff",
"ffffffffflibbb`kab`g`g`ig``g``bk``babiffffffffff",
"ffffffffffliba`kkk``g`g``````jjk``bbilffffffffff",
"ffffffffffflib`kkkb````i````bkjk``biffffffffffff",
"fffffffffffff``bjkkjb`````bkkjkk```lffffffffffff",
"ffffffffffffff````````````````````ffffffffffffff",
"ffffffffffffffffffffffkffkffffffffffffffffffffff",
"ffffffffffffffffffffffffffffffffffffffffffffffff"
};
