/* XPM */
static char *noname[] = {
/* width height ncolors chars_per_pixel */
"48 48 14 1",
/* colors */
"` c #000000",
"a c #FFE779",
"b c #878787",
"c c #FFAE00",
"d c #3012AA",
"e c #FF6F6C",
"f c None",
"g c #4ABD40",
"h c #B72828",
"i c #5C5C5C",
"j c #FFFFFF",
"k c #FFFF00",
"l c #D3D3D3",
"m c #C1C1C1",
/* pixels */
"ffffffffffffffffffffffmmbffffffffffffbbfffffffff",
"ffffffffffffffffffffmlbh`ifffffffffffhh`bfffffff",
"ffffffffffmlbbffffflmih`h`bffffffffffih`lfffffff",
"fffffffffllmlibffmmi`h`igh`bffffffffiiiiffffffff",
"ffffffffflbimbiiii`h`ihllbi`bfffffffii`bffffffff",
"fffffffffmbiiiiiiii`i`llllihibfffffbii`fffffffff",
"fffffffffflbiiii`i``i`illlli`ibffffmciifffffffff",
"fffffffffmmbiii`i``i`illmlllh`iffffaa`bfffffffff",
"fffffffmlbbi`i`i`i`iflmbmlllmi`imffai`lfffffffff",
"fffffmmbhbi`i`d``ifljbmllllmmmh`imba`bffffffffff",
"fffmmihihi`i`i``mlllljlllllllmbi`bac`mffffffffff",
"fmlihhihib`i``bjjljljlljllllllfih`aiifffffffffff",
"lahihiihmm``bjjljljlllfmljllllmmbha`imffffffffff",
"llihiialjjiljjljljljlmmmbllllfmmfkb`bfffffffffff",
"mjaihbjjjjjjlfjjjljfbmblfllflmmmmai`ibffffffffff",
"mmlgh`mjjljmlbmljllmlmfllbmlmlmmmc`h`iffffffffff",
"ffllhihmjjbbbmjjlbfmbjlmmmbflmlmab`bi`imffffffff",
"fffjahiijjjbjjlbllbmlllmbbmblmmfkhimb``iffffffff",
"fffmlbhiiljjmblflmmmmbbbmmmmblfab`mbmb``ifffffff",
"fffflagh`mjjlbmlmblmblfmmbbbbmfkb`mmmmih`iffffff",
"fffffllhi`ljjlfbmlmbblmbibbllmmahimbmbmi``bfffff",
"fffffmjcihiljjbmllbmfbmmblflbbab`bmmbmbbih`bffff",
"ffffffmjih`bjljbblblmbbbmfmblmahgmmmmbmbb``ibfff",
"ffffffflaih`bjjlbblmbbbllbmibma`immbmmmmmbh``fff",
"fffffffbja`hilljmfmbmllfmbbfbag`lmmmmbmbbbb``ibf",
"ffffffffmlah`ijljbblmlmbbmmbmahimbmmmmbmbmbh``if",
"fffffffffllih`bjljfljbfmmbblaa`blmmmbmbbmb``i`bf",
"fffffffffflaih`mjljbmbbmbbmlab`lmmmmbmbmb`i``bff",
"ffffffffffmlc`h`jljbbmmbmmfmaiimmmmmbmbb````blff",
"fffffffffffmjhi`ijljimmbmlmmcibmmmfbmmb``i`blfff",
"ffffffffffffllhi`bjlmibllllai`llmmlmbi````blffff",
"ffffffffffffmlcih`mjlfjlllfe`mfmmmbii````bffffff",
"fffffffffffffmlii`imljlllllbimmbii``````mmffffff",
"ffffffffffffffmahh`ijlljllmibi``iii``i`bffffffff",
"ffffffffffffffflm`h`bllllbb`iimmmi``h`bmffffffff",
"fffffffffffffffmlcii`fjllllllmfbi````bffffffffff",
"ffffffffffffffffllh`h`lllllmlmm```h`bfffffffffff",
"ffffffffffffffffflai`iijllllmm``h``bffffffffffff",
"fffffffffffffffffmlei``mlllfm``i``bfffffffffffff",
"ffffffffffffffffffmlhih`mllb``h``bffffffffffffff",
"fffffffffffffffffffla`i`ilb``i``bfffffffffffffff",
"fffffffffffffffffffbja`h````h``bmfffffffffffffff",
"ffffffffffffffffffffmle`i`h```bfffffffffffffffff",
"fffffffffffffffffffffllh`h`i`bffffffffffffffffff",
"fffffffffffffffffffffflai```bmffffffffffffffffff",
"fffffffffffffffffffffmmlbh`bmfffffffffffffffffff",
"fffffffffffffffffffffffml`bmffffffffffffffffffff",
"fffffffffffffffffffffffmlbffffffffffffffffffffff"
};
