/* XPM */
static char *noname[] = {
/* width height ncolors chars_per_pixel */
"48 48 7 1",
/* colors */
"` c #000000",
"a c #878787",
"b c None",
"c c #4ABD40",
"d c #5C5C5C",
"e c #D3D3D3",
"f c #C1C1C1",
/* pixels */
"bbbbbbbbbbbbbbbbbbbbbbbbbbbbbbbbbbbbbbbbbbbbbbbb",
"bbbbbbbbbbbbbbbbbbbbbbbbbfafeeebbbbbbbbbbbbbbbbb",
"bbbbbbbbbbbbbbbbbbbbbbbfadd`daffebbbbbbbbbbbbbbb",
"bbbbbbbbbbbbbbbbbbbbbfadd```ddaafeebbbbbbbbbbbbb",
"bbbbbbbbbbbbbbbbbbbffdd```ddaafaddfeebbbbbbbbbbb",
"bbbbbbbbbbbbbbbbbffdd```ddaafadd```dfeebbbbbbbbb",
"bbbbbbbbbbbbbbbffad``d`dddafad``````afeebbbbbbbb",
"bbbbbbbbbbbbbffad``d``dddaaa``````aaaffeebbbbbbb",
"bbbbbbbbbbbfaaa``d`ddaaaaad`````daaaafeffebbbbbb",
"bbbbbbbbbfafa`d``dadaaaad`````ddaaaaffffffbbbbbb",
"bbbbbbbbfaffaadaaaaaaaa``````ddaaaeeffafaabbbbbb",
"bbbbbbbafaaaaafaaaaaf``````ddaaaafefffaadabbbbbb",
"bbbbbbaffafaaaaaaffa`````daaaaafeeffaaaaaabbbbbb",
"bbbbbffffaaaafaaffddd```ddaaaafeffaaaadadabbbbbb",
"bbbbbfeeeffaaafffdaddddddaaafeefaaaaddaaaabbbbbb",
"bbbbfeefeeeeffffaadddddaaafeeeaaaadaaaaadabbbbbb",
"bbbbfeeeefeeeffaaaaaaaaffeeffaaaaaadaaaaaabbbbbb",
"bbbbeeeeeeeeeeeeffaaaffeeeffaaaaadcaaaaadabbbbbb",
"bbbbefeeeeeeeeeeefffeeeefffaaaacadaaaaacaabbbbbb",
"bbbbeeeeeeeffeeeeeffeeffafaaadadaaaaaadadabbbbbb",
"bbbbeeeeeeefeeefeeefffffaacdaaaaaafaaaaddabbbbbb",
"bbbbefeeeeefeeeeeffaafaaadaaaaaaaaaaaadadabbbbbb",
"bbbbeeeefeefefeeeeaafaaaaaaaaaafaaafaadadabbbbbb",
"bbbbeeeeeafaeeefeeaaaacdaaaaaaaaaaaaddaddddbbbbb",
"bbbbefeaad`daeffffcddaaaaaafaafaafaaacddd``bbbbb",
"bbbbeeed`d``dafffadaaaaaaaaaaaaaaaaadaaddddbbbbb",
"bbbbfffd``d`dafafaaaaaafaafaaaaaaaadadddddbbbbbb",
"bbbbefa``d``caffffaaaaaaaaaaaafaaadadaddddbbbbbb",
"bbbbfd`d``d`afafafaaafaaaaafaaaaaaadaddddbbbbbbb",
"bbbbfad`d``daaffffaaaaaaafaaaaaaacaddddd`bbbbbbb",
"bbbbfafdd`dafffafafaaafaaaaafaaaadaddd`dbbbbbbbb",
"bbbbfffffaafffafffaafaaaaaaaaaaadadddddbbbbbbbbb",
"bbbbfafaaaafafffafaaaaaafaafaaaaadddd`bbbbbbbbbb",
"bbbbfdd`aaaafffafffaafaaaaaddadddddddbbbbbbbbbbb",
"bbbbd``dddafafaffaaaaaaaaadaadaddd`dabbbbbbbbbbb",
"bbbb`d``aaaafffafffaaaaadadadddddddbbbbbbbbbbbbb",
"bbbba``d`adaaaffafaaaadadadadddd`dbbbbbbbbbbbbbb",
"bbbbd`d``dddaaaaffaaadadcdddddd`dbbbbbbbbbbbbbbb",
"bbbb````d``ddaaaaaaaadaddddddd`dbbbbbbbbbbbbbbbb",
"bbbb`ddc`````dddaaadadaddddd`dbbbbbbbbbbbbbbbbbb",
"bbbbb``aadd````ddddaddddddd`ebbbbbbbbbbbbbbbbbbb",
"bbbbbe```ddd`d````cdddddd`bbbbbbbbbbbbbbbbbbbbbb",
"bbbbbbbbd`dcd`d`d`adddd`bebbbbbbbbbbbbbbbbbbbbbb",
"bbbbbbbbbe``daa``````dbbbbbbbbbbbbbbbbbbbbbbbbbb",
"bbbbbbbbbbbed```eb```bbbbbbbbbbbbbbbbbbbbbbbbbbb",
"bbbbbbbbbbbbbbebbbb`bbbbbbbbbbbbbbbbbbbbbbbbbbbb",
"bbbbbbbbbbbbbbbbbbbbbbbbbbbbbbbbbbbbbbbbbbbbbbbb",
"bbbbbbbbbbbbbbbbbbbbbbbbbbbbbbbbbbbbbbbbbbbbbbbb"
};
