/* XPM */
static char *noname[] = {
/* width height ncolors chars_per_pixel */
"48 48 17 1",
/* colors */
"` c #000000",
"a c #FFE779",
"b c #878787",
"c c #00FFFF",
"d c #00FF00",
"e c #FFAE00",
"f c #FF6F6C",
"g c None",
"h c #4ABD40",
"i c #8597FF",
"j c #B72828",
"k c #5C5C5C",
"l c #5278BF",
"m c #FFFFFF",
"n c #FFFF00",
"o c #D3D3D3",
"p c #C1C1C1",
/* pixels */
"gomoomoomoooooopooppppppbkgggggggggggggggggggggg",
"gmoooooooopopppppppppbppkkbggggggggggggggggggggg",
"gmooopoppppppppppbppbppbkkkkbggggggggggggggggggg",
"gmopmomggglglilgiggligppkkkkkggggggggggggggggggg",
"goopmmmoglglglgllglgllppkkbkkggggggggggggggggggg",
"gmopomomolbcglgcgcibcgbpkkkkkggggggggggggggggggg",
"gmopggomopbklhlblglglgpbkkkkkggggggggggggggggggg",
"gmogggggoppk``k``kclglppkbkkkggggggggggggggggggg",
"goopgiggbpabkke`k`klglpbhkkkkggggggggggggggggggg",
"gmopggigbkkk`jjkhhkbclppkkkkkggggggggggggggggggg",
"gmopicbgglb`kk``h`kgggpbbkkkkggggggggggggggggggg",
"gmopgglhglg`kl`ek`ggggppkkbkkggggggggggggggggggg",
"goopglglkkk`llhnkkgiglpbhkkkkggggggggggggggggggg",
"gmopgcgill``k``e`lgcglppkkkkkggggggggggggggggggg",
"gmopggggggggblk`kloooooomomompoppoppppppppkkgggg",
"gmoolglgclgcgglklgmomomoooppppppppppppbpbbkkkggg",
"goopgicglglgllglggooppppppppppppppbpbbpbppkkbkbg",
"gmopclpligiglgcgclmopjjfefjfjjk```kbhbhbbbkkkkkg",
"gmooooooopppppppppoophfeffefej`k`kkhhphhppkkkkkg",
"gmooooooopppppppppmopjjfeffefk`k``hhphahpbkbkkkg",
"gppppppppppppppbpbmppjeffeffjj``k`khhphhpbkkkkkg",
"gggggpgggppppkkggooopjfefjefek`k`khhahphpbbkkkkg",
"gggggbpbbobbhkkkkkmopkjjjjjjjk```khphhphpbkkbkkg",
"gggbbppooppbbbkbbkmobk`k`k`k```k`khphphhbpkkkkkg",
"gbpppbpbpppbpbbbbboop``k````k`k```k`hhphpbkkkkkg",
"poooomooooooooppppmppk``k`k`k``k`k``k`khbpkkbkkg",
"opppppppppbppppbppoopkklkllk`k``k`k``k``pbkhkkkg",
"opghhhbppbpppbpbbbmobllllllkk`k`kkk`k``kbpkkkkkg",
"opphhhbpbppbppkbkkmppblblblk```kkeneek``pbkkbkgg",
"oppppbppppbppbppopmppbllgllkk`k`jhjeheekbpkkkggg",
"oppbppbpbppbppbpppoopllgcllk```kkjhjjhjebpkkkggg",
"pppppbpppbppbppbpbmpphglllkk`k`kenenaenepbkkkggg",
"bbbbbpbbpbpbpbbpbpoopggpppbbpbpbbbgbbbibbpkkgggg",
"gbkbkkkkkkkkkkkkkkmoppppppppppppbpbbpbpbpbkkgggg",
"gggggggggphkkgggggpbppbppbppppppbpbbbbbbbbbggggg",
"gggggggggpbk`ggggggggggggggpppbpbkgggggggggggggg",
"gggggggggpbbkggggggggggbpbpppbpkkkkkkbbbkbkbkbkb",
"gggggggggobk`ggggggggbpbpoppbpkbkbkbbbkkbhbbbbbk",
"gggggggggobbkggggggbppbppbpppppbpkbbbbbbbbbbkkkk",
"gggggggggobk`gggggpoooooomooppppbpbbbhbbkbkkkkkk",
"ggggggggneanaeegggppppopppppbppppbpppbpbpbpkkkkk",
"gooooopanannepopooopghdhppbppbpbpbbbbbbpbpbkkkkk",
"bbbbbbbeeeeebbbbbbopphhhbppbppppkbkkkkkbkbpkkkkk",
"gk`k`k`kkjkjk`k`k`oppgbgbpbppbpbppooooppppbkkkkk",
"ggggggpojkjkjk`oggoppbpppppbppppbppppppbpbbkkkkk",
"ggggggggppppppggggopbppbpbppbpbppbpbpbppbpbkbkkk",
"ggggggggggggggggggbpbbbpbbpbpbbpbpbpbpbbpbbkkkgg",
"gggggggggggggggggggkkbkkkkkkkkkkkkkkkkkkkkkkgggg"
};
