/* XPM */
static char *noname[] = {
/* width height ncolors chars_per_pixel */
"48 48 12 1",
/* colors */
"` c #000000",
"a c #FFE779",
"b c #878787",
"c c #FFAE00",
"d c #FF6F6C",
"e c None",
"f c #4ABD40",
"g c #B72828",
"h c #5C5C5C",
"i c #FFFFFF",
"j c #D3D3D3",
"k c #C1C1C1",
/* pixels */
"eeeeeeeeeeeeeeeeeeeeeeeeeeeeeeeeeeeeeeeeeeeeeeee",
"eekeeijijijjjjkkkkkbkbkbkbkbbbbbbbbbhhhhhhhhbeee",
"ekih````h`h`h`h`h`h`h`h`h`h`h`h``g``h`````````ee",
"eeh```h`h``h`h`h`h`h`h`h`h`h`h`h`h`h`h`h`h`````e",
"ee`h`h``h`h`h`h`h`h`h`hh`hh`h`h`h`h`h```h``h```j",
"ejh``bbbbbhhhhhh`hhh`hh`hh`hhh`hhhhhhbbkbbk``h`e",
"ej`h```h``````````````````````````````h``h``h``e",
"ejh`h`iiiiijjkdkdbghgg`ghgbgdbddgdgbgg`ggg`h```e",
"ej`hh`iiijjkkdkdbdbgh`ghg`ghgh`ghghggbg`gh``h``e",
"ejh`h`ijijjkkkdbdbgg`g```g````g`g``g`g`ghg`h```e",
"ejg`g`ijjjjkdkkdbdbhg```g``gggghggggg`gg`g``h``e",
"ei`hh`jijjjjjdbabdhg``gg`hg`g`hg`gh`hg``gg`h`h`e",
"ejhh``ijjjjdkkdbdbghg`h`g`ghghg`ghgggh`ghg`h`h`e",
"ej`hh`jjjjkjdkkdbdhg`g`g`h`````ghg`hg`gg`g``h``e",
"ejhhh`ijijkkkdkkdbgfg`g````h`g```hg`g`hggg`h`h`e",
"ejhhh`jijjkkkkdbdbgh`g``g`gh```````g`g`h`g``h``e",
"ejghh`ijijjkkakdbgghg`g``hgh`h`h````h`gggh`h`h`e",
"ejhhh`iiijjjkkdkbghghg`g`ghg````hg````g`gg``h``e",
"ejhhg`iiijjjdjkdbgcgghghg`g`ggh`g``g`g`ggg`h`h`e",
"ejhhh`ijiijjjkkbdbhhghggggggg`gg`gg`g`gghg`hh``e",
"ejhhh`iijjjjdkdbhdgdgcgbgfghghghgghgg`ghgg``h``e",
"ejhhh`jiijjkjdkdbdcbgbgdgdhgcgggghggghghgg`h`h`e",
"ejhhh`ijjjjkdkkdbgdbdcbgdgdgbgdchdggggghgg`hh``e",
"ejhhh`jijjkjkkdbddbghdgcbggdgdggggcbc`gggg`h`h`e",
"ejhhg`ijjjjkdkdkbddbdbdgdgbgdhdbddggdhggdg`h`h`e",
"ejhfh`jijjjjjjbabgbdhdgdbdcddggdggdbgggghg``h``e",
"ejhhh`ijijjjjakdbddhcgbdgdhgbdgdcbgdgghgdgh`h``e",
"ekhhh`iijijjkkdbdbgbgddgdgddgcdhdgdgdggghg`h`h`e",
"ejh`d`iiijjjjkdbdcbgbgdbddbddbgdgbgdhgghgh`h```e",
"ei`hh`iiiijjjdkabbghgdgcgdgdgdgdgdggdggggg``h``e",
"ejhhh`````````````````````````````````````h`h``e",
"ej`h`bbbbbbhhh`hh`hhh`hhh`hh`hhhhhfbbbbbkbbh```e",
"ej`h`hhhhhghhbhhhbhhhhhhhbhhbhh`hhh`hhh`h``````j",
"ejh``h`h`hhhhhhhhhhhhhhhhhhhhhhhh`h`h`h`h`h`h``e",
"ej`h`h`hhh`hhhhhghhhghghhhgh`h`hhh`hg``h```````e",
"ej`````````````````````````````````````````````e",
"eeeeeeeeeeeeeeb``````````````````keeeeeejejjjeje",
"eeeeeeeeeeeeeeek````````````````beeeeeeeeeeeeeee",
"eeeeeeeeeeeeeeeeb``````````````keeeeeeeeeeeeeeee",
"eeeeeeeeeeeeeeeek``h``h``h``h``beeeeeeeeeeeeeeee",
"eeeeeeeeeeeeeeejbh`h`h`hh`h`h`hkkeeeeeeeeeeeeeee",
"eeeeeeeeeeeeeeei`h`h`hh``h`h`hh`jeeeeeeeeeeeeeee",
"eeeeeeeeeeeeeej`h`h`h`h`h`h`h`h`hjeeeeeeeeeeeeee",
"eeeeeehhhhh`hhhhhhhhhhhhhhhhhhhhhhhh`hhhhheeeeee",
"eeeeee``````h``````````````````````h``````eeeeee",
"eeeeeehhhhh`h``````````````````````h`hhhhheeeeee",
"eeeeee``````hh`hhhhhh`hhhhhhh`hhh`hh``````eeeeee",
"eeeeeeeeeeeeeeeeeebkeeekeebkeeekeeeeeeeeeeeeeeee"
};
