/* XPM */
static char *folderfull[] = {
/* width height num_colors chars_per_pixel */
"    48    48       39            1",
/* colors */
". c None",
"# c #1f706f",
"a c #1f80ff",
"b c #1fb7b0",
"c c #1fe880",
"d c #3f4f7f",
"e c #40473f",
"f c #4058df",
"g c #4f804f",
"h c #50504f",
"i c #6f5f4f",
"j c #6f77bf",
"k c #801f1f",
"l c #80701f",
"m c #80801f",
"n c #80b780",
"o c #80b7e0",
"p c #8f8f8f",
"q c #8fb070",
"r c #90709f",
"s c #908050",
"t c #a09f8f",
"u c #af1fff",
"v c #b0e8b0",
"w c #bfd79f",
"x c #c06760",
"y c #cfd0cf",
"z c #e0b7b0",
"A c #e0e7cf",
"B c #e0e880",
"C c #e0e8b0",
"D c #efc060",
"E c #efefef",
"F c #f04740",
"G c #ffe05f",
"H c #ffff1f",
"I c #ffffbf",
"J c #fffff0",
"K c #ffffff",
/* pixels */
".........BDDDDDDDDKKKKKKKKAFFAKKKKDDDDs.........",
"........BDDDDDDDDDKffffffffffFFFfKDDDDDs........",
".......BDDDKKKKKKKKKKKKKKfffffffFFDDDDDDs.......",
"......BDDDDKrrrrrrrrrrrrKffffffffAFFDDDDts......",
"......BDDDDKrrrrGIIrrrrrKffAAAAAAAAAFAAAAA......",
".....BDDDDDKrrmhIGIIyrrrKffAKKKKKKKAFKKKKAh.....",
".....BtttttKrmmtGslGpzrrKddAKKKKKKAFKKKKKAAh....",
".....IBBsssKrptItGssIqyrKddAKKKKKAFKKKKKKAAth...",
".....IBGDBBDrlhtthhghGirKddAKKKKAFKKKKKKKAKAth..",
".....IBDGDGBGBBDtttttiGrKddAKKKKFjjjjjKKKAKKAth.",
".....IBDDDDGGGGBDBBBBBBBDDtAKKKKFKKKKKKKKAhhhhhh",
".....IBDDDDDGGGGGDGDGDGBDDtAKKKKAFKKKKKKKKKKKKAh",
".....IBGDDDDDGGGGGGGDGDBDDtAKKjjjjFFjjjjjjjjKKAh",
".....IBDGDGDGDDGGGGDGDGBDDtAKKKKKKKAFKKKKKKKKKAh",
".....IBGDDDDDDDDDGDGDGDBDDtAKKjjjjjjjFFjjjjjKKAh",
".....IBDDDGDDDGDDDDDDDDBDDtAKKKKKKKKKKKKKKKKKKAh",
".....IBGDDDGDDDDDDDDDDDBDDtAKKjjjjjjjjjjjjjjKKAh",
".....IBDGJDDDDDDDDGDDDDBDDtAKKKKKKKKKKKKKKKKKKAh",
".....IBGJJJGDDDDDJDDDDFFkttAKKjjjjjjjjjjjjjjKKAh",
".....IBJJ#JJGDDDJJJDDFFxFktAKKKKKKKKKKKKKKKKKKAh",
".....IJJ###JJDDJJFJJDFxDxktAKKjjjjjjjjjjjjjjKKAh",
".....JJ#####JJJJFFFJJFFxFktAAAKKKKAAAKKKKKKKKKAh",
"....JJ###eeheJJFFFFFJJFFFDtthhtAAthhhtjjjjjjKKAh",
"...JJ##hhiisJJDhhlhiFJJBDDGttthhhhttthhtKKKKKAth",
"..JJ##hhhseJJDDmDliiiFJJDGDDDtttttttttthtAAAthhh",
".JJ###heesJJDDHlDtheeFFJJDGDDDDDDDDDGDtthhhhh...",
"JJ####eeeJJFlDqDmqhiteFFJJDDDDDDDDDGDGDtttt.....",
".JJ###esJJFFlhJJwtioteeFFJJDDDDDDDGDGDGDGDs.....",
"..JJ##sshJJFmhJJJttCAthFFFJJDDDDDGDGDGDGDDs.....",
"...JJ#ehphJJlJJuJJzhtthfff#JJDDDGDGDGDGDGDs.....",
"....JJ#shheJJJuuuJJwrtebfaJJDDDGDGDGDGDGDDs.....",
".....JJ#sehJJuuuuuJJAte##JJDDDGDGDGDGDGDGDs.....",
".....IJJ##JJuuueeheJJhgfJJDDDDDGDGDGDGDGDDs.....",
".....IBJJJJuuhhiisheJJpJJDDDDGDDGDGDGDGDGDs.....",
".....IBGJJuuhhhsepyheJJJBDDDDDDDDDDGDGDGDDs.....",
".....IBJJuuuheeshtptieJJBDDDDDDDDDDDGDGDGDs.....",
".....IJJuuuueeeewpghyieJJDDDDDDDDDDDDGDGDDs.....",
".....IBJJuuuespwprAwpheuJJDDDDDDDDDDGDGDGDs.....",
".....IBGJJuusshizEKrhzhuuJJDDDDDDDDDDDDGDDs.....",
".....IBDGJJuehphpKKvhhggJJDDDDDDDDDDDGDDGDs.....",
".....IBGDDJJushheAKzzngJJDDDDDDDDDDDDDGDDDs.....",
".....IBDGDDJJusehitncgJJBDDDDDDDDDDDDDDDDDs.....",
".....IBGDGDDJJuuuhgncJJDBDDDDDDDDDDDDDDDDDs.....",
".....IBDDDDDDJJuuuenJJDDDDDDDDDDDDDDDDDDDDs.....",
".....BBDDGDDGGJJuuuJJDDDGGGGGGGGGGGGGGGDDDs.....",
".....BDDDDDDDDDJJuJJGGGGGGGGGGGGGGGGGGGGDDs.....",
".....BDDDDDDDDDDJJJDDDDDDDDDDDDDDDDDDDDDDDs.....",
".....ssssssssssssJsssssssssssssssssssssssss....."
};
SIMPLE  =                    T                                                  
BITPIX  =                    8                                                  
NAXIS   =                    2                                                  
NAXIS1  =                   48                                                  
NAXIS2  =                   48                                                  
HISTORY Written by XV 3.10                                                      
END                                                                             
                                                                                
                                                                                
                                                                                
                                                                                
                                                                                
                                                                                
                                                                                
                                                                                
                                                                                
                                                                                
                                                                                
                                                                                
                                                                                
                                                                                
                                                                                
                                                                                
                                                                                
                                                                                
                                                                                
                                                                                
                                                                                
                                                                                
                                                                                
                                                                                
                                                                                
                                                                                
                                                                                
                                                                                
                                                                                
SSSSS~~~~~~~~~~~~~~~~~~~~~~~~~~~~~~~~~~~~~SSSSSSSSSS
~SSSSSSSSSSs~SSSSSSSSSS
sss~SSSSSSSSSSsssC~SSSSS
SSSSSsssOg~SSSSSSSSSSs~CObg
~SSSSSSSSSSs~OOCěg~SSSSSSSSSSsCOO
OOgg~SSSSSSSSSSss~~ObOOss~SSSSS
SSSSSsssC~ƏƏOCs~SSSSSSSSSSssssCCCCƏgObC
~SSSSSSSSSSsssOCC~ObC~SSSSSSSSSSssOOO~
COC~SSSSSSSSSSssOObb~OC~SSSSS
SSSSSTTsssCCOCOgd~SSSSSSSSSST~COsssssCTT
~SSSSSSSSST~OOCsssƂCdr~SSSSSSSSTCOOhs
OOdddT~SSSSSSSTT~~OpOO~SSSSSSTTTC~hOƜbCC~SSSSSTTTTCCChpObCSSSSSSTTTOCC~hOCCOOOOOSSSSSTTOOO~CphbbbOOOOSSSTTOObb~OOhOb֜OOOOOOOSSSSTTTCCOCOOOOOOSSSSSTTTTT@OSSSSSTTT@OSSSSST@OSSSSS@OSSSSSOSSSSSOSSSSSOSSSSSOSSSSSOSSSSSOSSSSSOSSSSSOOOOOOSSSSSbւQQOSSSSSShOOOgObQQOSSSSSSS~~~~~ςQQOSSSSSSSS՜pp~h֏ĂQQOSSSSSSSSSpOςddOSSSSSSSSSSSddSSSSSSSSSSSSdddddddd~SSSSSSSSSSSSSddddddd~SSSSSSSSSSSSSSSddddddddddd~SSSSSSSSSSSSSSSSS~SSSSSSSSS
