/* XPM */
static char * backup-shape_xpm[] = {
/* width height ncolors chars_per_pixel */
"61 44 11 1",
/* colors */
" 	s None	c None",
".	c #BCBCB6",
"X	c #C8C2B7",
"o	c #C2B4A6",
"O	c #CCCAC4",
"+	c #DAD7CF",
"@	c #919291",
"#	c #6F7373",
"$	c #656864",
"%	c #4E4B46",
"&	c #C7A587",
/* pixels */
"                                                             ",
"                       .X.oX.X........o......O+O++++OO       ",
"                    ..OOXXXXXXoXX........X.....O........@.@# ",
"                  .OOOOXXXXXXXX.XXXo.X..X....O.O.O......@@#@ ",
"                XXOXOOO+XXXXXXOXXXXXXXXX.O...O.O.OO...@@#@#@ ",
"             oXOOO+OO+OOOXXOOOOXOXX.OO.O.OOO..OOO.O..@##@##@ ",
"           X++++O+OO+X++X+XOXXXOXOOOXOXO.O..OO.O.O..@#@##### ",
"         XO++++X+++O++O+OOOOOOOOOOXO.OOO.OOO.O.OO.@########$ ",
"      X++++++++++X++O++O+X+X+XOXOOOOOO.OOO.O..OO@@#########$ ",
"  oX++++++++++++++++O+X+X+OOOOOOXOOOOOO.O.O.O..@@###@######$ ",
" X+++++++++++++++++++O++OOOO+OOOOO.OO.OO.OO..@###########$$$ ",
" +++++++++++++++X+XOX+OO++O+O++OOOOOOOOOOO..@#@########$$$$$ ",
" O+++++++X+X+XXXXXXXXXXXo.X................###########$#$$$$ ",
" ++++++++++X+X+XXXXoXXo.X.oX...............##########$$$$$$$ ",
" +O++X++XX+X+XXXXXXXX.X.X.................@@##@######$$$$%$% ",
" XO+++++++++XOX+XXX.X..X...Xo..............########$$$$%$$$$ ",
" +++++X+XXX+XXXXoXXXoXX.XXX..X.........@...#######$$$%$$%$%$ ",
" +++++++++++X+OXXXX.X.X.X...X..............#######$$$$$%$%$% ",
" ++++++++O+X+Xo&..XXXXX.X.X................#####$$$$%$%$%$%$ ",
" X++++++++++OO.++X.............o.@...@..@..#####$$$$$$$%%$%% ",
" X++++++O+X+XO.++++++++++++++OOOOOO..O.....####$#$$$%$%$%%%$ ",
" ++O+++++++OOO.+++++++++++++++++++++++O....###$#$$$$$%$%%$%% ",
" +++&XXXoXoXXO.+++++++++O+++++++++++++.@...####$#$$$$$%$%%%% ",
" X++@XXXXXXXOX.+++++++@@@....O...OOO@..@...###$$$$$$%$%%%%%% ",
" +++&XXoo&ooXX.++++++O#@#########.OO...@.@.##$#$$$$$%$%$%%%% ",
" +++@ooo@@@@XX.++++++O@##########.OOO..@...###$$$$%$%$%%%%%% ",
" O++o.XXXXXoXXoO++++++.XOXXoo.@o@.OOO..@...###$$$$$%%%%%%%%% ",
" ++OO+++++OO+X.++++OOOO+OOO.O+...OOOO..@...#$$$$$%%$%%%%%%%% ",
" O++X+XOXXXXXXoO++OOOOOOOOOOOOOOO.OOO..@...##$$$%$%%%%%%%%%% ",
" X+X.oooXoXooX.O+O...............O.....@...##$$$$%$%%%%%%%%% ",
" @oOo@.o..oXoX.OOO.......o.@...........@.@.@$$$%$%%%%%%%%%%% ",
" oXX..o.oo.o.X..+O++++++O++++OOO.O.........#$$$$%$%%%%%%%%%  ",
" @oX.@o@oooo.XX.OO.....OOOOOOOOOOOOOO..O.@.@$$%$$%%%%%%%%%%  ",
" XXXXoX.oooooX..O+@@...OOOOOOO..OO......O@.#$$$%%%%%%%%%%    ",
"   XoXXXXXXXXXo...OOOOO+OO+OOOOOO....O.OO..##%$%%%%%%%%%$    ",
"     @&&&oooXooo.......@....@....OOOOOO..@.#$$%%%%%%%%%      ",
"   +X+O...oo$%$$##@@@@........@.@@@@@@@.@@.@$%%%%%%%%%       ",
"   oX.XX...o%%%%%%%%%%%%%%%$##@@@......@...#%%%%%%%%$        ",
"       @ @ @$%%%%%%%%%%%%%%%%%%%%%@.@@@@@@@#$%%%%%%%         ",
"                  $ $%$%%%%%%%%%%#.@.......#%%%%%%$          ",
"                           # $###@@@@@.@.@.#%%%%%%%          ",
"                                 @.@.@@@#@@#%$%$$            ",
"                                     @&@o@@@                 ",
"                                                             "};
