/* XPM */
static char * Bird_xpm[] = {
"48 48 63 1",
" 	c None",
".	c #9E799E799E79",
"X	c #79E796589E79",
"o	c #79E77DF779E7",
"O	c #596571C679E7",
"+	c #4924618569A6",
"@	c #410355556185",
"#	c #208128A228A2",
"$	c #4924410338E3",
"%	c #8E388A288E38",
"&	c #410369A671C6",
"*	c #61859248A699",
"=	c #9E79C30BC71B",
"-	c #B6DAE79DEFBE",
";	c #4103618569A6",
":	c #38E3555569A6",
">	c #10401C712081",
",	c #965892489658",
"<	c #C71BF3CEF7DE",
"1	c #186130C230C2",
"2	c #30C249245144",
"3	c #30C251445965",
"4	c #208130C238E3",
"5	c #30C238E338E3",
"6	c #71C6AAAAC71B",
"7	c #492479E78617",
"8	c #61859E79B6DA",
"9	c #8617CB2BDF7D",
"0	c #410369A679E7",
"q	c #30C249246185",
"w	c #69A66DB671C6",
"e	c #49246DB679E7",
"r	c #1040208128A2",
"t	c #082008200820",
"y	c #A699DB6CE79D",
"u	c #514475D68E38",
"i	c #71C6B6DACF3C",
"p	c #59658A289E79",
"a	c #38E361856185",
"s	c #51448A289E79",
"d	c #30C249245965",
"f	c #38E341034924",
"g	c #61859658A699",
"h	c #28A238E34103",
"j	c #104018611861",
"k	c #514451445144",
"l	c #492471C68617",
"z	c #28A241035144",
"x	c #61855D755144",
"c	c #59658A289658",
"v	c #79E7BAEACF3C",
"b	c #69A6AAAAB6DA",
"n	c #69A6A289BEFB",
"m	c #D75CFBEEFFFF",
"M	c #30C259656185",
"N	c #514479E79658",
"B	c #38E3596571C6",
"V	c #618582079E79",
"C	c #1861208130C2",
"Z	c #59658E38A699",
"A	c #61858A28AEBA",
"S	c #9658CF3CDF7D",
"D	c #C71B79E75144",
"                    .XoO+++@#$%                 ",
"                  .O&*X=-=*;:>,                 ",
"                .++=<X+1233345                  ",
"               .+6-O1789*;;0qw                  ",
"              oe=X179711233rt                   ",
"             XOyu3i*37*0334#>                   ",
"            .Oy40p47;1a7s2dt,                   ",
"           .+yfug4*h*71jjttk                    ",
"           @=+&l372ph3O@ztx                     ",
"          oX=cg;2h&;24ht5,                      ",
"          wvy8&2&u4&070h#.                      ",
"          ,e--i&c4l:214hh5                      ",
"           ou<yb7n22lbn&j>x           .ofw      ",
"            onmib0gb32rMu5#         .wzeNz5,    ",
"             0y-bvna&l;>Mr>o      X+BV==2::>o   ",
"             Xpmyug6l&BpN0#>ww  %+B==@0iif254w  ",
"              e-<i*&*&rr4z0NNB0#C2::uvg0;i6Nft  ",
"              oXmvZl>hBNZA666vvvAN:r2lg9i7;z4#x ",
"              XB-=g5NAnvy<<<-mmmm-9clNe;089nNq> ",
"               dle:N6y-m--y-ySSS=y=bbppg**7Mh4r,",
"            .w5#0AnSmm-=9999999999iv6dlg**b9nezo",
"        owkfCfeNAv<mmy999999v9999v68VB8;;;;;Mf5o",
"      $4q:uNNZA6-mm<y9999999nB#v8z5Bdhhg69998f5w",
"     kBvSyyySSym<-S99999999iNqhNNett>:efhh2gAe:w",
"    ,dnm<<mm<<-y=9vv999999vu5zrre:d4t$krz:B:B4#,",
"    $Nn99999999999nAZ8n6Al4#j&l5hqqr,  .w#4:Bzx ",
"  .x$eA7;b999999999Neled5h3gnO4r4Cj4#w.   ,$#5  ",
" o,=DxuCtr799999vin80n66ZO#44MOq#>$tt4t%    ,.  ",
"w>DDDxBBBeZA888ZZNu0qnmiOgO:;314hk  .$f         ",
"  ox$#>hdfB0000:::ddde<y*&pN6l22Ck  @f          ",
"      .$>>>#444#>4f5$:S-968Bd1h2qw oto          ",
"         ,wkkwo,     $6<b0Opp*u4rx %t5f,        ",
"                     kX<iZO:h4zM#f, o>t.        ",
"                     kX<gppg0l233hr$w           ",
"                     $=<ch@pqgu;3>rzC%          ",
"                     #S<i8ppBd223OON:tf         ",
"                     5-ybOpeeppNh2hjj44o        ",
"                     r<y9pulp*b6bggggZBrx       ",
"                     hyS;Zel0uN@3tr111Mt>o      ",
"                     %57uudl8l0lupM3333&q5      ",
"                       xOdgpzM*bpMM0*9v8BC,     ",
"                         .kh0eh4lvgO34334>x     ",
"                           .w5zfz4&89b*O35$     ",
"                              .xt40hC0i9i4x     ",
"                                 k#rfd>4;jO     ",
"                                   .kjhf#>w     ",
"                                     .xtj55     ",
"                                       .ox.     "};
