/* XPM */
static char *magick[] = {
/* columns rows colors chars-per-pixel */
"48 48 40 1",
"   c black",
".  c #001000",
"X  c #100000",
"o  c #100010",
"O  c #101000",
"+  c #201020",
"@  c #202010",
"#  c #202020",
"$  c #203020",
"%  c #302030",
"&  c #303020",
"*  c #304030",
"=  c #403030",
"-  c #404030",
";  c gray25",
":  c #504050",
">  c #505050",
",  c #506050",
"<  c #605050",
"1  c #605060",
"2  c #607060",
"3  c #706070",
"4  c #707060",
"5  c gray44",
"6  c #708070",
"7  c #807070",
"8  c #f00010",
"9  c #f01010",
"0  c #f00020",
"q  c #f01020",
"w  c #f05010",
"e  c #f04020",
"r  c #f05020",
"t  c #807080",
"y  c #808070",
"u  c #e0e000",
"i  c #e0e010",
"p  c #f0e000",
"a  c #a0a0a0",
"s  c None",
/* pixels */
"sssssssssssssssssssssss5ssssssssssssssssssssssss",
"ssssssssssssssssssssssssss>>####>sssssssssssssss",
"sssssssssssssssssssssssss>+@#@+@#@>sssssssssssss",
"ssssssssssssssssssssssss>##>ssst>##>swsqssssssss",
"sssssssssssssssssssssss>#@>ssssss># >00wssssssss",
"sssssssssssssssssssssss>  >sssssss0iwqwsssssssss",
"ssssssssssssssssssssss >#  #ssss000wui890sssssss",
"sssssssssssssssssssss%###   $ssss0wiiiwrssssssss",
"ssssssssssssssssssss4 >      sss0a0wpie9ssssssss",
"sssssssssssssssssss4 >##> $  4sssqsqww9e9sssssss",
"sssssssssssssssss4  ooooo#o#o 4ssss0e88sssssssss",
"ssssssssssssssss    oo          4ss0ss8sssssssss",
"ssssssssssssss4  ooo  o     o oo 4ssssssssssssss",
"sssssssssssss   oo          oo o   sssssssssssss",
"ssssssssssss                  oa>>  ssssssssssss",
"sssssssssss oooOOaa>>         ooww>  sssssssssss",
"ssssssssssooooOaa>>&          oo>aw   ssssssssss",
"sssssssssoo oOa>>#O           oooo>    sssssssss",
"ssssssss o oOa>>O   oo          oo      ssssssss",
"sssssss>ooooa>#O  ooo             oo    >sssssss",
"ssssss3 oooOa>O  o                 oo    sssssss",
"ssssss# oo a>% o                         $ssssss",
"sssss4  o Oa>Ooo                          ssssss",
"sssss> o  >>$Oo       .X                  4sssss",
"sssss# oo >&% o     O X.X                 >sssss",
"sssss  oo >% oo    OXX. .X.               #sssss",
"sssss  oo % ooo     X.X X.X X              sssss",
"sssss ooo    o     X.X.X.X.X.         o    sssss",
"sssss  ooo  ooo   XOX X.X X.X     X   o    sssss",
"sssss  oo  oo o   X .X. .X.           o    sssss",
"sssss# oo Oooo      X.XXX.X          o  o  sssss",
"sssss> oo #.ooo       .X. X         o Ooo #sssss",
"sssss4  o O oooo                   oo .o  >sssss",
"ssssss  o #Oo                      o O    4sssss",
"ssssss>   #Ooo                   oo Ooo   ssssss",
"sssssss   OO#ooo                 o Ooo   >ssssss",
"sssssss4   #Oooo               ooO      #sssssss",
"ssssssss    #OXoo            ooOoooo o  6sssssss",
"sssssssss    O#ooo          ooooOo o o <ssssssss",
"ssssssssss    O#O.o        o ooOooo   #=<5ssssss",
"sssssssssss    OO#Oo oooooo  Ooo oo  ###=<:sssss",
"ssssssssssss     O#O#O oo oOoo  oo  #####:<:ssss",
"sssssssssssss           oo o  o    ######:<<<sss",
"sssssssssssss53   ooooooo oooo   #######=::<<sss",
"sssssssssssssss53     o oo     ########=:<<<5sss",
"sssssssssssssssss33##      ####-#-#-#=::<<55ssss",
"ssssssssssssssssssss232>>>>>>;,1*1,15<755yssssss",
"ssssssssssssssssssssssssssssssssssssssssssssssss"
};
