/* XPM */
static char * thisisit_xpm[] = {
"48 48 436 2",
"  	c None",
". 	c #30C228A238E3",
"X 	c #38E31C7128A2",
"o 	c #28A214511861",
"O 	c #8E38659569A6",
"+ 	c #514418612081",
"@ 	c #208114512081",
"# 	c #49241C712081",
"$ 	c #FFFFF7DEFFFF",
"% 	c #CF3CBEFBC71B",
"& 	c #965845144924",
"* 	c #38E310401861",
"= 	c #186110402081",
"- 	c #E79DDF7DE79D",
"; 	c #EFBEEBADEFBE",
": 	c #D75CD34CD75C",
"> 	c #DF7DD75CDF7D",
", 	c #DF7DDB6CDF7D",
"< 	c #EFBEE79DEFBE",
"1 	c #F7DEEFBEF7DE",
"2 	c #A69971C671C6",
"3 	c #618555556185",
"4 	c #E79DE38DE79D",
"5 	c #F7DEF7DEF7DE",
"6 	c #DF7DDF7DDF7D",
"7 	c #A699A289A699",
"8 	c #E79DE79DE79D",
"9 	c #AEBA49245144",
"0 	c #79E718612081",
"q 	c #28A210401040",
"w 	c #208110401861",
"e 	c #492434D338E3",
"r 	c #51443CF34103",
"t 	c #596514511861",
"y 	c #514410401861",
"u 	c #30C218612081",
"i 	c #208110401040",
"p 	c #514441034924",
"a 	c #B6DAB6DAB6DA",
"s 	c #CF3CCF3CCF3C",
"d 	c #D75CD75CD75C",
"f 	c #71C651445144",
"g 	c #51444D345144",
"h 	c #618561856185",
"j 	c #B6DAB2CAB6DA",
"k 	c #A699208128A2",
"l 	c #79E714511861",
"z 	c #30C210401861",
"x 	c #69A61C712081",
"c 	c #69A618612081",
"v 	c #596510401861",
"b 	c #618510401861",
"n 	c #514410401040",
"m 	c #38E30C301040",
"M 	c #20810C301040",
"N 	c #28A208201040",
"B 	c #186108201040",
"V 	c #186110401040",
"C 	c #8E387DF78617",
"Z 	c #D75CCF3CCF3C",
"A 	c #CF3CC71BC71B",
"S 	c #8E3859655965",
"D 	c #30C20C301861",
"F 	c #28A218612081",
"G 	c #C71BC71BC71B",
"H 	c #514451445144",
"J 	c #BEFBB6DAB6DA",
"K 	c #965818612081",
"L 	c #8E3828A230C2",
"P 	c #A69975D679E7",
"I 	c #965869A671C6",
"U 	c #9658208128A2",
"Y 	c #8617249230C2",
"T 	c #9E79208128A2",
"R 	c #8E3818612081",
"E 	c #69A65D756185",
"W 	c #965886178E38",
"Q 	c #BEFBA289A699",
"! 	c #71C608201040",
"~ 	c #18610C301040",
"^ 	c #69A669A669A6",
"/ 	c #59655D755965",
"( 	c #514455555144",
") 	c #79E728A230C2",
"_ 	c #71C6249230C2",
"` 	c #CF3CA699AEBA",
"' 	c #B6DA8E389658",
"] 	c #A69934D338E3",
"[ 	c #E79DD34CD75C",
"{ 	c #AEBA618569A6",
"} 	c #69A614511861",
"| 	c #30C208201040",
" .	c #38E308201861",
"..	c #30C20C301040",
"X.	c #492410401040",
"o.	c #8E380C301040",
"O.	c #9E7904100820",
"+.	c #861704100820",
"@.	c #38E308201040",
"#.	c #186108200820",
"$.	c #79E77DF78617",
"%.	c #CF3CCB2BCF3C",
"&.	c #AEBAAEBAAEBA",
"*.	c #861782078617",
"=.	c #69A641034924",
"-.	c #9E796DB671C6",
";.	c #F7DEF3CEF7DE",
":.	c #FFFFFFFFFFFF",
">.	c #AEBA5D756185",
",.	c #CF3CBAEABEFB",
"<.	c #DF7DBAEAC71B",
"1.	c #9E7928A230C2",
"2.	c #618514511861",
"3.	c #41030C301861",
"4.	c #41030C301040",
"5.	c #59650C301040",
"6.	c #69A608201040",
"7.	c #618508201040",
"8.	c #410308201861",
"9.	c #18610C301861",
"0.	c #28A214512081",
"q.	c #AEBAAAAAAEBA",
"w.	c #861769A669A6",
"e.	c #EFBEE79DE79D",
"r.	c #E79DD75CD75C",
"t.	c #BEFB9A699E79",
"y.	c #FFFFFBEEFFFF",
"u.	c #EFBEDF7DE79D",
"i.	c #B6DA34D338E3",
"p.	c #861710401861",
"a.	c #51440C301040",
"s.	c #410310401040",
"d.	c #61855D7569A6",
"f.	c #A699A699A699",
"g.	c #49244D344924",
"h.	c #861779E779E7",
"j.	c #8E3879E779E7",
"k.	c #B6DACF3CD75C",
"l.	c #CF3CE38DE79D",
"z.	c #B6DA9E799E79",
"x.	c #BEFBC30BC71B",
"c.	c #AEBA4D345144",
"v.	c #38E310401040",
"b.	c #208108201040",
"n.	c #492449245144",
"m.	c #86177DF78617",
"M.	c #BEFBBEFBBEFB",
"N.	c #618569A671C6",
"B.	c #2081410371C6",
"V.	c #61856DB68E38",
"C.	c #69A661856185",
"Z.	c #59658A28AEBA",
"A.	c #71C69248AEBA",
"S.	c #AEBA3CF34103",
"D.	c #9E790C301040",
"F.	c #492445144924",
"G.	c #79E775D679E7",
"H.	c #BEFBBAEABEFB",
"J.	c #9E799E799E79",
"K.	c #71C661856185",
"L.	c #186114512081",
"P.	c #104010401861",
"I.	c #30C228A228A2",
"U.	c #28A2186128A2",
"Y.	c #28A2451471C6",
"T.	c #186134D369A6",
"R.	c #DF7DCB2BCF3C",
"E.	c #AEBA249230C2",
"W.	c #30C214511861",
"Q.	c #596559656185",
"!.	c #8E3875D679E7",
"~.	c #965814512081",
"^.	c #49240C301040",
"/.	c #208110402081",
"(.	c #1040145128A2",
").	c #186130C25144",
"_.	c #BEFBAAAAAEBA",
"`.	c #9E7918612081",
"'.	c #86170C301040",
"].	c #28A20C301040",
"[.	c #79E76DB671C6",
"{.	c #9E799A699E79",
"}.	c #410345144103",
"|.	c #79E779E779E7",
" X	c #69A665956185",
".X	c #8E381C712081",
"XX	c #A69908201040",
"oX	c #69A60C301040",
"OX	c #596510401040",
"+X	c #30C214512081",
"@X	c #69A682079658",
"#X	c #965855555965",
"$X	c #EFBEEFBEEFBE",
"%X	c #965896589658",
"&X	c #71C675D671C6",
"*X	c #69A6659569A6",
"=X	c #8E3882078617",
"-X	c #965804100820",
";X	c #71C608200820",
":X	c #71C60C301040",
">X	c #861771C679E7",
",X	c #BEFBA699AEBA",
"<X	c #71C659655965",
"1X	c #514414511861",
"2X	c #8E3886178E38",
"3X	c #965892489658",
"4X	c #2081249238E3",
"5X	c #492449244924",
"6X	c #71C610401861",
"7X	c #965808200820",
"8X	c #861708200820",
"9X	c #8E3804100820",
"0X	c #492408201040",
"qX	c #8E388E388E38",
"wX	c #71C66DB671C6",
"eX	c #41033CF34103",
"rX	c #71C65D756185",
"tX	c #9E7908201040",
"yX	c #AEBA04100820",
"uX	c #AEBA00000820",
"iX	c #79E704100820",
"pX	c #514449244924",
"aX	c #8E388A288E38",
"sX	c #30C241035144",
"dX	c #38E33CF34103",
"fX	c #61850C301040",
"gX	c #79E70C301040",
"hX	c #28A21C712081",
"jX	c #86178A288617",
"kX	c #410341034103",
"lX	c #410345145144",
"zX	c #38E341034924",
"xX	c #30C234D338E3",
"cX	c #410334D338E3",
"vX	c #38E32CB230C2",
"bX	c #861786178617",
"nX	c #9E79A699AEBA",
"mX	c #8E3892489E79",
"MX	c #71C671C671C6",
"NX	c #082010402081",
"BX	c #18611C712081",
"VX	c #596545144924",
"CX	c #30C210401040",
"ZX	c #28A210401861",
"AX	c #30C2208128A2",
"SX	c #79E77DF779E7",
"DX	c #30C238E330C2",
"FX	c #69A66DB671C6",
"GX	c #410349244924",
"HX	c #492455556185",
"JX	c #208128A238E3",
"KX	c #59655D7569A6",
"LX	c #28A228A238E3",
"PX	c #492414511861",
"IX	c #618528A230C2",
"UX	c #492430C238E3",
"YX	c #28A208200820",
"TX	c #30C234D330C2",
"RX	c #6185618569A6",
"EX	c #79E775D68617",
"WX	c #618508200820",
"QX	c #596559655965",
"!X	c #71C679E771C6",
"~X	c #596555555965",
"^X	c #A69904100820",
"/X	c #69A610401040",
"(X	c #28A2208128A2",
")X	c #492438E338E3",
"_X	c #38E314511861",
"`X	c #8E3808201040",
"'X	c #410308201040",
"]X	c #69A66DB669A6",
"[X	c #618559655965",
"{X	c #492420812081",
"}X	c #8E3808200820",
"|X	c #30C230C230C2",
" o	c #61855D756185",
".o	c #71C604100820",
"Xo	c #79E708200820",
"oo	c #596551445965",
"Oo	c #618565956185",
"+o	c #208124922081",
"@o	c #C71BBEFBC71B",
"#o	c #AEBAA289A699",
"$o	c #596508201040",
"%o	c #18610C300820",
"&o	c #596561855965",
"*o	c #08200C300820",
"=o	c #D75CCF3CD75C",
"-o	c #B6DAAEBAB6DA",
";o	c #8E3892488E38",
":o	c #C71BC30BC71B",
">o	c #B6DAAEBAAEBA",
",o	c #104008200820",
"<o	c #208118611861",
"1o	c #71C69E7971C6",
"2o	c #8617E79D8617",
"3o	c #A699BAEAA699",
"4o	c #514459655144",
"5o	c #8E3814511861",
"6o	c #208114511861",
"7o	c #69A671C669A6",
"8o	c #861710401040",
"9o	c #10400C300820",
"0o	c #30C22CB230C2",
"qo	c #410349244103",
"wo	c #28A22CB228A2",
"eo	c #28A228A228A2",
"ro	c #9E799A6979E7",
"to	c #38E33CF338E3",
"yo	c #596534D338E3",
"uo	c #28A224922081",
"io	c #38E3410338E3",
"po	c #CF3CCF3CC71B",
"ao	c #79E775D671C6",
"so	c #41031C712081",
"do	c #208108200820",
"fo	c #618555555965",
"go	c #618569A66185",
"ho	c #59655D755144",
"jo	c #10400C301040",
"ko	c #49244D344103",
"lo	c #38E328A230C2",
"zo	c #4103208128A2",
"xo	c #186110401861",
"co	c #28A220812081",
"vo	c #38E3249228A2",
"bo	c #41032CB238E3",
"no	c #596541034924",
"mo	c #38E31C712081",
"Mo	c #20811C7128A2",
"No	c #596551445144",
"Bo	c #861786178E38",
"Vo	c #18611C711861",
"Co	c #9E79A289A699",
"Zo	c #96589A699E79",
"Ao	c #861792489E79",
"So	c #5144618571C6",
"Do	c #514445145144",
"Fo	c #596549244924",
"Go	c #69A638E34103",
"Ho	c #51442CB238E3",
"Jo	c #38E3208128A2",
"Ko	c #208118612081",
"Lo	c #30C218611861",
"Po	c #208130C25965",
"Io	c #20811C7130C2",
"Uo	c #28A218611861",
"Yo	c #38E330C238E3",
"To	c #69A671C679E7",
"Ro	c #9658AAAAAEBA",
"Eo	c #71C6AAAABEFB",
"Wo	c #41038E38BEFB",
"Qo	c #208165959E79",
"!o	c #38E338E35965",
"~o	c #79E769A671C6",
"^o	c #86177DF779E7",
"/o	c #861779E78617",
"(o	c #618551446185",
")o	c #208128A24103",
"_o	c #208120812081",
"`o	c #38E338E338E3",
"'o	c #38E334D338E3",
"]o	c #9658B6DAC71B",
"[o	c #9E79BEFBCF3C",
"{o	c #71C6AEBAC71B",
"}o	c #5965A289C71B",
"|o	c #38E38A28B6DA",
" O	c #51448E38B6DA",
".O	c #AEBABAEAC71B",
"XO	c #C71BCB2BCF3C",
"oO	c #8E38B2CAC71B",
"OO	c #61859A69BEFB",
"+O	c #28A25D758E38",
"@O	c #28A21C7128A2",
"#O	c #2081186128A2",
"$O	c #104014511861",
"%O	c #20811C712081",
"&O	c #28A2249228A2",
"*O	c #30C21C712081",
"=O	c #9E79BEFBC71B",
"-O	c #6185A289BEFB",
";O	c #41038A28B6DA",
":O	c #20816595A699",
">O	c #79E7A699BEFB",
",O	c #8E38B2CABEFB",
"<O	c #69A6AAAAC71B",
"1O	c #61859E79BEFB",
"2O	c #38E38207B6DA",
"3O	c #186149248E38",
"4O	c #2081208138E3",
"5O	c #28A20C301861",
"6O	c #1861186130C2",
"7O	c #10402CB25144",
"8O	c #104028A25965",
"9O	c #08200C301040",
"0O	c #082004100000",
"qO	c #186114511861",
"wO	c #79E79E79A699",
"eO	c #8617B2CAC71B",
"rO	c #79E7AEBAC71B",
"tO	c #38E38E38B6DA",
"yO	c #18616185A699",
"uO	c #104051449E79",
"iO	c #104041038E38",
"pO	c #10402CB269A6",
"aO	c #104034D371C6",
"sO	c #104041038617",
"dO	c #104038E371C6",
"fO	c #082028A25965",
"gO	c #0820145130C2",
"hO	c #082008201040",
"jO	c #000004100820",
"kO	c #492430C230C2",
"lO	c #B6DACB2BD75C",
"zO	c #79E79A69AEBA",
"xO	c #30C259658617",
"cO	c #28A251448617",
"vO	c #20813CF369A6",
"bO	c #104030C269A6",
"nO	c #10402CB26185",
"mO	c #104028A26185",
"MO	c #104024925144",
"NO	c #104020814924",
"BO	c #0820186138E3",
"VO	c #082010401861",
"CO	c #082008200820",
"ZO	c #38E318612081",
"AO	c #514451445965",
"SO	c #596518611861",
"DO	c #514430C238E3",
"FO	c #514408201040",
"GO	c #69A655555965",
"HO	c #61855D755965",
"JO	c #51444D344924",
"KO	c #186118612081",
"                                                                                                ",
"                                      .                                                         ",
"                                    X o                                                         ",
"                                O + @                             #                             ",
"        $ $ $ $ $ $ $ $ $ $ $ % & * = - ; - : > , < ; $ $ $ $ $ 1 2 3 4 5 5 6 7                 ",
"      $ 8 8 8 8 8 8 8 4 4 4 4 9 0 q w e r t y u i w p a s 6 6 , d f * g , d d a h               ",
"      $ 8 8 8 8 8 4 4 4 4 4 j k l z x c v b n m M N B V C Z , , A S D F G : : a H               ",
"      $ 4 8 d : : s s s s s J K x L P I U Y T R q N N N i E W Q L ! N ~ ^ s s j H               ",
"      $ 8 8 : / ( ( ( ( ( ( g ) _ ` ; ' ] J [ { } |  .| ..X.o.O.+.@.#.M $.s %.&.H               ",
"      $ 4 4 s ( *.*.*.*.*.*.*.=.-.;.:.>.,.:.:.<.1.2.3.m 4.5.6.7.8.9.#.0.; %.%.q.H               ",
"      $ 8 8 s ( *.*.*.*.*.*.*.w.e.:.r.t.y.:.:.u.i.p.a.s.s...m  .9.B w d.1 G G f.g.              ",
"      $ 4 4 s ( *.*.*.*.*.*.h.j.k.l.z.x.;.:.:.4 c.R a.v.M V M b.B ~ n.m.1 M.M.7 g.              ",
"      $ 4 4 s ( *.*.*.*.*.*.m.N.B.V.C.Z.A.:.:.4 S.D.a.m ~ ~ N b.i F.G.*.1 M.H.J.g.              ",
"      $ 4 4 : ( *.*.*.*.*.*.K.L.P.I.U.Y.T.:.:.R.E.o.a...~ B N W.Q.m.*.*.1 H.H.J.g.              ",
"      $ 4 4 s ( *.*.*.*.*.!.~.^.V z /.(.).:.:._.`.'.^...B b.].[.m.*.*.*.1 a H.{.}.              ",
"      $ 4 4 s ( |.m.*.*. X.XXXoX! OX+X(.@X:., #XD.5.4.].~ b.~ m.*.*.*.*.$Xj a %X}.              ",
"      $ 6 4 s ( &X*X^ |.=X-XO.;X-X:X* @ >X,X<X1XoX^.4.B ~ b.i 2X*.*.*.*.; &.&.3X}.              ",
"      $ 4 4 s ( *.G.4X5X*X6X7X5.7.3.M ..l p.8X9X+.0X..M ~ b.~ *X*.*.*.*.; q.q.qX}.              ",
"      $ 6 6 s H wXm.&XeXG.rXn 4.^.3.4.^.tXyXuXO.iX0X].~ B M pXm.*.*.*.*.; q.f.aX}.              ",
"      $ 6 6 s H sX^ *.dX5X|.e z 4.fXgX'.7X;X! a.m ].#.#.B hXm.*.*.*.*.*.; f.f.jXkX              ",
"      $ 6 6 s ( |.lXzXxXm.*.m.G.cX* v OXOXm M ~ ~ ~ ~ M vXG.*.*.*.*.*.*.; 7 7 bXkX              ",
"      $ : nXmX( *.MXNXBXm.G.VXh.m.pXW.CXZX]...].B i M AXm.*.*.*.*.*.*.*.; J.J.SXDX              ",
"      $ , %.FXGXHXJXF.KXLXPX-XIXwX*.G.UXD YXB M M M ~ h.*.*.*.*.*.*.*.*.; {.{.|.TX              ",
"      $ 6 6 %.}.RX*Xm.m.EXm WXo Q.*.*.E m m m ^.a.4.q QX*.*.*.*.*.*.*.*.; %X%X!XTX              ",
"      $ , , s ( *.*.*.m.<X! | i *XQX~XPX8X^X+.fX! '.CXF.m.*.*.*.*.*.*.*.< 3X3XMXTX              ",
"      $ , , s ( *.*.*.m./XO.0XB M ~ ~ ^.7.6.5.^.^.fXv.(XbX*.*.*.*.*.*.*.< 3XqXMXTX              ",
"      $ , , s ( *.*.*.|.)X_Xb.B M #.YX`X^X+.'Xb.M m ..q |.*.*.*.*.*.*.*.< qXqX]XTX              ",
"      $ , , %.( *.*.*.*.*.[X{Xq ~ #.YX}XO.-XoX..M b.| q h *.*.*.*.*.*.*.< aXaX^ |X              ",
"      $ , , %.( *.*.*.*.*.*.*.wX oCX.o-XO.Xo0X].w ~ N ..oo*.*.*.*.*.*.*.< *.bXOo+o              ",
"      $ , , d aX@o@o@o@o@o@o@o@o#oCX$ooXoX@.b.B %oM N ..*X@o@o@o@o@o@o@od SXSX&o*o              ",
"      $ d d d G , > : d : =os s %.vXM ].].#.#.#.B ..~ i 3X-oq.-o7 3X3X{.;o!X!X/ *o              ",
"      ;.d s s s %.G G :oM.M.H.a >ox M ~ ~ %o%o,o#.b.#.<o3XqXqXbXSX1o2o3oSX!X&X4o*o              ",
"      a s %.%.G :o:oH.H.a j &.&.{.5o+...~ ~ ,o,o,o,o%o6oaXbXbX*.|.aXJ.J.7o]X]X(                 ",
"        bXSXSX|.|.|.&XMXMX]X]X^ h 8oO.;X@.].~ ~ #.,o9o~ 0o5Xqo}.kX|X|X|Xwoeoeoeo                ",
"                      ro5XkXtototoyo}X}X7.0X].B #.#.,o,ouototoio                                ",
"                      poh QXQXQXg.aoso^.^...M B do#.#.,o%ofogo]Xho                              ",
"                    pof.aXbXbXbXbX]XF M B ~ jo~ %o~ %o~ ~ F *.bX*.ko                            ",
"                    G a a a j j j 3Xlozoz %oz ZX~ ~ M xocoV vo3Xf.f.5X                          ",
"                : :o:o:o:o:oM.H.{.m.bonozoxomo_X].M MoMof.NoM o ~XBo{.Vo                        ",
"                s 7 CoZoAoSoDoFoGoe HoJo@ KoF Loi M PoIoJ.{.=XpXUoo YoI.                        ",
"                  ToRoEoWoQo!o~o^o/o(o)oW.+X].].].M = ]._oVoVoVo`o'oV ~ V <oco o                ",
"                ]o[o{o}o|o O.Ok.XOoOOO+O@Om ....| | N q #O$O            0o%Ojo&Ou *OJo          ",
"                  =O-O;O:O>O,O<O1O2O:O3O4O..].5OZXo 6O7O8O9O0OqO                    soW.6o      ",
"                          wOeOrOtOyOuOiOpOaOaOaOsOdOfOgOhOjO                          kOW.      ",
"                            lOzOxOcOvObOnOmOMONOBOVOCOCO                    ZO          M       ",
"                                      AO oGXeX                            1X5.SO  DO6oV V       ",
"                                                                      SOa.FO4.m ].~ 9oCOqO      ",
"                                                                          GOHOJOlocoKO          "};
