/* XPM */
static char * pkg_xpm[] = {
"48 48 64 1",
" 	c None",
".	c #E79DE38DDF7D",
"X	c #C71BAAAA9658",
"o	c #B6DAA28979E7",
"O	c #8E3871C64103",
"+	c #A6997DF76185",
"@	c #96588A2879E7",
"#	c #C71BBAEAAEBA",
"$	c #AEBA7DF74924",
"%	c #AEBA71C64103",
"&	c #9E7971C64103",
"*	c #A69961854924",
"=	c #B6DA92486185",
"-	c #8E386DB66185",
";	c #AEBA8A286185",
":	c #9E797DF74924",
">	c #8E3861855144",
",	c #514430C230C2",
"<	c #71C6618538E3",
"1	c #BEFB8A286185",
"2	c #AEBA8A285144",
"3	c #BEFB79E75144",
"4	c #9E7961854103",
"5	c #8E38618530C2",
"6	c #8E3861854103",
"7	c #C71B924879E7",
"8	c #C71BA69979E7",
"9	c #104014511040",
"0	c #618555554103",
"q	c #6185410330C2",
"w	c #514451444103",
"e	c #28A228A21861",
"r	c #514430C22081",
"t	c #6185514430C2",
"y	c #965851444103",
"u	c #410320812081",
"i	c #514441032081",
"p	c #8E3871C65144",
"a	c #618541032081",
"s	c #186118611861",
"d	c #71C651445144",
"f	c #71C649244103",
"g	c #618551442081",
"h	c #208120810000",
"j	c #618530C22081",
"k	c #8E38514430C2",
"l	c #71C6410330C2",
"z	c #4924410330C2",
"x	c #30C210401040",
"c	c #410330C22081",
"v	c #30C220811040",
"b	c #082008200000",
"n	c #410341032081",
"m	c #104008201040",
"M	c #208110400000",
"N	c #104004100820",
"B	c #30C230C21040",
"V	c #CF3C8A285144",
"C	c #410330C21040",
"Z	c #30C230C22081",
"A	c #28A218611861",
"S	c #618530C230C2",
"D	c #9E79A2899E79",
"F	c #AEBA9A69AEBA",
"                                                ",
"                                                ",
"                        ..                      ",
"                    ..XoO+@.                    ",
"                 .#X$$$%%&*&=.                  ",
"             ..#==-+;$:$:$&>&Oo.                ",
"          .#X;,<12323$$%$O*&45657.              ",
"       .XX8oo@X-9+22-$$$&:&OO4OO56o.            ",
"   .##X8777o711170q23%$$*O*%O44&=;w<7           ",
"  XXXXX788ooooo1+7+,&$%$O$&>&o+werty<>X         ",
"  u;XX888=71=111=$1;,i*%$21p0ar0y5y0y006#.      ",
"  sq-XXX888@o=11212+1-w>-dwrtO66<y<y<f00g-#     ",
"  haj<787o7=7=1312321;>dh0*O4445y5y<k000l0q-.   ",
"  s,iza787ooo=;==;8>z0&$+0a4OO6<6O<k<f000lgqwd. ",
"  xirija;o71=o78>0q&$%$%+2=94545y5y00000lgqaqiq ",
"  sziziqi>888>zfp=222$:$&*&;ic6O5y<y<ft0tqtOtc9 ",
"  vajiaiqaf0f:13123-3%$:*O4&$priy5y<k000y0lhbbb ",
"  hzilnlwqvf-===;12$2$O$&$&OO4--iw<f<46fc9bmbbb ",
"  xnln0aqge00p131232+%$%*O4445y&+pj&lie9MbNbbbb ",
"  sqiqwqg0h000O12+2$-$:$:*&&O6O4O*NMsmhm9Ns9Nmb ",
"  vilaqglgug000<323$3%$&*O4O&O3<uvMsxs9hmMNbNbN ",
"  sqtqtlt0B0000f<$-$2$O$&*&1&rBvvebehsh9sm999mN ",
"  vaaglgl0u000k0y<42$%$%V&qCuvuvevmvvsxsm9mNmbN ",
"  Bltlt0t0B00f<y<y<O33OyicCcZuBeBvbvsAsshmh9mNm ",
"  egltl000u0k0y<y5y5$6jcrcuCuCuvuvmvvvvhxsmhmM9 ",
"  Bqt0gf00Cf<k<y0O6OpfnrnrCcccBuZuNvveseshsm9M9 ",
"  xtl0lk00u0y<y5y5y5$0rrrcrccCuCuvNvehAhAsNhmM9 ",
"  @vtf000fZy<y<65<64pfaznrnuCccCZubeBeeehAsssmb ",
"   @v000k0u<y5f5y545$drirircrccCuCNBuvvvvvvhxs9 ",
"    @u0f<yeyO6O66O64-fizi,nrnrCcccbcBevAvvsesMs ",
"     @u0y<u5f5y<454O$<SirijrrurccCbCuBuvevmhAsx ",
"      @c<yc66664O4O4-filizi,nrnuCcbcvvBvvesehsh ",
"       @u5c5&545O4&&$<qiSirirrrcrcmCuCuBuvvvAse ",
"        @Cc6<464&4O*2Ozaiqiri,nrnCNCZcZuBevAshw ",
"         @x646&4O&%&$<aaqiSi,arrrumuuCuvuvxh0DF ",
"          @cO4O&&*O$2>tliaazirirnrbrCceesmw#DF  ",
"           @r&&&*&%&36qgqaqijirirjNCrCAs0DFD    ",
"            @cO*&-&$->tqtqiqizi,i,bushwFD#      ",
"             @jO$&$%=6lafaaaliji,cxh0DFD        ",
"              @r&$:$2>ttgqtqiqirhmw#DF          ",
"               -r%$%36lglglaqiAs0DFD            ",
"                @z%$2>tltqtqshwFD#              ",
"                 @r%;Oltlixs0DFD                ",
"                  Dr2>trsMw#DF                  ",
"                   @*0xs0DF                     ",
"                    D-wFD                       ",
"                                                ",
"                                                "};
