/* XPM */
static char *FattedCalf[] = {
/* width height num_colors chars_per_pixel */
"    48    48      162            2",
/* colors */
".. c #000000",
".# c #000b00",
".a c #00221c",
".b c #002254",
".c c #00421c",
".d c #006854",
".e c None",
".f c #111111",
".g c #13001c",
".h c #130b1c",
".i c #132200",
".j c #13221c",
".k c #132254",
".l c #13421c",
".m c #134254",
".n c #13681c",
".o c #136854",
".p c #1368a1",
".q c #139554",
".r c #1395a1",
".s c #333333",
".t c #383838",
".u c #392a2a",
".v c #392a41",
".w c #39332a",
".x c #3b0054",
".y c #3b0b54",
".z c #3b2254",
".A c #3b421c",
".B c #3b4254",
".C c #3b42a1",
".D c #3b6800",
".E c #3b681c",
".F c #3b6854",
".G c #3b68a1",
".H c #3b951c",
".I c #3b9554",
".J c #3b95a1",
".K c #3bc754",
".L c #3bc7a1",
".M c #444444",
".N c #464646",
".O c #545454",
".P c #545467",
".Q c #545c54",
".R c #546b67",
".S c #555555",
".T c #5b4670",
".U c #5b6170",
".V c #606060",
".W c #615467",
".X c #615c54",
".Y c #618067",
".Z c #666666",
".0 c #6b6b6b",
".1 c #710054",
".2 c #7100a1",
".3 c #710b54",
".4 c #710ba1",
".5 c #712254",
".6 c #7122a1",
".7 c #714254",
".8 c #7142a1",
".9 c #716800",
"#. c #71681c",
"## c #716854",
"#a c #7168a1",
"#b c #7168ff",
"#c c #717171",
"#d c #719500",
"#e c #71951c",
"#f c #719554",
"#g c #7195a1",
"#h c #7195ff",
"#i c #71c71c",
"#j c #71c754",
"#k c #71c7a1",
"#l c #71ff54",
"#m c #71ffa1",
"#n c #7c6b8c",
"#o c #7c8067",
"#p c #7c808c",
"#q c #7c9a8c",
"#r c #7f7f7f",
"#s c #7f7f8d",
"#t c #7f847f",
"#u c #828282",
"#v c #878787",
"#w c #886170",
"#x c #887f7f",
"#y c #888070",
"#z c #88847f",
"#A c #888888",
"#B c #88908d",
"#C c #88a670",
"#D c #8d8d8d",
"#E c #909090",
"#F c #989898",
"#G c #999999",
"#H c #9b9b9b",
"#I c #9c90a9",
"#J c #9ca08d",
"#K c #9ca0a9",
"#L c #9cb3a9",
"#M c #a09a8c",
"#N c #a09ac0",
"#O c #a0b88c",
"#P c #a0b8c0",
"#Q c #a1a1a1",
"#R c #a4a4a4",
"#S c #aaaaaa",
"#T c #aaaab3",
"#U c #aaadaa",
"#V c #afafaf",
"#W c #b0aaaa",
"#X c #b0aab3",
"#Y c #b0b5aa",
"#Z c #b0b5b3",
"#0 c #b22254",
"#1 c #b222a1",
"#2 c #b24254",
"#3 c #b242a1",
"#4 c #b242ff",
"#5 c #b26800",
"#6 c #b2681c",
"#7 c #b26854",
"#8 c #b268a1",
"#9 c #b268ff",
"a. c #b2951c",
"a# c #b29554",
"aa c #b295a1",
"ab c #b295ff",
"ac c #b2b2b2",
"ad c #b2c754",
"ae c #b2c7a1",
"af c #b2c7ff",
"ag c #b2ffa1",
"ah c #b2ffff",
"ai c #b5b5b5",
"aj c #b8b8b8",
"ak c #bbbbbb",
"al c #bdb5aa",
"am c #bdb5b3",
"an c #be8070",
"ao c #be80b0",
"ap c #bea670",
"aq c #bea6b0",
"ar c #bed070",
"as c #bed0b0",
"at c #c6c6c6",
"au c #cbb8c0",
"av c #d4d4d4",
"aw c #dddddd",
"ax c #eeeeee",
"ay c #f0f0f0",
"az c #ff42a1",
"aA c #ff6854",
"aB c #ff68a1",
"aC c #ff9554",
"aD c #ff95a1",
"aE c #ffc7ff",
"aF c #ffffff",
/* pixels */
".e.e.e.e.e.e.e.e.e.e.e.e.e.e.e.e.e.e#W#Z#I#O#V#V#V#O#R#Zai.e.e.e.e.e.e.e.e.e.e.e.e.e.e.e.e.e.e.e",
".e.e.e.e.e.e.e.e.e.e.e.e.e.e.e.e#Jatasawaeas#Casapas#Cakaeas#M#K#Val.e.e.e.e.e.e.e.e.e.e.e.e.e.e",
".e.e.e.e.e.e.e.e.e.e.e.e.e.eauahaFarap#.a..9#6.9.9.9#e#e#e#eaeaaaq#Mam.e.e.e.e.e.e.e.e.e.e.e.e.e",
".e.e.e.e.e.e.e.e.e.e.e#V#Oaxasa##.#6#.#6.9#..9#..D#..D#e.H#e#e#f#ea##g#M#U.e.e.e.e.e.e.e.e.e.e.e",
".e.e.e.e.e.e.e.e.e.e#QagaFapa#a.a##6a##.#7#.#6.9#5.9#e#da##e#f#ead#ead#f#H#E.e.e.e.e.e.e.e.e.e.e",
".e.e.e.e.e.e.e.e#Uauaxaq#7a##.#7#.a##.#7#.a..9#..9#e.D#e#e#f#e#f#ead#e#j#f#A#o#T.e.e.e.e.e.e.e.e",
".e.e.e.e.e.e.e#VatasaDa#a##6aC#7a##.a##6a..9#6.9.9.9#e#e#e#ea##ead#ead#jad#jaa#D#X.e.e.e.e.e.e.e",
".e.e.e.e.e.e#Yahaqa##7a##7#7#6#7#.#7#.#7#.#..9#..D#..D#e.H#e#e#j#e#f#ead#j#j#j#g.U#X.e.e.e.e.e.e",
".e.e.e.e.e.eatasaDa#aDa#aCa#a#a#aC#6a##.a##.#6.9#5.9#e#da##ea##ead#jad#jad#jae#jaa#u#S.e.e.e.e.e",
".e.e.e.e.eauasaD#7aD#7a##7aC#7#7#6a##.#7#.a..9#..9#e.D#e#e#f#e#j#ead#j#j#jad#j#k#j#f.Y#S.e.e.e.e",
".e.e.e.e#QayaDa#aD#7aDa#aD#7aCa#a##6a##6a#.9#6.9.9.9#f#e#f#ea##fad#iad#jae#jae#jag#j###B.e.e.e.e",
".e.e.e#VasaDa#aD#7aC#7aD#7a##7a##6#7#6#7#.#..9#..D#..D#e#e#f#ead#e#j#jad#j#j#jag#j#m#j#c#U.e.e.e",
".e.e.e#PaFaDaDaCaDaCaDa#aDa#aDa#aCa#a##6a##6a..9#5#.#e#ead#ead#jad#jae#jag#jag#lag#lag.I#n.e.e.e",
".e.eaiaxanaDa#aDa#aD#7aD#7aD#7a##7a##.#7#.a##.#..9#e.E#f#ead#e#j#jad#j#k#jag#j#m#lag#l#m.A#V.e.e",
".e.eauasaDaAaDaDaDaCaDaCaD#7aDa#aD#7aC#6aa#faaa#aa#faa#faa#iad#jae#jae#jag#jag#mag#lag#m#g.0.e.e",
".e#VasaD#7aB#7aDa#aDa#aDa#aDa#aD#7a#a#aa#faa#S#S#S#S#S#S#faa#jad#j#j#jag#j#m#lag#l#m#lag.K.O#U.e",
".e#QaE#8aDaBaDaDaDaDaDaDaDaCaDa#aDa#aaaa#S#S#S#S#S#S#S#S#S#Sae#jag#jag#lag#mag#mag#mag#mag.A#v.e",
".eataqaB#7aD#7aB#7aD#7aDa#aDa#aD#7aD#S#S#S#S##.Z.F.Z.Faa#S#S#Sae#kag#lag#mag#j#m#j#m#j#k#j#f.R.e",
"#WasaB#8aB#7aB#8aD#7aDaDaDaAaDaDaDaa#S#Saa.j.g.X.W.Q.W.N#a#g#S#S#S#kag#mag#jag#m#m#j#m#k#k.K.N.e",
"#Zaw#7#8#2#8#7aB#7aB#7aB#7aB#7aDa##S#S#A.#.V#U.e.e.e.e.e#E###g#S#Sae#kag#j#k#j#m.K#k.K#k.K#k.j#X",
"#IavaB#7aB#8aB#7aB#8aB#8aBaBaDaa#S#Saa.i.W.e.e.e.e.e.e.e.e#Faaaa#S#Sae#kag#k#k#jag#k#k#j#m#j.A#U",
"#Mas#2#8#7aB#7#8#7aB#7#8#7aB#7aa#S#S.F.f#S.e.e.e.e.e.e.e.e.e#yaa#S#S#f#k#j#k.K#k.K#k.K#k.K#k.n.V",
"auaqaz#2aB#2az#2aB#2aB#3aB#2aBaa#S#S.z.X.e.e.e.e.e.e.e.e.e.e#N#S#S#S#S.L#k.K#k.K#k.K#k.K#k.K.F.V",
"#Oaq#2#8.7#3#2#8.7#3#2#8#2#8#8#S#S#S.i.W.e.e.e.e.e.e.e.e.e.e#Laf#S#S#g#k.K#k.K#k.I#k.I#k.I#k.n.V",
"auaq#3#2aB#2#3#2aB#2#3#2aB#2#8#S#S#S.f.Q.e.e.e.e.e.e.e.e.e.e#Nae#S#S#S.K#k.K#k.K#k.K#k.K#k.K.F.X",
"#Maq.7#3#2#3.7#3#2#3.7#3.7#3###S#S#S.l.V.e.e.e.e.e.e.e.e.e.e#Oaw#S#S#S.L.I.L.q.L.I.L.q.L.I.L.n.V",
"#Naq#3#0#3.7#3.5.......5#1.5......#S.z.....O.e...e.e...e.......M#S...s.I.J.......J.......L.I.B.X",
"#Baa.7#3.5#3.5..aFaFaF...5.3..aa#S#S...S#v...e.........e..acag..#S.....J.c...q.J.q.J...J.q.J.j#T",
"aias#3.5#1#2#1..aFaFaF..#1.y..#a#S#S..#G#y...e...O.O...e.......A#S.......F...J.q.J.q...I.L.I.j#S",
"#Uaj#w#1.5#1.5..aFaFaF...3.2.g....#S.l.....z#q...e.e..at..aE#S#S..ae.d...o.......q.J...r.q.J.t.e",
".e#Rao.5#1.5#1..aFaFaF...2.1.2.3#3#S#S#S#SaaabaeaEaeaFawak#S#S#S#S.o.p.d.r.o.J.q.J.o.J.q.J.l.W.e",
".e#F#G#1.5.3.5..aFaFaF...y.4.z.6.z#8#S#S#S#S#S#S#S#S#S#S#S#S#S#S.I.p.o.p.d.d.d.p.d.o.o.J.d.j#t.e",
".e#z............aFaFaF..#1.h.......haa#S.7...................7.J.J.j.................m.o.G.t#S.e",
".e.OaFaFaFaFaFaFaFaFaF...5..aFaFaF...8.z.AaFaFaFaFaFaFaFaFaF...G.j.FaFaFaFaFaFaFaFaF.a.b.l.V.e.e",
"..aFaFaFaFaFaFaFaFaFaF...6..aFaFaF..#4..aFaFaFaFaFaFaFaFaFaF...G..aFaFaFaFaFaFaFaFaFaF...f#S.e.e",
"..aFaFaF.A.....xaFaFaF...z..aFaFaF...8..aFaFaF.B.............o.G..aFaFaF.a.....oaFaFaF...Q.e.e.e",
"..aFaFaF..#w.6..aFaFaF..#1..aFaFaF..#9..aFaFaF..ab#h#h#g#h.J#h.J..aFaFaF...p.J..aFaFaF..#W.e.e.e",
"..aFaFaF..#g.z..aFaFaF...6..aFaFaF..#a..aFaFaF..#hab#g#h#a#h.G#a..aFaFaF...J.o..aFaFaF...e.e.e.e",
"..aFaFaF..#u#a..aFaFaF...8..aFaFaF..#9..aFaFaF.C...........F.8.J..aFaFaF...p.J.j.......O.e.e.e.e",
"..aFaFaF..#S#p..aFaFaF...8..aFaFaF..#a..aFaFaFaFaFaFaFaFaF.m.o#h..aFaFaF...G.p.G.c.V#S.e.e.e.e.e",
"..aFaFaF...e#X..aFaFaF..#4..aFaFaF..#9.C.zaFaFaFaFaFaFaFaFaF...J..aFaFaF...G.J.j.v#S.e.e.e.e.e.e",
"..aFaFaF...e.e..aFaFaF...8..aFaFaF..#a.8.j...........FaFaFaF..#h..aFaFaF...J.a.v.......O.e.e.e.e",
"..aFaFaF...e.e..aFaFaF..#4..aFaFaF..#9#b#9#aab#hab#h..aFaFaF...J..aFaFaF...f.W..aFaFaF...e.e.e.e",
"..aFaFaF...e.e..aFaFaF...B..aFaFaF..#a#9#a#b#aab#h#h..aFaFaF..#h..aFaFaF..#s#S..aFaFaF...e.e.e.e",
"..aFaFaF.O....#raFaFaF..#n..aFaFaF..#9.C.............zaFaFaF...J..aFaFaF#x.....OaFaFaF...e.e.e.e",
"..aFaFaFaFaFaFaFaFaFaF...e..aFaFaF..#a..aFaFaFaFaFaFaFaFaFaF...k..aFaFaFaFaFaFaFaFaFaF...e.e.e.e",
".O#raFaFaFaFaFaFaFaFaF...e..aFaFaF...T..aFaFaFaFaFaFaFaFaF.w.u#r#r.OaFaFaFaFaFaFaFaF#r.O.e.e.e.e",
".e.O...................O.e.e.......e.e.P...................O.e.e.e#r.................O.e.e.e.e.e"
};
SIMPLE  =                    T                                                  
BITPIX  =                    8                                                  
NAXIS   =                    2                                                  
NAXIS1  =                   48                                                  
NAXIS2  =                   48                                                  
HISTORY Written by XV 3.10                                                      
COMMENT the GIMP was here                                                       
END                                                                             
                                                                                
                                                                                
                                                                                
                                                                                
                                                                                
                                                                                
                                                                                
                                                                                
                                                                                
                                                                                
                                                                                
                                                                                
                                                                                
                                                                                
                                                                                                                                                                                                                                                                                                                                                                                                                                                                                                                                                                                                                                                                                                                                                                                                                                                                                                                                                                                                                                                                                                                                                                }TT}}}}VT}}}T}}}}}T}S3/TT}}}}}t$}}}}TvN2wT}}}}}}Bttt}}}}}}tw[}}}}}}ataUw2T}}}}}N2waw2}}}}}}at4GaSa%`}}}}}taNUawSwT}}}}2QttatwG}}}}pQgwwSw}}}9!2aBGaGX}}}Qa}}}TDa29aU+`}}}gTTww4Ga8}}gD9D&E2Q2kSGSAAASAGGwA}}DgDg@3@9wݻGSAjGw^wGw^w+[}pgDgD9@
+2}}ƀ㪪AG^wj^w8}wDgkgg&t}TT}9Uw^w^kkTwDwDD9U}}Հw%^w^ww^ww[wTwDDgD2T}}}}D3kwwkB\TwkwTwkwTwTwg+`}}}}}}}}}}ݪk^k^k>`wkkwkkwkkX}}}}}}}}}}U\kTwkTwkk[}}}}}}}}}}Ȫkkk>`kkkkwk2\}}}}}}}}}}U`k~~~~~~U}}}}}}}}}~>`Ԥ~~[}}}}}}}}գգ9~k~~~~~`}}}}}g՗Ĥ~~
\[X[Ftտ՗տF}}Ư~~~~~gfUfUճտ՗~b}}㊻՗ճտտտտ9}}Ļ~~~~~՗ճՄT}}}Ļ~~u~~~՗տճտk}}}}~~~~_~___ZuL~uu՗ճ9}}}}}uuZq_uuu՗ճճkv}}}}}}Ļ~~~~u~u~__Z_H_Huu~uu՗q}}}}}}}𻔻~~uuZuZZZ~u~u~՗g}}}}}}}}}Ļ~~~~~u_~_Z_ZuHuu~uu~q}}}}}}}}}}Ļu__uZqZuquu}}}}}}}}}}}䯔~~~u~_~_~__Z_H_Hucuuu~ua}}}}}}}}}}}}}Ļu~_uZuZZZuuuuuu}}}}}}}}}}}}}}}~_~__~_Z_ZuHuu~u~uu~z}}}}}}}}}}}}}}}}}}u_~_uZqZuqu~uu~}}}}}}}}}}}}}}}}}}}}}Ĕ_u_uZ_Z_H_Hucuu~u}}}}}}}}}}}}}}}}}}}}}}}}}_ZuZZZuuuu}}}}}}}}}}}}}}}}}}}}}}}}}}}}}ݹēĥēę}}}}}}}}}}}}}}}}}}}}}}}}}}}}}}}}}}}}}}}}}}}}}}}}}}}
