/* XPM */
static char * mom [] = {
/* width height ncolors chars_per_pixel */
"64 64 7 1",
/* colors */
" 	s None	c None",
".	c red",
"X	c gold",
"o	c black",
"O	c dodgerblue",
"+	c white",
"@	c paleturquoise",
/* pixels */
"................................................................",
"................................................................",
".......XXXXXXXXXXXXXXXXXXXXXXXXXXXXXXXXXXXXXXXXXXXXXXXXXX.......",
".......XXXXXXXXXXXXXXXoooXXXXooooXXXXXXXXXXXXXXXXXXXXX XX.......",
"..XXXXXXXXXXXXXXXXXXoo...oooXo..oXXooooXXXXXXXXXXXXXXX  XXXXXX..",
"..XXXXXXXXXXXXXXXXXo........oo..oXo...ooXXXXXXXXXXXXXXX XXX XX..",
"..XXXX XXXXXXXXXXXXo.........o...o....ooXXXXXXXXXXXXXXXXXXX XX..",
"..XX  X  XXXXXXXXXXXo........o........oXXXXXXXXXXXXXXXXXXXX  X..",
"..XX XXX XXXXXXXXXXXoo..............oooooXXXXXXXXXXXXXXX XXX X..",
"..X XXXXX XXXXXXXXXXXoo........ooo.......oXXXXXXXXXXXX  X  XXX..",
"..XX XXX XXXXXXXXXXXXXooo..ooooOOOoooooooXXXXXXXXXXXXX XXX XXX..",
"..XX  X  XXXXXXXXXXXXXXXoooOOOOOOOOOoooXXXXXXXXXXXXXX XXXXX XX..",
"..XXXX XXXXXXXXXXXXXXXXoOOOOOOOOOOOOOOooXXXXXXXXXXXXXX XXX XXX..",
"..XXXXXXXXXXXXXXXXXoooooooooooooOOoooooooooXXXXXXXXXXX  X  XXX..",
"..XXXXXX XXXXXXXXXooooooooooooooooooooooooooXXXXXXXXXXXX XXXXX..",
"..XXXX  X  XXXXXXXXXXoOo+++++++oOOo++++++++oXXXXXXXXXXXXXXXXXX..",
"..XXXX XXX XXXXXXXXooOOo++oo+++oOOo++oo++++oXXXXXXXXXXXXXXXXXX..",
"..XXX XXXXX XXXXXooOOOOOo+ooo++oOOOo+ooo++oXXXXXXoooXXXXXXXXXX..",
"..XXXX XXX XXXXXoOOOOOOOOoo+++oOOOOOoo+++oXXXXXXoOOOoXXXXXXXXX..",
"..XXXX  X  XXXXoOOOOOOOOOOOoooOOOOOOOOoooOoXXXXXXooOOooooXX XX..",
"..X XXXX XXXXXoOOOOOOOooOOOOOOOOOOOOOOOOOOooXXoooOOOOOOOOoX XX..",
"..XX XXXXXXXXoOOOOOOOooooOOOOOOOOOOOOOOOOOOoooOOOOOOoOOOOoX XX..",
"..XX XXXXXXXoOOOOOOOOOooooooooooooooooooooOoOOOOOOOoXooooXX XX..",
"..XX XX XXXoOOOOOOOOOOOo.............ooo@oooOOOOOooXXXXXXX  XX..",
"..XXXXX XXXoOOOOOoOOOOOooooooo......o@@@@ooOOOOOooXXXXXXXX XXX..",
"..XXXXX  XXXoOOOOooOOOo@@o....oo...o@@@@oOOOOOOooXXXXXXXXXXXXX..",
"..XXXXXX XXXoOOOOOooOOoo@@oo....ooo@@@@ooOOOOooXXXXXXXXXXXXXXX..",
"..XXXXXXXXXXXoOOOOOooOOo@@@@ooooo@@@@@ooOOOoooXXXXXXXXXXXXXXXX..",
"..XXXXXXXXXXXXoOOOOOoOOoo@@@@@@@@@@@@ooOOOooXXXXXXXXXXXXX XXXX..",
"..XXX XXXXXXXXXooOOOOoOOo@@@@@@@@@@@ooOOooXXXXXXXXXXXXX  X  XX..",
"..X  X  XXXXXXXXXooOOoOOoo@@@@@@@@@@oOOooXXXXXXXXXXXXXX XXX XX..",
"..X XXX XXXXXXXXXXXoooOOOo@@@@@@@@@ooOoXXXXXXXXXXXXX X XXXXX X..",
".. XXXXX XXXXXXXXXXXXoOOOo@@@@@@@@ooOooXXXXXXXXXXXX XXX XXX XX..",
"..X XXX X XXXXXXXXXXXXoOOo@@@@@@@ooOooXXXXXXXXXXXXX XXX  X  XX..",
"..X  X  X XXXXXXXXXXXXoOOo@@@@@@@oOOoXXXXXXXXXXXXXXX XXXX XXXX..",
"..XXX XXX XXXXXXXXXXXXoOOo@@@@@@@oOoXXXXXXXXXXXXXXXX  XXXXXXXX..",
"..XXXXXX XXXXXXXXXXXXXXoOoo@@@@@oOOoXXXXXXXXXXXXXXXXX XXXXXXXX..",
"..XX  XXXXXXXXXXXXXXXXXoOOo@@@@@oOoXXXXXXXXXXXXXXXXXXXXXXXXXXX..",
"..XXXXXXXX XXXXXXXXXXXXXoOo@@@@@oOoXXXXXXXXXXXXXXXXXXXXXXXX XX..",
"..XXXXXX  X  XXXXXXXXXXXoOoo@@@@oooXXXXXXXXXXXXXXXXXXX XXXX XX..",
"..X XXXX XXX XXXXXXXXXXXoOOo@@@@ooXXXXXXXXXXXXXXXXXX  X  XX  X..",
"..XXXXX XXXXX XXXXXXXXXXooOo@@@@ooXXXXXXXXXXXXXXXXXX XXX XXX X..",
"..XXXXXX XXX XXXXXXXXXXXXoOo@@@oooXXXXXXXXXXXXXXXXX XXXXX XX X..",
"..XX XXX  X  XXXXXXXXXXXXoOo@@@oOOoXXXXXXXXXXXXXXXXX XXX XXX X..",
"..XXXXXXXX XXXXXXXXXXXXXXoOo@@@oOOoXXXXXXXXXXXXXXXXX  X  XXX X..",
"..XX XXXXXXX XXXXXXXXXXXoOOoo@@oOOooXXXXXXXXXXXXXXXXXX XXXX XX..",
"..XXXXXXXXXX XXXXXXXXXXXoOOOo@@oOOOoXXXXXXXXXXXXXXXXXXXXXXXXXX..",
"..XXXXXXXXXX XXXXXXXXXXoOOOOo@@oOOOOoooXXXXXXXXXXXXXXXXXXXXXXX..",
"..XXXX XXXX  XXXXXXXXXXoOOOOo@@oOOOOOOooXXXXXXXooXXXXXXXXXXXXX..",
"..XX  X  XXXXXXXXXXXXXXoOOOOOooOOOOOOOOooXXXXXooOoXXXXXX XXXXX..",
"..XX XXX XXXXXXXXXXXXXoOOOOOOOOOOOOOOOOOOoXXXooOOoXXXX  X  XXX..",
"..X XXXXX XXXXXoooXXooOOOOOOOooOOOOOOOOOOOoooOOOOoXXXX XXX XXX..",
"..XX XXX XXXXXoOOOooOOOOOOOOoooooOOOOOOOOOOOOOOOooXXX XXXXX XX..",
"..XX  X  XXXXoOOOOOOOOOOOOOooXXXooooOOOOOOOOOOOOoXXXXX XXX XXX..",
"..XXXX XXXXXXoOOOOOOOOOOOoooXXXXXXXooooOOOOOOoooXXXXXX  X  XXX..",
"..XX XXX XXXXXoOOOOOOOOOooXXXXXXXXXXXXXooooooXXXXXXXXXXX XX  X..",
"..XXX XX XXXXXXoOOOOooooXXXXXXXXXXXXXXXXXXXXXXXXXXXXXXXXXXX XX..",
"..XXXX   XXXXXXXooooXXXXXXXXXXXXXXXXXXXXXXXXXXXXXXXXXXXX X  XX..",
"..XXXXX XXXXXXXXXXXXXXXXXXXXXXXXXXXXXXXXXXXXXXXXXXXXXXXX X XXX..",
"..XXXXXXXXXXXXXXXXXXXXXXXXXXXXXXXXXXXXXXXXXXXXXXXXXXXXXX  XXXX..",
".......XXXXXXXXXXXXXXXXXXXXXXXXXXXXXXXXXXXXXXXXXXXXXXXXXX.......",
".......XXXXXXXXXXXXXXXXXXXXXXXXXXXXXXXXXXXXXXXXXXXXXXXXXX.......",
"................................................................",
"................................................................"};
