/* XPM */
static char * ddts [] = {
/* width height ncolors chars_per_pixel */
"64 64 9 1",
/* colors */
" 	c darkseagreen1",
".	c seagreen",
"X	c black",
"o	c #FFF",
"O	c gray60",
"+	c white",
"@	c maroon",
"#	c orange",
"$	c #FFFFFFFF7070",
/* pixels */
"   ..........................................................   ",
"   ..........................................................   ",
"   ..                                                      ..   ",
".........                                              .........",
".........                                              .........",
".. ..  ..                                              ..  .. ..",
".. ..  ..          XXXXX                               ..  .. ..",
".. ......          XoooX                               ...... ..",
".. ......          XooXX                               ...... ..",
"..                 XoXXX  O                                   ..",
"..                 XooXXO  OO                                 ..",
"..                 XoooX  O     OO                            ..",
"..               XXXoooXX  OO       OO                        ..",
"..              XOOOXXXOOXX              OO  O                ..",
"..             XOOOOX+XOOOXX    OO             OO             ..",
"..             XOOOOXXXOOOOX  O          O            @       ..",
"..             XXOOOOOOOOOXXO       OO           @ O  @       ..",
"..             X#XXXXXXXXX#X  O  O           O   @   @        ..",
"..             X###########X O           O       @   @        ..",
"..             X###########X  O O    O            @  @        ..",
"..             X###########X     O           OO    @ @        ..",
"..             X###XXX#####X             O       O  @@        ..",
"..             X###X##X####X    O  O       O         @@       ..",
"..             X###X###X###X                         @@       ..",
"..             X###X###X###X     O    O      @@@@@@ @@@       ..",
"..             X###X###X###X       O   O    @$$$$$$@@@@       ..",
"..             X###X##X####X                @$$$$$$$$$@       ..",
"..             X###XXX#####X             O  @$$$$$$$$@@       ..",
"..             X###########X        O        @@@@@@@@@@       ..",
"..             X###########X         O  O       @$$$@ @       ..",
"..             X###XXX#####X               O   @$$$$@@@@      ..",
"..             X###X##X####X          O       @$$$$@ @@@      ..",
"..             X###X###X###X              O  @$$$$$@ @@@      ..",
"..             X###X###X###X                 @$$$$@   @       ..",
"..             X###X###X###X            O     @$$@            ..",
"..             X###X##X####X             O     @@             ..",
"..             X###XXX#####X                 O                ..",
"..             X###########X                   O              ..",
"..             X###########X               O     O            ..",
"..             X###XXXXX###X                                  ..",
"..             X#####X#####X                 O                ..",
"..             X#####X#####X                   O              ..",
"..             X#####X#####X                                  ..",
"..             X#####X#####X                                  ..",
"..             X#####X#####X                                  ..",
"..             X#####X#####X                                  ..",
"..             X###########X                                  ..",
"..             X###########X                                  ..",
"..             X####XXXX###X                                  ..",
"..             X###X#######X                                  ..",
"..             X###X#######X                                  ..",
"..             X####XXX####X                                  ..",
"..             X#######X###X                                  ..",
"..             X#######X###X                                  ..",
"..             X###XXXX####X                                  ..",
".. ......      X###########X                           ...... ..",
".. ......       X#########X                            ...... ..",
".. ..  ..        XXXXXXXXX                             ..  .. ..",
".. ..  ..                                              ..  .. ..",
".........                                              .........",
".........                                              .........",
"   ..                                                      ..   ",
"   ..........................................................   ",
"   ..........................................................   "};
