/* XPM */
static char * DiskCD_xpm[] = {
"48 48 63 1",
" 	c None",
".	c #CF3CCB2BBEFB",
"X	c #CF3CCF3CCF3C",
"o	c #E79DD34CCF3C",
"O	c #CF3CB6DA8E38",
"+	c #9E79AAAA9658",
"@	c #BEFB8A288E38",
"#	c #9E79C30B79E7",
"$	c #BEFBB2CAB6DA",
"%	c #B6DAC71BAEBA",
"&	c #9E799E79C71B",
"*	c #8E3892489E79",
"=	c #E79DDF7DE79D",
"-	c #C71B618530C2",
";	c #79E771C628A2",
":	c #69A661852081",
">	c #618538E338E3",
",	c #5144924830C2",
"<	c #BEFBAAAA4103",
"1	c #C71B92489E79",
"2	c #EFBEF3CEEFBE",
"3	c #9E798A284103",
"4	c #A699BAEA4103",
"5	c #69A6C30B8E38",
"6	c #71C671C68617",
"7	c #38E3C30B4103",
"8	c #DF7D924838E3",
"9	c #8E3869A669A6",
"0	c #AEBAE38D71C6",
"q	c #EFBEA2899E79",
"w	c #8E38EBAD9658",
"e	c #618569A671C6",
"r	c #BEFB51449658",
"t	c #38E35D754103",
"y	c #30C23CF34103",
"u	c #30C230C228A2",
"i	c #104024921040",
"p	c #186100000820",
"a	c #28A23CF330C2",
"s	c #082014510820",
"d	c #A699C30BA699",
"f	c #2081186130C2",
"g	c #000069A65144",
"h	c #38E3A2899658",
"j	c #30C234D36185",
"k	c #596549245965",
"l	c #79E7410371C6",
"z	c #104000000000",
"x	c #000000000000",
"c	c #28A269A68617",
"v	c #000010400000",
"b	c #000000001040",
"n	c #FFFFFBEEFFFF",
"m	c #9E796DB6D75C",
"M	c #5965082069A6",
"N	c #1040618571C6",
"B	c #79E74924B6DA",
"V	c #10409A6928A2",
"C	c #30C279E79E79",
"Z	c #79E76185BEFB",
"A	c #38E35144AEBA",
"S	c #596571C6D75C",
"D	c #96588A28EFBE",
"                                                ",
"                 .XoXO++@##$%&+*++              ",
"              .==#-;;:>;:::;;,< *1+             ",
"            %2.<33;-;;;;:;;;,;,3,#+&+&          ",
"           =o3-3-;3;>;>;:;;;;4;4;4356+          ",
"        +X2@3-3-3-;3;;;::;;;,;,,4,4476**        ",
"        oX83@8-333-;-;>;::;;;4;4,4,4#46*@       ",
"      +=.@8@-93-3-3;;;;;:;;,,;4,44747#566*      ",
"      o.8@888893-3-;-;>;:;;;;,3,4,#4#400,6*     ",
"     $o@q8@@8@8-333;;;;::;;;4;4,447#5450we6+    ",
"     2q8q8r8r8-<-3-3-;>;::;;,,4,4744505050>*+   ",
"    =qqqr8q8@8@3893-;;;;:;;,3,44745450050w5t+   ",
"   %oqq8qq8@8@-@-8-3-;;;:;;;4,4,4#4w4500w0w,6   ",
"   2@qqqqrq8q@8@893-33>;:;,;44,454w50w0wwwwwy+  ",
"  .Xqrqqqqq8q8r8@8-33@@3+4@464454w54w0wwwwwwte  ",
"  =1qqrqqqqrqq8q8@@@#*    & ++70700w0wwwwwww5u+ ",
"  Xrrqrqr8qq8qq-@@@#          +##wwwwwwwwwwwwt6 ",
" $$rqrqqrqrqqqqq81    6ttee&    wwwwwwwww5w5w,y ",
"*Xrqrqrrqrqrqrqrq1  *ipu>yau6+   #wwwwww5w5w55i ",
" =rrrr8r@rqrqrqq1  6su*     66&  dwww5w5555555i ",
"*Xr8rrrrqrrqrqrO  +if        6*+  +w5557w55755a ",
"%$rrrr@rrr8rrr@1  ts*         *@  555555555555g ",
"$1rrr-rrrrrrr-r1  fu         +&    55755h75h57j ",
"%$rrrrrr-rrrrr@   sk           $  dh75h575h57ht ",
"$1r>rlrrrlr>rrr   sy          $X   h5hh7hh57h5t ",
"%1rrlr>rlrlrlr9   ut          %=   h7hhhhh7hhht ",
"& lrrlr>zzx>llzxx uxxu x  x xxxj xuhcvxvhxbxh7j ",
"+$lrlllznnnzljzm  x>*x xxxx x.2x xxcgxhc7hxhhhi ",
"  rllrMpnnnxM>x6  x+>x xuux xxxy xxvjxc7ccvc7ci ",
"+ lMllMpnnnxMMpzx uxxu+x  x.xo  x&gvNvxxhNvchNs ",
" *rlrMlznnnxMMMMB    +& $X=o$    cNgNNcgcVCNhau ",
" **MMlMznnnxMMlMlZ              hcNNggVCgNhNVfe ",
"t6zzzzzxnnnxMfpbxf6 axxxxxxxxxa6CivvvvbvvvagNs+ ",
"eunnnnnnnnnxMznnnxByunnnnnnnnnxCfjnnnnnnnnifa>  ",
"xnnnnnnnnnnxBxnnnxBxnnnnnnnnnnxAvnnnnnnnnnnxs*  ",
"xnnnyxxfnnnxMvnnnxBxnnnjxxxxxxNSxnnnixxNnnnxy   ",
"xnnnx>MznnnxBxnnnxZxnnnxDDDSSSShxnnnxccxnnnx@   ",
"xnnnx6MxnnnxlbnnnxZxnnnx&DSDS&CSxnnnxCcxnnnx    ",
"xnnnx*6xnnnxBxnnnxZxnnnAxxvxvcjSxnnnxCCixxxu    ",
"xnnnx*6xnnnxBxnnnxZxnnn2nnnnnjcSvnnnxCCCau*     ",
"xnnnx *xnnnxBxnnnxmjjnnnnnnnnnxSvnnnxCCii*      ",
"xnnnx  xnnnxBxnnnxZAfxxxxxA2nnxSvnnnxCfixxxu    ",
"xnnnx  xnnnxBxnnnxZmZDmDDDxnnnxSvnnnxskxnnnx    ",
"xnnnx  xnnnx>xnnnxZDZDDDDDxnnnxSvnnnxe*xnnnx    ",
"xnnnuxxennnx6xnnnxmebxbxbxjnnnxSvnnn6xxunnnx    ",
"xnnnnnnnnnnx xnnnxZxnnnnnnnnnnxfxnnnnnnnnnnx    ",
"uennnnnnnnnx xnnnxixnnnnnnnnnszetunnnnnnnneu    ",
" uxxxxxxxxxu exxxe+fxxxxxxxxxi* eexxxxxxxxu     "};
