/* XPM */
static char * maroon_xpm[] = {
"64 64 46 1",
" 	c None",
".	c #650000",
"+	c #640000",
"@	c #630000",
"#	c #620000",
"$	c #600000",
"%	c #5F0000",
"&	c #5D0000",
"*	c #5C0000",
"=	c #5B0000",
"-	c #5E0000",
";	c #610000",
">	c #590000",
",	c #580000",
"'	c #570000",
")	c #560000",
"!	c #5A0000",
"~	c #540000",
"{	c #530000",
"]	c #520000",
"^	c #510000",
"/	c #550000",
"(	c #500000",
"_	c #4F0000",
":	c #4E0000",
"<	c #4C0000",
"[	c #4D0000",
"}	c #4B0000",
"|	c #4A0000",
"1	c #480000",
"2	c #470000",
"3	c #490000",
"4	c #450000",
"5	c #420000",
"6	c #410000",
"7	c #3D0000",
"8	c #3B0000",
"9	c #3F0000",
"0	c #460000",
"a	c #400000",
"b	c #390000",
"c	c #440000",
"d	c #3C0000",
"e	c #430000",
"f	c #3E0000",
"g	c #3A0000",
"......+++++...+@#$%&*==========**&&-%%$$;#@@+...................",
"....++#;##@@+++@$%*>,'')'''))''',>>!=**&%$#@++..................",
"..#$-***=&&-%%%-*>'~{]^^^]]]]]]]{{~~/)),>=*-%$$$$$$$%--&&&&&-$@+",
"..$*!,,,>!!=**&=!,~]^(_(^^^(^]^((^(^]]]{~)>!*&----&**=!,')/),=$#",
".+&>)//',>!=*=*!>'/]]^((^]^^{{^^^^(_(::_^{),!*&&&&**=!,){]((^/*-",
"+#=)~{~),>!=**==>,)~{{{{{/~///~~]](_:<[[:^{'>!=*&&&*=!,/]_[<<_~,",
"#$>~]{~/'>!==*==!>,')/)'',,,>','/{]_[<}<[:^~),!!===*=!,/]:|121[]",
";&){]]]~/'>!!!!>!>>>>,,>>>!!!==>)/]([}|||<:^~)''>>!!=!,/][34564}",
"%!/]^^]{{{))'',,,>>>!!!!!=====!>'/{([[}|}<:(^]~~)'',,')~^<157890",
"->/](^^^((^]{~/)',',,>>,,>,>!!>,)/{__:[[::__(((^]{~//~{(:|0abb74",
"*>/{]^^_[<<[:_^{~/))')))))//)//~{{]^((^(^^^(((:::__((_:<32c9dd92",
"&!'~{]_[|333}[_^^]{{{]]^_((((((((((((]{~~/{{^_[<<}}}|314cc556e2<",
"%*>)/]_<1221|<:____:[<<|333|3||}}<:(^{/'')/{^:}|204ce6aaaa641}_{",
"$$=,){_}1023}[:::[<|120ccceeec401|<_]/',,'/](<3045997787fa50<]'!",
"##&!'~(<321}[__::<|0cc56af9f9a5c23<_]~/''){([}0e69ddgbgd7a4|('&%",
"@@%*>)]:|33<:((_:<|14ee5a9ff96541}[({~)//~^:}24597d8g887a4|_/!;;",
"++%*!'{:<}<:_^^^([[|104ee5aa5c01<:^]~//~{^([|2c669ff7fae4}_{>&@@",
".+$&=,/^_[[:((^(_:<<|3224cc401|<_({/~~~{](_[}3204eecec03[(/,*$++",
"..;-*!)~^_:::_::[<}}||1220041|<_^]~~~~~]^((_[<<}}||3}<:({'>*%;..",
"..$-*!,/{^(::[}||311212222023}[_^^{~{{{{{]]]]^^^(]^^^]~),!*-$#..",
"..$-*!>'/~^:<}11000420221213|}[(^^^]]]]{~~/)))))))'')',!=*-$;#..",
"..$-*!>,)~]:}304cce44001331|}<:((^^^^^^]{~),,>>!!!!!!!!=&-%%$#..",
"++;-&!>,)/^[|24ceec4213}<}}<[:__^((^(((^{~),>!=****===**&&-%$;..",
"++$-*=>,)~([|0cee401}}[[______(^^]^^(((^{{/',>==****==***&&&%;..",
"@@$-*!,)~^_<14ce42|<:(]]]{]^]]{{]{{]]^^]{{~/)',!=======!!==*-$..",
"@#$-*>'~]_<34ccc03[(]{))///~~~/////~{{{]]]{{~/)',>!>!!>>>>>!&$..",
"#;$-=,/{_<30cec23[({)'''''')')',''')//~{{{]]]{~/))',,,,',',>=-..",
";;%&=,/^[|2cee03<(~'',,,>,,,,>>!!>>>',)/~{]]]^]{~~/))/))))',!-++",
"$$-*=,~^:|04e41<(~',!!!!!!====*=====!,,'//~{{{]{{~~{~/~~~//'>&@+",
"%%&*!,/]_<3223}_{),!======***&&&&*===!>>'')//~/~~{~~~{~{~~//,*#@",
"%%&=!,){^_[}|<_^~,!=*===*=*&&&&&&&**=!!!>,,''''')//~~{~~{{{/'=$#",
"%%*!>,)~]^(:_(^~),>!!=!===**&&&&***====>>>>>>>>>>,,,))~{{]]{)>%;",
";$&!,'))/~{]]{{~)',,>>>>>>!==****===!!!!!>!!===!==!>,'//{{]{/>-;",
"#;&>')''''))///////)/)//))',>!!!!!!!!!!!!!!!!=====!!,')/{{{{/>-;",
"@@&>'))'',,,''/~{]]]]]]]]{{//)'',,,,,,>>>>>!=!!!!!>>''//~~~/)>%#",
"++-!'))'>!!!>'/~]((_:_[:__(^^{{~///)''',,>,>>>,,,'''))/))))),=$#",
"..%>')',>!=!!,)~](:[[<<<<<[[__(^]]{/~/',','')))///~~~~/))))',*##",
"..%!,''>!===!,'/{](_:[<[[<[[::_(^^]{~/)))))///{{{]]]{{{/////'=;#",
"..%=,,>!====!!>')/~]]^((__(((((^]]{~///~/~~~{]]^((((^^^]]]{~/!$#",
"..%=!>!!=======!!>>'')~~~~{{{{{~{~////~~{{]]((___:_[_:((((_^~'-$",
"..%*!!==*******&&&**=>,,'''''))')/)~/~~]]]((___::[[<[<[:[[:_]/&$",
"..%*!!=******&-%%%-&**=>>>>,,'')))/{]{]^^(^_::[[<<}}|<}<<<[_^)&%",
"..$*!!==**&&&-%$%%--*=>>,,,')))/{{{^^(^^((((_:<<}333|||}<<[_]'&$",
"..%*!!!=***&&-%%%-&=>,))~~~~{~{{]^^(((((^^((:[}}||33|}}<[:_^~>%;",
"..%=>>>!===**&&&&*=,/{](((((^^^((((__^^^]^^((:[<}}}}<<:__^^~)=;#",
"..%!,,,>!!!!!!!!!>'~(:<<}<:::___:___^^]]]]^^(_::[::__(]]{~~/>*@@",
"..%!'))',,,''')')~^_}3333|<:::____((({]{{]]]^((^^^]~{~//''''!-++",
"..%>)/~))')/~{]]^(:}32213}[:::::_(_^^{]{~{{]]]]~~/),',,>,,,,!&++",
"..-,/{{{/~{{^(_(__<}3133}[:__:::____^]^{{]]{~~~))'>>>!>!>,,,>&@@",
"..&'{]^]{{]^____(::[}}}<:_(^(_:[[[::((^]]]]{~//'',>>,>,>,''',=;;",
".+*)](_^]]^^(_(^]]^((_(^^^]](:[[<}[[__(^^]{{~~/)'')'))')))))'>%%",
".@!~(:[_(^^^(^]~/))/~{{~/~~]^_:[<[<::_((]]{{~~//////~~~{~~~~/>**",
"+#,^[}}[_^^^^]~',',,,''''')~{](::::((^]]{{~~/~//~~{{]]{{~~{{/)!!",
"@$'_|13<:(]{{~),!!=!>>!!>>,,/~{]]]]~~~///))''''/)~~~{{{{]^^]{)>>",
"@$)[144}_]~/)'>!=*******===>>,')))'',',>>>>>,>,,'))//~~]^(^]])>,",
"@$)[144}_{),>!=&&&&-&---&&****==*=********==>>,>,,''))/{^^^^{~,,",
"@$'_102<^/>=*&--%%-%%%%%%---&--&-%--%%--&*=!>,,',,,'))~{]((^{/>,",
"+#,^}|}_{,=&%%$$$$$%%%%%%%%---%%%$$$$$%%-&!>')//)')))/~]^^(^{)!!",
".@=~:[_])!&%$;;;;$$$%%%%-----%%$%$$;;;$%&=>)/{]{{~~~/{{](^^]~'*=",
".+&,{^]/>*%$#####;;$$%%-&&&&&-%$$;;;#;$%&!,/]^((^^]{]{{]^{{~)>&&",
"..$*,)'>*%;##@@###;;$$%-&*==*&%$$;###;$%&!'/{^(^]]]~~///~/)'!=$$",
"..#$-&*-%;#@@@@@@@##;$%-&=>>=&%$;#@@@#;%-*>')~/~/)',>>!!!!=*-%##",
".....+@@+++.......++@#;%&=>>=-;#++...++@#$%&*=**&&%%%$$$;;;#@@@+",
"..................++@@#$%&==*%;@++....++@#;$%%$$$;;#;###@@@@++++"};
