/* XPM */
static char * FaxRecieved_xpm[] = {
"48 46 64 1",
" 	c None",
".	c #9658A2899658",
"X	c #EFBEEBADEFBE",
"o	c #DF7DDF7DEFBE",
"O	c #69A682078E38",
"+	c #96589A69AEBA",
"@	c #9658A289BEFB",
"#	c #EFBEE38DDF7D",
"$	c #C71BCF3CDF7D",
"%	c #BEFBCF3CD75C",
"&	c #C71BB6DACF3C",
"*	c #BEFBCB2BC71B",
"=	c #AEBAB2CAD75C",
"-	c #104014511040",
";	c #96588A28BEFB",
":	c #8E388E389E79",
">	c #861779E78617",
",	c #28A230C22081",
"<	c #000000000000",
"1	c #71C67DF7A699",
"2	c #28A228A230C2",
"3	c #BEFBB2CABEFB",
"4	c #9E79AAAAC71B",
"5	c #69A665959658",
"6	c #618571C679E7",
"7	c #104020812081",
"8	c #A699AAAAA699",
"9	c #410341035144",
"0	c #618561856185",
"q	c #5965596571C6",
"w	c #492449245144",
"e	c #618571C69658",
"r	c #618561858617",
"t	c #1861186128A2",
"y	c #71C671C69E79",
"u	c #618561859658",
"i	c #DF7DDB6CDF7D",
"p	c #38E3451438E3",
"a	c #514461858617",
"s	c #618551449658",
"d	c #514451448617",
"f	c #4103514471C6",
"g	c #5144514471C6",
"h	c #000008200820",
"j	c #71C661859658",
"k	c #618551448617",
"l	c #4924410371C6",
"z	c #492449246185",
"x	c #410341036185",
"c	c #30C241035144",
"v	c #30C230C25144",
"b	c #618571C69E79",
"n	c #38E338E36185",
"m	c #514451446185",
"M	c #28A2249238E3",
"N	c #30C230C24103",
"B	c #208130C24103",
"V	c #38E330C25965",
"C	c #2081208130C2",
"Z	c #514451445144",
"A	c #38E328A24924",
"S	c #208110402081",
"D	c #514461855144",
"F	c #BEFBB2CAAEBA",
"                 .XoXoXoXO    +oXoXoXo@.        ",
"                 .#$%&*&=-    .o+;++:>,         ",
"                 .X$%%&*=<    +o@+:1>O2>        ",
"                 3#$*&==4<    .4.::>O5,6        ",
"                 *$%&==447+8+8+4:1>OOO90        ",
"                 $%&==4=45+=4=4qO>O5O5ww        ",
"                 $$==44446:@@+@6OOOOe6q,        ",
"                 o==444@45O+:>+5O5656rqt        ",
"               <<o=4444@4O:::1@6yO56u6r7<<      ",
"              <$ioi$io$$*&&&=4@;;;;;;;;;;>p     ",
"       8+.+...4%111O1Oyyye5eueuruasadqdfgfh<    ",
"     ::4@;@;@:%1O>yy5555ejuurkrkqkgdglglzzt0    ",
"    +4;rgzxcvO=O1Oyyyb5e5euauaradadfdflzlzn7    ",
"   :@1aqmxpMN=11yyy555ejuursrkqkgdglglzzxx9h<   ",
"  .@;rkgzcvBr41Oyyyeyeueuauaradqdfgfgzlzxnx2w   ",
"  .;5kgl9VNN41y>O>y>y>yy5555ejejejuurkrkax9n-   ",
" .=Ouadzxcvg4OyzCCCCCCC2M2M2MBNBvNvNvcVcdanc-<  ",
" :4yrkgz9VN:1yyt<<<<<<<<<<<<<<<<<<<<<<<<-5cVBM  ",
" 4;euqgz9Nx41bk<hzgfgzlzxxxzxcncVcvNvBv7<glcvh< ",
".4+jrqmxpNO;5yM<cjuuryxkqkgj2lglzlgv9n9VhCuvNtZ ",
"+41rkglcvc4OyehC5euru1vadaduMxgzlzuBxnncAhunvBS ",
".;5kglxVNj;55nhuuursu1vkgdguMlzlxxrMcncVvtNkNA-<",
"+15adzxcv:1byhxeuauayaladfdeMzlzxndcvcvcvB-evBtp",
">jrkgz9VN:O5gSuurkrkOVgdglgu2zxx9nxg2VvvNMNxgMN-",
":avNNBN2M;1eCquruara;cdfdfgaMzxnxnxaMcvBvBvB5Bvh",
">zCCtt7S7;5j9ursrkakudglglzlclxn9ncnBvNANABANABh",
".z---.<h-@yeuauaradadfdfgzlzxnxnxcVcvBvBvBvBvBvh",
".>h<<.<<<gmlzzxx9x9x9V9VpVvVpVvVpVvVpVvVpVvVpVvh",
"     Z<  hMBMBM2M2M2M2MCM2CCCCCCCCCtCCC7C7C7t7th",
"     <<  hC2CCCCCCCCCCttCCtttttttt7ttt7S7S7S7S7h",
"     Z< ZhCCCtCCC7CtC7C7C7t7C7t7S7-7S7-7-7-7-7-h",
"     <Z <htttS<<<<<<<<<<<<<<<<<<<<<<<<<<<<<----2",
"    << Zhp-7t7<<<<<<<<<<<<<<<<<<<<<<<<<<<<<h-ht<",
"    Z< <h ph--<2M2,2M2,2M2,2M2,2M2,2M2,2M2<h<t< ",
"    << Z<  p-h-ZZ<<<<<<Z<<<<<<Z<<Z<<<<6DZp<ht<  ",
"   <Z< <<<  pS*>0>0>0>0>0>0>0>0>0>0>0>0>0>-Z<   ",
"   <<Z  Z<<  8*>><<<<Z<<<<<><<<<<.<Z><<<>>A<    ",
"  ZZ<   <<Z  338.888888888888888888888888800    ",
"  <<<   <Z<  %388<<<F<<<Z<<Z<<<<F<<<<<<<F88p    ",
" <Z<     <<  $3383F3F3F3F3F3F3F3F3F3F3F3F3FM    ",
" <<Z     Z<  i&*<ZZ<<3<<Z<<<<Z<<<<<<<<<<&3&w<   ",
" Z<      << 8$*&***&*&*&*&*&*&*&*&*&*&*&*&*>0   ",
" <<Z    <Z< *i$%<<Z%<Z<%<<<<<<.<<<.<$<<<<%$3p   ",
" ZZ<<Z<<Z<< i#iii#iii#i#i#i#i#i#i#i#i#i#i#i#p   ",
"  <<<<<<<<  XoXoooXoXoXoXoXoXoXoXoXoXoXoXoXo0   ",
"            X<<<<<<<<<<<<<<<<<<<<<<<<<<<<<<<<   "};
