/* XPM */
static char *Gambit-small[] = {
/* width height num_colors chars_per_pixel */
"    39    48      253            2",
/* colors */
".. c #000000",
".# c #000011",
".a c #00004b",
".b c #111111",
".c c #111122",
".d c #110011",
".e c #110000",
".f c #110011",
".g c #111122",
".h c #111111",
".i c #111111",
".j c #111122",
".k c #111122",
".l c #111144",
".m c #111144",
".n c #00006b",
".o c #111111",
".p c #222222",
".q c #222233",
".r c #222244",
".s c #222255",
".t c #213231",
".u c #00373c",
".v c #223366",
".w c #331177",
".x c #110011",
".y c #221111",
".z c #221122",
".A c #222233",
".B c #221144",
".C c #222255",
".D c #222211",
".E c #222222",
".F c #222233",
".G c #222244",
".H c #222255",
".I c #222255",
".J c #331177",
".K c #222211",
".L c #282828",
".M c #213231",
".N c #333344",
".O c #222255",
".P c #223366",
".Q c #223366",
".R c #224444",
".S c #223366",
".T c #3b3b77",
".U c #224444",
".V c #221111",
".W c #221122",
".X c #331177",
".Y c #222211",
".Z c #321e2e",
".0 c #333344",
".1 c #222255",
".2 c #334411",
".3 c #2b2b2b",
".4 c #333333",
".5 c #333344",
".6 c #333344",
".7 c #223366",
".8 c #3b3b77",
".9 c #323297",
"#. c #334411",
"## c #394435",
"#a c #383840",
"#b c #3f445e",
"#c c #3b3b77",
"#d c #3b3b77",
"#e c #334411",
"#f c #3b3b77",
"#g c #326497",
"#h c #326497",
"#i c #321e2e",
"#j c #222244",
"#k c #395854",
"#l c #41749b",
"#m c #222211",
"#n c #321e2e",
"#o c #334411",
"#p c #333333",
"#q c #333333",
"#r c #433146",
"#s c #394435",
"#t c #4e3684",
"#u c #3f445e",
"#v c #44573b",
"#w c #4e5a79",
"#x c #4e5a79",
"#y c #326497",
"#z c #4e5a79",
"#A c #4e5a79",
"#B c #41749b",
"#C c #334411",
"#D c #433146",
"#E c #433146",
"#F c #44573b",
"#G c #4e3684",
"#H c #616561",
"#I c #3b7777",
"#J c #544458",
"#K c #44573b",
"#L c #692244",
"#M c #394435",
"#N c #394435",
"#O c #444444",
"#P c #4e3684",
"#Q c #55555d",
"#R c #4e5a79",
"#S c #646497",
"#T c #41749b",
"#U c #666622",
"#V c #666688",
"#W c #668d8d",
"#X c #773b3b",
"#Y c #773b3b",
"#Z c #773b3b",
"#0 c #6644aa",
"#1 c #666622",
"#2 c #666622",
"#3 c #666622",
"#4 c #6b769a",
"#5 c #6677bb",
"#6 c #5f8ebf",
"#7 c #668d8d",
"#8 c #5f8ebf",
"#9 c #5f8ebf",
"a. c #6b6b6b",
"a# c #692244",
"aa c #692244",
"ab c #77003b",
"ac c #665577",
"ad c #616561",
"ae c #889999",
"af c #777788",
"ag c #773b3b",
"ah c #773b3b",
"ai c #666622",
"aj c #773b3b",
"ak c #666622",
"al c #77773b",
"am c #77773b",
"an c #7c9366",
"ao c #8b99b5",
"ap c #8899bb",
"aq c #707080",
"ar c #82869c",
"as c #7c9366",
"at c #828282",
"au c #773b3b",
"av c #889999",
"aw c #7c9366",
"ax c #904430",
"ay c #904430",
"az c #976432",
"aA c #976432",
"aB c #976432",
"aC c #8899bb",
"aD c #8899bb",
"aE c #86777a",
"aF c #904430",
"aG c #90596e",
"aH c #9e773e",
"aI c #907c99",
"aJ c #8e8a9e",
"aK c #889999",
"aL c #991111",
"aM c #991111",
"aN c #976432",
"aO c #af8874",
"aP c #999999",
"aQ c #999999",
"aR c #9d9db3",
"aS c #93aecc",
"aT c #99bf72",
"aU c #9e773e",
"aV c #973232",
"aW c #9e773e",
"aX c #a8a8a8",
"aY c #aaaaaa",
"aZ c #9e773e",
"a0 c #904430",
"a1 c #904430",
"a2 c #aa1111",
"a3 c #aa1122",
"a4 c #b4b4b4",
"a5 c #aacccc",
"a6 c #aacccc",
"a7 c #aacccc",
"a8 c #b4b4b4",
"a9 c #af8874",
"b. c #9e9999",
"b# c #bf5f2f",
"ba c #baa0a7",
"bb c #b5aaaa",
"bc c #bf5f5f",
"bd c #bf5f5f",
"be c #bb1111",
"bf c #cc1122",
"bg c #b72828",
"bh c #bf2f2f",
"bi c #bf5f2f",
"bj c #bf8e5f",
"bk c #bf8e5f",
"bl c #bfbf5f",
"bm c #af8874",
"bn c #bf5f5f",
"bo c #af8874",
"bp c #bfbf5f",
"bq c #ddcc77",
"br c #d15538",
"bs c #bf2f2f",
"bt c #c4c4c4",
"bu c #cc1111",
"bv c #cc1122",
"bw c #cc1111",
"bx c #cc2222",
"by c #d15538",
"bz c #bf5f5f",
"bA c #bf5f5f",
"bB c #bf5f5f",
"bC c #bf8e5f",
"bD c #bfbfbf",
"bE c #d15538",
"bF c #ee887c",
"bG c #cc2222",
"bH c #dd5566",
"bI c #dd5566",
"bJ c #dd5566",
"bK c #d15538",
"bL c #dd5566",
"bM c #ee887c",
"bN c #ee887c",
"bO c #ee887c",
"bP c #ee887c",
"bQ c #ee887c",
"bR c #ddcc77",
"bS c #e3bba3",
"bT c #ddcc77",
"bU c #ddcc77",
"bV c #e2e8c9",
"bW c #e3bba3",
"bX c #e3bba3",
"bY c #e3bba3",
"bZ c #ee887c",
"b0 c #e2e8c9",
"b1 c #e3bba3",
"b2 c #e3bba3",
"b3 c #ee887c",
"b4 c #ee887c",
"b5 c #ee887c",
"b6 c #ff9999",
/* pixels */
"bfbxbfbubfbxbubxbubfbfbfbubxbxbfbxbfbfbubububfbubububububfbebebfbfbfbxbfa3bxa3",
"bua2a2a2a2a2a2a2a2a2a2a2a2a2a2a2a3a2aLa2a2aLaLaLaLaLaLaLaLaLaLaLaLaLaLaLaLaLaL",
"bf.z.l.B.s.s.p.y.b...e.e.e.e.d.y.b.e.y.b.d.e.d.d.....d.d.d.y.e.y.b...d.d...d.d",
"bx.c.s.B.s.s.c.y.b...#.#.....#.e.b.d...y.b.y.#.#.e...d.....b.d.d...e.d.#.b.y.d",
"bf.c.B.r.s.s.c.d.d.d.e.d.....y.#.#...d.e.#.d.d.......#...b.#.b.e.....#.d...b.d",
"bx.c.r.l.l.s.b.b.#.#.#.#...............e.#.b.b.b.....b.........e.....d.#...e.d",
"bf.c.B.r.l.#.#.d.b.#.d.b...............#.....d.b...y.b.....#.b.....b.......e.d",
"bf.c.r.r.c.l.r.b.y.b.d.y.b.#.d.b.#.b.......b.#.e.d.b.#...............e.d...y..",
"bf.c.s.l.l.r.c.b.l.v.b.#.d...#.........#.#.#.............b.........#.#...#...d",
"bf.c.s.c.B.c.c.v.v.b.l.p...d.d.b.......b.....b...........d.................d.d",
"bu.c.l.r.c.c.v.l.b.q.b.c.c.p.y.#.....e.......d...........#.b...............e.e",
"bu.c.r.l.l.l.r.q.s.t.c.t#a.4.y...............#.........#...................d.d",
"bu.c.l.l.c.l.l.s.v.s#w.t.b##.b.y.#.#...#.......d...#...........#.....#.#.d.d.d",
"be.c.B.z.l.v.l.v.v.q.t.b.lal.b#Q.#.#.....#...#.#.#.#.#...#...#.#...........d.d",
"be.c.B.c.s.s.v.v.v.c.t.l.Tae#v#k.b.#.#...#...#.#.#.#...#.#.c.Z#X#L.D.e.#.d.d.d",
"be.c.B.c.s.s.s.l#g.l.v.c#gaf.w#W.....#.#.#.#.d.d.d#taIbbbSbSbjbcbraz.e.d.d.d.d",
"bu.b.b.l.s.s.s.v.N.v.T.q.Tan#4#H.eaVaIal#v#J#tbaanbSbSbSbSbq.y.Z.q#X.b.d.d.d.d",
"be.b.l.l.r.s.s.R.s.T#l#4#6ae#S#Q.b#XbbaOana.#Q.paXbSbSan##.z#J#v.4.b.p.#.b.d.d",
"bu.b.b.B.s.s.r.l#g.v#4#6#Iae#6an.c##.b.vaX#a.p.B.Z.B#0bDbq##.b.l.t.s.p.b.d.d.d",
"bf.b.d.l.l.s.s.n#w#l#g#W.b.c.t.N.z.B.d.b.p#J#V.N.TbVbSan.b.b.B.v#b.N.R.b.d.b.d",
"bu.c.b.d.s.s.r.l#g#w#4#6#wbSbVal.y.b.b.c.c.N.4aIatbtaT.b.d.l.v.B.T.t.b.d.d.d.d",
"bu.z.l.r.s.s.s#g.T#l#4#6#W#Q.b.N#w.q.N.r.q.qbSbSaOal.t#Q.s.t.s.s.R#J#X.b.d.d.d",
"bf.z.r.r.s.s.s.T#w#g#5#Wapaoae.q.b.R.r.b.b.cb6bFbabj.D.b.c.N.D.laGbjaz.b.e.d.d",
"bu.z.l.B.l.s.s#w#g#l#6#4#6apaoaSaX#k.b.d.y.cbbbFbFbSbF#v.y.b.cbjbcbr.D.e.d.b.b",
"bf.z.B.s.v.v.s.9#w#l#S#6aoapaoapa5a5#v.Zbg.cbFbqbFbFbSbFaObcazax.4.y.D.b.d.b.d",
"bf.z.l#5a..B#b.l#g#g#4#l#6ap#6aSa5a4an.z.2.cbHbrbrbFbFbFbjbFbr.D.D.y.#.b.d.b.d",
"bx.cbabbbtbq.v.T.q.T#g#W#6aeaSa5aYa5aX.2.D.ybjbqbrbFbSbjbFbrbrax.b.e.d.b.d.d.d",
"bx.BbtaPaebtan.T#g#g#S#6#QaXal#aaoaSa4al.y.b.ZaxaV#abFbjbFbjbr.y.b.#.b.d.d.b.d",
"bx.BbSaOafbDbt.R.T#w#g#wanbqbqbqb.#ba5aY#U.baxaz#L#L#abFbrbFbr.b.b.d.d.d.b#U.y",
"bf.cblaeanafbt#Q.9#g#w#HbjanaOaObSaPaRa5aT.b.yaV#Xbjbjbjbjbrbr.b.d.b.b.b#U.z.2",
"bf.BbSaOafafanb.##.4.q.z#H#l#ka.bjanaSa5b..D.caVbcbFbjbcaHb#ax.b.b.d.z#U.Zax.D",
"bf.z#H#a.l.ra.ataObSaT#H#g#4a.#QbqanafaXaP.p#X#XaHbjbjbrbc#U.Z.y.d.D##.3#X.2.2",
"be.z.B.l.s.s.s##.p####.l.9#lalbqbqbqan#b#k.DbrbcbrbHbrbcaH...d.d.b.4axazax#U.2",
"bu.z.l.l.s.s.v.v.v.T.9#w#l#H.sbl#U.4#J#tar##abbgbhb#bHbrbjaH.p.yax#v#U#X#Uax.2",
"bx.z.r.B.s.s.v.v.v#g#k.9#ga.#baHal.b#waoae.2.y.D.b.ybhbrbHbF.2##.yax.2.zax#U.2",
"bx.y.B.l.s.s.v.v.v.T.T#g.T#w##aObqaH#w#v.b.y.y.zbcaObj#X#Xal.4axaxalax#U#X#U.D",
"bu.z.r.r.s.s.s.v.v.v.v#g.T#g#g.r#Q#k.D.b.....b#LbHbjbF.2aH#X#U#Xaz#Xaz#U#Xax.2",
"bx.y.B.l.B.s.s.v.v.v.v.T.T.T#I#w.2.b.d.b.#.#.daVbHbjbqaH#L.tazazax#Ual#X#Uax.2",
"bu.z.l.l.B.s.s.s.v.v.v.v.v.v.v.b.D.D.b.b.#...d.Zaxaxb##U#Lazaz###U.L.3axax#U.D",
"bf.z.B.B.B.s.s.v.s.s.v.v.v.b.y.b.b.b.y.#.#...#.d.d.b.z.D#U#Xaz#U.y#Xax#U#Uax.2",
"bf.z.r.B.r.s.s.s.v.v.v.s.t.D.b.y.y.b.y.......d.d.y.z#U#Xal#U#U#X#U.Daxaz#U.e.b",
"bf.z.r.B.B.s.s.s.s.s.r.p.d.d.b.b.D.y.b.......#...y.3.z.2#L#L.2#X#X#Uax#U.y.z.D",
"bx.z.B.l.s.B.s.s.s.r.b.b.b.D.y.b.d.D.y.b.....c...bax#X.2#X#U#L.D.2ax...b.2ax.2",
"bf.z.s.r.r.B.s.s.s.c.b.b.b.d.b.z.b.e.y.y.e...#.d.p.2#U#U.D.yax.2.2.D.D.b#X.2..",
"bf.z.B.r.s.r.r.s.r.b.d.b.D.D.D.y.y.y.D.D.y...d.2.y.2ax.2axax.2#X.y.y#U#U.e.b.d",
"bf.z.B.B.B.s.l.q.D.b.D.b.z.D.y.y.y.D.b.D.y.b.Z.y.4.4.2#X.2.2.y.y.D.D.z.e.3ax.2",
"bf.y.q.z.B.c.q.b.d.D.b.y.y.y.y.b.b.y.b.y.y.b.b.y.2.D.y.D.D.y.d.2.y.e.b.2.2.D.D",
"bfbxa3a2a2bea3bebea2a2a2a2bebfa2bea2bebebebebebxbubebubububebubea3bea3bfbea3be"
};
SIMPLE  =                    T                                                  BITPIX  =                    8                                                  NAXIS   =                    2                                                  NAXIS1  =                   39                                                  NAXIS2  =                   48                                                  HISTORY Written by XV 3.10a                                                     END                                                                                                                                                                                                                                                                                                                                                                                                                                                                                                                                                                                                                                                                                                                                                                                                                                                                                                                                                                                                                                                                                                                                                                                                                                                                                                                                                                                                                                                                                                                                                                                                                                                                                                                                                                                                                                                                                                                                                                                                                                                                                                                                                                                                                                                                                                                                                                                                                                                                                             S\HEEKHKKEEEEKSEKEKKKKK\QKQQQKQKHKHSKHKS$$6666S)$'336O66+[6S')'')' 66[6[[6O[[S)''))) "6[[[66O6 \))))'   [O6O[?6[ 6[6S')))))'"    +6??6OO[[[S'')))555),   [Om[[O[[m[S))5))555 [Om[O[[[[6Q)))5555555 '[[x[?mm=[(+[[[\))5555DDDbZ6T†—Ä{?,mm[[mO[[6Q'')))5555ZDZZ'VL  ?†—©6{O[OmOm[O[6\))555DDZDZ=’Ä{ZL€’—OOm3[[m[[O[\'))555ZLAZkF{mZ˜“6`{†©6=[6[[6Q))555DAZhc)°[3LJˆ=2Y`x†{—{"[L[O[[6K)))="==AhmÄÄÄ„FL{€{†{€{ 3[m[[6Sc9'k‚’Å¥cZwkVÄ„y¨™"OO{——{€['=+O66SÅ’yy„š=3$chLk—„©ÀšT€©—€{x[['[S°“„yÄVAZZc—„’’Å™ À¥TO————{{[6\Å’y¿Ä8DZZZ„ÄÄÄšFÀª[[m??9©{©{[\Ä™“Ä„DZZk…V¨m9˜©´m'[T9©—©—{\ª­ÄÄ5D$DZ…“©ÀªÀ¨6—Ä{©Å—©{{[S{kFZZwh…˜…©À´„6†{{©©©—©{S)55)AZhk…˜˜˜˜ÀÀL'Y©Ä©©Å©’€m[3Q))ZZh…w…˜˜©¨L­©©Å©L—€{S'')))DZZ{˜˜“$8'¼©ª—5o—mQ')))ZDhw…V5Z$5'$$ÅÅ’m,V),))8LOQ))'ZZw…ZÅám53‡‚Ä¥5D,S))ZhZ,5"Lk5DáÅ„5F58Q))'Z5w…b“…„=5¨9"'_¿Ä=,)"K'))8)Dhw…“kVO­’„kV"¨ÅÅ„=LL3"Q)))555D$D„wcT‡mLLJª„ÅÅÅÅÄ'$OK)))Z5Zy,  J‡­ÅÅ—€{mK))555,D“LL   'O?K555$,mV          Q)5)Z,=            Q''$),,93                    Q'5$"                 S)55"                   S)'5                 S'''            S'                 \')                S'))          \)))        S))"     QEEEEEEEEEEEEEEEHE?EE??????????????????S\SQS\Q\QSSSQ\\S\SSQQQSQQQQQSKKSSS\SH\H                                                                                                                                                                                                                                                                                                                                                                                                                                                                                                                                                                                                                                                                                                                                                                                                                                                                                                                                                                                                                                                