/* XPM */
static char * Concurrence_xpm[] = {
"48 48 65 1",
" 	c #514451445144",
".	c #FFFFFBEEFFFF",
"X	c #000000000000",
"o	c #FFFFFBEEEFBE",
"O	c #71C679E771C6",
"+	c #1040000030C2",
"@	c #2081000030C2",
"#	c #E79DE79DD75C",
"$	c #000000002081",
"%	c #000000001040",
"&	c #186100004103",
"*	c #28A200005144",
"=	c #A6998A28BEFB",
"-	c #AEBAAAAAAEBA",
";	c #104000002081",
":	c #30C200006185",
">	c #208110406185",
",	c #CF3CCF3CFFFF",
"<	c #4103000071C6",
"1	c #9E799A699658",
"2	c #208120818617",
"3	c #AEBAAAAAFFFF",
"4	c #51445965C71B",
"5	c #000008205965",
"6	c #30C208208E38",
"7	c #E79DFBEEFFFF",
"8	c #000000005144",
"9	c #514418618E38",
"0	c #208100006185",
"q	c #618538E39658",
"w	c #B6DA8E38CF3C",
"e	c #69A638E39E79",
"r	c #30C238E328A2",
"t	c #38E341034924",
"y	c #71C64103AEBA",
"u	c #71C65144AEBA",
"i	c #69A65144C71B",
"p	c #79E75555BEFB",
"a	c #618551446185",
"s	c #8E386595C71B",
"d	c #9E795965BEFB",
"f	c #9E7971C6BEFB",
"g	c #51443CF36185",
"h	c #8E389A698E38",
"j	c #0000000030C2",
"k	c #000000004103",
"l	c #A69969A6CF3C",
"z	c #9E7971C6CF3C",
"x	c #30C238E39658",
"c	c #000010406185",
"v	c #082018616185",
"b	c #0820208171C6",
"n	c #104028A28E38",
"m	c #0000104071C6",
"M	c #208128A29E79",
"N	c #38E338E3AEBA",
"B	c #38E34924B6DA",
"V	c #51444924BEFB",
"C	c #59655965CF3C",
"Z	c #69A669A6CF3C",
"A	c #A6999A69EFBE",
"S	c #000010404103",
"D	c #96587DF7E79D",
"F	c #1040104071C6",
"#n	c None",
"                                               .",
" XXXXXXXXXXXXXXXXXXXXXXXXXXXXXXXXXXXXXXXXXXXXXX.",
" XoooooooOXXX+@@o#oooooX$%$$$%$$$%$$$%$$$%$$$%$.",
" XoooooOXXX+++&*=oooooo-X$$$$$$$$$$$$$$$$$$$$$$.",
" XoooOXXX;@+&@**:#ooooooX$$%$$$%$$$%$$$%$$$%$$$.",
" XoOXXX++++&&**>>-oooooo-X$$$$$$$$$$$$$$$$$$$$$.",
" XXXX;@+@+&&**::::........X$$%$$$%$$$%$$$%$$$%$.",
" XX;;++++&>**:>.#,..............................",
" X+;@;@+&&**::<#=1-----------------------------.",
" X;++@+&>:*>>>2,=----------------...............",
" X@+@+&&::::<><#=1---------------.....3454543...",
" X+@+&>:>:>>262,1=--...----------...73837..34...",
" X@+*&*:::<><96#=#--.--..--------...383.....3...",
" X+*>:0>>>26269,1=--.----..------...85..........",
" X***:>9>><q6q9#w#--.------..----..354,...,.....",
" X>:>>2>2626999##w--.------------..383..7...7...",
" X::::<><q9q9ee#1---.------rt----..354..........",
" XX>2<2629q9eee,#w--.----tr------...84.....4....",
" XX9<9<q9q9eeee#w---.--rt--------...383...34....",
" XtX262qqq9eyyu##w--.tr----------...738585837...",
" X#r6qqq9eeeyyy#w----------------.....3333......",
" X.tXqq9eeyiuiu##----------------...............",
" X..rqeeeeyyyup#aO                             .",
" X..OreeeyuiupppsdfgtgggggO1hOh1h Xjjjjkjjjjjjj.",
" X...reeyyiuppdsdfltggagaaah1O1h1OXjjjkjkjkjjjj.",
" X...wryupuppssdfzfggggxaaOOh1hOh1 Xkkk8kkkkkkj.",
" X....ryiuppdsdfl=lgagaga#-ooooooo#X8k8k8k8k8kk.",
" X....#rpppssdflzz=wwwwo--ooooooooo1Xkkkk8kkkkj.",
" X.....rppdddfl=l=wwwo--ooooooooooooX8cvccccccc.",
" X.....wrssdfzz==wwo--ooooooooooooooX5bnbbbmvmc.",
" X......rsdfl=w=wo--ooooooooooooooohXc22Mn2nnbm.",
" X......-rflz==o--oooooooooooooooohXmMxxMMMMnnb.",
" X.......rl=wo--oooooooooooooooo1XXcxNBNNNNxxM2.",
" X.......-ra1-oooooooooooooooohXXmmMB4V4V4BBNxM.",
" X........11..oooooooooooooo1XXmmMBVCiiiZiCVVNx.",
" X oooooo.ooooooooooooooo.hXX5mnNBA777777777ABN.",
" $X-oooooo.ooooooooooooo1XXk8cMMNVA7-------tAVB.",
" $X oooooo.ooooooooooohXXkk5vnnxBCA7------->ACB.",
" %$X-ooooooooooooooo1XXjkSccmn6NV4sA.-----tAsiV.",
" $$X ooooooooooooohXX$$k5ccmvnMBBCZD7-----tAzZV.",
" $$%X-oooooooooo1XX%$jkS85cvFnMNVisA,.---r,ADZC.",
" $$$X -ooooooohXX$$jjkS85ccmbnMBBiZD,7--->,zzZV.",
" %$$$X ooooo1XX$$%$$jjkk85ccmn6NV4sDA,.-t,lzsiV.",
" $$$$$X h1hXX$$$$$$$jkS8Sc5cvnMNB4izAA7-r3DzZCB.",
" $$%$$$XXXX%$$$%$$$$jjkS85c5vbMMNVCZDD,,,DDZiVB.",
" $$$$$$$$$$$$$$$$$$jjjj8S55cvbnMNBVCisA,DDiCCVN.",
" %$$$%$$$%$$$%$$$%$$jjkkkS85cvF2xNBVC4iiCiCVVNx.",
"................................................"};
