/* XPM */
static char * HandPointingLeft_xpm[] = {
"48 48 64 1",
" 	c None",
".	c #BEFB8A2869A6",
"X	c #D75C9A6969A6",
"o	c #D75CBEFB9658",
"O	c #BEFB9A6979E7",
"+	c #9E79820769A6",
"@	c #A69996588E38",
"#	c #86176DB66185",
"$	c #69A65D755144",
"%	c #59654D344103",
"&	c #86177DF771C6",
"*	c #B6DA71C64924",
"=	c #E79D9E796185",
"-	c #EFBEAEBA71C6",
";	c #FFFFBAEA79E7",
":	c #EFBEAAAA69A6",
">	c #BEFB79E75144",
",	c #A69975D65144",
"<	c #965865954924",
"1	c #9E798A2879E7",
"2	c #A699A2899E79",
"3	c #71C64D3438E3",
"4	c #86174D3430C2",
"5	c #BEFB82075144",
"6	c #CF3C8A285144",
"7	c #E79DAAAA79E7",
"8	c #9658555538E3",
"9	c #F7DEC30B8617",
"0	c #71C6410328A2",
"q	c #79E7492430C2",
"w	c #8617555538E3",
"e	c #A699618538E3",
"r	c #596538E328A2",
"t	c #30C21C711040",
"y	c #69A63CF328A2",
"u	c #71C6451438E3",
"i	c #FFFFD75C8617",
"p	c #49242CB22081",
"a	c #18610C300820",
"s	c #38E320811861",
"d	c #F7DEB2CA69A6",
"f	c #596530C228A2",
"g	c #596534D32081",
"h	c #F7DEC30B79E7",
"j	c #38E324922081",
"k	c #F7DEB6DA71C6",
"l	c #28A218611040",
"z	c #6185410330C2",
"x	c #596534D328A2",
"c	c #492428A22081",
"v	c #69A6451430C2",
"b	c #69A638E328A2",
"n	c #FFFFD75C9658",
"m	c #410328A22081",
"M	c #FFFFDF7D9658",
"N	c #FFFFDF7DA699",
"B	c #FFFFEBADAEBA",
"V	c #FFFFEBAD9658",
"C	c #FFFFF3CEAEBA",
"Z	c #FFFFF3CEB6DA",
"A	c #FFFFEFBEA699",
"S	c #49243CF330C2",
"D	c #208110401040",
"F	c #492430C228A2",
"                                                ",
"                                                ",
"                                                ",
"                                                ",
"                                                ",
"                                                ",
"                                                ",
"                                                ",
".Xo.OOO..OO+@O+++#$$%%$#&&                      ",
"+*==-;;---:X=X=---:X..>,<11@                    ",
"234,*.55.5556X=77X65*<4386X9@2                  ",
" 2#$03q0w<<<e*..,rtyu4q4e56:iO12                ",
"       1@@&&$0ptasu343yq8e>=ddX11               ",
"             &asf0e5,3gq34*=hd:761@             ",
"             $jr4,5w0g3u38*Xhh;kd:XO2           ",
"             %ru,<rslz4u3we6d;h;kkd7Xo          ",
"             3x40plcqw<wxy0e:k;h;;hhd-o2        ",
"             $gclc00,.wcvb0e=hnniooiihhio2      ",
"             2maf0ye,ptx0y8,6:;inMNMNMnnno2     ",
"              1x3g8<stfuy4,**5=iNNBBBBVVinoo    ",
"             o2,ffcalx004<,<34*hiiMCZZCCVVMo@   ",
"             214ssalfzyq85w4gbw.=:hnBZAAVVVNO   ",
"            @<urjtlpzgxe5Xsccmpbw*XkinnnMMVin2  ",
"           2<0rfjlszxgx,O#alltmcgq*:hhh;i9iVBO  ",
"           #yrfclajvrcq7osaattttppx56i7k7:diAo1 ",
"           3xpacz3+O1v0XoSassstljpg0eh-:*5=hMZ+ ",
"           %sl3@2   oowb<SDsmmmtmpFp8XX.b8=d9ZO ",
"           1%&        @zmtlallaltFFFb,.yce6kiCO1",
"                       2#Stj$$$$$%lDDaarx4>:9B9&",
"                         @$&      &ltmFFr0*:9Bi#",
"                                   %mFFff0*:9BN+",
"                                   1mFFrx0*:hBM+",
"                                   2mfrrr45:iBN+",
"                                    Sxxxxw>dnZN+",
"                                   1puzzg46diBN+",
"                                   &pvxzxw>dMBN+",
"                                   $puz0b8>dVNC+",
"                                   $Suyxb8>dCNN+",
"                                   $zuvf04>dZZo+",
"                                   $zuzyg8>;ABo+",
"                                   %zu0v0469CCn+",
"                                   Suuzxq86iZZn+",
"                                   Szv0yqe=iZZi+",
"                                   Svu0y4e:VCZh+",
"                                   juvvyw*;VCZn+",
"                                   su0yq8>kAAZn,",
"                                  2ju0rqe69CACn,",
"                                  @muyy4e6dCANM+"};
