/* XPM */
static char * HomeOpen_xpm[] = {
"48 48 64 1",
" 	c None",
".	c #514441034103",
"X	c #38E3492438E3",
"o	c #EFBEEBADEFBE",
"O	c #5144410330C2",
"+	c #6185410330C2",
"@	c #410351444103",
"#	c #000000000000",
"$	c #4103410330C2",
"%	c #BEFB92489658",
"&	c #DF7DCB2BBEFB",
"*	c #618561855144",
"=	c #492445145144",
"-	c #71C628A21861",
";	c #861745142081",
":	c #BEFB82079658",
">	c #8617820771C6",
",	c #965871C671C6",
"<	c #96588A2879E7",
"1	c #965892489658",
"2	c #71C675D669A6",
"3	c #4924492469A6",
"4	c #79E775D68E38",
"5	c #71C669A62081",
"6	c #965879E75965",
"7	c #EFBEEBAD0000",
"8	c #AEBA55555144",
"9	c #861771C65965",
"0	c #EFBEDB6C0000",
"q	c #30C228A21861",
"w	c #000030C21040",
"e	c #000030C20000",
"r	c #9658CB2B9658",
"t	c #208138E31861",
"y	c #104051441040",
"u	c #186118610000",
"i	c #30C230C25144",
"p	c #208120812081",
"a	c #000061851040",
"s	c #104034D31861",
"d	c #28A228A230C2",
"f	c #082061850000",
"g	c #A699A289A699",
"h	c #B6DAA6999658",
"j	c #104020811040",
"k	c #000010400000",
"l	c #C71BAAAA9E79",
"z	c #082008200000",
"x	c #208110402081",
"c	c #208120810820",
"v	c #618565956185",
"b	c #186155551861",
"n	c #9E7992489658",
"m	c #9E79A2899658",
"M	c #AEBAA2899658",
"N	c #000020810000",
"B	c #514441032081",
"V	c #410371C64103",
"C	c #410361854103",
"Z	c #208141032081",
"A	c #410361855144",
"S	c #30C2514430C2",
"D	c #30C2618530C2",
"F	c #28A2410330C2",
"                            .X.X.               ",
"                       oO+      @ @X@           ",
"                      o+#O+        $            ",
"                     oO#$#O+    oo%&o *         ",
"                    o+#$=$#O-   o;;*:;#         ",
"                   oO#$=>,$#O+  &%;%;%#         ",
"                  o+#$=<12,$#O+ %-;%3-#         ",
"                 oO;$=>141>,$;O+*-*;%-#         ",
"                o+5$=61<o116,$5O+*:*3;#         ",
"               oO7$=>14ooo411,$7O+-8%-#         ",
"              o+5$####++8O+####$5O+-;;#         ",
"             oO;$=#77#77977-77#,$;O+--#         ",
"            o+#$=6#70q77877q07#6,$#O+-#         ",
"       w   oO#$=>1#77-77977-77O1>,$#O+#         ",
"       e  o+##=<1<#q-q-q8q-q-q+112,$#O#         ",
"      rw o3#$=#14oO77-77977-77Oo41t,$#O+        ",
"      y ui#$=6p>oo+70q77877q07+oo>p6,$#O+       ",
"     raw3se=>1>dooO77-77977-77Ooo=>1>,$#O+      ",
"    yfoe#e3<1<oXro8989898989898orXo112,$#O+     ",
"     oawe3e1uoor@oOoooooooooooOo@roo41>,$#O+    ",
"    yisfue1<oooo.g+ooooooooooo+h.oooo116,$#O+   ",
"   o3#ayayayooooh=OoooooooooooO=hooooo41>#$#O+  ",
"  oi#r4eyejajooooX+ooooooooooo+Xooooooo11#,$#O+ ",
"  33ayek3waw3hllhh@lhhllhhllhh96hhllhhllh8O+O;O ",
"  #fre#ezkkexcxcxcxcxc-;5;-cxcxcxcxcxcxcx###### ",
"  aweskzk3ew3+O;O+#77q77777#77#;O+O;O+O;O#      ",
" rya eji2fzkjq2.2*+77#######77+..v.9dX...#      ",
"  eb wabeXe2<n9n9gO77#777###77On929Xr2rX93      ",
"re fyf ezoskumoovo+70#770###07+&%&ooo*o*%*      ",
"e eweseweskzos*o&gO77#777###77O&&govmgovmv      ",
"  jejfjejeyej&omMm+77#077###77+&vmo*Mmvooi      ",
"a eb re3awkkkgovmoO77#777###77O&ov*oovmvm#      ",
"rfs  eskzekkzmsoom+70#770###07+o%mM*omMmo#      ",
" rayesewesawks&gmoO77#777###77Oomooomvmo&3      ",
"  jere ay*zkkeje&m+77#077###77+mMm%oMm%m&i      ",
"eyewazakewNMew&wmoO77#777###77OMmg&o*&o&*#      ",
" esf eskzkkeuksmv&+70#770###07+*omom&mMm%i      ",
"ayezkyByvsazkokgogO77#777###77Oymgoovvmyo3V     ",
"rfjeje-ej*jekeyeMm+98#0777##89+kj&%eyeoajiCk    ",
" w wkwekkwewew3w=3O+O;O+O;O+O;-bez3wez3kk3kCZ   ",
" eseukkkukkeuesC5CCC5C7m5mMo5CCezesezesezese$   ",
"  ZAVCVzkCVAVCVAVCVAVCV7V7VAVCVAVCVAVCVAVCVAVd  ",
"  $CCCSBkC@DSbFZSSSSS2%CCC%CMmCCCCCCCCCCCCCCCS  ",
" dVCVZbqkwewsZbZbZbSD42C2g7CmgVCVAVCZAVCVAVCVAZ ",
" SCC5SZtZtZtZtFDuSSDXSSD5CMC5CCC@D@D@D@D@D@D@D@ ",
"ZCD@DCDXDSbZDZsZDCD@mg  mCV   mgD@SXD@SXD@SXD@SX",
"FZdZFZdSFZdZFZdZFZdZ@m  MZdmMmdZFZdZFZdZFZdZFZdZ",
"spspspspspspspspspspspspsFFpspFFspspspspspspspsp"};
