/* XPM */
static char * HomeNeighborOpen_xpm[] = {
"48 48 64 1",
" 	c None",
".	c #EFBEEBADEFBE",
"X	c #410341036185",
"o	c #30C251445144",
"O	c #30C241036185",
"+	c #000000000000",
"@	c #51444D344924",
"#	c #618561855144",
"$	c #59654D346185",
"%	c #DF7DC30BBEFB",
"&	c #4103492438E3",
"*	c #8617820771C6",
"=	c #965869A669A6",
"-	c #38E351445965",
";	c #A69992489658",
":	c #082014510820",
">	c #082004100820",
",	c #965882076185",
"<	c #965882078617",
"1	c #965892489658",
"2	c #208114511040",
"3	c #104020811040",
"4	c #69A661856185",
"5	c #2081249228A2",
"6	c #28A238E328A2",
"7	c #208120812081",
"8	c #410330C230C2",
"9	c #71C671C66185",
"0	c #514430C24103",
"q	c #30C21C711040",
"w	c #596579E79658",
"e	c #30C230C20820",
"r	c #38E3492430C2",
"t	c #EFBEEBAD0000",
"y	c #514441034103",
"u	c #EFBEEBAD1040",
"i	c #6185410330C2",
"p	c #5144410330C2",
"a	c #618541034103",
"s	c #965869A65144",
"d	c #38E3618538E3",
"f	c #38E361855144",
"g	c #9E79A2899658",
"h	c #965892488617",
"j	c #38E334D35965",
"k	c #B6DAA2899E79",
"l	c #104028A21861",
"z	c #000010400000",
"x	c #104000000000",
"c	c #EFBEDB6C1040",
"v	c #9658BEFB9658",
"b	c #000030C20000",
"n	c #208151442081",
"m	c #596559650820",
"M	c #104069A61040",
"N	c #38E38E384103",
"B	c #000030C21040",
"V	c #410361854103",
"C	c #A699A6990000",
"Z	c #410371C64103",
"A	c #30C2410330C2",
"S	c #186130C21861",
"D	c #186141031861",
"F	c #000020811040",
"               .Xo                              ",
"              .O+Oo                             ",
"             .X+@+Xo  .#$%+                     ",
"            .O+&*=+-o .%;.+            ::>      ",
"           .X+@,<1=+Xo.#;.+    # 22:   32>      ",
"          .O+@*1.1*=+Oo%4$+    2566552753       ",
"         .X+89<1..<1=+Xo%;+    >2706575q5#      ",
"        .O+@++++w+e++=+-o$+     :   6&r8#$      ",
"       .X+8,+tOtwtqt+,=+Xo+           @#y82     ",
"      .O+&@1+uouwueu+1*8+Oo             &8:     ",
"     .X+@+<.OtXtwtXt+.<7=+Xo   .ip      $r      ",
"    .O+&*7*.ou-uwu-u+..7*=+-o .i+ap             ",
"   .X+8,<.y.wwwwwwwws.y.<1=+X.i+@+i8  .#$%+     ",
"  .O+&*1..d.f.......d.d..1*=.i+8*=+ap .%g.+     ",
" .X+89<....&-.......y&....<.i+@<1h=+ip.#;.+     ",
".O+&*1.....jf.......dj.....i+@*1.1*=+ap%#$+     ",
"jjwwwwwwwwwwywwwwwwwwswwk.i+8,1h..1h=+i#%;+     ",
"l7l2l7l2l7l2l7l2l7l2l7l2.i+@++++s+e++=+ap$+     ",
"   #zhxy59y#-+ctcpi++&y.i+8<+tqtstqt+9=+ip+     ",
"   4hyhyhyhvf+tutqp+b;.i+8#1+ueusueu+1*&+a+     ",
"   #.gvg.#.g-+ctcqiv:.j+@+1.itqtstqt+.17=+ip    ",
"   4.4%4g.gkf+tuuqpn+j+8*7*.pueusueu+..5*=+ap   ",
"   #vg4.vg4g-+ctcmM.3b$<1.y.sssssssss.y.1h=+ip  ",
"   4..gv.4g.f+tutm.Mb$b1..d.p.......d.d..1*=+ap ",
"   #4gv.;g4g-+ctqqMbnb1h...&i.......y&....1,=+i ",
"   4g.#k4kg%f+tu.j.wblbN...jp.......d@.....11=+a",
"   m.g;gv.4g-+ctjjMbzbdbkkkkykkkkkkkkskkkkkkkpii",
"   q37l737lqp=ssMBbzzjbBpapi++2+++2++apipapip   ",
"  VV@VVV@VVV@CCC.MvbjMzzq9y#i+ctcii++yyy9eyyy   ",
" 5ZfZVZfZVZfmmmmb..NMyb919hvp+tuuqp++;99&kv&9   ",
"7VVVVddrdrA eeee3b3b3bxz3#.gi+ctcei++%%.4g.#v   ",
"SfZVddrrrA   eeB BbBbBMB%.gvp+tutqp++%#.#k#..   ",
"7VdrrrAnA       :  b>bzz;b.gi+ctcmi++.vg4.vg.   ",
"+ADA6A6A        MnbBblMBb%g.p+tuump++.g..kg.%   ",
"73755D6         3bv M#xz3b3gi+ctcei++g;g.g;g%   ",
"3337l5          mn Bz:zBzBg%p+tutqp++4..g%gvg   ",
":>:32          bvzzmMbNz.zvgi+ctcti++Nv..#vM.   ",
"z>z:           Bm bmb4bBbNbkp=papip=szbkbM.nbV  ",
"xz              3b3zzzxb3b3VVVDCCCvVVbxb3z3bzb3 ",
"z                 vVzfZVZfZVZfmmmmmvZfZVZfZVZfZV",
"+                VVDqblbDDDDD++++eee.VVrrr&r&rAl",
"                ZVZDDDDDDDnd+++      vS556DAnADl",
"              xSVVVrrnAnAnA           v+:3755S73",
"              F5ndZVZdnDD5             @+:37ll3:",
"             +:le6A6A6AD5               @z::73:z",
"            ++z:37l7l7S6                 +z:3:z>",
"             +++:3::+z:                   +++zx ",
"                  z> >z>                    ++  "};
