/* XPM */
static char * InterSteler_rxvt_xpm[] = {
"60 60 49 1",
" 	c None",
".	c #EFBEEBADEFBE",
"X	c #C71BC71BC71B",
"o	c #D75CD75CD75C",
"O	c #BEFBBAEABEFB",
"+	c #CF3CCF3CCF3C",
"@	c #79E77DF779E7",
"#	c #DF7DDF7DDF7D",
"$	c #A699A289A699",
"%	c #B6DAB2CAB6DA",
"&	c #D75CD34CD75C",
"*	c #9E799A699E79",
"=	c #C71BC30BC71B",
"-	c #AEBAAAAAAEBA",
";	c #8E388A288E38",
":	c #CF3CCB2BCF3C",
">	c #861782078617",
",	c #BEFBBEFBBEFB",
"<	c #AEBAAEBAAEBA",
"1	c #965896589658",
"2	c #9E799E799E79",
"3	c #A699A699A699",
"4	c #B6DAB6DAB6DA",
"5	c #71C671C671C6",
"6	c #69A669A669A6",
"7	c #79E779E779E7",
"8	c #965892489658",
"9	c #861786178617",
"0	c #8E388E388E38",
"q	c #71C675D671C6",
"w	c #596559655965",
"e	c #618561856185",
"r	c #618565956185",
"t	c #59655D755965",
"y	c #69A66DB669A6",
"u	c #514455555144",
"i	c #49244D344924",
"p	c #492449244924",
"a	c #410345144103",
"s	c #38E338E338E3",
"d	c #514451445144",
"f	c #410341034103",
"g	c #30C234D330C2",
"h	c #28A22CB228A2",
"j	c #30C230C230C2",
"k	c #38E33CF338E3",
"l	c #208124922081",
"z	c #208120812081",
"x	c #28A228A228A2",
"                                                            ",
"                                                            ",
"                                                            ",
"                                                            ",
"                                                            ",
"                                                            ",
"                                                            ",
"                                                            ",
"                                                            ",
"                                                            ",
"                                                            ",
"                                                            ",
"                                                            ",
"                                                            ",
"                                                            ",
"                                                            ",
"                                                            ",
"      .........X     ...X    ...o...O      +...XOOOOOOOOOX  ",
"     @##########$    +###   +### ###%      ##############+  ",
"     %&&&   *&&&=     &&&  $&&&  &&&-     %&&&&&&&&&&&&&&;  ",
"     :::%    O::=     :::O :::*  :::$     :::>   O:::       ",
"     ,,,>    <,,1     2,,,,,,3   ,,,,    4,,<    ,,,<       ",
"     %%%     %%%5      %%%%%-    %%%%   6%%%     %%%7       ",
"    @333    8333       33333     9333   3330    6333        ",
"    222222222220       0222      @222  q222     ;222        ",
"    8888888888;       w8888e     5888  8886     888;        ",
"    999rt999q         99999>     6999 y999      999e        ",
"   u777  5775        7777777     e777 777      i777         ",
"   6yyy  pyyy       6yy6 yyyi    wyyyyyyr      eyyy         ",
"   rrrw   rrr      urrr  trrr    arrrrrr       rrrr         ",
"   wwws   wwwd    fwww   gwww    gwwwwwp       wwwa         ",
"  giii    aiiii   iiis    iiis   hiiiii       jiii          ",
"  gfff    hffff  fffs     kfff   lffffh       sfff          ",
"  zhhh     hhhl  hhhx      hhh    hhhh        xhhh          ",
"                                                            ",
"                                                            ",
"                                                            ",
"                                                            ",
"                                                            ",
"                                                            ",
"                                                            ",
"                                                            ",
"                                                            ",
"                                                            ",
"                                                            ",
"                                                            ",
"                                                            ",
"                                                            ",
"                                                            ",
"                                                            ",
"                                                            ",
"                                                            ",
"                                                            ",
"                                                            ",
"                                                            ",
"                                                            ",
"                                                            ",
"                                                            ",
"                                                            ",
"                                                            "};
