/* XPM */
static char * InterSteler_ftp_xpm[] = {
"60 60 44 1",
" 	c None",
".	c #D75CD75CD75C",
"X	c #FFFFFFFFFFFF",
"o	c #F7DEF7DEF7DE",
"O	c #E79DE38DE79D",
"+	c #C71BC71BC71B",
"@	c #DF7DDB6CDF7D",
"#	c #EFBEEFBEEFBE",
"$	c #E79DE79DE79D",
"%	c #9E799E799E79",
"&	c #8E388A288E38",
"*	c #D75CD34CD75C",
"=	c #9E799A699E79",
"-	c #DF7DDF7DDF7D",
";	c #CF3CCB2BCF3C",
":	c #C71BC30BC71B",
">	c #BEFBBAEABEFB",
",	c #861786178617",
"<	c #965896589658",
"1	c #8E388E388E38",
"2	c #79E77DF779E7",
"3	c #861782078617",
"4	c #B6DAB2CAB6DA",
"5	c #A699A289A699",
"6	c #69A66DB669A6",
"7	c #AEBAAEBAAEBA",
"8	c #618561856185",
"9	c #965892489658",
"0	c #A699A699A699",
"q	c #59655D755965",
"w	c #618565956185",
"e	c #69A669A669A6",
"r	c #79E779E779E7",
"t	c #49244D344924",
"y	c #410345144103",
"u	c #596559655965",
"i	c #492449244924",
"p	c #410341034103",
"a	c #514451445144",
"s	c #514455555144",
"d	c #30C234D330C2",
"f	c #30C230C230C2",
"g	c #38E338E338E3",
"h	c #208124922081",
"                                                            ",
"                                                            ",
"                                                            ",
"                                                            ",
"                                                            ",
"                                                            ",
"                                                            ",
"                                                            ",
"                                                            ",
"                                                            ",
"                                                            ",
"                                                            ",
"        .XXXXXXXXXXXXXo                  XXXXXXXXXXXXO      ",
"        +ooooooooooooooooooooooooooooo   oooooooooooooo@    ",
"        ##############################   ###############    ",
"        $$$$$%&&&&&&%$$$$$$$$$$$$$$$$*  =$$$$-&&&&*$$$$$    ",
"        ----;             :---->        ;----%     -----,   ",
"       <****1             ;****         *****      *****2   ",
"       :;;;;              ;;;;;         ;;;;;      ;;;;;    ",
"       :::::              :::::        3::::>      :::::    ",
"       >>>>4             ,>>>>=        5>>>>,     ,>>>>>    ",
"      67777777777777     577778        77777      77777,    ",
"      9000000000000,     00000         00000     200000     ",
"      %%%%%%%%%%%%%q     %%%%%        w%%%%%qqqe<%%%%%9     ",
"      99999             w99993        3999999999999999      ",
"      &&&&w             2&&&&q        &&&&&&&&&&&&&&&       ",
"     63333              33333         33333333333336        ",
"     rrrrr              rrrrr        trrrr6                 ",
"     66666             y6666e        86666t                 ",
"     wwwwt             uwwwwi        wwwww                  ",
"    pqqqq              qqqqq         qqqqq                  ",
"    assss              sssss        dsssst                  ",
"    iiiii             fiiiii        piiiif                  ",
"    ppppg             gppppf        ppppp                   ",
"    ggggf             gggggh        ggggg                   ",
"                                                            ",
"                                                            ",
"                                                            ",
"                                                            ",
"                                                            ",
"                                                            ",
"                                                            ",
"                                                            ",
"                                                            ",
"                                                            ",
"                                                            ",
"                                                            ",
"                                                            ",
"                                                            ",
"                                                            ",
"                                                            ",
"                                                            ",
"                                                            ",
"                                                            ",
"                                                            ",
"                                                            ",
"                                                            ",
"                                                            ",
"                                                            ",
"                                                            "};
