/* XPM */
static char *Jubilee-small[] = {
/* width height num_colors chars_per_pixel */
"    42    48      253            2",
/* colors */
".. c #000000",
".# c #000011",
".a c #000011",
".b c #000000",
".c c #000011",
".d c #111122",
".e c #110000",
".f c #110011",
".g c #110011",
".h c #111111",
".i c #111111",
".j c #111122",
".k c #111133",
".l c #111144",
".m c #221155",
".n c #111111",
".o c #112222",
".p c #222233",
".q c #111144",
".r c #112255",
".s c #112255",
".t c #00373c",
".u c #112255",
".v c #223366",
".w c #223366",
".x c #224477",
".y c #213231",
".z c #213231",
".A c #213231",
".B c #223355",
".C c #110011",
".D c #221111",
".E c #221111",
".F c #222222",
".G c #222233",
".H c #221144",
".I c #221155",
".J c #221111",
".K c #222222",
".L c #222222",
".M c #222233",
".N c #222233",
".O c #222255",
".P c #222255",
".Q c #333344",
".R c #223355",
".S c #223366",
".T c #223366",
".U c #225544",
".V c #223366",
".W c #224477",
".X c #225544",
".Y c #225544",
".Z c #225544",
".0 c #1a5f67",
".1 c #224477",
".2 c #22667d",
".3 c #326497",
".4 c #1a5f67",
".5 c #22667d",
".6 c #221111",
".7 c #321e2e",
".8 c #221144",
".9 c #222222",
"#. c #321e2e",
"## c #333344",
"#a c #333344",
"#b c #444411",
"#c c #2b2b2b",
"#d c #333344",
"#e c #223366",
"#f c #3b3b77",
"#g c #3f445e",
"#h c #3b3b77",
"#i c #3b3b77",
"#j c #44573b",
"#k c #444477",
"#l c #22667d",
"#m c #3b7777",
"#n c #326497",
"#o c #444444",
"#p c #394435",
"#q c #444477",
"#r c #4e5a79",
"#s c #3f445e",
"#t c #4b0000",
"#u c #4b004b",
"#v c #444411",
"#w c #444411",
"#x c #333333",
"#y c #444411",
"#z c #444477",
"#A c #4e5a79",
"#B c #446a9d",
"#C c #321e2e",
"#D c #433146",
"#E c #4e5a79",
"#F c #661111",
"#G c #444411",
"#H c #433146",
"#I c #61334c",
"#J c #444411",
"#K c #4e5a79",
"#L c #556838",
"#M c #661111",
"#N c #61334c",
"#O c #5d8363",
"#P c #61334c",
"#Q c #61334c",
"#R c #773b3b",
"#S c #774411",
"#T c #661111",
"#U c #774411",
"#V c #773b3b",
"#W c #774411",
"#X c #773b3b",
"#Y c #61334c",
"#Z c #773b3b",
"#0 c #773b3b",
"#1 c #661111",
"#2 c #77003b",
"#3 c #773b3b",
"#4 c #774411",
"#5 c #773b3b",
"#6 c #774411",
"#7 c #774411",
"#8 c #777700",
"#9 c #7a7328",
"a. c #864938",
"a# c #973264",
"aa c #773b3b",
"ab c #774411",
"ac c #864938",
"ad c #885566",
"ae c #885511",
"af c #885511",
"ag c #864938",
"ah c #885566",
"ai c #996611",
"aj c #94192e",
"ak c #976432",
"al c #958b40",
"am c #a0335e",
"an c #864938",
"ao c #aa5511",
"ap c #996611",
"aq c #976432",
"ar c #996611",
"as c #976464",
"at c #976464",
"au c #973232",
"av c #aa5511",
"aw c #aa6648",
"ax c #a0335e",
"ay c #976464",
"az c #a0335e",
"aA c #a0335e",
"aB c #a0335e",
"aC c #aa5511",
"aD c #bf5f5f",
"aE c #aa5511",
"aF c #aa5511",
"aG c #aa6648",
"aH c #996611",
"aI c #996611",
"aJ c #bf8e00",
"aK c #bf8e2f",
"aL c #958b40",
"aM c #aaaa1c",
"aN c #aaaa1c",
"aO c #b2776e",
"aP c #b03060",
"aQ c #b2776e",
"aR c #b03060",
"aS c #bb1111",
"aT c #bf2f5f",
"aU c #bf8e00",
"aV c #bf8e00",
"aW c #bf8e2f",
"aX c #bb934f",
"aY c #bf8e2f",
"aZ c #bf8e2f",
"a0 c #aa6648",
"a1 c #bb934f",
"a2 c #bf2f5f",
"a3 c #bfbf2f",
"a4 c #bf5f2f",
"a5 c #bf8e5f",
"a6 c #bf5f5f",
"a7 c #cc1111",
"a8 c #cc1111",
"a9 c #cc1111",
"b. c #bf2f2f",
"b# c #bf2f5f",
"ba c #dd4447",
"bb c #bf2f5f",
"bc c #bf2f5f",
"bd c #bf8e2f",
"be c #dd8822",
"bf c #d7886b",
"bg c #bf8e00",
"bh c #bf8e2f",
"bi c #bb934f",
"bj c #bfbf2f",
"bk c #bfbf2f",
"bl c #bf5f2f",
"bm c #bb934f",
"bn c #d7886b",
"bo c #dd8822",
"bp c #eeaa44",
"bq c #dd1111",
"br c #dd1111",
"bs c #dd1111",
"bt c #dd1111",
"bu c #dd4447",
"bv c #dd4447",
"bw c #dd4447",
"bx c #dd4447",
"by c #bf5f2f",
"bz c #dd8822",
"bA c #d7886b",
"bB c #dd8822",
"bC c #d7886b",
"bD c #d7886b",
"bE c #dd8822",
"bF c #dd8822",
"bG c #dd8822",
"bH c #eeaa44",
"bI c #d7886b",
"bJ c #d7886b",
"bK c #d7886b",
"bL c #dd8822",
"bM c #eeaa44",
"bN c #eeaa44",
"bO c #eecc1e",
"bP c #eecc1e",
"bQ c #dd8822",
"bR c #eecc1e",
"bS c #eecc1e",
"bT c #eeaa44",
"bU c #eeaa44",
"bV c #ff9966",
"bW c #ff9966",
"bX c #ff9931",
"bY c #eeaa44",
"bZ c #ff9966",
"b0 c #ff9966",
"b1 c #eeaa44",
"b2 c #eeaa44",
"b3 c #ff9966",
"b4 c #ff9966",
"b5 c #eecc1e",
"b6 c #ff9966",
/* pixels */
"bqb.bqbqbqbqb.bqbqa7bqbqa7bqbqbqa7bqbqbqa7bqbqbqb.bqbqbqbqbqbqbqbqbqbqa7bqbqbqb.bqbq",
"bqb.aj#F#Faj#F#F#F#F#F#F#F#F#F#F#F#F#F#F#F#F#F#F#F#F#F#F#F#F#F#F#F#F#F#F.7#F.7#F#F#F",
"bqbq.O.H.H.O.O#f.p.3#k.3.3.x.3.3.d.h.h.y#f#f.x.Q#r#r#k#r#r#k.x#k.x.v.3#k#r#r#k#k#I.e",
"bqa7.m.m.H.O.O.d.v#k.x.3.2.x.y.o.h.F.v#k.v#c#k.B#o.v#r#k.3#k#r.B.d.h.h#k#k#k.h.F.o.f",
"bqa7.l.H.O.O.v.d.r.x.y.t.d.#.#.#.d.H.d.d.h.d.f.d.y.f.O.p.d#f.d.Q.h.f.#.f.#.f.#.#.f.e",
"bqa7.l.l.O.v.x.x.k.#.#.d.#.#.#.#.#.f.d.O.m.#.#.#.d.h.e.d.#.e.f.k.#.#.#.f.f.h.#.#.e.f",
"bqa7.p.O.r.l.x.x.x.h.#.e.f.#.#.#.#.h.B.p.B.l.#.#.#.B.#.#.#.#.l.#.#.#.##f.B#f.#.e.#.e",
"a7a7.p.O.r.r.v.x.y.x.#.d.#.#.#.#.h.k.d.#.#.#.d.#.#.p.f.h.#.f.h.#.#.#.#.d.#.h.d.#.#.e",
"a7a7.m.m.v.v.p.x.3.#.k.#.#.#.k.p.v.v#f.O.l.d.#.h.#.#.v.d.k.Q.d.#.h.#.#.p.v.p.d.#.#.e",
"bqa7.m.r.O.v.v.d.B.k.#.#.#.B.p.p.v.p.p.o.o.y.d.#.#.##D.e.x.h.#.#.#.##f.F.#.#.#.#.e.f",
"bqa7.l.m.p.v.t.#.k.2.2.0.O.v.v.O.o.o.#.#.#.#.h.d.#.#.h.O.h.##p.d.e.O.l.d.#.#.#.#.#.e",
"bqa7.O.l.d.k.O.x.#.o.y.B.o.o.O.h.#.#.#.d.h.p.O.p.#.#.has#I.F.#.d.#.o.h.d.#.h.#.#.#.e",
"a7a7.l.d.l.v.d.h.#.#.#.#.#.p#f.d.#.#.#.p.#.f.h.O.e.e.dbf#I.F.h.H.o.#.#.h.#.#.e.#.e.e",
"bqaS.f.l.O.v.x.#.#.#.e.#.#.o.h.#.#.e.#.h.h.#.l.Q.da5bpbfaOad.F.p.#.#.h.#.d#g.d.#.f.e",
"bqaS.d.l.d.h.x.x.#.#.#.#.#.#.#.e.o.#.p.k.f.#.F#LbVbpbVa5awaDas.f.f.#.#.h.p.B.#.#.e.e",
"a7a7.m.O.l.v.p.k.h.#.#.#.#.k.h.h.d.padal.D.ha.awbpbfbpbVbfa5aw.F.#.h.d.d.f.#.#.#.e.e",
"bqa7.r.l.B.p#k.k.#.#.#.#.Q.h#b#S.r#Rbp#9aXbpbpbpbpbVbfbVbfaOad.7.#.#.#.d.#.#.#.#.#.e",
"bqa7.l.h.O.v.B.o.o.h.#.##bbebpaX.ybpaXa4bpbpbpbpbpbpbpbf.U.h#I.D#g#g.h.h.#.#.e.e.D.e",
"a7a7.d.v.O.x.0.d.y.o.f.#aJbp#bbpaXbp#OaKbVaKbpbpbVbfa3.y#r#O.U.l.x.h.#.f.h.#.#.da5.f",
"a7a7.H.h.O.v.#.B.0.o.o.h#9aK#9alaXaX.haka.as#Oas#O#B.v.t.O.B#g.x.p.#.#.#.#.f.dal.F.f",
"bqa7.r.f.y.x.h.x.y.U.h.k.o.r.H.O.3.3.r.2.3.2.U#j#I#Ramam#I#I#I.H.d.f.#.e.f.#.#.h.D.h",
"bqaS.k.l.l.x.h.d.0.U.d.U.0.U.U.o.o#p.h#Iaubaa.aTamaTaT#Ram#2aj.m.H.f.#.#.f.#.h#x#I.h",
"bqa7.l.k.l.B.p.v.0.0.yambebebpakbebea.b.a4aDbaaDaTamaDamaj#I#I#u.H.D.#.#.#.e.h#R#I.e",
"bqa7.f.#.O.v.h.2.x.x.0#ca4bpbe#9bfbVbV#Rbabab.babaa#amama#am#2#u.H.F.e.#.#.e.7.D.D.f",
"bqa7.l.r.r.p.k.x.0.U.U.Fbabebebea3bpbeaubababaaTaTaTaTaTama##I#D.H.f.f.#.#.f.7.eaw.h",
"bqa7.m.H.r.p.r.x.2.x#m#ja4bebebe#Sbpbpbaa4bababaaPaDaTaPaj#Iaj.m.H.d.#.e.f#F.F.h.e.h",
"a7a7.l.O.O.v.p.r.0.2.2.Uaubabebebpa3bXbeauauakbaaTaDaTaTaPaT#I#I.7.f#c#I#Ra.#I.e.D.f",
"bqa7.l.H.p.v.v.h#f#k#r.2#RbabeaKbpbebpaKakbpa..DaubabaaDbaau#R#uawaDauamasada..faj.f",
"bqa7.H.l.r.B.O.x.y.0.x.U.paubebebea3bpaobeaKbfbp.7aw#R.7.7#Rbfawbaada.#Raua.#R.#.e.f",
"bqaS.H.m.p.v.v.x.2.l.v.0.U.o.h#c#b#S#b#9beakaoawbfbpbpbVbVbVbabeasa.ada.aw#R#c.f.f.f",
"a7a7.H.k.m.O.x.v.x#r.0.U.U.o.haMbeaMbebpaw#b#Ia.a.adbfbVbpbVaXaOas#Raua#a#.h.D.f.e.e",
"bqa7.d.O.O.r.v.B.v#m.U.U.#.e.UaeaMbpaJbe#S#xaw#b.e#xbXbpbfbpbfawau#Raua..D.h.f#F.h.h",
"bqa7.k.l.O.v.t.H.0.0.H.#.h.U.U#8bea3bebpaJaoau.d#RaDbpbpbVbVbfa.aPama.ad.h.f.Dai#S.h",
"bqa7.m.l.d.d.l.B.O.#.h.p.U.h.#.DaMbebeaMaKa.#9#I#F#L#L#R#L#oak#Rada.aP#c.7#F#SaMaJ.e",
"bqa7.H.l.d.O.O.h.#.B.U.U.d.#.o#b.DaMbebeao.#.h.h.e.f.f.hbebfbVaDauas.F#Fai#baibOaM.D",
"b.bq.k.m.d.O.d.#.l.B.x.h.#.U.h.h#S#caJaMbp.f.Fas.h.ha.bfbpbVa5as#r.D.hae.FaibObeai.D",
"bqa7.m.H.k.h.h.d.x#g.#.#.o.h.h.##S#b.Dbebebeai#RaXaXbXbpbpaXbfaw.d.Dak#SaKbOaMaKaJ.f",
"bqa7.k.l.h.#.k.r.p.#.d.k.o.#.##S#b#Fae#baKaMbebebpbVbpbfbVbfaD#x#S#baeaiaMbeaKa4ai.D",
"a7a7.m.l.d.l.r.h.#.r.r.#.#.h#baeaoae#S#S.DaebebebebebpbpbVaK.h#b.DaibpaMbeaJaiaKaK.h",
"bqa7.H.H.k.p.d.#.k.B.h.#.h.D#baiaeaeaiae#b.h#caJaKbebpaK#b#b.D#SaJbObOaKakaiaKaJaJ.#",
"bqa7.m.H.k.f.#.#.l.#.#.#.#.e.D.Daeaoaiae#b#b.D#caK#8.D.F.D#S#S#SaKbOaKaiaKaJaKaJaJ.D",
"bqa7.k.k.d.#.d.l.d.#.h.d.##Faeai#S#baeae#S#S#F#b#S#b.D.DaiaiaeaMbeaKaJaiaKaiaKaKae.D",
"bqa7.H.h.#.k.k.#.k.h.#.#.Daiaiaiaiaeaeae.D#b#Sae#S#S#S#FaM.DaKbOaMaiaoaiaJaiai#8.7.D",
"bqa7.f.#.d.k.#.#.f.#.#.#.h#b#S#9aiaiaeaeao#S#S#S#b#F.oae#SaKbOaJaKaMaiaJaiaM#Sae.D.h",
"bqa7.e.f.k.#.#.d.#.#.#.##8#S.D#F#baeaiai#Saiaeae#S#b.h#SaKbObOaJaiaoaiaia4ai#S#cai.h",
"bqa7.k.l.f.#.d.#.#.#.#.##Saiaiaeaeaiai#baeaeae#S#c.e#S#SbO#baeakaiaiaoaiaiae#SaJai.h",
"bqa7.H.d.f.l.#.#.#.#.#.e#baeaiaiaMaeao#S#Sae#S#b.f#F#caJ.yaiaeaiaiaiaiae#x#ba3bObO.D",
"bqa7.H.d.k.k.d.d.h.d.e.eae.D#baiaeaeaeaeae#S#S.D.h#8#bai#8#9#Saeaiaeae#c#8aMaMaMaM.h"
};
SIMPLE  =                    T                                                  BITPIX  =                    8                                                  NAXIS   =                    2                                                  NAXIS1  =                   42                                                  NAXIS2  =                   48                                                  HISTORY Written by XV 3.10a                                                     END                                                                                                                                                                                                                                                                                                                                                                                                                                                                                                                                                                                                                                                                                                                                                                                                                                                                                                                                                                                                                                                                                                                                                                                                                                                                                                                                                                                                                                                                                                                                                                                                                                                                                                                                                                                                                                                                                                                                                                                                                                                                                                                                                                                                                                                                                                                                                                                                                                                                                             WQ[<j[[[[[MMd<jdiM[j[[+d““““WQ<[jj“[gMM[M<.+ˆ,j[jjjj[3<¨¼¼WQMjj[[jj<[[[M+MM¼<[mjjgjj[MˆjWQdM.<[jjMj[[M<M¼¼ˆjgjjxjM+jWQ<Mijj[[gMMM<.[M¼ˆ“jˆj“M[WQjjjj[[[<M[MMM.“¼“jgjˆjjd'WQ.[jM<[[MM.<M<jj[“•ˆjj[WQ![gj[<<+d"MMM¼jˆˆˆWQ$2<j[[j[<+ˆ•±<<Mˆ¼¼mjˆˆQQ!$$$<[g[MM[••••±±´<j±“•ˆjWQ$$M<.[<“••±´±ž´ž€3M<[j“•xjWQ!@FM<•••jO––«±±–žxmM¼“ˆ`W!)2@@M+ˆ“±"u[ž±´—uZ["j¼•jWQ))2@@<“••g•ž´€Tu".j<j¼“WQ!2)$@“••“[iF.YYOYDmOi[c+'.M“ˆWQ)5$HH@@d•¨•±ˆgTO€±±´´ž[c_[ijMWQ))$525b@@@[“±ˆ•M3x<3«±ž±žxTOT[.QQ!)@5@ZH@@“•“•±x<F[[iž´±´–‰uOT\\WK!$55@R5H@+<M<i•mgxž±±´´´y•u[i[xO+WQ$2)@,H@@$T•••¨±g•ž±'xO''Ožxyi[OT[OWQ$55DKZROy•±•±m±[Tyy€yTO%x€T_ui[FQQ))5$$HRR@Ty••±¨«•TTmyh€hhchFF'+FO[FWQ!$$$@R@bLx•••M±±yxyyyc€hcFFF!."WQ$$$@H@@"y•••¨±•Tyyyhhhhh_\F:'xWQ)5R@@H+x±•iž´´Oyy`yy\__\_2%"'WQ2$5HH,_••±m••[`x€y€h_€_FFF%OFWK@H@@H@@=FTy[h_hhO_2F!3FWQ$,@@,@$)ZZ$RZR@LFO__FFFQQ)52Hii‚––m[upupd5$)2F@$‚"QQ5)@H,ˆ±<±–±p´±±´ž¨,Zp@@—WQ)52<•±–,±–x±±±±±±±ž@FFFWQ$2$K5<M$O±i–±±±±´ž´ž‰i'QQ!)5$$i‚[x±ž±´ž—x"WK@@$"Y´±´—x€u$2WK)5@5—±ž‰i"$FQQ5$D$)žF"WQ))@,2)$)$uF"WQ!$5$RRH)55))=)WQ!$)5522$$5$$,:@D"QQ!!55$@Z$55D)55$5$QQ$)$$5@,@$WQ$)$@@@2$22D2DWQ)5@@)!WQ))5$@,$,)$D5WQ!!))5K@ZR@,"5K5+K2D5ZKZKZ2KKK"WW)))D$ZKZZ@ZZ,DD@5ZZKZZK@K@5ZKZZKKFW`F..F..............................'.'...W`WWWW`WWQWWQWWWQWWWQWWW`WWWWWWWWWWQWWW`WW                                                                                                                                                                                                                                                                                                                                                                                                                                                                                                                                                                                                                                                                                                                                                                                                                                                                                                