/* XPM */
static char * dg [] = {
/* width height ncolors chars_per_pixel */
"64 64 2 1",
/* colors */
" 	c black",
".	c yellow",
/* pixels */
"                                                                ",
"                                                                ",
"         .                                                      ",
"          .                                                     ",
"          .                                                     ",
"           .                                                    ",
"           ..                                                   ",
"            ..                                                  ",
"             .                                                  ",
"             ..                                                 ",
"              ..                                                ",
"              ...                                               ",
"               ..     .                                         ",
"                ..    ..                                        ",
"                ...    .                                        ",
"                 ..    ..                                       ",
"                 ...   ...                      .               ",
"                  ...  ....                     ..              ",
"                   ...  ...                      .              ",
"                   ...  ....                     ..             ",
"                    ... .....                     .             ",
"                    ..........                    ..            ",
"                     .........                    ..            ",
"                      .........                    ..           ",
"                      ...... ...                   ..           ",
"                       .....  ...                  ...          ",
"                       .....   ..                   ..          ",
"                        ....   ...                  ...         ",
"                         ...    ...   .              ..         ",
"                         ...     ..   ..          .  ...        ",
"                          ..      ..   .          .. ...        ",
"                          ..      ...  ..          ......       ",
"                           .       ... ...         ......       ",
"                                    ..  ...         ......      ",
"                                    ... ...         ......      ",
"                                     .......        ... ...     ",
"                                      .......        ..   .     ",
"                                       .......       ..         ",
"                                       .......        ..        ",
"                                        .......       ..        ",
"            ..                           ... ...      ..        ",
"             ....                         ..  ...      .        ",
"               ....                       ..   ..      ..       ",
"                 .....                     .    ..     ..       ",
"                   ......                       ...     .       ",
"                     .......                     ..     ..      ",
"                       .......                    ..     .      ",
"                         ........                  ..    .      ",
"                           ........                ...          ",
"                         ........                   ..          ",
"                        ......                       ..         ",
"                      .......                         ..        ",
"                     ............                      ..       ",
"                        ............                   ..       ",
"                            ...........                 ..      ",
"                                ...........              .      ",
"                                    ..........                  ",
"                                        ..........              ",
"                                            .........           ",
"                                                ...             ",
"                                                                ",
"                                                                ",
"                                                                ",
"                                                                "};
