/* XPM */
static char * news-shape_xpm[] = {
/* width height ncolors chars_per_pixel */
"59 36 11 1",
/* colors */
" 	s None	c None",
".	c #A9A9A9",
"X	c #BABABA",
"o	c #D3D3D3",
"O	c #B2B2B2",
"+	c #C5C5C5",
"@	c #878787",
"#	c #7C7C7C",
"$	c #707070",
"%	c #777777",
"&	c #7A7A7A",
/* pixels */
"                                                           ",
"                                      ...XoooooooX         ",
"                               ..O+ooooooooooooooo         ",
"                      oooo++oooooooooooooooooooooo.        ",
"                OX+ooooo++X+ooooooooo++X+++o+oooooO        ",
" ....OXX++ooooooooooooooXo.X+o++OXX..+ooooooooooooo        ",
" +oooooooooooooo+o++oXo@#@+.@O@.+@+X.oooooooo+o++oo.       ",
" +ooo+++++o+o+oX++.O.Oo@#+o@.OOXO@+O@oooXXXX++XOX+o+       ",
" Xooooooooooooo.+#@o.Ooo+++O+o+X++++o+X+XXX++X+ooooo       ",
" Xooooooooooooo..OX+X+oOO++XX.XXX+X++++oXXXOO+oooooo       ",
" Ooo++o++oo++ooo++..OXXoXXOOXo++++OO+@.+XX.OOX+XX+oo+      ",
" .o+X......OX+++++ooooO..XOO..O.OX..X++...X++o+oo+ooo      ",
" .ooXoooooo++++o+oooooXXX+XO.X+XX+XX+O$$$.XXOXoXXXXoo.     ",
" .o+o++OXX++X++o+oo++XX+XO.XOX+XXXXXX+$$$@@.@.O@o@@oo+     ",
"  ooX+++Xo+OO+O.o+OO+XOX+X.X.OX+OOOOXO..$#@#@.@X.$#@oo     ",
"  ooOX+XOo+XO+Oo++XOOOOX+XXX.XO+XXXXOO.@.%@$...#@@#@oo.    ",
"  ooOXXO+O+OXoXo+o.OXXXX+.XOO.OoOXOOOXO$$$%$&..%$@$#Oo+    ",
"  oo+oX++oo+o+XX+oOXOXXO+XX.OOO+OOOOXO+$$#$$$#%$$@@#@oo    ",
"  ooX.Xo@+++XXoX++OOXO.XXXX.OOX+XXXXX.X@#.$&$@$$$@@@XXo.   ",
"  oo+o++o+++OOX++++XOXXOX+OOOO.O+XOO.XXO@X.@&&$$$@....o+   ",
"  oo++++o++XXXXO.O+OOXXXO++OO.OO+OX.XXXo$..@@$$$##.@@.oo   ",
"  oo+.OO@XO..X++oo+XXOXOO+.XO...oOOXOOOX#X.X@%%&&%@.$#+o   ",
"  ooX......OXXXXOX+XOX.+O+XO.OXX+XOXX..O..@@.%##&%#%@$.oo  ",
"  oooXXO..OX++OX++o.OOOOO+O+..O.O+OXO.OXO@.X@%#%%$$%@%%oo  ",
"  ooO...XXOO.OX++XoOXOOOXXX+X.O+++OOOX..+@@OX#$%$%#%$@@+o+ ",
"  +o+..O.XXOoo++XX+OXOOOOXoXO.XOO+OX.OO.X..+@@@#@@@.X++ooo ",
"  Xo+X+O..XX+X+++oo+OX.+++oXO.OXO+.X.OXOOX..OOXX++ooXX++oo ",
"  Ooo.OOXOO.OOX+XX++XXXOX.+OXOO.O+O.O.X+ooooX+XOooX+XX+ooo ",
"  Ooo+X.OXXXOXOXXoo+XX.OX++XXO+o++oo++X+XO.X+XO.++oX..     ",
"  .oo.XXOOOXOO+XX.Xo++oo++oo+X+X+..+X+++X++oX+O            ",
"  .oo+XO+ooooo+XX++oo++XOXoooXoX++++o+O.                   ",
"  .ooXX++O.OX++o+++oooOOXXoooX..                           ",
"  .ooo+XXXoX+XXO++ooo+X.                                   ",
"  @ooo.O++++X.. .@                                         ",
"  @oO                                                      ",
"                                                           "};
