#define noname_width 64
#define noname_height 64
static char noname_bits[] = {
 0x11,0x91,0xff,0xff,0xff,0x13,0x11,0x11,0x11,0x51,0x0d,0x00,0x00,0x1c,0x11,
 0x11,0x44,0xc4,0x1a,0x00,0x00,0x50,0x44,0x44,0x44,0x64,0xb5,0xff,0xff,0x53,
 0x44,0x44,0x11,0xa1,0x2a,0xff,0xff,0x27,0x11,0x11,0x11,0x51,0x55,0xff,0xff,
 0x4f,0x11,0x11,0x44,0xb4,0x6a,0xfe,0xff,0x4f,0x44,0x44,0x44,0x54,0x55,0xfe,
 0xff,0x5f,0x44,0x44,0x11,0xb1,0xaa,0xfe,0xff,0x9f,0x11,0x11,0x11,0x51,0xd5,
 0xfe,0xff,0x9f,0x11,0x11,0x44,0xb4,0xaa,0xfe,0xff,0x9f,0x44,0x44,0x44,0x54,
 0xd5,0xfc,0xff,0x8f,0x44,0x44,0x11,0xb1,0xaa,0x00,0x00,0x80,0x11,0x11,0x11,
 0x51,0xd5,0x00,0x00,0x80,0x11,0x11,0x44,0xb4,0xaa,0x00,0x7f,0x80,0x44,0x44,
 0x44,0x54,0xd5,0xc0,0xff,0x81,0x44,0x44,0x11,0xb1,0xaa,0xe0,0xff,0x83,0x11,
 0x11,0x11,0x51,0xd5,0xf0,0xff,0x87,0x11,0x11,0x44,0xb4,0xaa,0xf8,0xff,0x8f,
 0x44,0x44,0x44,0x54,0xd5,0xf8,0xff,0x8f,0x44,0x44,0x11,0xb1,0xaa,0xfc,0xff,
 0x9f,0x11,0x11,0x11,0x51,0xd5,0xfc,0xff,0x9f,0x11,0x11,0x44,0xb4,0xaa,0xfc,
 0xff,0x9f,0x44,0x44,0x44,0x54,0xd5,0xfc,0xff,0x9f,0x44,0x44,0xf1,0xbf,0xaa,
 0xfc,0xff,0x9f,0x11,0x11,0xfd,0x5f,0xd5,0xfc,0xff,0x9f,0x11,0x11,0xfe,0xbf,
 0xaa,0xfc,0xff,0x9f,0x44,0x44,0xff,0x5f,0xd5,0xfc,0xff,0x9f,0x44,0x44,0xff,
 0xbf,0xaa,0xf8,0xff,0x8f,0x11,0x11,0xff,0x5f,0xd5,0xf8,0xff,0x8f,0x11,0x11,
 0xff,0xbf,0xaa,0xf0,0xff,0x87,0x44,0x44,0xff,0x5f,0xd5,0xe0,0xff,0x83,0x44,
 0x44,0xff,0xbf,0xab,0xc0,0xff,0x81,0x11,0x11,0xff,0xdf,0xd7,0x00,0x7f,0x80,
 0x11,0x11,0xfc,0xbf,0xaf,0x00,0x00,0x80,0x44,0x44,0xfc,0xdf,0xdf,0x00,0x00,
 0x80,0x44,0x44,0xf1,0xbf,0xbf,0xf0,0xff,0x87,0x11,0x11,0xf1,0xdf,0xdf,0xf8,
 0xff,0x8b,0x11,0x11,0xc4,0xbf,0xbf,0xfc,0xef,0x97,0x44,0x44,0x44,0xff,0xff,
 0xfe,0x5f,0xa7,0x44,0x44,0x11,0xfd,0xbf,0xfe,0x3f,0xb3,0x11,0x11,0x11,0xf9,
 0xff,0xfe,0x7f,0xb1,0x11,0x11,0x44,0xe4,0xaf,0x46,0xfc,0xa5,0x44,0x44,0x44,
 0xc4,0xef,0x46,0xf4,0xa7,0x44,0x44,0x11,0x11,0xbf,0x12,0x91,0xaf,0x11,0x11,
 0x11,0x11,0xfd,0x12,0x11,0xbf,0x11,0x11,0x44,0x44,0xe4,0x46,0x44,0xbc,0x44,
 0x44,0x44,0x44,0xc4,0x47,0x44,0xf4,0x44,0x44,0x11,0x11,0x11,0x11,0x11,0x11,
 0x11,0x11,0x11,0xff,0xff,0xff,0xff,0xff,0xff,0x11,0x44,0xff,0xff,0xff,0xff,
 0xff,0xff,0x45,0x44,0xdd,0xff,0xff,0xff,0xbf,0x8f,0x45,0x11,0xd9,0xff,0xff,
 0xff,0xff,0xbf,0x11,0x11,0xd9,0xf1,0x3f,0x3d,0x8e,0xbf,0x11,0x44,0xd5,0xee,
 0xbf,0xda,0xbd,0xbf,0x45,0x44,0xd5,0xee,0xbf,0xfa,0xbd,0xbf,0x45,0x11,0xcd,
 0xee,0xbf,0x3a,0xbc,0xbf,0x11,0x11,0xcd,0xee,0xbf,0xda,0xbd,0xbf,0x11,0x44,
 0xdd,0xee,0xbf,0xda,0xbd,0xbf,0x45,0x44,0xdd,0xf1,0xbf,0x3a,0xbc,0xbf,0x45,
 0x11,0xff,0xff,0xff,0xff,0xff,0xff,0x11,0x11,0xff,0xff,0xff,0xff,0xff,0xff,
 0x11,0x44,0xff,0xff,0xff,0xff,0xff,0xff,0x45,0x44,0x44,0x44,0x44,0x44,0x44,
 0x44,0x44};
