/* XPM */
static char * nomail-shape_xpm[] = {
/* width height ncolors chars_per_pixel */
"50 50 4 1",
/* colors */
" 	s None	c None",
".	c black",
"X	c cornflowerblue",
"o	c white",
/* pixels */
"                                                  ",
"                ...........................       ",
"               .XXX..XXXXXXXXXXXXXXXXXXXXXX..     ",
"               .XXXX..XXXXXXXXXXXXXXXXXXXXXXX.    ",
"              .XXXXXX..X...................XX.    ",
"              .XXXXXXX.XX...................XX.   ",
"             .XXXXXXXXX.X....................XX.  ",
"             .XXXXXXXXX.XX...................XX.  ",
"             .XXXXXXXXX.XX....................X.  ",
"             .XXXXXXXXXX.X....................XX. ",
"             .XXXXXXXXXX.X....................XX. ",
"             .XXXXXXXXXX.X....................XX. ",
"             .XXXXXXXXXX.XX..................XXX. ",
"             .XXXXXXXXXX.XXXXXXXXXXXXXXXXXXXXXXX. ",
"             .XXXXXXXXXX.XXXXXXXXXXXXXXXXXXXXXXX. ",
"             .XXXXXXXXXX.XXXXoXXXXoXXXXoooXXXXXX. ",
"             .XXXXXXXXXX.XXXXooXXXoXXXoXXXoXXXXX. ",
"             .XXXXXXXXXX.XXXXoXoXXoXXXoXXXoXXXXX. ",
"             .XXXXXXXXXX.XXXXoXoXXoXXXoXXXoXXXXX. ",
"             .XXXXXXXXXX.XXXXoXXoXoXXXoXXXoXXXXX. ",
"             .XXXXXXXXXX.XXXXoXXoXoXXXoXXXoXXXXX. ",
"             .XXXXXXXXXX.XXXXoXXXooXXXoXXXoXXXXX. ",
"             .XXXXXXXXXX.XXXXoXXXXoXXXXoooXXXXXX. ",
"             .XXXXXXXXXX.XXXXXXXXXXXXXXXXXXXXXXX. ",
"             .XXXXXXXXXX.XXXXXXXXXXXXXXXXXXXXXXX. ",
"     .........XXXXXXXXXX.XXXXXXXXXXXXXXXXXXXXXXX. ",
"   ...........XXXXXXXXXX.XXoXXXoXXXoXXXXoXXoXXXX. ",
"  ............XXXXXXXXXX.XXooXooXXoXoXXXoXXoXXXX. ",
" .............XXXXXXXXXX.XXoXoXoXoXXXoXXoXXoXXXX. ",
" .............XXXXXXXXXX.XXoXoXoXoXXXoXXoXXoXXXX. ",
" .............XXXXXXXXXX.XXoXXXoXoooooXXoXXoXXXX. ",
" .............XXXXXXXXXX.XXoXXXoXoXXXoXXoXXoXXXX. ",
" .............XXXXXXXXXX.XXoXXXoXoXXXoXXoXXooooX. ",
" .............XXX..XXXXX.XXXXXXXXXXXXXXXXXXXXXXX. ",
" .............XX...XXXXX.XXXXXXXXXXXXXXXXXXXXXXX. ",
"   ...........XX.....XXX.XXXXXXXXXXXXXXXXXXXXXXX. ",
"   ...........XX......XX.XXXXXXXXXXXXXXXXXXXXXXX. ",
"     .........XX......XX.XXXX...............XXXX. ",
"     .........XX.......X.XXX............... .XXX. ",
"       .......XX.......X.XX..........  ....  .XX. ",
"         ..............X.X............   ..   .X. ",
"           ............X.X.............  ..   .X. ",
"            ...........X.X..............      .X. ",
"              .......  X.X.        .......    .X. ",
"               ......  X.X.          ......   .X. ",
"                 ......X.X.             ..... .X. ",
"                    ...X.X.              ......X. ",
"                      ...X.                ....X. ",
"                       ....                  .... ",
"                                                  "};
