/* XPM */
static char * liebman [] = {
"64 64 8 1",
" 	s black	c None",
".	c white",
"X	c red",
"o	c gray85",
"O	c yellow",
"+	c black",
"@	c blue",
"#	c maroon",
"                                                                ",
"    .                                                           ",
"                                                    .           ",
"    .   .                .                  .                   ",
"              .                  .                         .    ",
"                                                                ",
"                        .                                       ",
"                                                                ",
"    .    .                                        .       .     ",
"                    XX   oooo                                   ",
"                 XXXXXX  oooooooooooo                           ",
"             XXXXXXXXXXXoooooooooooooooooooooo                  ",
"          XXXXXXXXXXXOOOoooooooooooooooooooooooooooooo          ",
"        XXXXXXXXXXXOOOOOo+++++++++++++ooooooooooooooooooooo     ",
"          XXXXXXXXXXXOOOoooooooooooooooooooooooooooooo          ",
" .           XXXXXXXXXXXoooooooooooooooooooooo                  ",
"                 XXXXXX  oooooooooooo                           ",
"                    XX   oooo                                   ",
"                                                                ",
"      .      .                            .               .     ",
"      .                        .     .          .               ",
"                                                                ",
"               @@@@@                                    .       ",
"         #@@@@@@@@@@@@@@@@               .                      ",
"     #####@@@@@@@@@@@@@@@@@@##                                  ",
"   #######@@@@@@@@@@@@@@@@######                .               ",
" #########@@@@@@@@@@@@@@@#########                   .          ",
"##########@@@@@@@@@@@@@@############                            ",
"##########@@@@@@@@@@@@@@##############                          ",
"##########@@@@@@@@@@@@@@###############       .   ..            ",
"###########@@@@@@@@@@@@@################                 .      ",
"################@@@@@@@@#################            .          ",
"#################@@@@@@@##################                      ",
"#################@@@@@@@###################                     ",
"#################@@@@@@@####################            .       ",
"#################@@@@@@@@####################      .         .  ",
"################@@@@@@@@@#####################                  ",
"################@@@@@@@@#######################                 ",
"#################@@@@@@@#######################@       .        ",
"#################@@@@@@@######################@@                ",
"#################@@@@@@@#####################@@@@               ",
"################@@@@@@@@#####################@@@@     .         ",
"################@@@@@@@@@@@@@@##############@@@@@@    .         ",
"###############@@@@@@@@@@@@@@@@############@@@@@@@        .     ",
"##############@@@@@@@@@@@@@@@@@############@@@@@@@@             ",
"#############@@@@@@@@@@@@@@@@@@############@@@@@@@@             ",
"############@@@@@@@@@@@@@@@@@@@###########@@@@@@@@@@     .   .  ",
"###########@@@@@@@@@@@@@@@@@@@@####@@@####@@@@@@@@@@            ",
"###########@@@@@@@@@@@@@@@@@@@@@@@@@@@####@@@@@@@@@@            ",
"###########@@@@@@@@@@@@@@@@@@@@@@@@@@@@##@@@@@@@@@@@      .     ",
"###########@@@@@@@@@@@@@@@@@@@@@@@@@@@@@@@@@@@@@@@@@@           ",
"#########@@@@@@@@@@@@@@@@@@@@@@@@@@@@@@@@@@@@@@@@@@@@           ",
"#######@@@@@@@@@@@@@@@@@@@@@@@@@@@@@@@@@@@@@@@@@@@@@@   .       ",
"######@@@@@@@@@@@@@@@@@@@@@@@@@@@@@@@@@@@@@@@@@@@@@@@           ",
"#####@@@@@@@@@@@@@@@@@@@@@@@@@@@@@@@@@@@@@@@@@@@@@@@@           ",
"####@@@@@@@@@@@@@@@@@@@@@@@@@@@@@@@@@@@@@@@@@@@@@@@@@       .   ",
"#@@@@@@@@@@@@@@@@@@@@@@@@##@@@@@@@@@@@@@@@@@@@@@@@@@@@          ",
"@@@@@@@@@@@@@@@@@@@@@#######@@@@@@@@@@@@@@@@@@@@@@@@@@          ",
"@@@@@@@@@@@@@@###############@@@@@@@@@@@@@@@@@@@@@@@@@          ",
"@@@@@@@@@@@@@@###############@@@@@@@@@@@@@@@@@@@@@@@@@   .      ",
"@@@@@@@@@@@@@################@@@@@@@@@@@@@@@@@@@@@@@@@          ",
"@@@@@@@@@@@@@#################@@@@@@@@@@@@@@@@@@@@@@@         . ",
"@@@@@@@@@@@@###################@@@@@@@@@@@@@@@@@@@@@@           ",
"@@@@@@@@@@@@####################@@@@@@@@@@@@@@@@@@@@@           "};
