/* XPM */
static char * root-shape_xpm[] = {
"64 64 6 1",
" 	s None	c None",
".	c darkseagreen3",
"X	c white",
"o	c darkorange4",
"O	c orange",
"+	c red",
"                                                                ",
"                                                                ",
"                                                                ",
"                                                                ",
"                                 ..                             ",
"                                ....                            ",
"                       ..       ...                             ",
"                       ....    ...                              ",
"                        ...    ...    ...... .                  ",
"                       .....    ..   ..........                 ",
"                         ....  ...  ..... ......                ",
"                         ..... ..  ..       .....               ",
"            .. ..          ... ... .        .....               ",
"          . ....... ..      .. .....         .....              ",
"         ................    . ...           .....              ",
"          .................  .....            ....              ",
"        ........      ...... ....               ...             ",
"         .....           ...  .X.                 .             ",
"        ......             .. .X.                               ",
"        ... .              ......                               ",
"       ...             ........oooo                             ",
"       .         .......   ..ooOOOOo                            ",
"                ........   ooOOOooOOo                           ",
"               ......     oOOOOOOOOOo                           ",
"              .....       oOOoOOOOOOo                           ",
"              ....        oOOoOOOOOOOo                          ",
"                           oOOooOOoOOo                          ",
"                           oOOOOOOoOOo                          ",
"                            oOOOOoOOOo                          ",
"           ++ ++            oOOOOOOOOOo                         ",
"           ++++++            oOOOOOOOOo                         ",
"           +++  +            oOOOOOOOOo                         ",
"           ++                 oOOOOOOOo                         ",
"           ++                 oOOoOOOOOo                        ",
"           ++    ++++          oOOoooOOo                        ",
"           ++   ++++++         oOOOOOOOo                        ",
"           ++   ++  ++          oOOOOOOOo                       ",
"                ++  ++           oOOOOOOo                       ",
"                ++  ++           oOOOOOOo                       ",
"                ++  ++            oOOoOOo                       ",
"                ++++++            oOOOoOOo                      ",
"                 ++++              oOOOOOo                      ",
"                                   oOOOOOo                      ",
"                       ++++         oOOOOo                      ",
"                      ++++++        oOOOOOo                     ",
"                      ++  ++         oOOOOo                     ",
"                      ++  ++         oOooOo                     ",
"                      ++  ++          oOOOOo                    ",
"                      ++  ++           oOOOo                    ",
"                      ++++++           oOOOo                    ",
"                       ++++             oOOo                    ",
"                                        oOOOo                   ",
"                              ++         oOOo                   ",
"                            ++++++       oOOo                   ",
"                            ++++++        oOo                   ",
"                              ++          oOOo                  ",
"                              ++           oOo                  ",
"                              ++           oOo                  ",
"                              ++            o                   ",
"                              ++                                ",
"                                                                ",
"                                                                ",
"                                                                ",
"                                                                "};
