/* XPM */
static char * SoundEdit_xpm[] = {
"48 48 65 1",
" 	c None",
".	c #D75CDB6CDF7D",
"X	c #30C26185AEBA",
"o	c #9E79A289AEBA",
"O	c #CF3CD34CEFBE",
"+	c #30C279E79E79",
"@	c #8E389A69BEFB",
"#	c #514428A238E3",
"$	c #DF7DD34CD75C",
"%	c #208171C6DF7D",
"&	c #596559655144",
"*	c #208141036185",
"=	c #79E771C68E38",
"-	c #C71B618530C2",
";	c #BEFB69A68E38",
":	c #8E3841034103",
">	c #BEFBBAEABEFB",
",	c #79E761856185",
"<	c #514420810000",
"1	c #EFBEA28979E7",
"2	c #CF3C28A228A2",
"3	c #410308200000",
"4	c #AEBAD34CE79D",
"5	c #38E349244103",
"6	c #AEBAAAAAB6DA",
"7	c #E79DEBADE79D",
"8	c #186138E328A2",
"9	c #30C230C228A2",
"0	c #A699BAEAE79D",
"q	c #00004103B6DA",
"w	c #208118612081",
"e	c #000038E371C6",
"r	c #28A228A24103",
"t	c #FFFFFBEEFFFF",
"y	c #8E3892489E79",
"u	c #79E7AAAACF3C",
"i	c #000008200820",
"p	c #000049248E38",
"a	c #618569A671C6",
"s	c #492441035965",
"d	c #4103104028A2",
"f	c #1861410379E7",
"g	c #9E79AAAA9658",
"h	c #AEBABAEAC71B",
"j	c #1040596569A6",
"k	c #D75CCB2BBEFB",
"l	c #AEBAAAAAAEBA",
"z	c #492479E7D75C",
"x	c #B6DAC30BAEBA",
"c	c #EFBEF3CEF7DE",
"v	c #79E76185BEFB",
"b	c #000000000000",
"n	c #F7DEAAAA30C2",
"m	c #71C651442081",
"M	c #082000002081",
"N	c #000028A22081",
"B	c #30C218612081",
"V	c #0820208138E3",
"C	c #28A269A68617",
"Z	c #000028A26185",
"A	c #596551444924",
"S	c #104020810820",
"D	c #38E3A2899658",
"F	c #30C220811040",
"G	c #618551445965",
"              .Xo    O+@                ##      ",
"              $%&    .X*=              #-;:     ",
"             >.+&    OX*,             <:1-23    ",
"             >4%5   67X8,           =9-1;2<3#   ",
"             >0qw    O%e,  >       5rty;2<3#    ",
"             >u%i   64%pa  $@yo   =#sy6=<d3     ",
"             Ouqi,   0%pw  O%fyg srt=ayyr3      ",
"             $@pea  h0qj8  kXe5l=9ayhy#ss5      ",
"             OzXe&  xzzpw hcXp5l8tyayv58r       ",
"        >    7zpf&  h@+q8 6O%f5:-=h=55#5        ",
"        cX   c%je5  kz+%b 64%p:n1syyr85         ",
"        O%5  c%*p5  k+=%b hh%m11:-#5ws          ",
"       h4%b   %MXN  .%jqi xu:11-::Bd5           ",
"       x0qi  c%NXw  .+#%i h:n1::-B<mw           ",
"       h0%b  4%b%i  .%*+V :11:-:<dmzi           ",
"       xu%i  4pw%b  OXr+V:n1:-:B<:CuM  g        ",
"  c+   Oz%N= 4p#%b  4%8X,11:-:<dmuj0*= kuy      ",
"  O%a  $XpZ, 0p5+M  u+w:11-::<dm +r4*, $z+y     ",
" h4%A  O%Xe, 0eAzr= uX:11::-B<:, XS4+A  %*a     ",
" h0qAo $Xpj, uZ&@C,xzm11-:-BB:Aa>XbOq5 7%ea     ",
" ku%Za O%+p5 uraDs,>:11::-BB:@jaupw %S O%pAy    ",
" xu%qAa4X+p8 zV,ufa-11-:-BBm9@fAuj97qi 6%p5+=   ",
" .Dq%pah+Xp8 %NyuC:11::-BB-p5u+5zf5OzM u+q5q9   ",
" $zpu%f@p@qw %M,h:11-:-BB-ujshX5z*5kz86%=qS%Vg  ",
" .zpu%%@p@%S %il:n1::-BBm9u*s4+F+Z&k@e6qr+pXe>  ",
" kXp0zq@e@%b7qi:n1:-:BB-X9@e5 %w%Na>@j,pi+prpq%%",
" .Xelu++Zu%b.%m11:-:<dmO+8zV, %i%ra=@Zrfbfeii8Sw",
" 7%eg0z%Vh%bh:n1:-:B<:y$%5XN, qNp8&aa*VVijVbay  ",
" OCZ6k@%Nh%M:11:-:<dmMg.XfqV,.%MeraA=*NrSjZiy,  ",
" 0f* 6@%MhXmn12:-Bd-%b O%5qNykXVeSA&,*Z85,rwg   ",
" 0%*  @%bO:11:-mBBm@Xb .XjpN=xCVV855afei&=,     ",
" 0qA  o+b:n1:-m<d-eyqw kX*eba=fVVrAA,Cpb        ",
" u%C    :11:-:<dmzCaqSy>+fZb5GjZSsa&y=pb        ",
" @%a   :n1:-:<d:6@%fXwygaZVi5&CeVG   yfw        ",
" z%,  :n1:-:<dmll0+fjw&ajZNi5,Cpi=    ,&        ",
" z%= :n1::-Bdm5g=xpZN#5AsZVwayvjb               ",
" z,l;11:-:<Bm5=,,,ZNN95AapNa,gyp8               ",
" %,g111;:<dmp8,&5A*Nw5G,@qVag y,9               ",
" %g;11;<d<,pVi555Aje8,,o4%b=                    ",
" %l11;d##mlZVi555,Xpbyyk.%b                     ",
" o;;:9#,aGaeVb5Gay+%b   @%b                     ",
" l;#d,aA55sVZia,y>zpb   oab                     ",
" bS#A55555,jewgy >Dqw     ,                     ",
"     #5Ga&>+Z9   kup8                           ",
"         =.Xe5    +Xw                           ",
"          kXe5    oAw                           ",
"           Xf5     y=                           ",
"            g                                   "};
