/* XPM */
static char *magick[] = {
/* columns rows colors chars-per-pixel */
"48 48 241 2",
"   c black",
".  c gray100",
"X  c #ffebeb",
"o  c #d2c2ad",
"O  c #d6c6b9",
"+  c #d4c5aa",
"@  c #ccc0a3",
"#  c #d2c2b5",
"$  c #d6c6b2",
"%  c #d4c9ad",
"&  c #d8c9ab",
"*  c #daccbc",
"=  c #d6c5ae",
"-  c #d6c5b5",
";  c #d1bea6",
":  c #d9c9b0",
">  c #d9cab9",
",  c #d8c7af",
"<  c #d1c2b1",
"1  c #cebdad",
"2  c #cdbda2",
"3  c #cebdb0",
"4  c #dccab5",
"5  c #d4c2a9",
"6  c #d1c2a6",
"7  c #d5cabb",
"8  c #cec0a9",
"9  c #d7c9b5",
"0  c #d9c8b5",
"q  c #d1bc9d",
"w  c #d6c9b2",
"e  c #d2c5ae",
"r  c #d4c4b5",
"t  c #d8c6b1",
"y  c #d1c1aa",
"u  c #d6c9b9",
"i  c #d2c4aa",
"p  c #cec1b2",
"a  c #d4c2ae",
"s  c #a1947c",
"d  c #d8c7b6",
"f  c #d1bead",
"g  c #cdbea9",
"h  c #cfc1ad",
"j  c #d2bca9",
"k  c #d1bfb1",
"l  c #cabca2",
"z  c #d3c29c",
"x  c #d5c2b1",
"c  c #d3c3a4",
"v  c #cbb7a9",
"b  c #cdbaa5",
"n  c #d1c197",
"m  c #cbbda6",
"M  c #d5c2b9",
"N  c #cebda6",
"B  c #cebd9d",
"V  c #cab9a5",
"C  c #ccb6a4",
"Z  c #c9b6a1",
"A  c #cab195",
"S  c #cab699",
"D  c #cdb99d",
"F  c #cdbaa2",
"G  c #d1bda1",
"H  c #d0bb95",
"J  c #c6b9a2",
"K  c #cdbd9a",
"L  c #cab99a",
"P  c #cabaa1",
"I  c #fff2ef",
"U  c #caba9d",
"Y  c #cab59d",
"T  c #6e615d",
"R  c #d7b7b0",
"E  c #c89c89",
"W  c #7a6254",
"Q  c #c18d80",
"!  c #c8a390",
"~  c #c8a994",
"^  c #c5b39c",
"/  c #c5b395",
"(  c #c4b5a4",
")  c #846554",
"_  c #855548",
"`  c #45281c",
"'  c #393634",
"]  c #a57a5c",
"[  c #77574b",
"{  c #a89478",
"}  c #c6b292",
"|  c #b9a493",
" . c #c6b99b",
".. c #ccbbaa",
"X. c #c6b599",
"o. c #332e31",
"O. c #887152",
"+. c #683e34",
"@. c #8c593f",
"#. c #64503f",
"$. c #957b5f",
"%. c #c5b19d",
"&. c #8f7471",
"*. c #362317",
"=. c #000001",
"-. c #53393b",
";. c #997c74",
":. c #75533f",
">. c #5b3826",
",. c #633d2b",
"<. c #512d20",
"1. c #4e281f",
"2. c #615758",
"3. c #ac8f8c",
"4. c #cec19c",
"5. c #cdb999",
"6. c #b48787",
"7. c #362913",
"8. c #a49e91",
"9. c #cdb494",
"0. c #a27f63",
"q. c #895e58",
"w. c #452a28",
"e. c #bea68d",
"r. c #6d6c66",
"t. c #d8c7a0",
"y. c #d2b6a4",
"u. c #d4b68b",
"i. c #c9b596",
"p. c #b5a69b",
"a. c #311d11",
"s. c #6b6462",
"d. c #b89b89",
"f. c #c3ad9b",
"g. c #9b6557",
"h. c #333235",
"j. c #c2a58c",
"k. c #c2a584",
"l. c #ccb49b",
"z. c #c2a98d",
"x. c #c6b28e",
"c. c #a88474",
"v. c #c6b5a1",
"b. c #6a4a49",
"n. c #5d4333",
"m. c #c9b2a1",
"M. c #856a67",
"N. c #795847",
"B. c #c9b291",
"V. c #c3ac92",
"C. c #c4ac8c",
"Z. c #c7bb91",
"A. c #bdb498",
"S. c #beac8c",
"D. c #bdaa84",
"F. c #2a292c",
"G. c #2e2a24",
"H. c #c9b586",
"J. c #c9ad8e",
"K. c #bdab98",
"L. c #000002",
"P. c #88674f",
"I. c #c6ad96",
"U. c #432930",
"Y. c #251c16",
"T. c #5f5648",
"R. c #cbb38b",
"E. c #c3ab85",
"W. c #ac9585",
"Q. c #333021",
"!. c #caae99",
"~. c #cdb994",
"^. c #c9b29d",
"/. c #ccb88f",
"(. c #c5b187",
"). c #27200d",
"_. c #958c72",
"`. c #34312d",
"'. c #d1bca5",
"]. c #d0b397",
"[. c #c9ad93",
"{. c #a87d78",
"}. c #362c29",
"|. c #9e7a68",
" X c #0d0d12",
".X c #0b0b0e",
"XX c #212124",
"oX c #a59277",
"OX c #a18872",
"+X c #04040b",
"@X c #14141a",
"#X c #2b2b33",
"$X c #c0a87d",
"%X c #bfa281",
"&X c #bfae90",
"*X c #4f444d",
"=X c #594842",
"-X c #33333a",
";X c #c4a578",
":X c #513e41",
">X c #201b0a",
",X c #020206",
"<X c #232329",
"1X c #3d3d49",
"2X c #464651",
"3X c #4d4d5b",
"4X c #525262",
"5X c #4d4d62",
"6X c #545464",
"7X c #595965",
"8X c #5e5e6e",
"9X c #616171",
"0X c #656575",
"qX c #69697b",
"wX c #6a483d",
"eX c #121213",
"rX c #1d1d24",
"tX c #42424e",
"yX c #4c4c55",
"uX c #52525d",
"iX c #5c5c6b",
"pX c #636374",
"aX c #676778",
"sX c #61616e",
"dX c #32301e",
"fX c #988b82",
"gX c #5a4c2f",
"hX c #353540",
"jX c #3c3c44",
"kX c #554345",
"lX c #252536",
"zX c #905e4f",
"xX c #09091b",
"cX c #5b4c52",
"vX c #ac885b",
"bX c #2b201c",
"nX c #676062",
"mX c #926144",
"MX c #4d3221",
"NX c #50524a",
"BX c None",
/* pixels */
"BXBXBXBXBXBXBXBXBXBXBXBXBXBXBXBXBX. . X X X X X X X X X X X X X X X X X X X X X X X X X X X X X ",
"BXBXBXBXBXBXBXBXBXBXBXBXBXBXBXBX. . o O + @ # $ % $ & * = * $ * - ; - : > , < - $ @ 1 2 3 - 4 5 ",
"BXBXBXBXBXBXBXBXBXBXBXBXBXBXBX. X o - 6 # 7 8 7 9 0 > % < q * w 0 - $ * = - e w r w > $ < * t < ",
"BXBXBXBXBXBXBXBXBXBXBXBXBXBX. X e # 5 < < w < y $ w , u r > 7 > u i * 6 * r O r $ 7 = p = = o a ",
"BXBXBXBXBXBXBXBXBXBXBXBXBX. X s d + e o e u f # g e $ = O = h < d * 4 r o - o o $ 2 O o o r 9 # ",
"BXBXBXBXBXBXBXBXBXBXBXBX. X - - e = e - % < o $ j = o O r < y < o d > i * @ O r - u y u e 8 i h ",
"BXBXBXBXBXBXBXBXBXBXBX. X k l o r z u , x r 2 O $ u i $ 9 = d : e > < * $ 0 o o r : r - - < t o ",
"BXBXBXBXBXBXBXBXBXBX. X - i > u c v y r w = t c k % x y b # t d : d e e > > 3 9 3 e 8 h y r - g ",
"BXBXBXBXBXBXBXBXBXBXX = y < d c < n # 6 - j $ f 6 o e h y m d r > - $ o = $ + ; M + 2 w o = r # ",
"BXBXBXBXBXBXBXBXBXBXd : : r 8 u x x $ a # , o c o & < - N < y # % f e j r i u y y N ; e 2 o + @ ",
"BXBXBXBXBXBXBXBXBXBXr d t O i y x + - o y < f f B f 6 $ o $ < y - j g , 8 # $ r x o f g 3 < 1 V ",
"BXBXBXBXBXBXBXBXBXBX$ 6 > a f y 6 M , x y 2 b 2 x y C e f < 2 x 6 O e - N 8 $ r e o g o g f y m ",
"BXBXBXBXBXBXBXBXBXBXx = 6 = y $ 2 g w a $ Z x 2 b A S 1 D < F f N G r H o 2 2 F o 5 y p G ; J S ",
"BXBXBXBXBXBXBXBXBXBXc + x 5 u z > 2 + 2 5 < q < 2 g $ D r K y D @ r @ r ; o y L P f B # 1 Z F 1 ",
"BXBXBXBXBXBXBXBXBXBX0 : + I I I I o c f < D a K y 2 ; o G p U h 6 G e U j Y i b O y 1 f g N v P ",
"BXBXT R E W Q ! ! ~ % 7 I * - c h c P ^ g g 5 < 2 N B B 2 / f q y g y w D m 2 6 g x 5 ; - P 5 ( ",
"BX) _ ` BXBX' ] [ { E c c + % w } 1 e | k G j z b 5 F h U 0 B r c c c ; c 6 y @ 2 1 g e h  ...X.",
"o.O.BXBXBXBXBXo.+._ @.@._ _ #.BXBXw = | $.r D 1 c j 6 b @ q o z = 2 q @ 5 c  .2 8 2 P 2 %.2 P @ ",
"&.*.BXBXBXBXBXBX-.;.:.>.,.<.1.BXBX2.c 3.$.@ 5 4.x 6 o e G o 5.f z 2 r D 6 q P m S ( S J ^ g ^ J ",
"6.7.BXBXBXBXBXBXBX8.9.E 0.q.w.BXBX7 P e.$.; 5 g 2 2 e G 2 4.o @ G P q y @ b D ^ P 2 P %.~ X.l ^ ",
"q.7.BXBXBXBXBXBXBXr.$ t.y.u.i.r % y 2 3.$.j 2 6 ; @ o a 2 j U h 4.a @ m 6 c y U h 4.2 / p.X.Z P ",
"q.a.BXBXBXBXBXBXBXs.6 v D o 5.U S i g d.8 6 F y 6 F X.F 2 U b 2 j U 3 S o 2 l b 2 j X.Y f.X.J U ",
"g.+.BXBXBXBXBXBXBXh.A 5.j.k.l.b 6 b z.$.q @ 6 c j S b B g P 2 m L b B l F ..S 2 g } ~ ( x.^ U Y ",
"c.0.BXBXBXBXBXBXBXBX% x c 8 e.e.E { $.G N D G Z K F z 8 5.2 Z g l 2 v.2 8 U l g l g v.L ( X.v.m ",
"b.f.n.BXBXBXBXBXBXBXa c @ 2 3 j @ o n g 5.; q 2 F L 1 D 1 S V 5.2 m.l F 2 b N P J X.U j 9.^ Y f.",
"-.M.N.BXBXBXBXBXBXBX1 @ U J X.g B.( X.v...D ^ X.Z L } %.V.J m.P C.V Z.%.^ / A.X.J ..S.2 A Z D.D.",
"F.7.) G.BXBXBXBXBXBXg v.G J @ 4.J Z.V S %.U V.A H.f.D.V.e.^ J.S.e.} Y m h 8 ( g  .A.K.} } C.X.V.",
"BX) BXP.BXBXBXBXBXBXP B Z l y  .X... .^ e.9.x.S v.x.I.V.f.%.} f.V.f.v.5.p Z.U ^ %./ V.V./ ~ Y V.",
"BXU.Y.M.T.BXBXBX' BXP @ q G D L L K F S j } X.i.R.l.R.m.R.Z I.S ~ 9.F E.f.P %.U } F I.x.~ } ~ F ",
"BXs.>.h.W.BXBXBXBXBXQ.c y G 5 q o / S D S 5.A R.!.q y.B.i.9.~.^.H.X./.^.5.B.i./.A B.D (.C.~ C.D.",
"BXBXM.).U._.BXBXBXBXBX`.H 2 H 5 9.D '.9.'.B.l.j.R.].u.].[.Y I.U v R.v [.Y I.9.y.H m.9.x.I.z.~ (.",
"BXBXBX:.' {.BXBXBXBXBXBX}.s g / 2 5.B.D z.q J.9.!.].l.].l.J.S A R.m.H.v / S !.R.^.H.D R.V K.} | ",
"BXBXBXM.Y.2.|.BXBXBXBXBX   X_.].5.; l.S ^.[.%.C.9.[.J./ C.A I.%.z.~ !.R.} ~ } ^.C.%.B.l.} D.!.i.",
"BXBXBXBXb.BX{.G.BXBXBXBXBX.XXXoXg E.9.B.J.V } %.V.[.f.k.f.k.X.k.C.Y e.v z.%.} z.V.z./ z.X.%.i.9.",
"BXBXBXBX! >.F.OXBXBXBXBXBX+X@X#X2.Y i.!.C.C.C $Xj.E.z.%.%Xf.z.X.&Xz./ k.I.z.} f.B.f.k.V.j.C.~ I.",
"BXBXBXBXBX;.BX*X=XBXBXBXBX   XXX-X2.W.%.X.D E.v.R.B.X.;XI.;X^.;XI.C.I.f.~ j.S I.i.k.I.j.F A i.I.",
"BXBXBXBXBX:X>XBXW o.BXBXBXBX,X@X<X-X1X2X3X3X4X4X5X6X4X4X6X6X7X7X7X8X9X0XqXqXqXqXqXqXqX0X0X0X0X0X",
"BXBXBXBXBXBXwXBXh.q.BXBXBXBX  ,XeXrX#X-XtXtXyX3XyX3X3X3XuXuXuX6XuX7XiX8XpXpX0X0X0XaXpX0XsXpXpX0X",
"BXBXBXBXBXBX;.dXBXfXgXBXBXBXBX  L..X@XrXXX#X-XhXjX1X:XtXtX2XyXyXyXyXuX7XiXiXiXiXiX9X8X9XsXiXsXsX",
"BXBXBXBXBXBXkXW BXBX) ).  BXBXBX  L.L.,X.XeX@XrX<XlXlXlXlXlX-XhXjXjXtXtXyX3X3XyXyX3XuXuXuX7X7XiX",
"BXBXBXBXBXBXBXzXBXBXBXc.  BXBXBXBXBXL.L.L.L.L.,X+X+X.X.X+X+XxXxXrXrXrXF.h.-X-X#Xh.h.h.-X-X' jXtX",
"BXBXBXBXBXBXBX[ BXBXBXb.&.BXBXBXBXBXBXBXBXBXBXBXBXBXBXBXBXBXBXBXBXBXBXBXBX+X.X.X.X.X XeXeXeXeXeX",
"BXBXBXBXBXBXBXcXw.BXBXBXvX  BXBXBXBXBXBXBXBXBXBXBXBXBXBXBXBXBXBXBXBXBXBXBXBXBXBXBXBXBXBXBX      ",
"BXBXBXBXBXBXBXBX0.BXBXBXvX  BXBXBXBXBXBXBXBXBXBXBXBXBXBXBXBXBXBXBXBXBXBXBXBXBXBXBXBXBXBXBXBXBXBX",
"BXBXBXBXBXBXBXBXbXd.nX) <.BXBXBXBXBXBXBXBXBXBXBXBXBXBXBXBXBXBXBXBXBXBXBXBXBXBXBXBXBXBXBXBXBXBXBX",
"BXBXBXBXBXBXBXBXBX_.mXw.MX>.BXBXBXBXBXBXBXBXBXBXBXBXBXBXBXBXBXBXBXBXBXBXBXBXBXBXBXBXBXBXBXBXBXBX",
"BXBXBXBXBXBXBXBXBXBXY.*.` g.#.BXBXBXBXBXBXBXBXBXBXBXBXBXBXBXBXBXBXBXBXBXBXBXBXBXBXBXBXBXBXBXBXBX",
"BXBXBXBXBXBXBXBXBXBXBXBXNXQ.Q.BXBXBXBXBXBXBXBXBXBXBXBXBXBXBXBXBXBXBXBXBXBXBXBXBXBXBXBXBXBXBXBXBX"
};
