/* XPM */
static char *noname[] = {
/* width height ncolors chars_per_pixel */
"48 48 249 2",
/* colors */
"`` c #000000",
"`a c #AABBAA",
"`b c #412B01",
"`c c #CCBBBB",
"`d c #889999",
"`e c #AA99AA",
"`f c #BBBBAA",
"`g c #392910",
"`h c #FAED0A",
"`i c #E0CE0B",
"`j c #7E6001",
"`k c #472A00",
"`l c #F8ED08",
"`m c #33250A",
"`n c #8E7800",
"`o c #AA9101",
"`p c #999999",
"`q c #140A06",
"`r c #946A06",
"`s c #8C6D08",
"`t c #425F4A",
"`u c #9C8411",
"`v c #050701",
"`w c #241A05",
"`x c #846700",
"`y c #777788",
"`z c #889988",
"a` c #AA9999",
"aa c #B3850D",
"ab c #CEC67A",
"ac c #8C7601",
"ad c #EEEFC1",
"ae c #667777",
"af c #D5C403",
"ag c #D4C402",
"ah c #714D01",
"ai c #D4CB8D",
"aj c #887788",
"ak c #999988",
"al c #FFF40B",
"am c #131915",
"an c #5C4100",
"ao c #151103",
"ap c #404441",
"aq c #777777",
"ar c #C1AE03",
"as c #0B0E03",
"at c #523A00",
"au c #D5C206",
"av c #555566",
"aw c #667766",
"ax c #967411",
"ay c #7D4E09",
"az c #534004",
"b` c #445555",
"ba c #665566",
"bb c #E8D80B",
"bc c #644C04",
"bd c #937A11",
"be c #CDB30B",
"bf c #957D09",
"bg c #393533",
"bh c #DFCD0C",
"bi c #555555",
"bj c #FFDF07",
"bk c #D9CB06",
"bl c #0D0E0B",
"bm c #1E1E1F",
"bn c #342F2E",
"bo c #AE8A07",
"bp c #D6CE8E",
"bq c #CCCCC3",
"br c #333344",
"bs c #445544",
"bt c #BC8D0E",
"bu c #665555",
"bv c #101411",
"bw c #AA9406",
"bx c #170C04",
"by c #223333",
"bz c #332305",
"c` c #6C5308",
"ca c #886A09",
"cb c #443344",
"cc c #555544",
"cd c #EADD09",
"ce c #A08106",
"cf c #472D08",
"cg c #FDF10B",
"ch c #464D49",
"ci c #4C2803",
"cj c #5E4804",
"ck c #333333",
"cl c #DAD498",
"cm c #F2E60A",
"cn c #E4BC0D",
"co c #E9D70B",
"cp c #223322",
"cq c #141711",
"cr c #443333",
"cs c #9A7F03",
"ct c #FAED0B",
"cu c #987501",
"cv c #633B02",
"cw c #25201B",
"cx c #001111",
"cy c #221122",
"cz c #333322",
"d` c #F0DC0B",
"da c #886705",
"db c #F8FFF7",
"dc c #BBCCBB",
"dd c #190D05",
"de c #160D02",
"df c #031903",
"dg c #8D7203",
"dh c #A88B03",
"di c #090909",
"dj c #D3CB8D",
"dk c #CDBD06",
"dl c #BBAABB",
"dm c #1D150C",
"dn c #7A5D0E",
"do c #ADA001",
"dp c #A3861F",
"dq c #917B00",
"dr c #E4E2AE",
"ds c #795403",
"dt c #D0BE16",
"du c #AAAAAA",
"dv c #2B1D09",
"dw c #655003",
"dx c #1C150E",
"dy c #FBF00B",
"dz c #888899",
"e` c #99AA99",
"ea c #7D6300",
"eb c #BBAAAA",
"ec c #F1E30B",
"ed c #3D2400",
"ee c #553A07",
"ef c #8C6E08",
"eg c #1C1C1B",
"eh c #BBA240",
"ei c #EEE108",
"ej c #778888",
"ek c #D5C500",
"el c #9F8700",
"em c #9B8406",
"en c #998899",
"eo c #AAAA99",
"ep c #917906",
"eq c #454343",
"er c #29362E",
"es c #888888",
"et c #C1AD00",
"eu c #515152",
"ev c #EEDF0B",
"ew c #4F3804",
"ex c #ECD909",
"ey c #DED244",
"ez c #4E2A03",
"f` c #D9CD49",
"fa c #666677",
"fb c #778877",
"fc c #816200",
"fd c #A86016",
"fe c #E0D007",
"ff c #998888",
"fg c #201104",
"fh c #C5A811",
"fi c #01190D",
"fj c #B38010",
"fk c #DCCA03",
"fl c #556666",
"fm c #776677",
"fn c #3B3B3C",
"fo c #888877",
"fp c #39393A",
"fq c #FAEF09",
"fr c #A79C32",
"fs c #5C4003",
"ft c #7E5800",
"fu c #666666",
"fv c #AA9300",
"fw c #B08106",
"fx c #D1C465",
"fy c #B5990E",
"fz c #444455",
"g` c #556655",
"ga c #CDBD01",
"gb c #001F12",
"gc c #232324",
"gd c #BFAF71",
"ge c #604300",
"gf c #201000",
"gg c #765705",
"gh c #BFAB07",
"gi c #334444",
"gj c #715700",
"gk c #554455",
"gl c #D5C402",
"gm c #666655",
"gn c #FFFFFF",
"go c #7F6A07",
"gp c #846902",
"gq c #01200C",
"gr c #444444",
"gs c #060907",
"gt c #222233",
"gu c #334433",
"gv c #B9B050",
"gw c #554444",
"gx c #7F6300",
"gy c #7F692B",
"gz c #1A130A",
"h` c #593E09",
"ha c #967E27",
"hb c #112222",
"hc c #F1E309",
"hd c #332233",
"he c #B7A20F",
"hf c #444433",
"hg c #E9DA0B",
"hh c #313A34",
"hi c #222222",
"hj c #373330",
"hk c #26211C",
"hl c #EBDF06",
"hm c #112211",
"hn c #2B2924",
"ho c #473104",
"hp c #CCBBCC",
"hq c #030000",
"hr c #F5EA09",
"hs c #947A00",
"ht c #0E0E0E",
"hu c #603A02",
"hv c #0F0D05",
"hw c #BBBBBB",
"hx c #6F5800",
"hy c #BB9D0F",
"hz c #A28707",
"i` c #695104",
"ia c #FEF30B",
"ib c #9F7F04",
"ic c #433103",
"id c #020202",
"ie c #9B760A",
/* pixels */
"````````````````````````````````````````````````````````````````````````````````````````````````",
"````````````````````````````````````````````````````````````````````````````````````````````````",
"````````````````````````````````````````````````````````````````````````````````````````````````",
"````````````````````````````````````````````````````````````````````````````````````````````````",
"````````````````````````````````````````````````````````````````````````````````````````````````",
"````````````````````````````````````bqbqhphp`chwhwhw`fdldldldu`adudlebduebdu`a`adldlhw``````````",
"````````````````````````````````````dchw`chwhw`f`f`aduebdududueoeo`e`e`e`ee`eoe``e`e`e``````````",
"````````````````````````````````````hwhwdldlebdududueo`e`ea``pe``p`pa``pen`pakakenenen``````````",
"`````````````````````````````````````f`fdlebdueoeoe``pa`a``pakakakenenffenesesfoesesaj``````````",
"````````````````````````````````````dududu`e`e`p`p`p`penenenes`zesesajesajfbfbaqaqaqfm``````````",
"````````````````````````````````````dudue`e`e``p`p`pen`z`z`zesesesejfbfbfbaqaqaqawawaw``````````",
"`````````````````````````````````````e`e`p`p`denendzdzesejejajaj`yfbaqaqaefmfmfaawawfl``````````",
"`````````````````````````````````````p`p`z`z`zesesesajfbfbfbaqaqaqawawawawfufufug`g`g```````````",
"````````````````````````````````````enenesesejajaj`yaqaqaqaefmfmfaawfufuflbabaavg`g`b```````````",
"````````````````````````````````````esesejfbfbaqaqaqaqawawawfufufug`g`g`g`bibibibsbsbs``````````",
"````````````````````````````````````esajaqaqaefmfmfafufufuflbabaavg`bibib`gkgkfzgrgrgi``````````",
"````````````````````````````````````aqaqfmfmfufufufug`babababibibibigkgkgkgrgrgrcbcbcb``````````",
"````````````````````````````````````awfufubafugmgmg`bibibubiccccbsgkgwgwgrhfhfgucrcrck``````````",
"````````````````````````````````````fug`bababubibibiccgkgkgkgrgrgrgrcbcbcbguckckhdhdhd``````````",
"````````````````````````````````````g`bibigkgkccbsbsgrgwgwgrhfhfhfcbcbcrckczczcphdhdhi``````````",
"````````````````````````````````````bsgrgwgreqgrhfgrhfcbcbcbguckckckhdhdhdcphihihihicy``````````",
"````````````````````````````````````grgrgigugucbcbbrbrguckguckckckcpbycpcphihihihmhmhm``````````",
"````````````````````````````````````hdckbyckbyckckhdckbybycphdhdgtcphihihbcycycyhmhmcx``````````",
"````````````````````````````````````````````````````````````````````````````````````````````````",
"````````````````````````````````````````````````````````````gn``````````````````````````````````",
"````````````````````````````````````````````````````````````````````````````````````````````````",
"````````````````````````````````````````````````````````````````````````````````````````````````",
"````````````````````````````````````````````````````````````````````````````````````````````````",
"```````````````````bdvgqgqdfdf``````````````````````````````````````````````````````````````````",
"````````````````bxdvalalalgygqgqgq``````````````````````````````````````````````````````````````",
"``````````````bxbxdjdbalalalalgqgqgq````````````````````````````````````````````````````````````",
"``````````````fgdjdbdbdbdbbpcdhccigbfifi````````````````````````````````````````````````````````",
"````````````bxbxdjecdrdrhacaefhcay``````````````````````````````````````````````````````````````",
"````````````bxevghepgg`ubdaxbtci````gngngngn``````````````````````````````dvgqgqdfdf````````````",
"`````````````qdtghbwembfhed`hq````````````````````````````````````````bxdvalalalgygqgq``````````",
"`````````````qbtbeaudkbkcmdy````````````````````````````````````````bxbxdjdbalalalalgqgq````````",
"`````````````qfjaafq`lfqiaez``````````````````````````````gn````````fgdjdbdbdbdbclalalcigb``````",
"``````````````````````````````````````````````````````````````````bxbxdjaladadabfx`hctay`r``````",
"``````gn``gn````gn``gn````gn``gn````gngn````gn``gngn````gngn````gnbxevhgbbeyf`cgcnfwdscvahid````",
"`````q`q`q`q`q`q`g````gn``gn``gn``gn````gn``gngn``````gngn```q`q`q`qdt`ifebhecctexcufthu`j`o````",
"`````q`qaigvfr`q`q`````````````````````````````````````````q`qdbehfrfg`qcocthlaffvfcahfsdgep````",
"```q`ggddbalbjdnbz``````````````````````````````````````hv`qdbdbhrhriebzcdaggaethsgxdahyc`i`bc``",
"```qdbalaldbbedsdmeqeu``````````````````````````````````hv`qaleiargjfhddan`nacgp`xgafkhzgoewho``",
"```qboalalalfd`rhkbneu``````````````````````````````````hvhgar`oeahzfhdd`khxdqeletdhdgh`cjcjiddi",
"```q`scedhcsiedmcwhjeu````````````````````````````````````dpibgxgefyidhthtbldoekglgpeecfazgsamhh",
"```q`q`micdwgzdxhneueu``````````````````````````````````````````````bmgcegcqas``fkatedgf`vbverch",
"`````q`qao`wgzbgeu````````````````````````````````````````````dededefnfpfnap``````````hq`vhh`t``",
"````````````````````````````````````````````````````````````````````````````````````````````````"
};
