/* XPM */
static char * Tile_WMStone_xpm[] = {
"64 64 283 2",
"  	c #9E799658A699",
". 	c #A699A289B6DA",
"X 	c #A6999A69BEFB",
"o 	c #A6999E79B6DA",
"O 	c #9E799658B6DA",
"+ 	c #9E799A69B6DA",
"@ 	c #A6999E79BEFB",
"# 	c #9E799658AEBA",
"$ 	c #9E799A69AEBA",
"% 	c #9E799A69BEFB",
"& 	c #A6999A69CF3C",
"* 	c #A6999658CF3C",
"= 	c #AEBAA289CF3C",
"- 	c #A6999A69C71B",
"; 	c #B6DAA699D75C",
": 	c #B6DAAAAAD75C",
"> 	c #BEFBAEBAD75C",
", 	c #B6DAAEBAD75C",
"< 	c #BEFBB2CAD75C",
"1 	c #C71BB6DAD75C",
"2 	c #C71BBAEAD75C",
"3 	c #C71BBAEACF3C",
"4 	c #D75CC71BDF7D",
"5 	c #CF3CC30BD75C",
"6 	c #CF3CC71BD75C",
"7 	c #CF3CC71BDF7D",
"8 	c #CF3CC30BDF7D",
"9 	c #BEFBB6DAD75C",
"0 	c #9E799248C71B",
"q 	c #D75CCB2BDF7D",
"w 	c #CF3CBEFBDF7D",
"e 	c #D75CCB2BE79D",
"r 	c #C71BBEFBCF3C",
"t 	c #DF7DCF3CE79D",
"y 	c #C71BBEFBD75C",
"u 	c #C71BBEFBDF7D",
"i 	c #B6DAAEBACF3C",
"p 	c #AEBAA699CF3C",
"a 	c #9E799658C71B",
"s 	c #9E799248BEFB",
"d 	c #AEBAA699D75C",
"f 	c #C71BB6DADF7D",
"g 	c #CF3CBEFBD75C",
"h 	c #C71BBAEADF7D",
"j 	c #B6DAAAAACF3C",
"k 	c #A6999E79CF3C",
"l 	c #AEBAA289D75C",
"z 	c #96589658A699",
"x 	c #965892489E79",
"c 	c #8E388E389E79",
"v 	c #8E388A289658",
"b 	c #96588E389E79",
"n 	c #A6999E79AEBA",
"m 	c #A699A289BEFB",
"M 	c #9E799A69C71B",
"N 	c #9E799A69A699",
"B 	c #96588E38C71B",
"V 	c #C71BB6DACF3C",
"C 	c #A6999A69B6DA",
"Z 	c #A6999658B6DA",
"A 	c #AEBAA289B6DA",
"S 	c #B6DAAAAABEFB",
"D 	c #AEBAA699BEFB",
"F 	c #AEBAA289BEFB",
"G 	c #AEBA9E79BEFB",
"H 	c #9E799248B6DA",
"J 	c #96588A28B6DA",
"K 	c #96588A28AEBA",
"L 	c #8E388617AEBA",
"P 	c #8E387DF7AEBA",
"I 	c #8E388207AEBA",
"U 	c #861779E7AEBA",
"Y 	c #86177DF7AEBA",
"T 	c #79E771C6A699",
"R 	c #79E771C69E79",
"E 	c #79E775D69658",
"W 	c #79E779E79658",
"Q 	c #79E775D68E38",
"! 	c #71C671C68617",
"~ 	c #71C671C679E7",
"^ 	c #71C675D679E7",
"/ 	c #69A669A671C6",
"( 	c #6185659569A6",
") 	c #6185618569A6",
"_ 	c #69A66DB671C6",
"` 	c #69A6659569A6",
"' 	c #79E775D68617",
"] 	c #79E77DF78E38",
"[ 	c #79E779E78E38",
"{ 	c #79E775D6A699",
"} 	c #861779E7A699",
"| 	c #71C675D68617",
" .	c #9E798E38C71B",
"..	c #B6DAA699BEFB",
"X.	c #8E388207B6DA",
"o.	c #86177DF7A699",
"O.	c #86177DF79E79",
"+.	c #861779E79658",
"@.	c #69A66DB679E7",
"#.	c #69A6659571C6",
"$.	c #71C66DB679E7",
"%.	c #79E779E78617",
"&.	c #79E779E79E79",
"*.	c #AEBAA699B6DA",
"=.	c #AEBA9E79B6DA",
"-.	c #96588617AEBA",
";.	c #69A669A669A6",
":.	c #9E798E38BEFB",
">.	c #79E779E7A699",
",.	c #86177DF79658",
"<.	c #79E771C69658",
"1.	c #79E775D69E79",
"2.	c #71C669A69E79",
"3.	c #71C671C68E38",
"4.	c #861775D6A699",
"5.	c #71C66DB69E79",
"6.	c #AEBA9E79CF3C",
"7.	c #9E798E38B6DA",
"8.	c #9E798E38AEBA",
"9.	c #9E799248AEBA",
"0.	c #96588E38B6DA",
"q.	c #79E775D6AEBA",
"w.	c #71C66DB69658",
"e.	c #6185659571C6",
"r.	c #861775D6AEBA",
"t.	c #861771C6A699",
"y.	c #69A661859658",
"u.	c #6185618571C6",
"i.	c #61855D7569A6",
"p.	c #69A669A68617",
"a.	c #71C66DB68E38",
"s.	c #69A661859E79",
"d.	c #A6999658AEBA",
"f.	c #96588E38AEBA",
"g.	c #861779E79E79",
"h.	c #71C66DB671C6",
"j.	c #5965596569A6",
"k.	c #69A661858E38",
"l.	c #69A665959E79",
"z.	c #71C669A68E38",
"x.	c #B6DAA699CF3C",
"c.	c #61855D759E79",
"v.	c #618559658E38",
"b.	c #618559659658",
"n.	c #71C665959E79",
"m.	c #8E388207A699",
"M.	c #71C66595A699",
"N.	c #61855D7571C6",
"B.	c #514451446185",
"V.	c #71C66DB68617",
"C.	c #61855D758617",
"Z.	c #5965596571C6",
"A.	c #5965555579E7",
"S.	c #596555559658",
"D.	c #861775D69E79",
"F.	c #618561856185",
"G.	c #61855D756185",
"H.	c #79E76DB6A699",
"J.	c #6185618579E7",
"K.	c #8E387DF7A699",
"L.	c #69A665959658",
"P.	c #5965514471C6",
"I.	c #596551448617",
"U.	c #596551448E38",
"Y.	c #618555559658",
"T.	c #596555558E38",
"R.	c #61855D758E38",
"E.	c #69A661858617",
"W.	c #59655D756185",
"Q.	c #A6999658BEFB",
"!.	c #61855D759658",
"~.	c #61855D7579E7",
"^.	c #69A669A68E38",
"/.	c #96589248A699",
"(.	c #861782078E38",
").	c #8E3886178E38",
"_.	c #69A669A679E7",
"`.	c #596555556185",
"'.	c #492449245965",
"].	c #49244D345965",
"[.	c #51444D345965",
"{.	c #51444D346185",
"}.	c #514451445965",
"|.	c #596559656185",
" X	c #596559655965",
".X	c #6185596571C6",
"XX	c #861786178E38",
"oX	c #514455556185",
"OX	c #410341034924",
"+X	c #41033CF34924",
"@X	c #38E338E34103",
"#X	c #38E33CF34103",
"$X	c #41033CF34103",
"%X	c #410345144924",
"&X	c #492449245144",
"*X	c #514455555965",
"=X	c #514451445144",
"-X	c #8E3879E7AEBA",
";X	c #A6999A69AEBA",
":X	c #861782078617",
">X	c #492445145144",
",X	c #38E334D338E3",
"<X	c #30C234D338E3",
"1X	c #30C230C238E3",
"2X	c #30C22CB230C2",
"3X	c #30C230C230C2",
"4X	c #38E338E338E3",
"5X	c #492449244924",
"6X	c #69A6659579E7",
"7X	c #69A66DB68617",
"8X	c #71C669A6A699",
"9X	c #96588617A699",
"0X	c #8E388A288E38",
"qX	c #28A22CB230C2",
"wX	c #71C669A68617",
"eX	c #492445144924",
"rX	c #71C669A69658",
"tX	c #96588A28A699",
"yX	c #9E798E38A699",
"uX	c #9E799248A699",
"iX	c #38E334D34103",
"pX	c #410341034103",
"aX	c #49244D345144",
"sX	c #6185596579E7",
"dX	c #596555555965",
"fX	c #96588617B6DA",
"gX	c #8E387DF79E79",
"hX	c #96588E38A699",
"jX	c #9E798A28AEBA",
"kX	c #59655D7569A6",
"lX	c #AEBA9A69B6DA",
"zX	c #79E76DB69E79",
"xX	c #BEFBB2CACF3C",
"cX	c #BEFBAEBACF3C",
"vX	c #410345145144",
"bX	c #69A65D759E79",
"nX	c #B6DAA699B6DA",
"mX	c #B6DAAAAAB6DA",
"MX	c #96589248B6DA",
"NX	c #B6DAAEBAB6DA",
"BX	c #BEFBB2CABEFB",
"VX	c #618559658617",
"CX	c #79E769A69E79",
"ZX	c #BEFBAEBABEFB",
"AX	c #5965596579E7",
"SX	c #A6999248AEBA",
"DX	c #861771C69E79",
"FX	c #B6DAB2CAB6DA",
"GX	c #96588207A699",
"HX	c #5965555569A6",
"JX	c #69A659659658",
"KX	c #38E33CF34924",
"LX	c #5144514469A6",
"PX	c #5965555571C6",
"IX	c #A6999658C71B",
"UX	c #D75CCF3CDF7D",
"YX	c #5965514479E7",
"TX	c #AEBA9E79AEBA",
"RX	c #B6DAAEBABEFB",
"EX	c #69A65D759658",
"WX	c #59655D7571C6",
"QX	c #9E799658BEFB",
"!X	c #596555558617",
"~X	c #51444D345144",
"^X	c #69A665958617",
"/X	c #8E388617B6DA",
"(X	c #71C671C69658",
")X	c #AEBAA699AEBA",
"_X	c #AEBAA289AEBA",
"`X	c #BEFBB6DABEFB",
"'X	c #AEBAAAAAAEBA",
"]X	c #71C66DB6A699",
"[X	c #69A669A69658",
"{X	c #69A6618579E7",
"}X	c #596551449658",
"|X	c #410341035144",
" o	c #BEFBB6DACF3C",
".o	c #618555558E38",
"Xo	c #5965514469A6",
"oo	c #A6999E79C71B",
"Oo	c #96588A28C71B",
"+o	c #861782079658",
"@o	c #8E3882079E79",
"  . X o o O o + O + @ + # . o $ o % & * = - - - = = = ; : > , : : > < < < 1 2 3 4 4 5 5 6 6 5 5 4 7 8 8 8 2 9 1 < 9 < < < 4 4 6 ",
"0 1 q q 7 q 5 4 q 7 7 q 5 8 w e 4 q q q q 4 6 5 r 5 4 q e t e 5 4 y y 8 u 9 i p - & a a s s & d = : > 9 f < < 1 2 u u 8 7 < : = ",
"0 5 7 g 7 g y g 8 2 y q 7 7 6 t q q 7 8 2 h > < , j j = = : : : k l l - + + $ z x x c v v v v b x $ n . m + O O M M & k k o $ N ",
"B 7 V 8 o C C Z Z Z C A A S D D D D F G C H J K J L P I U U Y Y T R E W Q ! ~ ^ / ( ) ( / _ / ` / ~ ' ] [ Q ' Q Q E E { } [ ' | ",
" .5 2 9 o # C O Z Z C F A S S D ..A D A @ H J I L P I X.Y { U o.O.O.+.' ! ~ @.#./ / ( ) ( ( ( / ` $.~ %.' ! | [ Q [ W &.&.[ Q | ",
"0 5 2 y C A O o C C C A o A *...S *.D o @ H J I Y P Y Y { U o.O.O.Q ! [ ] $./ ~ ( ( ) ) ( ( ` _ / ~ ~ %.! ! ' [ [ [ W W &.W Q Q ",
"a g y 2 A A A F =.o C =.o o A *.*.*.A A o H J -.} Y Y } { } O.O.W Q ' ' | $./ _ ;.` ( ( ( ( ) ) / ~ ' ] Q Q Q [ [ [ [ W W W W [ ",
":.5 3 5 A A D ....F C A =.A D A A A A F C O J J I U U } { >.O.,.,.[ ! $.~ ~ _ / ` ( ) ) ( ( ` / / ' [ O.T T R <.Q ' [ ] ,.&.1.W ",
"s 5 g 6 D ........A o C o =.A A D A A A Z O J -.I U T R { W [ ] ,.[ | ~ ~ ~ _ ` ` ( ( ( ( ( ( / ~ [ U I J I T 2.3.Q ' | Q 4.&.&.",
"0 5 g 6 D D =.F S F C Z C C =.A *.A =.o O H K P Y U 1.5.E W Q ' [ %.' ~ _ / / / ( ( ` ( ) ( / $.[ U -.H H K P 5.! $.! Q [ } 4.T ",
"6.5 y 5 D F G ..S G H 7.8.9.C =.A A =.A O 7.-.I P U { E Q ! ! ! | ^ ' | ~ / ( ( ( ( ` ( ) ( / | W -.Z C C 0.q.w.e./ ! | | U r.r.",
"i g 9 y D ......G J U t.} K Z C o o C C 9.K L U U >.&.W Q ~ $.~ _ $.~ ~ ~ _ ( ( ) ( ( ( ( ;.~ W U O C o H P y.u.i.p.a.3.! { Y P ",
"2 9 p j o D D G J t.s.s.T -.9.d.# # 9.f.-.-.U { { g.W | ~ ~ @./ / / / / _ h./ ( ( ) ) ( / _ ' U 7.X C 7.P s.j.j.k.s.l.z.! U Y Y ",
"q x.s - f.C C J P c.v.b.n.} -.K -.K m.L Y Y { { g.[ ' ~ ~ $./ ) ) ( ( ) ;._ / ( ;.( ( / $.%.{ 0.C X H I M.N.B.v.4.} 4.2.V.{ P I ",
"q a z H { -.I U M.C.Z.A.S.s.R R D.{ R 5.T E E Q ] Q ! | ~ _ ` ( F.F.F.G.( ;.;.` ` ;./ _ | } J O Z Z -.H.J.B.C.H.-.-.K.2.p.T o.L ",
"5 9.v c ! <.2.L.J.Z.B.B.P.I.U.Y.T.R.E.p.V.| ! [ Q [ [ [ ~ _ / ( F.W.W.W.F.( ;._ ( _ ~ ' 1.J Q.X C H r.!.j.~.T -.9.f.K.5.^.H.o.P ",
"2 /.(.)./ @.@._.u.`.B.'.].[.].{.}.}.B.|.u.#.@.%.,.O.{ &.! / ) W. XW.G.) F.F.) ` ~ | [ >.J C o @ Z J M.~..Xn.K Z d.8.m.2.z.H.o.Y ",
"g z XXXX) ) ) ) |.oX].OX+X@X@X#X@X$X%X&X}.|./ [ R { P q.3.#.*X=X|.i.) ( ) F.) / ~ ,.Y H F F F G H -Xc.~.H.f.C ;X;X9.m.2.L.2.T Y ",
"5 # XX:XF.) G.|.*X}.>X#X,X<X1X2X3X1X4X#X%X=Xi.! { L -.T V.|.&X5Xj.6X7X$.e.W.F./ %.Y O F ....D X J 8Xb.T 9.o C 9.9.9.9XR 2.w.<.T ",
"5 # 0X(.G.F.F.W. X=X%X#X<X3X2X3X2XqX3X<X#X%X`.wXP -.I l.) eXOX}.J.s.8XrX/ |.|._ { H F F D ..F Q.U s.T Z C # -.tXyXuXtXg.R $.! ! ",
"g 0 v (.G.F.F.F.W.*X&X%X#X@X<X,XiX1X<X4X@XpX}.L.4.I U k.aX#X&XsXt.I I } ^.|.dX/ U Z F D D F Z fXH.U Z =.8.K.D.gXhXuXhXm.K./ $.@.",
"V = b XX) F.F.F.F. X*XaX%X$X#X#X#X@X,X<X4X#X[.R.T } s.`.#X#XZ.H.C =.C jXs.kX=X) T 7.C C lXH I 8Xt.Z =.9.} zXR gXtXuXuXhXK ) / / ",
"xXcX/.v ` ) F.F.W.W.W.*X&X%XOX+XOX+X@X<X<X4X&XsX2.s.~.vX,X'.bXK C nXmXC } N.5XaXe.8XU I I T s.8X8.=.9.} n.2.D.m.hXuX# d.d.G.( ` ",
"j 9 MXx @./ ) F.( F.W.|.*XaXOX#X#X#X@X,X3X1XOX`.A.Z.].@X@X].Y.-.=.NXBXmXK bX].#X%X`.~.VXVXZ.s.K C C -.CXn.2.g.tXuXuX# ;Xo W.F.( ",
"= y - $ $./ ) ( F.( W. X*XaX%X$X@X@X@X<X3X<X@X'.[.].#X<X<XOXA.} =.NXBXZXA } I.&X@X4X@XOX>XAXt.SXC K 4.DXzXK.9XuXuX;Xn o =.G.( ( ",
"& 8 k + ~ $./ ` F.F.F.F. X}.aXpX4X<X3X3XqX3X<X#X#X,X#X#X1X<X[.s.d.NXFXBXNX=.GXb.HX>X@X<X>XT.-.d.d.9XK.g.m.tXuX#   n n =.A F.( ( ",
"& 7 k + Q | _ / ( ( ) F.W.|.*X&XpX4X<X3XqXqX3X<X#X>X'.&X@X1XOXJX9.NXBXBXBXNXnX9.CXB.,X3X'.b.m.d.SX8.tXhXyXuX  d.;Xo o A A ) ` ` ",
"- q = a [ ' | _ / / ( ( ( ) W.|.aXOX@X<X3X3X<XKX'.LXA.PX&X,X+XI.m.nXNXBXBXNXnXK s.B.@X3X&XS.K.9.# 9.uXuXuX  d.;Xn =.A A A ( ;.;.",
"IXUX, k &.[ %.| $.$._ / / #.( ) |.].#X<X,X@XOX'.YXU.b.I.B.#XOXA.g.TXNXNXRXmX=.tXs.B.@X1XOXHXl.o.tXhXyXyXuX# d.;Xo =.A A A F.( ;.",
"a q , l >.W W [ ' ! ~ ~ $.~ @./ i.oX>X%X>X{.LXU.EX2.2.Y.oXOXeX~.D.d.nXnXA =.K R b.HXOX@X#X&XWX!.zXg.m.9Xf.9.C A A A A A A F.F.` ",
"QXq , ; U { g.W g.[ [ ! ! ! ! $.#.j.j.Z.T.b.n.R 1.1.zXT.}.%X[.E.m.d.=.A ;X9.K } n.!X`.&X%X%X~X|.6XL.R m.K 9.Z A A A A A A F.F.( ",
"QXq < > X.U U { { { { E E [ 3.V.V._.^XbXH.} m.m.m.D.y.Z.[.5X`.k.o.d.=.=.=.=.9.tX} 1.EX~.|.}.aX}.|.#.rX4.-.8.# =.=.o A A A F.W.F.",
"O 7 < j I /XP Y U Y { T { R 1.5.rX(Xw.l.T o.m.m.D.zXR.i.}.aX) L.m.d.A mXmXnX)X_Xn ;XuX9X5.6X|.=X X( V.T I K Z C o A A A A F.G.W.",
"C 7 9 i -.I -.fXI I X.X.U Y 4.fXX.Y T a.2.2.2.l.y.^X|.~X*X X/ 2.K =.mXBX`XBXNXmX)X)X)X_XuXD._.|. XF./ 3.U I K O Z C C o o G.F.F.",
"# 5 2 1 H -.L I J J fXI U P K H Z H 8.K I { l.^Xu.kX}.aXdX|./ T L Z =.nXZXBXBXNXFXmX'X*.n m.l.#.W.dX` ~ (X{ I K H Z Z C o W.W.G.",
"$ 7 2 xXf.f.K -.L I /XI K 7.O o F D D A =.C 9.L T z._.W.*X*X#.| { U -.-.K 7.H =.A A =.=.C 8.{ ! ) W.F.#.! E R Y -.K 8.9.Z ) F.F.",
"x 8 7 w H K K I L I I 7.7.Z ;X*.S D D S ..A =.Z I T p.i.dX*X( @.' [ [ Q E R ]XU K Z Z 9.9.K } [X/ ( W.F./ ~ | 1.Y I K K f.( ( ) ",
"z g g y Z f.K L L J -.H C C A A A F F D D =.Z 7.} M.{X|.}.=X|.) / / #.#./ ! a.H.I 7.O 8.8.7.K } $.( G.F.) ( ~ | Q 1.{ } I _ _ / ",
"$ y 2 1 O 8.K L I K QX9.A S S ..F ..D =.Z 7.P H.s.C.j.].eX5X}.|.W.W.W. Xi.#.L.U H =.C C H 9.8.2._.#.F.W.F.( ) _ $.| [ E { ~ @.@.",
"z g y 9 9.9.f.-.I f.Z A D S F A D =.7.-.U 8Xc.C.sXB.>X$X#XpX&X~X=X}.*X}.}.u.8X-.C ....=.Z 8.2.u.kX|.W.W.F.F.G.( / / @.| ' 3.! Q ",
"$ 5 g 1 H f.f.K K 9.Z ..S ....D G 7.T b.VXA.PX{.].vX#X<X<X4XpX%X5X5X5X&XoXC.P Z ..S A C 9.4.AX[.}.}.*X) F.F.) F.F.F./ ( @.{ { 1.",
"o 4 8 1 H 8.K K O # A D ..F F F H H.C.Y.n.bXT.PX&X#X1X3X3X<X,X@X#X#XOX&XN.M.7.=.=.A =.8.4.}X}.+XpX5XaX|.W.) ( F.G.G.( ) ` L o.5.",
"+ 7 2 2 H 7.H Z o o A =.=...F H r.VXs.4.zXzXs.YXB.KX<X3XqX2X1X<X,X@XOX&XA.n.n.t.} P K.4.U.{.@X<X@XpX%X=X X) ( ) F.W.W.G.F.7.K I ",
"X q 2 2 f.H O C A D =.o C =.C U C.b.t.K.K.D.n.I.{.OX<X2XqXqX1X<X<X,XOX].Z.HX{.B.A.Y.bXS.A.|X<X3X<X#XeX=X*XW.( ( ) F.F.F.G.C 8.K ",
"H 5  o< f.O o F S A 9.o F =.K c.C.8XI K K K.zXY.B.OX@X1XqXqXqX1X1X@XOX+X<X<X<X@XOX{.LX].|X@X1X3X<X#X%X5X*XW.) ( ( ( ( F.W.F O 8.",
"% 7 2 < 9.C =.A =.C G o =.Z t.j.s.4.-.8.9XD.rXA.}.OX@X<X3XqX3X1X<X<X<X2X3X1X<X<X@XOX+X@X1X,X3X1X<X4X$X%X=X|.F.( ;.;.( F.W.F o C ",
"QX5 2 1 C A D D G 9.Z F G } Z..on.I GXK 9XR T.N.oX>X$X4X1X3XqXqXqXqXqX2X,X+X#X#X4X#X@X3X3X3X1XqXqX<X#X%XaX*XW.( / / / F.F.A =.C ",
"H 5 2 1 =.A *.C C C o A K v.Z.b.T I K.o.R y.N.|.}.&X%X#X<X1X3XqXqXqX1X@XOX&X>X#X#X#X,X,X1X3X1X2X3X3X<X@X5X*XW.( ;.;.;.G.W.=.F G ",
"X q y y A *.A o C =.D 7.8Xj.b.2.4.} K.zX!.N.|.*X}.=XaX%X#X,X1X3XqX<X@X|X].B.[.OXpXpXpX#X,X<X<X3X3X1X<X,X4XpXaX=X=X XF.F.W.o C 9.",
"MX6 y 5 A D =.=.=...Z 4.Z..on.T } D.2.b.u.|.`.*XdX*X=X5X%X$X@X<X<X@XOX'.[.}.aX&XOXpX&X&X#X4X<X1X1X3X1X3X<X#X5X*X X XW.W.G.=.Z 9.",
"0 7 2 y A A =.A D C P AXZ.bXCX} R zXb.N.kX|.*X|.=X*X X*XaX5X%X$XOXOXvX[.[.&XeXaX}.}.}.&XOX<X<X<X1X1X2XqX<X#X%X~X*X XW.W.G.Z O O ",
"- 7 2 2 A A F D Z -XVXj..on.t.} R EXZ.|.*X*X*XW.F.G.W. XdX=XaX5X5X&X&XaXaX&X&X=X=X*X*X&X%X4X<X4X<X<X3X3X,XvX'.aXdX XF.F.) C O Z ",
"= 7 1 2 A D A Z U C.[.Z.b.CXt.R b.N.oX}.}.dX*XF.F.F.G.F.W.|.*X=X&X5X5XaXaXaX=X*X X X*XaXpX4X4X@X@X@X3XqX@X'.oXkXW.|.W.) / @ C C ",
"9 4 < 9 o C H U C.&XB.T.s.zXn.!.sX|.~XaXaX*X*XdX*X XF.( F.W.W.W.dX*X=XaX=X*X X|.W.F. X*XaXpX$XOX@X<X2XqX@X].HXj.|.|.W.G.` Z Z @ ",
"2 y xXi H 7.r.k.[.OXHXU.s.n.l.A.`.[.aXaX=X*X X X) F.W.G.) ` / ` ( ) W. X|.W.G.G.F.F. X~X&X%XOX%XOX<X3X<X+XB.YXPX|.|.|.W.( 8.O X ",
"5 y > j I 4.!.}.#X&XHXS.s.EXv.j.}.aX=X=X*X*X X XG.F.F.F.F.` / _ ) ) W.|.W.W.W.W.F.) F.W.*X}.oX].#X<X3X<XvXXoA.j.|.|. X|.) f.K H ",
"5 xX= oo4.y.j.+X+XB.VXb.b.!XN.oX}.~X=X}. X XW.W. XF.( ( |.( ;.( ) ( ) W.W.W.F.G.) ) ) ` ( e.kXaX@X3X<X+X{.A.Z.HX*X*XdX|.G.L K f.",
"5 p & Ool.i.%X@XvXHXY.b.T.Z.B.~XaX=X=X*X XW.W. XW.W.;.;.;.G.) ) ) ( F.G.G.G.) F.) ) ( / @._.kX&X$X4X+X&XB.HX`.}.}.}.*X|.W.K K 8.",
"7 0 /.+o*XpX$X'.HXT.b.bXT.j.aXaXaX}.dX X XG.G.W. X XW.;./ ( F.;.( ( ) F.F.F.F.F.) ( / $.$.#.kX=X%XpX%X&X[.B.}.aX&X~XdXG.( f.f.8.",
"8 z XX_ &X[.~.s.H.T 2.b.Z.oXaX5X=X*X XW.W.F.F.F.F.F. XF.` ;.F.( ( ( ( ) ) ) F.) ( ( / _ _ ( i.*XaX5X&XaX[.&X&X&X=X*X X|.F.K f.H ",
"y x :X_ |.J.bX4.} T n.sX`.aXaXaX=X*X XG.F.F.F.( ` ) F. XF.F.( F.) ( ( ( ( ) ) ) ( ` / / / / ( |.dX=XaX=X&X5X5XaXaX=X*XW.) H f.f.",
"x y 6 y H I R V.7X6Xy.rXO.@ohXd.d.;Xo A *.A *.S D *.*.A A *.S S *.*...D D S D S S S S D A A A A A A o n d.    # 9.# # 9.O O H H ",
"x y 5 y C Z 8.K 9X@o@o9XyXuXuX;X;Xn A A A A A D D D A S A *.D S ..*.D *.D S *.D S RXS S A D D ......A A o n ;X;X;Xo o o C C 9.8.",
"b g 5 7 A o C =.d.;X9.#   n ;X;XA A *.A A A A A D A D A D A D S S D D A A D A *.S S S S A D S S ..D A A A A =.A o o C C C o Z O "};
