/* XPM */
static char *toaster[] = {
/* width height num_colors chars_per_pixel */
"    48    48       22            1",
/* colors */
". c #000000",
"# c #000700",
"a c None",
"b c #101710",
"c c #1f1f1f",
"d c #202720",
"e c #2f2f2f",
"f c #3f3f3f",
"g c #4f4f4f",
"h c #505750",
"i c #606760",
"j c #6f6f6f",
"k c #707770",
"l c #808780",
"m c #8f8f8f",
"n c #909790",
"o c #9f9fa0",
"p c #afafaf",
"q c #bfbfbf",
"r c #cfcfcf",
"s c #d0d7d0",
"t c #dfdfdf",
/* pixels */
"aaaaaaaaaaaaaaaaaaaaaaaaaaaaaaaaaaaaaaaaaaaaaaaa",
"aaaaaaaaaaaaaaaaaaaaaaaaaqnprssaaaaaaaaaaaaaaaaa",
"aaaaaaaaaaaaaaaaaaaaaaaqoiefimpqsaaaaaaaaaaaaaaa",
"aaaaaaaaaaaaaaaaaaaaaqojebbcfhlmqstaaaaaaaaaaaaa",
"aaaaaaaaaaaaaaaaaaaqpkfcbbfhkmpnijpssaaaaaaaaaaa",
"aaaaaaaaaaaaaaaaaqpkfcbbchklppkdbbchqssaaaaaaaaa",
"aaaaaaaaaaaaaaaqpmhccbbehknpnhb##..ckqssaaaaaaaa",
"aaaaaaaaaaaaarqmhdcbbdhjknokc.#..cjlmprssaaaaaaa",
"aaaaaaaaaaappljecbbgjklnnlf#...bhkkloqrqqsaaaaaa",
"aaaaaaaaapppjed#bhmklmmmhb....fhklmoqqqqpqaaaaaa",
"aaaaaaaapoppmjhmmlllmmic....chjlmnqrqpppmnaaaaaa",
"aaaaaaappnoooppmmkmomd....bgijmmoqrqqpmmkmaaaaaa",
"aaaaaaopponmmmmnmpql#....fjkklnprrqpmmkkkmaaaaaa",
"aaaaapqqpnmmmmmmppjhf#.chilmmoqsqpnmlkklklaaaaaa",
"aaaaarrssqpmmopqpkjhgfefilmmpsrpnmmlkkmmklaaaaaa",
"aaaaprrrrssrpqqpmljijklmmoprsqommmkkklmlkmaaaaaa",
"aaaassssrrsssqqpnmlklmmpqssrpmmmlkkklmmkkmaaaaaa",
"aaaassssssssrssrpoomopqssrqpmmllkkklmmlkjmaaaaaa",
"aaaasrssssssrssssqqprssrqqpmmlkkkklmmmlkjmaaaaaa",
"aaaasrsssssqrsrrssrqrrqqppmlkkkklmmmmlkkjmaaaaaa",
"aaaasrsrsssqssrrrrrqqpppomkkklmmmmmmmlkjilaaaaaa",
"aaaasrsssssqssrrrrpnppommkklmmmmmmmmmkkjimaaaaaa",
"aaaasrssrssqsrrrrrompnlkkkmmmmmmmmmmlkkjimaaaaaa",
"aaaasrssroporrrrrrnkmkkklmmmmmmmmmmlkkkjiffaaaaa",
"aaaasrsllfdfnrqqqpkiikmmmmmmmmmmmmllkkjiiccaaaaa",
"aaaasrrhcccdfoqqqmiklmmmmmmmmmmmmlllkkjihhgaaaaa",
"aaaarqqfcccddnpppomlmmmmmmmmmmmmmllkkjiigkaaaaaa",
"aaaarqjcccdcipppppmlmmmmmmmmmmmmmlkkkjihggaaaaaa",
"aaaaqibccccdkpppppnmmmmmmmmmmmmmmlkkjihgfaaaaaaa",
"aaaaqlfbbccfmpppppnmmmmmmmmmmmmmlkkjihggfaaaaaaa",
"aaaaqppkfcgmpqppppommmmmmmmmmmmlkkkihhffaaaaaaaa",
"aaaaqppqpjmpqqppppommmmmmmmmmmmlkkjihffaaaaaaaaa",
"aaaaqppopmooppppppommmmmmmmmlkkkkjihgfaaaaaaaaaa",
"aaaaqhfdlknoppppppomnmmmmmkkkkkjjhfgfaaaaaaaaaaa",
"aaaafcbciimoppppppommmmllkkkkjjihfffaaaaaaaaaaaa",
"aaaafccemkmnppppppommlkkkkkkjiihggfaaaaaaaaaaaaa",
"aaaajbcceiklnoppppmmlkkkkjjjhhhgffaaaaaaaaaaaaaa",
"aaaaecccbfihjlooppmllkkjjiihhhgffaaaaaaaaaaaaaaa",
"aaaafbcbbcdfjkkkmnmlkjkjihhhhgffaaaaaaaaaaaaaaaa",
"aaaa#chhcbbbbfikmklkkjjihhhhffaaaaaaaaaaaaaaaaaa",
"aaaaa#dkkfcbbbbdghkjjiihhggfaaaaaaaaaaaaaaaaaaaa",
"aaaaaa#bckkebbcbbdkihhhhgfaaaaaaaaaaaaaaaaaaaaaa",
"aaaaaaaaccfliecccdigghgfaaaaaaaaaaaaaaaaaaaaaaaa",
"aaaaaaaaaacchojcbc###faaaaaaaaaaaaaaaaaaaaaaaaaa",
"aaaaaaaaaaaaccc#aa##.aaaaaaaaaaaaaaaaaaaaaaaaaaa",
"aaaaaaaaaaaaaaaaaaa.aaaaaaaaaaaaaaaaaaaaaaaaaaaa",
"aaaaaaaaaaaaaaaaaaaaaaaaaaaaaaaaaaaaaaaaaaaaaaaa",
"aaaaaaaaaaaaaaaaaaaaaaaaaaaaaaaaaaaaaaaaaaaaaaaa"
};
SIMPLE  =                    T                                                  
BITPIX  =                    8                                                  
NAXIS   =                    2                                                  
NAXIS1  =                   48                                                  
NAXIS2  =                   48                                                  
HISTORY Written by XV 3.10                                                      
END                                                                             
                                                                                
                                                                                
                                                                                
                                                                                
                                                                                
                                                                                
                                                                                
                                                                                
                                                                                
                                                                                
                                                                                
                                                                                
                                                                                
                                                                                
                                                                                
                                                                                
                                                                                
                                                                                
                                                                                
                                                                                
                                                                                
                                                                                
                                                                                
                                                                                
                                                                                
                                                                                
                                                                                
                                                                                
                                                                                
SSSSSSSSSSSSSSSSSSSSSSSSSSSSSSSSSSSSSSSSSSSSSSSSSSSSSSSSSSSSSSSSSSSSSSSSSSSSSSSS
SSSSSSSSSSSSSSSSSSSSSSSSSSSSSSSSSSSSSSSSSSSSSSSSSSSSSSSSSSSSSSSSSSSSSSSSSSS
SSSSSSSSSSSSSSSSSSSSSSSSSSSSSSSSSSSSSSSSo?SSSSSSSSSSSSSSSSSSSSSSSSSS
SSSSSSSS?c/#cOOSO?SSSSSSSSSSSSSSSSSSSSSSSSSSSSSSss/#scSSSSO?SSSSSS
SSSSSSSSSSSSSSSSSSSSS#ss?#OSsooccSSOO?SSSSSSSSSSSSSSSSSSSSSSSSSS?cs
sssoocSSSS??SSSSSSSSSSSSSSSSSSSSSS?#?ossssosocSSSSO??SSSSSSSSSSSSSSSS
SSSS/?cSossooccSSSO??SSSSSSSSSSSSSSSSSSSo/csssssoooSSSO
??SSSSSSSSSSSSSSSSSS?/sssssssoccSOO?SSSSSSSSSSSSSSSSS?cc
ssssoocS???SSSSSSSSSSSSSSSSS?#ssssssooS?O?SSSSSSSSSSS
SSSSssssocSO?SSSSSSSSSSSSSSo
ssocS??SSSSSSSSSSSSSs?OssscSS??SSSSSSSSSSSS??
ssocSOO?SSSSSSSSSSSc#sssocSO?SSSSSSSSSSSϿo#csssocSOOSSSSSSSSSSϿ?##ssoccOsSSSSSSSSSSS#?csssocSSOSSSSSSSSSӃ?#?ϿsccsssoccSSSSSSSSSϟϓsssssssoc??SSSSSSSSSӿϟsssssocSSSSSSSSSSӿϯssssocSSSSSSSSSSӿϿssssocSSSSSSSSSSӿϿϿssssssoSSSSSSSSSSӿϿsssssoSSSSSSSSSSϯϿssssoSSSSSSSSSSӿsϯsssssSSSSSSSSSSϯocosӿssssSSSSSSSSSSSӿsoSO?/?cϯsssSSSSSSSSSSSoS?ScӿsssSSSSSSSSSSSS?ossϿsssSSSSSSSSSSSSSs#OcoϿsSSSSSSSSSSSSSSoScSoϿSSSSSSSSSSSSSSSo/#SsS?SsSSSSSSSSSSSSSSSSSo/Oos?SssϿSSSSSSSSSSSSSSSSSSSϿS##SossoSSSSSSSSSSSSSSSSSSSSSSS/SsSsSSSSSSSSSSSSSSSSSSSSSSSSSs?Sss#SSSSSSSSSSSSSSSSSSSSSSSSSSSSSs??SscoSSSSSSSSSSSSSSSSSSSSSSSSSSSSSSSSo/?SSSSSSSSSSSSSSSSSSSSSSSSSSSSSSSSSSSSSc/?cSSSSSSSSSSSSSSSSSSSSSSSSSSSSSSSSSSSSSSSSSSSSSSSSSSSSSSSSSSSSSSSSSSSSSSSSSSSSSSSSSSSSSSSSSSSSSSSSSSSSSSSSS
