/* XPM */
static char * winoff_xpm[] = {
"1 40 14 1",
" 	c None",
".	c #060005",
"+	c #10000F",
"@	c #1E001D",
"#	c #340033",
"$	c #3A0039",
"%	c #3D003C",
"&	c #410040",
"*	c #450044",
"=	c #430042",
"-	c #350034",
";	c #30002F",
">	c #2A0029",
",	c #000000",
".",
"+",
"@",
"#",
"$",
"%",
"&",
"*",
"=",
"$",
"-",
";",
">",
"@",
"+",
".",
",",
",",
",",
",",
",",
",",
",",
",",
",",
",",
",",
",",
",",
",",
",",
",",
",",
",",
",",
",",
",",
",",
",",
","};
