/* XPM */
static char * WMStone_ftp_xpm[] = {
"60 60 154 2",
"  	c None",
". 	c #208114515965",
"X 	c #30C21C718E38",
"o 	c #38E32081A699",
"O 	c #38E320819E79",
"+ 	c #30C21C718617",
"@ 	c #38E32081AEBA",
"# 	c #59654924A699",
"$ 	c #492434D39E79",
"% 	c #30C2208171C6",
"& 	c #69A65D75B6DA",
"* 	c #38E32081B6DA",
"= 	c #69A65555C71B",
"- 	c #79E769A6CF3C",
"; 	c #71C65965C71B",
": 	c #61854924C71B",
"> 	c #41032081B6DA",
", 	c #410328A2B6DA",
"< 	c #61855555AEBA",
"1 	c #79E76595C71B",
"2 	c #514434D3BEFB",
"3 	c #861775D6CF3C",
"4 	c #61854D34C71B",
"5 	c #492438E379E7",
"6 	c #41032081BEFB",
"7 	c #79E76595D75C",
"8 	c #D75CD34CD75C",
"9 	c #965896589658",
"0 	c #A6999E79AEBA",
"q 	c #61854924BEFB",
"w 	c #492428A2BEFB",
"e 	c #41032492BEFB",
"r 	c #8E3879E7D75C",
"t 	c #69A64D34CF3C",
"y 	c #79E76DB6B6DA",
"u 	c #514438E3AEBA",
"i 	c #96588207D75C",
"p 	c #AEBAAAAAAEBA",
"a 	c #69A65965AEBA",
"s 	c #410328A2BEFB",
"d 	c #41031C71C71B",
"f 	c #41032081C71B",
"g 	c #A6999248DF7D",
"h 	c #514434D3B6DA",
"j 	c #49242CB2CF3C",
"k 	c #B6DAAAAAE79D",
"l 	c #B6DAB6DAB6DA",
"z 	c #492434D3B6DA",
"x 	c #41032492C71B",
"c 	c #DF7DDB6CDF7D",
"v 	c #28A2186179E7",
"b 	c #79E775D69E79",
"n 	c #41031C71CF3C",
"m 	c #41031C71D75C",
"M 	c #A6999658D75C",
"N 	c #30C2208179E7",
"B 	c #96588207C71B",
"V 	c #CF3CC71BE79D",
"C 	c #8E3875D6E79D",
"Z 	c #C71BC30BC71B",
"A 	c #38E31861A699",
"S 	c #51442CB2D75C",
"D 	c #A699A289A699",
"F 	c #AEBAA289DF7D",
"G 	c #28A2145179E7",
"H 	c #38E31C71B6DA",
"J 	c #96588A28C71B",
"K 	c #41031C71DF7D",
"L 	c #9E798A28CF3C",
"P 	c #492428A2D75C",
"I 	c #861769A6D75C",
"U 	c #AEBA9A69E79D",
"Y 	c #D75CD75CD75C",
"T 	c #38E31861AEBA",
"R 	c #51442CB2DF7D",
"E 	c #71C66595A699",
"W 	c #861771C6DF7D",
"Q 	c #B6DAA699EFBE",
"! 	c #BEFBBEFBBEFB",
"~ 	c #28A210408617",
"^ 	c #8E3879E7DF7D",
"/ 	c #AEBAA289D75C",
"( 	c #41031C71E79D",
") 	c #514428A2DF7D",
"_ 	c #38E31861CF3C",
"` 	c #8E3886179658",
"' 	c #38E31861B6DA",
"] 	c #51442CB2E79D",
"[ 	c #28A210408E38",
"{ 	c #49242492E79D",
"} 	c #C71BC30BCF3C",
"| 	c #A6999E79B6DA",
" .	c #514428A2E79D",
"..	c #61854103E79D",
"X.	c #965879E7EFBE",
"o.	c #A6999E79BEFB",
"O.	c #69A64924E79D",
"+.	c #DF7DD75CE79D",
"@.	c #79E76185DF7D",
"#.	c #79E76595DF7D",
"$.	c #AEBAAEBABEFB",
"%.	c #30C21861AEBA",
"&.	c #28A2104079E7",
"*.	c #41032081D75C",
"=.	c #DF7DDF7DE79D",
"-.	c #A6999248D75C",
";.	c #596538E3CF3C",
":.	c #69A64924D75C",
">.	c #8E3875D6DF7D",
",.	c #8E3871C6DF7D",
"<.	c #D75CD34CE79D",
"1.	c #96588617C71B",
"2.	c #49242CB2C71B",
"3.	c #28A2145171C6",
"4.	c #9E798E38DF7D",
"5.	c #965892489658",
"6.	c #8E388207BEFB",
"7.	c #A6999A69C71B",
"8.	c #C71BC71BC71B",
"9.	c #49242CB2BEFB",
"0.	c #2081145169A6",
"q.	c #96588207CF3C",
"w.	c #861771C6BEFB",
"e.	c #86177DF79658",
"r.	c #861775D6C71B",
"t.	c #30C218618617",
"y.	c #410330C29E79",
"u.	c #492438E3AEBA",
"i.	c #38E320819658",
"p.	c #30C220818617",
"a.	c #514441039E79",
"s.	c #38E324928E38",
"d.	c #38E328A29658",
"f.	c #AEBAA699BEFB",
"g.	c #96588E38B6DA",
"h.	c #5965555579E7",
"j.	c #79E76DB6AEBA",
"k.	c #69A65965A699",
"l.	c #59654D349E79",
"z.	c #61855555A699",
"x.	c #71C66185AEBA",
"c.	c #861779E7B6DA",
"v.	c #DF7DD75CDF7D",
"b.	c #8E388617B6DA",
"n.	c #79E771C6AEBA",
"m.	c #69A65D75A699",
"M.	c #71C669A6AEBA",
"N.	c #96588E38BEFB",
"B.	c #D75CCF3CDF7D",
"V.	c #71C66DB68E38",
"C.	c #861775D6AEBA",
"Z.	c #618551449E79",
"A.	c #C71BC30BDF7D",
"S.	c #BEFBBAEABEFB",
"                                                                                                                        ",
"                                                                                                                        ",
"                                                                                                                        ",
"                                                                                                                        ",
"                                                                                                                        ",
"                                                                                                                        ",
"                                                                                                                        ",
"                                                                                                                        ",
"                                                                                                                        ",
"                                                                                                                        ",
"                                                                                                                        ",
"                                                                                                                        ",
"                                                                                                                        ",
"                                                                                                                        ",
"                                                                                                                        ",
"                                                                                                                        ",
"                                                                                                                        ",
"                                                                                                                        ",
"                                                                                                                        ",
"                                                                                                                        ",
"                                                                        .                                               ",
"    X o o o o o o o o o o o o o o o o       o o o o o o o o o o o o o o o O     + o o o o o o o o o o o o o X           ",
"    o @ @ @ @ @ @ @ @ @ @ @ @ @ @ @ @ #   @ @ @ @ @ @ @ @ @ @ @ @ @ @ @ @ @ $   @ @ @ @ @ @ @ @ @ @ @ @ @ @ @ @ %       ",
"      & * * * * * * * = - ; : > * * * , < * * * * * * * * * * * * * * * * * *     1 > * * * * * 2 3 4 * * * * * * 5     ",
"        6 6 6 6 6 6 7 8 9   9 0 q 6 6 6 w 6 6 6 e r e 6 6 6 6 6 6 7 t 6 6 6 6 y     u 6 6 6 6 6 i p   a 6 6 6 6 6 s     ",
"        d f f f f f g             h f j f f f f k l z f f f f f x c   x f f f 3     v f f f f f r       f f f f f f b   ",
"        n m m m m m M       m N     B V j m m C Z   A m m m m m S D     m m m F     G m m m m m r       H m m m m m J   ",
"        m K K K K K L     n K P           I U Y     T K K K K K R 9     E W Q !     ~ K K K K K ^       m K K K K K /   ",
"        ( ( ( ( ( ( ) 6 _ ( ( ( `                   ' ( ( ( ( ( ] 9                 [ ( ( ( ( ( C       ( ( ( ( ( { }   ",
"        ( ( ( ( ( ( ( ( ( ( ( ( |                   ' ( ( ( ( (  .9                 [ ( ( ( ( ( ..    K ( ( ( ( ( X.9   ",
"        K K K K K K K K K K K K o.                  T K K K K K R 9                 ~ K K K K K K K K K K K K K O.+.    ",
"        m m m m m m @.k #.m m m $.                  %.m m m m m S 9                 &.m m m m m m m m m m m *.C =.      ",
"        d n n n n n -.    e n ;.p                   H n n n n n j 9                 G n n n n n :.>.7 #.,.U <.!         ",
"        6 6 6 6 6 6 1.    X 6 g                     6 6 6 6 6 6 2.9                 3.6 6 6 6 6 4.5.                    ",
"        * * * * * * 6.      7.8.                    * * * * * * 9.9                 0.* * * * * q.                      ",
"        @ @ @ @ @ @ w.                              @ @ @ @ @ @ @ e.                3.@ @ @ @ @ r.                      ",
"      v o o o o o o u                             t.o o o o o o o y.                O o o o o o u.                      ",
"    i.O O O O O O O O O p.                      O O O O O O O O O O O             O O O O O O O O O                     ",
"    i.i.i.i.i.i.i.i.i.i.a.                      s.i.i.i.i.i.i.i.i.i.d.f.          i.i.i.i.i.i.i.i.i.g.                  ",
"    h.j.k.l.l.l.z.x.c.7.v.                        b.n.m.l.l.l.z.M.N.B.D           V.C.m.l.l.Z.x.6.A.S.                  ",
"          9 9 9 9 9                                     9 9 9 9 9                       9 9 9 9                         ",
"                                                                                                                        ",
"                                                                                                                        ",
"                                                                                                                        ",
"                                                                                                                        ",
"                                                                                                                        ",
"                                                                                                                        ",
"                                                                                                                        ",
"                                                                                                                        ",
"                                                                                                                        ",
"                                                                                                                        ",
"                                                                                                                        ",
"                                                                                                                        ",
"                                                                                                                        ",
"                                                                                                                        ",
"                                                                                                                        ",
"                                                                                                                        ",
"                                                                                                                        ",
"                                                                                                                        ",
"                                                                                                                        "};
