/* XPM */
static char * WMStone_xv_xpm[] = {
"60 60 164 2",
"  	c None",
". 	c #2081145169A6",
"X 	c #30C21C719658",
"o 	c #38E32081A699",
"O 	c #38E320819E79",
"+ 	c #28A2145171C6",
"@ 	c #38E31C719E79",
"# 	c #208114516185",
"$ 	c #38E32081AEBA",
"% 	c #30C218618617",
"& 	c #41032081B6DA",
"* 	c #96588A28BEFB",
"= 	c #41032CB29658",
"- 	c #41032081BEFB",
"; 	c #96588E389E79",
": 	c #492428A2BEFB",
"> 	c #492430C2BEFB",
", 	c #A699A289AEBA",
"< 	c #41032081C71B",
"1 	c #96587DF7DF7D",
"2 	c #CF3CCF3CCF3C",
"3 	c #59654103BEFB",
"4 	c #41032492C71B",
"5 	c #69A65144CF3C",
"6 	c #86176DB6D75C",
"7 	c #BEFBB2CAE79D",
"8 	c #AEBAAEBAAEBA",
"9 	c #38E324929E79",
"0 	c #514434D3C71B",
"q 	c #D75CCF3CEFBE",
"w 	c #A699A289A699",
"e 	c #861779E7AEBA",
"r 	c #8E3875D6D75C",
"t 	c #B6DAAAAAE79D",
"y 	c #E79DDF7DEFBE",
"u 	c #965896589658",
"i 	c #9E798E38D75C",
"p 	c #59654103D75C",
"a 	c #41031C71CF3C",
"s 	c #AEBA9E79DF7D",
"d 	c #492430C2A699",
"f 	c #69A64D34D75C",
"g 	c #E79DDF7DF7DE",
"h 	c #DF7DDB6CDF7D",
"j 	c #BEFBBAEABEFB",
"k 	c #BEFBBAEACF3C",
"l 	c #71C65D75D75C",
"z 	c #9E798A28E79D",
"x 	c #B6DAB2CAB6DA",
"c 	c #49242CB2C71B",
"v 	c #96588207E79D",
"b 	c #DF7DDF7DDF7D",
"n 	c #9E799A699E79",
"m 	c #79E76185CF3C",
"M 	c #41031C71D75C",
"N 	c #492428A2CF3C",
"B 	c #69A65144DF7D",
"V 	c #EFBEEBADF7DE",
"C 	c #61854103D75C",
"Z 	c #492428A2D75C",
"A 	c #DF7DDF7DEFBE",
"S 	c #514434D3CF3C",
"D 	c #41031C71DF7D",
"F 	c #596538E3DF7D",
"G 	c #E79DE38DF7DE",
"H 	c #41032CB28E38",
"J 	c #30C21451A699",
"K 	c #9E798A28EFBE",
"L 	c #49242492DF7D",
"P 	c #49241C71E79D",
"I 	c #49242492E79D",
"U 	c #D75CCF3CF7DE",
"Y 	c #9E799E799E79",
"T 	c #49241C71DF7D",
"R 	c #59654103CF3C",
"E 	c #514428A2E79D",
"W 	c #49241C71EFBE",
"Q 	c #BEFBAEBAF7DE",
"! 	c #BEFBBEFBBEFB",
"~ 	c #410328A2A699",
"^ 	c #30C21040A699",
"/ 	c #9E798A28F7DE",
"( 	c #61855144B6DA",
") 	c #8E386DB6F7DE",
"_ 	c #D75CD75CD75C",
"` 	c #61854924C71B",
"' 	c #51442492EFBE",
"] 	c #59654103C71B",
"[ 	c #596538E3E79D",
"{ 	c #410328A2B6DA",
"} 	c #30C214519E79",
"| 	c #9E798207EFBE",
" .	c #514430C2D75C",
"..	c #41032492B6DA",
"X.	c #49242CB2BEFB",
"o.	c #30C218619E79",
"O.	c #DF7DDB6CEFBE",
"+.	c #49242081D75C",
"@.	c #38E328A28E38",
"#.	c #41031C71C71B",
"$.	c #DF7DDB6CE79D",
"%.	c #38E31C71B6DA",
"&.	c #96588207DF7D",
"*.	c #41032492AEBA",
"=.	c #41032492BEFB",
"-.	c #D75CD34CE79D",
";.	c #59653CF3BEFB",
":.	c #492434D3B6DA",
">.	c #38E328A29658",
",.	c #41032492A699",
"<.	c #8E387DF7CF3C",
"1.	c #492430C2AEBA",
"2.	c #B6DAAEBAC71B",
"3.	c #38E328A271C6",
"4.	c #38E32CB271C6",
"5.	c #B6DAAEBADF7D",
"6.	c #514449248617",
"7.	c #8E387DF7C71B",
"8.	c #30C220818E38",
"9.	c #38E320819658",
"0.	c #71C66185B6DA",
"q.	c #38E324928E38",
"w.	c #38E324929658",
"e.	c #D75CD75CE79D",
"r.	c #208118615965",
"t.	c #861779E7B6DA",
"y.	c #30C228A269A6",
"u.	c #30C2208171C6",
"i.	c #861775D6B6DA",
"p.	c #30C224928617",
"a.	c #30C228A25965",
"s.	c #30C2249279E7",
"d.	c #38E32CB269A6",
"f.	c #38E328A28617",
"g.	c #208114514103",
"h.	c #30C2249271C6",
"j.	c #49243CF38617",
"k.	c #8E388A288E38",
"l.	c #38E330C271C6",
"z.	c #30C2249269A6",
"x.	c #B6DAAAAAC71B",
"c.	c #30C22CB25965",
"v.	c #514445148617",
"b.	c #CF3CCF3CDF7D",
"n.	c #410338E369A6",
"m.	c #410338E379E7",
"M.	c #DF7DDF7DE79D",
"N.	c #AEBAA699BEFB",
"B.	c #96589248B6DA",
"V.	c #86177DF7A699",
"C.	c #861779E7A699",
"Z.	c #B6DAB2CAC71B",
"A.	c #E79DE38DEFBE",
"S.	c #C71BC71BC71B",
"D.	c #B6DAAEBABEFB",
"F.	c #A699A289BEFB",
"G.	c #96588E38AEBA",
"H.	c #8E388207AEBA",
"J.	c #AEBAAAAAC71B",
"K.	c #D75CCF3CDF7D",
"L.	c #E79DE79DEFBE",
"P.	c #79E779E79658",
"I.	c #71C66DB69E79",
"U.	c #965892489658",
"                                                                                                                        ",
"                                                                                                                        ",
"                                                                                                                        ",
"                                                                                                                        ",
"                                                                                                                        ",
"                                                                                                                        ",
"                                                                                                                        ",
"                                                                                                                        ",
"                                                                                                                        ",
"                                                                                                                        ",
"                                                                                                                        ",
"                                                                                                                        ",
"                                                                                                                        ",
"                                                                                                                        ",
"                                                                                                                        ",
"                                                                                                                        ",
"                                                                                                                        ",
"                                                                                                                        ",
"        . X o o o o o o o o O       + O o o o o o o X           + @ o o o o o o o X #               X o o o o o o X     ",
"      $ $ $ $ $ $ $ $ $ $ $ $ $   % $ $ $ $ $ $ $ $ $ $       $ $ $ $ $ $ $ $ $ $ $ $ o           $ $ $ $ $ $ $ $ $ $   ",
"    & & & & & & & & & & & & & & * = & & & & & & & & & - ;   & & & & & & & & & & & & & :           & & & & & & & & & > , ",
"    o < < < < < < < < < < < < 1 2   3 < < < < < 4 5 6 7 8   9 < < < < < < < < < < < 0 q w         e 4 < < < < < r t y u ",
"      i p a a a a a a a a a a s     d a a a a f g h j u       k l a a a a a a a a a z x             c a a a a v b       ",
"        n m M M M M M M M M M N     M M M M B V u                 N M M M M M M M M C               M M M M Z A         ",
"            S D D D D D D D D D D D D D D F G                     H D D D D D D D D D             J D D D D K 8         ",
"              L P P P P P P P P P P P P I U Y                       T P P P P P P P P R           P P P P E A           ",
"                W W W W W W W W W W W W Q !                         ~ W W W W W W W W W         ^ W W W W / 8           ",
"                ( W W W W W W W W W W ) _                             W W W W W W W W W `       W W W W ' A             ",
"                  ] P P P P P P P P P [                               { P P P P P P P P I     } P P P P | 8             ",
"                     .D D D D D D D D D ..                              D D D D D D D D D X.o.D D D D L O.              ",
"                      +.M M M M M M M M M @.                            { M M M M M M M M M M M M M M v 8               ",
"                      < a a a a a a a a a #.                              a a a a a a a a a a a a a N $.                ",
"                    %.- - - - - - - - - - - -                             ..- - - - - - - - - - - - &.8                 ",
"                  @ & & & & & & & & & & & & & *.                            & & & & & & & & & & & =.-.                  ",
"                + $ $ $ $ ;.:.$ $ $ $ $ $ $ $ $ >.                          ,.$ $ $ $ $ $ $ $ $ $ <.8                   ",
"                o o o o 1.y 2.,.o o o o o o o o o 3.                        4.o o o o o o o o o ,.-.                    ",
"              O O O O O 5.8   6.O O O O O O O O O O                           9 O O O O O O O O 7.8                     ",
"            8.9.9.9.9.0._       @.9.9.9.9.9.9.9.9.9.q.                        4.9.9.9.9.9.9.9.w.e.                      ",
"        r.q.q.q.q.q.q.t.        y.q.q.q.q.q.q.q.q.q.q.q.u.                      q.q.q.q.q.q.q.i.x                       ",
"    p.p.p.p.p.p.p.p.p.p.a.      s.p.p.p.p.p.p.p.p.p.p.p.p.s.                    d.p.p.p.p.p.f.e.                        ",
"  g.h.h.h.h.h.h.h.h.h.h.j.    h.h.h.h.h.h.h.h.h.h.h.h.h.h.j.k.                    h.h.h.h.h.e !                         ",
"    l.z.z.z.z.z.z.z.z.4.x.    c.z.z.z.z.z.z.z.z.z.z.z.z.v.b.                      n.z.z.z.m.M.                          ",
"      N.B.V.C.C.V.B.Z.A.S.      D.F.G.V.C.C.C.C.H.B.J.K.L.w                         P.I.V.$.w                           ",
"          U.u u u u                   u u u u u u u                                   w j                               ",
"                                                                                                                        ",
"                                                                                                                        ",
"                                                                                                                        ",
"                                                                                                                        ",
"                                                                                                                        ",
"                                                                                                                        ",
"                                                                                                                        ",
"                                                                                                                        ",
"                                                                                                                        ",
"                                                                                                                        ",
"                                                                                                                        ",
"                                                                                                                        ",
"                                                                                                                        ",
"                                                                                                                        ",
"                                                                                                                        ",
"                                                                                                                        "};
