/* XPM */
static char *FastView[] = {
/* width height num_colors chars_per_pixel */
"    48    48       65            2",
/* colors */
".. c #000000",
".# c #000408",
".a c None",
".b c #102020",
".c c #180408",
".d c #181408",
".e c #181818",
".f c #201020",
".g c #202020",
".h c #202030",
".i c #203030",
".j c #300408",
".k c #302030",
".l c #303020",
".m c #303030",
".n c #303838",
".o c #380818",
".p c #382418",
".q c #413030",
".r c #414141",
".s c #414551",
".t c #494941",
".u c #511008",
".v c #512018",
".w c #512428",
".x c #514130",
".y c #515151",
".z c #516151",
".A c #612028",
".B c #616969",
".C c #692010",
".D c #792830",
".E c #794920",
".F c #862018",
".G c #868a9e",
".H c #963430",
".I c #964141",
".J c #965d49",
".K c #967571",
".L c #a65528",
".M c #a6a6a6",
".N c #b63430",
".O c #be6561",
".P c #be7151",
".Q c #be8269",
".R c #c74541",
".S c #c75151",
".T c #c75949",
".U c #c76941",
".V c #c78e86",
".W c #cf6151",
".X c #cf9e96",
".Y c #cfc7be",
".Z c #d76169",
".0 c #d7a2ae",
".1 c #d7dbcf",
".2 c #df6151",
".3 c #dfbab6",
".4 c #dfc3d7",
".5 c #dfd3d7",
".6 c #e7e3df",
".7 c #e7e3e7",
".8 c #e7e3ef",
".9 c #f7f3f7",
"#. c #fffbff",
/* pixels */
".a.a.a.a.a.a.a.a.a.a.a.a.a.a.a.a.a.a.a.a.a.a.a.a.a.a.a.a.a.a.a.a.a.a.a.a.a.a.a.a.a.a.a.a.a.a.a.a",
".a.a.Y.a.a.8.8.8.6.7.7.4.1.4.Y.Y.0.0.M.M.M.M.M.M.M.M.M.M.K.G.K.K.K.K.K.K.B.B.B.B.z.y.s.s.K.a.a.a",
".a.Y.9.z.f.d.g.g.g.f.k.l.k.m.h.l.k.m.m.m.m.m.m.m.m.m.m.l.k.m.k.p.k.l.k.f.k.g.f.d.f.d.f.c.c.c.a.a",
".a.a.z.e.d.f.d.h.p.k.p.l.i.m.i.m.m.m.m.m.m.k.l.i.m.k.m.m.m.m.i.m.i.m.p.h.p.d.b.g.d.f.d.e.c.c.p.a",
".a.a.f.d.p.e.k.p.k.l.m.n.m.m.q.m.q.n.q.n.q.n.q.n.q.n.q.m.q.m.q.m.m.l.k.l.k.p.f.g.g.e.f.c.c.c...a",
".a.8.g.g.f.G.B.G.G.K.B.B.z.s.n.r.n.r.n.r.n.r.n.r.n.r.n.r.n.r.n.r.t.z.z.B.B.G.G.M.M.G.G.g.d.e...a",
".a.6.g.p.k.d.g.e.f.d.f.c.c.c.c.c.#...#.......#...#.....#.#.#.#.c.#.#.c.#.f.d.f.e.f.g.e.c.f.c...a",
".a.7.p.m.m.f.9#..9.8.7.4.Y.0.V.X.Q.O.J.J.H.D.u.H.I.I.J.S.O.O.O.Z.T.T.I.I.H.I.A.C.F.D.b.h.g.g...a",
".a.5.k.l.q.e#.#..9.6.5.Y.3.X.X.V.V.P.O.J.D.v.v.A.A.A.A.x.I.x.D.D.D.D.H.I.I.I.A.F.D.H.f.g.f.e...a",
".a.4.m.w.n.f.9.9.8.7.1.3.3.X.X.V.Q.O.J.H.u.o.j.o.j.o.u.o.o.u.v.A.v.v.u.u.v.D.C.F.D.D.d.h.g.d...a",
".a.1.w.n.w.#.8.7.6.5.5.3.0.X.X.V.V.O.K.A.v.j.j.j.o.o.o.v.F.D.F.E.D.F.F.F.F.o.u.F.D.H.f.p.k.f...a",
".a.7.n.r.t.c.6.7.5.4.Y.3.3.0.X.X.V.Z.J.D.v.v.u.C.v.C.C.A.F.D.E.D.E.D.E.E.E.D.u.v.F.H.c.m.i.k...a",
".a.1.w.r.s.c.6.6.4.Y.4.X.0.X.X.V.Q.K.J.E.v.v.v.C.v.v.w.A.D.A.D.D.D.D.D.H.I.A.v.w.C.F.c.q.i.p...a",
".a.4.t.s.s.c.6.6.5.4.Y.Y.0.0.X.V.Q.Q.J.I.v.D.u.v.p.p.p.o.p.w.v.D.D.D.D.D.D.A.C.D.F.F.#.m.i.k...a",
".a.1.s.t.y.c.8.6.7.1.Y.0.0.X.0.X.V.P.J.x.A.v.v.o.j.c.d.d.c.c.o.o.p.p.A.A.D.u.v.D.D.F.#.m.k.l...a",
".a.6.y.y.z.c.8.8.6.6.Y.Y.3.3.X.V.V.O.J.w.w.u.u.j.j.v.x.q.c.d.#.#.c.j.j.v.v.u.u.A.F.F...n.n.k...a",
".a.1.J.y.J..#..8.8.5.Y.Y.3.3.0.X.V.J.H.I.F.p.o.j.o.x.J.x.d.t...x.#.c.c.c.v.j.u.E.D.E...m.k.l...a",
".a.4.z.z.z...9#..9.8.1.4.Y.3.X.X.K.I.E.I.E.A.C.o.u.w.I.I.c.j.d.j.x.j.c.j.c.o.C.F.H.N.#.w.m.m...a",
".a.1.y.y.J.##.#..9.7.4.Y.3.3.0.X.O.J.S.L.N.E.L.E.F.C.v.v.D.v.v.j.v.j.o.o.u.o.w.H.N.H.#.n.q.i...a",
".a.6.z.z.z.c.9.9.9.8.1.4.Y.3.X.K.O.O.J.I.L.I.L.L.L.H.H.F.F.A.C.C.C.C.C.C.C.u.F.H.E.N.#.w.n.m...a",
".a.1.z.s.B...9.8.8.6.5.Y.0.X.X.Q.K.P.O.T.T.L.S.T.R.J.L.L.L.E.N.E.N.H.E.L.F.u.D.H.I.N.#.n.q.l...a",
".a.7.z.z.z.c.9.9.6.6.1.Y.3.0.X.X.Q.Z.P.O.U.S.T.S.T.S.I.R.L.R.L.L.L.I.L.N.N.C.E.I.N.N.#.w.n.m...a",
".a.1.y.z.B.c.8.6.5.1.5.0.0.X.0.Q.Q.O.Z.P.O.P.W.T.S.T.S.T.S.T.S.T.S.T.S.R.I.F.H.I.I.L.#.n.q.l...a",
".a.4.y.J.B.#.6.7.5.4.Y.3.3.X.X.V.Q.Z.Q.P.J.Z.T.W.T.R.T.S.T.R.R.R.T.R.U.S.L.F.F.R.R.N.d.n.m.m...a",
".a.1.y.z.J.c.6.7.5.Y.4.Y.3.X.X.V.V.Q.Z.K.Q.P.W.W.O.T.W.T.S.T.S.T.S.W.W.U.S.E.F.T.R.N.f.l.k.l...a",
".a.7.t.z.z.e.6.8.6.5.1.5.Y.3.X.X.Q.O.Q.O.P.O.W.2.W.W.U.W.W.S.U.W.U.2.U.T.R.N.F.R.I.N.d.n.m.m...a",
".a.1.s.y.J.d.8.7.6.6.6.5.3.3.0.V.Q.O.Z.J.O.U.W.W.Z.W.Z.W.O.W.S.W.2.W.S.W.S.R.F.S.R.N.f.m.i.p...a",
".a.4.t.y.z.f.9#..8.7.1.4.Y.3.X.X.Q.O.P.K.U.2.W.2.W.2.W.2.W.2.W.T.W.T.S.T.R.R.F.I.I.N.b.m.i.k...a",
".a.1.r.t.J.e.9#..9.6.5.1.4.3.V.Q.Q.P.O.J.W.T.W.W.Z.W.Z.W.Z.W.2.W.T.W.T.R.S.R.F.H.I.D.g.l.k.g...a",
".a.7.n.s.s.g#.#..9.8.5.6.Y.0.X.X.V.O.J.I.T.R.W.2.2.2.2.2.W.T.W.T.R.T.R.T.R.S.F.F.I.N.e.p.p.e...a",
".a.1.q.x.t.e.#.......#...#.......#.......#.......#.......#.......#...#...#...........f.p.k.c...a",
".a.4.m.w.n.G.B.G.G.G.K.B.z.s.n.r.n.n.n.t.n.n.n.s.n.n.n.s.n.r.n.r.t.y.z.B.K.G.G.M.M.G.G.h.d.f...a",
".a.1.k.l.q.x.r.t.s.y.J.z.J.B.B.B.B.B.B.z.J.B.J.z.J.B.J.z.J.y.y.t.s.t.s.r.n.x.w.m.k.p.e.c.f.c...a",
".a.5.b.g.i.m.n.r.t.s.t.y.z.y.z.y.z.J.z.y.z.y.z.t.z.y.z.y.y.y.t.s.t.r.n.w.n.p.i.m.p.g.g.g.d.c...a",
".a.1.f.p.h.k.q.x.r.t.s.y.y.t.J.z.J.z.J.y.J.t.J.y.J.t.J.y.y.t.s.t.t.r.w.x.w.k.k.l.h.f.e.c.f.c...a",
".a.4...........................................................................................a",
".a.a.a.a.a.a.a.a.a.a.a.a.a.a.G.....................................M.a.a.a.a.a.a.a.a.a.a.a.a.a.a",
".a.a.a.a.a.a.a.a.a.a.a.a.a.a.a.M.................................G.a.a.a.a.a.a.a.a.a.a.a.a.a.a.a",
".a.a.a.a.a.a.a.a.a.a.a.a.a.a.a.a.K.............................M.a.a.a.a.a.a.a.a.a.a.a.a.a.a.a.a",
".a.a.a.a.a.a.a.a.a.a.a.a.a.a.a.a.M.f.d.g.f.g.b.f.g.g.e.g.g.f.b.M.a.a.a.a.a.a.a.a.a.a.a.a.a.a.a.a",
".a.a.a.a.a.a.a.a.a.a.a.a.a.a.a.8.G.m.m.m.m.l.m.m.m.l.m.m.m.l.m.M.4.a.a.a.a.a.a.a.a.a.a.a.a.a.a.a",
".a.a.a.a.a.a.a.a.a.a.a.a.a.a.a.5.m.n.n.m.m.n.n.m.m.n.n.m.m.n.n.m.5.a.a.a.a.a.a.a.a.a.a.a.a.a.a.a",
".a.a.a.a.a.a.a.a.a.a.a.a.a.a.5.m.q.m.m.m.q.m.m.m.q.m.m.m.q.m.m.m.q.7.a.a.a.a.a.a.a.a.a.a.a.a.a.a",
".a.a.a.a.a.a.y.y.y.y.y...s.z.y.y.y.y.y.y.y.y.y.y.y.y.y.y.y.y.y.y.y.z.y.y...y.y.y.y.y.a.a.a.a.a.a",
".a.a.a.a.a.a.............z.c.f.g.e.c.f.g.e.c.f.g.e.c.f.g.e.c.f.g.e.c.f.y.............a.a.a.a.a.a",
".a.a.a.a.a.a.y.y.y.y.y...y.............................................y...y.y.y.y.y.a.a.a.a.a.a",
".a.a.a.a.a.a.............y.m.m.m.q.m.m.m.q.m.m.m.q.m.m.m.q.m.m.m.q.m.m.y.............a.a.a.a.a.a",
".a.a.a.a.a.a.a.a.a.a.a.a.a.a.a.a.a.a.a.a.a.a.a.a.a.a.a.a.a.a.a.a.a.a.a.a.a.a.a.a.a.a.a.a.a.a.a.a"
};
SIMPLE  =                    T                                                  
BITPIX  =                    8                                                  
NAXIS   =                    2                                                  
NAXIS1  =                   48                                                  
NAXIS2  =                   48                                                  
HISTORY Written by XV 3.10                                                      
COMMENT the GIMP was here                                                       
END                                                                             
                                                                                
                                                                                
                                                                                
                                                                                
                                                                                
                                                                                
                                                                                
                                                                                
                                                                                
                                                                                
                                                                                
                                                                                
                                                                                
                                                                                
                                                                                
                                                                                
                                                                                
                                                                                
                                                                                
                                                                                
                                                                                
                                                                                
                                                                                
                                                                                
                                                                                
                                                                                
                                                                                
                                                                                
€€€€€€Q0005000500050005000
500Q€€€€€€QQQQQ€Q€€€€€€€€€€€€€€€€€€€€€€Q€QQQQQ€€€€€€Y 
    Q€€€€€€QQQQQ€EYQQQQQQQQQQQQQQQQQQQYQQ€QQQQQ
×050005000500050005å×0550055005500550
×æ‹0000-000-000-0¦Ï
¦      ¦€€€€€€€€€€€€€€¦
¦€€€€€€€€€€€€€€€€‹‹€€€€€€€€€€€€€€€€€
€¦Ï€€€€€€€€€€€€€€€€€€€€€€€€€€€€€€€€€€€€€€€€€€€€€×)"(5CAGEQQGmY
mYmQmGmQmGmQQGEGGA4C4((-"€× *05AGEGQYQYQYmYQYQYGYQYQQQGEGA545)*0)   €
×(-5CAGEQmYmffffffYmfmYmfmYmQQGEGEA5C40()€Ï045‹f‹‹‹fYE5A555G555E555E5A5A
GQYf‹‹¦¦‹‹"€×5CG€€€€€€€€€€€€€€€€€€€€€€€€€€)(€å5EE ýýõæ×ãÈ¶­­
 ‚m^|q„‰‰‰‰‰„|„|q|q|qyAA^`))€×AGmõýõã××ÏÆ ’’†‚m„|„„Š„Š„Š„‰„|„|qyqAU^E -( €ÏGQYõýæå×ÏÈÆ­­’‚†ƒ‰„‰„‰„‰„‰„|„|y|qqA^^`0*(€×EQmæåããã×ÆÆ¶ ’‚Šm‚ƒ„„Š„Š„‚„y„‰„y„yqAyq`0*)€åGYYãæã×××ÈÆ­­’‚’‚†‚„‰„„ƒ„„yƒ„ƒ‰ƒ|q`Aq^`500€×QYmãå×ÈÏÈÆ­­  ’Š’†„„‚|„|y|y|y„„ƒySA|q`-(-€ÏQmfãå×ÏÈÆÆ­­ ’Š’†mŠ|„|q|y|qqq|qƒyiAAqq`500€×QYfæã×××¶¶­¶’’‚Š†‚†„|y|y|y|y|y|yq^AU^^i55-€åYYYõõãã×ÈÆ¶­­’Š†‚ƒy|y|y^qiqiii^i``6S^``450€×YEf€õææã×È¶­­’†‚||iy|qmiiiS`S`USiA%EU^`55-€ãYYYõõõæ×ÏÈÆ­‚‚m^i^iiiUUAA76666666%AUS`450€×QQmýýõåÏÈÆÆ¶­‚myi`SiSA6//E///%4U`U55*€ÏYYY€õýõæ×ÏÈÆ­­^S^S76%4^^C6AU`400€×mQm€ýææ×ÈÈÆÆ¶­ mU^A)CmCG€C/%SES€0(-€ãQQYææããÈÈÆÆ­  ‚m44%%/C5//%%7AA€55(€×EGQæãå×È¶¶­¶­ †mC7//))77E%/EEA0(-€ÏGEEãã×ÏÈÈ¶¶­ ’’m^/E%/))))4/EEEEEE76EAA0*(€×4AEããÏÈÏ­¶­­ ’mS///6//47E7EEEEEU^7/46A5*)€å5AGãå×ÏÈÆÆ¶­­ ŠmE//%6/667AESESESSSE%/AU0*(€×454æåã××Æ¶­­  ‚7//AEASEAAAA%AEU)(€Ï045õõæå×ÆÆ­­ ’‚mU%%%/7//%%/E6AEE" €×(-5ýýõã×ÈÆ­­  †‚mE//7777C^CEEEEU^^^7AEU €å)00õýõæåÏÈ¶ ­’‚mmUE%U^^my‚‚‚Š||^^U^76AE"  €ã )( €€€€€€€ €æ  ‹f‹‹ffYE5A5A5A5A5A5A5A5A5AGYYff‹‹¦¦‹‹ €)()(-05005055555555555050500-(-()  €Y")()-*0*000000(-*0(0000*0*0)") )ÈõY   (-(0"-(0000000000-(0()(-(( ÈæææãååÏ×ÏÈÈ¶¶¦¦¦¦¦¦¦¦¦¦‹ffffYQEE€€€€€€€€€€€€€€€€€€€€€€€€€€€€€€€€€€€€€€€€€€€€€€€€€€€€€€€€€€€€€€€€€€€€€€€€€€€€€€€€€€€€€€€€€€€€€€€€€€€€€€€€€€€€€€€€€€€€€€€€€€€€€€€€€€€€€€€€€€€€€€€€€€€€€€€€€€€€€€€€€€€€€€€€€€€€€€€€€€€€€€€€€€€€€€€€€€€€€€€€€€€€€€€€€€€€€€€€€€€€€€€€€€€€€€€€€€€€€€€€€€€€€€€€€€€€€€€€€€€€€€€€€€€€€€€€€€€€€€€€€€€€€€€€€€€€€€€€€€€€€€€€€€€€€€€€€€€€€€€€€€€€€€€€€€€€€€€€€€€€€€€€€€€€€€€€€€€€€€€€€€€€€€€€€€€€€€€€€€€€€€€€€€€€€€€€€€€€€€€€€€€€€€€€€€€€€€€€€€€€€€€€€€€€€€€€€€€€€€€€€€€€€€€€€€€€€€€€€€€€€€€€€€€€€€€€€€€€€€€€€€€€€€€€€€€€€€€€€€€€€€€€€€€€€€€€€€€€€€€€€€€€€€€€€€€€€€€€€€€€€€€€€€€€€€€€€€€€€€€€€€€€€€€€€€€€€€€€
