/* XPM */
static char * www-shape_xpm[] = {
/* width height ncolors chars_per_pixel */
"53 32 14 1",
/* colors */
" 	s None	c None",
".	c #7070A6",
"X	c #6A70C4",
"o	c #958E89",
"O	c #797276",
"+	c #463BA5",
"@	c #8D93B7",
"#	c #45408D",
"$	c #B6A281",
"%	c #403F69",
"&	c #8F9BD8",
"*	c #4E39C6",
"=	c #FFD700",
"-	c #EE2C2C",
/* pixels */
"                                                     ",
"                        ...XXX                       ",
"                     .o...OXX++++                    ",
"                   oO.@ooooXX+#++++                  ",
"                  oOOOoooo@X++++++++                 ",
"                 OOOoooooo@++++++++#+                ",
"                OOoooooooo.+++++++++#+               ",
"               O#Oooo$$ooo@X+++++++++++              ",
"              %##Oo$$$$o@X&XX*+*++++++#+             ",
"              %%#Oo$$$$@*XXXXX+****+++++             ",
"             %%%#Ooo$$o.X@XXX*XX@@@@X+#++            ",
"             %%%#+..oooo@o@&&X@ooooo@@.++            ",
"             %%##++++.O...X&&@oooooooooO#            ",
"            %%%###++++++****XXoooooooooO##           ",
"            %%%###++++++*****X@ooooooooO##           ",
" ===== =====%==========+=====X==========+===== ===== ",
" =---= =---=%=---==---=+=---=X=---==---=#=---= =---= ",
" =---= =---=%=---==---=+=---=*=---==---=+=---= =---= ",
" =---= =---=%=---==---=+=---=+=---==---=#=---= =---= ",
" =---===---===---==---===---===---==---===---===---= ",
" ==---==---==---====---==---==---====---==---==---== ",
"  =---==---==---=##=---==---==---=Oo=---==---==---=  ",
"  =---==---==---=%#=---==---==---=O$=---==---==---=  ",
"  =---=--=--=---=%#=---=--=--=---=Oo=---=--=--=---=  ",
"  ==--=--=--=--==%%==--=--=--=--==.o==--=--=--=--==  ",
"   =--=--=--=--=%%%%=--=--=--=--=#..+=--=--=--=--=   ",
"   =-----=-----= %%%=-----=-----=#O+#=-----=-----=   ",
"   ==---===---==  %%==---===---==### ==---===---==   ",
"    =---= =---=    %%=---=%=---=%#%   =---= =---=    ",
"    =---= =---=      =---=%=---=%     =---= =---=    ",
"    ===== =====      =====%=====      ===== =====    ",
"                                                     "};
