/* XPM */
static char *X_PuzzlePiece[] = {
/* width height num_colors chars_per_pixel */
"    32    32       28            1",
/* colors */
". c #000000",
"# c #002424",
"a c #005454",
"b c #090909",
"c c #000900",
"d c #000009",
"e c #090000",
"f c #161616",
"g c #001600",
"h c #000016",
"i c #242424",
"j c #002400",
"k c #343434",
"l c #003400",
"m c #444444",
"n c #545454",
"o c #666666",
"p c #005424",
"q c #777777",
"r c #8a8a8a",
"s c #9c9c9c",
"t c #008a24",
"u c #afafaf",
"v c #c3c3c3",
"w c #d6d6d6",
"x c #008a54",
"y c #eaeaea",
"z c None",
/* pixels */
"zzzzzzzzzzzzzzzzzzzzzzzzzzzzzzzz",
"zzzzzzzzzwsyzzzzzzzwzzzzzzzzzzzz",
"zzzzzzzyqi.myzzzzzuiuyzzzzzzzzzz",
"zzzzzzzr...ksyzzuo#.fuzzzzzzzzzz",
"zzzzzzzm...mszvn.lxp.nwzzzzzzzzz",
"zzzzzzzwmf.muob..axp.bszzzzzzzzz",
"zzzzzzzzwo......gtx#..mwzzzzzzzz",
"zzzzzzzzwk......#xxg..brzzzzzzzz",
"zzzzzzyrf.......pxp....kwzzzzzzz",
"zzzzysk........cxxp.ffbiszzzzzzz",
"zzzumd.........gxxgfnoqosyzzzzzz",
"zwobpxppgc.....#xt.fqvwwyzzzzzzz",
"zyk.xxxxxxp#g..pxp.bqyzzsqzzzzzz",
"zzub.jptxxxxxppxxg..kwzwf.ryzzzz",
"zzym....cpptxxxtxp#deoum..fvzzzz",
"zzzub......hlpxxxxxxpp#....oyzzz",
"zzzzm.........txpptxxxxtp#gfvzzz",
"zzzzub.......#xx...jptxxxxx#oyzz",
"zzzzzn.......pxp......cppxxjfuzz",
"zzzzzvf......pxp.........g#c.owz",
"zzzzzzq.....gxxj...........bknuz",
"zzzzzzwf....pxxc..........knorvz",
"zzzzzzzq....pxp.........innquyzz",
"zzzzzzzwf..cxxl.......fmoquyzzzz",
"zzzzzzzzq..#xth.....imoquyzzzzzz",
"zzzzzzzzyi.pxpc...fmnqswzzzzzzzz",
"zzzzzzzzzrc.p#..fknoswzzzzzzzzzz",
"zzzzzzzzzyk...bknosvzzzzzzzzzzzz",
"zzzzzzzzzzs.bknoswyzzzzzzzzzzzzz",
"zzzzzzzzzzyooorvyzzzzzzzzzzzzzzz",
"zzzzzzzzzzzwsuyzzzzzzzzzzzzzzzzz",
"zzzzzzzzzzzzzzzzzzzzzzzzzzzzzzzz"
};
SIMPLE  =                    T                                                  
BITPIX  =                    8                                                  
NAXIS   =                    2                                                  
NAXIS1  =                   32                                                  
NAXIS2  =                   32                                                  
HISTORY Written by XV 3.10                                                      
END                                                                             
                                                                                
                                                                                
                                                                                
                                                                                
                                                                                
                                                                                
                                                                                
                                                                                
                                                                                
                                                                                
                                                                                
                                                                                
                                                                                
                                                                                
                                                                                
                                                                                
                                                                                
                                                                                
                                                                                
                                                                                
                                                                                
                                                                                
                                                                                
                                                                                
                                                                                
                                                                                
                                                                                
                                                                                
                                                                                
ÿÿÿÿÿÿÿÿÿÿÿÿÿÿÿÿÿÿÿÿÿÿÿÿÿÿÿÿÿÿÿÿÿÿÿÿÿÿÿÿÿÿÿÖœ¯êÿÿÿÿÿÿÿÿÿÿÿÿÿÿÿÿÿÿÿÿÿÿÿÿÿÿÿêfffŠÃ
êÿÿÿÿÿÿÿÿÿÿÿÿÿÿÿÿÿÿÿÿÿÿÿÿÿœ€	4TfœÖêÿÿÿÿÿÿÿÿÿÿÿÿÿÿÿÿÿÿÿÿÿÿê4€€€	4TfœÃÿÿÿÿÿÿÿÿÿÿÿÿ
ÿÿÿÿÿÿÿÿÿŠ€/€€4TfœÖÿÿÿÿÿÿÿÿÿÿÿÿÿÿÿÿÿÿê$€/R/€€€DTwœÖÿÿÿÿÿÿÿÿÿÿÿÿÿÿÿÿw€€RJ€
€€€€$Dfw¯êÿÿÿÿÿÿÿÿÿÿÿÿÿÖ€€RR€€€€€€€Dfw¯êÿÿÿÿÿÿÿÿÿÿÿw€€€€/R/€€€€€€€€€$TTw¯êÿÿ
ÿÿÿÿÿÿÖ€€€€/RR€€€€€€€€€€4TfŠÃÿÿÿÿÿÿÿw€€€€€RR€€€€€€€€€€€	4T¯ÿÿÿÿÿÿÃ€€€€€€/R/
€€€€€€€€€€fÖÿÿÿÿÿÿT€€€€€€€/R/€€€€€€//RR¯ÿÿÿÿÿÿ¯	€€€€€€€RR€€€/JRRRRRfêÿÿ
ÿÿÿÿD€€€€€€€€€JR//JRRRRJ/Ãÿÿÿÿÿÿ¯	€€€€€€/RRRRRR//€€€€fêÿÿÿÿÿêD€€€€//JRRRJ
R/f¯D€€Ãÿÿÿÿÿÿ¯	€/JRRRRR//RR€€4ÖÿÖ€Šêÿÿÿÿÿê4€RRRRRR/€€/R/€	wêÿÿœwÿÿÿÿÿÿ
ÿÖf	/R//€€€€€RJ€wÃÖÖêÿÿÿÿÿÿÿÿÿÿ¯D€€€€€€€€€RRTfwfœêÿÿÿÿÿÿÿÿÿÿêœ4€€€€€€€€
RR/€	$œÿÿÿÿÿÿÿÿÿÿÿÿÿêŠ€€€€€€€/R/€€€€4ÖÿÿÿÿÿÿÿÿÿÿÿÿÿÿÿÖ4€€€€€€RR€€	Šÿÿÿÿÿÿÿÿ
ÿÿÿÿÿÿÿÿÖf€€€€€€JR€€DÖÿÿÿÿÿÿÿÿÿÿÿÿÿÿÿÖD€D¯f	€€7R/€	œÿÿÿÿÿÿÿÿÿÿÿÿÿÿÿÿD€€€DœÿÃT
€R/€TÖÿÿÿÿÿÿÿÿÿÿÿÿÿÿÿÿŠ€€€4œêÿÿ¯f€¯ÿÿÿÿÿÿÿÿÿÿÿÿÿÿÿÿÿêw$€Dêÿÿÿÿÿ¯$¯êÿÿÿÿÿÿÿÿÿÿÿÿÿÿÿÿÿÿÿÖœêÿÿÿÿÿÿÿÖÿÿÿÿÿÿÿÿÿÿÿÿÿÿÿÿÿÿÿÿÿÿÿÿÿÿÿÿÿÿÿÿÿÿÿÿÿÿÿÿÿÿÿÿ€€€€€€€€€€€€€€€€€€€€€€€€€€€€€€€€€€€€€€€€€€€€€€€€€€€€€€€€€€€€€€€€€€€€€€€€€€€€€€€€€€€€€€€€€€€€€€€€€€€€€€€€€€€€€€€€€€€€€€€€€€€€€€€€€€€€€€€€€€€€€€€€€€€€€€€€€€€€€€€€€€€€€€€€€€€€€€€€€€€€€€€€€€€€€€€€€€€€€€€€€€€€€€€€€€€€€€€€€€€€€€€€€€€€€€€€€€€€€€€€€€€€€€€€€€€€€€€€€€€€€€€€€€€€€€€€€€€€€€€€€€€€€€€€€€€€€€€€€€€€€€€€€€€€€€€€€€€€€€€€€€€€€€€€€€€€€€€€€€€€€€€€€€€€€€€€€€€€€€€€€€€€€€€€€€€€€€€€€€€€€€€€€€€€€€€€€€€€€€€€€€€€€€€€€€€€€€€€€€€€€€€€€€€€€€€€€€€€€€€€€€€€€€€€€€€€€€€€€€€€€€€€€€€€€€€€€€€€€€€€€€€€€€€€€€€€€€€€€€€€€€€€€€€€€€€€€€€€€€€€€€€€€€€€€€€€€€€€€€€€€€€€€€€€€€€€€€€€€€€€€€€€€€€€€€€€€€€€€€€€€€€€€€€€€€€€€€€€€€€€€€€€€€€€€€€€€€€€€€€€€€€€€€€€€€€€€€€€€€€€€€€€€€€€€€€€€€€€€€€€€€€€€€€€€€€€€€€€€€€€€€€€€€€€€€€€€€€€€€€€€€€€€€€€€€€€€€€€€€€€€€€€€€€€€€€€€€€€€€€€€€€€€€€€€€€€€€€€€€€€€€€€€€€€€€€€€€€€€€€€€€€€€€€€€€€€€€€€€€€€€€€€€€€€€€€€€€€€€€€€€€€€€€€€€€€€€€€€€€€€€€€€€€€€€€€€€€€€€€€€€€€€€€€€€€€€€€€€€€€€€€€€€€€€€€€€€€€€€€€€€€€€€€€€€€€€€€€€€€€€€€€€€€€€€€€€€€€€€€€€€€€€€€€€€€€€€€€€€€€€€€€€€€€€€€€€€€€€€€€€€€€€€€€€€€€€€€€€€€€€€€€€€€€€€€€€€€€€€€€€€€€€€€€€€€€€€€€€€€€€€€€€€€€€€€€€€€€€€€€€€€€€€€€€€€€€€€€€€€€€€€€€€€€€€€€€€€€€€€€€€€€€€€€€€€€€€€€€€€€€€€€€€€€€€€€€€€€€€€€€€€€€€€€€€€€€€€€€€€€€€€€€€€€€€€€€€€€€€€€€€€€€€€€€€€€€€€€€€€€€€€€€€€€€€€€€€€€€€€€€€€€€€€€€€€€€€€€€€€€€€€€€€€€€€€€€€€€€€€€€€€€€€€€€€€€€€€€€€€€€€€€€€€€€€€€€€€€€€€€€€€€€€€€€€€€€€€€€€€€€€€€€€€€€€€€€€€€€€€€€€€€€€€€€€€€€€€€€€€€€€€€€€€€€€€€€€€€€€€€€€€€€€€€€€€€€€€€€€€€€€€€€€€€€€€€€€€€€€€€€€€€€€€€€€€€€€€€€€€€€€€€€€€€€€€€€€€€€€€€€€€€€€€€€€€€€€€€€€€€€€€€€€€€€€€€€€€€€€€€€€€€€€€€€€€€€€€€€€€€€€€€€€€€€€€€€€€€€€€€€€€€€€€€€€€€€€€€€€€€€€€€€€€€€€€€€€€€€€€€€€€€€€€€€€€€€€€€€€€€€€€€€€€€€€€€€€€€€€€€€€€€€€€€€€€€€€€€€€€€€€€€€€€€€€€€€€€€€€€€€€€€€€€€€€€€€€€€€€€€€€€€€€€€€€€€€€€€€€€€€€€€€€€€€€€€€€€€€€€€€€€€€€€€€€€€€€€€€€€€€€€€€€€€€€€€€€€€€€€€€€€€€€€€€€€€€€€€€€€€€€€€€€€€€€€€€€€€€€€€€€€€€€€€€€€€€€€€€€€€€€€€€€€€€€€€€€€€€€€€€€€€€€€€€€€€€€€€€
